<?xml version="1.0" encoding="UTF-8" standalone="no"?>
<!-- Created with matplotlib (https://matplotlib.org/) -->

<svg
   xmlns:dc="http://purl.org/dc/elements/1.1/"
   xmlns:cc="http://creativecommons.org/ns#"
   xmlns:rdf="http://www.w3.org/1999/02/22-rdf-syntax-ns#"
   xmlns:svg="http://www.w3.org/2000/svg"
   xmlns="http://www.w3.org/2000/svg"
   xmlns:xlink="http://www.w3.org/1999/xlink"
   xmlns:sodipodi="http://sodipodi.sourceforge.net/DTD/sodipodi-0.dtd"
   xmlns:inkscape="http://www.inkscape.org/namespaces/inkscape"
   height="2in"
   version="1.1"
   viewBox="0 0 468 144"
   width="6.5in"
   id="svg11112"
   sodipodi:docname="figure4.svg"
   inkscape:version="0.92.3 (2405546, 2018-03-11)">
  <metadata
     id="metadata11116">
    <rdf:RDF>
      <cc:Work
         rdf:about="">
        <dc:format>image/svg+xml</dc:format>
        <dc:type
           rdf:resource="http://purl.org/dc/dcmitype/StillImage" />
        <dc:title></dc:title>
      </cc:Work>
    </rdf:RDF>
  </metadata>
  <sodipodi:namedview
     pagecolor="#ffffff"
     bordercolor="#666666"
     borderopacity="1"
     objecttolerance="10"
     gridtolerance="10"
     guidetolerance="10"
     inkscape:pageopacity="0"
     inkscape:pageshadow="2"
     inkscape:window-width="1920"
     inkscape:window-height="1015"
     id="namedview11114"
     showgrid="false"
     units="in"
     inkscape:zoom="1.4142136"
     inkscape:cx="331.95434"
     inkscape:cy="90.005872"
     inkscape:window-x="0"
     inkscape:window-y="0"
     inkscape:window-maximized="1"
     inkscape:current-layer="svg11112" />
  <defs
     id="defs10393"
     style="stroke-linecap:butt;stroke-linejoin:round">
    <style
       type="text/css"
       id="style10391">
*{stroke-linecap:butt;stroke-linejoin:round;}
  </style>
  </defs>
  <g
     id="line2d_9"
     style="stroke-linecap:butt;stroke-linejoin:round"
     transform="matrix(0.60414007,0,0,0.60414007,27.288201,-73.543288)">
    <path
       clip-path="url(#pe503b99c13)"
       d="m 53.972233,273.83964 0.706509,-0.58802 0.73971,-0.54389 0.769931,-0.49755 0.797052,-0.44923 0.820964,-0.39908 0.84157,-0.34734 0.858788,-0.2942 0.872547,-0.23986 0.882793,-0.18457 0.889485,-0.12853 0.892594,-0.072 0.89211,-0.0151 0.888033,0.0418 0.88038,0.0985 0.869183,0.15486 0.854486,0.21058 0.836347,0.26545 0.814842,0.31925 0.790055,0.37176 0.762086,0.42279 0.73105,0.4721 0.69707,0.51952 0.660282,0.56484 0.620836,0.60789 0.57889,0.64849 0.534614,0.68649 0.488183,0.72171 0.439789,0.75402 0.389622,0.78332 0.337887,0.80944 0.284791,0.83232 0.230549,0.85183 0.175379,0.86792 0.119501,0.88052 0.06314,0.88956 0.0065,0.89503 -0.05011,0.8969 -0.106544,0.89514 -0.162553,0.88979 -0.217906,0.88086 -0.272382,0.86837 -0.325761,0.8524 -0.377828,0.83298 -0.428375,0.81021 -0.477195,0.78419 -0.524095,0.755 -0.568885,0.72278 -0.611382,0.68764 -0.65142,0.64973 -0.688834,0.60921 -0.723473,0.56624 -0.7552,0.52098 -0.783886,0.47363 -0.809416,0.42437 -0.831686,0.3734 -0.850607,0.32092 -0.866104,0.26717 -0.878112,0.21232 -0.886585,0.15663 -0.891488,0.1003 -0.892802,0.0436 -0.890519,-0.0133 -0.884653,-0.0702 -0.875222,-0.12675 -0.862268,-0.18281 -0.845843,-0.23813 -0.82601,-0.2925 -0.802853,-0.34568 -0.776461,-0.39748 -0.746945,-0.44767 -0.714419,-0.49606 -0.679018,-0.54245 -0.640882,-0.58666 -0.600165,-0.62851 -0.557032,-0.66782 -0.511656,-0.70445 -0.46422,-0.73824 -0.414914,-0.76906 -0.363938,-0.79678 -0.311496,-0.8213 -0.2578,-0.84249 -0.203066,-0.86031 -0.147514,-0.87466 -0.09137,-0.88549 -0.03486,-0.89275 0.0218,-0.89641 0.07837,-0.89647 0.134617,-0.89292 0.190325,-0.88577 0.245267,-0.87505 0.299222,-0.86082 0.351972,-0.84311 0.403304,-0.82202 0.453014,-0.7976 0.500897,-0.76998 0.546765,-0.73926 0.590431,-0.70556 0.631719,-0.66903 0.670464,-0.62978"
       style="fill:none;stroke:#b22222;stroke-width:1.5;stroke-linecap:square;stroke-linejoin:round"
       id="path10514"
       inkscape:connector-curvature="0" />
  </g>
  <g
     id="line2d_10"
     style="stroke-linecap:butt;stroke-linejoin:round"
     transform="matrix(0.60414007,0,0,0.60414007,27.288201,-73.543288)">
    <path
       clip-path="url(#pe503b99c13)"
       d="m 124.0867,198.80693 1.67317,0.15306 1.66025,0.25841 1.64067,0.36271 1.61446,0.46556 1.58176,0.56654 1.54268,0.66523 1.49741,0.76125 1.44609,0.85419 1.38895,0.9437 1.32623,1.02941 1.25815,1.11098 1.18502,1.18807 1.10712,1.26037 1.02475,1.32761 0.93826,1.38949 0.84799,1.44578 0.7543,1.49625 0.65759,1.5407 0.55821,1.57893 0.4566,1.61082 0.35314,1.63622 0.24827,1.65502 0.14239,1.66717 0.0359,1.6726 -0.0707,1.67129 -0.17697,1.66326 -0.28256,1.64853 -0.38703,1.62716 -0.48992,1.59924 -0.59086,1.56488 -0.6894,1.52421 -0.78518,1.47742 -0.87779,1.42467 -0.96687,1.36618 -1.05205,1.30219 -1.133,1.23297 -1.20938,1.15877 -1.28091,1.07991 -1.34726,0.9967 -1.40819,0.90948 -1.46346,0.8186 -1.51282,0.72441 -1.55611,0.62732 -1.59312,0.52769 -1.62371,0.42595 -1.64778,0.32248 -1.6652,0.21772 -1.67592,0.11208 -1.67989,0.006 -1.6771,-0.10012 -1.66756,-0.20584 -1.65129,-0.31071 -1.62838,-0.41435 -1.59891,-0.51631 -1.56301,-0.6162 -1.52081,-0.71359 -1.47249,-0.80813 -1.41824,-0.8994 -1.35827,-0.98705 -1.29284,-1.07074 -1.22221,-1.1501 -1.14664,-1.22483 -1.06647,-1.29465 -0.982,-1.35923 -0.893575,-1.41835 -0.801551,-1.47176 -0.706301,-1.51923 -0.608206,-1.56061 -0.507663,-1.59568 -0.405075,-1.62433 -0.300857,-1.64645 -0.195427,-1.66193 -0.08921,-1.67073 0.01737,-1.67279 0.123873,-1.66811 0.229881,-1.65673 0.334962,-1.63867 0.438695,-1.61401 0.540662,-1.58286 0.640452,-1.54532 0.737662,-1.50157 0.831902,-1.45178 0.922796,-1.39613 1.00996,-1.33486 1.09308,-1.26822 1.17178,-1.19647 1.24577,-1.1199 1.31475,-1.03883 1.37842,-0.95357 1.43655,-0.86448 1.48889,-0.77189 1.53524,-0.67621 1.5754,-0.57779 1.60923,-0.47706 1.63657,-0.3744 1.65732,-0.27024 1.67141,-0.16498 1.67875,-0.0591 1.67934,0.0471"
       style="fill:none;stroke:#b22222;stroke-width:1.5;stroke-linecap:square;stroke-linejoin:round"
       id="path10517"
       inkscape:connector-curvature="0" />
  </g>
  <g
     id="line2d_11"
     style="stroke-linecap:butt;stroke-linejoin:round"
     transform="matrix(0.60414007,0,0,0.60414007,27.288201,-73.543288)">
    <path
       clip-path="url(#pe503b99c13)"
       d="m 43.985589,303.82708 -0.146045,-0.18849 -0.10105,-0.23404 -0.05565,-0.27866 -0.01002,-0.32216 0.03565,-0.36434 0.08117,-0.40508 0.126369,-0.44416 0.171058,-0.48148 0.215056,-0.51685 0.25819,-0.55013 0.300284,-0.58121 0.341168,-0.60993 0.38068,-0.63622 0.418657,-0.65993 0.45495,-0.68098 0.48941,-0.6993 0.521899,-0.7148 0.552288,-0.72742 0.580452,-0.73712 0.606279,-0.74383 0.629665,-0.74757 0.650515,-0.74828 0.668746,-0.74599 0.684284,-0.74069 0.697067,-0.73241 0.707043,-0.72118 0.714171,-0.70704 0.718425,-0.69007 0.719785,-0.6703 0.718247,-0.64785 0.713817,-0.62277 0.706512,-0.59521 0.696363,-0.56523 0.68341,-0.53298 0.667704,-0.49859 0.649311,-0.46219 0.628303,-0.42392 0.604764,-0.38396 0.578791,-0.34244 0.550487,-0.29954 0.519966,-0.25544 0.487352,-0.21032 0.452775,-0.16434 0.416375,-0.1177 0.378298,-0.0706 0.338699,-0.0232 0.297735,0.0243 0.255573,0.0717 0.212381,0.11879 0.168334,0.16541 0.12361,0.21138 0.07839,0.25648 0.03285,0.30056 -0.01282,0.34342 -0.05844,0.3849 -0.103823,0.42484 -0.148788,0.46305 -0.193154,0.49942 -0.236742,0.53376 -0.279378,0.56595 -0.320888,0.59587 -0.361105,0.62339 -0.39987,0.6484 -0.437024,0.67079 -0.472417,0.69049 -0.50591,0.70741 -0.537364,0.72147 -0.566655,0.73264 -0.593665,0.74085 -0.618283,0.74607 -0.640412,0.74831 -0.659963,0.74751 -0.676856,0.74371 -0.691023,0.73692 -0.702408,0.72716 -0.710965,0.71448 -0.716659,0.6989 -0.719467,0.68053 -0.719379,0.6594 -0.716392,0.63564 -0.710522,0.60929 -0.701792,0.58051 -0.690233,0.54939 -0.675898,0.51604 -0.658839,0.48063 -0.639129,0.44328 -0.616844,0.40414 -0.592075,0.36338 -0.564924,0.32116 -0.535496,0.27763 -0.503912,0.233 -0.470301,0.18742 -0.434794,0.14109 -0.397537,0.0942 -0.358679,0.0469 -0.318377,-5.6e-4 -0.276793,-0.048 -0.234095,-0.0953 -0.190454,-0.14218"
       style="fill:none;stroke:#000080;stroke-width:1.5;stroke-linecap:square;stroke-linejoin:round"
       id="path10520"
       inkscape:connector-curvature="0" />
  </g>
  <g
     id="line2d_12"
     style="stroke-linecap:butt;stroke-linejoin:round"
     transform="matrix(0.60414007,0,0,0.60414007,27.288201,-73.543288)">
    <path
       clip-path="url(#pe503b99c13)"
       d="m 82.083496,239.3421 1.12611,-1.02855 1.172023,-0.97049 1.213218,-0.90851 1.249527,-0.84288 1.280806,-0.77386 1.306926,-0.70171 1.327785,-0.62674 1.343296,-0.54925 1.353398,-0.46955 1.358052,-0.38795 1.357237,-0.3048 1.350956,-0.22041 1.339235,-0.13514 1.322125,-0.0493 1.29968,0.0367 1.27202,0.12255 1.23922,0.20793 1.20145,0.29246 1.15882,0.37582 1.11154,0.45767 1.05977,0.53766 1.00375,0.61551 0.94367,0.69086 0.87981,0.76344 0.81239,0.83294 0.74171,0.89909 0.66803,0.96162 0.59168,1.02027 0.51293,1.07482 0.43212,1.12504 0.34958,1.17073 0.26561,1.21171 0.18059,1.2478 0.0948,1.27888 0.009,1.3048 -0.0775,1.32546 -0.16332,1.3408 -0.24853,1.35073 -0.33273,1.35522 -0.41558,1.35426 -0.49677,1.34784 -0.57596,1.336 -0.65283,1.31878 -0.72706,1.29624 -0.79837,1.26849 -0.86647,1.23562 -0.93108,1.19779 -0.99194,1.15513 -1.0488,1.10782 -1.10143,1.05605 -1.14965,1.00003 -1.19322,0.93997 -1.23199,0.87614 -1.26581,0.80877 -1.29452,0.73816 -1.318015,0.66456 -1.336213,0.58829 -1.349027,0.50966 -1.356408,0.42896 -1.358328,0.34655 -1.354778,0.26274 -1.345774,0.17787 -1.331349,0.0923 -1.311565,0.006 -1.286499,-0.0797 -1.256252,-0.16533 -1.220948,-0.25032 -1.180727,-0.33431 -1.135751,-0.41695 -1.086203,-0.49792 -1.03228,-0.57687 -0.974201,-0.65351 -0.912199,-0.72752 -0.846525,-0.79859 -0.77744,-0.86645 -0.705227,-0.93083 -0.630173,-0.99144 -0.552581,-1.04808 -0.472766,-1.10048 -0.391045,-1.14846 -0.307751,-1.19182 -0.223217,-1.23038 -0.137784,-1.26397 -0.0518,-1.29249 0.0344,-1.31579 0.120456,-1.33381 0.206029,-1.34644 0.290771,-1.35366 0.374344,-1.35542 0.456408,-1.35173 0.536635,-1.3426 0.614701,-1.32805 0.690292,-1.30817 0.763103,-1.28301 0.832842,-1.25269 0.899227,-1.21732 0.96199,-1.17705 1.020881,-1.13205 1.075661,-1.08248"
       style="fill:none;stroke:#000080;stroke-width:1.5;stroke-linecap:square;stroke-linejoin:round"
       id="path10523"
       inkscape:connector-curvature="0" />
  </g>
  <g
     id="patch_3"
     style="stroke-width:1.6552453;stroke-linecap:butt;stroke-linejoin:round;stroke-miterlimit:4;stroke-dasharray:none"
     transform="matrix(0.60414007,0,0,0.60414007,27.288201,-73.543288)">
    <path
       d="M 30.58,316.98052 V 187.01948"
       style="fill:none;stroke:#000000;stroke-width:1.6552453;stroke-linecap:square;stroke-linejoin:miter;stroke-miterlimit:4;stroke-dasharray:none"
       id="path10526"
       inkscape:connector-curvature="0" />
  </g>
  <g
     id="patch_5"
     style="stroke-width:1.6552453;stroke-linecap:butt;stroke-linejoin:round;stroke-miterlimit:4;stroke-dasharray:none"
     transform="matrix(0.60414007,0,0,0.60414007,27.288201,-73.543288)">
    <path
       d="M 30.58,316.98052 H 158.955"
       style="fill:none;stroke:#000000;stroke-width:1.6552453;stroke-linecap:square;stroke-linejoin:miter;stroke-miterlimit:4;stroke-dasharray:none"
       id="path10532"
       inkscape:connector-curvature="0" />
  </g>
  <g
     id="line2d_21"
     style="stroke-linecap:butt;stroke-linejoin:round"
     transform="matrix(0.60414007,0,0,0.60414007,19.788201,-73.543288)">
    <path
       clip-path="url(#paabfeb2ebe)"
       d="m 232.07304,297.70797 -0.1864,-0.23276 -0.13133,-0.28857 -0.0757,-0.34323 -0.0198,-0.39649 0.0361,-0.44818 0.092,-0.49805 0.14743,-0.54591 0.20231,-0.59158 0.25636,-0.63487 0.30939,-0.6756 0.36116,-0.7136 0.41149,-0.74874 0.46015,-0.78087 0.50696,-0.80984 0.55174,-0.83555 0.59428,-0.85791 0.63445,-0.8768 0.67204,-0.89217 0.70694,-0.90394 0.73899,-0.91208 0.76807,-0.91653 0.79405,-0.91731 0.81682,-0.91439 0.83633,-0.90777 0.85245,-0.89752 0.86515,-0.88365 0.87436,-0.86621 0.88004,-0.84529 0.8822,-0.82097 0.88079,-0.79334 0.87583,-0.76251 0.86736,-0.72862 0.85539,-0.69179 0.83997,-0.65218 0.82117,-0.60994 0.79907,-0.56524 0.77375,-0.51826 0.7453,-0.46921 0.71387,-0.41826 0.67956,-0.36563 0.6425,-0.31152 0.60287,-0.25617 0.56081,-0.19977 0.51648,-0.14258 0.47008,-0.0848 0.42179,-0.0267 0.37179,0.0315 0.3203,0.0896 0.26752,0.14734 0.21366,0.20448 0.15895,0.2608 0.10358,0.31606 0.0478,0.37005 -0.008,0.42255 -0.0641,0.47335 -0.11977,0.52224 -0.17496,0.56903 -0.22945,0.61354 -0.28302,0.65556 -0.33544,0.69495 -0.38652,0.73154 -0.43603,0.76519 -0.48381,0.79575 -0.52961,0.82311 -0.5733,0.84716 -0.61468,0.86779 -0.65357,0.88493 -0.68984,0.89851 -0.72333,0.90846 -0.75391,0.91477 -0.78145,0.91739 -0.80584,0.9163 -0.82699,0.91154 -0.84482,0.90311 -0.85923,0.89103 -0.87019,0.87537 -0.87764,0.85618 -0.88157,0.83355 -0.88193,0.80756 -0.87876,0.77832 -0.87204,0.74594 -0.8618,0.71057 -0.84811,0.67232 -0.83099,0.63137 -0.81053,0.58789 -0.7868,0.54202 -0.75991,0.49399 -0.72995,0.44396 -0.69707,0.39214 -0.66136,0.33874 -0.623,0.28399 -0.58213,0.22808 -0.53892,0.17126 -0.49353,0.11375 -0.44615,0.0558 -0.39699,-0.002 -0.34622,-0.0606 -0.29406,-0.11853 -0.24071,-0.176"
       style="fill:none;stroke:#b22222;stroke-width:1.5;stroke-linecap:square;stroke-linejoin:round"
       id="path10667"
       inkscape:connector-curvature="0" />
  </g>
  <g
     id="line2d_22"
     style="stroke-linecap:butt;stroke-linejoin:round"
     transform="matrix(0.60414007,0,0,0.60414007,19.788201,-73.543288)">
    <path
       clip-path="url(#paabfeb2ebe)"
       d="m 289.53761,209.22962 1.34835,-1.25764 1.40502,-1.18914 1.45604,-1.11583 1.50118,-1.03804 1.5403,-0.95606 1.5732,-0.87025 1.59976,-0.78092 1.6199,-0.68845 1.6335,-0.59321 1.64053,-0.49558 1.64096,-0.39595 1.63476,-0.29472 1.622,-0.19233 1.6027,-0.0891 1.57694,0.0144 1.54485,0.11788 1.50652,0.2209 1.46213,0.32301 1.41185,0.42383 1.35589,0.52294 1.29447,0.61995 1.22784,0.71446 1.15626,0.80609 1.08002,0.89448 0.99944,0.97926 0.91484,1.0601 0.82654,1.13668 0.73492,1.20868 0.64035,1.2758 0.54319,1.3378 0.44384,1.3944 0.34272,1.44539 0.2402,1.49056 0.13672,1.52973 0.0327,1.56274 -0.0715,1.58946 -0.17534,1.60977 -0.2785,1.62361 -0.38055,1.6309 -0.48107,1.63164 -0.57964,1.62579 -0.67588,1.6134 -0.7694,1.59453 -0.85983,1.56921 -0.94678,1.5376 -1.02994,1.49978 -1.10893,1.45592 -1.18347,1.40621 -1.25324,1.35083 -1.31796,1.29002 -1.37738,1.224 -1.43125,1.15306 -1.47935,1.07748 -1.52151,0.99756 -1.55753,0.91361 -1.58728,0.826 -1.61065,0.73506 -1.62752,0.64115 -1.63784,0.54467 -1.64156,0.44598 -1.63869,0.34552 -1.6292,0.24365 -1.61316,0.1408 -1.59062,0.0374 -1.56168,-0.0662 -1.52645,-0.16948 -1.48508,-0.27209 -1.43771,-0.37361 -1.38457,-0.47362 -1.32585,-0.57173 -1.26179,-0.66754 -1.19265,-0.76066 -1.1187,-0.85071 -1.04026,-0.93734 -0.95762,-1.0202 -0.87113,-1.09895 -0.78112,-1.17326 -0.68798,-1.24287 -0.59207,-1.30746 -0.49376,-1.36678 -0.39348,-1.42062 -0.29161,-1.46871 -0.18855,-1.51091 -0.0848,-1.54702 0.0194,-1.57689 0.12346,-1.60042 0.22704,-1.6175 0.32969,-1.62808 0.43103,-1.63209 0.53062,-1.62953 0.62808,-1.62042 0.723,-1.60477 0.81503,-1.58266 0.90376,-1.55419 0.98885,-1.51945 1.06998,-1.4786 1.14677,-1.43179 1.21897,-1.37921 1.28625,-1.32109"
       style="fill:none;stroke:#b22222;stroke-width:1.5;stroke-linecap:square;stroke-linejoin:round"
       id="path10670"
       inkscape:connector-curvature="0" />
  </g>
  <g
     id="line2d_23"
     style="stroke-linecap:butt;stroke-linejoin:round"
     transform="matrix(0.60414007,0,0,0.60414007,19.788201,-73.543288)">
    <path
       clip-path="url(#paabfeb2ebe)"
       d="m 235.03788,289.08217 0.69535,-0.68074 0.70292,-0.66757 0.70765,-0.65171 0.70953,-0.63323 0.70857,-0.6122 0.70474,-0.5887 0.69808,-0.56283 0.6886,-0.53469 0.67636,-0.50441 0.66139,-0.4721 0.64376,-0.43787 0.62353,-0.40189 0.60079,-0.36429 0.57564,-0.32522 0.54817,-0.28485 0.51849,-0.24332 0.48672,-0.20082 0.45299,-0.15751 0.41744,-0.11356 0.38021,-0.0691 0.34145,-0.0245 0.3013,0.0203 0.25996,0.065 0.21755,0.10944 0.17428,0.15345 0.13031,0.19681 0.0858,0.23941 0.041,0.28103 -0.004,0.32152 -0.049,0.36071 -0.0938,0.39846 -0.13827,0.4346 -0.18213,0.46898 -0.22526,0.50149 -0.26748,0.53197 -0.30862,0.56031 -0.34853,0.58639 -0.38703,0.61011 -0.42396,0.63138 -0.45921,0.6501 -0.49258,0.66621 -0.52399,0.67962 -0.55328,0.69032 -0.58035,0.69822 -0.60506,0.70332 -0.62736,0.70557 -0.64713,0.70501 -0.66428,0.70158 -0.67877,0.69534 -0.69051,0.6863 -0.69949,0.67449 -0.70564,0.65997 -0.70895,0.6428 -0.7094,0.62303 -0.70701,0.60075 -0.70177,0.57605 -0.69369,0.54904 -0.68282,0.51982 -0.66921,0.48849 -0.6529,0.45522 -0.63397,0.42009 -0.61247,0.38328 -0.58851,0.34493 -0.56219,0.30519 -0.5336,0.26422 -0.50285,0.22218 -0.4701,0.17925 -0.43543,0.1356 -0.39903,0.0914 -0.36101,0.0468 -0.32153,0.002 -0.28078,-0.0427 -0.23887,-0.0873 -0.19602,-0.13151 -0.15237,-0.17522 -0.10811,-0.21822 -0.0634,-0.26035 -0.0185,-0.30142 0.0266,-0.34129 0.0715,-0.37978 0.11612,-0.41674 0.16027,-0.45201 0.2038,-0.48549 0.24649,-0.51698 0.2882,-0.54642 0.32874,-0.57363 0.36797,-0.59856 0.4057,-0.62106 0.44181,-0.64106 0.47613,-0.65848 0.50854,-0.67326 0.53891,-0.68532 0.5671,-0.69461 0.593,-0.70112 0.61653,-0.70481 0.63756,-0.70564 0.65603,-0.70365 0.67186,-0.69881 0.68499,-0.69117"
       style="fill:none;stroke:#000080;stroke-width:1.5;stroke-linecap:square;stroke-linejoin:round"
       id="path10673"
       inkscape:connector-curvature="0" />
  </g>
  <g
     id="line2d_24"
     style="stroke-linecap:butt;stroke-linejoin:round"
     transform="matrix(0.60414007,0,0,0.60414007,19.788201,-73.543288)">
    <path
       clip-path="url(#paabfeb2ebe)"
       d="m 262.1553,270.25407 -0.83615,-0.80473 -0.76799,-0.87478 -0.69671,-0.9413 -0.62265,-1.00402 -0.54606,-1.06272 -0.46729,-1.11713 -0.38663,-1.16704 -0.30441,-1.21225 -0.22096,-1.25258 -0.13664,-1.28787 -0.0517,-1.31798 0.0333,-1.34276 0.1183,-1.36216 0.20277,-1.37605 0.28644,-1.38442 0.36895,-1.3872 0.44997,-1.38441 0.52918,-1.37603 0.60627,-1.36212 0.68091,-1.34272 0.75281,-1.31792 0.82167,-1.2878 0.88723,-1.25251 0.94922,-1.21216 1.00739,-1.16694 1.06149,-1.11703 1.11133,-1.0626 1.15668,-1.0039 1.19738,-0.94117 1.23327,-0.87463 1.26418,-0.80459 1.29,-0.73129 1.31063,-0.65506 1.32598,-0.57618 1.336,-0.49499 1.34063,-0.41181 1.33986,-0.32696 1.3337,-0.24079 1.32217,-0.15367 1.30532,-0.0659 1.2832,0.0221 1.25593,0.11003 1.22359,0.19751 1.18633,0.28419 1.14429,0.36974 1.09765,0.4538 1.04657,0.53602 0.9913,0.6161 0.93202,0.69368 0.869,0.76847 0.80248,0.84018 0.73272,0.90849 0.66001,0.97315 0.58465,1.0339 0.50693,1.09047 0.42717,1.14266 0.34569,1.19024 0.26282,1.23304 0.17889,1.27087 0.0942,1.30358 0.009,1.33103 -0.0759,1.35314 -0.16062,1.3698 -0.24473,1.38093 -0.32786,1.38651 -0.40966,1.3865 -0.48983,1.38092 -0.56801,1.36977 -0.64391,1.3531 -0.71722,1.33098 -0.78764,1.30352 -0.85488,1.27079 -0.91869,1.23296 -0.97879,1.19015 -1.03496,1.14256 -1.08696,1.09036 -1.13457,1.03377 -1.17763,0.97303 -1.21594,0.90836 -1.24935,0.84003 -1.27774,0.76833 -1.30097,0.69352 -1.31897,0.61593 -1.33166,0.53586 -1.33898,0.45362 -1.34092,0.36957 -1.33746,0.28402 -1.3286,0.19733 -1.31441,0.10985 -1.29491,0.0219 -1.27021,-0.0661 -1.24038,-0.15384 -1.20557,-0.24097 -1.16589,-0.32714 -1.12154,-0.41197 -1.07265,-0.49516 -1.01945,-0.57635 -0.96214,-0.65521 -0.90097,-0.73145"
       style="fill:none;stroke:#000080;stroke-width:1.5;stroke-linecap:square;stroke-linejoin:round"
       id="path10676"
       inkscape:connector-curvature="0" />
  </g>
  <g
     id="patch_8"
     style="stroke-width:1.6552453;stroke-linecap:butt;stroke-linejoin:round;stroke-miterlimit:4;stroke-dasharray:none"
     transform="matrix(0.60414007,0,0,0.60414007,19.788201,-73.543288)">
    <path
       d="M 213.155,316.1875 V 187.8125"
       style="fill:none;stroke:#000000;stroke-width:1.6552453;stroke-linecap:square;stroke-linejoin:miter;stroke-miterlimit:4;stroke-dasharray:none"
       id="path10679"
       inkscape:connector-curvature="0" />
  </g>
  <g
     id="patch_10"
     style="stroke-width:1.6552453;stroke-linecap:butt;stroke-linejoin:round;stroke-miterlimit:4;stroke-dasharray:none"
     transform="matrix(0.60414007,0,0,0.60414007,19.788201,-73.543288)">
    <path
       d="M 213.155,316.1875 H 341.53"
       style="fill:none;stroke:#000000;stroke-width:1.6552453;stroke-linecap:square;stroke-linejoin:miter;stroke-miterlimit:4;stroke-dasharray:none"
       id="path10685"
       inkscape:connector-curvature="0" />
  </g>
  <g
     id="line2d_33"
     style="stroke-linecap:butt;stroke-linejoin:round"
     transform="matrix(0.60414007,0,0,0.60414007,6.288201,-73.543288)">
    <path
       clip-path="url(#p98be2b80bb)"
       d="m 412.34376,283.751 0.61031,-0.44745 0.63589,-0.40974 0.65889,-0.37038 0.67926,-0.32952 0.69688,-0.28734 0.71169,-0.244 0.72365,-0.19968 0.73269,-0.15455 0.73877,-0.1088 0.74189,-0.0626 0.74201,-0.0162 0.73915,0.0303 0.73332,0.0767 0.72452,0.12279 0.71281,0.16836 0.69823,0.21326 0.68084,0.2573 0.66072,0.30031 0.63791,0.3421 0.61256,0.38252 0.58473,0.4214 0.55455,0.45859 0.52213,0.49391 0.48761,0.52727 0.45114,0.55849 0.41283,0.58746 0.37288,0.61407 0.33141,0.63821 0.28862,0.65977 0.24466,0.67869 0.19972,0.69486 0.15397,0.70824 0.1076,0.71877 0.0608,0.7264 0.0138,0.73111 -0.0333,0.73287 -0.0803,0.73168 -0.12695,0.72756 -0.17309,0.72049 -0.21852,0.71052 -0.26307,0.6977 -0.30657,0.68207 -0.34884,0.66368 -0.38969,0.64264 -0.42898,0.61899 -0.46653,0.59286 -0.50222,0.56433 -0.53588,0.53355 -0.56738,0.5006 -0.5966,0.46565 -0.62341,0.42881 -0.64772,0.39026 -0.66941,0.35012 -0.68842,0.30859 -0.70464,0.2658 -0.71803,0.22195 -0.72854,0.1772 -0.7361,0.13174 -0.7407,0.0858 -0.74233,0.0394 -0.74095,-0.007 -0.7366,-0.0535 -0.72929,-0.0998 -0.71903,-0.14564 -0.70587,-0.19091 -0.68989,-0.2354 -0.67111,-0.27894 -0.64964,-0.32137 -0.62556,-0.36249 -0.59894,-0.40217 -0.56993,-0.44021 -0.53861,-0.47649 -0.50513,-0.51085 -0.46961,-0.54315 -0.4322,-0.57327 -0.39305,-0.60107 -0.35232,-0.62645 -0.31018,-0.64932 -0.26677,-0.66957 -0.2223,-0.68712 -0.17693,-0.7019 -0.13086,-0.71386 -0.0842,-0.72295 -0.0373,-0.72912 0.01,-0.73236 0.0569,-0.73265 0.10368,-0.72999 0.1501,-0.72438 0.1959,-0.71587 0.24092,-0.70447 0.28497,-0.69023 0.32786,-0.67321 0.36945,-0.65349 0.40954,-0.63113 0.44798,-0.60623 0.48463,-0.57889 0.51931,-0.54922 0.55191,-0.51733 0.58228,-0.48337"
       style="fill:none;stroke:#b22222;stroke-width:1.5;stroke-linecap:square;stroke-linejoin:round"
       id="path10857"
       inkscape:connector-curvature="0" />
  </g>
  <g
     id="line2d_34"
     style="stroke-linecap:butt;stroke-linejoin:round"
     transform="matrix(0.60414007,0,0,0.60414007,6.288201,-73.543288)">
    <path
       clip-path="url(#p98be2b80bb)"
       d="m 453.11842,232.28962 1.29155,-0.40399 1.31251,-0.32668 1.32818,-0.24806 1.3385,-0.16843 1.34343,-0.0881 1.34296,-0.007 1.33707,0.0732 1.3258,0.15361 1.30919,0.23338 1.28731,0.31222 1.26026,0.38979 1.22811,0.4658 1.19103,0.53994 1.14916,0.61189 1.10265,0.68139 1.0517,0.74813 0.99652,0.81187 0.93733,0.87235 0.87436,0.9293 0.80788,0.98251 0.73813,1.03177 0.66542,1.07687 0.59003,1.11764 0.51226,1.15391 0.43243,1.18553 0.35085,1.21237 0.26787,1.23434 0.18381,1.25133 0.099,1.26329 0.0138,1.27016 -0.0715,1.27191 -0.15643,1.26855 -0.24077,1.26007 -0.32414,1.24652 -0.40621,1.22796 -0.48663,1.20444 -0.56511,1.17608 -0.6413,1.14298 -0.71491,1.10528 -0.78565,1.06313 -0.85322,1.01669 -0.91736,0.96618 -0.97779,0.91175 -1.0343,0.85367 -1.08664,0.79214 -1.1346,0.72743 -1.178,0.65978 -1.21665,0.58949 -1.2504,0.51681 -1.27912,0.44205 -1.30268,0.36552 -1.32101,0.28751 -1.33401,0.20835 -1.34164,0.12835 -1.34387,0.0478 -1.34069,-0.0329 -1.33211,-0.11347 -1.31816,-0.19359 -1.2989,-0.27294 -1.27443,-0.35118 -1.24481,-0.42802 -1.21018,-0.50312 -1.17069,-0.5762 -1.12646,-0.64697 -1.07772,-0.71512 -1.02463,-0.78039 -0.96741,-0.84254 -0.90631,-0.90127 -0.84154,-0.95639 -0.77339,-1.00764 -0.70213,-1.05486 -0.62804,-1.09781 -0.55142,-1.13634 -0.47259,-1.17031 -0.39184,-1.19955 -0.30951,-1.22398 -0.22596,-1.24346 -0.14147,-1.25794 -0.0564,-1.26736 0.0288,-1.27168 0.114,-1.27087 0.1987,-1.26495 0.2826,-1.25392 0.36535,-1.23786 0.44665,-1.21682 0.52613,-1.19085 0.60351,-1.16012 0.67845,-1.1247 0.75066,-1.08475 0.81985,-1.04043 0.88573,-0.99194 0.94805,-0.93943 1.00656,-0.88316 1.061,-0.82332 1.11118,-0.76017 1.15688,-0.69395 1.19793,-0.62495 1.23414,-0.55343 1.2654,-0.47967"
       style="fill:none;stroke:#b22222;stroke-width:1.5;stroke-linecap:square;stroke-linejoin:round"
       id="path10860"
       inkscape:connector-curvature="0" />
  </g>
  <g
     id="line2d_35"
     style="stroke-linecap:butt;stroke-linejoin:round"
     transform="matrix(0.60414007,0,0,0.60414007,6.288201,-73.543288)">
    <path
       clip-path="url(#p98be2b80bb)"
       d="m 416.78527,290.07182 0.72124,-0.69538 0.7283,-0.68238 0.73245,-0.66663 0.73363,-0.64821 0.73186,-0.62716 0.72715,-0.6036 0.71951,-0.57761 0.70897,-0.54928 0.69558,-0.51875 0.67938,-0.48612 0.66045,-0.45155 0.63886,-0.41515 0.6147,-0.37708 0.58806,-0.33749 0.55906,-0.29654 0.5278,-0.25441 0.49442,-0.21123 0.45904,-0.16722 0.42183,-0.12254 0.3829,-0.0773 0.34245,-0.0319 0.3006,0.0138 0.25756,0.0593 0.21346,0.10466 0.16852,0.14957 0.12289,0.19387 0.0768,0.2374 0.0303,0.27996 -0.0162,0.32141 -0.0627,0.36155 -0.10893,0.40024 -0.15472,0.43732 -0.1999,0.47264 -0.24427,0.50605 -0.28765,0.53743 -0.32988,0.56665 -0.37077,0.59357 -0.41018,0.61812 -0.44793,0.64016 -0.48388,0.65965 -0.51788,0.67646 -0.5498,0.69055 -0.57949,0.70187 -0.60687,0.71036 -0.63179,0.71599 -0.65417,0.71872 -0.67392,0.71859 -0.69095,0.71553 -0.70521,0.70961 -0.71661,0.70083 -0.72514,0.68923 -0.73074,0.67485 -0.73341,0.65775 -0.73311,0.638 -0.72988,0.6157 -0.72369,0.59089 -0.7146,0.56373 -0.70263,0.53429 -0.68782,0.50269 -0.67026,0.46907 -0.64998,0.43356 -0.6271,0.39632 -0.60168,0.35746 -0.57385,0.31718 -0.5437,0.27561 -0.51137,0.23294 -0.47697,0.18933 -0.44065,0.14495 -0.40257,0.1 -0.36286,0.0546 -0.32169,0.009 -0.27921,-0.0366 -0.23563,-0.082 -0.19109,-0.12718 -0.14578,-0.17181 -0.0999,-0.21574 -0.0536,-0.25881 -0.007,-0.30084 0.0395,-0.34165 0.0859,-0.38109 0.13189,-0.41899 0.17741,-0.45521 0.22219,-0.48959 0.26609,-0.522 0.30892,-0.55232 0.3505,-0.5804 0.39068,-0.60615 0.42927,-0.62946 0.46614,-0.65023 0.50113,-0.66839 0.53411,-0.68385 0.56493,-0.69657 0.59348,-0.70647 0.61964,-0.71353 0.64331,-0.71771 0.66438,-0.71902 0.68277,-0.71742 0.69843,-0.71293 0.71127,-0.70558"
       style="fill:none;stroke:#000080;stroke-width:1.5;stroke-linecap:square;stroke-linejoin:round"
       id="path10863"
       inkscape:connector-curvature="0" />
  </g>
  <g
     id="line2d_36"
     style="stroke-linecap:butt;stroke-linejoin:round"
     transform="matrix(0.60414007,0,0,0.60414007,6.288201,-73.543288)">
    <path
       clip-path="url(#p98be2b80bb)"
       d="m 448.61583,237.1726 1.19904,-0.92014 1.23843,-0.86152 1.27282,-0.79944 1.30208,-0.73415 1.32611,-0.66588 1.34479,-0.59495 1.35806,-0.52162 1.36587,-0.44618 1.36816,-0.36896 1.36495,-0.29023 1.35625,-0.21036 1.34209,-0.12962 1.32251,-0.0484 1.29762,0.0331 1.2675,0.1144 1.23228,0.19525 1.19209,0.27531 1.1471,0.35428 1.0975,0.43181 1.04347,0.5076 0.98525,0.58136 0.92306,0.65276 0.85714,0.72154 0.78779,0.78742 0.71525,0.85012 0.63984,0.90941 0.56185,0.96502 0.48159,1.01676 0.39941,1.0644 0.3156,1.10776 0.23053,1.14664 0.14454,1.18092 0.058,1.21045 -0.0289,1.23509 -0.11556,1.25476 -0.20179,1.26939 -0.28721,1.27889 -0.37148,1.28326 -0.45424,1.28245 -0.53518,1.27647 -0.61397,1.26537 -0.69027,1.24916 -0.76381,1.22793 -0.83427,1.20174 -0.90136,1.17073 -0.96483,1.13499 -1.02442,1.09469 -1.07987,1.04997 -1.13098,1.00104 -1.17753,0.94806 -1.21935,0.89128 -1.25626,0.8309 -1.2881,0.76718 -1.31476,0.70037 -1.33612,0.63074 -1.35211,0.55856 -1.36264,0.48414 -1.36771,0.40778 -1.36724,0.32976 -1.36129,0.25042 -1.34985,0.17007 -1.33297,0.089 -1.31072,0.008 -1.28321,-0.0738 -1.25052,-0.1549 -1.21279,-0.23541 -1.17019,-0.31495 -1.12286,-0.39324 -1.07103,-0.46994 -1.01487,-0.54476 -0.95464,-0.61736 -0.89054,-0.6875 -0.82288,-0.75487 -0.7519,-0.81918 -0.67789,-0.88021 -0.60114,-0.93768 -0.52198,-0.9914 -0.44073,-1.0411 -0.35768,-1.08662 -0.27321,-1.12777 -0.18763,-1.16437 -0.10129,-1.19628 -0.0145,-1.22339 0.0722,-1.24555 0.15876,-1.26271 0.24462,-1.27478 0.32951,-1.28173 0.41307,-1.28349 0.49496,-1.28011 0.57486,-1.27156 0.65245,-1.2579 0.72741,-1.23917 0.79944,-1.21544 0.86825,-1.18684 0.93357,-1.15343 0.99512,-1.11541 1.05268,-1.07287 1.10598,-1.02602 1.15484,-0.97504"
       style="fill:none;stroke:#000080;stroke-width:1.5;stroke-linecap:square;stroke-linejoin:round"
       id="path10866"
       inkscape:connector-curvature="0" />
  </g>
  <g
     id="patch_13"
     style="stroke-width:1.6552453;stroke-linecap:butt;stroke-linejoin:round;stroke-miterlimit:4;stroke-dasharray:none"
     transform="matrix(0.60414007,0,0,0.60414007,6.288201,-73.543288)">
    <path
       d="M 395.73,316.1875 V 187.8125"
       style="fill:none;stroke:#000000;stroke-width:1.6552453;stroke-linecap:square;stroke-linejoin:miter;stroke-miterlimit:4;stroke-dasharray:none"
       id="path10869"
       inkscape:connector-curvature="0" />
  </g>
  <g
     id="patch_15"
     style="stroke-width:1.6552453;stroke-linecap:butt;stroke-linejoin:round;stroke-miterlimit:4;stroke-dasharray:none"
     transform="matrix(0.60414007,0,0,0.60414007,6.288201,-73.543288)">
    <path
       d="M 395.73,316.1875 H 524.105"
       style="fill:none;stroke:#000000;stroke-width:1.6552453;stroke-linecap:square;stroke-linejoin:miter;stroke-miterlimit:4;stroke-dasharray:none"
       id="path10875"
       inkscape:connector-curvature="0" />
  </g>
  <g
     id="patch_18"
     style="stroke-linecap:butt;stroke-linejoin:round"
     transform="matrix(0.60413915,0,0,0.60414007,36.288738,-73.543288)">
    <path
       clip-path="url(#p2527e57c9d)"
       d="M 584.14023,316.1875 H 608.7096 V 197.7002 h -24.56937 z"
       style="stroke:#000000;stroke-linecap:butt;stroke-linejoin:miter"
       id="path10937"
       inkscape:connector-curvature="0" />
  </g>
  <g
     id="patch_19"
     style="stroke-linecap:butt;stroke-linejoin:round"
     transform="matrix(0.60413915,0,0,0.60414007,36.288738,-73.543288)">
    <path
       clip-path="url(#p2527e57c9d)"
       d="m 614.85195,316.1875 h 24.56938 v -51.92748 h -24.56938 z"
       style="fill:#ffd700;stroke:#000000;stroke-linecap:butt;stroke-linejoin:miter"
       id="path10940"
       inkscape:connector-curvature="0" />
  </g>
  <g
     id="patch_20"
     style="stroke-linecap:butt;stroke-linejoin:round"
     transform="matrix(0.60413915,0,0,0.60414007,36.288738,-73.543288)">
    <path
       clip-path="url(#p2527e57c9d)"
       d="m 645.56367,316.1875 h 24.56938 v -59.6456 h -24.56938 z"
       style="fill:#00ffff;stroke:#000000;stroke-linecap:butt;stroke-linejoin:miter"
       id="path10943"
       inkscape:connector-curvature="0" />
  </g>
  <g
     id="patch_21"
     style="stroke-linecap:butt;stroke-linejoin:round"
     transform="matrix(0.60413915,0,0,0.60414007,36.288738,-73.543288)">
    <path
       clip-path="url(#p2527e57c9d)"
       d="m 676.27539,316.1875 h 24.56938 V 197.65239 h -24.56938 z"
       style="fill:#808080;stroke:#000000;stroke-linecap:butt;stroke-linejoin:miter"
       id="path10946"
       inkscape:connector-curvature="0" />
  </g>
  <g
     style="stroke-linecap:butt;stroke-linejoin:round"
     id="ytick_13"
     transform="matrix(0.88452148,0,0,0.88452148,-125.35776,-162.24106)">
    <g
       style="stroke-linecap:butt;stroke-linejoin:round"
       id="line2d_39">
      <g
         style="stroke-linecap:butt;stroke-linejoin:round"
         id="g10977">
        <path
           d="m 578.30499,316.1875 h -3.5"
           id="use10975"
           style="stroke:#000000;stroke-width:0.80000001;stroke-linecap:butt;stroke-linejoin:round"
           inkscape:connector-curvature="0" />
      </g>
    </g>
    <g
       style="stroke-linecap:butt;stroke-linejoin:round"
       id="text_30">
      <!-- 0.0 -->
      <defs
         id="defs10981">
        <path
           style="stroke-linecap:butt;stroke-linejoin:round"
           inkscape:connector-curvature="0"
           id="DejaVuSans-46"
           d="M 10.6875,12.40625 H 21 V 0 H 10.6875 Z" />
      </defs>
      <g
         style="stroke-linecap:butt;stroke-linejoin:round"
         id="g10989"
         transform="matrix(0.1,0,0,-0.1,555.40188,319.98672)">
        <path
           d="m 31.78125,66.40625 q -7.609375,0 -11.453125,-7.5 Q 16.5,51.421875 16.5,36.375 q 0,-14.984375 3.828125,-22.484375 3.84375,-7.5 11.453125,-7.5 7.671875,0 11.5,7.5 3.84375,7.5 3.84375,22.484375 0,15.046875 -3.84375,22.53125 -3.828125,7.5 -11.5,7.5 z m 0,7.8125 q 12.265625,0 18.734375,-9.703125 6.46875,-9.6875 6.46875,-28.140625 0,-18.40625 -6.46875,-28.109375 -6.46875,-9.6875 -18.734375,-9.6875 -12.25,0 -18.71875,9.6875 Q 6.59375,17.96875 6.59375,36.375 q 0,18.453125 6.46875,28.140625 6.46875,9.703125 18.71875,9.703125 z"
           id="use10983"
           inkscape:connector-curvature="0"
           style="stroke-linecap:butt;stroke-linejoin:round" />
        <use
           height="100%"
           width="100%"
           y="0"
           style="stroke-linecap:butt;stroke-linejoin:round"
           id="use10985"
           xlink:href="#DejaVuSans-46"
           x="63.623047" />
        <path
           d="m 127.19141,66.40625 q -7.60938,0 -11.45313,-7.5 -3.82812,-7.484375 -3.82812,-22.53125 0,-14.984375 3.82812,-22.484375 3.84375,-7.5 11.45313,-7.5 7.67187,0 11.5,7.5 3.84375,7.5 3.84375,22.484375 0,15.046875 -3.84375,22.53125 -3.82813,7.5 -11.5,7.5 z m 0,7.8125 q 12.26562,0 18.73437,-9.703125 6.46875,-9.6875 6.46875,-28.140625 0,-18.40625 -6.46875,-28.109375 -6.46875,-9.6875 -18.73437,-9.6875 -12.25,0 -18.71875,9.6875 -6.46875,9.703125 -6.46875,28.109375 0,18.453125 6.46875,28.140625 6.46875,9.703125 18.71875,9.703125 z"
           id="use10987"
           inkscape:connector-curvature="0"
           style="stroke-linecap:butt;stroke-linejoin:round" />
      </g>
    </g>
  </g>
  <g
     style="stroke-linecap:butt;stroke-linejoin:round"
     id="ytick_14"
     transform="matrix(0.88452148,0,0,0.88452148,-125.35776,-151.95707)">
    <g
       style="stroke-linecap:butt;stroke-linejoin:round"
       id="line2d_40">
      <g
         style="stroke-linecap:butt;stroke-linejoin:round"
         id="g10995">
        <path
           d="m 578.30499,279.50894 h -3.5"
           id="use10993"
           style="stroke:#000000;stroke-width:0.80000001;stroke-linecap:butt;stroke-linejoin:round"
           inkscape:connector-curvature="0" />
      </g>
    </g>
    <g
       style="stroke-linecap:butt;stroke-linejoin:round"
       id="text_31">
      <!-- 0.5 -->
      <g
         style="stroke-linecap:butt;stroke-linejoin:round"
         id="g11004"
         transform="matrix(0.1,0,0,-0.1,555.40188,283.30815)">
        <path
           d="m 31.78125,66.40625 q -7.609375,0 -11.453125,-7.5 Q 16.5,51.421875 16.5,36.375 q 0,-14.984375 3.828125,-22.484375 3.84375,-7.5 11.453125,-7.5 7.671875,0 11.5,7.5 3.84375,7.5 3.84375,22.484375 0,15.046875 -3.84375,22.53125 -3.828125,7.5 -11.5,7.5 z m 0,7.8125 q 12.265625,0 18.734375,-9.703125 6.46875,-9.6875 6.46875,-28.140625 0,-18.40625 -6.46875,-28.109375 -6.46875,-9.6875 -18.734375,-9.6875 -12.25,0 -18.71875,9.6875 Q 6.59375,17.96875 6.59375,36.375 q 0,18.453125 6.46875,28.140625 6.46875,9.703125 18.71875,9.703125 z"
           id="use10998"
           inkscape:connector-curvature="0"
           style="stroke-linecap:butt;stroke-linejoin:round" />
        <use
           height="100%"
           width="100%"
           y="0"
           style="stroke-linecap:butt;stroke-linejoin:round"
           id="use11000"
           xlink:href="#DejaVuSans-46"
           x="63.623047" />
        <path
           d="m 106.20703,72.90625 h 38.71875 v -8.3125 h -29.6875 V 46.734375 q 2.14063,0.734375 4.28125,1.09375 2.15625,0.359375 4.3125,0.359375 12.20313,0 19.32813,-6.6875 7.14062,-6.6875 7.14062,-18.109375 0,-11.765625 -7.32812,-18.296875 -7.32813,-6.515625 -20.65625,-6.515625 -4.59375,0 -9.35938,0.78125 -4.75,0.78125 -9.82812,2.34375 V 11.625 q 4.39062,-2.390625 9.07812,-3.5625 4.6875,-1.171875 9.90625,-1.171875 8.45313,0 13.375,4.4375 4.9375,4.4375 4.9375,12.0625 0,7.609375 -4.9375,12.046875 -4.92187,4.453125 -13.375,4.453125 -3.95312,0 -7.89062,-0.875 -3.92188,-0.875 -8.01563,-2.734375 z"
           id="use11002"
           inkscape:connector-curvature="0"
           style="stroke-linecap:butt;stroke-linejoin:round" />
      </g>
    </g>
  </g>
  <g
     style="stroke-linecap:butt;stroke-linejoin:round"
     id="ytick_15"
     transform="matrix(0.88452148,0,0,0.88452148,-125.35776,-141.67309)">
    <g
       style="stroke-linecap:butt;stroke-linejoin:round"
       id="line2d_41">
      <g
         style="stroke-linecap:butt;stroke-linejoin:round"
         id="g11010">
        <path
           d="m 578.30499,242.83035 h -3.5"
           id="use11008"
           style="stroke:#000000;stroke-width:0.80000001;stroke-linecap:butt;stroke-linejoin:round"
           inkscape:connector-curvature="0" />
      </g>
    </g>
    <g
       style="stroke-linecap:butt;stroke-linejoin:round"
       id="text_32">
      <!-- 1.0 -->
      <g
         style="stroke-linecap:butt;stroke-linejoin:round"
         id="g11019"
         transform="matrix(0.1,0,0,-0.1,555.40188,246.62958)">
        <path
           d="m 12.40625,8.296875 h 16.109375 v 55.625 L 10.984375,60.40625 v 8.984375 l 17.4375,3.515625 H 38.28125 V 8.296875 H 54.390625 V 0 H 12.40625 Z"
           id="use11013"
           inkscape:connector-curvature="0"
           style="stroke-linecap:butt;stroke-linejoin:round" />
        <use
           height="100%"
           width="100%"
           y="0"
           style="stroke-linecap:butt;stroke-linejoin:round"
           id="use11015"
           xlink:href="#DejaVuSans-46"
           x="63.623047" />
        <path
           d="m 127.19141,66.40625 q -7.60938,0 -11.45313,-7.5 -3.82812,-7.484375 -3.82812,-22.53125 0,-14.984375 3.82812,-22.484375 3.84375,-7.5 11.45313,-7.5 7.67187,0 11.5,7.5 3.84375,7.5 3.84375,22.484375 0,15.046875 -3.84375,22.53125 -3.82813,7.5 -11.5,7.5 z m 0,7.8125 q 12.26562,0 18.73437,-9.703125 6.46875,-9.6875 6.46875,-28.140625 0,-18.40625 -6.46875,-28.109375 -6.46875,-9.6875 -18.73437,-9.6875 -12.25,0 -18.71875,9.6875 -6.46875,9.703125 -6.46875,28.109375 0,18.453125 6.46875,28.140625 6.46875,9.703125 18.71875,9.703125 z"
           id="use11017"
           inkscape:connector-curvature="0"
           style="stroke-linecap:butt;stroke-linejoin:round" />
      </g>
    </g>
  </g>
  <g
     style="stroke-linecap:butt;stroke-linejoin:round"
     id="ytick_16"
     transform="matrix(0.88452148,0,0,0.88452148,-125.35776,-131.40749)">
    <g
       style="stroke-linecap:butt;stroke-linejoin:round"
       id="line2d_42">
      <g
         style="stroke-linecap:butt;stroke-linejoin:round"
         id="g11025">
        <path
           d="m 578.30499,206.15178 h -3.5"
           id="use11023"
           style="stroke:#000000;stroke-width:0.80000001;stroke-linecap:butt;stroke-linejoin:round"
           inkscape:connector-curvature="0" />
      </g>
    </g>
    <g
       style="stroke-linecap:butt;stroke-linejoin:round"
       id="text_33">
      <!-- 1.5 -->
      <g
         style="stroke-linecap:butt;stroke-linejoin:round"
         id="g11034"
         transform="matrix(0.1,0,0,-0.1,555.40188,209.951)">
        <path
           d="m 12.40625,8.296875 h 16.109375 v 55.625 L 10.984375,60.40625 v 8.984375 l 17.4375,3.515625 H 38.28125 V 8.296875 H 54.390625 V 0 H 12.40625 Z"
           id="use11028"
           inkscape:connector-curvature="0"
           style="stroke-linecap:butt;stroke-linejoin:round" />
        <use
           height="100%"
           width="100%"
           y="0"
           style="stroke-linecap:butt;stroke-linejoin:round"
           id="use11030"
           xlink:href="#DejaVuSans-46"
           x="63.623047" />
        <path
           d="m 106.20703,72.90625 h 38.71875 v -8.3125 h -29.6875 V 46.734375 q 2.14063,0.734375 4.28125,1.09375 2.15625,0.359375 4.3125,0.359375 12.20313,0 19.32813,-6.6875 7.14062,-6.6875 7.14062,-18.109375 0,-11.765625 -7.32812,-18.296875 -7.32813,-6.515625 -20.65625,-6.515625 -4.59375,0 -9.35938,0.78125 -4.75,0.78125 -9.82812,2.34375 V 11.625 q 4.39062,-2.390625 9.07812,-3.5625 4.6875,-1.171875 9.90625,-1.171875 8.45313,0 13.375,4.4375 4.9375,4.4375 4.9375,12.0625 0,7.609375 -4.9375,12.046875 -4.92187,4.453125 -13.375,4.453125 -3.95312,0 -7.89062,-0.875 -3.92188,-0.875 -8.01563,-2.734375 z"
           id="use11032"
           inkscape:connector-curvature="0"
           style="stroke-linecap:butt;stroke-linejoin:round" />
      </g>
    </g>
  </g>
  <g
     id="LineCollection_1"
     style="stroke-linecap:butt;stroke-linejoin:round"
     transform="matrix(0.60413915,0,0,0.60414007,36.288738,-73.543288)">
    <path
       clip-path="url(#p2527e57c9d)"
       d="m 596.42492,200.26766 v -5.13493"
       style="fill:none;stroke:#000000;stroke-width:1.5;stroke-linecap:butt;stroke-linejoin:round"
       id="path11072"
       inkscape:connector-curvature="0" />
  </g>
  <g
     id="LineCollection_2"
     style="stroke-linecap:butt;stroke-linejoin:round"
     transform="matrix(0.60413915,0,0,0.60414007,36.288738,-73.543288)">
    <path
       clip-path="url(#p2527e57c9d)"
       d="m 627.13664,265.67113 v -2.82222"
       style="fill:none;stroke:#000000;stroke-width:1.5;stroke-linecap:butt;stroke-linejoin:round"
       id="path11075"
       inkscape:connector-curvature="0" />
  </g>
  <g
     id="LineCollection_3"
     style="stroke-linecap:butt;stroke-linejoin:round"
     transform="matrix(0.60413915,0,0,0.60414007,36.288738,-73.543288)">
    <path
       clip-path="url(#p2527e57c9d)"
       d="m 657.84836,258.34133 v -3.59885"
       style="fill:none;stroke:#000000;stroke-width:1.5;stroke-linecap:butt;stroke-linejoin:round"
       id="path11078"
       inkscape:connector-curvature="0" />
  </g>
  <g
     id="LineCollection_4"
     style="stroke-linecap:butt;stroke-linejoin:round"
     transform="matrix(0.60413915,0,0,0.60414007,36.288738,-73.543288)">
    <path
       clip-path="url(#p2527e57c9d)"
       d="m 688.56008,200.22091 v -5.13703"
       style="fill:none;stroke:#000000;stroke-width:1.5;stroke-linecap:butt;stroke-linejoin:round"
       id="path11081"
       inkscape:connector-curvature="0" />
  </g>
  <g
     id="patch_22"
     style="stroke-width:1.6552453;stroke-linecap:butt;stroke-linejoin:round;stroke-miterlimit:4;stroke-dasharray:none"
     transform="matrix(0.60414007,0,0,0.60414007,36.288201,-73.543288)">
    <path
       d="M 578.305,316.1875 V 187.8125"
       style="fill:none;stroke:#000000;stroke-width:1.6552453;stroke-linecap:square;stroke-linejoin:miter;stroke-miterlimit:4;stroke-dasharray:none"
       id="path11084"
       inkscape:connector-curvature="0" />
  </g>
  <g
     id="patch_24"
     style="stroke-width:1.6552453;stroke-linecap:butt;stroke-linejoin:round;stroke-miterlimit:4;stroke-dasharray:none"
     transform="matrix(0.60414007,0,0,0.60414007,36.288201,-73.543288)">
    <path
       d="M 578.305,316.1875 H 706.68"
       style="fill:none;stroke:#000000;stroke-width:1.6552453;stroke-linecap:square;stroke-linejoin:miter;stroke-miterlimit:4;stroke-dasharray:none"
       id="path11090"
       inkscape:connector-curvature="0" />
  </g>
  <defs
     id="defs11110">
    <clipPath
       id="pe503b99c13"
       style="stroke-linecap:butt;stroke-linejoin:round">
      <rect
         height="129.96104"
         width="128.375"
         x="30.58"
         y="187.01949"
         id="rect11098"
         style="stroke-linecap:butt;stroke-linejoin:round" />
    </clipPath>
    <clipPath
       id="paabfeb2ebe"
       style="stroke-linecap:butt;stroke-linejoin:round">
      <rect
         height="128.375"
         width="128.375"
         x="213.155"
         y="187.8125"
         id="rect11101"
         style="stroke-linecap:butt;stroke-linejoin:round" />
    </clipPath>
    <clipPath
       id="p98be2b80bb"
       style="stroke-linecap:butt;stroke-linejoin:round">
      <rect
         height="128.375"
         width="128.375"
         x="395.73001"
         y="187.8125"
         id="rect11104"
         style="stroke-linecap:butt;stroke-linejoin:round" />
    </clipPath>
    <clipPath
       id="p2527e57c9d"
       style="stroke-linecap:butt;stroke-linejoin:round">
      <rect
         height="128.375"
         width="128.375"
         x="578.30499"
         y="187.8125"
         id="rect11107"
         style="stroke-linecap:butt;stroke-linejoin:round" />
    </clipPath>
  </defs>
  <text
     xml:space="preserve"
     style="font-style:normal;font-weight:normal;font-size:10px;line-height:1.25;font-family:sans-serif;letter-spacing:0px;word-spacing:0px;fill:#000000;fill-opacity:1;stroke:none;stroke-width:0.75;stroke-linecap:butt;stroke-linejoin:round"
     x="-106.92122"
     y="357.854"
     id="text12129"
     transform="rotate(-90)"><tspan
       sodipodi:role="line"
       id="tspan12127"
       style="stroke-width:0.75;stroke-linecap:butt;stroke-linejoin:round"
       x="-106.92122"
       y="357.854"><tspan
   style="font-style:italic;stroke-linecap:butt;stroke-linejoin:round"
   id="tspan12135">d'</tspan><tspan
   style="font-size:64.99999762%;baseline-shift:sub;stroke-linecap:butt;stroke-linejoin:round"
   id="tspan12133">big</tspan> - <tspan
   style="font-style:italic;stroke-linecap:butt;stroke-linejoin:round"
   id="tspan12137">d'</tspan><tspan
   style="font-size:64.99999762%;baseline-shift:sub;stroke-linecap:butt;stroke-linejoin:round"
   id="tspan12131">small</tspan></tspan></text>
  <text
     xml:space="preserve"
     style="font-style:normal;font-weight:normal;font-size:10px;line-height:1.25;font-family:sans-serif;letter-spacing:0px;word-spacing:0px;fill:#000000;fill-opacity:1;stroke:none;stroke-width:0.75;stroke-linecap:butt;stroke-linejoin:round"
     x="61.118195"
     y="31.188492"
     id="text12141"><tspan
       sodipodi:role="line"
       id="tspan12139"
       style="stroke-width:0.75;stroke-linecap:butt;stroke-linejoin:round"
       x="61.118195"
       y="31.188492">Raw data</tspan></text>
  <text
     xml:space="preserve"
     style="font-style:normal;font-weight:normal;font-size:10px;line-height:1.25;font-family:sans-serif;text-align:center;letter-spacing:0px;word-spacing:0px;text-anchor:middle;fill:#ffd700;fill-opacity:1;stroke:none;stroke-width:0.75;stroke-linecap:butt;stroke-linejoin:round"
     x="187.34192"
     y="16.750015"
     id="text12145"><tspan
       sodipodi:role="line"
       style="text-align:center;text-anchor:middle;fill:#ffd700;fill-opacity:1;stroke-width:0.75;stroke-linecap:butt;stroke-linejoin:round"
       x="188.93372"
       y="16.750015"
       id="tspan12147">Independent </tspan><tspan
       sodipodi:role="line"
       style="text-align:center;text-anchor:middle;fill:#ffd700;fill-opacity:1;stroke-width:0.75;stroke-linecap:butt;stroke-linejoin:round"
       x="187.34192"
       y="29.250015"
       id="tspan12155">variability only</tspan></text>
  <text
     xml:space="preserve"
     style="font-style:normal;font-weight:normal;font-size:10px;line-height:1.25;font-family:sans-serif;letter-spacing:0px;word-spacing:0px;fill:#00ffff;fill-opacity:1;stroke:none;stroke-width:0.75;stroke-linecap:butt;stroke-linejoin:round"
     x="244.2551"
     y="29.250015"
     id="text12151"><tspan
       sodipodi:role="line"
       id="tspan12149"
       style="fill:#00ffff;fill-opacity:1;stroke-width:0.75;stroke-linecap:butt;stroke-linejoin:round"
       x="244.2551"
       y="29.250015">Correlation only</tspan></text>
  <text
     xml:space="preserve"
     style="font-style:normal;font-weight:normal;font-size:14px;line-height:1.25;font-family:sans-serif;letter-spacing:0px;word-spacing:0px;fill:#000000;fill-opacity:1;stroke:none;stroke-width:0.75;stroke-linecap:butt;stroke-linejoin:round"
     x="1.5"
     y="15.375015"
     id="text12269"><tspan
       sodipodi:role="line"
       style="stroke-width:0.75;stroke-linecap:butt;stroke-linejoin:round"
       x="1.5"
       y="15.375015"
       id="tspan12271">A</tspan></text>
  <text
     xml:space="preserve"
     style="font-style:normal;font-weight:normal;font-size:14px;line-height:1.25;font-family:sans-serif;letter-spacing:0px;word-spacing:0px;fill:#000000;fill-opacity:1;stroke:none;stroke-width:0.75;stroke-linecap:butt;stroke-linejoin:round"
     x="338.33984"
     y="15.375015"
     id="text12269-3"><tspan
       sodipodi:role="line"
       style="stroke-width:0.75;stroke-linecap:butt;stroke-linejoin:round"
       x="338.33984"
       y="15.375015"
       id="tspan12271-6">B</tspan></text>
  <text
     xml:space="preserve"
     style="font-style:normal;font-weight:normal;font-size:10px;line-height:1.25;font-family:sans-serif;text-align:center;letter-spacing:0px;word-spacing:0px;text-anchor:middle;fill:#000000;fill-opacity:1;stroke:none;stroke-width:0.75;stroke-linecap:butt;stroke-linejoin:round"
     x="-79.461731"
     y="25.243519"
     id="text12295"
     transform="rotate(-90)"><tspan
       sodipodi:role="line"
       id="tspan12293"
       style="text-align:center;text-anchor:middle;stroke-width:0.75;stroke-linecap:butt;stroke-linejoin:round"
       x="-79.461731"
       y="25.243519">Neuron 2</tspan><tspan
       sodipodi:role="line"
       style="text-align:center;text-anchor:middle;stroke-width:0.75;stroke-linecap:butt;stroke-linejoin:round"
       x="-79.461731"
       y="37.743519"
       id="tspan12301">spk / bin</tspan></text>
  <text
     xml:space="preserve"
     style="font-style:normal;font-weight:normal;font-size:10px;line-height:1.25;font-family:sans-serif;text-align:center;letter-spacing:0px;word-spacing:0px;text-anchor:middle;fill:#000000;fill-opacity:1;stroke:none;stroke-width:0.75;stroke-linecap:butt;stroke-linejoin:round"
     x="186.5802"
     y="136.13605"
     id="text12299"><tspan
       sodipodi:role="line"
       style="text-align:center;text-anchor:middle;stroke-width:0.75;stroke-linecap:butt;stroke-linejoin:round"
       x="186.5802"
       y="136.13605"
       id="tspan12303">Neuron 1 spk / bin</tspan></text>
</svg>
