<?xml version="1.0" encoding="utf-8" standalone="no"?>
<!DOCTYPE svg PUBLIC "-//W3C//DTD SVG 1.1//EN"
  "http://www.w3.org/Graphics/SVG/1.1/DTD/svg11.dtd">
<!-- Created with matplotlib (https://matplotlib.org/) -->
<svg height="288pt" version="1.1" viewBox="0 0 576 288" width="576pt" xmlns="http://www.w3.org/2000/svg" xmlns:xlink="http://www.w3.org/1999/xlink">
 <defs>
  <style type="text/css">
*{stroke-linecap:butt;stroke-linejoin:round;}
  </style>
 </defs>
 <g id="figure_1">
  <g id="patch_1">
   <path d="M 0 288 
L 576 288 
L 576 0 
L 0 0 
z
" style="fill:#ffffff;"/>
  </g>
  <g id="axes_1">
   <g id="patch_2">
    <path d="M 43.09 229.22815 
L 277.108 229.22815 
L 277.108 13.32 
L 43.09 13.32 
z
" style="fill:#ffffff;"/>
   </g>
   <g id="patch_3">
    <path clip-path="url(#p75199454eb)" d="M 53.727182 229.22815 
L 57.333006 229.22815 
L 57.333006 229.22815 
L 53.727182 229.22815 
z
" style="fill:#d3d3d3;stroke:#000000;stroke-linejoin:miter;"/>
   </g>
   <g id="patch_4">
    <path clip-path="url(#p75199454eb)" d="M 57.333006 229.22815 
L 60.938831 229.22815 
L 60.938831 229.22815 
L 57.333006 229.22815 
z
" style="fill:#d3d3d3;stroke:#000000;stroke-linejoin:miter;"/>
   </g>
   <g id="patch_5">
    <path clip-path="url(#p75199454eb)" d="M 60.938831 229.22815 
L 64.544655 229.22815 
L 64.544655 229.22815 
L 60.938831 229.22815 
z
" style="fill:#d3d3d3;stroke:#000000;stroke-linejoin:miter;"/>
   </g>
   <g id="patch_6">
    <path clip-path="url(#p75199454eb)" d="M 64.544655 229.22815 
L 68.150479 229.22815 
L 68.150479 229.22815 
L 64.544655 229.22815 
z
" style="fill:#d3d3d3;stroke:#000000;stroke-linejoin:miter;"/>
   </g>
   <g id="patch_7">
    <path clip-path="url(#p75199454eb)" d="M 68.150479 229.22815 
L 71.756304 229.22815 
L 71.756304 229.22815 
L 68.150479 229.22815 
z
" style="fill:#d3d3d3;stroke:#000000;stroke-linejoin:miter;"/>
   </g>
   <g id="patch_8">
    <path clip-path="url(#p75199454eb)" d="M 71.756304 229.22815 
L 75.362128 229.22815 
L 75.362128 229.22815 
L 71.756304 229.22815 
z
" style="fill:#d3d3d3;stroke:#000000;stroke-linejoin:miter;"/>
   </g>
   <g id="patch_9">
    <path clip-path="url(#p75199454eb)" d="M 75.362128 229.22815 
L 78.967952 229.22815 
L 78.967952 229.22815 
L 75.362128 229.22815 
z
" style="fill:#d3d3d3;stroke:#000000;stroke-linejoin:miter;"/>
   </g>
   <g id="patch_10">
    <path clip-path="url(#p75199454eb)" d="M 78.967952 229.22815 
L 82.573777 229.22815 
L 82.573777 229.22815 
L 78.967952 229.22815 
z
" style="fill:#d3d3d3;stroke:#000000;stroke-linejoin:miter;"/>
   </g>
   <g id="patch_11">
    <path clip-path="url(#p75199454eb)" d="M 82.573777 229.22815 
L 86.179601 229.22815 
L 86.179601 229.22815 
L 82.573777 229.22815 
z
" style="fill:#d3d3d3;stroke:#000000;stroke-linejoin:miter;"/>
   </g>
   <g id="patch_12">
    <path clip-path="url(#p75199454eb)" d="M 86.179601 229.22815 
L 89.785425 229.22815 
L 89.785425 229.22815 
L 86.179601 229.22815 
z
" style="fill:#d3d3d3;stroke:#000000;stroke-linejoin:miter;"/>
   </g>
   <g id="patch_13">
    <path clip-path="url(#p75199454eb)" d="M 89.785425 229.22815 
L 93.39125 229.22815 
L 93.39125 228.606295 
L 89.785425 228.606295 
z
" style="fill:#d3d3d3;stroke:#000000;stroke-linejoin:miter;"/>
   </g>
   <g id="patch_14">
    <path clip-path="url(#p75199454eb)" d="M 93.39125 229.22815 
L 96.997074 229.22815 
L 96.997074 226.118874 
L 93.39125 226.118874 
z
" style="fill:#d3d3d3;stroke:#000000;stroke-linejoin:miter;"/>
   </g>
   <g id="patch_15">
    <path clip-path="url(#p75199454eb)" d="M 96.997074 229.22815 
L 100.602898 229.22815 
L 100.602898 224.253308 
L 96.997074 224.253308 
z
" style="fill:#d3d3d3;stroke:#000000;stroke-linejoin:miter;"/>
   </g>
   <g id="patch_16">
    <path clip-path="url(#p75199454eb)" d="M 100.602898 229.22815 
L 104.208723 229.22815 
L 104.208723 219.693036 
L 100.602898 219.693036 
z
" style="fill:#d3d3d3;stroke:#000000;stroke-linejoin:miter;"/>
   </g>
   <g id="patch_17">
    <path clip-path="url(#p75199454eb)" d="M 104.208723 229.22815 
L 107.814547 229.22815 
L 107.814547 208.292356 
L 104.208723 208.292356 
z
" style="fill:#d3d3d3;stroke:#000000;stroke-linejoin:miter;"/>
   </g>
   <g id="patch_18">
    <path clip-path="url(#p75199454eb)" d="M 107.814547 229.22815 
L 111.420371 229.22815 
L 111.420371 198.757242 
L 107.814547 198.757242 
z
" style="fill:#d3d3d3;stroke:#000000;stroke-linejoin:miter;"/>
   </g>
   <g id="patch_19">
    <path clip-path="url(#p75199454eb)" d="M 111.420371 229.22815 
L 115.026196 229.22815 
L 115.026196 192.331404 
L 111.420371 192.331404 
z
" style="fill:#d3d3d3;stroke:#000000;stroke-linejoin:miter;"/>
   </g>
   <g id="patch_20">
    <path clip-path="url(#p75199454eb)" d="M 115.026196 229.22815 
L 118.63202 229.22815 
L 118.63202 192.538689 
L 115.026196 192.538689 
z
" style="fill:#d3d3d3;stroke:#000000;stroke-linejoin:miter;"/>
   </g>
   <g id="patch_21">
    <path clip-path="url(#p75199454eb)" d="M 118.63202 229.22815 
L 122.237844 229.22815 
L 122.237844 180.101584 
L 118.63202 180.101584 
z
" style="fill:#d3d3d3;stroke:#000000;stroke-linejoin:miter;"/>
   </g>
   <g id="patch_22">
    <path clip-path="url(#p75199454eb)" d="M 122.237844 229.22815 
L 125.843669 229.22815 
L 125.843669 145.899544 
L 122.237844 145.899544 
z
" style="fill:#d3d3d3;stroke:#000000;stroke-linejoin:miter;"/>
   </g>
   <g id="patch_23">
    <path clip-path="url(#p75199454eb)" d="M 125.843669 229.22815 
L 129.449493 229.22815 
L 129.449493 140.095561 
L 125.843669 140.095561 
z
" style="fill:#d3d3d3;stroke:#000000;stroke-linejoin:miter;"/>
   </g>
   <g id="patch_24">
    <path clip-path="url(#p75199454eb)" d="M 129.449493 229.22815 
L 133.055317 229.22815 
L 133.055317 121.647188 
L 129.449493 121.647188 
z
" style="fill:#d3d3d3;stroke:#000000;stroke-linejoin:miter;"/>
   </g>
   <g id="patch_25">
    <path clip-path="url(#p75199454eb)" d="M 133.055317 229.22815 
L 136.661142 229.22815 
L 136.661142 103.198815 
L 133.055317 103.198815 
z
" style="fill:#d3d3d3;stroke:#000000;stroke-linejoin:miter;"/>
   </g>
   <g id="patch_26">
    <path clip-path="url(#p75199454eb)" d="M 136.661142 229.22815 
L 140.266966 229.22815 
L 140.266966 94.078271 
L 136.661142 94.078271 
z
" style="fill:#d3d3d3;stroke:#000000;stroke-linejoin:miter;"/>
   </g>
   <g id="patch_27">
    <path clip-path="url(#p75199454eb)" d="M 140.266966 229.22815 
L 143.87279 229.22815 
L 143.87279 67.338495 
L 140.266966 67.338495 
z
" style="fill:#d3d3d3;stroke:#000000;stroke-linejoin:miter;"/>
   </g>
   <g id="patch_28">
    <path clip-path="url(#p75199454eb)" d="M 143.87279 229.22815 
L 147.478615 229.22815 
L 147.478615 74.386188 
L 143.87279 74.386188 
z
" style="fill:#d3d3d3;stroke:#000000;stroke-linejoin:miter;"/>
   </g>
   <g id="patch_29">
    <path clip-path="url(#p75199454eb)" d="M 147.478615 229.22815 
L 151.084439 229.22815 
L 151.084439 80.397455 
L 147.478615 80.397455 
z
" style="fill:#d3d3d3;stroke:#000000;stroke-linejoin:miter;"/>
   </g>
   <g id="patch_30">
    <path clip-path="url(#p75199454eb)" d="M 151.084439 229.22815 
L 154.690263 229.22815 
L 154.690263 71.898767 
L 151.084439 71.898767 
z
" style="fill:#d3d3d3;stroke:#000000;stroke-linejoin:miter;"/>
   </g>
   <g id="patch_31">
    <path clip-path="url(#p75199454eb)" d="M 154.690263 229.22815 
L 158.296088 229.22815 
L 158.296088 104.649811 
L 154.690263 104.649811 
z
" style="fill:#d3d3d3;stroke:#000000;stroke-linejoin:miter;"/>
   </g>
   <g id="patch_32">
    <path clip-path="url(#p75199454eb)" d="M 158.296088 229.22815 
L 161.901912 229.22815 
L 161.901912 94.078271 
L 158.296088 94.078271 
z
" style="fill:#d3d3d3;stroke:#000000;stroke-linejoin:miter;"/>
   </g>
   <g id="patch_33">
    <path clip-path="url(#p75199454eb)" d="M 161.901912 229.22815 
L 165.507737 229.22815 
L 165.507737 106.100806 
L 161.901912 106.100806 
z
" style="fill:#d3d3d3;stroke:#000000;stroke-linejoin:miter;"/>
   </g>
   <g id="patch_34">
    <path clip-path="url(#p75199454eb)" d="M 165.507737 229.22815 
L 169.113561 229.22815 
L 169.113561 100.711394 
L 165.507737 100.711394 
z
" style="fill:#d3d3d3;stroke:#000000;stroke-linejoin:miter;"/>
   </g>
   <g id="patch_35">
    <path clip-path="url(#p75199454eb)" d="M 169.113561 229.22815 
L 172.719385 229.22815 
L 172.719385 107.551802 
L 169.113561 107.551802 
z
" style="fill:#d3d3d3;stroke:#000000;stroke-linejoin:miter;"/>
   </g>
   <g id="patch_36">
    <path clip-path="url(#p75199454eb)" d="M 172.719385 229.22815 
L 176.32521 229.22815 
L 176.32521 115.635921 
L 172.719385 115.635921 
z
" style="fill:#d3d3d3;stroke:#000000;stroke-linejoin:miter;"/>
   </g>
   <g id="patch_37">
    <path clip-path="url(#p75199454eb)" d="M 176.32521 229.22815 
L 179.931034 229.22815 
L 179.931034 111.075649 
L 176.32521 111.075649 
z
" style="fill:#d3d3d3;stroke:#000000;stroke-linejoin:miter;"/>
   </g>
   <g id="patch_38">
    <path clip-path="url(#p75199454eb)" d="M 179.931034 229.22815 
L 183.536858 229.22815 
L 183.536858 99.882254 
L 179.931034 99.882254 
z
" style="fill:#d3d3d3;stroke:#000000;stroke-linejoin:miter;"/>
   </g>
   <g id="patch_39">
    <path clip-path="url(#p75199454eb)" d="M 183.536858 229.22815 
L 187.142683 229.22815 
L 187.142683 72.727907 
L 183.536858 72.727907 
z
" style="fill:#d3d3d3;stroke:#000000;stroke-linejoin:miter;"/>
   </g>
   <g id="patch_40">
    <path clip-path="url(#p75199454eb)" d="M 187.142683 229.22815 
L 190.748507 229.22815 
L 190.748507 45.15899 
L 187.142683 45.15899 
z
" style="fill:#d3d3d3;stroke:#000000;stroke-linejoin:miter;"/>
   </g>
   <g id="patch_41">
    <path clip-path="url(#p75199454eb)" d="M 190.748507 229.22815 
L 194.354331 229.22815 
L 194.354331 23.60134 
L 190.748507 23.60134 
z
" style="fill:#d3d3d3;stroke:#000000;stroke-linejoin:miter;"/>
   </g>
   <g id="patch_42">
    <path clip-path="url(#p75199454eb)" d="M 194.354331 229.22815 
L 197.960156 229.22815 
L 197.960156 42.878854 
L 194.354331 42.878854 
z
" style="fill:#d3d3d3;stroke:#000000;stroke-linejoin:miter;"/>
   </g>
   <g id="patch_43">
    <path clip-path="url(#p75199454eb)" d="M 197.960156 229.22815 
L 201.56598 229.22815 
L 201.56598 52.621253 
L 197.960156 52.621253 
z
" style="fill:#d3d3d3;stroke:#000000;stroke-linejoin:miter;"/>
   </g>
   <g id="patch_44">
    <path clip-path="url(#p75199454eb)" d="M 201.56598 229.22815 
L 205.171804 229.22815 
L 205.171804 97.187548 
L 201.56598 97.187548 
z
" style="fill:#d3d3d3;stroke:#000000;stroke-linejoin:miter;"/>
   </g>
   <g id="patch_45">
    <path clip-path="url(#p75199454eb)" d="M 205.171804 229.22815 
L 208.777629 229.22815 
L 208.777629 133.047868 
L 205.171804 133.047868 
z
" style="fill:#d3d3d3;stroke:#000000;stroke-linejoin:miter;"/>
   </g>
   <g id="patch_46">
    <path clip-path="url(#p75199454eb)" d="M 208.777629 229.22815 
L 212.383453 229.22815 
L 212.383453 165.591627 
L 208.777629 165.591627 
z
" style="fill:#d3d3d3;stroke:#000000;stroke-linejoin:miter;"/>
   </g>
   <g id="patch_47">
    <path clip-path="url(#p75199454eb)" d="M 212.383453 229.22815 
L 215.989277 229.22815 
L 215.989277 180.101584 
L 212.383453 180.101584 
z
" style="fill:#d3d3d3;stroke:#000000;stroke-linejoin:miter;"/>
   </g>
   <g id="patch_48">
    <path clip-path="url(#p75199454eb)" d="M 215.989277 229.22815 
L 219.595102 229.22815 
L 219.595102 191.709549 
L 215.989277 191.709549 
z
" style="fill:#d3d3d3;stroke:#000000;stroke-linejoin:miter;"/>
   </g>
   <g id="patch_49">
    <path clip-path="url(#p75199454eb)" d="M 219.595102 229.22815 
L 223.200926 229.22815 
L 223.200926 208.292356 
L 219.595102 208.292356 
z
" style="fill:#d3d3d3;stroke:#000000;stroke-linejoin:miter;"/>
   </g>
   <g id="patch_50">
    <path clip-path="url(#p75199454eb)" d="M 223.200926 229.22815 
L 226.80675 229.22815 
L 226.80675 217.620185 
L 223.200926 217.620185 
z
" style="fill:#d3d3d3;stroke:#000000;stroke-linejoin:miter;"/>
   </g>
   <g id="patch_51">
    <path clip-path="url(#p75199454eb)" d="M 226.80675 229.22815 
L 230.412575 229.22815 
L 230.412575 222.180457 
L 226.80675 222.180457 
z
" style="fill:#d3d3d3;stroke:#000000;stroke-linejoin:miter;"/>
   </g>
   <g id="patch_52">
    <path clip-path="url(#p75199454eb)" d="M 230.412575 229.22815 
L 234.018399 229.22815 
L 234.018399 225.082448 
L 230.412575 225.082448 
z
" style="fill:#d3d3d3;stroke:#000000;stroke-linejoin:miter;"/>
   </g>
   <g id="patch_53">
    <path clip-path="url(#p75199454eb)" d="M 234.018399 229.22815 
L 237.624223 229.22815 
L 237.624223 226.948014 
L 234.018399 226.948014 
z
" style="fill:#d3d3d3;stroke:#000000;stroke-linejoin:miter;"/>
   </g>
   <g id="patch_54">
    <path clip-path="url(#p75199454eb)" d="M 237.624223 229.22815 
L 241.230048 229.22815 
L 241.230048 228.39901 
L 237.624223 228.39901 
z
" style="fill:#d3d3d3;stroke:#000000;stroke-linejoin:miter;"/>
   </g>
   <g id="patch_55">
    <path clip-path="url(#p75199454eb)" d="M 241.230048 229.22815 
L 244.835872 229.22815 
L 244.835872 229.22815 
L 241.230048 229.22815 
z
" style="fill:#d3d3d3;stroke:#000000;stroke-linejoin:miter;"/>
   </g>
   <g id="patch_56">
    <path clip-path="url(#p75199454eb)" d="M 244.835872 229.22815 
L 248.441696 229.22815 
L 248.441696 229.22815 
L 244.835872 229.22815 
z
" style="fill:#d3d3d3;stroke:#000000;stroke-linejoin:miter;"/>
   </g>
   <g id="patch_57">
    <path clip-path="url(#p75199454eb)" d="M 248.441696 229.22815 
L 252.047521 229.22815 
L 252.047521 229.22815 
L 248.441696 229.22815 
z
" style="fill:#d3d3d3;stroke:#000000;stroke-linejoin:miter;"/>
   </g>
   <g id="patch_58">
    <path clip-path="url(#p75199454eb)" d="M 252.047521 229.22815 
L 255.653345 229.22815 
L 255.653345 229.22815 
L 252.047521 229.22815 
z
" style="fill:#d3d3d3;stroke:#000000;stroke-linejoin:miter;"/>
   </g>
   <g id="patch_59">
    <path clip-path="url(#p75199454eb)" d="M 255.653345 229.22815 
L 259.259169 229.22815 
L 259.259169 229.22815 
L 255.653345 229.22815 
z
" style="fill:#d3d3d3;stroke:#000000;stroke-linejoin:miter;"/>
   </g>
   <g id="patch_60">
    <path clip-path="url(#p75199454eb)" d="M 259.259169 229.22815 
L 262.864994 229.22815 
L 262.864994 229.22815 
L 259.259169 229.22815 
z
" style="fill:#d3d3d3;stroke:#000000;stroke-linejoin:miter;"/>
   </g>
   <g id="patch_61">
    <path clip-path="url(#p75199454eb)" d="M 262.864994 229.22815 
L 266.470818 229.22815 
L 266.470818 229.22815 
L 262.864994 229.22815 
z
" style="fill:#d3d3d3;stroke:#000000;stroke-linejoin:miter;"/>
   </g>
   <g id="matplotlib.axis_1">
    <g id="xtick_1">
     <g id="line2d_1">
      <defs>
       <path d="M 0 0 
L 0 3.5 
" id="mdab80d5b96" style="stroke:#000000;stroke-width:0.8;"/>
      </defs>
      <g>
       <use style="stroke:#000000;stroke-width:0.8;" x="53.727182" xlink:href="#mdab80d5b96" y="229.22815"/>
      </g>
     </g>
     <g id="text_1">
      <text style="font-family:DejaVu Sans;font-size:10px;font-style:normal;font-weight:normal;text-anchor:middle;" transform="rotate(-0, 53.727182, 243.826587)" x="53.727182" y="243.826587">0.0</text>
     </g>
    </g>
    <g id="xtick_2">
     <g id="line2d_2">
      <g>
       <use style="stroke:#000000;stroke-width:0.8;" x="89.785425" xlink:href="#mdab80d5b96" y="229.22815"/>
      </g>
     </g>
     <g id="text_2">
      <text style="font-family:DejaVu Sans;font-size:10px;font-style:normal;font-weight:normal;text-anchor:middle;" transform="rotate(-0, 89.785425, 243.826587)" x="89.785425" y="243.826587">0.1</text>
     </g>
    </g>
    <g id="xtick_3">
     <g id="line2d_3">
      <g>
       <use style="stroke:#000000;stroke-width:0.8;" x="125.843669" xlink:href="#mdab80d5b96" y="229.22815"/>
      </g>
     </g>
     <g id="text_3">
      <text style="font-family:DejaVu Sans;font-size:10px;font-style:normal;font-weight:normal;text-anchor:middle;" transform="rotate(-0, 125.843669, 243.826587)" x="125.843669" y="243.826587">0.2</text>
     </g>
    </g>
    <g id="xtick_4">
     <g id="line2d_4">
      <g>
       <use style="stroke:#000000;stroke-width:0.8;" x="161.901912" xlink:href="#mdab80d5b96" y="229.22815"/>
      </g>
     </g>
     <g id="text_4">
      <text style="font-family:DejaVu Sans;font-size:10px;font-style:normal;font-weight:normal;text-anchor:middle;" transform="rotate(-0, 161.901912, 243.826587)" x="161.901912" y="243.826587">0.3</text>
     </g>
    </g>
    <g id="xtick_5">
     <g id="line2d_5">
      <g>
       <use style="stroke:#000000;stroke-width:0.8;" x="197.960156" xlink:href="#mdab80d5b96" y="229.22815"/>
      </g>
     </g>
     <g id="text_5">
      <text style="font-family:DejaVu Sans;font-size:10px;font-style:normal;font-weight:normal;text-anchor:middle;" transform="rotate(-0, 197.960156, 243.826587)" x="197.960156" y="243.826587">0.4</text>
     </g>
    </g>
    <g id="xtick_6">
     <g id="line2d_6">
      <g>
       <use style="stroke:#000000;stroke-width:0.8;" x="234.018399" xlink:href="#mdab80d5b96" y="229.22815"/>
      </g>
     </g>
     <g id="text_6">
      <text style="font-family:DejaVu Sans;font-size:10px;font-style:normal;font-weight:normal;text-anchor:middle;" transform="rotate(-0, 234.018399, 243.826587)" x="234.018399" y="243.826587">0.5</text>
     </g>
    </g>
    <g id="xtick_7">
     <g id="line2d_7">
      <g>
       <use style="stroke:#000000;stroke-width:0.8;" x="270.076643" xlink:href="#mdab80d5b96" y="229.22815"/>
      </g>
     </g>
     <g id="text_7">
      <text style="font-family:DejaVu Sans;font-size:10px;font-style:normal;font-weight:normal;text-anchor:middle;" transform="rotate(-0, 270.076643, 243.826587)" x="270.076643" y="243.826587">0.6</text>
     </g>
    </g>
    <g id="text_8">
     <!-- $\frac{\bar p_{big, s} - \bar p_{small, s}}{\sigma^{2}_{p, all}}$ -->
     <g transform="translate(130.039 264.186275)">
      <text>
       <tspan style="font-family:DejaVu Sans;font-size:8.4px;font-style:book;font-weight:book;" x="5.553906 22.455234 36.683945" y="-8.7578125 -8.6453125 -8.7578125">̄−̄</tspan>
       <tspan style="font-family:DejaVu Sans;font-size:8.4px;font-style:oblique;font-weight:oblique;" x="0 20 31.130039" y="-8.6453125 5.296249999999997 -8.6453125">pσp</tspan>
       <tspan style="font-family:DejaVu Sans;font-size:5.88px;font-style:oblique;font-weight:oblique;" x="5.412422 9.144844 10.778496 17.525566 25.323828 32.070898 35.674121 36.542461 37.307773 39.605918 45.33375 48.936973 50.570625 55.218926" y="-7.2671875 -7.2671875 -7.2671875 -7.2671875 7.593124999999997 7.593124999999997 7.593124999999997 -7.2671875 7.593124999999997 -7.2671875 -7.2671875 -7.2671875 -7.2671875 -7.2671875">bigspalslmalls</tspan>
       <tspan style="font-family:DejaVu Sans;font-size:5.88px;font-style:book;font-weight:book;" x="14.510918 25.698984 29.05625 52.204277" y="-7.2671875 2.0718749999999986 7.593124999999997 -7.2671875">,2,,</tspan>
      </text>
      <rect height="0.75" width="58.51207" x="0" y="-4.042188"/>
     </g>
    </g>
   </g>
   <g id="matplotlib.axis_2">
    <g id="ytick_1">
     <g id="line2d_8">
      <defs>
       <path d="M 0 0 
L -3.5 0 
" id="ma15c6d6abb" style="stroke:#000000;stroke-width:0.8;"/>
      </defs>
      <g>
       <use style="stroke:#000000;stroke-width:0.8;" x="43.09" xlink:href="#ma15c6d6abb" y="229.22815"/>
      </g>
     </g>
     <g id="text_9">
      <text style="font-family:DejaVu Sans;font-size:10px;font-style:normal;font-weight:normal;text-anchor:end;" transform="rotate(-0, 36.09, 233.027369)" x="36.09" y="233.027369">0</text>
     </g>
    </g>
    <g id="ytick_2">
     <g id="line2d_9">
      <g>
       <use style="stroke:#000000;stroke-width:0.8;" x="43.09" xlink:href="#ma15c6d6abb" y="187.771132"/>
      </g>
     </g>
     <g id="text_10">
      <text style="font-family:DejaVu Sans;font-size:10px;font-style:normal;font-weight:normal;text-anchor:end;" transform="rotate(-0, 36.09, 191.570351)" x="36.09" y="191.570351">200</text>
     </g>
    </g>
    <g id="ytick_3">
     <g id="line2d_10">
      <g>
       <use style="stroke:#000000;stroke-width:0.8;" x="43.09" xlink:href="#ma15c6d6abb" y="146.314114"/>
      </g>
     </g>
     <g id="text_11">
      <text style="font-family:DejaVu Sans;font-size:10px;font-style:normal;font-weight:normal;text-anchor:end;" transform="rotate(-0, 36.09, 150.113333)" x="36.09" y="150.113333">400</text>
     </g>
    </g>
    <g id="ytick_4">
     <g id="line2d_11">
      <g>
       <use style="stroke:#000000;stroke-width:0.8;" x="43.09" xlink:href="#ma15c6d6abb" y="104.857096"/>
      </g>
     </g>
     <g id="text_12">
      <text style="font-family:DejaVu Sans;font-size:10px;font-style:normal;font-weight:normal;text-anchor:end;" transform="rotate(-0, 36.09, 108.656315)" x="36.09" y="108.656315">600</text>
     </g>
    </g>
    <g id="ytick_5">
     <g id="line2d_12">
      <g>
       <use style="stroke:#000000;stroke-width:0.8;" x="43.09" xlink:href="#ma15c6d6abb" y="63.400078"/>
      </g>
     </g>
     <g id="text_13">
      <text style="font-family:DejaVu Sans;font-size:10px;font-style:normal;font-weight:normal;text-anchor:end;" transform="rotate(-0, 36.09, 67.199297)" x="36.09" y="67.199297">800</text>
     </g>
    </g>
    <g id="ytick_6">
     <g id="line2d_13">
      <g>
       <use style="stroke:#000000;stroke-width:0.8;" x="43.09" xlink:href="#ma15c6d6abb" y="21.94306"/>
      </g>
     </g>
     <g id="text_14">
      <text style="font-family:DejaVu Sans;font-size:10px;font-style:normal;font-weight:normal;text-anchor:end;" transform="rotate(-0, 36.09, 25.742279)" x="36.09" y="25.742279">1000</text>
     </g>
    </g>
   </g>
   <g id="line2d_14">
    <path clip-path="url(#p75199454eb)" d="M 55.530094 229.223178 
L 59.135918 229.217257 
L 62.741743 229.20501 
L 66.347567 229.180489 
L 69.953391 229.132971 
L 73.559216 229.043861 
L 77.16504 228.882177 
L 80.770864 228.598404 
L 84.376689 228.116751 
L 87.982513 227.326388 
L 91.588337 226.072971 
L 95.194162 224.152714 
L 98.799986 221.312178 
L 102.40581 217.25753 
L 106.011635 211.676796 
L 109.617459 204.277254 
L 113.223284 194.837277 
L 116.829108 183.267963 
L 120.434932 169.675387 
L 124.040757 154.410581 
L 127.646581 138.092805 
L 131.252405 121.593575 
L 134.85823 105.974717 
L 138.464054 92.382586 
L 142.069878 81.910408 
L 145.675703 75.448112 
L 149.281527 73.540345 
L 152.887351 76.266445 
L 156.493176 83.142976 
L 160.099 93.04064 
L 163.704824 104.121854 
L 167.310649 113.859478 
L 170.916473 119.275662 
L 174.522297 117.568908 
L 178.128122 107.166807 
L 181.733946 88.912428 
L 185.33977 66.72719 
L 188.945595 47.041907 
L 192.551419 36.809956 
L 196.157243 40.825605 
L 199.763068 59.715976 
L 203.368892 89.747822 
L 206.974716 124.539766 
L 210.580541 157.655367 
L 214.186365 184.689095 
L 217.79219 204.00872 
L 221.398014 216.234879 
L 225.003838 223.13552 
L 228.609663 226.62636 
L 232.215487 228.215035 
L 235.821311 228.867605 
L 239.427136 229.110387 
L 243.03296 229.192571 
L 246.638784 229.218064 
L 250.244609 229.2254 
L 253.850433 229.227401 
L 257.456257 229.227937 
L 261.062082 229.228085 
L 264.667906 229.228129 
" style="fill:none;stroke:#000000;stroke-linecap:square;stroke-width:2;"/>
   </g>
   <g id="line2d_15">
    <path clip-path="url(#p75199454eb)" d="M 55.530094 229.223178 
L 59.135918 229.217257 
L 62.741743 229.20501 
L 66.347567 229.180489 
L 69.953391 229.132971 
L 73.559216 229.043861 
L 77.16504 228.882177 
L 80.770864 228.598404 
L 84.376689 228.116751 
L 87.982513 227.326388 
L 91.588337 226.072971 
L 95.194162 224.152714 
L 98.799986 221.312178 
L 102.40581 217.25753 
L 106.011635 211.676796 
L 109.617459 204.277254 
L 113.223284 194.837277 
L 116.829108 183.267963 
L 120.434932 169.675387 
L 124.040757 154.410583 
L 127.646581 138.092816 
L 131.252405 121.593642 
L 134.85823 105.975061 
L 138.464054 92.38419 
L 142.069878 81.917213 
L 145.675703 75.474339 
L 149.281527 73.632187 
L 152.887351 76.558645 
L 156.493176 83.987625 
L 160.099 95.258982 
L 163.704824 109.415286 
L 167.310649 125.335798 
L 170.916473 141.881703 
L 174.522297 158.026764 
L 178.128122 172.95345 
L 181.733946 186.104107 
L 185.33977 197.187059 
L 188.945595 206.145979 
L 192.551419 213.10583 
L 196.157243 218.309725 
L 199.763068 222.058896 
L 203.368892 224.6639 
L 206.974716 226.410763 
L 210.580541 227.541965 
L 214.186365 228.249685 
L 217.79219 228.677638 
L 221.398014 228.92784 
L 225.003838 229.069312 
L 228.609663 229.146694 
L 232.215487 229.187649 
L 235.821311 229.208625 
L 239.427136 229.219023 
L 243.03296 229.224014 
L 246.638784 229.226332 
L 250.244609 229.227376 
L 253.850433 229.22783 
L 257.456257 229.228022 
L 261.062082 229.2281 
L 264.667906 229.228131 
" style="fill:none;stroke:#0000ff;stroke-linecap:square;stroke-width:2;"/>
   </g>
   <g id="line2d_16">
    <path clip-path="url(#p75199454eb)" d="M 55.530094 229.22815 
L 59.135918 229.22815 
L 62.741743 229.22815 
L 66.347567 229.22815 
L 69.953391 229.22815 
L 73.559216 229.22815 
L 77.16504 229.22815 
L 80.770864 229.22815 
L 84.376689 229.22815 
L 87.982513 229.22815 
L 91.588337 229.22815 
L 95.194162 229.22815 
L 98.799986 229.22815 
L 102.40581 229.22815 
L 106.011635 229.22815 
L 109.617459 229.22815 
L 113.223284 229.22815 
L 116.829108 229.22815 
L 120.434932 229.22815 
L 124.040757 229.228148 
L 127.646581 229.228138 
L 131.252405 229.228083 
L 134.85823 229.227806 
L 138.464054 229.226546 
L 142.069878 229.221345 
L 145.675703 229.201922 
L 149.281527 229.136308 
L 152.887351 228.93595 
L 156.493176 228.383501 
L 160.099 227.009808 
L 163.704824 223.934719 
L 167.310649 217.75183 
L 170.916473 206.622109 
L 174.522297 188.770294 
L 178.128122 163.441507 
L 181.733946 132.036471 
L 185.33977 98.768281 
L 188.945595 70.124078 
L 192.551419 52.932276 
L 196.157243 51.74403 
L 199.763068 66.88523 
L 203.368892 94.312073 
L 206.974716 127.357153 
L 210.580541 159.341551 
L 214.186365 185.66756 
L 217.79219 204.559232 
L 221.398014 216.535189 
L 225.003838 223.294358 
L 228.609663 226.707816 
L 232.215487 228.255536 
L 235.821311 228.88713 
L 239.427136 229.119514 
L 243.03296 229.196707 
L 246.638784 229.219881 
L 250.244609 229.226174 
L 253.850433 229.227721 
L 257.456257 229.228065 
L 261.062082 229.228135 
L 264.667906 229.228148 
" style="fill:none;stroke:#ff0000;stroke-linecap:square;stroke-width:2;"/>
   </g>
   <g id="patch_62">
    <path d="M 43.09 229.22815 
L 43.09 13.32 
" style="fill:none;stroke:#000000;stroke-linecap:square;stroke-linejoin:miter;stroke-width:0.8;"/>
   </g>
   <g id="patch_63">
    <path d="M 43.09 229.22815 
L 277.108 229.22815 
" style="fill:none;stroke:#000000;stroke-linecap:square;stroke-linejoin:miter;stroke-width:0.8;"/>
   </g>
   <g id="legend_1">
    <g id="line2d_17">
     <path d="M 52.09 26.418437 
L 72.09 26.418437 
" style="fill:none;stroke:#0000ff;stroke-linecap:square;stroke-width:2;"/>
    </g>
    <g id="line2d_18"/>
    <g id="text_15">
     <text style="font-family:DejaVu Sans;font-size:10px;font-style:normal;font-weight:normal;text-anchor:start;" transform="rotate(-0, 80.09, 29.918437)" x="80.09" y="29.918437">low variance</text>
    </g>
    <g id="line2d_19">
     <path d="M 52.09 41.096562 
L 72.09 41.096562 
" style="fill:none;stroke:#ff0000;stroke-linecap:square;stroke-width:2;"/>
    </g>
    <g id="line2d_20"/>
    <g id="text_16">
     <text style="font-family:DejaVu Sans;font-size:10px;font-style:normal;font-weight:normal;text-anchor:start;" transform="rotate(-0, 80.09, 44.596562)" x="80.09" y="44.596562">high variance</text>
    </g>
    <g id="patch_64">
     <path d="M 52.09 59.274687 
L 72.09 59.274687 
L 72.09 52.274687 
L 52.09 52.274687 
z
" style="fill:#d3d3d3;stroke:#000000;stroke-linejoin:miter;"/>
    </g>
    <g id="text_17">
     <text style="font-family:DejaVu Sans;font-size:10px;font-style:normal;font-weight:normal;text-anchor:start;" transform="rotate(-0, 80.09, 59.274687)" x="80.09" y="59.274687">data</text>
    </g>
   </g>
  </g>
  <g id="axes_2">
   <g id="patch_65">
    <path d="M 328.662 229.22815 
L 562.68 229.22815 
L 562.68 13.32 
L 328.662 13.32 
z
" style="fill:#ffffff;"/>
   </g>
   <g id="PathCollection_1">
    <defs>
     <path d="M 0 3.535534 
C 0.937635 3.535534 1.836992 3.163008 2.5 2.5 
C 3.163008 1.836992 3.535534 0.937635 3.535534 0 
C 3.535534 -0.937635 3.163008 -1.836992 2.5 -2.5 
C 1.836992 -3.163008 0.937635 -3.535534 0 -3.535534 
C -0.937635 -3.535534 -1.836992 -3.163008 -2.5 -2.5 
C -3.163008 -1.836992 -3.535534 -0.937635 -3.535534 0 
C -3.535534 0.937635 -3.163008 1.836992 -2.5 2.5 
C -1.836992 3.163008 -0.937635 3.535534 0 3.535534 
z
" id="m24d0ccbbd0" style="stroke:#ffffff;"/>
    </defs>
    <g clip-path="url(#pc5e9950b21)">
     <use style="fill:#0000ff;stroke:#ffffff;" x="451.021899" xlink:href="#m24d0ccbbd0" y="97.917276"/>
     <use style="fill:#0000ff;stroke:#ffffff;" x="518.505331" xlink:href="#m24d0ccbbd0" y="63.58653"/>
     <use style="fill:#0000ff;stroke:#ffffff;" x="451.256144" xlink:href="#m24d0ccbbd0" y="97.744771"/>
     <use style="fill:#0000ff;stroke:#ffffff;" x="448.214986" xlink:href="#m24d0ccbbd0" y="103.904322"/>
     <use style="fill:#0000ff;stroke:#ffffff;" x="400.614268" xlink:href="#m24d0ccbbd0" y="140.556744"/>
     <use style="fill:#0000ff;stroke:#ffffff;" x="426.55099" xlink:href="#m24d0ccbbd0" y="109.525146"/>
     <use style="fill:#0000ff;stroke:#ffffff;" x="464.396133" xlink:href="#m24d0ccbbd0" y="103.291788"/>
     <use style="fill:#0000ff;stroke:#ffffff;" x="452.766832" xlink:href="#m24d0ccbbd0" y="108.983733"/>
     <use style="fill:#0000ff;stroke:#ffffff;" x="446.638144" xlink:href="#m24d0ccbbd0" y="104.348622"/>
     <use style="fill:#0000ff;stroke:#ffffff;" x="448.592419" xlink:href="#m24d0ccbbd0" y="115.454155"/>
     <use style="fill:#0000ff;stroke:#ffffff;" x="387.533178" xlink:href="#m24d0ccbbd0" y="176.579471"/>
    </g>
   </g>
   <g id="PathCollection_2">
    <defs>
     <path d="M 0 3.535534 
C 0.937635 3.535534 1.836992 3.163008 2.5 2.5 
C 3.163008 1.836992 3.535534 0.937635 3.535534 0 
C 3.535534 -0.937635 3.163008 -1.836992 2.5 -2.5 
C 1.836992 -3.163008 0.937635 -3.535534 0 -3.535534 
C -0.937635 -3.535534 -1.836992 -3.163008 -2.5 -2.5 
C -3.163008 -1.836992 -3.535534 -0.937635 -3.535534 0 
C -3.535534 0.937635 -3.163008 1.836992 -2.5 2.5 
C -1.836992 3.163008 -0.937635 3.535534 0 3.535534 
z
" id="m67fcaf6e56" style="stroke:#ffffff;"/>
    </defs>
    <g clip-path="url(#pc5e9950b21)">
     <use style="fill:#ff0000;stroke:#ffffff;" x="440.715695" xlink:href="#m67fcaf6e56" y="81.47349"/>
     <use style="fill:#ff0000;stroke:#ffffff;" x="432.44485" xlink:href="#m67fcaf6e56" y="89.562839"/>
     <use style="fill:#ff0000;stroke:#ffffff;" x="394.40405" xlink:href="#m67fcaf6e56" y="137.807501"/>
     <use style="fill:#ff0000;stroke:#ffffff;" x="417.801251" xlink:href="#m67fcaf6e56" y="99.754296"/>
     <use style="fill:#ff0000;stroke:#ffffff;" x="450.177119" xlink:href="#m67fcaf6e56" y="101.9248"/>
     <use style="fill:#ff0000;stroke:#ffffff;" x="448.784759" xlink:href="#m67fcaf6e56" y="83.547575"/>
     <use style="fill:#ff0000;stroke:#ffffff;" x="433.70876" xlink:href="#m67fcaf6e56" y="105.319054"/>
     <use style="fill:#ff0000;stroke:#ffffff;" x="397.741287" xlink:href="#m67fcaf6e56" y="145.92711"/>
    </g>
   </g>
   <g id="matplotlib.axis_3">
    <g id="xtick_8">
     <g id="line2d_21">
      <g>
       <use style="stroke:#000000;stroke-width:0.8;" x="339.299182" xlink:href="#mdab80d5b96" y="229.22815"/>
      </g>
     </g>
     <g id="text_18">
      <text style="font-family:DejaVu Sans;font-size:10px;font-style:normal;font-weight:normal;text-anchor:middle;" transform="rotate(-0, 339.299182, 243.826587)" x="339.299182" y="243.826587">0</text>
     </g>
    </g>
    <g id="xtick_9">
     <g id="line2d_22">
      <g>
       <use style="stroke:#000000;stroke-width:0.8;" x="381.847909" xlink:href="#mdab80d5b96" y="229.22815"/>
      </g>
     </g>
     <g id="text_19">
      <text style="font-family:DejaVu Sans;font-size:10px;font-style:normal;font-weight:normal;text-anchor:middle;" transform="rotate(-0, 381.847909, 243.826587)" x="381.847909" y="243.826587">2</text>
     </g>
    </g>
    <g id="xtick_10">
     <g id="line2d_23">
      <g>
       <use style="stroke:#000000;stroke-width:0.8;" x="424.396636" xlink:href="#mdab80d5b96" y="229.22815"/>
      </g>
     </g>
     <g id="text_20">
      <text style="font-family:DejaVu Sans;font-size:10px;font-style:normal;font-weight:normal;text-anchor:middle;" transform="rotate(-0, 424.396636, 243.826587)" x="424.396636" y="243.826587">4</text>
     </g>
    </g>
    <g id="xtick_11">
     <g id="line2d_24">
      <g>
       <use style="stroke:#000000;stroke-width:0.8;" x="466.945364" xlink:href="#mdab80d5b96" y="229.22815"/>
      </g>
     </g>
     <g id="text_21">
      <text style="font-family:DejaVu Sans;font-size:10px;font-style:normal;font-weight:normal;text-anchor:middle;" transform="rotate(-0, 466.945364, 243.826587)" x="466.945364" y="243.826587">6</text>
     </g>
    </g>
    <g id="xtick_12">
     <g id="line2d_25">
      <g>
       <use style="stroke:#000000;stroke-width:0.8;" x="509.494091" xlink:href="#mdab80d5b96" y="229.22815"/>
      </g>
     </g>
     <g id="text_22">
      <text style="font-family:DejaVu Sans;font-size:10px;font-style:normal;font-weight:normal;text-anchor:middle;" transform="rotate(-0, 509.494091, 243.826587)" x="509.494091" y="243.826587">8</text>
     </g>
    </g>
    <g id="xtick_13">
     <g id="line2d_26">
      <g>
       <use style="stroke:#000000;stroke-width:0.8;" x="552.042818" xlink:href="#mdab80d5b96" y="229.22815"/>
      </g>
     </g>
     <g id="text_23">
      <text style="font-family:DejaVu Sans;font-size:10px;font-style:normal;font-weight:normal;text-anchor:middle;" transform="rotate(-0, 552.042818, 243.826587)" x="552.042818" y="243.826587">10</text>
     </g>
    </g>
    <g id="text_24">
     <!-- $d'_{small}$ -->
     <g transform="translate(431.471 257.504712)">
      <text>
       <tspan style="font-family:DejaVu Sans;font-size:10px;font-style:oblique;font-weight:oblique;" x="0" y="-0.25625000000000053">d</tspan>
       <tspan style="font-family:cmsy10;font-size:7px;font-style:regular;font-weight:regular;" x="7.091771" y="-4.084375">0</tspan>
       <tspan style="font-family:DejaVu Sans;font-size:7px;font-style:oblique;font-weight:oblique;" x="9.385228 13.032201 19.851048 24.140599 26.085423" y="1.3843749999999986">small</tspan>
      </text>
     </g>
    </g>
   </g>
   <g id="matplotlib.axis_4">
    <g id="ytick_7">
     <g id="line2d_27">
      <g>
       <use style="stroke:#000000;stroke-width:0.8;" x="328.662" xlink:href="#ma15c6d6abb" y="219.414143"/>
      </g>
     </g>
     <g id="text_25">
      <text style="font-family:DejaVu Sans;font-size:10px;font-style:normal;font-weight:normal;text-anchor:end;" transform="rotate(-0, 321.662, 223.213362)" x="321.662" y="223.213362">0</text>
     </g>
    </g>
    <g id="ytick_8">
     <g id="line2d_28">
      <g>
       <use style="stroke:#000000;stroke-width:0.8;" x="328.662" xlink:href="#ma15c6d6abb" y="180.158116"/>
      </g>
     </g>
     <g id="text_26">
      <text style="font-family:DejaVu Sans;font-size:10px;font-style:normal;font-weight:normal;text-anchor:end;" transform="rotate(-0, 321.662, 183.957335)" x="321.662" y="183.957335">2</text>
     </g>
    </g>
    <g id="ytick_9">
     <g id="line2d_29">
      <g>
       <use style="stroke:#000000;stroke-width:0.8;" x="328.662" xlink:href="#ma15c6d6abb" y="140.902089"/>
      </g>
     </g>
     <g id="text_27">
      <text style="font-family:DejaVu Sans;font-size:10px;font-style:normal;font-weight:normal;text-anchor:end;" transform="rotate(-0, 321.662, 144.701307)" x="321.662" y="144.701307">4</text>
     </g>
    </g>
    <g id="ytick_10">
     <g id="line2d_30">
      <g>
       <use style="stroke:#000000;stroke-width:0.8;" x="328.662" xlink:href="#ma15c6d6abb" y="101.646061"/>
      </g>
     </g>
     <g id="text_28">
      <text style="font-family:DejaVu Sans;font-size:10px;font-style:normal;font-weight:normal;text-anchor:end;" transform="rotate(-0, 321.662, 105.44528)" x="321.662" y="105.44528">6</text>
     </g>
    </g>
    <g id="ytick_11">
     <g id="line2d_31">
      <g>
       <use style="stroke:#000000;stroke-width:0.8;" x="328.662" xlink:href="#ma15c6d6abb" y="62.390034"/>
      </g>
     </g>
     <g id="text_29">
      <text style="font-family:DejaVu Sans;font-size:10px;font-style:normal;font-weight:normal;text-anchor:end;" transform="rotate(-0, 321.662, 66.189253)" x="321.662" y="66.189253">8</text>
     </g>
    </g>
    <g id="ytick_12">
     <g id="line2d_32">
      <g>
       <use style="stroke:#000000;stroke-width:0.8;" x="328.662" xlink:href="#ma15c6d6abb" y="23.134007"/>
      </g>
     </g>
     <g id="text_30">
      <text style="font-family:DejaVu Sans;font-size:10px;font-style:normal;font-weight:normal;text-anchor:end;" transform="rotate(-0, 321.662, 26.933226)" x="321.662" y="26.933226">10</text>
     </g>
    </g>
    <g id="text_31">
     <!-- $d'_{big}$ -->
     <g transform="translate(301.837 131.524075)rotate(-90)">
      <text>
       <tspan style="font-family:DejaVu Sans;font-size:10px;font-style:oblique;font-weight:oblique;" x="0" y="-0.25625000000000053">d</tspan>
       <tspan style="font-family:cmsy10;font-size:7px;font-style:regular;font-weight:regular;" x="7.091771" y="-4.084375">0</tspan>
       <tspan style="font-family:DejaVu Sans;font-size:7px;font-style:oblique;font-weight:oblique;" x="9.385228 13.828587 15.773411" y="1.3843749999999986">big</tspan>
      </text>
     </g>
    </g>
   </g>
   <g id="line2d_33">
    <path clip-path="url(#pc5e9950b21)" d="M 339.299182 219.414143 
L 552.042818 23.134007 
" style="fill:none;stroke:#808080;stroke-dasharray:5.55,2.4;stroke-dashoffset:0;stroke-width:1.5;"/>
   </g>
   <g id="line2d_34">
    <path clip-path="url(#pc5e9950b21)" d="M 328.662 219.414143 
L 562.68 219.414143 
" style="fill:none;stroke:#808080;stroke-dasharray:5.55,2.4;stroke-dashoffset:0;stroke-width:1.5;"/>
   </g>
   <g id="line2d_35">
    <path clip-path="url(#pc5e9950b21)" d="M 339.299182 229.22815 
L 339.299182 13.32 
" style="fill:none;stroke:#808080;stroke-dasharray:5.55,2.4;stroke-dashoffset:0;stroke-width:1.5;"/>
   </g>
   <g id="patch_66">
    <path d="M 328.662 229.22815 
L 328.662 13.32 
" style="fill:none;stroke:#000000;stroke-linecap:square;stroke-linejoin:miter;stroke-width:0.8;"/>
   </g>
   <g id="patch_67">
    <path d="M 328.662 229.22815 
L 562.68 229.22815 
" style="fill:none;stroke:#000000;stroke-linecap:square;stroke-linejoin:miter;stroke-width:0.8;"/>
   </g>
   <g id="legend_2">
    <g id="PathCollection_3">
     <g>
      <use style="fill:#0000ff;stroke:#ffffff;" x="391.353813" xlink:href="#m24d0ccbbd0" y="27.293437"/>
     </g>
    </g>
    <g id="text_32">
     <text style="font-family:DejaVu Sans;font-size:10px;font-style:normal;font-weight:normal;text-anchor:start;" transform="rotate(-0, 409.353813, 29.918437)" x="409.353813" y="29.918437">small pupil variance</text>
    </g>
    <g id="PathCollection_4">
     <g>
      <use style="fill:#ff0000;stroke:#ffffff;" x="391.353813" xlink:href="#m67fcaf6e56" y="41.971562"/>
     </g>
    </g>
    <g id="text_33">
     <text style="font-family:DejaVu Sans;font-size:10px;font-style:normal;font-weight:normal;text-anchor:start;" transform="rotate(-0, 409.353813, 44.596562)" x="409.353813" y="44.596562">large pupil variance</text>
    </g>
   </g>
  </g>
 </g>
 <defs>
  <clipPath id="p75199454eb">
   <rect height="215.90815" width="234.018" x="43.09" y="13.32"/>
  </clipPath>
  <clipPath id="pc5e9950b21">
   <rect height="215.90815" width="234.018" x="328.662" y="13.32"/>
  </clipPath>
 </defs>
</svg>
