<?xml version="1.0" encoding="utf-8" standalone="no"?>
<!DOCTYPE svg PUBLIC "-//W3C//DTD SVG 1.1//EN"
  "http://www.w3.org/Graphics/SVG/1.1/DTD/svg11.dtd">
<!-- Created with matplotlib (https://matplotlib.org/) -->
<svg height="288pt" version="1.1" viewBox="0 0 302.4 288" width="302.4pt" xmlns="http://www.w3.org/2000/svg" xmlns:xlink="http://www.w3.org/1999/xlink">
 <defs>
  <style type="text/css">
*{stroke-linecap:butt;stroke-linejoin:round;}
  </style>
 </defs>
 <g id="figure_1">
  <g id="patch_1">
   <path d="M 0 288 
L 302.4 288 
L 302.4 0 
L 0 0 
z
" style="fill:#ffffff;"/>
  </g>
  <g id="axes_1">
   <g id="patch_2">
    <path d="M 48.026 125.72 
L 142.453636 125.72 
L 142.453636 11.16 
L 48.026 11.16 
z
" style="fill:#ffffff;"/>
   </g>
   <g id="line2d_1">
    <path clip-path="url(#p42cc84ef46)" d="M 52.318165 120.512727 
L 66.625383 112.303791 
L 80.932601 87.377911 
L 95.239818 71.811861 
L 109.547036 56.780756 
L 123.854253 47.945104 
L 138.161471 42.613736 
" style="fill:none;stroke:#1f77b4;stroke-linecap:square;stroke-opacity:0.5;stroke-width:1.5;"/>
   </g>
   <g id="line2d_2">
    <path clip-path="url(#p42cc84ef46)" d="M 52.318165 120.512727 
L 66.625383 115.70804 
L 80.932601 109.369923 
L 95.239818 105.241482 
L 109.547036 102.229542 
L 123.854253 101.708077 
L 138.161471 102.242845 
" style="fill:none;stroke:#1f77b4;stroke-linecap:square;stroke-opacity:0.5;stroke-width:1.5;"/>
   </g>
   <g id="line2d_3">
    <path clip-path="url(#p42cc84ef46)" d="M 52.318165 120.512727 
L 66.625383 116.709447 
L 80.932601 113.126431 
L 95.239818 106.001767 
L 109.547036 102.739101 
L 123.854253 98.028881 
L 138.161471 97.133256 
" style="fill:none;stroke:#1f77b4;stroke-linecap:square;stroke-opacity:0.5;stroke-width:1.5;"/>
   </g>
   <g id="line2d_4">
    <path clip-path="url(#p42cc84ef46)" d="M 52.318165 120.512727 
L 66.625383 105.478718 
L 80.932601 92.203123 
L 95.239818 84.778301 
L 109.547036 78.541861 
L 123.854253 73.888809 
L 138.161471 68.967633 
" style="fill:none;stroke:#1f77b4;stroke-linecap:square;stroke-opacity:0.5;stroke-width:1.5;"/>
   </g>
   <g id="line2d_5">
    <path clip-path="url(#p42cc84ef46)" d="M 52.318165 120.512727 
L 66.625383 110.332375 
L 80.932601 99.803836 
L 95.239818 92.522475 
L 109.547036 83.745478 
L 123.854253 77.0313 
L 138.161471 72.907959 
" style="fill:none;stroke:#1f77b4;stroke-linecap:square;stroke-opacity:0.5;stroke-width:1.5;"/>
   </g>
   <g id="line2d_6">
    <path clip-path="url(#p42cc84ef46)" d="M 52.318165 120.512727 
L 66.625383 107.888112 
L 80.932601 91.836867 
L 95.239818 78.377024 
L 109.547036 68.512192 
L 123.854253 59.148624 
L 138.161471 52.934582 
" style="fill:none;stroke:#1f77b4;stroke-linecap:square;stroke-opacity:0.5;stroke-width:1.5;"/>
   </g>
   <g id="line2d_7">
    <path clip-path="url(#p42cc84ef46)" d="M 52.318165 120.512727 
L 66.625383 91.200813 
L 80.932601 72.801745 
L 95.239818 56.131618 
L 109.547036 39.953933 
L 123.854253 29.838647 
L 138.161471 16.367273 
" style="fill:none;stroke:#1f77b4;stroke-linecap:square;stroke-opacity:0.5;stroke-width:1.5;"/>
   </g>
   <g id="matplotlib.axis_1">
    <g id="xtick_1">
     <g id="line2d_8">
      <defs>
       <path d="M 0 0 
L 0 3.5 
" id="mf0a4d13856" style="stroke:#000000;stroke-width:0.8;"/>
      </defs>
      <g>
       <use style="stroke:#000000;stroke-width:0.8;" x="52.318165" xlink:href="#mf0a4d13856" y="125.72"/>
      </g>
     </g>
    </g>
    <g id="xtick_2">
     <g id="line2d_9">
      <g>
       <use style="stroke:#000000;stroke-width:0.8;" x="66.625383" xlink:href="#mf0a4d13856" y="125.72"/>
      </g>
     </g>
    </g>
    <g id="xtick_3">
     <g id="line2d_10">
      <g>
       <use style="stroke:#000000;stroke-width:0.8;" x="80.932601" xlink:href="#mf0a4d13856" y="125.72"/>
      </g>
     </g>
    </g>
    <g id="xtick_4">
     <g id="line2d_11">
      <g>
       <use style="stroke:#000000;stroke-width:0.8;" x="95.239818" xlink:href="#mf0a4d13856" y="125.72"/>
      </g>
     </g>
    </g>
    <g id="xtick_5">
     <g id="line2d_12">
      <g>
       <use style="stroke:#000000;stroke-width:0.8;" x="109.547036" xlink:href="#mf0a4d13856" y="125.72"/>
      </g>
     </g>
    </g>
    <g id="xtick_6">
     <g id="line2d_13">
      <g>
       <use style="stroke:#000000;stroke-width:0.8;" x="123.854253" xlink:href="#mf0a4d13856" y="125.72"/>
      </g>
     </g>
    </g>
    <g id="xtick_7">
     <g id="line2d_14">
      <g>
       <use style="stroke:#000000;stroke-width:0.8;" x="138.161471" xlink:href="#mf0a4d13856" y="125.72"/>
      </g>
     </g>
    </g>
   </g>
   <g id="matplotlib.axis_2">
    <g id="ytick_1">
     <g id="line2d_15">
      <defs>
       <path d="M 0 0 
L -3.5 0 
" id="m9c024f91f9" style="stroke:#000000;stroke-width:0.8;"/>
      </defs>
      <g>
       <use style="stroke:#000000;stroke-width:0.8;" x="48.026" xlink:href="#m9c024f91f9" y="120.512727"/>
      </g>
     </g>
     <g id="text_1">
      <!-- 1.00 -->
      <defs>
       <path d="M 12.40625 8.296875 
L 28.515625 8.296875 
L 28.515625 63.921875 
L 10.984375 60.40625 
L 10.984375 69.390625 
L 28.421875 72.90625 
L 38.28125 72.90625 
L 38.28125 8.296875 
L 54.390625 8.296875 
L 54.390625 0 
L 12.40625 0 
z
" id="DejaVuSans-49"/>
       <path d="M 10.6875 12.40625 
L 21 12.40625 
L 21 0 
L 10.6875 0 
z
" id="DejaVuSans-46"/>
       <path d="M 31.78125 66.40625 
Q 24.171875 66.40625 20.328125 58.90625 
Q 16.5 51.421875 16.5 36.375 
Q 16.5 21.390625 20.328125 13.890625 
Q 24.171875 6.390625 31.78125 6.390625 
Q 39.453125 6.390625 43.28125 13.890625 
Q 47.125 21.390625 47.125 36.375 
Q 47.125 51.421875 43.28125 58.90625 
Q 39.453125 66.40625 31.78125 66.40625 
z
M 31.78125 74.21875 
Q 44.046875 74.21875 50.515625 64.515625 
Q 56.984375 54.828125 56.984375 36.375 
Q 56.984375 17.96875 50.515625 8.265625 
Q 44.046875 -1.421875 31.78125 -1.421875 
Q 19.53125 -1.421875 13.0625 8.265625 
Q 6.59375 17.96875 6.59375 36.375 
Q 6.59375 54.828125 13.0625 64.515625 
Q 19.53125 74.21875 31.78125 74.21875 
z
" id="DejaVuSans-48"/>
      </defs>
      <g transform="translate(23.2135 123.552102)scale(0.08 -0.08)">
       <use xlink:href="#DejaVuSans-49"/>
       <use x="63.623047" xlink:href="#DejaVuSans-46"/>
       <use x="95.410156" xlink:href="#DejaVuSans-48"/>
       <use x="159.033203" xlink:href="#DejaVuSans-48"/>
      </g>
     </g>
    </g>
    <g id="ytick_2">
     <g id="line2d_16">
      <g>
       <use style="stroke:#000000;stroke-width:0.8;" x="48.026" xlink:href="#m9c024f91f9" y="95.639162"/>
      </g>
     </g>
     <g id="text_2">
      <!-- 1.05 -->
      <defs>
       <path d="M 10.796875 72.90625 
L 49.515625 72.90625 
L 49.515625 64.59375 
L 19.828125 64.59375 
L 19.828125 46.734375 
Q 21.96875 47.46875 24.109375 47.828125 
Q 26.265625 48.1875 28.421875 48.1875 
Q 40.625 48.1875 47.75 41.5 
Q 54.890625 34.8125 54.890625 23.390625 
Q 54.890625 11.625 47.5625 5.09375 
Q 40.234375 -1.421875 26.90625 -1.421875 
Q 22.3125 -1.421875 17.546875 -0.640625 
Q 12.796875 0.140625 7.71875 1.703125 
L 7.71875 11.625 
Q 12.109375 9.234375 16.796875 8.0625 
Q 21.484375 6.890625 26.703125 6.890625 
Q 35.15625 6.890625 40.078125 11.328125 
Q 45.015625 15.765625 45.015625 23.390625 
Q 45.015625 31 40.078125 35.4375 
Q 35.15625 39.890625 26.703125 39.890625 
Q 22.75 39.890625 18.8125 39.015625 
Q 14.890625 38.140625 10.796875 36.28125 
z
" id="DejaVuSans-53"/>
      </defs>
      <g transform="translate(23.2135 98.678537)scale(0.08 -0.08)">
       <use xlink:href="#DejaVuSans-49"/>
       <use x="63.623047" xlink:href="#DejaVuSans-46"/>
       <use x="95.410156" xlink:href="#DejaVuSans-48"/>
       <use x="159.033203" xlink:href="#DejaVuSans-53"/>
      </g>
     </g>
    </g>
    <g id="ytick_3">
     <g id="line2d_17">
      <g>
       <use style="stroke:#000000;stroke-width:0.8;" x="48.026" xlink:href="#m9c024f91f9" y="70.765596"/>
      </g>
     </g>
     <g id="text_3">
      <!-- 1.10 -->
      <g transform="translate(23.2135 73.804971)scale(0.08 -0.08)">
       <use xlink:href="#DejaVuSans-49"/>
       <use x="63.623047" xlink:href="#DejaVuSans-46"/>
       <use x="95.410156" xlink:href="#DejaVuSans-49"/>
       <use x="159.033203" xlink:href="#DejaVuSans-48"/>
      </g>
     </g>
    </g>
    <g id="ytick_4">
     <g id="line2d_18">
      <g>
       <use style="stroke:#000000;stroke-width:0.8;" x="48.026" xlink:href="#m9c024f91f9" y="45.89203"/>
      </g>
     </g>
     <g id="text_4">
      <!-- 1.15 -->
      <g transform="translate(23.2135 48.931405)scale(0.08 -0.08)">
       <use xlink:href="#DejaVuSans-49"/>
       <use x="63.623047" xlink:href="#DejaVuSans-46"/>
       <use x="95.410156" xlink:href="#DejaVuSans-49"/>
       <use x="159.033203" xlink:href="#DejaVuSans-53"/>
      </g>
     </g>
    </g>
    <g id="ytick_5">
     <g id="line2d_19">
      <g>
       <use style="stroke:#000000;stroke-width:0.8;" x="48.026" xlink:href="#m9c024f91f9" y="21.018465"/>
      </g>
     </g>
     <g id="text_5">
      <!-- 1.20 -->
      <defs>
       <path d="M 19.1875 8.296875 
L 53.609375 8.296875 
L 53.609375 0 
L 7.328125 0 
L 7.328125 8.296875 
Q 12.9375 14.109375 22.625 23.890625 
Q 32.328125 33.6875 34.8125 36.53125 
Q 39.546875 41.84375 41.421875 45.53125 
Q 43.3125 49.21875 43.3125 52.78125 
Q 43.3125 58.59375 39.234375 62.25 
Q 35.15625 65.921875 28.609375 65.921875 
Q 23.96875 65.921875 18.8125 64.3125 
Q 13.671875 62.703125 7.8125 59.421875 
L 7.8125 69.390625 
Q 13.765625 71.78125 18.9375 73 
Q 24.125 74.21875 28.421875 74.21875 
Q 39.75 74.21875 46.484375 68.546875 
Q 53.21875 62.890625 53.21875 53.421875 
Q 53.21875 48.921875 51.53125 44.890625 
Q 49.859375 40.875 45.40625 35.40625 
Q 44.1875 33.984375 37.640625 27.21875 
Q 31.109375 20.453125 19.1875 8.296875 
z
" id="DejaVuSans-50"/>
      </defs>
      <g transform="translate(23.2135 24.05784)scale(0.08 -0.08)">
       <use xlink:href="#DejaVuSans-49"/>
       <use x="63.623047" xlink:href="#DejaVuSans-46"/>
       <use x="95.410156" xlink:href="#DejaVuSans-50"/>
       <use x="159.033203" xlink:href="#DejaVuSans-48"/>
      </g>
     </g>
    </g>
    <g id="text_6">
     <!-- $d'^2$ (normalized) -->
     <defs>
      <path d="M 41.796875 8.203125 
Q 38.1875 3.46875 33.25 1.015625 
Q 28.328125 -1.421875 22.3125 -1.421875 
Q 14.109375 -1.421875 9.34375 4.171875 
Q 4.59375 9.765625 4.59375 19.484375 
Q 4.59375 27.59375 7.46875 34.9375 
Q 10.359375 42.28125 15.828125 48.09375 
Q 19.4375 51.953125 23.96875 53.96875 
Q 28.515625 56 33.5 56 
Q 38.765625 56 42.796875 53.453125 
Q 46.828125 50.921875 49.03125 46.1875 
L 54.890625 75.984375 
L 63.921875 75.984375 
L 49.125 0 
L 40.09375 0 
z
M 13.921875 21.09375 
Q 13.921875 14.015625 17.109375 10.0625 
Q 20.3125 6.109375 25.984375 6.109375 
Q 30.171875 6.109375 33.765625 8.125 
Q 37.359375 10.15625 40.09375 14.109375 
Q 42.96875 18.21875 44.625 23.578125 
Q 46.296875 28.953125 46.296875 34.1875 
Q 46.296875 40.96875 43.09375 44.765625 
Q 39.890625 48.578125 34.28125 48.578125 
Q 30.03125 48.578125 26.359375 46.578125 
Q 22.703125 44.578125 20.125 40.828125 
Q 17.28125 36.765625 15.59375 31.390625 
Q 13.921875 26.03125 13.921875 21.09375 
z
" id="DejaVuSans-Oblique-100"/>
      <path d="M 3.515625 5.421875 
Q 2.875 5.609375 2.875 6.390625 
L 15.09375 51.8125 
Q 15.671875 53.65625 17.078125 54.78125 
Q 18.5 55.90625 20.3125 55.90625 
Q 22.65625 55.90625 24.4375 54.359375 
Q 26.21875 52.828125 26.21875 50.484375 
Q 26.21875 49.46875 25.6875 48.1875 
L 7.625 4.984375 
Q 7.28125 4.296875 6.6875 4.296875 
Q 6.15625 4.296875 5 4.78125 
Q 3.859375 5.28125 3.515625 5.421875 
z
" id="Cmsy10-48"/>
      <path id="DejaVuSans-32"/>
      <path d="M 31 75.875 
Q 24.46875 64.65625 21.28125 53.65625 
Q 18.109375 42.671875 18.109375 31.390625 
Q 18.109375 20.125 21.3125 9.0625 
Q 24.515625 -2 31 -13.1875 
L 23.1875 -13.1875 
Q 15.875 -1.703125 12.234375 9.375 
Q 8.59375 20.453125 8.59375 31.390625 
Q 8.59375 42.28125 12.203125 53.3125 
Q 15.828125 64.359375 23.1875 75.875 
z
" id="DejaVuSans-40"/>
      <path d="M 54.890625 33.015625 
L 54.890625 0 
L 45.90625 0 
L 45.90625 32.71875 
Q 45.90625 40.484375 42.875 44.328125 
Q 39.84375 48.1875 33.796875 48.1875 
Q 26.515625 48.1875 22.3125 43.546875 
Q 18.109375 38.921875 18.109375 30.90625 
L 18.109375 0 
L 9.078125 0 
L 9.078125 54.6875 
L 18.109375 54.6875 
L 18.109375 46.1875 
Q 21.34375 51.125 25.703125 53.5625 
Q 30.078125 56 35.796875 56 
Q 45.21875 56 50.046875 50.171875 
Q 54.890625 44.34375 54.890625 33.015625 
z
" id="DejaVuSans-110"/>
      <path d="M 30.609375 48.390625 
Q 23.390625 48.390625 19.1875 42.75 
Q 14.984375 37.109375 14.984375 27.296875 
Q 14.984375 17.484375 19.15625 11.84375 
Q 23.34375 6.203125 30.609375 6.203125 
Q 37.796875 6.203125 41.984375 11.859375 
Q 46.1875 17.53125 46.1875 27.296875 
Q 46.1875 37.015625 41.984375 42.703125 
Q 37.796875 48.390625 30.609375 48.390625 
z
M 30.609375 56 
Q 42.328125 56 49.015625 48.375 
Q 55.71875 40.765625 55.71875 27.296875 
Q 55.71875 13.875 49.015625 6.21875 
Q 42.328125 -1.421875 30.609375 -1.421875 
Q 18.84375 -1.421875 12.171875 6.21875 
Q 5.515625 13.875 5.515625 27.296875 
Q 5.515625 40.765625 12.171875 48.375 
Q 18.84375 56 30.609375 56 
z
" id="DejaVuSans-111"/>
      <path d="M 41.109375 46.296875 
Q 39.59375 47.171875 37.8125 47.578125 
Q 36.03125 48 33.890625 48 
Q 26.265625 48 22.1875 43.046875 
Q 18.109375 38.09375 18.109375 28.8125 
L 18.109375 0 
L 9.078125 0 
L 9.078125 54.6875 
L 18.109375 54.6875 
L 18.109375 46.1875 
Q 20.953125 51.171875 25.484375 53.578125 
Q 30.03125 56 36.53125 56 
Q 37.453125 56 38.578125 55.875 
Q 39.703125 55.765625 41.0625 55.515625 
z
" id="DejaVuSans-114"/>
      <path d="M 52 44.1875 
Q 55.375 50.25 60.0625 53.125 
Q 64.75 56 71.09375 56 
Q 79.640625 56 84.28125 50.015625 
Q 88.921875 44.046875 88.921875 33.015625 
L 88.921875 0 
L 79.890625 0 
L 79.890625 32.71875 
Q 79.890625 40.578125 77.09375 44.375 
Q 74.3125 48.1875 68.609375 48.1875 
Q 61.625 48.1875 57.5625 43.546875 
Q 53.515625 38.921875 53.515625 30.90625 
L 53.515625 0 
L 44.484375 0 
L 44.484375 32.71875 
Q 44.484375 40.625 41.703125 44.40625 
Q 38.921875 48.1875 33.109375 48.1875 
Q 26.21875 48.1875 22.15625 43.53125 
Q 18.109375 38.875 18.109375 30.90625 
L 18.109375 0 
L 9.078125 0 
L 9.078125 54.6875 
L 18.109375 54.6875 
L 18.109375 46.1875 
Q 21.1875 51.21875 25.484375 53.609375 
Q 29.78125 56 35.6875 56 
Q 41.65625 56 45.828125 52.96875 
Q 50 49.953125 52 44.1875 
z
" id="DejaVuSans-109"/>
      <path d="M 34.28125 27.484375 
Q 23.390625 27.484375 19.1875 25 
Q 14.984375 22.515625 14.984375 16.5 
Q 14.984375 11.71875 18.140625 8.90625 
Q 21.296875 6.109375 26.703125 6.109375 
Q 34.1875 6.109375 38.703125 11.40625 
Q 43.21875 16.703125 43.21875 25.484375 
L 43.21875 27.484375 
z
M 52.203125 31.203125 
L 52.203125 0 
L 43.21875 0 
L 43.21875 8.296875 
Q 40.140625 3.328125 35.546875 0.953125 
Q 30.953125 -1.421875 24.3125 -1.421875 
Q 15.921875 -1.421875 10.953125 3.296875 
Q 6 8.015625 6 15.921875 
Q 6 25.140625 12.171875 29.828125 
Q 18.359375 34.515625 30.609375 34.515625 
L 43.21875 34.515625 
L 43.21875 35.40625 
Q 43.21875 41.609375 39.140625 45 
Q 35.0625 48.390625 27.6875 48.390625 
Q 23 48.390625 18.546875 47.265625 
Q 14.109375 46.140625 10.015625 43.890625 
L 10.015625 52.203125 
Q 14.9375 54.109375 19.578125 55.046875 
Q 24.21875 56 28.609375 56 
Q 40.484375 56 46.34375 49.84375 
Q 52.203125 43.703125 52.203125 31.203125 
z
" id="DejaVuSans-97"/>
      <path d="M 9.421875 75.984375 
L 18.40625 75.984375 
L 18.40625 0 
L 9.421875 0 
z
" id="DejaVuSans-108"/>
      <path d="M 9.421875 54.6875 
L 18.40625 54.6875 
L 18.40625 0 
L 9.421875 0 
z
M 9.421875 75.984375 
L 18.40625 75.984375 
L 18.40625 64.59375 
L 9.421875 64.59375 
z
" id="DejaVuSans-105"/>
      <path d="M 5.515625 54.6875 
L 48.1875 54.6875 
L 48.1875 46.484375 
L 14.40625 7.171875 
L 48.1875 7.171875 
L 48.1875 0 
L 4.296875 0 
L 4.296875 8.203125 
L 38.09375 47.515625 
L 5.515625 47.515625 
z
" id="DejaVuSans-122"/>
      <path d="M 56.203125 29.59375 
L 56.203125 25.203125 
L 14.890625 25.203125 
Q 15.484375 15.921875 20.484375 11.0625 
Q 25.484375 6.203125 34.421875 6.203125 
Q 39.59375 6.203125 44.453125 7.46875 
Q 49.3125 8.734375 54.109375 11.28125 
L 54.109375 2.78125 
Q 49.265625 0.734375 44.1875 -0.34375 
Q 39.109375 -1.421875 33.890625 -1.421875 
Q 20.796875 -1.421875 13.15625 6.1875 
Q 5.515625 13.8125 5.515625 26.8125 
Q 5.515625 40.234375 12.765625 48.109375 
Q 20.015625 56 32.328125 56 
Q 43.359375 56 49.78125 48.890625 
Q 56.203125 41.796875 56.203125 29.59375 
z
M 47.21875 32.234375 
Q 47.125 39.59375 43.09375 43.984375 
Q 39.0625 48.390625 32.421875 48.390625 
Q 24.90625 48.390625 20.390625 44.140625 
Q 15.875 39.890625 15.1875 32.171875 
z
" id="DejaVuSans-101"/>
      <path d="M 45.40625 46.390625 
L 45.40625 75.984375 
L 54.390625 75.984375 
L 54.390625 0 
L 45.40625 0 
L 45.40625 8.203125 
Q 42.578125 3.328125 38.25 0.953125 
Q 33.9375 -1.421875 27.875 -1.421875 
Q 17.96875 -1.421875 11.734375 6.484375 
Q 5.515625 14.40625 5.515625 27.296875 
Q 5.515625 40.1875 11.734375 48.09375 
Q 17.96875 56 27.875 56 
Q 33.9375 56 38.25 53.625 
Q 42.578125 51.265625 45.40625 46.390625 
z
M 14.796875 27.296875 
Q 14.796875 17.390625 18.875 11.75 
Q 22.953125 6.109375 30.078125 6.109375 
Q 37.203125 6.109375 41.296875 11.75 
Q 45.40625 17.390625 45.40625 27.296875 
Q 45.40625 37.203125 41.296875 42.84375 
Q 37.203125 48.484375 30.078125 48.484375 
Q 22.953125 48.484375 18.875 42.84375 
Q 14.796875 37.203125 14.796875 27.296875 
z
" id="DejaVuSans-100"/>
      <path d="M 8.015625 75.875 
L 15.828125 75.875 
Q 23.140625 64.359375 26.78125 53.3125 
Q 30.421875 42.28125 30.421875 31.390625 
Q 30.421875 20.453125 26.78125 9.375 
Q 23.140625 -1.703125 15.828125 -13.1875 
L 8.015625 -13.1875 
Q 14.5 -2 17.703125 9.0625 
Q 20.90625 20.125 20.90625 31.390625 
Q 20.90625 42.671875 17.703125 53.65625 
Q 14.5 64.65625 8.015625 75.875 
z
" id="DejaVuSans-41"/>
     </defs>
     <g transform="translate(17.54975 100.8)rotate(-90)scale(0.08 -0.08)">
      <use transform="translate(0 0.765625)" xlink:href="#DejaVuSans-Oblique-100"/>
      <use transform="translate(70.924271 39.046875)scale(0.7)" xlink:href="#Cmsy10-48"/>
      <use transform="translate(93.858841 39.046875)scale(0.7)" xlink:href="#DejaVuSans-50"/>
      <use transform="translate(141.129349 0.765625)" xlink:href="#DejaVuSans-32"/>
      <use transform="translate(172.916458 0.765625)" xlink:href="#DejaVuSans-40"/>
      <use transform="translate(211.93013 0.765625)" xlink:href="#DejaVuSans-110"/>
      <use transform="translate(275.309036 0.765625)" xlink:href="#DejaVuSans-111"/>
      <use transform="translate(336.490677 0.765625)" xlink:href="#DejaVuSans-114"/>
      <use transform="translate(377.603958 0.765625)" xlink:href="#DejaVuSans-109"/>
      <use transform="translate(475.016068 0.765625)" xlink:href="#DejaVuSans-97"/>
      <use transform="translate(536.295365 0.765625)" xlink:href="#DejaVuSans-108"/>
      <use transform="translate(564.078568 0.765625)" xlink:href="#DejaVuSans-105"/>
      <use transform="translate(591.861771 0.765625)" xlink:href="#DejaVuSans-122"/>
      <use transform="translate(644.352005 0.765625)" xlink:href="#DejaVuSans-101"/>
      <use transform="translate(705.875443 0.765625)" xlink:href="#DejaVuSans-100"/>
      <use transform="translate(769.352005 0.765625)" xlink:href="#DejaVuSans-41"/>
     </g>
    </g>
   </g>
   <g id="LineCollection_1">
    <path clip-path="url(#p42cc84ef46)" d="M 52.318165 120.512727 
L 52.318165 120.512727 
" style="fill:none;stroke:#000000;stroke-width:2;"/>
    <path clip-path="url(#p42cc84ef46)" d="M 66.625383 111.534045 
L 66.625383 105.500537 
" style="fill:none;stroke:#000000;stroke-width:2;"/>
    <path clip-path="url(#p42cc84ef46)" d="M 80.932601 100.011848 
L 80.932601 90.422283 
" style="fill:none;stroke:#000000;stroke-width:2;"/>
    <path clip-path="url(#p42cc84ef46)" d="M 95.239818 91.302995 
L 95.239818 78.658366 
" style="fill:none;stroke:#000000;stroke-width:2;"/>
    <path clip-path="url(#p42cc84ef46)" d="M 109.547036 84.145632 
L 109.547036 67.997963 
" style="fill:none;stroke:#000000;stroke-width:2;"/>
    <path clip-path="url(#p42cc84ef46)" d="M 123.854253 78.771457 
L 123.854253 60.539755 
" style="fill:none;stroke:#000000;stroke-width:2;"/>
    <path clip-path="url(#p42cc84ef46)" d="M 138.161471 75.341716 
L 138.161471 54.134772 
" style="fill:none;stroke:#000000;stroke-width:2;"/>
   </g>
   <g id="line2d_20">
    <defs>
     <path d="M 3 0 
L -3 -0 
" id="m21ae9f0e37" style="stroke:#000000;"/>
    </defs>
    <g clip-path="url(#p42cc84ef46)">
     <use style="stroke:#000000;" x="52.318165" xlink:href="#m21ae9f0e37" y="120.512727"/>
     <use style="stroke:#000000;" x="66.625383" xlink:href="#m21ae9f0e37" y="111.534045"/>
     <use style="stroke:#000000;" x="80.932601" xlink:href="#m21ae9f0e37" y="100.011848"/>
     <use style="stroke:#000000;" x="95.239818" xlink:href="#m21ae9f0e37" y="91.302995"/>
     <use style="stroke:#000000;" x="109.547036" xlink:href="#m21ae9f0e37" y="84.145632"/>
     <use style="stroke:#000000;" x="123.854253" xlink:href="#m21ae9f0e37" y="78.771457"/>
     <use style="stroke:#000000;" x="138.161471" xlink:href="#m21ae9f0e37" y="75.341716"/>
    </g>
   </g>
   <g id="line2d_21">
    <g clip-path="url(#p42cc84ef46)">
     <use style="stroke:#000000;" x="52.318165" xlink:href="#m21ae9f0e37" y="120.512727"/>
     <use style="stroke:#000000;" x="66.625383" xlink:href="#m21ae9f0e37" y="105.500537"/>
     <use style="stroke:#000000;" x="80.932601" xlink:href="#m21ae9f0e37" y="90.422283"/>
     <use style="stroke:#000000;" x="95.239818" xlink:href="#m21ae9f0e37" y="78.658366"/>
     <use style="stroke:#000000;" x="109.547036" xlink:href="#m21ae9f0e37" y="67.997963"/>
     <use style="stroke:#000000;" x="123.854253" xlink:href="#m21ae9f0e37" y="60.539755"/>
     <use style="stroke:#000000;" x="138.161471" xlink:href="#m21ae9f0e37" y="54.134772"/>
    </g>
   </g>
   <g id="line2d_22">
    <path clip-path="url(#p42cc84ef46)" d="M 52.318165 120.512727 
L 66.625383 108.517291 
L 80.932601 95.217065 
L 95.239818 84.98068 
L 109.547036 76.071797 
L 123.854253 69.655606 
L 138.161471 64.738244 
" style="fill:none;stroke:#000000;stroke-linecap:square;stroke-width:2;"/>
   </g>
   <g id="patch_3">
    <path d="M 48.026 125.72 
L 48.026 11.16 
" style="fill:none;stroke:#000000;stroke-linecap:square;stroke-linejoin:miter;stroke-width:0.8;"/>
   </g>
   <g id="patch_4">
    <path d="M 48.026 125.72 
L 142.453636 125.72 
" style="fill:none;stroke:#000000;stroke-linecap:square;stroke-linejoin:miter;stroke-width:0.8;"/>
   </g>
  </g>
  <g id="axes_2">
   <g id="patch_5">
    <path d="M 195.356 125.72 
L 289.783636 125.72 
L 289.783636 11.16 
L 195.356 11.16 
z
" style="fill:#ffffff;"/>
   </g>
   <g id="line2d_23">
    <path clip-path="url(#pafed36f015)" d="M 199.648165 98.35125 
L 213.955383 96.241499 
L 228.262601 90.203738 
L 242.569818 91.585637 
L 256.877036 89.410343 
L 271.184253 85.320291 
L 285.491471 85.166266 
" style="fill:none;stroke:#ff7f0e;stroke-linecap:square;stroke-opacity:0.5;stroke-width:1.5;"/>
   </g>
   <g id="line2d_24">
    <path clip-path="url(#pafed36f015)" d="M 199.648165 98.35125 
L 213.955383 94.481608 
L 228.262601 92.327521 
L 242.569818 87.35968 
L 256.877036 88.602275 
L 271.184253 89.455038 
L 285.491471 89.836165 
" style="fill:none;stroke:#ff7f0e;stroke-linecap:square;stroke-opacity:0.5;stroke-width:1.5;"/>
   </g>
   <g id="line2d_25">
    <path clip-path="url(#pafed36f015)" d="M 199.648165 98.35125 
L 213.955383 96.682677 
L 228.262601 96.744663 
L 242.569818 96.448457 
L 256.877036 98.162403 
L 271.184253 98.582957 
L 285.491471 100.205436 
" style="fill:none;stroke:#ff7f0e;stroke-linecap:square;stroke-opacity:0.5;stroke-width:1.5;"/>
   </g>
   <g id="line2d_26">
    <path clip-path="url(#pafed36f015)" d="M 199.648165 98.35125 
L 213.955383 97.822236 
L 228.262601 97.186817 
L 242.569818 99.434954 
L 256.877036 99.468568 
L 271.184253 101.680649 
L 285.491471 103.784044 
" style="fill:none;stroke:#ff7f0e;stroke-linecap:square;stroke-opacity:0.5;stroke-width:1.5;"/>
   </g>
   <g id="line2d_27">
    <path clip-path="url(#pafed36f015)" d="M 199.648165 98.35125 
L 213.955383 81.259479 
L 228.262601 69.617935 
L 242.569818 64.015759 
L 256.877036 56.386722 
L 271.184253 59.216972 
L 285.491471 56.582536 
" style="fill:none;stroke:#ff7f0e;stroke-linecap:square;stroke-opacity:0.5;stroke-width:1.5;"/>
   </g>
   <g id="line2d_28">
    <path clip-path="url(#pafed36f015)" d="M 199.648165 98.35125 
L 213.955383 98.398638 
L 228.262601 99.31865 
L 242.569818 100.165025 
L 256.877036 101.466812 
L 271.184253 102.580281 
L 285.491471 104.572207 
" style="fill:none;stroke:#ff7f0e;stroke-linecap:square;stroke-opacity:0.5;stroke-width:1.5;"/>
   </g>
   <g id="line2d_29">
    <path clip-path="url(#pafed36f015)" d="M 199.648165 98.35125 
L 213.955383 95.264797 
L 228.262601 94.942353 
L 242.569818 94.777825 
L 256.877036 94.424339 
L 271.184253 95.347796 
L 285.491471 94.849218 
" style="fill:none;stroke:#ff7f0e;stroke-linecap:square;stroke-opacity:0.5;stroke-width:1.5;"/>
   </g>
   <g id="line2d_30">
    <path clip-path="url(#pafed36f015)" d="M 199.648165 98.35125 
L 213.955383 16.367273 
L 228.262601 23.715621 
L 242.569818 44.432309 
L 256.877036 60.952562 
L 271.184253 67.389859 
L 285.491471 76.115345 
" style="fill:none;stroke:#ff7f0e;stroke-linecap:square;stroke-opacity:0.5;stroke-width:1.5;"/>
   </g>
   <g id="line2d_31">
    <path clip-path="url(#pafed36f015)" d="M 199.648165 98.35125 
L 213.955383 98.751962 
L 228.262601 100.20323 
L 242.569818 100.227211 
L 256.877036 102.119051 
L 271.184253 103.359859 
L 285.491471 106.35359 
" style="fill:none;stroke:#ff7f0e;stroke-linecap:square;stroke-opacity:0.5;stroke-width:1.5;"/>
   </g>
   <g id="line2d_32">
    <path clip-path="url(#pafed36f015)" d="M 199.648165 98.35125 
L 213.955383 96.392163 
L 228.262601 95.571024 
L 242.569818 97.152509 
L 256.877036 99.198016 
L 271.184253 102.335745 
L 285.491471 104.412208 
" style="fill:none;stroke:#ff7f0e;stroke-linecap:square;stroke-opacity:0.5;stroke-width:1.5;"/>
   </g>
   <g id="line2d_33">
    <path clip-path="url(#pafed36f015)" d="M 199.648165 98.35125 
L 213.955383 96.266564 
L 228.262601 100.79318 
L 242.569818 105.491635 
L 256.877036 108.440455 
L 271.184253 112.40904 
L 285.491471 116.01834 
" style="fill:none;stroke:#ff7f0e;stroke-linecap:square;stroke-opacity:0.5;stroke-width:1.5;"/>
   </g>
   <g id="line2d_34">
    <path clip-path="url(#pafed36f015)" d="M 199.648165 98.35125 
L 213.955383 98.774293 
L 228.262601 97.971953 
L 242.569818 94.105665 
L 256.877036 100.152334 
L 271.184253 110.546748 
L 285.491471 120.512727 
" style="fill:none;stroke:#ff7f0e;stroke-linecap:square;stroke-opacity:0.5;stroke-width:1.5;"/>
   </g>
   <g id="line2d_35">
    <path clip-path="url(#pafed36f015)" d="M 199.648165 98.35125 
L 213.955383 97.761128 
L 228.262601 90.954179 
L 242.569818 91.239236 
L 256.877036 89.523851 
L 271.184253 94.450367 
L 285.491471 96.231875 
" style="fill:none;stroke:#ff7f0e;stroke-linecap:square;stroke-opacity:0.5;stroke-width:1.5;"/>
   </g>
   <g id="matplotlib.axis_3">
    <g id="xtick_8">
     <g id="line2d_36">
      <g>
       <use style="stroke:#000000;stroke-width:0.8;" x="199.648165" xlink:href="#mf0a4d13856" y="125.72"/>
      </g>
     </g>
    </g>
    <g id="xtick_9">
     <g id="line2d_37">
      <g>
       <use style="stroke:#000000;stroke-width:0.8;" x="213.955383" xlink:href="#mf0a4d13856" y="125.72"/>
      </g>
     </g>
    </g>
    <g id="xtick_10">
     <g id="line2d_38">
      <g>
       <use style="stroke:#000000;stroke-width:0.8;" x="228.262601" xlink:href="#mf0a4d13856" y="125.72"/>
      </g>
     </g>
    </g>
    <g id="xtick_11">
     <g id="line2d_39">
      <g>
       <use style="stroke:#000000;stroke-width:0.8;" x="242.569818" xlink:href="#mf0a4d13856" y="125.72"/>
      </g>
     </g>
    </g>
    <g id="xtick_12">
     <g id="line2d_40">
      <g>
       <use style="stroke:#000000;stroke-width:0.8;" x="256.877036" xlink:href="#mf0a4d13856" y="125.72"/>
      </g>
     </g>
    </g>
    <g id="xtick_13">
     <g id="line2d_41">
      <g>
       <use style="stroke:#000000;stroke-width:0.8;" x="271.184253" xlink:href="#mf0a4d13856" y="125.72"/>
      </g>
     </g>
    </g>
    <g id="xtick_14">
     <g id="line2d_42">
      <g>
       <use style="stroke:#000000;stroke-width:0.8;" x="285.491471" xlink:href="#mf0a4d13856" y="125.72"/>
      </g>
     </g>
    </g>
   </g>
   <g id="matplotlib.axis_4">
    <g id="ytick_6">
     <g id="line2d_43">
      <g>
       <use style="stroke:#000000;stroke-width:0.8;" x="195.356" xlink:href="#m9c024f91f9" y="117.404852"/>
      </g>
     </g>
     <g id="text_7">
      <!-- 0.8 -->
      <defs>
       <path d="M 31.78125 34.625 
Q 24.75 34.625 20.71875 30.859375 
Q 16.703125 27.09375 16.703125 20.515625 
Q 16.703125 13.921875 20.71875 10.15625 
Q 24.75 6.390625 31.78125 6.390625 
Q 38.8125 6.390625 42.859375 10.171875 
Q 46.921875 13.96875 46.921875 20.515625 
Q 46.921875 27.09375 42.890625 30.859375 
Q 38.875 34.625 31.78125 34.625 
z
M 21.921875 38.8125 
Q 15.578125 40.375 12.03125 44.71875 
Q 8.5 49.078125 8.5 55.328125 
Q 8.5 64.0625 14.71875 69.140625 
Q 20.953125 74.21875 31.78125 74.21875 
Q 42.671875 74.21875 48.875 69.140625 
Q 55.078125 64.0625 55.078125 55.328125 
Q 55.078125 49.078125 51.53125 44.71875 
Q 48 40.375 41.703125 38.8125 
Q 48.828125 37.15625 52.796875 32.3125 
Q 56.78125 27.484375 56.78125 20.515625 
Q 56.78125 9.90625 50.3125 4.234375 
Q 43.84375 -1.421875 31.78125 -1.421875 
Q 19.734375 -1.421875 13.25 4.234375 
Q 6.78125 9.90625 6.78125 20.515625 
Q 6.78125 27.484375 10.78125 32.3125 
Q 14.796875 37.15625 21.921875 38.8125 
z
M 18.3125 54.390625 
Q 18.3125 48.734375 21.84375 45.5625 
Q 25.390625 42.390625 31.78125 42.390625 
Q 38.140625 42.390625 41.71875 45.5625 
Q 45.3125 48.734375 45.3125 54.390625 
Q 45.3125 60.0625 41.71875 63.234375 
Q 38.140625 66.40625 31.78125 66.40625 
Q 25.390625 66.40625 21.84375 63.234375 
Q 18.3125 60.0625 18.3125 54.390625 
z
" id="DejaVuSans-56"/>
      </defs>
      <g transform="translate(175.6335 120.444227)scale(0.08 -0.08)">
       <use xlink:href="#DejaVuSans-48"/>
       <use x="63.623047" xlink:href="#DejaVuSans-46"/>
       <use x="95.410156" xlink:href="#DejaVuSans-56"/>
      </g>
     </g>
    </g>
    <g id="ytick_7">
     <g id="line2d_44">
      <g>
       <use style="stroke:#000000;stroke-width:0.8;" x="195.356" xlink:href="#m9c024f91f9" y="98.35125"/>
      </g>
     </g>
     <g id="text_8">
      <!-- 1.0 -->
      <g transform="translate(175.6335 101.390625)scale(0.08 -0.08)">
       <use xlink:href="#DejaVuSans-49"/>
       <use x="63.623047" xlink:href="#DejaVuSans-46"/>
       <use x="95.410156" xlink:href="#DejaVuSans-48"/>
      </g>
     </g>
    </g>
    <g id="ytick_8">
     <g id="line2d_45">
      <g>
       <use style="stroke:#000000;stroke-width:0.8;" x="195.356" xlink:href="#m9c024f91f9" y="79.297648"/>
      </g>
     </g>
     <g id="text_9">
      <!-- 1.2 -->
      <g transform="translate(175.6335 82.337023)scale(0.08 -0.08)">
       <use xlink:href="#DejaVuSans-49"/>
       <use x="63.623047" xlink:href="#DejaVuSans-46"/>
       <use x="95.410156" xlink:href="#DejaVuSans-50"/>
      </g>
     </g>
    </g>
    <g id="ytick_9">
     <g id="line2d_46">
      <g>
       <use style="stroke:#000000;stroke-width:0.8;" x="195.356" xlink:href="#m9c024f91f9" y="60.244047"/>
      </g>
     </g>
     <g id="text_10">
      <!-- 1.4 -->
      <defs>
       <path d="M 37.796875 64.3125 
L 12.890625 25.390625 
L 37.796875 25.390625 
z
M 35.203125 72.90625 
L 47.609375 72.90625 
L 47.609375 25.390625 
L 58.015625 25.390625 
L 58.015625 17.1875 
L 47.609375 17.1875 
L 47.609375 0 
L 37.796875 0 
L 37.796875 17.1875 
L 4.890625 17.1875 
L 4.890625 26.703125 
z
" id="DejaVuSans-52"/>
      </defs>
      <g transform="translate(175.6335 63.283422)scale(0.08 -0.08)">
       <use xlink:href="#DejaVuSans-49"/>
       <use x="63.623047" xlink:href="#DejaVuSans-46"/>
       <use x="95.410156" xlink:href="#DejaVuSans-52"/>
      </g>
     </g>
    </g>
    <g id="ytick_10">
     <g id="line2d_47">
      <g>
       <use style="stroke:#000000;stroke-width:0.8;" x="195.356" xlink:href="#m9c024f91f9" y="41.190445"/>
      </g>
     </g>
     <g id="text_11">
      <!-- 1.6 -->
      <defs>
       <path d="M 33.015625 40.375 
Q 26.375 40.375 22.484375 35.828125 
Q 18.609375 31.296875 18.609375 23.390625 
Q 18.609375 15.53125 22.484375 10.953125 
Q 26.375 6.390625 33.015625 6.390625 
Q 39.65625 6.390625 43.53125 10.953125 
Q 47.40625 15.53125 47.40625 23.390625 
Q 47.40625 31.296875 43.53125 35.828125 
Q 39.65625 40.375 33.015625 40.375 
z
M 52.59375 71.296875 
L 52.59375 62.3125 
Q 48.875 64.0625 45.09375 64.984375 
Q 41.3125 65.921875 37.59375 65.921875 
Q 27.828125 65.921875 22.671875 59.328125 
Q 17.53125 52.734375 16.796875 39.40625 
Q 19.671875 43.65625 24.015625 45.921875 
Q 28.375 48.1875 33.59375 48.1875 
Q 44.578125 48.1875 50.953125 41.515625 
Q 57.328125 34.859375 57.328125 23.390625 
Q 57.328125 12.15625 50.6875 5.359375 
Q 44.046875 -1.421875 33.015625 -1.421875 
Q 20.359375 -1.421875 13.671875 8.265625 
Q 6.984375 17.96875 6.984375 36.375 
Q 6.984375 53.65625 15.1875 63.9375 
Q 23.390625 74.21875 37.203125 74.21875 
Q 40.921875 74.21875 44.703125 73.484375 
Q 48.484375 72.75 52.59375 71.296875 
z
" id="DejaVuSans-54"/>
      </defs>
      <g transform="translate(175.6335 44.22982)scale(0.08 -0.08)">
       <use xlink:href="#DejaVuSans-49"/>
       <use x="63.623047" xlink:href="#DejaVuSans-46"/>
       <use x="95.410156" xlink:href="#DejaVuSans-54"/>
      </g>
     </g>
    </g>
    <g id="ytick_11">
     <g id="line2d_48">
      <g>
       <use style="stroke:#000000;stroke-width:0.8;" x="195.356" xlink:href="#m9c024f91f9" y="22.136843"/>
      </g>
     </g>
     <g id="text_12">
      <!-- 1.8 -->
      <g transform="translate(175.6335 25.176218)scale(0.08 -0.08)">
       <use xlink:href="#DejaVuSans-49"/>
       <use x="63.623047" xlink:href="#DejaVuSans-46"/>
       <use x="95.410156" xlink:href="#DejaVuSans-56"/>
      </g>
     </g>
    </g>
    <g id="text_13">
     <!-- $d'^2$ (normalized) -->
     <g transform="translate(169.96975 100.8)rotate(-90)scale(0.08 -0.08)">
      <use transform="translate(0 0.765625)" xlink:href="#DejaVuSans-Oblique-100"/>
      <use transform="translate(70.924271 39.046875)scale(0.7)" xlink:href="#Cmsy10-48"/>
      <use transform="translate(93.858841 39.046875)scale(0.7)" xlink:href="#DejaVuSans-50"/>
      <use transform="translate(141.129349 0.765625)" xlink:href="#DejaVuSans-32"/>
      <use transform="translate(172.916458 0.765625)" xlink:href="#DejaVuSans-40"/>
      <use transform="translate(211.93013 0.765625)" xlink:href="#DejaVuSans-110"/>
      <use transform="translate(275.309036 0.765625)" xlink:href="#DejaVuSans-111"/>
      <use transform="translate(336.490677 0.765625)" xlink:href="#DejaVuSans-114"/>
      <use transform="translate(377.603958 0.765625)" xlink:href="#DejaVuSans-109"/>
      <use transform="translate(475.016068 0.765625)" xlink:href="#DejaVuSans-97"/>
      <use transform="translate(536.295365 0.765625)" xlink:href="#DejaVuSans-108"/>
      <use transform="translate(564.078568 0.765625)" xlink:href="#DejaVuSans-105"/>
      <use transform="translate(591.861771 0.765625)" xlink:href="#DejaVuSans-122"/>
      <use transform="translate(644.352005 0.765625)" xlink:href="#DejaVuSans-101"/>
      <use transform="translate(705.875443 0.765625)" xlink:href="#DejaVuSans-100"/>
      <use transform="translate(769.352005 0.765625)" xlink:href="#DejaVuSans-41"/>
     </g>
    </g>
   </g>
   <g id="LineCollection_2">
    <path clip-path="url(#pafed36f015)" d="M 199.648165 98.35125 
L 199.648165 98.35125 
" style="fill:none;stroke:#000000;stroke-width:2;"/>
    <path clip-path="url(#pafed36f015)" d="M 213.955383 95.558821 
L 213.955383 83.589515 
" style="fill:none;stroke:#000000;stroke-width:2;"/>
    <path clip-path="url(#pafed36f015)" d="M 228.262601 94.030691 
L 228.262601 82.823293 
" style="fill:none;stroke:#000000;stroke-width:2;"/>
    <path clip-path="url(#pafed36f015)" d="M 242.569818 94.231582 
L 242.569818 85.220095 
" style="fill:none;stroke:#000000;stroke-width:2;"/>
    <path clip-path="url(#pafed36f015)" d="M 256.877036 95.573721 
L 256.877036 87.242849 
" style="fill:none;stroke:#000000;stroke-width:2;"/>
    <path clip-path="url(#pafed36f015)" d="M 271.184253 98.222396 
L 271.184253 89.88153 
" style="fill:none;stroke:#000000;stroke-width:2;"/>
    <path clip-path="url(#pafed36f015)" d="M 285.491471 101.018357 
L 285.491471 92.003167 
" style="fill:none;stroke:#000000;stroke-width:2;"/>
   </g>
   <g id="line2d_49">
    <g clip-path="url(#pafed36f015)">
     <use style="stroke:#000000;" x="199.648165" xlink:href="#m21ae9f0e37" y="98.35125"/>
     <use style="stroke:#000000;" x="213.955383" xlink:href="#m21ae9f0e37" y="95.558821"/>
     <use style="stroke:#000000;" x="228.262601" xlink:href="#m21ae9f0e37" y="94.030691"/>
     <use style="stroke:#000000;" x="242.569818" xlink:href="#m21ae9f0e37" y="94.231582"/>
     <use style="stroke:#000000;" x="256.877036" xlink:href="#m21ae9f0e37" y="95.573721"/>
     <use style="stroke:#000000;" x="271.184253" xlink:href="#m21ae9f0e37" y="98.222396"/>
     <use style="stroke:#000000;" x="285.491471" xlink:href="#m21ae9f0e37" y="101.018357"/>
    </g>
   </g>
   <g id="line2d_50">
    <g clip-path="url(#pafed36f015)">
     <use style="stroke:#000000;" x="199.648165" xlink:href="#m21ae9f0e37" y="98.35125"/>
     <use style="stroke:#000000;" x="213.955383" xlink:href="#m21ae9f0e37" y="83.589515"/>
     <use style="stroke:#000000;" x="228.262601" xlink:href="#m21ae9f0e37" y="82.823293"/>
     <use style="stroke:#000000;" x="242.569818" xlink:href="#m21ae9f0e37" y="85.220095"/>
     <use style="stroke:#000000;" x="256.877036" xlink:href="#m21ae9f0e37" y="87.242849"/>
     <use style="stroke:#000000;" x="271.184253" xlink:href="#m21ae9f0e37" y="89.88153"/>
     <use style="stroke:#000000;" x="285.491471" xlink:href="#m21ae9f0e37" y="92.003167"/>
    </g>
   </g>
   <g id="line2d_51">
    <path clip-path="url(#pafed36f015)" d="M 199.648165 98.35125 
L 213.955383 89.574168 
L 228.262601 88.426992 
L 242.569818 89.725839 
L 256.877036 91.408285 
L 271.184253 94.051963 
L 285.491471 96.510762 
" style="fill:none;stroke:#000000;stroke-linecap:square;stroke-width:2;"/>
   </g>
   <g id="patch_6">
    <path d="M 195.356 125.72 
L 195.356 11.16 
" style="fill:none;stroke:#000000;stroke-linecap:square;stroke-linejoin:miter;stroke-width:0.8;"/>
   </g>
   <g id="patch_7">
    <path d="M 195.356 125.72 
L 289.783636 125.72 
" style="fill:none;stroke:#000000;stroke-linecap:square;stroke-linejoin:miter;stroke-width:0.8;"/>
   </g>
  </g>
  <g id="axes_3">
   <g id="patch_8">
    <path d="M 48.026 253.96 
L 142.453636 253.96 
L 142.453636 139.4 
L 48.026 139.4 
z
" style="fill:#ffffff;"/>
   </g>
   <g id="line2d_52">
    <path clip-path="url(#p9d51e9004a)" d="M 52.318165 144.607273 
L 66.625383 145.288292 
L 80.932601 149.880215 
L 95.239818 151.612488 
L 109.547036 152.517161 
L 123.854253 153.651539 
L 138.161471 155.478697 
" style="fill:none;stroke:#1f77b4;stroke-linecap:square;stroke-opacity:0.5;stroke-width:1.5;"/>
   </g>
   <g id="line2d_53">
    <path clip-path="url(#p9d51e9004a)" d="M 52.318165 187.870204 
L 66.625383 189.255096 
L 80.932601 190.268293 
L 95.239818 191.078216 
L 109.547036 192.026098 
L 123.854253 192.787115 
L 138.161471 193.866226 
" style="fill:none;stroke:#1f77b4;stroke-linecap:square;stroke-opacity:0.5;stroke-width:1.5;"/>
   </g>
   <g id="line2d_54">
    <path clip-path="url(#p9d51e9004a)" d="M 52.318165 244.616923 
L 66.625383 245.200396 
L 80.932601 247.99652 
L 95.239818 248.752727 
L 109.547036 248.267732 
L 123.854253 247.844036 
L 138.161471 248.044555 
" style="fill:none;stroke:#1f77b4;stroke-linecap:square;stroke-opacity:0.5;stroke-width:1.5;"/>
   </g>
   <g id="line2d_55">
    <path clip-path="url(#p9d51e9004a)" d="M 52.318165 237.612208 
L 66.625383 235.161554 
L 80.932601 232.2088 
L 95.239818 231.706534 
L 109.547036 232.343699 
L 123.854253 232.894458 
L 138.161471 234.383281 
" style="fill:none;stroke:#1f77b4;stroke-linecap:square;stroke-opacity:0.5;stroke-width:1.5;"/>
   </g>
   <g id="line2d_56">
    <path clip-path="url(#p9d51e9004a)" d="M 52.318165 233.979988 
L 66.625383 236.7822 
L 80.932601 236.892588 
L 95.239818 238.001737 
L 109.547036 237.54308 
L 123.854253 238.483415 
L 138.161471 238.504335 
" style="fill:none;stroke:#1f77b4;stroke-linecap:square;stroke-opacity:0.5;stroke-width:1.5;"/>
   </g>
   <g id="line2d_57">
    <path clip-path="url(#p9d51e9004a)" d="M 52.318165 212.352724 
L 66.625383 212.860113 
L 80.932601 212.69878 
L 95.239818 213.298521 
L 109.547036 214.783089 
L 123.854253 215.923918 
L 138.161471 217.529592 
" style="fill:none;stroke:#1f77b4;stroke-linecap:square;stroke-opacity:0.5;stroke-width:1.5;"/>
   </g>
   <g id="line2d_58">
    <path clip-path="url(#p9d51e9004a)" d="M 52.318165 187.205262 
L 66.625383 188.561719 
L 80.932601 190.84109 
L 95.239818 191.025702 
L 109.547036 191.33595 
L 123.854253 191.804862 
L 138.161471 193.104672 
" style="fill:none;stroke:#1f77b4;stroke-linecap:square;stroke-opacity:0.5;stroke-width:1.5;"/>
   </g>
   <g id="matplotlib.axis_5">
    <g id="xtick_15">
     <g id="line2d_59">
      <g>
       <use style="stroke:#000000;stroke-width:0.8;" x="52.318165" xlink:href="#mf0a4d13856" y="253.96"/>
      </g>
     </g>
     <g id="text_14">
      <!-- 1 -->
      <g transform="translate(49.773165 267.03875)scale(0.08 -0.08)">
       <use xlink:href="#DejaVuSans-49"/>
      </g>
     </g>
    </g>
    <g id="xtick_16">
     <g id="line2d_60">
      <g>
       <use style="stroke:#000000;stroke-width:0.8;" x="66.625383" xlink:href="#mf0a4d13856" y="253.96"/>
      </g>
     </g>
     <g id="text_15">
      <!-- 2 -->
      <g transform="translate(64.080383 267.03875)scale(0.08 -0.08)">
       <use xlink:href="#DejaVuSans-50"/>
      </g>
     </g>
    </g>
    <g id="xtick_17">
     <g id="line2d_61">
      <g>
       <use style="stroke:#000000;stroke-width:0.8;" x="80.932601" xlink:href="#mf0a4d13856" y="253.96"/>
      </g>
     </g>
     <g id="text_16">
      <!-- 3 -->
      <defs>
       <path d="M 40.578125 39.3125 
Q 47.65625 37.796875 51.625 33 
Q 55.609375 28.21875 55.609375 21.1875 
Q 55.609375 10.40625 48.1875 4.484375 
Q 40.765625 -1.421875 27.09375 -1.421875 
Q 22.515625 -1.421875 17.65625 -0.515625 
Q 12.796875 0.390625 7.625 2.203125 
L 7.625 11.71875 
Q 11.71875 9.328125 16.59375 8.109375 
Q 21.484375 6.890625 26.8125 6.890625 
Q 36.078125 6.890625 40.9375 10.546875 
Q 45.796875 14.203125 45.796875 21.1875 
Q 45.796875 27.640625 41.28125 31.265625 
Q 36.765625 34.90625 28.71875 34.90625 
L 20.21875 34.90625 
L 20.21875 43.015625 
L 29.109375 43.015625 
Q 36.375 43.015625 40.234375 45.921875 
Q 44.09375 48.828125 44.09375 54.296875 
Q 44.09375 59.90625 40.109375 62.90625 
Q 36.140625 65.921875 28.71875 65.921875 
Q 24.65625 65.921875 20.015625 65.03125 
Q 15.375 64.15625 9.8125 62.3125 
L 9.8125 71.09375 
Q 15.4375 72.65625 20.34375 73.4375 
Q 25.25 74.21875 29.59375 74.21875 
Q 40.828125 74.21875 47.359375 69.109375 
Q 53.90625 64.015625 53.90625 55.328125 
Q 53.90625 49.265625 50.4375 45.09375 
Q 46.96875 40.921875 40.578125 39.3125 
z
" id="DejaVuSans-51"/>
      </defs>
      <g transform="translate(78.387601 267.03875)scale(0.08 -0.08)">
       <use xlink:href="#DejaVuSans-51"/>
      </g>
     </g>
    </g>
    <g id="xtick_18">
     <g id="line2d_62">
      <g>
       <use style="stroke:#000000;stroke-width:0.8;" x="95.239818" xlink:href="#mf0a4d13856" y="253.96"/>
      </g>
     </g>
     <g id="text_17">
      <!-- 4 -->
      <g transform="translate(92.694818 267.03875)scale(0.08 -0.08)">
       <use xlink:href="#DejaVuSans-52"/>
      </g>
     </g>
    </g>
    <g id="xtick_19">
     <g id="line2d_63">
      <g>
       <use style="stroke:#000000;stroke-width:0.8;" x="109.547036" xlink:href="#mf0a4d13856" y="253.96"/>
      </g>
     </g>
     <g id="text_18">
      <!-- 5 -->
      <g transform="translate(107.002036 267.03875)scale(0.08 -0.08)">
       <use xlink:href="#DejaVuSans-53"/>
      </g>
     </g>
    </g>
    <g id="xtick_20">
     <g id="line2d_64">
      <g>
       <use style="stroke:#000000;stroke-width:0.8;" x="123.854253" xlink:href="#mf0a4d13856" y="253.96"/>
      </g>
     </g>
     <g id="text_19">
      <!-- 6 -->
      <g transform="translate(121.309253 267.03875)scale(0.08 -0.08)">
       <use xlink:href="#DejaVuSans-54"/>
      </g>
     </g>
    </g>
    <g id="xtick_21">
     <g id="line2d_65">
      <g>
       <use style="stroke:#000000;stroke-width:0.8;" x="138.161471" xlink:href="#mf0a4d13856" y="253.96"/>
      </g>
     </g>
     <g id="text_20">
      <!-- 7 -->
      <defs>
       <path d="M 8.203125 72.90625 
L 55.078125 72.90625 
L 55.078125 68.703125 
L 28.609375 0 
L 18.3125 0 
L 43.21875 64.59375 
L 8.203125 64.59375 
z
" id="DejaVuSans-55"/>
      </defs>
      <g transform="translate(135.616471 267.03875)scale(0.08 -0.08)">
       <use xlink:href="#DejaVuSans-55"/>
      </g>
     </g>
    </g>
    <g id="text_21">
     <!-- Number of noise dimensions -->
     <defs>
      <path d="M 9.8125 72.90625 
L 23.09375 72.90625 
L 55.421875 11.921875 
L 55.421875 72.90625 
L 64.984375 72.90625 
L 64.984375 0 
L 51.703125 0 
L 19.390625 60.984375 
L 19.390625 0 
L 9.8125 0 
z
" id="DejaVuSans-78"/>
      <path d="M 8.5 21.578125 
L 8.5 54.6875 
L 17.484375 54.6875 
L 17.484375 21.921875 
Q 17.484375 14.15625 20.5 10.265625 
Q 23.53125 6.390625 29.59375 6.390625 
Q 36.859375 6.390625 41.078125 11.03125 
Q 45.3125 15.671875 45.3125 23.6875 
L 45.3125 54.6875 
L 54.296875 54.6875 
L 54.296875 0 
L 45.3125 0 
L 45.3125 8.40625 
Q 42.046875 3.421875 37.71875 1 
Q 33.40625 -1.421875 27.6875 -1.421875 
Q 18.265625 -1.421875 13.375 4.4375 
Q 8.5 10.296875 8.5 21.578125 
z
M 31.109375 56 
z
" id="DejaVuSans-117"/>
      <path d="M 48.6875 27.296875 
Q 48.6875 37.203125 44.609375 42.84375 
Q 40.53125 48.484375 33.40625 48.484375 
Q 26.265625 48.484375 22.1875 42.84375 
Q 18.109375 37.203125 18.109375 27.296875 
Q 18.109375 17.390625 22.1875 11.75 
Q 26.265625 6.109375 33.40625 6.109375 
Q 40.53125 6.109375 44.609375 11.75 
Q 48.6875 17.390625 48.6875 27.296875 
z
M 18.109375 46.390625 
Q 20.953125 51.265625 25.265625 53.625 
Q 29.59375 56 35.59375 56 
Q 45.5625 56 51.78125 48.09375 
Q 58.015625 40.1875 58.015625 27.296875 
Q 58.015625 14.40625 51.78125 6.484375 
Q 45.5625 -1.421875 35.59375 -1.421875 
Q 29.59375 -1.421875 25.265625 0.953125 
Q 20.953125 3.328125 18.109375 8.203125 
L 18.109375 0 
L 9.078125 0 
L 9.078125 75.984375 
L 18.109375 75.984375 
z
" id="DejaVuSans-98"/>
      <path d="M 37.109375 75.984375 
L 37.109375 68.5 
L 28.515625 68.5 
Q 23.6875 68.5 21.796875 66.546875 
Q 19.921875 64.59375 19.921875 59.515625 
L 19.921875 54.6875 
L 34.71875 54.6875 
L 34.71875 47.703125 
L 19.921875 47.703125 
L 19.921875 0 
L 10.890625 0 
L 10.890625 47.703125 
L 2.296875 47.703125 
L 2.296875 54.6875 
L 10.890625 54.6875 
L 10.890625 58.5 
Q 10.890625 67.625 15.140625 71.796875 
Q 19.390625 75.984375 28.609375 75.984375 
z
" id="DejaVuSans-102"/>
      <path d="M 44.28125 53.078125 
L 44.28125 44.578125 
Q 40.484375 46.53125 36.375 47.5 
Q 32.28125 48.484375 27.875 48.484375 
Q 21.1875 48.484375 17.84375 46.4375 
Q 14.5 44.390625 14.5 40.28125 
Q 14.5 37.15625 16.890625 35.375 
Q 19.28125 33.59375 26.515625 31.984375 
L 29.59375 31.296875 
Q 39.15625 29.25 43.1875 25.515625 
Q 47.21875 21.78125 47.21875 15.09375 
Q 47.21875 7.46875 41.1875 3.015625 
Q 35.15625 -1.421875 24.609375 -1.421875 
Q 20.21875 -1.421875 15.453125 -0.5625 
Q 10.6875 0.296875 5.421875 2 
L 5.421875 11.28125 
Q 10.40625 8.6875 15.234375 7.390625 
Q 20.0625 6.109375 24.8125 6.109375 
Q 31.15625 6.109375 34.5625 8.28125 
Q 37.984375 10.453125 37.984375 14.40625 
Q 37.984375 18.0625 35.515625 20.015625 
Q 33.0625 21.96875 24.703125 23.78125 
L 21.578125 24.515625 
Q 13.234375 26.265625 9.515625 29.90625 
Q 5.8125 33.546875 5.8125 39.890625 
Q 5.8125 47.609375 11.28125 51.796875 
Q 16.75 56 26.8125 56 
Q 31.78125 56 36.171875 55.265625 
Q 40.578125 54.546875 44.28125 53.078125 
z
" id="DejaVuSans-115"/>
     </defs>
     <g transform="translate(38.058568 278.78125)scale(0.08 -0.08)">
      <use xlink:href="#DejaVuSans-78"/>
      <use x="74.804688" xlink:href="#DejaVuSans-117"/>
      <use x="138.183594" xlink:href="#DejaVuSans-109"/>
      <use x="235.595703" xlink:href="#DejaVuSans-98"/>
      <use x="299.072266" xlink:href="#DejaVuSans-101"/>
      <use x="360.595703" xlink:href="#DejaVuSans-114"/>
      <use x="401.708984" xlink:href="#DejaVuSans-32"/>
      <use x="433.496094" xlink:href="#DejaVuSans-111"/>
      <use x="494.677734" xlink:href="#DejaVuSans-102"/>
      <use x="529.882812" xlink:href="#DejaVuSans-32"/>
      <use x="561.669922" xlink:href="#DejaVuSans-110"/>
      <use x="625.048828" xlink:href="#DejaVuSans-111"/>
      <use x="686.230469" xlink:href="#DejaVuSans-105"/>
      <use x="714.013672" xlink:href="#DejaVuSans-115"/>
      <use x="766.113281" xlink:href="#DejaVuSans-101"/>
      <use x="827.636719" xlink:href="#DejaVuSans-32"/>
      <use x="859.423828" xlink:href="#DejaVuSans-100"/>
      <use x="922.900391" xlink:href="#DejaVuSans-105"/>
      <use x="950.683594" xlink:href="#DejaVuSans-109"/>
      <use x="1048.095703" xlink:href="#DejaVuSans-101"/>
      <use x="1109.619141" xlink:href="#DejaVuSans-110"/>
      <use x="1172.998047" xlink:href="#DejaVuSans-115"/>
      <use x="1225.097656" xlink:href="#DejaVuSans-105"/>
      <use x="1252.880859" xlink:href="#DejaVuSans-111"/>
      <use x="1314.0625" xlink:href="#DejaVuSans-110"/>
      <use x="1377.441406" xlink:href="#DejaVuSans-115"/>
     </g>
    </g>
   </g>
   <g id="matplotlib.axis_6">
    <g id="ytick_12">
     <g id="line2d_66">
      <g>
       <use style="stroke:#000000;stroke-width:0.8;" x="48.026" xlink:href="#m9c024f91f9" y="248.802693"/>
      </g>
     </g>
     <g id="text_22">
      <!-- 0.0 -->
      <g transform="translate(28.3035 251.842068)scale(0.08 -0.08)">
       <use xlink:href="#DejaVuSans-48"/>
       <use x="63.623047" xlink:href="#DejaVuSans-46"/>
       <use x="95.410156" xlink:href="#DejaVuSans-48"/>
      </g>
     </g>
    </g>
    <g id="ytick_13">
     <g id="line2d_67">
      <g>
       <use style="stroke:#000000;stroke-width:0.8;" x="48.026" xlink:href="#m9c024f91f9" y="223.095978"/>
      </g>
     </g>
     <g id="text_23">
      <!-- 0.1 -->
      <g transform="translate(28.3035 226.135353)scale(0.08 -0.08)">
       <use xlink:href="#DejaVuSans-48"/>
       <use x="63.623047" xlink:href="#DejaVuSans-46"/>
       <use x="95.410156" xlink:href="#DejaVuSans-49"/>
      </g>
     </g>
    </g>
    <g id="ytick_14">
     <g id="line2d_68">
      <g>
       <use style="stroke:#000000;stroke-width:0.8;" x="48.026" xlink:href="#m9c024f91f9" y="197.389263"/>
      </g>
     </g>
     <g id="text_24">
      <!-- 0.2 -->
      <g transform="translate(28.3035 200.428638)scale(0.08 -0.08)">
       <use xlink:href="#DejaVuSans-48"/>
       <use x="63.623047" xlink:href="#DejaVuSans-46"/>
       <use x="95.410156" xlink:href="#DejaVuSans-50"/>
      </g>
     </g>
    </g>
    <g id="ytick_15">
     <g id="line2d_69">
      <g>
       <use style="stroke:#000000;stroke-width:0.8;" x="48.026" xlink:href="#m9c024f91f9" y="171.682548"/>
      </g>
     </g>
     <g id="text_25">
      <!-- 0.3 -->
      <g transform="translate(28.3035 174.721923)scale(0.08 -0.08)">
       <use xlink:href="#DejaVuSans-48"/>
       <use x="63.623047" xlink:href="#DejaVuSans-46"/>
       <use x="95.410156" xlink:href="#DejaVuSans-51"/>
      </g>
     </g>
    </g>
    <g id="ytick_16">
     <g id="line2d_70">
      <g>
       <use style="stroke:#000000;stroke-width:0.8;" x="48.026" xlink:href="#m9c024f91f9" y="145.975832"/>
      </g>
     </g>
     <g id="text_26">
      <!-- 0.4 -->
      <g transform="translate(28.3035 149.015207)scale(0.08 -0.08)">
       <use xlink:href="#DejaVuSans-48"/>
       <use x="63.623047" xlink:href="#DejaVuSans-46"/>
       <use x="95.410156" xlink:href="#DejaVuSans-52"/>
      </g>
     </g>
    </g>
    <g id="text_27">
     <!-- $\Delta d'^2$ -->
     <defs>
      <path d="M 34.1875 63.1875 
L 14.15625 8.203125 
L 54.25 8.203125 
z
M 0.78125 0 
L 28.609375 72.90625 
L 39.796875 72.90625 
L 67.578125 0 
z
" id="DejaVuSans-916"/>
     </defs>
     <g transform="translate(22.63975 205.08)rotate(-90)scale(0.08 -0.08)">
      <use transform="translate(0 0.765625)" xlink:href="#DejaVuSans-916"/>
      <use transform="translate(68.408203 0.765625)" xlink:href="#DejaVuSans-Oblique-100"/>
      <use transform="translate(139.332474 39.046875)scale(0.7)" xlink:href="#Cmsy10-48"/>
      <use transform="translate(162.267044 39.046875)scale(0.7)" xlink:href="#DejaVuSans-50"/>
     </g>
    </g>
   </g>
   <g id="LineCollection_3">
    <path clip-path="url(#p9d51e9004a)" d="M 52.318165 219.475895 
L 52.318165 194.308269 
" style="fill:none;stroke:#000000;stroke-width:2;"/>
    <path clip-path="url(#p9d51e9004a)" d="M 66.625383 220.06923 
L 66.625383 195.104865 
" style="fill:none;stroke:#000000;stroke-width:2;"/>
    <path clip-path="url(#p9d51e9004a)" d="M 80.932601 220.658328 
L 80.932601 196.709185 
" style="fill:none;stroke:#000000;stroke-width:2;"/>
    <path clip-path="url(#p9d51e9004a)" d="M 95.239818 221.21357 
L 95.239818 197.493841 
" style="fill:none;stroke:#000000;stroke-width:2;"/>
    <path clip-path="url(#p9d51e9004a)" d="M 109.547036 221.542333 
L 109.547036 198.119608 
" style="fill:none;stroke:#000000;stroke-width:2;"/>
    <path clip-path="url(#p9d51e9004a)" d="M 123.854253 222.093108 
L 123.854253 198.875278 
" style="fill:none;stroke:#000000;stroke-width:2;"/>
    <path clip-path="url(#p9d51e9004a)" d="M 138.161471 222.998441 
L 138.161471 200.119093 
" style="fill:none;stroke:#000000;stroke-width:2;"/>
   </g>
   <g id="line2d_71">
    <g clip-path="url(#p9d51e9004a)">
     <use style="stroke:#000000;" x="52.318165" xlink:href="#m21ae9f0e37" y="219.475895"/>
     <use style="stroke:#000000;" x="66.625383" xlink:href="#m21ae9f0e37" y="220.06923"/>
     <use style="stroke:#000000;" x="80.932601" xlink:href="#m21ae9f0e37" y="220.658328"/>
     <use style="stroke:#000000;" x="95.239818" xlink:href="#m21ae9f0e37" y="221.21357"/>
     <use style="stroke:#000000;" x="109.547036" xlink:href="#m21ae9f0e37" y="221.542333"/>
     <use style="stroke:#000000;" x="123.854253" xlink:href="#m21ae9f0e37" y="222.093108"/>
     <use style="stroke:#000000;" x="138.161471" xlink:href="#m21ae9f0e37" y="222.998441"/>
    </g>
   </g>
   <g id="line2d_72">
    <g clip-path="url(#p9d51e9004a)">
     <use style="stroke:#000000;" x="52.318165" xlink:href="#m21ae9f0e37" y="194.308269"/>
     <use style="stroke:#000000;" x="66.625383" xlink:href="#m21ae9f0e37" y="195.104865"/>
     <use style="stroke:#000000;" x="80.932601" xlink:href="#m21ae9f0e37" y="196.709185"/>
     <use style="stroke:#000000;" x="95.239818" xlink:href="#m21ae9f0e37" y="197.493841"/>
     <use style="stroke:#000000;" x="109.547036" xlink:href="#m21ae9f0e37" y="198.119608"/>
     <use style="stroke:#000000;" x="123.854253" xlink:href="#m21ae9f0e37" y="198.875278"/>
     <use style="stroke:#000000;" x="138.161471" xlink:href="#m21ae9f0e37" y="200.119093"/>
    </g>
   </g>
   <g id="line2d_73">
    <path clip-path="url(#p9d51e9004a)" d="M 52.318165 206.892082 
L 66.625383 207.587048 
L 80.932601 208.683757 
L 95.239818 209.353705 
L 109.547036 209.830971 
L 123.854253 210.484192 
L 138.161471 211.558767 
" style="fill:none;stroke:#000000;stroke-linecap:square;stroke-width:2;"/>
   </g>
   <g id="patch_9">
    <path d="M 48.026 253.96 
L 48.026 139.4 
" style="fill:none;stroke:#000000;stroke-linecap:square;stroke-linejoin:miter;stroke-width:0.8;"/>
   </g>
   <g id="patch_10">
    <path d="M 48.026 253.96 
L 142.453636 253.96 
" style="fill:none;stroke:#000000;stroke-linecap:square;stroke-linejoin:miter;stroke-width:0.8;"/>
   </g>
  </g>
  <g id="axes_4">
   <g id="patch_11">
    <path d="M 195.356 253.96 
L 289.783636 253.96 
L 289.783636 139.4 
L 195.356 139.4 
z
" style="fill:#ffffff;"/>
   </g>
   <g id="line2d_74">
    <path clip-path="url(#p7ef7121ef8)" d="M 199.648165 196.261176 
L 213.955383 210.248974 
L 228.262601 227.818328 
L 242.569818 223.188311 
L 256.877036 218.707858 
L 271.184253 217.718692 
L 285.491471 218.500192 
" style="fill:none;stroke:#ff7f0e;stroke-linecap:square;stroke-opacity:0.5;stroke-width:1.5;"/>
   </g>
   <g id="line2d_75">
    <path clip-path="url(#p7ef7121ef8)" d="M 199.648165 211.194364 
L 213.955383 211.346097 
L 228.262601 215.238216 
L 242.569818 212.995712 
L 256.877036 212.670046 
L 271.184253 213.049435 
L 285.491471 214.988439 
" style="fill:none;stroke:#ff7f0e;stroke-linecap:square;stroke-opacity:0.5;stroke-width:1.5;"/>
   </g>
   <g id="line2d_76">
    <path clip-path="url(#p7ef7121ef8)" d="M 199.648165 215.368538 
L 213.955383 216.104613 
L 228.262601 213.521023 
L 242.569818 213.08265 
L 256.877036 210.134159 
L 271.184253 207.368035 
L 285.491471 207.989383 
" style="fill:none;stroke:#ff7f0e;stroke-linecap:square;stroke-opacity:0.5;stroke-width:1.5;"/>
   </g>
   <g id="line2d_77">
    <path clip-path="url(#p7ef7121ef8)" d="M 199.648165 248.752727 
L 213.955383 246.625336 
L 228.262601 246.797852 
L 242.569818 246.883905 
L 256.877036 247.202694 
L 271.184253 246.975452 
L 285.491471 243.200304 
" style="fill:none;stroke:#ff7f0e;stroke-linecap:square;stroke-opacity:0.5;stroke-width:1.5;"/>
   </g>
   <g id="line2d_78">
    <path clip-path="url(#p7ef7121ef8)" d="M 199.648165 235.498507 
L 213.955383 213.140922 
L 228.262601 213.259431 
L 242.569818 213.968389 
L 256.877036 210.412651 
L 271.184253 212.75761 
L 285.491471 206.693264 
" style="fill:none;stroke:#ff7f0e;stroke-linecap:square;stroke-opacity:0.5;stroke-width:1.5;"/>
   </g>
   <g id="line2d_79">
    <path clip-path="url(#p7ef7121ef8)" d="M 199.648165 172.338697 
L 213.955383 171.310445 
L 228.262601 173.104185 
L 242.569818 174.037558 
L 256.877036 174.035548 
L 271.184253 172.870464 
L 285.491471 175.382762 
" style="fill:none;stroke:#ff7f0e;stroke-linecap:square;stroke-opacity:0.5;stroke-width:1.5;"/>
   </g>
   <g id="line2d_80">
    <path clip-path="url(#p7ef7121ef8)" d="M 199.648165 144.607273 
L 213.955383 145.991508 
L 228.262601 148.418204 
L 242.569818 149.367967 
L 256.877036 151.154566 
L 271.184253 152.956477 
L 285.491471 154.446435 
" style="fill:none;stroke:#ff7f0e;stroke-linecap:square;stroke-opacity:0.5;stroke-width:1.5;"/>
   </g>
   <g id="line2d_81">
    <path clip-path="url(#p7ef7121ef8)" d="M 199.648165 158.306179 
L 213.955383 157.036277 
L 228.262601 158.729684 
L 242.569818 174.076297 
L 256.877036 173.79774 
L 271.184253 179.480559 
L 285.491471 178.920523 
" style="fill:none;stroke:#ff7f0e;stroke-linecap:square;stroke-opacity:0.5;stroke-width:1.5;"/>
   </g>
   <g id="line2d_82">
    <path clip-path="url(#p7ef7121ef8)" d="M 199.648165 173.191591 
L 213.955383 171.356482 
L 228.262601 173.060059 
L 242.569818 172.861649 
L 256.877036 173.720246 
L 271.184253 174.928591 
L 285.491471 175.715247 
" style="fill:none;stroke:#ff7f0e;stroke-linecap:square;stroke-opacity:0.5;stroke-width:1.5;"/>
   </g>
   <g id="line2d_83">
    <path clip-path="url(#p7ef7121ef8)" d="M 199.648165 215.2238 
L 213.955383 216.087607 
L 228.262601 216.732415 
L 242.569818 217.544775 
L 256.877036 217.375086 
L 271.184253 217.923923 
L 285.491471 216.702351 
" style="fill:none;stroke:#ff7f0e;stroke-linecap:square;stroke-opacity:0.5;stroke-width:1.5;"/>
   </g>
   <g id="line2d_84">
    <path clip-path="url(#p7ef7121ef8)" d="M 199.648165 206.240637 
L 213.955383 200.194621 
L 228.262601 198.458921 
L 242.569818 196.632189 
L 256.877036 194.564165 
L 271.184253 194.380504 
L 285.491471 193.261116 
" style="fill:none;stroke:#ff7f0e;stroke-linecap:square;stroke-opacity:0.5;stroke-width:1.5;"/>
   </g>
   <g id="line2d_85">
    <path clip-path="url(#p7ef7121ef8)" d="M 199.648165 213.008085 
L 213.955383 221.048053 
L 228.262601 225.549337 
L 242.569818 233.495521 
L 256.877036 239.634837 
L 271.184253 230.08738 
L 285.491471 223.888454 
" style="fill:none;stroke:#ff7f0e;stroke-linecap:square;stroke-opacity:0.5;stroke-width:1.5;"/>
   </g>
   <g id="line2d_86">
    <path clip-path="url(#p7ef7121ef8)" d="M 199.648165 194.557856 
L 213.955383 188.554161 
L 228.262601 187.318815 
L 242.569818 186.275485 
L 256.877036 185.995208 
L 271.184253 195.214363 
L 285.491471 199.076904 
" style="fill:none;stroke:#ff7f0e;stroke-linecap:square;stroke-opacity:0.5;stroke-width:1.5;"/>
   </g>
   <g id="matplotlib.axis_7">
    <g id="xtick_22">
     <g id="line2d_87">
      <g>
       <use style="stroke:#000000;stroke-width:0.8;" x="199.648165" xlink:href="#mf0a4d13856" y="253.96"/>
      </g>
     </g>
     <g id="text_28">
      <!-- 1 -->
      <g transform="translate(197.103165 267.03875)scale(0.08 -0.08)">
       <use xlink:href="#DejaVuSans-49"/>
      </g>
     </g>
    </g>
    <g id="xtick_23">
     <g id="line2d_88">
      <g>
       <use style="stroke:#000000;stroke-width:0.8;" x="213.955383" xlink:href="#mf0a4d13856" y="253.96"/>
      </g>
     </g>
     <g id="text_29">
      <!-- 2 -->
      <g transform="translate(211.410383 267.03875)scale(0.08 -0.08)">
       <use xlink:href="#DejaVuSans-50"/>
      </g>
     </g>
    </g>
    <g id="xtick_24">
     <g id="line2d_89">
      <g>
       <use style="stroke:#000000;stroke-width:0.8;" x="228.262601" xlink:href="#mf0a4d13856" y="253.96"/>
      </g>
     </g>
     <g id="text_30">
      <!-- 3 -->
      <g transform="translate(225.717601 267.03875)scale(0.08 -0.08)">
       <use xlink:href="#DejaVuSans-51"/>
      </g>
     </g>
    </g>
    <g id="xtick_25">
     <g id="line2d_90">
      <g>
       <use style="stroke:#000000;stroke-width:0.8;" x="242.569818" xlink:href="#mf0a4d13856" y="253.96"/>
      </g>
     </g>
     <g id="text_31">
      <!-- 4 -->
      <g transform="translate(240.024818 267.03875)scale(0.08 -0.08)">
       <use xlink:href="#DejaVuSans-52"/>
      </g>
     </g>
    </g>
    <g id="xtick_26">
     <g id="line2d_91">
      <g>
       <use style="stroke:#000000;stroke-width:0.8;" x="256.877036" xlink:href="#mf0a4d13856" y="253.96"/>
      </g>
     </g>
     <g id="text_32">
      <!-- 5 -->
      <g transform="translate(254.332036 267.03875)scale(0.08 -0.08)">
       <use xlink:href="#DejaVuSans-53"/>
      </g>
     </g>
    </g>
    <g id="xtick_27">
     <g id="line2d_92">
      <g>
       <use style="stroke:#000000;stroke-width:0.8;" x="271.184253" xlink:href="#mf0a4d13856" y="253.96"/>
      </g>
     </g>
     <g id="text_33">
      <!-- 6 -->
      <g transform="translate(268.639253 267.03875)scale(0.08 -0.08)">
       <use xlink:href="#DejaVuSans-54"/>
      </g>
     </g>
    </g>
    <g id="xtick_28">
     <g id="line2d_93">
      <g>
       <use style="stroke:#000000;stroke-width:0.8;" x="285.491471" xlink:href="#mf0a4d13856" y="253.96"/>
      </g>
     </g>
     <g id="text_34">
      <!-- 7 -->
      <g transform="translate(282.946471 267.03875)scale(0.08 -0.08)">
       <use xlink:href="#DejaVuSans-55"/>
      </g>
     </g>
    </g>
    <g id="text_35">
     <!-- Number of noise dimensions -->
     <g transform="translate(185.388568 278.78125)scale(0.08 -0.08)">
      <use xlink:href="#DejaVuSans-78"/>
      <use x="74.804688" xlink:href="#DejaVuSans-117"/>
      <use x="138.183594" xlink:href="#DejaVuSans-109"/>
      <use x="235.595703" xlink:href="#DejaVuSans-98"/>
      <use x="299.072266" xlink:href="#DejaVuSans-101"/>
      <use x="360.595703" xlink:href="#DejaVuSans-114"/>
      <use x="401.708984" xlink:href="#DejaVuSans-32"/>
      <use x="433.496094" xlink:href="#DejaVuSans-111"/>
      <use x="494.677734" xlink:href="#DejaVuSans-102"/>
      <use x="529.882812" xlink:href="#DejaVuSans-32"/>
      <use x="561.669922" xlink:href="#DejaVuSans-110"/>
      <use x="625.048828" xlink:href="#DejaVuSans-111"/>
      <use x="686.230469" xlink:href="#DejaVuSans-105"/>
      <use x="714.013672" xlink:href="#DejaVuSans-115"/>
      <use x="766.113281" xlink:href="#DejaVuSans-101"/>
      <use x="827.636719" xlink:href="#DejaVuSans-32"/>
      <use x="859.423828" xlink:href="#DejaVuSans-100"/>
      <use x="922.900391" xlink:href="#DejaVuSans-105"/>
      <use x="950.683594" xlink:href="#DejaVuSans-109"/>
      <use x="1048.095703" xlink:href="#DejaVuSans-101"/>
      <use x="1109.619141" xlink:href="#DejaVuSans-110"/>
      <use x="1172.998047" xlink:href="#DejaVuSans-115"/>
      <use x="1225.097656" xlink:href="#DejaVuSans-105"/>
      <use x="1252.880859" xlink:href="#DejaVuSans-111"/>
      <use x="1314.0625" xlink:href="#DejaVuSans-110"/>
      <use x="1377.441406" xlink:href="#DejaVuSans-115"/>
     </g>
    </g>
   </g>
   <g id="matplotlib.axis_8">
    <g id="ytick_17">
     <g id="line2d_94">
      <g>
       <use style="stroke:#000000;stroke-width:0.8;" x="195.356" xlink:href="#m9c024f91f9" y="244.942234"/>
      </g>
     </g>
     <g id="text_36">
      <!-- 0.2 -->
      <defs>
       <path d="M 10.59375 35.5 
L 73.1875 35.5 
L 73.1875 27.203125 
L 10.59375 27.203125 
z
" id="DejaVuSans-8722"/>
      </defs>
      <g transform="translate(168.92975 247.981609)scale(0.08 -0.08)">
       <use xlink:href="#DejaVuSans-8722"/>
       <use x="83.789062" xlink:href="#DejaVuSans-48"/>
       <use x="147.412109" xlink:href="#DejaVuSans-46"/>
       <use x="179.199219" xlink:href="#DejaVuSans-50"/>
      </g>
     </g>
    </g>
    <g id="ytick_18">
     <g id="line2d_95">
      <g>
       <use style="stroke:#000000;stroke-width:0.8;" x="195.356" xlink:href="#m9c024f91f9" y="218.438828"/>
      </g>
     </g>
     <g id="text_37">
      <!-- 0.0 -->
      <g transform="translate(175.6335 221.478203)scale(0.08 -0.08)">
       <use xlink:href="#DejaVuSans-48"/>
       <use x="63.623047" xlink:href="#DejaVuSans-46"/>
       <use x="95.410156" xlink:href="#DejaVuSans-48"/>
      </g>
     </g>
    </g>
    <g id="ytick_19">
     <g id="line2d_96">
      <g>
       <use style="stroke:#000000;stroke-width:0.8;" x="195.356" xlink:href="#m9c024f91f9" y="191.935422"/>
      </g>
     </g>
     <g id="text_38">
      <!-- 0.2 -->
      <g transform="translate(175.6335 194.974797)scale(0.08 -0.08)">
       <use xlink:href="#DejaVuSans-48"/>
       <use x="63.623047" xlink:href="#DejaVuSans-46"/>
       <use x="95.410156" xlink:href="#DejaVuSans-50"/>
      </g>
     </g>
    </g>
    <g id="ytick_20">
     <g id="line2d_97">
      <g>
       <use style="stroke:#000000;stroke-width:0.8;" x="195.356" xlink:href="#m9c024f91f9" y="165.432017"/>
      </g>
     </g>
     <g id="text_39">
      <!-- 0.4 -->
      <g transform="translate(175.6335 168.471392)scale(0.08 -0.08)">
       <use xlink:href="#DejaVuSans-48"/>
       <use x="63.623047" xlink:href="#DejaVuSans-46"/>
       <use x="95.410156" xlink:href="#DejaVuSans-52"/>
      </g>
     </g>
    </g>
    <g id="ytick_21">
     <g id="line2d_98">
      <g>
       <use style="stroke:#000000;stroke-width:0.8;" x="195.356" xlink:href="#m9c024f91f9" y="138.928611"/>
      </g>
     </g>
     <g id="text_40">
      <!-- 0.6 -->
      <g transform="translate(175.6335 141.967986)scale(0.08 -0.08)">
       <use xlink:href="#DejaVuSans-48"/>
       <use x="63.623047" xlink:href="#DejaVuSans-46"/>
       <use x="95.410156" xlink:href="#DejaVuSans-54"/>
      </g>
     </g>
    </g>
    <g id="text_41">
     <!-- $\Delta d'^2$ -->
     <g transform="translate(163.266 205.08)rotate(-90)scale(0.08 -0.08)">
      <use transform="translate(0 0.765625)" xlink:href="#DejaVuSans-916"/>
      <use transform="translate(68.408203 0.765625)" xlink:href="#DejaVuSans-Oblique-100"/>
      <use transform="translate(139.332474 39.046875)scale(0.7)" xlink:href="#Cmsy10-48"/>
      <use transform="translate(162.267044 39.046875)scale(0.7)" xlink:href="#DejaVuSans-50"/>
     </g>
    </g>
   </g>
   <g id="LineCollection_4">
    <path clip-path="url(#p7ef7121ef8)" d="M 199.648165 206.788605 
L 199.648165 190.834383 
" style="fill:none;stroke:#000000;stroke-width:2;"/>
    <path clip-path="url(#p7ef7121ef8)" d="M 213.955383 205.313182 
L 213.955383 189.924529 
" style="fill:none;stroke:#000000;stroke-width:2;"/>
    <path clip-path="url(#p7ef7121ef8)" d="M 228.262601 207.71518 
L 228.262601 191.978122 
" style="fill:none;stroke:#000000;stroke-width:2;"/>
    <path clip-path="url(#p7ef7121ef8)" d="M 242.569818 208.618108 
L 242.569818 193.598878 
" style="fill:none;stroke:#000000;stroke-width:2;"/>
    <path clip-path="url(#p7ef7121ef8)" d="M 256.877036 208.212544 
L 256.877036 193.234344 
" style="fill:none;stroke:#000000;stroke-width:2;"/>
    <path clip-path="url(#p7ef7121ef8)" d="M 271.184253 208.160955 
L 271.184253 194.256194 
" style="fill:none;stroke:#000000;stroke-width:2;"/>
    <path clip-path="url(#p7ef7121ef8)" d="M 285.491471 207.177338 
L 285.491471 194.171181 
" style="fill:none;stroke:#000000;stroke-width:2;"/>
   </g>
   <g id="line2d_99">
    <g clip-path="url(#p7ef7121ef8)">
     <use style="stroke:#000000;" x="199.648165" xlink:href="#m21ae9f0e37" y="206.788605"/>
     <use style="stroke:#000000;" x="213.955383" xlink:href="#m21ae9f0e37" y="205.313182"/>
     <use style="stroke:#000000;" x="228.262601" xlink:href="#m21ae9f0e37" y="207.71518"/>
     <use style="stroke:#000000;" x="242.569818" xlink:href="#m21ae9f0e37" y="208.618108"/>
     <use style="stroke:#000000;" x="256.877036" xlink:href="#m21ae9f0e37" y="208.212544"/>
     <use style="stroke:#000000;" x="271.184253" xlink:href="#m21ae9f0e37" y="208.160955"/>
     <use style="stroke:#000000;" x="285.491471" xlink:href="#m21ae9f0e37" y="207.177338"/>
    </g>
   </g>
   <g id="line2d_100">
    <g clip-path="url(#p7ef7121ef8)">
     <use style="stroke:#000000;" x="199.648165" xlink:href="#m21ae9f0e37" y="190.834383"/>
     <use style="stroke:#000000;" x="213.955383" xlink:href="#m21ae9f0e37" y="189.924529"/>
     <use style="stroke:#000000;" x="228.262601" xlink:href="#m21ae9f0e37" y="191.978122"/>
     <use style="stroke:#000000;" x="242.569818" xlink:href="#m21ae9f0e37" y="193.598878"/>
     <use style="stroke:#000000;" x="256.877036" xlink:href="#m21ae9f0e37" y="193.234344"/>
     <use style="stroke:#000000;" x="271.184253" xlink:href="#m21ae9f0e37" y="194.256194"/>
     <use style="stroke:#000000;" x="285.491471" xlink:href="#m21ae9f0e37" y="194.171181"/>
    </g>
   </g>
   <g id="line2d_101">
    <path clip-path="url(#p7ef7121ef8)" d="M 199.648165 198.811494 
L 213.955383 197.618856 
L 228.262601 199.846651 
L 242.569818 201.108493 
L 256.877036 200.723444 
L 271.184253 201.208574 
L 285.491471 200.674259 
" style="fill:none;stroke:#000000;stroke-linecap:square;stroke-width:2;"/>
   </g>
   <g id="patch_12">
    <path d="M 195.356 253.96 
L 195.356 139.4 
" style="fill:none;stroke:#000000;stroke-linecap:square;stroke-linejoin:miter;stroke-width:0.8;"/>
   </g>
   <g id="patch_13">
    <path d="M 195.356 253.96 
L 289.783636 253.96 
" style="fill:none;stroke:#000000;stroke-linecap:square;stroke-linejoin:miter;stroke-width:0.8;"/>
   </g>
  </g>
 </g>
 <defs>
  <clipPath id="p42cc84ef46">
   <rect height="114.56" width="94.427636" x="48.026" y="11.16"/>
  </clipPath>
  <clipPath id="pafed36f015">
   <rect height="114.56" width="94.427636" x="195.356" y="11.16"/>
  </clipPath>
  <clipPath id="p9d51e9004a">
   <rect height="114.56" width="94.427636" x="48.026" y="139.4"/>
  </clipPath>
  <clipPath id="p7ef7121ef8">
   <rect height="114.56" width="94.427636" x="195.356" y="139.4"/>
  </clipPath>
 </defs>
</svg>
