<?xml version="1.0" encoding="utf-8" standalone="no"?>
<!DOCTYPE svg PUBLIC "-//W3C//DTD SVG 1.1//EN"
  "http://www.w3.org/Graphics/SVG/1.1/DTD/svg11.dtd">
<!-- Created with matplotlib (https://matplotlib.org/) -->
<svg height="288pt" version="1.1" viewBox="0 0 288 288" width="288pt" xmlns="http://www.w3.org/2000/svg" xmlns:xlink="http://www.w3.org/1999/xlink">
 <defs>
  <style type="text/css">
*{stroke-linecap:butt;stroke-linejoin:round;}
  </style>
 </defs>
 <g id="figure_1">
  <g id="patch_1">
   <path d="M 0 288 
L 288 288 
L 288 0 
L 0 0 
z
" style="fill:#ffffff;"/>
  </g>
  <g id="axes_1">
   <g id="patch_2">
    <path d="M 36 256.32 
L 259.2 256.32 
L 259.2 34.56 
L 36 34.56 
z
" style="fill:#ffffff;"/>
   </g>
   <g id="PathCollection_1">
    <defs>
     <path d="M 0 3 
C 0.795609 3 1.55874 2.683901 2.12132 2.12132 
C 2.683901 1.55874 3 0.795609 3 0 
C 3 -0.795609 2.683901 -1.55874 2.12132 -2.12132 
C 1.55874 -2.683901 0.795609 -3 0 -3 
C -0.795609 -3 -1.55874 -2.683901 -2.12132 -2.12132 
C -2.683901 -1.55874 -3 -0.795609 -3 0 
C -3 0.795609 -2.683901 1.55874 -2.12132 2.12132 
C -1.55874 2.683901 -0.795609 3 0 3 
z
" id="m134b7e19da" style="stroke:#ffffff;"/>
    </defs>
    <g clip-path="url(#pb10878055c)">
     <use style="fill:#1f77b4;stroke:#ffffff;" x="111.600079" xlink:href="#m134b7e19da" y="122.437673"/>
     <use style="fill:#1f77b4;stroke:#ffffff;" x="112.861248" xlink:href="#m134b7e19da" y="168.608086"/>
     <use style="fill:#1f77b4;stroke:#ffffff;" x="97.085394" xlink:href="#m134b7e19da" y="124.560572"/>
     <use style="fill:#1f77b4;stroke:#ffffff;" x="147.112783" xlink:href="#m134b7e19da" y="113.945496"/>
     <use style="fill:#1f77b4;stroke:#ffffff;" x="90.675773" xlink:href="#m134b7e19da" y="178.677174"/>
     <use style="fill:#1f77b4;stroke:#ffffff;" x="115.271178" xlink:href="#m134b7e19da" y="139.455597"/>
     <use style="fill:#1f77b4;stroke:#ffffff;" x="84.818579" xlink:href="#m134b7e19da" y="180.217959"/>
     <use style="fill:#1f77b4;stroke:#ffffff;" x="114.6344" xlink:href="#m134b7e19da" y="146.526914"/>
     <use style="fill:#1f77b4;stroke:#ffffff;" x="46.328794" xlink:href="#m134b7e19da" y="165.17495"/>
     <use style="fill:#1f77b4;stroke:#ffffff;" x="83.10407" xlink:href="#m134b7e19da" y="162.51212"/>
     <use style="fill:#1f77b4;stroke:#ffffff;" x="77.016712" xlink:href="#m134b7e19da" y="147.673808"/>
     <use style="fill:#1f77b4;stroke:#ffffff;" x="107.45169" xlink:href="#m134b7e19da" y="123.204682"/>
     <use style="fill:#1f77b4;stroke:#ffffff;" x="129.849034" xlink:href="#m134b7e19da" y="135.165707"/>
     <use style="fill:#1f77b4;stroke:#ffffff;" x="101.886068" xlink:href="#m134b7e19da" y="178.112864"/>
     <use style="fill:#1f77b4;stroke:#ffffff;" x="113.696719" xlink:href="#m134b7e19da" y="155.561777"/>
     <use style="fill:#1f77b4;stroke:#ffffff;" x="133.939254" xlink:href="#m134b7e19da" y="172.012658"/>
     <use style="fill:#1f77b4;stroke:#ffffff;" x="138.930589" xlink:href="#m134b7e19da" y="127.261127"/>
     <use style="fill:#1f77b4;stroke:#ffffff;" x="89.663625" xlink:href="#m134b7e19da" y="166.55842"/>
     <use style="fill:#1f77b4;stroke:#ffffff;" x="96.669735" xlink:href="#m134b7e19da" y="143.224362"/>
     <use style="fill:#1f77b4;stroke:#ffffff;" x="114.979425" xlink:href="#m134b7e19da" y="132.579751"/>
    </g>
   </g>
   <g id="PathCollection_2">
    <defs>
     <path d="M 0 3 
C 0.795609 3 1.55874 2.683901 2.12132 2.12132 
C 2.683901 1.55874 3 0.795609 3 0 
C 3 -0.795609 2.683901 -1.55874 2.12132 -2.12132 
C 1.55874 -2.683901 0.795609 -3 0 -3 
C -0.795609 -3 -1.55874 -2.683901 -2.12132 -2.12132 
C -2.683901 -1.55874 -3 -0.795609 -3 0 
C -3 0.795609 -2.683901 1.55874 -2.12132 2.12132 
C -1.55874 2.683901 -0.795609 3 0 3 
z
" id="mdb72ea40e2" style="stroke:#ffffff;"/>
    </defs>
    <g clip-path="url(#pb10878055c)">
     <use style="fill:#ff7f0e;stroke:#ffffff;" x="246.484868" xlink:href="#mdb72ea40e2" y="152.848704"/>
     <use style="fill:#ff7f0e;stroke:#ffffff;" x="217.883977" xlink:href="#mdb72ea40e2" y="137.848035"/>
     <use style="fill:#ff7f0e;stroke:#ffffff;" x="211.462787" xlink:href="#mdb72ea40e2" y="155.364134"/>
     <use style="fill:#ff7f0e;stroke:#ffffff;" x="173.743317" xlink:href="#mdb72ea40e2" y="185.036834"/>
     <use style="fill:#ff7f0e;stroke:#ffffff;" x="179.647035" xlink:href="#mdb72ea40e2" y="144.554026"/>
     <use style="fill:#ff7f0e;stroke:#ffffff;" x="247.97778" xlink:href="#mdb72ea40e2" y="138.304903"/>
     <use style="fill:#ff7f0e;stroke:#ffffff;" x="195.856686" xlink:href="#mdb72ea40e2" y="185.865442"/>
     <use style="fill:#ff7f0e;stroke:#ffffff;" x="206.289786" xlink:href="#mdb72ea40e2" y="140.054764"/>
     <use style="fill:#ff7f0e;stroke:#ffffff;" x="185.668992" xlink:href="#mdb72ea40e2" y="147.687399"/>
     <use style="fill:#ff7f0e;stroke:#ffffff;" x="182.237197" xlink:href="#mdb72ea40e2" y="164.1059"/>
     <use style="fill:#ff7f0e;stroke:#ffffff;" x="222.054309" xlink:href="#mdb72ea40e2" y="129.489772"/>
     <use style="fill:#ff7f0e;stroke:#ffffff;" x="224.31277" xlink:href="#mdb72ea40e2" y="167.416183"/>
     <use style="fill:#ff7f0e;stroke:#ffffff;" x="186.005877" xlink:href="#mdb72ea40e2" y="165.303781"/>
     <use style="fill:#ff7f0e;stroke:#ffffff;" x="218.367535" xlink:href="#mdb72ea40e2" y="152.651197"/>
     <use style="fill:#ff7f0e;stroke:#ffffff;" x="234.676317" xlink:href="#mdb72ea40e2" y="128.146482"/>
     <use style="fill:#ff7f0e;stroke:#ffffff;" x="217.093421" xlink:href="#mdb72ea40e2" y="165.255641"/>
     <use style="fill:#ff7f0e;stroke:#ffffff;" x="208.231041" xlink:href="#mdb72ea40e2" y="179.158314"/>
     <use style="fill:#ff7f0e;stroke:#ffffff;" x="241.890555" xlink:href="#mdb72ea40e2" y="105.014558"/>
     <use style="fill:#ff7f0e;stroke:#ffffff;" x="224.717717" xlink:href="#mdb72ea40e2" y="144.272711"/>
     <use style="fill:#ff7f0e;stroke:#ffffff;" x="245.859483" xlink:href="#mdb72ea40e2" y="151.168349"/>
    </g>
   </g>
   <g id="matplotlib.axis_1">
    <g id="xtick_1">
     <g id="line2d_1">
      <defs>
       <path d="M 0 0 
L 0 3.5 
" id="m8383681b3e" style="stroke:#000000;stroke-width:0.8;"/>
      </defs>
      <g>
       <use style="stroke:#000000;stroke-width:0.8;" x="46.400492" xlink:href="#m8383681b3e" y="256.32"/>
      </g>
     </g>
     <g id="text_1">
      <!-- −6 -->
      <defs>
       <path d="M 10.59375 35.5 
L 73.1875 35.5 
L 73.1875 27.203125 
L 10.59375 27.203125 
z
" id="DejaVuSans-8722"/>
       <path d="M 33.015625 40.375 
Q 26.375 40.375 22.484375 35.828125 
Q 18.609375 31.296875 18.609375 23.390625 
Q 18.609375 15.53125 22.484375 10.953125 
Q 26.375 6.390625 33.015625 6.390625 
Q 39.65625 6.390625 43.53125 10.953125 
Q 47.40625 15.53125 47.40625 23.390625 
Q 47.40625 31.296875 43.53125 35.828125 
Q 39.65625 40.375 33.015625 40.375 
z
M 52.59375 71.296875 
L 52.59375 62.3125 
Q 48.875 64.0625 45.09375 64.984375 
Q 41.3125 65.921875 37.59375 65.921875 
Q 27.828125 65.921875 22.671875 59.328125 
Q 17.53125 52.734375 16.796875 39.40625 
Q 19.671875 43.65625 24.015625 45.921875 
Q 28.375 48.1875 33.59375 48.1875 
Q 44.578125 48.1875 50.953125 41.515625 
Q 57.328125 34.859375 57.328125 23.390625 
Q 57.328125 12.15625 50.6875 5.359375 
Q 44.046875 -1.421875 33.015625 -1.421875 
Q 20.359375 -1.421875 13.671875 8.265625 
Q 6.984375 17.96875 6.984375 36.375 
Q 6.984375 53.65625 15.1875 63.9375 
Q 23.390625 74.21875 37.203125 74.21875 
Q 40.921875 74.21875 44.703125 73.484375 
Q 48.484375 72.75 52.59375 71.296875 
z
" id="DejaVuSans-54"/>
      </defs>
      <g transform="translate(40.503617 269.39875)scale(0.08 -0.08)">
       <use xlink:href="#DejaVuSans-8722"/>
       <use x="83.789062" xlink:href="#DejaVuSans-54"/>
      </g>
     </g>
    </g>
    <g id="xtick_2">
     <g id="line2d_2">
      <g>
       <use style="stroke:#000000;stroke-width:0.8;" x="84.290586" xlink:href="#m8383681b3e" y="256.32"/>
      </g>
     </g>
     <g id="text_2">
      <!-- −4 -->
      <defs>
       <path d="M 37.796875 64.3125 
L 12.890625 25.390625 
L 37.796875 25.390625 
z
M 35.203125 72.90625 
L 47.609375 72.90625 
L 47.609375 25.390625 
L 58.015625 25.390625 
L 58.015625 17.1875 
L 47.609375 17.1875 
L 47.609375 0 
L 37.796875 0 
L 37.796875 17.1875 
L 4.890625 17.1875 
L 4.890625 26.703125 
z
" id="DejaVuSans-52"/>
      </defs>
      <g transform="translate(78.393711 269.39875)scale(0.08 -0.08)">
       <use xlink:href="#DejaVuSans-8722"/>
       <use x="83.789062" xlink:href="#DejaVuSans-52"/>
      </g>
     </g>
    </g>
    <g id="xtick_3">
     <g id="line2d_3">
      <g>
       <use style="stroke:#000000;stroke-width:0.8;" x="122.18068" xlink:href="#m8383681b3e" y="256.32"/>
      </g>
     </g>
     <g id="text_3">
      <!-- −2 -->
      <defs>
       <path d="M 19.1875 8.296875 
L 53.609375 8.296875 
L 53.609375 0 
L 7.328125 0 
L 7.328125 8.296875 
Q 12.9375 14.109375 22.625 23.890625 
Q 32.328125 33.6875 34.8125 36.53125 
Q 39.546875 41.84375 41.421875 45.53125 
Q 43.3125 49.21875 43.3125 52.78125 
Q 43.3125 58.59375 39.234375 62.25 
Q 35.15625 65.921875 28.609375 65.921875 
Q 23.96875 65.921875 18.8125 64.3125 
Q 13.671875 62.703125 7.8125 59.421875 
L 7.8125 69.390625 
Q 13.765625 71.78125 18.9375 73 
Q 24.125 74.21875 28.421875 74.21875 
Q 39.75 74.21875 46.484375 68.546875 
Q 53.21875 62.890625 53.21875 53.421875 
Q 53.21875 48.921875 51.53125 44.890625 
Q 49.859375 40.875 45.40625 35.40625 
Q 44.1875 33.984375 37.640625 27.21875 
Q 31.109375 20.453125 19.1875 8.296875 
z
" id="DejaVuSans-50"/>
      </defs>
      <g transform="translate(116.283805 269.39875)scale(0.08 -0.08)">
       <use xlink:href="#DejaVuSans-8722"/>
       <use x="83.789062" xlink:href="#DejaVuSans-50"/>
      </g>
     </g>
    </g>
    <g id="xtick_4">
     <g id="line2d_4">
      <g>
       <use style="stroke:#000000;stroke-width:0.8;" x="160.070775" xlink:href="#m8383681b3e" y="256.32"/>
      </g>
     </g>
     <g id="text_4">
      <!-- 0 -->
      <defs>
       <path d="M 31.78125 66.40625 
Q 24.171875 66.40625 20.328125 58.90625 
Q 16.5 51.421875 16.5 36.375 
Q 16.5 21.390625 20.328125 13.890625 
Q 24.171875 6.390625 31.78125 6.390625 
Q 39.453125 6.390625 43.28125 13.890625 
Q 47.125 21.390625 47.125 36.375 
Q 47.125 51.421875 43.28125 58.90625 
Q 39.453125 66.40625 31.78125 66.40625 
z
M 31.78125 74.21875 
Q 44.046875 74.21875 50.515625 64.515625 
Q 56.984375 54.828125 56.984375 36.375 
Q 56.984375 17.96875 50.515625 8.265625 
Q 44.046875 -1.421875 31.78125 -1.421875 
Q 19.53125 -1.421875 13.0625 8.265625 
Q 6.59375 17.96875 6.59375 36.375 
Q 6.59375 54.828125 13.0625 64.515625 
Q 19.53125 74.21875 31.78125 74.21875 
z
" id="DejaVuSans-48"/>
      </defs>
      <g transform="translate(157.525775 269.39875)scale(0.08 -0.08)">
       <use xlink:href="#DejaVuSans-48"/>
      </g>
     </g>
    </g>
    <g id="xtick_5">
     <g id="line2d_5">
      <g>
       <use style="stroke:#000000;stroke-width:0.8;" x="197.960869" xlink:href="#m8383681b3e" y="256.32"/>
      </g>
     </g>
     <g id="text_5">
      <!-- 2 -->
      <g transform="translate(195.415869 269.39875)scale(0.08 -0.08)">
       <use xlink:href="#DejaVuSans-50"/>
      </g>
     </g>
    </g>
    <g id="xtick_6">
     <g id="line2d_6">
      <g>
       <use style="stroke:#000000;stroke-width:0.8;" x="235.850963" xlink:href="#m8383681b3e" y="256.32"/>
      </g>
     </g>
     <g id="text_6">
      <!-- 4 -->
      <g transform="translate(233.305963 269.39875)scale(0.08 -0.08)">
       <use xlink:href="#DejaVuSans-52"/>
      </g>
     </g>
    </g>
    <g id="text_7">
     <!-- $\Delta \mathbf{\mu}$ ($TDR_1$) -->
     <defs>
      <path d="M 34.1875 63.1875 
L 14.15625 8.203125 
L 54.25 8.203125 
z
M 0.78125 0 
L 28.609375 72.90625 
L 39.796875 72.90625 
L 67.578125 0 
z
" id="DejaVuSans-916"/>
      <path d="M 8.5 -20.90625 
L 8.5 54.6875 
L 26.125 54.6875 
L 26.125 22.90625 
Q 26.125 17.234375 28.5625 14.46875 
Q 31 11.71875 35.984375 11.71875 
Q 41.015625 11.71875 43.453125 14.46875 
Q 45.90625 17.234375 45.90625 22.90625 
L 45.90625 54.6875 
L 63.484375 54.6875 
L 63.484375 18.109375 
Q 63.484375 14.65625 64.28125 13.28125 
Q 65.09375 11.921875 67 11.921875 
Q 67.875 11.921875 68.671875 12.15625 
Q 69.484375 12.40625 70.40625 12.984375 
L 70.40625 0.78125 
Q 67.828125 -0.34375 65.546875 -0.875 
Q 63.28125 -1.421875 61.078125 -1.421875 
Q 56.734375 -1.421875 53.96875 0.40625 
Q 51.21875 2.25 49.515625 6.296875 
Q 47.21875 2.4375 43.921875 0.5 
Q 40.625 -1.421875 36.28125 -1.421875 
Q 32.671875 -1.421875 30.125 -0.265625 
Q 27.59375 0.875 26.125 3.21875 
L 26.125 -20.90625 
z
" id="DejaVuSans-Bold-956"/>
      <path id="DejaVuSans-32"/>
      <path d="M 31 75.875 
Q 24.46875 64.65625 21.28125 53.65625 
Q 18.109375 42.671875 18.109375 31.390625 
Q 18.109375 20.125 21.3125 9.0625 
Q 24.515625 -2 31 -13.1875 
L 23.1875 -13.1875 
Q 15.875 -1.703125 12.234375 9.375 
Q 8.59375 20.453125 8.59375 31.390625 
Q 8.59375 42.28125 12.203125 53.3125 
Q 15.828125 64.359375 23.1875 75.875 
z
" id="DejaVuSans-40"/>
      <path d="M 5.90625 72.90625 
L 67.578125 72.90625 
L 66.015625 64.59375 
L 39.984375 64.59375 
L 27.484375 0 
L 17.578125 0 
L 30.078125 64.59375 
L 4.296875 64.59375 
z
" id="DejaVuSans-Oblique-84"/>
      <path d="M 16.890625 72.90625 
L 38.09375 72.90625 
Q 54.984375 72.90625 63.59375 65.75 
Q 72.21875 58.59375 72.21875 44.484375 
Q 72.21875 35.15625 68.9375 26.53125 
Q 65.671875 17.921875 59.90625 12.015625 
Q 54.109375 5.953125 45.171875 2.96875 
Q 36.234375 0 24.03125 0 
L 2.6875 0 
z
M 25.203125 64.796875 
L 14.203125 8.109375 
L 27.09375 8.109375 
Q 43.65625 8.109375 52.734375 17.625 
Q 61.8125 27.15625 61.8125 44.484375 
Q 61.8125 54.984375 55.953125 59.890625 
Q 50.09375 64.796875 37.59375 64.796875 
z
" id="DejaVuSans-Oblique-68"/>
      <path d="M 25.203125 64.796875 
L 20.21875 38.921875 
L 32.90625 38.921875 
Q 40.375 38.921875 44.984375 43.046875 
Q 49.609375 47.171875 49.609375 53.8125 
Q 49.609375 59.125 46.5 61.953125 
Q 43.40625 64.796875 37.59375 64.796875 
z
M 43.3125 35.015625 
Q 46.4375 34.28125 48.515625 31.390625 
Q 50.59375 28.515625 53.328125 19.921875 
L 59.515625 0 
L 49.125 0 
L 43.40625 18.703125 
Q 41.21875 25.921875 38.328125 28.359375 
Q 35.453125 30.8125 29.5 30.8125 
L 18.609375 30.8125 
L 12.59375 0 
L 2.6875 0 
L 16.890625 72.90625 
L 39.109375 72.90625 
Q 49.21875 72.90625 54.609375 68.328125 
Q 60.015625 63.765625 60.015625 55.171875 
Q 60.015625 47.5625 55.421875 41.984375 
Q 50.828125 36.421875 43.3125 35.015625 
z
" id="DejaVuSans-Oblique-82"/>
      <path d="M 12.40625 8.296875 
L 28.515625 8.296875 
L 28.515625 63.921875 
L 10.984375 60.40625 
L 10.984375 69.390625 
L 28.421875 72.90625 
L 38.28125 72.90625 
L 38.28125 8.296875 
L 54.390625 8.296875 
L 54.390625 0 
L 12.40625 0 
z
" id="DejaVuSans-49"/>
      <path d="M 8.015625 75.875 
L 15.828125 75.875 
Q 23.140625 64.359375 26.78125 53.3125 
Q 30.421875 42.28125 30.421875 31.390625 
Q 30.421875 20.453125 26.78125 9.375 
Q 23.140625 -1.703125 15.828125 -13.1875 
L 8.015625 -13.1875 
Q 14.5 -2 17.703125 9.0625 
Q 20.90625 20.125 20.90625 31.390625 
Q 20.90625 42.671875 17.703125 53.65625 
Q 14.5 64.65625 8.015625 75.875 
z
" id="DejaVuSans-41"/>
     </defs>
     <g transform="translate(127.32 281.1425)scale(0.08 -0.08)">
      <use transform="translate(0 0.125)" xlink:href="#DejaVuSans-916"/>
      <use transform="translate(68.408203 0.125)" xlink:href="#DejaVuSans-Bold-956"/>
      <use transform="translate(141.992188 0.125)" xlink:href="#DejaVuSans-32"/>
      <use transform="translate(173.779297 0.125)" xlink:href="#DejaVuSans-40"/>
      <use transform="translate(212.792969 0.125)" xlink:href="#DejaVuSans-Oblique-84"/>
      <use transform="translate(273.876953 0.125)" xlink:href="#DejaVuSans-Oblique-68"/>
      <use transform="translate(350.878906 0.125)" xlink:href="#DejaVuSans-Oblique-82"/>
      <use transform="translate(420.361328 -16.28125)scale(0.7)" xlink:href="#DejaVuSans-49"/>
      <use transform="translate(467.631836 0.125)" xlink:href="#DejaVuSans-41"/>
     </g>
    </g>
   </g>
   <g id="matplotlib.axis_2">
    <g id="ytick_1">
     <g id="line2d_7">
      <defs>
       <path d="M 0 0 
L -3.5 0 
" id="m60f248ecb8" style="stroke:#000000;stroke-width:0.8;"/>
      </defs>
      <g>
       <use style="stroke:#000000;stroke-width:0.8;" x="36" xlink:href="#m60f248ecb8" y="225.477064"/>
      </g>
     </g>
     <g id="text_8">
      <!-- −4 -->
      <g transform="translate(17.20625 228.516439)scale(0.08 -0.08)">
       <use xlink:href="#DejaVuSans-8722"/>
       <use x="83.789062" xlink:href="#DejaVuSans-52"/>
      </g>
     </g>
    </g>
    <g id="ytick_2">
     <g id="line2d_8">
      <g>
       <use style="stroke:#000000;stroke-width:0.8;" x="36" xlink:href="#m60f248ecb8" y="187.58697"/>
      </g>
     </g>
     <g id="text_9">
      <!-- −2 -->
      <g transform="translate(17.20625 190.626345)scale(0.08 -0.08)">
       <use xlink:href="#DejaVuSans-8722"/>
       <use x="83.789062" xlink:href="#DejaVuSans-50"/>
      </g>
     </g>
    </g>
    <g id="ytick_3">
     <g id="line2d_9">
      <g>
       <use style="stroke:#000000;stroke-width:0.8;" x="36" xlink:href="#m60f248ecb8" y="149.696876"/>
      </g>
     </g>
     <g id="text_10">
      <!-- 0 -->
      <g transform="translate(23.91 152.736251)scale(0.08 -0.08)">
       <use xlink:href="#DejaVuSans-48"/>
      </g>
     </g>
    </g>
    <g id="ytick_4">
     <g id="line2d_10">
      <g>
       <use style="stroke:#000000;stroke-width:0.8;" x="36" xlink:href="#m60f248ecb8" y="111.806781"/>
      </g>
     </g>
     <g id="text_11">
      <!-- 2 -->
      <g transform="translate(23.91 114.846156)scale(0.08 -0.08)">
       <use xlink:href="#DejaVuSans-50"/>
      </g>
     </g>
    </g>
    <g id="ytick_5">
     <g id="line2d_11">
      <g>
       <use style="stroke:#000000;stroke-width:0.8;" x="36" xlink:href="#m60f248ecb8" y="73.916687"/>
      </g>
     </g>
     <g id="text_12">
      <!-- 4 -->
      <g transform="translate(23.91 76.956062)scale(0.08 -0.08)">
       <use xlink:href="#DejaVuSans-52"/>
      </g>
     </g>
    </g>
    <g id="ytick_6">
     <g id="line2d_12">
      <g>
       <use style="stroke:#000000;stroke-width:0.8;" x="36" xlink:href="#m60f248ecb8" y="36.026593"/>
      </g>
     </g>
     <g id="text_13">
      <!-- 6 -->
      <g transform="translate(23.91 39.065968)scale(0.08 -0.08)">
       <use xlink:href="#DejaVuSans-54"/>
      </g>
     </g>
    </g>
    <g id="text_14">
     <!-- $TDR_2$ -->
     <g transform="translate(11.5425 155.64)rotate(-90)scale(0.08 -0.08)">
      <use transform="translate(0 0.09375)" xlink:href="#DejaVuSans-Oblique-84"/>
      <use transform="translate(61.083984 0.09375)" xlink:href="#DejaVuSans-Oblique-68"/>
      <use transform="translate(138.085938 0.09375)" xlink:href="#DejaVuSans-Oblique-82"/>
      <use transform="translate(207.568359 -16.3125)scale(0.7)" xlink:href="#DejaVuSans-50"/>
     </g>
    </g>
   </g>
   <g id="line2d_13">
    <path clip-path="url(#pb10878055c)" d="M 95.193751 136.688398 
L 96.562435 135.613735 
L 97.966619 134.593673 
L 99.400649 133.63232 
L 100.85875 132.733545 
L 102.335053 131.900969 
L 103.823611 131.137943 
L 105.318431 130.447541 
L 106.813494 129.832541 
L 108.30278 129.295422 
L 109.780291 128.838344 
L 111.24008 128.46315 
L 112.676267 128.171349 
L 114.083069 127.964116 
L 115.454822 127.842287 
L 116.786003 127.806351 
L 118.071251 127.856454 
L 119.30539 127.992393 
L 120.483452 128.213622 
L 121.600692 128.519248 
L 122.652612 128.908043 
L 123.634977 129.378439 
L 124.543831 129.928544 
L 125.375513 130.556142 
L 126.126675 131.258705 
L 126.794293 132.033406 
L 127.375679 132.877124 
L 127.86849 133.786462 
L 128.270743 134.757758 
L 128.580818 135.787102 
L 128.797467 136.870349 
L 128.919817 138.003136 
L 128.947375 139.180903 
L 128.880031 140.398907 
L 128.718055 141.652244 
L 128.4621 142.935866 
L 128.113197 144.244605 
L 127.67275 145.573191 
L 127.142534 146.916276 
L 126.524682 148.268449 
L 125.821683 149.624267 
L 125.036367 150.97827 
L 124.171898 152.325007 
L 123.231754 153.659054 
L 122.219724 154.975039 
L 121.13988 156.267664 
L 119.996572 157.531724 
L 118.794404 158.762128 
L 117.538215 159.953923 
L 116.233064 161.102309 
L 114.884207 162.202663 
L 113.497075 163.250552 
L 112.077254 164.241759 
L 110.630459 165.172292 
L 109.162518 166.038404 
L 107.679342 166.836606 
L 106.186901 167.563686 
L 104.691207 168.216716 
L 103.19828 168.793066 
L 101.714134 169.290415 
L 100.244745 169.70676 
L 98.796027 170.040426 
L 97.373817 170.290068 
L 95.983839 170.454682 
L 94.631692 170.533604 
L 93.322819 170.526517 
L 92.062491 170.433449 
L 90.855783 170.254776 
L 89.707553 169.991215 
L 88.622427 169.64383 
L 87.604772 169.214018 
L 86.658686 168.70351 
L 85.78798 168.114362 
L 84.996159 167.448947 
L 84.286411 166.709943 
L 83.661595 165.900326 
L 83.124226 165.023356 
L 82.676469 164.082566 
L 82.320125 163.081741 
L 82.056631 162.024914 
L 81.887046 160.916339 
L 81.812054 159.76048 
L 81.831957 158.561991 
L 81.946675 157.325699 
L 82.155746 156.05658 
L 82.458327 154.759747 
L 82.853201 153.44042 
L 83.338777 152.103911 
L 83.9131 150.755604 
L 84.573858 149.400926 
L 85.31839 148.045333 
L 86.143699 146.694283 
L 87.046459 145.353216 
L 88.023038 144.027532 
L 89.069502 142.72257 
L 90.181637 141.443584 
L 91.354966 140.195723 
L 92.584764 138.984014 
L 93.866079 137.813334 
L 95.193751 136.688398 
" style="fill:none;stroke:#1f77b4;stroke-linecap:square;stroke-width:2;"/>
   </g>
   <g id="line2d_14">
    <path clip-path="url(#pb10878055c)" d="M 204.743822 140.133191 
L 206.150687 139.127328 
L 207.587238 138.173208 
L 209.04769 137.274672 
L 210.526163 136.435339 
L 212.016704 135.658588 
L 213.51331 134.947547 
L 215.009955 134.305079 
L 216.500614 133.733771 
L 217.979283 133.235924 
L 219.440008 132.813541 
L 220.876908 132.468325 
L 222.284196 132.201665 
L 223.656207 132.014634 
L 224.987415 131.907986 
L 226.27246 131.88215 
L 227.506168 131.937231 
L 228.683571 132.073006 
L 229.799928 132.288929 
L 230.850744 132.584131 
L 231.831787 132.957422 
L 232.739108 133.407299 
L 233.569052 133.931952 
L 234.318279 134.529267 
L 234.98377 135.196839 
L 235.562847 135.931981 
L 236.053177 136.731732 
L 236.452787 137.592871 
L 236.760067 138.511932 
L 236.973779 139.485213 
L 237.093064 140.508796 
L 237.117441 141.578558 
L 237.046812 142.690193 
L 236.88146 143.839224 
L 236.622053 145.021025 
L 236.269635 146.230836 
L 235.825624 147.463786 
L 235.291808 148.714911 
L 234.670338 149.979172 
L 233.963714 151.25148 
L 233.174784 152.52671 
L 232.306723 153.799728 
L 231.363027 155.065408 
L 230.347496 156.318654 
L 229.264219 157.554419 
L 228.117558 158.767727 
L 226.91213 159.953693 
L 225.652789 161.10754 
L 224.344605 162.224624 
L 222.992848 163.300446 
L 221.602959 164.330673 
L 220.180535 165.311158 
L 218.731304 166.237952 
L 217.261101 167.107325 
L 215.775846 167.915774 
L 214.28152 168.660044 
L 212.784141 169.33714 
L 211.289736 169.944333 
L 209.804325 170.47918 
L 208.333887 170.939527 
L 206.884345 171.32352 
L 205.461534 171.629612 
L 204.071185 171.856572 
L 202.718895 172.003485 
L 201.410109 172.069761 
L 200.150098 172.055131 
L 198.943936 171.959655 
L 197.796478 171.783717 
L 196.712346 171.528026 
L 195.695904 171.193611 
L 194.751247 170.78182 
L 193.882177 170.294309 
L 193.092194 169.733043 
L 192.384478 169.10028 
L 191.761881 168.39857 
L 191.226908 167.630737 
L 190.781714 166.799874 
L 190.428091 165.909326 
L 190.167464 164.962678 
L 190.000881 163.963743 
L 189.929014 162.916543 
L 189.952152 161.825295 
L 190.070202 160.694393 
L 190.282688 159.52839 
L 190.588755 158.331982 
L 190.98717 157.109986 
L 191.47633 155.867323 
L 192.054264 154.608997 
L 192.718645 153.340073 
L 193.466798 152.065663 
L 194.295711 150.790897 
L 195.202046 149.520908 
L 196.182153 148.260811 
L 197.232086 147.015678 
L 198.347617 145.790525 
L 199.524254 144.590284 
L 200.757259 143.419788 
L 202.041668 142.283751 
L 203.372308 141.186746 
L 204.743822 140.133191 
" style="fill:none;stroke:#ff7f0e;stroke-linecap:square;stroke-width:2;"/>
   </g>
   <g id="patch_3">
    <path d="M 36 256.32 
L 36 34.56 
" style="fill:none;stroke:#000000;stroke-linecap:square;stroke-linejoin:miter;stroke-width:0.8;"/>
   </g>
   <g id="patch_4">
    <path d="M 36 256.32 
L 259.2 256.32 
" style="fill:none;stroke:#000000;stroke-linecap:square;stroke-linejoin:miter;stroke-width:0.8;"/>
   </g>
  </g>
 </g>
 <defs>
  <clipPath id="pb10878055c">
   <rect height="221.76" width="223.2" x="36" y="34.56"/>
  </clipPath>
 </defs>
</svg>
