<?xml version="1.0" encoding="utf-8" standalone="no"?>
<!DOCTYPE svg PUBLIC "-//W3C//DTD SVG 1.1//EN"
  "http://www.w3.org/Graphics/SVG/1.1/DTD/svg11.dtd">
<!-- Created with matplotlib (https://matplotlib.org/) -->
<svg height="288pt" version="1.1" viewBox="0 0 576 288" width="576pt" xmlns="http://www.w3.org/2000/svg" xmlns:xlink="http://www.w3.org/1999/xlink">
 <defs>
  <style type="text/css">
*{stroke-linecap:butt;stroke-linejoin:round;}
  </style>
 </defs>
 <g id="figure_1">
  <g id="patch_1">
   <path d="M 0 288 
L 576 288 
L 576 0 
L 0 0 
z
" style="fill:#ffffff;"/>
  </g>
  <g id="axes_1">
   <g id="patch_2">
    <path d="M 72 256.32 
L 274.909091 256.32 
L 274.909091 34.56 
L 72 34.56 
z
" style="fill:#ffffff;"/>
   </g>
   <g id="PathCollection_1">
    <defs>
     <path d="M 0 3 
C 0.795609 3 1.55874 2.683901 2.12132 2.12132 
C 2.683901 1.55874 3 0.795609 3 0 
C 3 -0.795609 2.683901 -1.55874 2.12132 -2.12132 
C 1.55874 -2.683901 0.795609 -3 0 -3 
C -0.795609 -3 -1.55874 -2.683901 -2.12132 -2.12132 
C -2.683901 -1.55874 -3 -0.795609 -3 0 
C -3 0.795609 -2.683901 1.55874 -2.12132 2.12132 
C -1.55874 2.683901 -0.795609 3 0 3 
z
" id="mc28380667c" style="stroke:#ffffff;"/>
    </defs>
    <g clip-path="url(#pb4560ec7c0)">
     <use style="fill:#1f77b4;stroke:#ffffff;" x="154.354595" xlink:href="#mc28380667c" y="119.747048"/>
     <use style="fill:#1f77b4;stroke:#ffffff;" x="155.763285" xlink:href="#mc28380667c" y="171.3181"/>
     <use style="fill:#1f77b4;stroke:#ffffff;" x="138.142099" xlink:href="#mc28380667c" y="122.118266"/>
     <use style="fill:#1f77b4;stroke:#ffffff;" x="194.021286" xlink:href="#mc28380667c" y="110.261525"/>
     <use style="fill:#1f77b4;stroke:#ffffff;" x="130.982732" xlink:href="#mc28380667c" y="182.564989"/>
     <use style="fill:#1f77b4;stroke:#ffffff;" x="158.455109" xlink:href="#mc28380667c" y="138.75559"/>
     <use style="fill:#1f77b4;stroke:#ffffff;" x="124.440412" xlink:href="#mc28380667c" y="184.286002"/>
     <use style="fill:#1f77b4;stroke:#ffffff;" x="157.743846" xlink:href="#mc28380667c" y="146.654053"/>
     <use style="fill:#1f77b4;stroke:#ffffff;" x="81.448404" xlink:href="#mc28380667c" y="167.483384"/>
     <use style="fill:#1f77b4;stroke:#ffffff;" x="122.525353" xlink:href="#mc28380667c" y="164.509078"/>
     <use style="fill:#1f77b4;stroke:#ffffff;" x="115.725946" xlink:href="#mc28380667c" y="147.935101"/>
     <use style="fill:#1f77b4;stroke:#ffffff;" x="149.720961" xlink:href="#mc28380667c" y="120.603775"/>
     <use style="fill:#1f77b4;stroke:#ffffff;" x="174.738164" xlink:href="#mc28380667c" y="133.963904"/>
     <use style="fill:#1f77b4;stroke:#ffffff;" x="143.504317" xlink:href="#mc28380667c" y="181.934671"/>
     <use style="fill:#1f77b4;stroke:#ffffff;" x="156.696483" xlink:href="#mc28380667c" y="156.74574"/>
     <use style="fill:#1f77b4;stroke:#ffffff;" x="179.306825" xlink:href="#mc28380667c" y="175.120911"/>
     <use style="fill:#1f77b4;stroke:#ffffff;" x="184.882006" xlink:href="#mc28380667c" y="125.13471"/>
     <use style="fill:#1f77b4;stroke:#ffffff;" x="129.852192" xlink:href="#mc28380667c" y="169.028681"/>
     <use style="fill:#1f77b4;stroke:#ffffff;" x="137.67782" xlink:href="#mc28380667c" y="142.965195"/>
     <use style="fill:#1f77b4;stroke:#ffffff;" x="158.129229" xlink:href="#mc28380667c" y="131.075464"/>
    </g>
   </g>
   <g id="PathCollection_2">
    <defs>
     <path d="M 0 3 
C 0.795609 3 1.55874 2.683901 2.12132 2.12132 
C 2.683901 1.55874 3 0.795609 3 0 
C 3 -0.795609 2.683901 -1.55874 2.12132 -2.12132 
C 1.55874 -2.683901 0.795609 -3 0 -3 
C -0.795609 -3 -1.55874 -2.683901 -2.12132 -2.12132 
C -2.683901 -1.55874 -3 -0.795609 -3 0 
C -3 0.795609 -2.683901 1.55874 -2.12132 2.12132 
C -1.55874 2.683901 -0.795609 3 0 3 
z
" id="md3d16f8a51" style="stroke:#ffffff;"/>
    </defs>
    <g clip-path="url(#pb4560ec7c0)">
     <use style="fill:#ff7f0e;stroke:#ffffff;" x="262.694941" xlink:href="#md3d16f8a51" y="153.715314"/>
     <use style="fill:#ff7f0e;stroke:#ffffff;" x="230.748551" xlink:href="#md3d16f8a51" y="136.959989"/>
     <use style="fill:#ff7f0e;stroke:#ffffff;" x="223.576262" xlink:href="#md3d16f8a51" y="156.524979"/>
     <use style="fill:#ff7f0e;stroke:#ffffff;" x="181.444674" xlink:href="#md3d16f8a51" y="189.668551"/>
     <use style="fill:#ff7f0e;stroke:#ffffff;" x="188.038961" xlink:href="#md3d16f8a51" y="144.450392"/>
     <use style="fill:#ff7f0e;stroke:#ffffff;" x="264.362483" xlink:href="#md3d16f8a51" y="137.470297"/>
     <use style="fill:#ff7f0e;stroke:#ffffff;" x="206.144686" xlink:href="#md3d16f8a51" y="190.594082"/>
     <use style="fill:#ff7f0e;stroke:#ffffff;" x="217.798165" xlink:href="#md3d16f8a51" y="139.424843"/>
     <use style="fill:#ff7f0e;stroke:#ffffff;" x="194.765318" xlink:href="#md3d16f8a51" y="147.950281"/>
     <use style="fill:#ff7f0e;stroke:#ffffff;" x="190.932099" xlink:href="#md3d16f8a51" y="166.289286"/>
     <use style="fill:#ff7f0e;stroke:#ffffff;" x="235.406694" xlink:href="#md3d16f8a51" y="127.624044"/>
     <use style="fill:#ff7f0e;stroke:#ffffff;" x="237.929332" xlink:href="#md3d16f8a51" y="169.986779"/>
     <use style="fill:#ff7f0e;stroke:#ffffff;" x="195.141608" xlink:href="#md3d16f8a51" y="167.627285"/>
     <use style="fill:#ff7f0e;stroke:#ffffff;" x="231.288672" xlink:href="#md3d16f8a51" y="153.494704"/>
     <use style="fill:#ff7f0e;stroke:#ffffff;" x="249.505123" xlink:href="#md3d16f8a51" y="126.123626"/>
     <use style="fill:#ff7f0e;stroke:#ffffff;" x="229.865522" xlink:href="#md3d16f8a51" y="167.573514"/>
     <use style="fill:#ff7f0e;stroke:#ffffff;" x="219.966493" xlink:href="#md3d16f8a51" y="183.102409"/>
     <use style="fill:#ff7f0e;stroke:#ffffff;" x="257.563223" xlink:href="#md3d16f8a51" y="100.285918"/>
     <use style="fill:#ff7f0e;stroke:#ffffff;" x="238.381646" xlink:href="#md3d16f8a51" y="144.136171"/>
     <use style="fill:#ff7f0e;stroke:#ffffff;" x="261.996404" xlink:href="#md3d16f8a51" y="151.838405"/>
    </g>
   </g>
   <g id="matplotlib.axis_1">
    <g id="xtick_1">
     <g id="line2d_1">
      <defs>
       <path d="M 0 0 
L 0 3.5 
" id="m34e039f6b5" style="stroke:#000000;stroke-width:0.8;"/>
      </defs>
      <g>
       <use style="stroke:#000000;stroke-width:0.8;" x="102.689574" xlink:href="#m34e039f6b5" y="256.32"/>
      </g>
     </g>
     <g id="text_1">
      <!-- −4 -->
      <defs>
       <path d="M 10.59375 35.5 
L 73.1875 35.5 
L 73.1875 27.203125 
L 10.59375 27.203125 
z
" id="DejaVuSans-8722"/>
       <path d="M 37.796875 64.3125 
L 12.890625 25.390625 
L 37.796875 25.390625 
z
M 35.203125 72.90625 
L 47.609375 72.90625 
L 47.609375 25.390625 
L 58.015625 25.390625 
L 58.015625 17.1875 
L 47.609375 17.1875 
L 47.609375 0 
L 37.796875 0 
L 37.796875 17.1875 
L 4.890625 17.1875 
L 4.890625 26.703125 
z
" id="DejaVuSans-52"/>
      </defs>
      <g transform="translate(96.792699 269.39875)scale(0.08 -0.08)">
       <use xlink:href="#DejaVuSans-8722"/>
       <use x="83.789062" xlink:href="#DejaVuSans-52"/>
      </g>
     </g>
    </g>
    <g id="xtick_2">
     <g id="line2d_2">
      <g>
       <use style="stroke:#000000;stroke-width:0.8;" x="145.011744" xlink:href="#m34e039f6b5" y="256.32"/>
      </g>
     </g>
     <g id="text_2">
      <!-- −2 -->
      <defs>
       <path d="M 19.1875 8.296875 
L 53.609375 8.296875 
L 53.609375 0 
L 7.328125 0 
L 7.328125 8.296875 
Q 12.9375 14.109375 22.625 23.890625 
Q 32.328125 33.6875 34.8125 36.53125 
Q 39.546875 41.84375 41.421875 45.53125 
Q 43.3125 49.21875 43.3125 52.78125 
Q 43.3125 58.59375 39.234375 62.25 
Q 35.15625 65.921875 28.609375 65.921875 
Q 23.96875 65.921875 18.8125 64.3125 
Q 13.671875 62.703125 7.8125 59.421875 
L 7.8125 69.390625 
Q 13.765625 71.78125 18.9375 73 
Q 24.125 74.21875 28.421875 74.21875 
Q 39.75 74.21875 46.484375 68.546875 
Q 53.21875 62.890625 53.21875 53.421875 
Q 53.21875 48.921875 51.53125 44.890625 
Q 49.859375 40.875 45.40625 35.40625 
Q 44.1875 33.984375 37.640625 27.21875 
Q 31.109375 20.453125 19.1875 8.296875 
z
" id="DejaVuSans-50"/>
      </defs>
      <g transform="translate(139.114869 269.39875)scale(0.08 -0.08)">
       <use xlink:href="#DejaVuSans-8722"/>
       <use x="83.789062" xlink:href="#DejaVuSans-50"/>
      </g>
     </g>
    </g>
    <g id="xtick_3">
     <g id="line2d_3">
      <g>
       <use style="stroke:#000000;stroke-width:0.8;" x="187.333914" xlink:href="#m34e039f6b5" y="256.32"/>
      </g>
     </g>
     <g id="text_3">
      <!-- 0 -->
      <defs>
       <path d="M 31.78125 66.40625 
Q 24.171875 66.40625 20.328125 58.90625 
Q 16.5 51.421875 16.5 36.375 
Q 16.5 21.390625 20.328125 13.890625 
Q 24.171875 6.390625 31.78125 6.390625 
Q 39.453125 6.390625 43.28125 13.890625 
Q 47.125 21.390625 47.125 36.375 
Q 47.125 51.421875 43.28125 58.90625 
Q 39.453125 66.40625 31.78125 66.40625 
z
M 31.78125 74.21875 
Q 44.046875 74.21875 50.515625 64.515625 
Q 56.984375 54.828125 56.984375 36.375 
Q 56.984375 17.96875 50.515625 8.265625 
Q 44.046875 -1.421875 31.78125 -1.421875 
Q 19.53125 -1.421875 13.0625 8.265625 
Q 6.59375 17.96875 6.59375 36.375 
Q 6.59375 54.828125 13.0625 64.515625 
Q 19.53125 74.21875 31.78125 74.21875 
z
" id="DejaVuSans-48"/>
      </defs>
      <g transform="translate(184.788914 269.39875)scale(0.08 -0.08)">
       <use xlink:href="#DejaVuSans-48"/>
      </g>
     </g>
    </g>
    <g id="xtick_4">
     <g id="line2d_4">
      <g>
       <use style="stroke:#000000;stroke-width:0.8;" x="229.656084" xlink:href="#m34e039f6b5" y="256.32"/>
      </g>
     </g>
     <g id="text_4">
      <!-- 2 -->
      <g transform="translate(227.111084 269.39875)scale(0.08 -0.08)">
       <use xlink:href="#DejaVuSans-50"/>
      </g>
     </g>
    </g>
    <g id="xtick_5">
     <g id="line2d_5">
      <g>
       <use style="stroke:#000000;stroke-width:0.8;" x="271.978254" xlink:href="#m34e039f6b5" y="256.32"/>
      </g>
     </g>
     <g id="text_5">
      <!-- 4 -->
      <g transform="translate(269.433254 269.39875)scale(0.08 -0.08)">
       <use xlink:href="#DejaVuSans-52"/>
      </g>
     </g>
    </g>
    <g id="text_6">
     <!-- $\Delta \mathbf{\mu}$ ($TDR_1$) -->
     <defs>
      <path d="M 34.1875 63.1875 
L 14.15625 8.203125 
L 54.25 8.203125 
z
M 0.78125 0 
L 28.609375 72.90625 
L 39.796875 72.90625 
L 67.578125 0 
z
" id="DejaVuSans-916"/>
      <path d="M 8.5 -20.90625 
L 8.5 54.6875 
L 26.125 54.6875 
L 26.125 22.90625 
Q 26.125 17.234375 28.5625 14.46875 
Q 31 11.71875 35.984375 11.71875 
Q 41.015625 11.71875 43.453125 14.46875 
Q 45.90625 17.234375 45.90625 22.90625 
L 45.90625 54.6875 
L 63.484375 54.6875 
L 63.484375 18.109375 
Q 63.484375 14.65625 64.28125 13.28125 
Q 65.09375 11.921875 67 11.921875 
Q 67.875 11.921875 68.671875 12.15625 
Q 69.484375 12.40625 70.40625 12.984375 
L 70.40625 0.78125 
Q 67.828125 -0.34375 65.546875 -0.875 
Q 63.28125 -1.421875 61.078125 -1.421875 
Q 56.734375 -1.421875 53.96875 0.40625 
Q 51.21875 2.25 49.515625 6.296875 
Q 47.21875 2.4375 43.921875 0.5 
Q 40.625 -1.421875 36.28125 -1.421875 
Q 32.671875 -1.421875 30.125 -0.265625 
Q 27.59375 0.875 26.125 3.21875 
L 26.125 -20.90625 
z
" id="DejaVuSans-Bold-956"/>
      <path id="DejaVuSans-32"/>
      <path d="M 31 75.875 
Q 24.46875 64.65625 21.28125 53.65625 
Q 18.109375 42.671875 18.109375 31.390625 
Q 18.109375 20.125 21.3125 9.0625 
Q 24.515625 -2 31 -13.1875 
L 23.1875 -13.1875 
Q 15.875 -1.703125 12.234375 9.375 
Q 8.59375 20.453125 8.59375 31.390625 
Q 8.59375 42.28125 12.203125 53.3125 
Q 15.828125 64.359375 23.1875 75.875 
z
" id="DejaVuSans-40"/>
      <path d="M 5.90625 72.90625 
L 67.578125 72.90625 
L 66.015625 64.59375 
L 39.984375 64.59375 
L 27.484375 0 
L 17.578125 0 
L 30.078125 64.59375 
L 4.296875 64.59375 
z
" id="DejaVuSans-Oblique-84"/>
      <path d="M 16.890625 72.90625 
L 38.09375 72.90625 
Q 54.984375 72.90625 63.59375 65.75 
Q 72.21875 58.59375 72.21875 44.484375 
Q 72.21875 35.15625 68.9375 26.53125 
Q 65.671875 17.921875 59.90625 12.015625 
Q 54.109375 5.953125 45.171875 2.96875 
Q 36.234375 0 24.03125 0 
L 2.6875 0 
z
M 25.203125 64.796875 
L 14.203125 8.109375 
L 27.09375 8.109375 
Q 43.65625 8.109375 52.734375 17.625 
Q 61.8125 27.15625 61.8125 44.484375 
Q 61.8125 54.984375 55.953125 59.890625 
Q 50.09375 64.796875 37.59375 64.796875 
z
" id="DejaVuSans-Oblique-68"/>
      <path d="M 25.203125 64.796875 
L 20.21875 38.921875 
L 32.90625 38.921875 
Q 40.375 38.921875 44.984375 43.046875 
Q 49.609375 47.171875 49.609375 53.8125 
Q 49.609375 59.125 46.5 61.953125 
Q 43.40625 64.796875 37.59375 64.796875 
z
M 43.3125 35.015625 
Q 46.4375 34.28125 48.515625 31.390625 
Q 50.59375 28.515625 53.328125 19.921875 
L 59.515625 0 
L 49.125 0 
L 43.40625 18.703125 
Q 41.21875 25.921875 38.328125 28.359375 
Q 35.453125 30.8125 29.5 30.8125 
L 18.609375 30.8125 
L 12.59375 0 
L 2.6875 0 
L 16.890625 72.90625 
L 39.109375 72.90625 
Q 49.21875 72.90625 54.609375 68.328125 
Q 60.015625 63.765625 60.015625 55.171875 
Q 60.015625 47.5625 55.421875 41.984375 
Q 50.828125 36.421875 43.3125 35.015625 
z
" id="DejaVuSans-Oblique-82"/>
      <path d="M 12.40625 8.296875 
L 28.515625 8.296875 
L 28.515625 63.921875 
L 10.984375 60.40625 
L 10.984375 69.390625 
L 28.421875 72.90625 
L 38.28125 72.90625 
L 38.28125 8.296875 
L 54.390625 8.296875 
L 54.390625 0 
L 12.40625 0 
z
" id="DejaVuSans-49"/>
      <path d="M 8.015625 75.875 
L 15.828125 75.875 
Q 23.140625 64.359375 26.78125 53.3125 
Q 30.421875 42.28125 30.421875 31.390625 
Q 30.421875 20.453125 26.78125 9.375 
Q 23.140625 -1.703125 15.828125 -13.1875 
L 8.015625 -13.1875 
Q 14.5 -2 17.703125 9.0625 
Q 20.90625 20.125 20.90625 31.390625 
Q 20.90625 42.671875 17.703125 53.65625 
Q 14.5 64.65625 8.015625 75.875 
z
" id="DejaVuSans-41"/>
     </defs>
     <g transform="translate(153.174545 281.1425)scale(0.08 -0.08)">
      <use transform="translate(0 0.125)" xlink:href="#DejaVuSans-916"/>
      <use transform="translate(68.408203 0.125)" xlink:href="#DejaVuSans-Bold-956"/>
      <use transform="translate(141.992188 0.125)" xlink:href="#DejaVuSans-32"/>
      <use transform="translate(173.779297 0.125)" xlink:href="#DejaVuSans-40"/>
      <use transform="translate(212.792969 0.125)" xlink:href="#DejaVuSans-Oblique-84"/>
      <use transform="translate(273.876953 0.125)" xlink:href="#DejaVuSans-Oblique-68"/>
      <use transform="translate(350.878906 0.125)" xlink:href="#DejaVuSans-Oblique-82"/>
      <use transform="translate(420.361328 -16.28125)scale(0.7)" xlink:href="#DejaVuSans-49"/>
      <use transform="translate(467.631836 0.125)" xlink:href="#DejaVuSans-41"/>
     </g>
    </g>
   </g>
   <g id="matplotlib.axis_2">
    <g id="ytick_1">
     <g id="line2d_6">
      <defs>
       <path d="M 0 0 
L -3.5 0 
" id="mc91bee6055" style="stroke:#000000;stroke-width:0.8;"/>
      </defs>
      <g>
       <use style="stroke:#000000;stroke-width:0.8;" x="72" xlink:href="#mc91bee6055" y="234.839151"/>
      </g>
     </g>
     <g id="text_7">
      <!-- −4 -->
      <g transform="translate(53.20625 237.878526)scale(0.08 -0.08)">
       <use xlink:href="#DejaVuSans-8722"/>
       <use x="83.789062" xlink:href="#DejaVuSans-52"/>
      </g>
     </g>
    </g>
    <g id="ytick_2">
     <g id="line2d_7">
      <g>
       <use style="stroke:#000000;stroke-width:0.8;" x="72" xlink:href="#mc91bee6055" y="192.516981"/>
      </g>
     </g>
     <g id="text_8">
      <!-- −2 -->
      <g transform="translate(53.20625 195.556356)scale(0.08 -0.08)">
       <use xlink:href="#DejaVuSans-8722"/>
       <use x="83.789062" xlink:href="#DejaVuSans-50"/>
      </g>
     </g>
    </g>
    <g id="ytick_3">
     <g id="line2d_8">
      <g>
       <use style="stroke:#000000;stroke-width:0.8;" x="72" xlink:href="#mc91bee6055" y="150.19481"/>
      </g>
     </g>
     <g id="text_9">
      <!-- 0 -->
      <g transform="translate(59.91 153.234185)scale(0.08 -0.08)">
       <use xlink:href="#DejaVuSans-48"/>
      </g>
     </g>
    </g>
    <g id="ytick_4">
     <g id="line2d_9">
      <g>
       <use style="stroke:#000000;stroke-width:0.8;" x="72" xlink:href="#mc91bee6055" y="107.87264"/>
      </g>
     </g>
     <g id="text_10">
      <!-- 2 -->
      <g transform="translate(59.91 110.912015)scale(0.08 -0.08)">
       <use xlink:href="#DejaVuSans-50"/>
      </g>
     </g>
    </g>
    <g id="ytick_5">
     <g id="line2d_10">
      <g>
       <use style="stroke:#000000;stroke-width:0.8;" x="72" xlink:href="#mc91bee6055" y="65.55047"/>
      </g>
     </g>
     <g id="text_11">
      <!-- 4 -->
      <g transform="translate(59.91 68.589845)scale(0.08 -0.08)">
       <use xlink:href="#DejaVuSans-52"/>
      </g>
     </g>
    </g>
    <g id="text_12">
     <!-- $TDR_2$ -->
     <g transform="translate(47.5425 155.64)rotate(-90)scale(0.08 -0.08)">
      <use transform="translate(0 0.09375)" xlink:href="#DejaVuSans-Oblique-84"/>
      <use transform="translate(61.083984 0.09375)" xlink:href="#DejaVuSans-Oblique-68"/>
      <use transform="translate(138.085938 0.09375)" xlink:href="#DejaVuSans-Oblique-82"/>
      <use transform="translate(207.568359 -16.3125)scale(0.7)" xlink:href="#DejaVuSans-50"/>
     </g>
    </g>
   </g>
   <g id="line2d_11">
    <path clip-path="url(#pb4560ec7c0)" d="M 136.029188 135.664707 
L 137.557969 134.464339 
L 139.126403 133.324958 
L 140.728174 132.251153 
L 142.356832 131.247247 
L 144.00582 130.317283 
L 145.668498 129.465004 
L 147.33817 128.693844 
L 149.008113 128.006907 
L 150.671604 127.40696 
L 152.321943 126.896417 
L 153.952485 126.477335 
L 155.556666 126.151402 
L 157.128025 125.919929 
L 158.660235 125.783849 
L 160.147126 125.74371 
L 161.582711 125.799674 
L 162.96121 125.951514 
L 164.277072 126.19862 
L 165.524998 126.539996 
L 166.699964 126.974269 
L 167.797237 127.499688 
L 168.812401 128.11414 
L 169.741367 128.815149 
L 170.580394 129.599893 
L 171.326105 130.465211 
L 171.975496 131.407621 
L 172.525952 132.423326 
L 172.975257 133.508236 
L 173.321603 134.657985 
L 173.563593 135.867941 
L 173.700254 137.133232 
L 173.731036 138.448765 
L 173.655815 139.809241 
L 173.474892 141.209182 
L 173.188998 142.642952 
L 172.799283 144.104777 
L 172.307316 145.588771 
L 171.715079 147.088958 
L 171.024956 148.599298 
L 170.239726 150.113709 
L 169.362551 151.626092 
L 168.396962 153.130359 
L 167.346849 154.620452 
L 166.216439 156.090371 
L 165.010284 157.534197 
L 163.733242 158.946116 
L 162.390453 160.320443 
L 160.987325 161.651644 
L 159.529509 162.934359 
L 158.022874 164.163423 
L 156.473486 165.333886 
L 154.887585 166.441037 
L 153.271557 167.480415 
L 151.631908 168.447838 
L 149.975241 169.339408 
L 148.308227 170.151536 
L 146.637578 170.880952 
L 144.970022 171.524718 
L 143.312272 172.080243 
L 141.671005 172.545289 
L 140.052829 172.917984 
L 138.464259 173.196828 
L 136.911693 173.380697 
L 135.401383 173.46885 
L 133.939408 173.460934 
L 132.531657 173.35698 
L 131.183798 173.157407 
L 129.901259 172.863017 
L 128.689203 172.474998 
L 127.552511 171.99491 
L 126.49576 171.424687 
L 125.523206 170.766625 
L 124.638764 170.023375 
L 123.845996 169.197928 
L 123.148093 168.293609 
L 122.547868 167.314059 
L 122.047735 166.263222 
L 121.649709 165.145329 
L 121.355393 163.964883 
L 121.165972 162.726636 
L 121.082208 161.435573 
L 121.104439 160.096895 
L 121.232576 158.715991 
L 121.466102 157.298422 
L 121.804076 155.849895 
L 122.245139 154.376244 
L 122.787514 152.883402 
L 123.429018 151.37738 
L 124.167066 149.864243 
L 124.998687 148.350084 
L 125.920533 146.840999 
L 126.928892 145.343065 
L 128.019702 143.862313 
L 129.188573 142.404707 
L 130.430797 140.976115 
L 131.741373 139.582291 
L 133.115022 138.228845 
L 134.546215 136.921229 
L 136.029188 135.664707 
" style="fill:none;stroke:#1f77b4;stroke-linecap:square;stroke-width:2;"/>
   </g>
   <g id="line2d_12">
    <path clip-path="url(#pb4560ec7c0)" d="M 216.071367 139.512443 
L 217.642795 138.388923 
L 219.247382 137.323198 
L 220.878666 136.319559 
L 222.530079 135.382047 
L 224.194971 134.514438 
L 225.866638 133.720225 
L 227.538349 133.002606 
L 229.203373 132.364472 
L 230.855004 131.80839 
L 232.486593 131.336601 
L 234.09157 130.951004 
L 235.663472 130.653151 
L 237.195969 130.444243 
L 238.682891 130.325121 
L 240.11825 130.296263 
L 241.496268 130.357787 
L 242.811394 130.509444 
L 244.058333 130.750624 
L 245.232065 131.080355 
L 246.327862 131.497311 
L 247.341314 131.999812 
L 248.268339 132.585834 
L 249.105204 133.253018 
L 249.848539 133.998678 
L 250.495351 134.81981 
L 251.043037 135.713109 
L 251.489389 136.674978 
L 251.832612 137.701543 
L 252.071323 138.788671 
L 252.204561 139.931984 
L 252.231789 141.126878 
L 252.152898 142.368543 
L 251.968205 143.651978 
L 251.678455 144.972016 
L 251.284813 146.323341 
L 250.788865 147.700512 
L 250.192608 149.097983 
L 249.498443 150.510128 
L 248.709165 151.931259 
L 247.827952 153.355656 
L 246.858353 154.777581 
L 245.804271 156.191311 
L 244.669951 157.591151 
L 243.459961 158.971465 
L 242.179173 160.326696 
L 240.832743 161.651387 
L 239.426095 162.940202 
L 237.964891 164.187953 
L 236.455016 165.389616 
L 234.902549 166.540351 
L 233.313741 167.635525 
L 231.69499 168.670728 
L 230.052815 169.641792 
L 228.393828 170.544807 
L 226.724708 171.376137 
L 225.052177 172.132433 
L 223.382969 172.810652 
L 221.723806 173.408061 
L 220.081369 173.922255 
L 218.462271 174.351164 
L 216.873031 174.693061 
L 215.32005 174.946569 
L 213.80958 175.110666 
L 212.347703 175.184694 
L 210.940306 175.168353 
L 209.593057 175.061709 
L 208.311379 174.865191 
L 207.100434 174.579592 
L 205.965097 174.20606 
L 204.909941 173.7461 
L 203.939214 173.201565 
L 203.056825 172.574646 
L 202.266327 171.867868 
L 201.570903 171.084077 
L 200.973354 170.22643 
L 200.476084 169.298379 
L 200.081098 168.303661 
L 199.789984 167.246282 
L 199.603916 166.1305 
L 199.523643 164.960808 
L 199.549487 163.741914 
L 199.681345 162.478728 
L 199.918687 161.176336 
L 200.260555 159.839982 
L 200.705574 158.475047 
L 201.251951 157.087027 
L 201.897487 155.681511 
L 202.639582 154.26416 
L 203.475248 152.840679 
L 204.401121 151.416801 
L 205.413471 149.99826 
L 206.508223 148.590766 
L 207.680969 147.199989 
L 208.926985 145.831527 
L 210.241256 144.490891 
L 211.618488 143.18348 
L 213.053136 141.914558 
L 214.539424 140.689234 
L 216.071367 139.512443 
" style="fill:none;stroke:#ff7f0e;stroke-linecap:square;stroke-width:2;"/>
   </g>
   <g id="patch_3">
    <path d="M 72 256.32 
L 72 34.56 
" style="fill:none;stroke:#000000;stroke-linecap:square;stroke-linejoin:miter;stroke-width:0.8;"/>
   </g>
   <g id="patch_4">
    <path d="M 72 256.32 
L 274.909091 256.32 
" style="fill:none;stroke:#000000;stroke-linecap:square;stroke-linejoin:miter;stroke-width:0.8;"/>
   </g>
  </g>
  <g id="axes_2">
   <g id="patch_5">
    <path d="M 315.490909 256.32 
L 518.4 256.32 
L 518.4 34.56 
L 315.490909 34.56 
z
" style="fill:#ffffff;"/>
   </g>
   <g id="matplotlib.axis_3">
    <g id="xtick_6">
     <g id="line2d_13">
      <g>
       <use style="stroke:#000000;stroke-width:0.8;" x="324.71405" xlink:href="#m34e039f6b5" y="256.32"/>
      </g>
     </g>
     <g id="text_13">
      <!-- −20 -->
      <g transform="translate(316.272175 269.39875)scale(0.08 -0.08)">
       <use xlink:href="#DejaVuSans-8722"/>
       <use x="83.789062" xlink:href="#DejaVuSans-50"/>
       <use x="147.412109" xlink:href="#DejaVuSans-48"/>
      </g>
     </g>
    </g>
    <g id="xtick_7">
     <g id="line2d_14">
      <g>
       <use style="stroke:#000000;stroke-width:0.8;" x="370.830905" xlink:href="#m34e039f6b5" y="256.32"/>
      </g>
     </g>
     <g id="text_14">
      <!-- −10 -->
      <g transform="translate(362.38903 269.39875)scale(0.08 -0.08)">
       <use xlink:href="#DejaVuSans-8722"/>
       <use x="83.789062" xlink:href="#DejaVuSans-49"/>
       <use x="147.412109" xlink:href="#DejaVuSans-48"/>
      </g>
     </g>
    </g>
    <g id="xtick_8">
     <g id="line2d_15">
      <g>
       <use style="stroke:#000000;stroke-width:0.8;" x="416.94776" xlink:href="#m34e039f6b5" y="256.32"/>
      </g>
     </g>
     <g id="text_15">
      <!-- 0 -->
      <g transform="translate(414.40276 269.39875)scale(0.08 -0.08)">
       <use xlink:href="#DejaVuSans-48"/>
      </g>
     </g>
    </g>
    <g id="xtick_9">
     <g id="line2d_16">
      <g>
       <use style="stroke:#000000;stroke-width:0.8;" x="463.064616" xlink:href="#m34e039f6b5" y="256.32"/>
      </g>
     </g>
     <g id="text_16">
      <!-- 10 -->
      <g transform="translate(457.974616 269.39875)scale(0.08 -0.08)">
       <use xlink:href="#DejaVuSans-49"/>
       <use x="63.623047" xlink:href="#DejaVuSans-48"/>
      </g>
     </g>
    </g>
    <g id="xtick_10">
     <g id="line2d_17">
      <g>
       <use style="stroke:#000000;stroke-width:0.8;" x="509.181471" xlink:href="#m34e039f6b5" y="256.32"/>
      </g>
     </g>
     <g id="text_17">
      <!-- 20 -->
      <g transform="translate(504.091471 269.39875)scale(0.08 -0.08)">
       <use xlink:href="#DejaVuSans-50"/>
       <use x="63.623047" xlink:href="#DejaVuSans-48"/>
      </g>
     </g>
    </g>
    <g id="text_18">
     <!-- Discrimination axis -->
     <defs>
      <path d="M 19.671875 64.796875 
L 19.671875 8.109375 
L 31.59375 8.109375 
Q 46.6875 8.109375 53.6875 14.9375 
Q 60.6875 21.78125 60.6875 36.53125 
Q 60.6875 51.171875 53.6875 57.984375 
Q 46.6875 64.796875 31.59375 64.796875 
z
M 9.8125 72.90625 
L 30.078125 72.90625 
Q 51.265625 72.90625 61.171875 64.09375 
Q 71.09375 55.28125 71.09375 36.53125 
Q 71.09375 17.671875 61.125 8.828125 
Q 51.171875 0 30.078125 0 
L 9.8125 0 
z
" id="DejaVuSans-68"/>
      <path d="M 9.421875 54.6875 
L 18.40625 54.6875 
L 18.40625 0 
L 9.421875 0 
z
M 9.421875 75.984375 
L 18.40625 75.984375 
L 18.40625 64.59375 
L 9.421875 64.59375 
z
" id="DejaVuSans-105"/>
      <path d="M 44.28125 53.078125 
L 44.28125 44.578125 
Q 40.484375 46.53125 36.375 47.5 
Q 32.28125 48.484375 27.875 48.484375 
Q 21.1875 48.484375 17.84375 46.4375 
Q 14.5 44.390625 14.5 40.28125 
Q 14.5 37.15625 16.890625 35.375 
Q 19.28125 33.59375 26.515625 31.984375 
L 29.59375 31.296875 
Q 39.15625 29.25 43.1875 25.515625 
Q 47.21875 21.78125 47.21875 15.09375 
Q 47.21875 7.46875 41.1875 3.015625 
Q 35.15625 -1.421875 24.609375 -1.421875 
Q 20.21875 -1.421875 15.453125 -0.5625 
Q 10.6875 0.296875 5.421875 2 
L 5.421875 11.28125 
Q 10.40625 8.6875 15.234375 7.390625 
Q 20.0625 6.109375 24.8125 6.109375 
Q 31.15625 6.109375 34.5625 8.28125 
Q 37.984375 10.453125 37.984375 14.40625 
Q 37.984375 18.0625 35.515625 20.015625 
Q 33.0625 21.96875 24.703125 23.78125 
L 21.578125 24.515625 
Q 13.234375 26.265625 9.515625 29.90625 
Q 5.8125 33.546875 5.8125 39.890625 
Q 5.8125 47.609375 11.28125 51.796875 
Q 16.75 56 26.8125 56 
Q 31.78125 56 36.171875 55.265625 
Q 40.578125 54.546875 44.28125 53.078125 
z
" id="DejaVuSans-115"/>
      <path d="M 48.78125 52.59375 
L 48.78125 44.1875 
Q 44.96875 46.296875 41.140625 47.34375 
Q 37.3125 48.390625 33.40625 48.390625 
Q 24.65625 48.390625 19.8125 42.84375 
Q 14.984375 37.3125 14.984375 27.296875 
Q 14.984375 17.28125 19.8125 11.734375 
Q 24.65625 6.203125 33.40625 6.203125 
Q 37.3125 6.203125 41.140625 7.25 
Q 44.96875 8.296875 48.78125 10.40625 
L 48.78125 2.09375 
Q 45.015625 0.34375 40.984375 -0.53125 
Q 36.96875 -1.421875 32.421875 -1.421875 
Q 20.0625 -1.421875 12.78125 6.34375 
Q 5.515625 14.109375 5.515625 27.296875 
Q 5.515625 40.671875 12.859375 48.328125 
Q 20.21875 56 33.015625 56 
Q 37.15625 56 41.109375 55.140625 
Q 45.0625 54.296875 48.78125 52.59375 
z
" id="DejaVuSans-99"/>
      <path d="M 41.109375 46.296875 
Q 39.59375 47.171875 37.8125 47.578125 
Q 36.03125 48 33.890625 48 
Q 26.265625 48 22.1875 43.046875 
Q 18.109375 38.09375 18.109375 28.8125 
L 18.109375 0 
L 9.078125 0 
L 9.078125 54.6875 
L 18.109375 54.6875 
L 18.109375 46.1875 
Q 20.953125 51.171875 25.484375 53.578125 
Q 30.03125 56 36.53125 56 
Q 37.453125 56 38.578125 55.875 
Q 39.703125 55.765625 41.0625 55.515625 
z
" id="DejaVuSans-114"/>
      <path d="M 52 44.1875 
Q 55.375 50.25 60.0625 53.125 
Q 64.75 56 71.09375 56 
Q 79.640625 56 84.28125 50.015625 
Q 88.921875 44.046875 88.921875 33.015625 
L 88.921875 0 
L 79.890625 0 
L 79.890625 32.71875 
Q 79.890625 40.578125 77.09375 44.375 
Q 74.3125 48.1875 68.609375 48.1875 
Q 61.625 48.1875 57.5625 43.546875 
Q 53.515625 38.921875 53.515625 30.90625 
L 53.515625 0 
L 44.484375 0 
L 44.484375 32.71875 
Q 44.484375 40.625 41.703125 44.40625 
Q 38.921875 48.1875 33.109375 48.1875 
Q 26.21875 48.1875 22.15625 43.53125 
Q 18.109375 38.875 18.109375 30.90625 
L 18.109375 0 
L 9.078125 0 
L 9.078125 54.6875 
L 18.109375 54.6875 
L 18.109375 46.1875 
Q 21.1875 51.21875 25.484375 53.609375 
Q 29.78125 56 35.6875 56 
Q 41.65625 56 45.828125 52.96875 
Q 50 49.953125 52 44.1875 
z
" id="DejaVuSans-109"/>
      <path d="M 54.890625 33.015625 
L 54.890625 0 
L 45.90625 0 
L 45.90625 32.71875 
Q 45.90625 40.484375 42.875 44.328125 
Q 39.84375 48.1875 33.796875 48.1875 
Q 26.515625 48.1875 22.3125 43.546875 
Q 18.109375 38.921875 18.109375 30.90625 
L 18.109375 0 
L 9.078125 0 
L 9.078125 54.6875 
L 18.109375 54.6875 
L 18.109375 46.1875 
Q 21.34375 51.125 25.703125 53.5625 
Q 30.078125 56 35.796875 56 
Q 45.21875 56 50.046875 50.171875 
Q 54.890625 44.34375 54.890625 33.015625 
z
" id="DejaVuSans-110"/>
      <path d="M 34.28125 27.484375 
Q 23.390625 27.484375 19.1875 25 
Q 14.984375 22.515625 14.984375 16.5 
Q 14.984375 11.71875 18.140625 8.90625 
Q 21.296875 6.109375 26.703125 6.109375 
Q 34.1875 6.109375 38.703125 11.40625 
Q 43.21875 16.703125 43.21875 25.484375 
L 43.21875 27.484375 
z
M 52.203125 31.203125 
L 52.203125 0 
L 43.21875 0 
L 43.21875 8.296875 
Q 40.140625 3.328125 35.546875 0.953125 
Q 30.953125 -1.421875 24.3125 -1.421875 
Q 15.921875 -1.421875 10.953125 3.296875 
Q 6 8.015625 6 15.921875 
Q 6 25.140625 12.171875 29.828125 
Q 18.359375 34.515625 30.609375 34.515625 
L 43.21875 34.515625 
L 43.21875 35.40625 
Q 43.21875 41.609375 39.140625 45 
Q 35.0625 48.390625 27.6875 48.390625 
Q 23 48.390625 18.546875 47.265625 
Q 14.109375 46.140625 10.015625 43.890625 
L 10.015625 52.203125 
Q 14.9375 54.109375 19.578125 55.046875 
Q 24.21875 56 28.609375 56 
Q 40.484375 56 46.34375 49.84375 
Q 52.203125 43.703125 52.203125 31.203125 
z
" id="DejaVuSans-97"/>
      <path d="M 18.3125 70.21875 
L 18.3125 54.6875 
L 36.8125 54.6875 
L 36.8125 47.703125 
L 18.3125 47.703125 
L 18.3125 18.015625 
Q 18.3125 11.328125 20.140625 9.421875 
Q 21.96875 7.515625 27.59375 7.515625 
L 36.8125 7.515625 
L 36.8125 0 
L 27.59375 0 
Q 17.1875 0 13.234375 3.875 
Q 9.28125 7.765625 9.28125 18.015625 
L 9.28125 47.703125 
L 2.6875 47.703125 
L 2.6875 54.6875 
L 9.28125 54.6875 
L 9.28125 70.21875 
z
" id="DejaVuSans-116"/>
      <path d="M 30.609375 48.390625 
Q 23.390625 48.390625 19.1875 42.75 
Q 14.984375 37.109375 14.984375 27.296875 
Q 14.984375 17.484375 19.15625 11.84375 
Q 23.34375 6.203125 30.609375 6.203125 
Q 37.796875 6.203125 41.984375 11.859375 
Q 46.1875 17.53125 46.1875 27.296875 
Q 46.1875 37.015625 41.984375 42.703125 
Q 37.796875 48.390625 30.609375 48.390625 
z
M 30.609375 56 
Q 42.328125 56 49.015625 48.375 
Q 55.71875 40.765625 55.71875 27.296875 
Q 55.71875 13.875 49.015625 6.21875 
Q 42.328125 -1.421875 30.609375 -1.421875 
Q 18.84375 -1.421875 12.171875 6.21875 
Q 5.515625 13.875 5.515625 27.296875 
Q 5.515625 40.765625 12.171875 48.375 
Q 18.84375 56 30.609375 56 
z
" id="DejaVuSans-111"/>
      <path d="M 54.890625 54.6875 
L 35.109375 28.078125 
L 55.90625 0 
L 45.3125 0 
L 29.390625 21.484375 
L 13.484375 0 
L 2.875 0 
L 24.125 28.609375 
L 4.6875 54.6875 
L 15.28125 54.6875 
L 29.78125 35.203125 
L 44.28125 54.6875 
z
" id="DejaVuSans-120"/>
     </defs>
     <g transform="translate(378.77483 281.14125)scale(0.08 -0.08)">
      <use xlink:href="#DejaVuSans-68"/>
      <use x="77.001953" xlink:href="#DejaVuSans-105"/>
      <use x="104.785156" xlink:href="#DejaVuSans-115"/>
      <use x="156.884766" xlink:href="#DejaVuSans-99"/>
      <use x="211.865234" xlink:href="#DejaVuSans-114"/>
      <use x="252.978516" xlink:href="#DejaVuSans-105"/>
      <use x="280.761719" xlink:href="#DejaVuSans-109"/>
      <use x="378.173828" xlink:href="#DejaVuSans-105"/>
      <use x="405.957031" xlink:href="#DejaVuSans-110"/>
      <use x="469.335938" xlink:href="#DejaVuSans-97"/>
      <use x="530.615234" xlink:href="#DejaVuSans-116"/>
      <use x="569.824219" xlink:href="#DejaVuSans-105"/>
      <use x="597.607422" xlink:href="#DejaVuSans-111"/>
      <use x="658.789062" xlink:href="#DejaVuSans-110"/>
      <use x="722.167969" xlink:href="#DejaVuSans-32"/>
      <use x="753.955078" xlink:href="#DejaVuSans-97"/>
      <use x="815.234375" xlink:href="#DejaVuSans-120"/>
      <use x="874.414062" xlink:href="#DejaVuSans-105"/>
      <use x="902.197266" xlink:href="#DejaVuSans-115"/>
     </g>
    </g>
   </g>
   <g id="matplotlib.axis_4">
    <g id="ytick_6">
     <g id="line2d_18">
      <g>
       <use style="stroke:#000000;stroke-width:0.8;" x="315.490909" xlink:href="#mc91bee6055" y="256.32"/>
      </g>
     </g>
     <g id="text_19">
      <!-- 0.00 -->
      <defs>
       <path d="M 10.6875 12.40625 
L 21 12.40625 
L 21 0 
L 10.6875 0 
z
" id="DejaVuSans-46"/>
      </defs>
      <g transform="translate(290.678409 259.359375)scale(0.08 -0.08)">
       <use xlink:href="#DejaVuSans-48"/>
       <use x="63.623047" xlink:href="#DejaVuSans-46"/>
       <use x="95.410156" xlink:href="#DejaVuSans-48"/>
       <use x="159.033203" xlink:href="#DejaVuSans-48"/>
      </g>
     </g>
    </g>
    <g id="ytick_7">
     <g id="line2d_19">
      <g>
       <use style="stroke:#000000;stroke-width:0.8;" x="315.490909" xlink:href="#mc91bee6055" y="228.6"/>
      </g>
     </g>
     <g id="text_20">
      <!-- 0.25 -->
      <defs>
       <path d="M 10.796875 72.90625 
L 49.515625 72.90625 
L 49.515625 64.59375 
L 19.828125 64.59375 
L 19.828125 46.734375 
Q 21.96875 47.46875 24.109375 47.828125 
Q 26.265625 48.1875 28.421875 48.1875 
Q 40.625 48.1875 47.75 41.5 
Q 54.890625 34.8125 54.890625 23.390625 
Q 54.890625 11.625 47.5625 5.09375 
Q 40.234375 -1.421875 26.90625 -1.421875 
Q 22.3125 -1.421875 17.546875 -0.640625 
Q 12.796875 0.140625 7.71875 1.703125 
L 7.71875 11.625 
Q 12.109375 9.234375 16.796875 8.0625 
Q 21.484375 6.890625 26.703125 6.890625 
Q 35.15625 6.890625 40.078125 11.328125 
Q 45.015625 15.765625 45.015625 23.390625 
Q 45.015625 31 40.078125 35.4375 
Q 35.15625 39.890625 26.703125 39.890625 
Q 22.75 39.890625 18.8125 39.015625 
Q 14.890625 38.140625 10.796875 36.28125 
z
" id="DejaVuSans-53"/>
      </defs>
      <g transform="translate(290.678409 231.639375)scale(0.08 -0.08)">
       <use xlink:href="#DejaVuSans-48"/>
       <use x="63.623047" xlink:href="#DejaVuSans-46"/>
       <use x="95.410156" xlink:href="#DejaVuSans-50"/>
       <use x="159.033203" xlink:href="#DejaVuSans-53"/>
      </g>
     </g>
    </g>
    <g id="ytick_8">
     <g id="line2d_20">
      <g>
       <use style="stroke:#000000;stroke-width:0.8;" x="315.490909" xlink:href="#mc91bee6055" y="200.88"/>
      </g>
     </g>
     <g id="text_21">
      <!-- 0.50 -->
      <g transform="translate(290.678409 203.919375)scale(0.08 -0.08)">
       <use xlink:href="#DejaVuSans-48"/>
       <use x="63.623047" xlink:href="#DejaVuSans-46"/>
       <use x="95.410156" xlink:href="#DejaVuSans-53"/>
       <use x="159.033203" xlink:href="#DejaVuSans-48"/>
      </g>
     </g>
    </g>
    <g id="ytick_9">
     <g id="line2d_21">
      <g>
       <use style="stroke:#000000;stroke-width:0.8;" x="315.490909" xlink:href="#mc91bee6055" y="173.16"/>
      </g>
     </g>
     <g id="text_22">
      <!-- 0.75 -->
      <defs>
       <path d="M 8.203125 72.90625 
L 55.078125 72.90625 
L 55.078125 68.703125 
L 28.609375 0 
L 18.3125 0 
L 43.21875 64.59375 
L 8.203125 64.59375 
z
" id="DejaVuSans-55"/>
      </defs>
      <g transform="translate(290.678409 176.199375)scale(0.08 -0.08)">
       <use xlink:href="#DejaVuSans-48"/>
       <use x="63.623047" xlink:href="#DejaVuSans-46"/>
       <use x="95.410156" xlink:href="#DejaVuSans-55"/>
       <use x="159.033203" xlink:href="#DejaVuSans-53"/>
      </g>
     </g>
    </g>
    <g id="ytick_10">
     <g id="line2d_22">
      <g>
       <use style="stroke:#000000;stroke-width:0.8;" x="315.490909" xlink:href="#mc91bee6055" y="145.44"/>
      </g>
     </g>
     <g id="text_23">
      <!-- 1.00 -->
      <g transform="translate(290.678409 148.479375)scale(0.08 -0.08)">
       <use xlink:href="#DejaVuSans-49"/>
       <use x="63.623047" xlink:href="#DejaVuSans-46"/>
       <use x="95.410156" xlink:href="#DejaVuSans-48"/>
       <use x="159.033203" xlink:href="#DejaVuSans-48"/>
      </g>
     </g>
    </g>
    <g id="ytick_11">
     <g id="line2d_23">
      <g>
       <use style="stroke:#000000;stroke-width:0.8;" x="315.490909" xlink:href="#mc91bee6055" y="117.72"/>
      </g>
     </g>
     <g id="text_24">
      <!-- 1.25 -->
      <g transform="translate(290.678409 120.759375)scale(0.08 -0.08)">
       <use xlink:href="#DejaVuSans-49"/>
       <use x="63.623047" xlink:href="#DejaVuSans-46"/>
       <use x="95.410156" xlink:href="#DejaVuSans-50"/>
       <use x="159.033203" xlink:href="#DejaVuSans-53"/>
      </g>
     </g>
    </g>
    <g id="ytick_12">
     <g id="line2d_24">
      <g>
       <use style="stroke:#000000;stroke-width:0.8;" x="315.490909" xlink:href="#mc91bee6055" y="90"/>
      </g>
     </g>
     <g id="text_25">
      <!-- 1.50 -->
      <g transform="translate(290.678409 93.039375)scale(0.08 -0.08)">
       <use xlink:href="#DejaVuSans-49"/>
       <use x="63.623047" xlink:href="#DejaVuSans-46"/>
       <use x="95.410156" xlink:href="#DejaVuSans-53"/>
       <use x="159.033203" xlink:href="#DejaVuSans-48"/>
      </g>
     </g>
    </g>
    <g id="ytick_13">
     <g id="line2d_25">
      <g>
       <use style="stroke:#000000;stroke-width:0.8;" x="315.490909" xlink:href="#mc91bee6055" y="62.28"/>
      </g>
     </g>
     <g id="text_26">
      <!-- 1.75 -->
      <g transform="translate(290.678409 65.319375)scale(0.08 -0.08)">
       <use xlink:href="#DejaVuSans-49"/>
       <use x="63.623047" xlink:href="#DejaVuSans-46"/>
       <use x="95.410156" xlink:href="#DejaVuSans-55"/>
       <use x="159.033203" xlink:href="#DejaVuSans-53"/>
      </g>
     </g>
    </g>
    <g id="ytick_14">
     <g id="line2d_26">
      <g>
       <use style="stroke:#000000;stroke-width:0.8;" x="315.490909" xlink:href="#mc91bee6055" y="34.56"/>
      </g>
     </g>
     <g id="text_27">
      <!-- 2.00 -->
      <g transform="translate(290.678409 37.599375)scale(0.08 -0.08)">
       <use xlink:href="#DejaVuSans-50"/>
       <use x="63.623047" xlink:href="#DejaVuSans-46"/>
       <use x="95.410156" xlink:href="#DejaVuSans-48"/>
       <use x="159.033203" xlink:href="#DejaVuSans-48"/>
      </g>
     </g>
    </g>
   </g>
   <g id="line2d_27">
    <path clip-path="url(#pe11c5a2f14)" d="M 324.71405 256.32 
L 385.694367 256.208904 
L 391.020864 255.961833 
L 394.576474 255.58347 
L 397.343485 255.071738 
L 399.663163 254.420803 
L 401.696916 253.622219 
L 403.546202 252.658606 
L 405.270973 251.50906 
L 406.917344 250.142561 
L 408.512988 248.526363 
L 410.090184 246.607202 
L 411.66738 244.330201 
L 413.258412 241.634436 
L 414.886337 238.428171 
L 416.56499 234.619172 
L 418.322043 230.066131 
L 420.185164 224.602736 
L 422.205082 217.968158 
L 424.478643 209.705731 
L 427.273324 198.657147 
L 435.297657 166.3797 
L 437.229953 159.837827 
L 438.839432 155.137382 
L 440.227549 151.736372 
L 441.445034 149.31133 
L 442.524168 147.631826 
L 443.483399 146.528575 
L 444.345784 145.85987 
L 445.129771 145.522554 
L 445.86764 145.442766 
L 446.591675 145.589035 
L 447.338768 145.972196 
L 448.141201 146.643656 
L 449.022033 147.684823 
L 449.999711 149.202174 
L 451.09268 151.329274 
L 452.324 154.235947 
L 453.725953 158.143921 
L 455.349266 163.360551 
L 457.300009 170.418338 
L 459.896388 180.716176 
L 467.768535 212.479353 
L 470.111271 220.711973 
L 472.18653 227.21894 
L 474.100379 232.511159 
L 475.90816 236.875137 
L 477.642154 240.494614 
L 479.320807 243.49683 
L 480.967179 245.996147 
L 482.599716 248.078075 
L 484.236864 249.811387 
L 485.901683 251.254242 
L 487.621841 252.453295 
L 489.438845 253.448627 
L 491.3942 254.264754 
L 493.561692 254.925393 
L 496.052002 255.446399 
L 499.049598 255.837923 
L 502.928026 256.107736 
L 508.669574 256.2633 
L 509.17686 256.269848 
L 509.17686 256.269848 
" style="fill:none;stroke:#1f77b4;stroke-linecap:square;stroke-width:2;"/>
   </g>
   <g id="line2d_28">
    <path clip-path="url(#pe11c5a2f14)" d="M 324.71405 256.293282 
L 332.798334 256.125629 
L 337.036473 255.826067 
L 340.098633 255.39467 
L 342.565884 254.828091 
L 344.678036 254.118751 
L 346.564216 253.252609 
L 348.298209 252.21209 
L 349.935358 250.968874 
L 351.507943 249.493143 
L 353.048246 247.739135 
L 354.579325 245.653171 
L 356.119628 243.171622 
L 357.687601 240.214428 
L 359.301691 236.683154 
L 360.980345 232.460514 
L 362.74662 227.398778 
L 364.642023 221.271837 
L 366.735728 213.724392 
L 369.184533 204.024074 
L 372.726308 188.969809 
L 376.982893 171.077346 
L 379.141162 162.964983 
L 380.861321 157.321315 
L 382.323225 153.251012 
L 383.591439 150.344022 
L 384.707467 148.312387 
L 385.694367 146.952447 
L 386.570588 146.102338 
L 387.359186 145.631659 
L 388.087832 145.448021 
L 388.784197 145.499235 
L 389.489785 145.776821 
L 390.241489 146.320546 
L 391.062369 147.202107 
L 391.970872 148.519356 
L 392.990054 150.408117 
L 394.138364 153.028063 
L 395.443471 156.587837 
L 396.94688 161.367057 
L 398.731603 167.82157 
L 401.005163 176.937333 
L 405.187962 194.846774 
L 408.68362 209.346825 
L 411.109366 218.483573 
L 413.207683 225.548477 
L 415.121533 231.235682 
L 416.915479 235.890451 
L 418.626414 239.729103 
L 420.277397 242.902319 
L 421.891487 245.534865 
L 423.48713 247.720543 
L 425.078162 249.530149 
L 426.692252 251.033974 
L 428.352459 252.279608 
L 430.095676 253.309981 
L 431.963409 254.154578 
L 434.024832 254.839427 
L 436.37218 255.379957 
L 439.176085 255.789654 
L 442.754753 256.076316 
L 447.91984 256.247734 
L 457.95948 256.315033 
L 509.17686 256.32 
L 509.17686 256.32 
" style="fill:none;stroke:#ff7f0e;stroke-linecap:square;stroke-width:2;"/>
   </g>
   <g id="patch_6">
    <path d="M 315.490909 256.32 
L 315.490909 34.56 
" style="fill:none;stroke:#000000;stroke-linecap:square;stroke-linejoin:miter;stroke-width:0.8;"/>
   </g>
   <g id="patch_7">
    <path d="M 315.490909 256.32 
L 518.4 256.32 
" style="fill:none;stroke:#000000;stroke-linecap:square;stroke-linejoin:miter;stroke-width:0.8;"/>
   </g>
  </g>
 </g>
 <defs>
  <clipPath id="pb4560ec7c0">
   <rect height="221.76" width="202.909091" x="72" y="34.56"/>
  </clipPath>
  <clipPath id="pe11c5a2f14">
   <rect height="221.76" width="202.909091" x="315.490909" y="34.56"/>
  </clipPath>
 </defs>
</svg>
