<?xml version="1.0" encoding="utf-8" standalone="no"?>
<!DOCTYPE svg PUBLIC "-//W3C//DTD SVG 1.1//EN"
  "http://www.w3.org/Graphics/SVG/1.1/DTD/svg11.dtd">
<!-- Created with matplotlib (https://matplotlib.org/) -->
<svg height="230.4pt" version="1.1" viewBox="0 0 648 230.4" width="648pt" xmlns="http://www.w3.org/2000/svg" xmlns:xlink="http://www.w3.org/1999/xlink">
 <defs>
  <style type="text/css">
*{stroke-linecap:butt;stroke-linejoin:round;}
  </style>
 </defs>
 <g id="figure_1">
  <g id="patch_1">
   <path d="M 0 230.4 
L 648 230.4 
L 648 0 
L 0 0 
z
" style="fill:#ffffff;"/>
  </g>
  <g id="axes_1">
   <g id="patch_2">
    <path d="M 59.402 156.581497 
L 199.713438 156.581497 
L 199.713438 37.968 
L 59.402 37.968 
z
" style="fill:#ffffff;"/>
   </g>
   <g id="matplotlib.axis_1">
    <g id="xtick_1">
     <g id="line2d_1">
      <defs>
       <path d="M 0 0 
L 0 3.5 
" id="ma319ca33a4" style="stroke:#000000;stroke-width:0.8;"/>
      </defs>
      <g>
       <use style="stroke:#000000;stroke-width:0.8;" x="78.002821" xlink:href="#ma319ca33a4" y="156.581497"/>
      </g>
     </g>
     <g id="text_1">
      <!-- None -->
      <defs>
       <path d="M 9.8125 72.90625 
L 23.09375 72.90625 
L 55.421875 11.921875 
L 55.421875 72.90625 
L 64.984375 72.90625 
L 64.984375 0 
L 51.703125 0 
L 19.390625 60.984375 
L 19.390625 0 
L 9.8125 0 
z
" id="DejaVuSans-78"/>
       <path d="M 30.609375 48.390625 
Q 23.390625 48.390625 19.1875 42.75 
Q 14.984375 37.109375 14.984375 27.296875 
Q 14.984375 17.484375 19.15625 11.84375 
Q 23.34375 6.203125 30.609375 6.203125 
Q 37.796875 6.203125 41.984375 11.859375 
Q 46.1875 17.53125 46.1875 27.296875 
Q 46.1875 37.015625 41.984375 42.703125 
Q 37.796875 48.390625 30.609375 48.390625 
z
M 30.609375 56 
Q 42.328125 56 49.015625 48.375 
Q 55.71875 40.765625 55.71875 27.296875 
Q 55.71875 13.875 49.015625 6.21875 
Q 42.328125 -1.421875 30.609375 -1.421875 
Q 18.84375 -1.421875 12.171875 6.21875 
Q 5.515625 13.875 5.515625 27.296875 
Q 5.515625 40.765625 12.171875 48.375 
Q 18.84375 56 30.609375 56 
z
" id="DejaVuSans-111"/>
       <path d="M 54.890625 33.015625 
L 54.890625 0 
L 45.90625 0 
L 45.90625 32.71875 
Q 45.90625 40.484375 42.875 44.328125 
Q 39.84375 48.1875 33.796875 48.1875 
Q 26.515625 48.1875 22.3125 43.546875 
Q 18.109375 38.921875 18.109375 30.90625 
L 18.109375 0 
L 9.078125 0 
L 9.078125 54.6875 
L 18.109375 54.6875 
L 18.109375 46.1875 
Q 21.34375 51.125 25.703125 53.5625 
Q 30.078125 56 35.796875 56 
Q 45.21875 56 50.046875 50.171875 
Q 54.890625 44.34375 54.890625 33.015625 
z
" id="DejaVuSans-110"/>
       <path d="M 56.203125 29.59375 
L 56.203125 25.203125 
L 14.890625 25.203125 
Q 15.484375 15.921875 20.484375 11.0625 
Q 25.484375 6.203125 34.421875 6.203125 
Q 39.59375 6.203125 44.453125 7.46875 
Q 49.3125 8.734375 54.109375 11.28125 
L 54.109375 2.78125 
Q 49.265625 0.734375 44.1875 -0.34375 
Q 39.109375 -1.421875 33.890625 -1.421875 
Q 20.796875 -1.421875 13.15625 6.1875 
Q 5.515625 13.8125 5.515625 26.8125 
Q 5.515625 40.234375 12.765625 48.109375 
Q 20.015625 56 32.328125 56 
Q 43.359375 56 49.78125 48.890625 
Q 56.203125 41.796875 56.203125 29.59375 
z
M 47.21875 32.234375 
Q 47.125 39.59375 43.09375 43.984375 
Q 39.0625 48.390625 32.421875 48.390625 
Q 24.90625 48.390625 20.390625 44.140625 
Q 15.875 39.890625 15.1875 32.171875 
z
" id="DejaVuSans-101"/>
      </defs>
      <g transform="translate(70.729565 187.403261)rotate(-45)scale(0.1 -0.1)">
       <use xlink:href="#DejaVuSans-78"/>
       <use x="74.804688" xlink:href="#DejaVuSans-111"/>
       <use x="135.986328" xlink:href="#DejaVuSans-110"/>
       <use x="199.365234" xlink:href="#DejaVuSans-101"/>
      </g>
     </g>
    </g>
    <g id="xtick_2">
     <g id="line2d_2">
      <g>
       <use style="stroke:#000000;stroke-width:0.8;" x="130.509065" xlink:href="#ma319ca33a4" y="156.581497"/>
      </g>
     </g>
     <g id="text_2">
      <!-- 1st order -->
      <defs>
       <path d="M 12.40625 8.296875 
L 28.515625 8.296875 
L 28.515625 63.921875 
L 10.984375 60.40625 
L 10.984375 69.390625 
L 28.421875 72.90625 
L 38.28125 72.90625 
L 38.28125 8.296875 
L 54.390625 8.296875 
L 54.390625 0 
L 12.40625 0 
z
" id="DejaVuSans-49"/>
       <path d="M 44.28125 53.078125 
L 44.28125 44.578125 
Q 40.484375 46.53125 36.375 47.5 
Q 32.28125 48.484375 27.875 48.484375 
Q 21.1875 48.484375 17.84375 46.4375 
Q 14.5 44.390625 14.5 40.28125 
Q 14.5 37.15625 16.890625 35.375 
Q 19.28125 33.59375 26.515625 31.984375 
L 29.59375 31.296875 
Q 39.15625 29.25 43.1875 25.515625 
Q 47.21875 21.78125 47.21875 15.09375 
Q 47.21875 7.46875 41.1875 3.015625 
Q 35.15625 -1.421875 24.609375 -1.421875 
Q 20.21875 -1.421875 15.453125 -0.5625 
Q 10.6875 0.296875 5.421875 2 
L 5.421875 11.28125 
Q 10.40625 8.6875 15.234375 7.390625 
Q 20.0625 6.109375 24.8125 6.109375 
Q 31.15625 6.109375 34.5625 8.28125 
Q 37.984375 10.453125 37.984375 14.40625 
Q 37.984375 18.0625 35.515625 20.015625 
Q 33.0625 21.96875 24.703125 23.78125 
L 21.578125 24.515625 
Q 13.234375 26.265625 9.515625 29.90625 
Q 5.8125 33.546875 5.8125 39.890625 
Q 5.8125 47.609375 11.28125 51.796875 
Q 16.75 56 26.8125 56 
Q 31.78125 56 36.171875 55.265625 
Q 40.578125 54.546875 44.28125 53.078125 
z
" id="DejaVuSans-115"/>
       <path d="M 18.3125 70.21875 
L 18.3125 54.6875 
L 36.8125 54.6875 
L 36.8125 47.703125 
L 18.3125 47.703125 
L 18.3125 18.015625 
Q 18.3125 11.328125 20.140625 9.421875 
Q 21.96875 7.515625 27.59375 7.515625 
L 36.8125 7.515625 
L 36.8125 0 
L 27.59375 0 
Q 17.1875 0 13.234375 3.875 
Q 9.28125 7.765625 9.28125 18.015625 
L 9.28125 47.703125 
L 2.6875 47.703125 
L 2.6875 54.6875 
L 9.28125 54.6875 
L 9.28125 70.21875 
z
" id="DejaVuSans-116"/>
       <path id="DejaVuSans-32"/>
       <path d="M 41.109375 46.296875 
Q 39.59375 47.171875 37.8125 47.578125 
Q 36.03125 48 33.890625 48 
Q 26.265625 48 22.1875 43.046875 
Q 18.109375 38.09375 18.109375 28.8125 
L 18.109375 0 
L 9.078125 0 
L 9.078125 54.6875 
L 18.109375 54.6875 
L 18.109375 46.1875 
Q 20.953125 51.171875 25.484375 53.578125 
Q 30.03125 56 36.53125 56 
Q 37.453125 56 38.578125 55.875 
Q 39.703125 55.765625 41.0625 55.515625 
z
" id="DejaVuSans-114"/>
       <path d="M 45.40625 46.390625 
L 45.40625 75.984375 
L 54.390625 75.984375 
L 54.390625 0 
L 45.40625 0 
L 45.40625 8.203125 
Q 42.578125 3.328125 38.25 0.953125 
Q 33.9375 -1.421875 27.875 -1.421875 
Q 17.96875 -1.421875 11.734375 6.484375 
Q 5.515625 14.40625 5.515625 27.296875 
Q 5.515625 40.1875 11.734375 48.09375 
Q 17.96875 56 27.875 56 
Q 33.9375 56 38.25 53.625 
Q 42.578125 51.265625 45.40625 46.390625 
z
M 14.796875 27.296875 
Q 14.796875 17.390625 18.875 11.75 
Q 22.953125 6.109375 30.078125 6.109375 
Q 37.203125 6.109375 41.296875 11.75 
Q 45.40625 17.390625 45.40625 27.296875 
Q 45.40625 37.203125 41.296875 42.84375 
Q 37.203125 48.484375 30.078125 48.484375 
Q 22.953125 48.484375 18.875 42.84375 
Q 14.796875 37.203125 14.796875 27.296875 
z
" id="DejaVuSans-100"/>
      </defs>
      <g transform="translate(116.369691 201.135496)rotate(-45)scale(0.1 -0.1)">
       <use xlink:href="#DejaVuSans-49"/>
       <use x="63.623047" xlink:href="#DejaVuSans-115"/>
       <use x="115.722656" xlink:href="#DejaVuSans-116"/>
       <use x="154.931641" xlink:href="#DejaVuSans-32"/>
       <use x="186.71875" xlink:href="#DejaVuSans-111"/>
       <use x="247.900391" xlink:href="#DejaVuSans-114"/>
       <use x="288.998047" xlink:href="#DejaVuSans-100"/>
       <use x="352.474609" xlink:href="#DejaVuSans-101"/>
       <use x="413.998047" xlink:href="#DejaVuSans-114"/>
      </g>
     </g>
    </g>
    <g id="xtick_3">
     <g id="line2d_3">
      <g>
       <use style="stroke:#000000;stroke-width:0.8;" x="183.015308" xlink:href="#ma319ca33a4" y="156.581497"/>
      </g>
     </g>
     <g id="text_3">
      <!-- 1st + 2nd -->
      <defs>
       <path d="M 46 62.703125 
L 46 35.5 
L 73.1875 35.5 
L 73.1875 27.203125 
L 46 27.203125 
L 46 0 
L 37.796875 0 
L 37.796875 27.203125 
L 10.59375 27.203125 
L 10.59375 35.5 
L 37.796875 35.5 
L 37.796875 62.703125 
z
" id="DejaVuSans-43"/>
       <path d="M 19.1875 8.296875 
L 53.609375 8.296875 
L 53.609375 0 
L 7.328125 0 
L 7.328125 8.296875 
Q 12.9375 14.109375 22.625 23.890625 
Q 32.328125 33.6875 34.8125 36.53125 
Q 39.546875 41.84375 41.421875 45.53125 
Q 43.3125 49.21875 43.3125 52.78125 
Q 43.3125 58.59375 39.234375 62.25 
Q 35.15625 65.921875 28.609375 65.921875 
Q 23.96875 65.921875 18.8125 64.3125 
Q 13.671875 62.703125 7.8125 59.421875 
L 7.8125 69.390625 
Q 13.765625 71.78125 18.9375 73 
Q 24.125 74.21875 28.421875 74.21875 
Q 39.75 74.21875 46.484375 68.546875 
Q 53.21875 62.890625 53.21875 53.421875 
Q 53.21875 48.921875 51.53125 44.890625 
Q 49.859375 40.875 45.40625 35.40625 
Q 44.1875 33.984375 37.640625 27.21875 
Q 31.109375 20.453125 19.1875 8.296875 
z
" id="DejaVuSans-50"/>
      </defs>
      <g transform="translate(167.544585 203.798195)rotate(-45)scale(0.1 -0.1)">
       <use xlink:href="#DejaVuSans-49"/>
       <use x="63.623047" xlink:href="#DejaVuSans-115"/>
       <use x="115.722656" xlink:href="#DejaVuSans-116"/>
       <use x="154.931641" xlink:href="#DejaVuSans-32"/>
       <use x="186.71875" xlink:href="#DejaVuSans-43"/>
       <use x="270.507812" xlink:href="#DejaVuSans-32"/>
       <use x="302.294922" xlink:href="#DejaVuSans-50"/>
       <use x="365.917969" xlink:href="#DejaVuSans-110"/>
       <use x="429.296875" xlink:href="#DejaVuSans-100"/>
      </g>
     </g>
    </g>
    <g id="text_4">
     <!-- Simulation -->
     <defs>
      <path d="M 53.515625 70.515625 
L 53.515625 60.890625 
Q 47.90625 63.578125 42.921875 64.890625 
Q 37.9375 66.21875 33.296875 66.21875 
Q 25.25 66.21875 20.875 63.09375 
Q 16.5 59.96875 16.5 54.203125 
Q 16.5 49.359375 19.40625 46.890625 
Q 22.3125 44.4375 30.421875 42.921875 
L 36.375 41.703125 
Q 47.40625 39.59375 52.65625 34.296875 
Q 57.90625 29 57.90625 20.125 
Q 57.90625 9.515625 50.796875 4.046875 
Q 43.703125 -1.421875 29.984375 -1.421875 
Q 24.8125 -1.421875 18.96875 -0.25 
Q 13.140625 0.921875 6.890625 3.21875 
L 6.890625 13.375 
Q 12.890625 10.015625 18.65625 8.296875 
Q 24.421875 6.59375 29.984375 6.59375 
Q 38.421875 6.59375 43.015625 9.90625 
Q 47.609375 13.234375 47.609375 19.390625 
Q 47.609375 24.75 44.3125 27.78125 
Q 41.015625 30.8125 33.5 32.328125 
L 27.484375 33.5 
Q 16.453125 35.6875 11.515625 40.375 
Q 6.59375 45.0625 6.59375 53.421875 
Q 6.59375 63.09375 13.40625 68.65625 
Q 20.21875 74.21875 32.171875 74.21875 
Q 37.3125 74.21875 42.625 73.28125 
Q 47.953125 72.359375 53.515625 70.515625 
z
" id="DejaVuSans-83"/>
      <path d="M 9.421875 54.6875 
L 18.40625 54.6875 
L 18.40625 0 
L 9.421875 0 
z
M 9.421875 75.984375 
L 18.40625 75.984375 
L 18.40625 64.59375 
L 9.421875 64.59375 
z
" id="DejaVuSans-105"/>
      <path d="M 52 44.1875 
Q 55.375 50.25 60.0625 53.125 
Q 64.75 56 71.09375 56 
Q 79.640625 56 84.28125 50.015625 
Q 88.921875 44.046875 88.921875 33.015625 
L 88.921875 0 
L 79.890625 0 
L 79.890625 32.71875 
Q 79.890625 40.578125 77.09375 44.375 
Q 74.3125 48.1875 68.609375 48.1875 
Q 61.625 48.1875 57.5625 43.546875 
Q 53.515625 38.921875 53.515625 30.90625 
L 53.515625 0 
L 44.484375 0 
L 44.484375 32.71875 
Q 44.484375 40.625 41.703125 44.40625 
Q 38.921875 48.1875 33.109375 48.1875 
Q 26.21875 48.1875 22.15625 43.53125 
Q 18.109375 38.875 18.109375 30.90625 
L 18.109375 0 
L 9.078125 0 
L 9.078125 54.6875 
L 18.109375 54.6875 
L 18.109375 46.1875 
Q 21.1875 51.21875 25.484375 53.609375 
Q 29.78125 56 35.6875 56 
Q 41.65625 56 45.828125 52.96875 
Q 50 49.953125 52 44.1875 
z
" id="DejaVuSans-109"/>
      <path d="M 8.5 21.578125 
L 8.5 54.6875 
L 17.484375 54.6875 
L 17.484375 21.921875 
Q 17.484375 14.15625 20.5 10.265625 
Q 23.53125 6.390625 29.59375 6.390625 
Q 36.859375 6.390625 41.078125 11.03125 
Q 45.3125 15.671875 45.3125 23.6875 
L 45.3125 54.6875 
L 54.296875 54.6875 
L 54.296875 0 
L 45.3125 0 
L 45.3125 8.40625 
Q 42.046875 3.421875 37.71875 1 
Q 33.40625 -1.421875 27.6875 -1.421875 
Q 18.265625 -1.421875 13.375 4.4375 
Q 8.5 10.296875 8.5 21.578125 
z
M 31.109375 56 
z
" id="DejaVuSans-117"/>
      <path d="M 9.421875 75.984375 
L 18.40625 75.984375 
L 18.40625 0 
L 9.421875 0 
z
" id="DejaVuSans-108"/>
      <path d="M 34.28125 27.484375 
Q 23.390625 27.484375 19.1875 25 
Q 14.984375 22.515625 14.984375 16.5 
Q 14.984375 11.71875 18.140625 8.90625 
Q 21.296875 6.109375 26.703125 6.109375 
Q 34.1875 6.109375 38.703125 11.40625 
Q 43.21875 16.703125 43.21875 25.484375 
L 43.21875 27.484375 
z
M 52.203125 31.203125 
L 52.203125 0 
L 43.21875 0 
L 43.21875 8.296875 
Q 40.140625 3.328125 35.546875 0.953125 
Q 30.953125 -1.421875 24.3125 -1.421875 
Q 15.921875 -1.421875 10.953125 3.296875 
Q 6 8.015625 6 15.921875 
Q 6 25.140625 12.171875 29.828125 
Q 18.359375 34.515625 30.609375 34.515625 
L 43.21875 34.515625 
L 43.21875 35.40625 
Q 43.21875 41.609375 39.140625 45 
Q 35.0625 48.390625 27.6875 48.390625 
Q 23 48.390625 18.546875 47.265625 
Q 14.109375 46.140625 10.015625 43.890625 
L 10.015625 52.203125 
Q 14.9375 54.109375 19.578125 55.046875 
Q 24.21875 56 28.609375 56 
Q 40.484375 56 46.34375 49.84375 
Q 52.203125 43.703125 52.203125 31.203125 
z
" id="DejaVuSans-97"/>
     </defs>
     <g transform="translate(102.924906 216.867194)scale(0.1 -0.1)">
      <use xlink:href="#DejaVuSans-83"/>
      <use x="63.476562" xlink:href="#DejaVuSans-105"/>
      <use x="91.259766" xlink:href="#DejaVuSans-109"/>
      <use x="188.671875" xlink:href="#DejaVuSans-117"/>
      <use x="252.050781" xlink:href="#DejaVuSans-108"/>
      <use x="279.833984" xlink:href="#DejaVuSans-97"/>
      <use x="341.113281" xlink:href="#DejaVuSans-116"/>
      <use x="380.322266" xlink:href="#DejaVuSans-105"/>
      <use x="408.105469" xlink:href="#DejaVuSans-111"/>
      <use x="469.287109" xlink:href="#DejaVuSans-110"/>
     </g>
    </g>
   </g>
   <g id="matplotlib.axis_2">
    <g id="ytick_1">
     <g id="line2d_4">
      <defs>
       <path d="M 0 0 
L -3.5 0 
" id="m34f1ccee73" style="stroke:#000000;stroke-width:0.8;"/>
      </defs>
      <g>
       <use style="stroke:#000000;stroke-width:0.8;" x="59.402" xlink:href="#m34f1ccee73" y="156.581497"/>
      </g>
     </g>
     <g id="text_5">
      <!-- −1 -->
      <defs>
       <path d="M 10.59375 35.5 
L 73.1875 35.5 
L 73.1875 27.203125 
L 10.59375 27.203125 
z
" id="DejaVuSans-8722"/>
      </defs>
      <g transform="translate(37.659813 160.380716)scale(0.1 -0.1)">
       <use xlink:href="#DejaVuSans-8722"/>
       <use x="83.789062" xlink:href="#DejaVuSans-49"/>
      </g>
     </g>
    </g>
    <g id="ytick_2">
     <g id="line2d_5">
      <g>
       <use style="stroke:#000000;stroke-width:0.8;" x="59.402" xlink:href="#m34f1ccee73" y="117.043665"/>
      </g>
     </g>
     <g id="text_6">
      <!-- 0 -->
      <defs>
       <path d="M 31.78125 66.40625 
Q 24.171875 66.40625 20.328125 58.90625 
Q 16.5 51.421875 16.5 36.375 
Q 16.5 21.390625 20.328125 13.890625 
Q 24.171875 6.390625 31.78125 6.390625 
Q 39.453125 6.390625 43.28125 13.890625 
Q 47.125 21.390625 47.125 36.375 
Q 47.125 51.421875 43.28125 58.90625 
Q 39.453125 66.40625 31.78125 66.40625 
z
M 31.78125 74.21875 
Q 44.046875 74.21875 50.515625 64.515625 
Q 56.984375 54.828125 56.984375 36.375 
Q 56.984375 17.96875 50.515625 8.265625 
Q 44.046875 -1.421875 31.78125 -1.421875 
Q 19.53125 -1.421875 13.0625 8.265625 
Q 6.59375 17.96875 6.59375 36.375 
Q 6.59375 54.828125 13.0625 64.515625 
Q 19.53125 74.21875 31.78125 74.21875 
z
" id="DejaVuSans-48"/>
      </defs>
      <g transform="translate(46.0395 120.842883)scale(0.1 -0.1)">
       <use xlink:href="#DejaVuSans-48"/>
      </g>
     </g>
    </g>
    <g id="ytick_3">
     <g id="line2d_6">
      <g>
       <use style="stroke:#000000;stroke-width:0.8;" x="59.402" xlink:href="#m34f1ccee73" y="77.505832"/>
      </g>
     </g>
     <g id="text_7">
      <!-- 1 -->
      <g transform="translate(46.0395 81.305051)scale(0.1 -0.1)">
       <use xlink:href="#DejaVuSans-49"/>
      </g>
     </g>
    </g>
    <g id="ytick_4">
     <g id="line2d_7">
      <g>
       <use style="stroke:#000000;stroke-width:0.8;" x="59.402" xlink:href="#m34f1ccee73" y="37.968"/>
      </g>
     </g>
     <g id="text_8">
      <!-- 2 -->
      <g transform="translate(46.0395 41.767219)scale(0.1 -0.1)">
       <use xlink:href="#DejaVuSans-50"/>
      </g>
     </g>
    </g>
    <g id="text_9">
     <!-- $\Delta d'^{2}$ -->
     <defs>
      <path d="M 34.1875 63.1875 
L 14.15625 8.203125 
L 54.25 8.203125 
z
M 0.78125 0 
L 28.609375 72.90625 
L 39.796875 72.90625 
L 67.578125 0 
z
" id="DejaVuSans-916"/>
      <path d="M 41.796875 8.203125 
Q 38.1875 3.46875 33.25 1.015625 
Q 28.328125 -1.421875 22.3125 -1.421875 
Q 14.109375 -1.421875 9.34375 4.171875 
Q 4.59375 9.765625 4.59375 19.484375 
Q 4.59375 27.59375 7.46875 34.9375 
Q 10.359375 42.28125 15.828125 48.09375 
Q 19.4375 51.953125 23.96875 53.96875 
Q 28.515625 56 33.5 56 
Q 38.765625 56 42.796875 53.453125 
Q 46.828125 50.921875 49.03125 46.1875 
L 54.890625 75.984375 
L 63.921875 75.984375 
L 49.125 0 
L 40.09375 0 
z
M 13.921875 21.09375 
Q 13.921875 14.015625 17.109375 10.0625 
Q 20.3125 6.109375 25.984375 6.109375 
Q 30.171875 6.109375 33.765625 8.125 
Q 37.359375 10.15625 40.09375 14.109375 
Q 42.96875 18.21875 44.625 23.578125 
Q 46.296875 28.953125 46.296875 34.1875 
Q 46.296875 40.96875 43.09375 44.765625 
Q 39.890625 48.578125 34.28125 48.578125 
Q 30.03125 48.578125 26.359375 46.578125 
Q 22.703125 44.578125 20.125 40.828125 
Q 17.28125 36.765625 15.59375 31.390625 
Q 13.921875 26.03125 13.921875 21.09375 
z
" id="DejaVuSans-Oblique-100"/>
      <path d="M 3.515625 5.421875 
Q 2.875 5.609375 2.875 6.390625 
L 15.09375 51.8125 
Q 15.671875 53.65625 17.078125 54.78125 
Q 18.5 55.90625 20.3125 55.90625 
Q 22.65625 55.90625 24.4375 54.359375 
Q 26.21875 52.828125 26.21875 50.484375 
Q 26.21875 49.46875 25.6875 48.1875 
L 7.625 4.984375 
Q 7.28125 4.296875 6.6875 4.296875 
Q 6.15625 4.296875 5 4.78125 
Q 3.859375 5.28125 3.515625 5.421875 
z
" id="Cmsy10-48"/>
     </defs>
     <g transform="translate(31.580125 107.774748)rotate(-90)scale(0.1 -0.1)">
      <use transform="translate(0 0.765625)" xlink:href="#DejaVuSans-916"/>
      <use transform="translate(68.408203 0.765625)" xlink:href="#DejaVuSans-Oblique-100"/>
      <use transform="translate(139.332474 39.046875)scale(0.7)" xlink:href="#Cmsy10-48"/>
      <use transform="translate(162.267044 39.046875)scale(0.7)" xlink:href="#DejaVuSans-50"/>
     </g>
    </g>
   </g>
   <g id="PathCollection_1">
    <defs>
     <path d="M -0 3.872983 
L 3.872983 0 
L 0 -3.872983 
L -3.872983 -0 
z
" id="mb11c487bba" style="stroke:#ffffff;"/>
    </defs>
    <g clip-path="url(#p6681015320)">
     <use style="fill:#808080;stroke:#ffffff;" x="70.002484" xlink:href="#mb11c487bba" y="119.85602"/>
     <use style="fill:#808080;stroke:#ffffff;" x="76.744458" xlink:href="#mb11c487bba" y="110.969293"/>
     <use style="fill:#808080;stroke:#ffffff;" x="71.827598" xlink:href="#mb11c487bba" y="110.668561"/>
     <use style="fill:#808080;stroke:#ffffff;" x="79.423388" xlink:href="#mb11c487bba" y="113.399563"/>
     <use style="fill:#808080;stroke:#ffffff;" x="77.431302" xlink:href="#mb11c487bba" y="56.468251"/>
     <use style="fill:#808080;stroke:#ffffff;" x="66.771061" xlink:href="#mb11c487bba" y="99.196421"/>
     <use style="fill:#808080;stroke:#ffffff;" x="75.162361" xlink:href="#mb11c487bba" y="119.651497"/>
     <use style="fill:#808080;stroke:#ffffff;" x="74.585154" xlink:href="#mb11c487bba" y="113.755732"/>
     <use style="fill:#808080;stroke:#ffffff;" x="74.406646" xlink:href="#mb11c487bba" y="97.488606"/>
     <use style="fill:#808080;stroke:#ffffff;" x="72.883429" xlink:href="#mb11c487bba" y="65.998299"/>
     <use style="fill:#808080;stroke:#ffffff;" x="77.854078" xlink:href="#mb11c487bba" y="92.693669"/>
     <use style="fill:#808080;stroke:#ffffff;" x="83.171629" xlink:href="#mb11c487bba" y="93.075584"/>
     <use style="fill:#808080;stroke:#ffffff;" x="81.555176" xlink:href="#mb11c487bba" y="110.665969"/>
     <use style="fill:#808080;stroke:#ffffff;" x="83.711915" xlink:href="#mb11c487bba" y="115.217986"/>
    </g>
   </g>
   <g id="PathCollection_2">
    <g clip-path="url(#p6681015320)">
     <use style="fill:#808080;stroke:#ffffff;" x="122.503269" xlink:href="#mb11c487bba" y="115.438631"/>
     <use style="fill:#808080;stroke:#ffffff;" x="126.274902" xlink:href="#mb11c487bba" y="114.932454"/>
     <use style="fill:#808080;stroke:#ffffff;" x="129.658708" xlink:href="#mb11c487bba" y="107.449916"/>
     <use style="fill:#808080;stroke:#ffffff;" x="127.39605" xlink:href="#mb11c487bba" y="110.307805"/>
     <use style="fill:#808080;stroke:#ffffff;" x="123.818723" xlink:href="#mb11c487bba" y="87.27085"/>
     <use style="fill:#808080;stroke:#ffffff;" x="133.824271" xlink:href="#mb11c487bba" y="104.5117"/>
     <use style="fill:#808080;stroke:#ffffff;" x="141.449681" xlink:href="#mb11c487bba" y="114.313017"/>
     <use style="fill:#808080;stroke:#ffffff;" x="127.856123" xlink:href="#mb11c487bba" y="110.64859"/>
     <use style="fill:#808080;stroke:#ffffff;" x="132.293493" xlink:href="#mb11c487bba" y="99.957551"/>
     <use style="fill:#808080;stroke:#ffffff;" x="130.014124" xlink:href="#mb11c487bba" y="90.317445"/>
     <use style="fill:#808080;stroke:#ffffff;" x="120.756687" xlink:href="#mb11c487bba" y="109.490447"/>
     <use style="fill:#808080;stroke:#ffffff;" x="124.270012" xlink:href="#mb11c487bba" y="99.995752"/>
     <use style="fill:#808080;stroke:#ffffff;" x="131.934962" xlink:href="#mb11c487bba" y="107.897237"/>
     <use style="fill:#808080;stroke:#ffffff;" x="127.435658" xlink:href="#mb11c487bba" y="114.513738"/>
    </g>
   </g>
   <g id="PathCollection_3">
    <g clip-path="url(#p6681015320)">
     <use style="fill:#808080;stroke:#ffffff;" x="170.642606" xlink:href="#mb11c487bba" y="119.864731"/>
     <use style="fill:#808080;stroke:#ffffff;" x="183.789955" xlink:href="#mb11c487bba" y="110.978556"/>
     <use style="fill:#808080;stroke:#ffffff;" x="184.803042" xlink:href="#mb11c487bba" y="110.643189"/>
     <use style="fill:#808080;stroke:#ffffff;" x="180.603966" xlink:href="#mb11c487bba" y="113.388478"/>
     <use style="fill:#808080;stroke:#ffffff;" x="183.989882" xlink:href="#mb11c487bba" y="56.443146"/>
     <use style="fill:#808080;stroke:#ffffff;" x="184.655926" xlink:href="#mb11c487bba" y="99.149031"/>
     <use style="fill:#808080;stroke:#ffffff;" x="181.0687" xlink:href="#mb11c487bba" y="119.657212"/>
     <use style="fill:#808080;stroke:#ffffff;" x="180.09356" xlink:href="#mb11c487bba" y="113.72823"/>
     <use style="fill:#808080;stroke:#ffffff;" x="191.738284" xlink:href="#mb11c487bba" y="97.462915"/>
     <use style="fill:#808080;stroke:#ffffff;" x="185.018361" xlink:href="#mb11c487bba" y="65.963577"/>
     <use style="fill:#808080;stroke:#ffffff;" x="191.441621" xlink:href="#mb11c487bba" y="92.683024"/>
     <use style="fill:#808080;stroke:#ffffff;" x="184.406484" xlink:href="#mb11c487bba" y="93.076135"/>
     <use style="fill:#808080;stroke:#ffffff;" x="190.21969" xlink:href="#mb11c487bba" y="110.666945"/>
     <use style="fill:#808080;stroke:#ffffff;" x="181.148573" xlink:href="#mb11c487bba" y="115.223279"/>
    </g>
   </g>
   <g id="line2d_8">
    <path clip-path="url(#p6681015320)" d="M 59.402 117.043665 
L 199.713438 117.043665 
" style="fill:none;stroke:#808080;stroke-dasharray:7.4,3.2;stroke-dashoffset:0;stroke-width:2;"/>
   </g>
   <g id="patch_3">
    <path d="M 59.402 156.581497 
L 59.402 37.968 
" style="fill:none;stroke:#000000;stroke-linecap:square;stroke-linejoin:miter;stroke-width:0.8;"/>
   </g>
   <g id="patch_4">
    <path d="M 59.402 156.581497 
L 199.713438 156.581497 
" style="fill:none;stroke:#000000;stroke-linecap:square;stroke-linejoin:miter;stroke-width:0.8;"/>
   </g>
   <g id="PathCollection_4">
    <defs>
     <path d="M 0 3.535534 
C 0.937635 3.535534 1.836992 3.163008 2.5 2.5 
C 3.163008 1.836992 3.535534 0.937635 3.535534 0 
C 3.535534 -0.937635 3.163008 -1.836992 2.5 -2.5 
C 1.836992 -3.163008 0.937635 -3.535534 0 -3.535534 
C -0.937635 -3.535534 -1.836992 -3.163008 -2.5 -2.5 
C -3.163008 -1.836992 -3.535534 -0.937635 -3.535534 0 
C -3.535534 0.937635 -3.163008 1.836992 -2.5 2.5 
C -1.836992 3.163008 -0.937635 3.535534 0 3.535534 
z
" id="mb815f482e4" style="stroke:#ffffff;"/>
    </defs>
    <g clip-path="url(#p6681015320)">
     <use style="stroke:#ffffff;" x="75.574138" xlink:href="#mb815f482e4" y="91.454045"/>
     <use style="stroke:#ffffff;" x="76.802693" xlink:href="#mb815f482e4" y="126.727819"/>
     <use style="stroke:#ffffff;" x="68.463977" xlink:href="#mb815f482e4" y="51.979"/>
     <use style="stroke:#ffffff;" x="85.213209" xlink:href="#mb815f482e4" y="57.855224"/>
     <use style="stroke:#ffffff;" x="79.30643" xlink:href="#mb815f482e4" y="63.663488"/>
     <use style="stroke:#ffffff;" x="70.093758" xlink:href="#mb815f482e4" y="66.702281"/>
     <use style="stroke:#ffffff;" x="76.702626" xlink:href="#mb815f482e4" y="105.253313"/>
     <use style="stroke:#ffffff;" x="70.17234" xlink:href="#mb815f482e4" y="97.911544"/>
     <use style="stroke:#ffffff;" x="89.727221" xlink:href="#mb815f482e4" y="99.420326"/>
     <use style="stroke:#ffffff;" x="79.15489" xlink:href="#mb815f482e4" y="117.500737"/>
     <use style="stroke:#ffffff;" x="79.313045" xlink:href="#mb815f482e4" y="74.089954"/>
    </g>
   </g>
   <g id="PathCollection_5">
    <g clip-path="url(#p6681015320)">
     <use style="stroke:#ffffff;" x="128.87673" xlink:href="#mb815f482e4" y="108.713601"/>
     <use style="stroke:#ffffff;" x="133.497851" xlink:href="#mb815f482e4" y="114.229382"/>
     <use style="stroke:#ffffff;" x="121.877313" xlink:href="#mb815f482e4" y="90.666868"/>
     <use style="stroke:#ffffff;" x="141.254097" xlink:href="#mb815f482e4" y="92.071641"/>
     <use style="stroke:#ffffff;" x="127.016974" xlink:href="#mb815f482e4" y="94.551182"/>
     <use style="stroke:#ffffff;" x="117.33189" xlink:href="#mb815f482e4" y="102.932525"/>
     <use style="stroke:#ffffff;" x="138.247153" xlink:href="#mb815f482e4" y="103.51265"/>
     <use style="stroke:#ffffff;" x="131.979361" xlink:href="#mb815f482e4" y="105.591311"/>
     <use style="stroke:#ffffff;" x="127.382368" xlink:href="#mb815f482e4" y="104.967315"/>
     <use style="stroke:#ffffff;" x="128.431813" xlink:href="#mb815f482e4" y="106.46793"/>
     <use style="stroke:#ffffff;" x="130.592433" xlink:href="#mb815f482e4" y="96.377529"/>
    </g>
   </g>
   <g id="PathCollection_6">
    <g clip-path="url(#p6681015320)">
     <use style="stroke:#ffffff;" x="180.937117" xlink:href="#mb815f482e4" y="91.489997"/>
     <use style="stroke:#ffffff;" x="182.540638" xlink:href="#mb815f482e4" y="126.721413"/>
     <use style="stroke:#ffffff;" x="185.522478" xlink:href="#mb815f482e4" y="51.917719"/>
     <use style="stroke:#ffffff;" x="182.04339" xlink:href="#mb815f482e4" y="57.80597"/>
     <use style="stroke:#ffffff;" x="188.635508" xlink:href="#mb815f482e4" y="63.602157"/>
     <use style="stroke:#ffffff;" x="185.520031" xlink:href="#mb815f482e4" y="66.672012"/>
     <use style="stroke:#ffffff;" x="179.21508" xlink:href="#mb815f482e4" y="105.261156"/>
     <use style="stroke:#ffffff;" x="178.825844" xlink:href="#mb815f482e4" y="97.932323"/>
     <use style="stroke:#ffffff;" x="184.393825" xlink:href="#mb815f482e4" y="99.358335"/>
     <use style="stroke:#ffffff;" x="176.103045" xlink:href="#mb815f482e4" y="117.510051"/>
     <use style="stroke:#ffffff;" x="185.925893" xlink:href="#mb815f482e4" y="70.057089"/>
    </g>
   </g>
   <g id="text_10">
    <!-- Discriminability Improvement  -->
    <defs>
     <path d="M 19.671875 64.796875 
L 19.671875 8.109375 
L 31.59375 8.109375 
Q 46.6875 8.109375 53.6875 14.9375 
Q 60.6875 21.78125 60.6875 36.53125 
Q 60.6875 51.171875 53.6875 57.984375 
Q 46.6875 64.796875 31.59375 64.796875 
z
M 9.8125 72.90625 
L 30.078125 72.90625 
Q 51.265625 72.90625 61.171875 64.09375 
Q 71.09375 55.28125 71.09375 36.53125 
Q 71.09375 17.671875 61.125 8.828125 
Q 51.171875 0 30.078125 0 
L 9.8125 0 
z
" id="DejaVuSans-68"/>
     <path d="M 48.78125 52.59375 
L 48.78125 44.1875 
Q 44.96875 46.296875 41.140625 47.34375 
Q 37.3125 48.390625 33.40625 48.390625 
Q 24.65625 48.390625 19.8125 42.84375 
Q 14.984375 37.3125 14.984375 27.296875 
Q 14.984375 17.28125 19.8125 11.734375 
Q 24.65625 6.203125 33.40625 6.203125 
Q 37.3125 6.203125 41.140625 7.25 
Q 44.96875 8.296875 48.78125 10.40625 
L 48.78125 2.09375 
Q 45.015625 0.34375 40.984375 -0.53125 
Q 36.96875 -1.421875 32.421875 -1.421875 
Q 20.0625 -1.421875 12.78125 6.34375 
Q 5.515625 14.109375 5.515625 27.296875 
Q 5.515625 40.671875 12.859375 48.328125 
Q 20.21875 56 33.015625 56 
Q 37.15625 56 41.109375 55.140625 
Q 45.0625 54.296875 48.78125 52.59375 
z
" id="DejaVuSans-99"/>
     <path d="M 48.6875 27.296875 
Q 48.6875 37.203125 44.609375 42.84375 
Q 40.53125 48.484375 33.40625 48.484375 
Q 26.265625 48.484375 22.1875 42.84375 
Q 18.109375 37.203125 18.109375 27.296875 
Q 18.109375 17.390625 22.1875 11.75 
Q 26.265625 6.109375 33.40625 6.109375 
Q 40.53125 6.109375 44.609375 11.75 
Q 48.6875 17.390625 48.6875 27.296875 
z
M 18.109375 46.390625 
Q 20.953125 51.265625 25.265625 53.625 
Q 29.59375 56 35.59375 56 
Q 45.5625 56 51.78125 48.09375 
Q 58.015625 40.1875 58.015625 27.296875 
Q 58.015625 14.40625 51.78125 6.484375 
Q 45.5625 -1.421875 35.59375 -1.421875 
Q 29.59375 -1.421875 25.265625 0.953125 
Q 20.953125 3.328125 18.109375 8.203125 
L 18.109375 0 
L 9.078125 0 
L 9.078125 75.984375 
L 18.109375 75.984375 
z
" id="DejaVuSans-98"/>
     <path d="M 32.171875 -5.078125 
Q 28.375 -14.84375 24.75 -17.8125 
Q 21.140625 -20.796875 15.09375 -20.796875 
L 7.90625 -20.796875 
L 7.90625 -13.28125 
L 13.1875 -13.28125 
Q 16.890625 -13.28125 18.9375 -11.515625 
Q 21 -9.765625 23.484375 -3.21875 
L 25.09375 0.875 
L 2.984375 54.6875 
L 12.5 54.6875 
L 29.59375 11.921875 
L 46.6875 54.6875 
L 56.203125 54.6875 
z
" id="DejaVuSans-121"/>
     <path d="M 9.8125 72.90625 
L 19.671875 72.90625 
L 19.671875 0 
L 9.8125 0 
z
" id="DejaVuSans-73"/>
     <path d="M 18.109375 8.203125 
L 18.109375 -20.796875 
L 9.078125 -20.796875 
L 9.078125 54.6875 
L 18.109375 54.6875 
L 18.109375 46.390625 
Q 20.953125 51.265625 25.265625 53.625 
Q 29.59375 56 35.59375 56 
Q 45.5625 56 51.78125 48.09375 
Q 58.015625 40.1875 58.015625 27.296875 
Q 58.015625 14.40625 51.78125 6.484375 
Q 45.5625 -1.421875 35.59375 -1.421875 
Q 29.59375 -1.421875 25.265625 0.953125 
Q 20.953125 3.328125 18.109375 8.203125 
z
M 48.6875 27.296875 
Q 48.6875 37.203125 44.609375 42.84375 
Q 40.53125 48.484375 33.40625 48.484375 
Q 26.265625 48.484375 22.1875 42.84375 
Q 18.109375 37.203125 18.109375 27.296875 
Q 18.109375 17.390625 22.1875 11.75 
Q 26.265625 6.109375 33.40625 6.109375 
Q 40.53125 6.109375 44.609375 11.75 
Q 48.6875 17.390625 48.6875 27.296875 
z
" id="DejaVuSans-112"/>
     <path d="M 2.984375 54.6875 
L 12.5 54.6875 
L 29.59375 8.796875 
L 46.6875 54.6875 
L 56.203125 54.6875 
L 35.6875 0 
L 23.484375 0 
z
" id="DejaVuSans-118"/>
    </defs>
    <g style="fill:#1f77b4;" transform="translate(38.701781 18.530625)scale(0.12 -0.12)">
     <use xlink:href="#DejaVuSans-68"/>
     <use x="77.001953" xlink:href="#DejaVuSans-105"/>
     <use x="104.785156" xlink:href="#DejaVuSans-115"/>
     <use x="156.884766" xlink:href="#DejaVuSans-99"/>
     <use x="211.865234" xlink:href="#DejaVuSans-114"/>
     <use x="252.978516" xlink:href="#DejaVuSans-105"/>
     <use x="280.761719" xlink:href="#DejaVuSans-109"/>
     <use x="378.173828" xlink:href="#DejaVuSans-105"/>
     <use x="405.957031" xlink:href="#DejaVuSans-110"/>
     <use x="469.335938" xlink:href="#DejaVuSans-97"/>
     <use x="530.615234" xlink:href="#DejaVuSans-98"/>
     <use x="594.091797" xlink:href="#DejaVuSans-105"/>
     <use x="621.875" xlink:href="#DejaVuSans-108"/>
     <use x="649.658203" xlink:href="#DejaVuSans-105"/>
     <use x="677.441406" xlink:href="#DejaVuSans-116"/>
     <use x="716.650391" xlink:href="#DejaVuSans-121"/>
     <use x="775.830078" xlink:href="#DejaVuSans-32"/>
     <use x="807.617188" xlink:href="#DejaVuSans-73"/>
     <use x="837.109375" xlink:href="#DejaVuSans-109"/>
     <use x="934.521484" xlink:href="#DejaVuSans-112"/>
     <use x="997.998047" xlink:href="#DejaVuSans-114"/>
     <use x="1039.080078" xlink:href="#DejaVuSans-111"/>
     <use x="1100.261719" xlink:href="#DejaVuSans-118"/>
     <use x="1159.441406" xlink:href="#DejaVuSans-101"/>
     <use x="1220.964844" xlink:href="#DejaVuSans-109"/>
     <use x="1318.376953" xlink:href="#DejaVuSans-101"/>
     <use x="1379.900391" xlink:href="#DejaVuSans-110"/>
     <use x="1443.279297" xlink:href="#DejaVuSans-116"/>
     <use x="1482.488281" xlink:href="#DejaVuSans-32"/>
    </g>
    <!--  Raw Data -->
    <defs>
     <path d="M 44.390625 34.1875 
Q 47.5625 33.109375 50.5625 29.59375 
Q 53.5625 26.078125 56.59375 19.921875 
L 66.609375 0 
L 56 0 
L 46.6875 18.703125 
Q 43.0625 26.03125 39.671875 28.421875 
Q 36.28125 30.8125 30.421875 30.8125 
L 19.671875 30.8125 
L 19.671875 0 
L 9.8125 0 
L 9.8125 72.90625 
L 32.078125 72.90625 
Q 44.578125 72.90625 50.734375 67.671875 
Q 56.890625 62.453125 56.890625 51.90625 
Q 56.890625 45.015625 53.6875 40.46875 
Q 50.484375 35.9375 44.390625 34.1875 
z
M 19.671875 64.796875 
L 19.671875 38.921875 
L 32.078125 38.921875 
Q 39.203125 38.921875 42.84375 42.21875 
Q 46.484375 45.515625 46.484375 51.90625 
Q 46.484375 58.296875 42.84375 61.546875 
Q 39.203125 64.796875 32.078125 64.796875 
z
" id="DejaVuSans-82"/>
     <path d="M 4.203125 54.6875 
L 13.1875 54.6875 
L 24.421875 12.015625 
L 35.59375 54.6875 
L 46.1875 54.6875 
L 57.421875 12.015625 
L 68.609375 54.6875 
L 77.59375 54.6875 
L 63.28125 0 
L 52.6875 0 
L 40.921875 44.828125 
L 29.109375 0 
L 18.5 0 
z
" id="DejaVuSans-119"/>
    </defs>
    <g style="fill:#1f77b4;" transform="translate(98.667094 31.968)scale(0.12 -0.12)">
     <use xlink:href="#DejaVuSans-32"/>
     <use x="31.787109" xlink:href="#DejaVuSans-82"/>
     <use x="101.238281" xlink:href="#DejaVuSans-97"/>
     <use x="162.517578" xlink:href="#DejaVuSans-119"/>
     <use x="244.304688" xlink:href="#DejaVuSans-32"/>
     <use x="276.091797" xlink:href="#DejaVuSans-68"/>
     <use x="353.09375" xlink:href="#DejaVuSans-97"/>
     <use x="414.373047" xlink:href="#DejaVuSans-116"/>
     <use x="453.582031" xlink:href="#DejaVuSans-97"/>
    </g>
   </g>
  </g>
  <g id="axes_2">
   <g id="patch_5">
    <path d="M 276.432497 156.581497 
L 416.743935 156.581497 
L 416.743935 37.968 
L 276.432497 37.968 
z
" style="fill:#ffffff;"/>
   </g>
   <g id="matplotlib.axis_3">
    <g id="xtick_4">
     <g id="line2d_9">
      <g>
       <use style="stroke:#000000;stroke-width:0.8;" x="321.28644" xlink:href="#ma319ca33a4" y="156.581497"/>
      </g>
     </g>
     <g id="text_11">
      <!-- 1st order -->
      <g transform="translate(307.147066 201.135496)rotate(-45)scale(0.1 -0.1)">
       <use xlink:href="#DejaVuSans-49"/>
       <use x="63.623047" xlink:href="#DejaVuSans-115"/>
       <use x="115.722656" xlink:href="#DejaVuSans-116"/>
       <use x="154.931641" xlink:href="#DejaVuSans-32"/>
       <use x="186.71875" xlink:href="#DejaVuSans-111"/>
       <use x="247.900391" xlink:href="#DejaVuSans-114"/>
       <use x="288.998047" xlink:href="#DejaVuSans-100"/>
       <use x="352.474609" xlink:href="#DejaVuSans-101"/>
       <use x="413.998047" xlink:href="#DejaVuSans-114"/>
      </g>
     </g>
    </g>
    <g id="xtick_5">
     <g id="line2d_10">
      <g>
       <use style="stroke:#000000;stroke-width:0.8;" x="373.792683" xlink:href="#ma319ca33a4" y="156.581497"/>
      </g>
     </g>
     <g id="text_12">
      <!-- 1st + 2nd -->
      <g transform="translate(358.32196 203.798195)rotate(-45)scale(0.1 -0.1)">
       <use xlink:href="#DejaVuSans-49"/>
       <use x="63.623047" xlink:href="#DejaVuSans-115"/>
       <use x="115.722656" xlink:href="#DejaVuSans-116"/>
       <use x="154.931641" xlink:href="#DejaVuSans-32"/>
       <use x="186.71875" xlink:href="#DejaVuSans-43"/>
       <use x="270.507812" xlink:href="#DejaVuSans-32"/>
       <use x="302.294922" xlink:href="#DejaVuSans-50"/>
       <use x="365.917969" xlink:href="#DejaVuSans-110"/>
       <use x="429.296875" xlink:href="#DejaVuSans-100"/>
      </g>
     </g>
    </g>
    <g id="text_13">
     <!-- Simulation -->
     <g transform="translate(319.955403 216.867194)scale(0.1 -0.1)">
      <use xlink:href="#DejaVuSans-83"/>
      <use x="63.476562" xlink:href="#DejaVuSans-105"/>
      <use x="91.259766" xlink:href="#DejaVuSans-109"/>
      <use x="188.671875" xlink:href="#DejaVuSans-117"/>
      <use x="252.050781" xlink:href="#DejaVuSans-108"/>
      <use x="279.833984" xlink:href="#DejaVuSans-97"/>
      <use x="341.113281" xlink:href="#DejaVuSans-116"/>
      <use x="380.322266" xlink:href="#DejaVuSans-105"/>
      <use x="408.105469" xlink:href="#DejaVuSans-111"/>
      <use x="469.287109" xlink:href="#DejaVuSans-110"/>
     </g>
    </g>
   </g>
   <g id="matplotlib.axis_4">
    <g id="ytick_5">
     <g id="line2d_11">
      <g>
       <use style="stroke:#000000;stroke-width:0.8;" x="276.432497" xlink:href="#m34f1ccee73" y="156.581497"/>
      </g>
     </g>
     <g id="text_14">
      <!-- −1 -->
      <g transform="translate(254.690309 160.380716)scale(0.1 -0.1)">
       <use xlink:href="#DejaVuSans-8722"/>
       <use x="83.789062" xlink:href="#DejaVuSans-49"/>
      </g>
     </g>
    </g>
    <g id="ytick_6">
     <g id="line2d_12">
      <g>
       <use style="stroke:#000000;stroke-width:0.8;" x="276.432497" xlink:href="#m34f1ccee73" y="117.043665"/>
      </g>
     </g>
     <g id="text_15">
      <!-- 0 -->
      <g transform="translate(263.069997 120.842883)scale(0.1 -0.1)">
       <use xlink:href="#DejaVuSans-48"/>
      </g>
     </g>
    </g>
    <g id="ytick_7">
     <g id="line2d_13">
      <g>
       <use style="stroke:#000000;stroke-width:0.8;" x="276.432497" xlink:href="#m34f1ccee73" y="77.505832"/>
      </g>
     </g>
     <g id="text_16">
      <!-- 1 -->
      <g transform="translate(263.069997 81.305051)scale(0.1 -0.1)">
       <use xlink:href="#DejaVuSans-49"/>
      </g>
     </g>
    </g>
    <g id="ytick_8">
     <g id="line2d_14">
      <g>
       <use style="stroke:#000000;stroke-width:0.8;" x="276.432497" xlink:href="#m34f1ccee73" y="37.968"/>
      </g>
     </g>
     <g id="text_17">
      <!-- 2 -->
      <g transform="translate(263.069997 41.767219)scale(0.1 -0.1)">
       <use xlink:href="#DejaVuSans-50"/>
      </g>
     </g>
    </g>
    <g id="text_18">
     <!-- $\Delta d'^{2}$ -->
     <g transform="translate(248.610622 107.774748)rotate(-90)scale(0.1 -0.1)">
      <use transform="translate(0 0.765625)" xlink:href="#DejaVuSans-916"/>
      <use transform="translate(68.408203 0.765625)" xlink:href="#DejaVuSans-Oblique-100"/>
      <use transform="translate(139.332474 39.046875)scale(0.7)" xlink:href="#Cmsy10-48"/>
      <use transform="translate(162.267044 39.046875)scale(0.7)" xlink:href="#DejaVuSans-50"/>
     </g>
    </g>
   </g>
   <g id="PathCollection_7">
    <g clip-path="url(#pd2be03706d)">
     <use style="fill:#808080;stroke:#ffffff;" x="324.104861" xlink:href="#mb11c487bba" y="116.51976"/>
     <use style="fill:#808080;stroke:#ffffff;" x="320.161746" xlink:href="#mb11c487bba" y="124.836026"/>
     <use style="fill:#808080;stroke:#ffffff;" x="319.20771" xlink:href="#mb11c487bba" y="115.024815"/>
     <use style="fill:#808080;stroke:#ffffff;" x="321.691395" xlink:href="#mb11c487bba" y="115.348954"/>
     <use style="fill:#808080;stroke:#ffffff;" x="327.620414" xlink:href="#mb11c487bba" y="109.100081"/>
     <use style="fill:#808080;stroke:#ffffff;" x="310.476908" xlink:href="#mb11c487bba" y="115.565187"/>
     <use style="fill:#808080;stroke:#ffffff;" x="328.075289" xlink:href="#mb11c487bba" y="120.74716"/>
     <use style="fill:#808080;stroke:#ffffff;" x="321.082819" xlink:href="#mb11c487bba" y="120.511767"/>
     <use style="fill:#808080;stroke:#ffffff;" x="309.636182" xlink:href="#mb11c487bba" y="113.408103"/>
     <use style="fill:#808080;stroke:#ffffff;" x="320.868674" xlink:href="#mb11c487bba" y="108.136991"/>
     <use style="fill:#808080;stroke:#ffffff;" x="323.642662" xlink:href="#mb11c487bba" y="118.854481"/>
     <use style="fill:#808080;stroke:#ffffff;" x="319.352347" xlink:href="#mb11c487bba" y="113.5305"/>
     <use style="fill:#808080;stroke:#ffffff;" x="317.113692" xlink:href="#mb11c487bba" y="115.490018"/>
     <use style="fill:#808080;stroke:#ffffff;" x="321.143658" xlink:href="#mb11c487bba" y="120.253646"/>
    </g>
   </g>
   <g id="PathCollection_8">
    <g clip-path="url(#pd2be03706d)">
     <use style="fill:#808080;stroke:#ffffff;" x="377.639992" xlink:href="#mb11c487bba" y="120.905331"/>
     <use style="fill:#808080;stroke:#ffffff;" x="375.154577" xlink:href="#mb11c487bba" y="126.954171"/>
     <use style="fill:#808080;stroke:#ffffff;" x="366.174843" xlink:href="#mb11c487bba" y="127.968704"/>
     <use style="fill:#808080;stroke:#ffffff;" x="365.47821" xlink:href="#mb11c487bba" y="126.052398"/>
     <use style="fill:#808080;stroke:#ffffff;" x="373.006445" xlink:href="#mb11c487bba" y="103.91663"/>
     <use style="fill:#808080;stroke:#ffffff;" x="368.189652" xlink:href="#mb11c487bba" y="128.430641"/>
     <use style="fill:#808080;stroke:#ffffff;" x="375.333124" xlink:href="#mb11c487bba" y="135.441674"/>
     <use style="fill:#808080;stroke:#ffffff;" x="373.256324" xlink:href="#mb11c487bba" y="132.486856"/>
     <use style="fill:#808080;stroke:#ffffff;" x="383.572113" xlink:href="#mb11c487bba" y="116.287732"/>
     <use style="fill:#808080;stroke:#ffffff;" x="375.279343" xlink:href="#mb11c487bba" y="114.141402"/>
     <use style="fill:#808080;stroke:#ffffff;" x="373.755972" xlink:href="#mb11c487bba" y="108.632124"/>
     <use style="fill:#808080;stroke:#ffffff;" x="365.771252" xlink:href="#mb11c487bba" y="113.130709"/>
     <use style="fill:#808080;stroke:#ffffff;" x="370.284642" xlink:href="#mb11c487bba" y="123.049342"/>
     <use style="fill:#808080;stroke:#ffffff;" x="360.403465" xlink:href="#mb11c487bba" y="126.046745"/>
    </g>
   </g>
   <g id="line2d_15">
    <path clip-path="url(#pd2be03706d)" d="M 276.432497 117.043665 
L 416.743935 117.043665 
" style="fill:none;stroke:#808080;stroke-dasharray:7.4,3.2;stroke-dashoffset:0;stroke-width:2;"/>
   </g>
   <g id="patch_6">
    <path d="M 276.432497 156.581497 
L 276.432497 37.968 
" style="fill:none;stroke:#000000;stroke-linecap:square;stroke-linejoin:miter;stroke-width:0.8;"/>
   </g>
   <g id="patch_7">
    <path d="M 276.432497 156.581497 
L 416.743935 156.581497 
" style="fill:none;stroke:#000000;stroke-linecap:square;stroke-linejoin:miter;stroke-width:0.8;"/>
   </g>
   <g id="PathCollection_9">
    <g clip-path="url(#pd2be03706d)">
     <use style="stroke:#ffffff;" x="317.361002" xlink:href="#mb815f482e4" y="115.516744"/>
     <use style="stroke:#ffffff;" x="324.01644" xlink:href="#mb815f482e4" y="118.688835"/>
     <use style="stroke:#ffffff;" x="324.024879" xlink:href="#mb815f482e4" y="110.198817"/>
     <use style="stroke:#ffffff;" x="317.946921" xlink:href="#mb815f482e4" y="111.49351"/>
     <use style="stroke:#ffffff;" x="324.684721" xlink:href="#mb815f482e4" y="110.463916"/>
     <use style="stroke:#ffffff;" x="324.586539" xlink:href="#mb815f482e4" y="118.376125"/>
     <use style="stroke:#ffffff;" x="324.99285" xlink:href="#mb815f482e4" y="119.612183"/>
     <use style="stroke:#ffffff;" x="324.539035" xlink:href="#mb815f482e4" y="120.832341"/>
     <use style="stroke:#ffffff;" x="321.171127" xlink:href="#mb815f482e4" y="119.725032"/>
     <use style="stroke:#ffffff;" x="324.089906" xlink:href="#mb815f482e4" y="120.898311"/>
     <use style="stroke:#ffffff;" x="324.0746" xlink:href="#mb815f482e4" y="112.324146"/>
    </g>
   </g>
   <g id="PathCollection_10">
    <g clip-path="url(#pd2be03706d)">
     <use style="stroke:#ffffff;" x="381.264919" xlink:href="#mb815f482e4" y="108.866"/>
     <use style="stroke:#ffffff;" x="376.212704" xlink:href="#mb815f482e4" y="131.972842"/>
     <use style="stroke:#ffffff;" x="382.197723" xlink:href="#mb815f482e4" y="92.94968"/>
     <use style="stroke:#ffffff;" x="366.70068" xlink:href="#mb815f482e4" y="93.743929"/>
     <use style="stroke:#ffffff;" x="374.327345" xlink:href="#mb815f482e4" y="97.804294"/>
     <use style="stroke:#ffffff;" x="376.443523" xlink:href="#mb815f482e4" y="89.642386"/>
     <use style="stroke:#ffffff;" x="373.583332" xlink:href="#mb815f482e4" y="144.576557"/>
     <use style="stroke:#ffffff;" x="366.99592" xlink:href="#mb815f482e4" y="125.444183"/>
     <use style="stroke:#ffffff;" x="385.414939" xlink:href="#mb815f482e4" y="119.57577"/>
     <use style="stroke:#ffffff;" x="379.039843" xlink:href="#mb815f482e4" y="145.126979"/>
     <use style="stroke:#ffffff;" x="381.85948" xlink:href="#mb815f482e4" y="99.947844"/>
    </g>
   </g>
   <g id="text_19">
    <!-- Discriminability Improvement  -->
    <g style="fill:#ff7f0e;" transform="translate(255.732278 18.530625)scale(0.12 -0.12)">
     <use xlink:href="#DejaVuSans-68"/>
     <use x="77.001953" xlink:href="#DejaVuSans-105"/>
     <use x="104.785156" xlink:href="#DejaVuSans-115"/>
     <use x="156.884766" xlink:href="#DejaVuSans-99"/>
     <use x="211.865234" xlink:href="#DejaVuSans-114"/>
     <use x="252.978516" xlink:href="#DejaVuSans-105"/>
     <use x="280.761719" xlink:href="#DejaVuSans-109"/>
     <use x="378.173828" xlink:href="#DejaVuSans-105"/>
     <use x="405.957031" xlink:href="#DejaVuSans-110"/>
     <use x="469.335938" xlink:href="#DejaVuSans-97"/>
     <use x="530.615234" xlink:href="#DejaVuSans-98"/>
     <use x="594.091797" xlink:href="#DejaVuSans-105"/>
     <use x="621.875" xlink:href="#DejaVuSans-108"/>
     <use x="649.658203" xlink:href="#DejaVuSans-105"/>
     <use x="677.441406" xlink:href="#DejaVuSans-116"/>
     <use x="716.650391" xlink:href="#DejaVuSans-121"/>
     <use x="775.830078" xlink:href="#DejaVuSans-32"/>
     <use x="807.617188" xlink:href="#DejaVuSans-73"/>
     <use x="837.109375" xlink:href="#DejaVuSans-109"/>
     <use x="934.521484" xlink:href="#DejaVuSans-112"/>
     <use x="997.998047" xlink:href="#DejaVuSans-114"/>
     <use x="1039.080078" xlink:href="#DejaVuSans-111"/>
     <use x="1100.261719" xlink:href="#DejaVuSans-118"/>
     <use x="1159.441406" xlink:href="#DejaVuSans-101"/>
     <use x="1220.964844" xlink:href="#DejaVuSans-109"/>
     <use x="1318.376953" xlink:href="#DejaVuSans-101"/>
     <use x="1379.900391" xlink:href="#DejaVuSans-110"/>
     <use x="1443.279297" xlink:href="#DejaVuSans-116"/>
     <use x="1482.488281" xlink:href="#DejaVuSans-32"/>
    </g>
    <!--  Pupil Corrected Data -->
    <defs>
     <path d="M 19.671875 64.796875 
L 19.671875 37.40625 
L 32.078125 37.40625 
Q 38.96875 37.40625 42.71875 40.96875 
Q 46.484375 44.53125 46.484375 51.125 
Q 46.484375 57.671875 42.71875 61.234375 
Q 38.96875 64.796875 32.078125 64.796875 
z
M 9.8125 72.90625 
L 32.078125 72.90625 
Q 44.34375 72.90625 50.609375 67.359375 
Q 56.890625 61.8125 56.890625 51.125 
Q 56.890625 40.328125 50.609375 34.8125 
Q 44.34375 29.296875 32.078125 29.296875 
L 19.671875 29.296875 
L 19.671875 0 
L 9.8125 0 
z
" id="DejaVuSans-80"/>
     <path d="M 64.40625 67.28125 
L 64.40625 56.890625 
Q 59.421875 61.53125 53.78125 63.8125 
Q 48.140625 66.109375 41.796875 66.109375 
Q 29.296875 66.109375 22.65625 58.46875 
Q 16.015625 50.828125 16.015625 36.375 
Q 16.015625 21.96875 22.65625 14.328125 
Q 29.296875 6.6875 41.796875 6.6875 
Q 48.140625 6.6875 53.78125 8.984375 
Q 59.421875 11.28125 64.40625 15.921875 
L 64.40625 5.609375 
Q 59.234375 2.09375 53.4375 0.328125 
Q 47.65625 -1.421875 41.21875 -1.421875 
Q 24.65625 -1.421875 15.125 8.703125 
Q 5.609375 18.84375 5.609375 36.375 
Q 5.609375 53.953125 15.125 64.078125 
Q 24.65625 74.21875 41.21875 74.21875 
Q 47.75 74.21875 53.53125 72.484375 
Q 59.328125 70.75 64.40625 67.28125 
z
" id="DejaVuSans-67"/>
    </defs>
    <g style="fill:#ff7f0e;" transform="translate(282.344153 31.968)scale(0.12 -0.12)">
     <use xlink:href="#DejaVuSans-32"/>
     <use x="31.787109" xlink:href="#DejaVuSans-80"/>
     <use x="92.074219" xlink:href="#DejaVuSans-117"/>
     <use x="155.453125" xlink:href="#DejaVuSans-112"/>
     <use x="218.929688" xlink:href="#DejaVuSans-105"/>
     <use x="246.712891" xlink:href="#DejaVuSans-108"/>
     <use x="274.496094" xlink:href="#DejaVuSans-32"/>
     <use x="306.283203" xlink:href="#DejaVuSans-67"/>
     <use x="376.107422" xlink:href="#DejaVuSans-111"/>
     <use x="437.289062" xlink:href="#DejaVuSans-114"/>
     <use x="478.386719" xlink:href="#DejaVuSans-114"/>
     <use x="519.46875" xlink:href="#DejaVuSans-101"/>
     <use x="580.992188" xlink:href="#DejaVuSans-99"/>
     <use x="635.972656" xlink:href="#DejaVuSans-116"/>
     <use x="675.181641" xlink:href="#DejaVuSans-101"/>
     <use x="736.705078" xlink:href="#DejaVuSans-100"/>
     <use x="800.181641" xlink:href="#DejaVuSans-32"/>
     <use x="831.96875" xlink:href="#DejaVuSans-68"/>
     <use x="908.970703" xlink:href="#DejaVuSans-97"/>
     <use x="970.25" xlink:href="#DejaVuSans-116"/>
     <use x="1009.458984" xlink:href="#DejaVuSans-97"/>
    </g>
   </g>
  </g>
  <g id="axes_3">
   <g id="patch_8">
    <path d="M 493.462994 156.581497 
L 633.774431 156.581497 
L 633.774431 37.968 
L 493.462994 37.968 
z
" style="fill:#ffffff;"/>
   </g>
   <g id="patch_9">
    <path clip-path="url(#p4cff8dd775)" d="M 510.909682 156.581497 
L 513.419636 156.581497 
L 513.419636 156.581497 
L 510.909682 156.581497 
z
" style="fill:#1f77b4;stroke:#000000;stroke-linejoin:miter;"/>
   </g>
   <g id="patch_10">
    <path clip-path="url(#p4cff8dd775)" d="M 517.184567 156.581497 
L 519.694521 156.581497 
L 519.694521 156.385116 
L 517.184567 156.385116 
z
" style="fill:#1f77b4;stroke:#000000;stroke-linejoin:miter;"/>
   </g>
   <g id="patch_11">
    <path clip-path="url(#p4cff8dd775)" d="M 523.459451 156.581497 
L 525.969405 156.581497 
L 525.969405 156.385116 
L 523.459451 156.385116 
z
" style="fill:#1f77b4;stroke:#000000;stroke-linejoin:miter;"/>
   </g>
   <g id="patch_12">
    <path clip-path="url(#p4cff8dd775)" d="M 529.734336 156.581497 
L 532.24429 156.581497 
L 532.24429 155.795975 
L 529.734336 155.795975 
z
" style="fill:#1f77b4;stroke:#000000;stroke-linejoin:miter;"/>
   </g>
   <g id="patch_13">
    <path clip-path="url(#p4cff8dd775)" d="M 536.009221 156.581497 
L 538.519174 156.581497 
L 538.519174 155.992355 
L 536.009221 155.992355 
z
" style="fill:#1f77b4;stroke:#000000;stroke-linejoin:miter;"/>
   </g>
   <g id="patch_14">
    <path clip-path="url(#p4cff8dd775)" d="M 542.284105 156.581497 
L 544.794059 156.581497 
L 544.794059 154.617692 
L 542.284105 154.617692 
z
" style="fill:#1f77b4;stroke:#000000;stroke-linejoin:miter;"/>
   </g>
   <g id="patch_15">
    <path clip-path="url(#p4cff8dd775)" d="M 548.55899 156.581497 
L 551.068943 156.581497 
L 551.068943 150.886464 
L 548.55899 150.886464 
z
" style="fill:#1f77b4;stroke:#000000;stroke-linejoin:miter;"/>
   </g>
   <g id="patch_16">
    <path clip-path="url(#p4cff8dd775)" d="M 554.833874 156.581497 
L 557.343828 156.581497 
L 557.343828 146.762474 
L 554.833874 146.762474 
z
" style="fill:#1f77b4;stroke:#000000;stroke-linejoin:miter;"/>
   </g>
   <g id="patch_17">
    <path clip-path="url(#p4cff8dd775)" d="M 561.108759 156.581497 
L 563.618712 156.581497 
L 563.618712 138.121735 
L 561.108759 138.121735 
z
" style="fill:#1f77b4;stroke:#000000;stroke-linejoin:miter;"/>
   </g>
   <g id="patch_18">
    <path clip-path="url(#p4cff8dd775)" d="M 567.383643 156.581497 
L 569.893597 156.581497 
L 569.893597 132.819463 
L 567.383643 132.819463 
z
" style="fill:#1f77b4;stroke:#000000;stroke-linejoin:miter;"/>
   </g>
   <g id="patch_19">
    <path clip-path="url(#p4cff8dd775)" d="M 573.658528 156.581497 
L 576.168482 156.581497 
L 576.168482 132.623082 
L 573.658528 132.623082 
z
" style="fill:#1f77b4;stroke:#000000;stroke-linejoin:miter;"/>
   </g>
   <g id="patch_20">
    <path clip-path="url(#p4cff8dd775)" d="M 579.933412 156.581497 
L 582.443366 156.581497 
L 582.443366 138.318115 
L 579.933412 138.318115 
z
" style="fill:#1f77b4;stroke:#000000;stroke-linejoin:miter;"/>
   </g>
   <g id="patch_21">
    <path clip-path="url(#p4cff8dd775)" d="M 586.208297 156.581497 
L 588.718251 156.581497 
L 588.718251 143.424007 
L 586.208297 143.424007 
z
" style="fill:#1f77b4;stroke:#000000;stroke-linejoin:miter;"/>
   </g>
   <g id="patch_22">
    <path clip-path="url(#p4cff8dd775)" d="M 592.483181 156.581497 
L 594.993135 156.581497 
L 594.993135 146.173333 
L 592.483181 146.173333 
z
" style="fill:#1f77b4;stroke:#000000;stroke-linejoin:miter;"/>
   </g>
   <g id="patch_23">
    <path clip-path="url(#p4cff8dd775)" d="M 598.758066 156.581497 
L 601.26802 156.581497 
L 601.26802 151.279225 
L 598.758066 151.279225 
z
" style="fill:#1f77b4;stroke:#000000;stroke-linejoin:miter;"/>
   </g>
   <g id="patch_24">
    <path clip-path="url(#p4cff8dd775)" d="M 605.03295 156.581497 
L 607.542904 156.581497 
L 607.542904 155.010453 
L 605.03295 155.010453 
z
" style="fill:#1f77b4;stroke:#000000;stroke-linejoin:miter;"/>
   </g>
   <g id="patch_25">
    <path clip-path="url(#p4cff8dd775)" d="M 611.307835 156.581497 
L 613.817789 156.581497 
L 613.817789 155.403214 
L 611.307835 155.403214 
z
" style="fill:#1f77b4;stroke:#000000;stroke-linejoin:miter;"/>
   </g>
   <g id="patch_26">
    <path clip-path="url(#p4cff8dd775)" d="M 513.419636 156.581497 
L 515.92959 156.581497 
L 515.92959 156.581497 
L 513.419636 156.581497 
z
" style="fill:#ff7f0e;stroke:#000000;stroke-linejoin:miter;"/>
   </g>
   <g id="patch_27">
    <path clip-path="url(#p4cff8dd775)" d="M 519.694521 156.581497 
L 522.204475 156.581497 
L 522.204475 156.581497 
L 519.694521 156.581497 
z
" style="fill:#ff7f0e;stroke:#000000;stroke-linejoin:miter;"/>
   </g>
   <g id="patch_28">
    <path clip-path="url(#p4cff8dd775)" d="M 525.969405 156.581497 
L 528.479359 156.581497 
L 528.479359 156.581497 
L 525.969405 156.581497 
z
" style="fill:#ff7f0e;stroke:#000000;stroke-linejoin:miter;"/>
   </g>
   <g id="patch_29">
    <path clip-path="url(#p4cff8dd775)" d="M 532.24429 156.581497 
L 534.754244 156.581497 
L 534.754244 156.581497 
L 532.24429 156.581497 
z
" style="fill:#ff7f0e;stroke:#000000;stroke-linejoin:miter;"/>
   </g>
   <g id="patch_30">
    <path clip-path="url(#p4cff8dd775)" d="M 538.519174 156.581497 
L 541.029128 156.581497 
L 541.029128 156.581497 
L 538.519174 156.581497 
z
" style="fill:#ff7f0e;stroke:#000000;stroke-linejoin:miter;"/>
   </g>
   <g id="patch_31">
    <path clip-path="url(#p4cff8dd775)" d="M 544.794059 156.581497 
L 547.304013 156.581497 
L 547.304013 156.387091 
L 544.794059 156.387091 
z
" style="fill:#ff7f0e;stroke:#000000;stroke-linejoin:miter;"/>
   </g>
   <g id="patch_32">
    <path clip-path="url(#p4cff8dd775)" d="M 551.068943 156.581497 
L 553.578897 156.581497 
L 553.578897 155.998281 
L 551.068943 155.998281 
z
" style="fill:#ff7f0e;stroke:#000000;stroke-linejoin:miter;"/>
   </g>
   <g id="patch_33">
    <path clip-path="url(#p4cff8dd775)" d="M 557.343828 156.581497 
L 559.853782 156.581497 
L 559.853782 151.915768 
L 557.343828 151.915768 
z
" style="fill:#ff7f0e;stroke:#000000;stroke-linejoin:miter;"/>
   </g>
   <g id="patch_34">
    <path clip-path="url(#p4cff8dd775)" d="M 563.618712 156.581497 
L 566.128666 156.581497 
L 566.128666 80.957813 
L 563.618712 80.957813 
z
" style="fill:#ff7f0e;stroke:#000000;stroke-linejoin:miter;"/>
   </g>
   <g id="patch_35">
    <path clip-path="url(#p4cff8dd775)" d="M 569.893597 156.581497 
L 572.403551 156.581497 
L 572.403551 104.675267 
L 569.893597 104.675267 
z
" style="fill:#ff7f0e;stroke:#000000;stroke-linejoin:miter;"/>
   </g>
   <g id="patch_36">
    <path clip-path="url(#p4cff8dd775)" d="M 576.168482 156.581497 
L 578.678435 156.581497 
L 578.678435 154.443038 
L 576.168482 154.443038 
z
" style="fill:#ff7f0e;stroke:#000000;stroke-linejoin:miter;"/>
   </g>
   <g id="patch_37">
    <path clip-path="url(#p4cff8dd775)" d="M 582.443366 156.581497 
L 584.95332 156.581497 
L 584.95332 156.387091 
L 582.443366 156.387091 
z
" style="fill:#ff7f0e;stroke:#000000;stroke-linejoin:miter;"/>
   </g>
   <g id="patch_38">
    <path clip-path="url(#p4cff8dd775)" d="M 588.718251 156.581497 
L 591.228204 156.581497 
L 591.228204 156.581497 
L 588.718251 156.581497 
z
" style="fill:#ff7f0e;stroke:#000000;stroke-linejoin:miter;"/>
   </g>
   <g id="patch_39">
    <path clip-path="url(#p4cff8dd775)" d="M 594.993135 156.581497 
L 597.503089 156.581497 
L 597.503089 156.581497 
L 594.993135 156.581497 
z
" style="fill:#ff7f0e;stroke:#000000;stroke-linejoin:miter;"/>
   </g>
   <g id="patch_40">
    <path clip-path="url(#p4cff8dd775)" d="M 601.26802 156.581497 
L 603.777973 156.581497 
L 603.777973 156.581497 
L 601.26802 156.581497 
z
" style="fill:#ff7f0e;stroke:#000000;stroke-linejoin:miter;"/>
   </g>
   <g id="patch_41">
    <path clip-path="url(#p4cff8dd775)" d="M 607.542904 156.581497 
L 610.052858 156.581497 
L 610.052858 156.581497 
L 607.542904 156.581497 
z
" style="fill:#ff7f0e;stroke:#000000;stroke-linejoin:miter;"/>
   </g>
   <g id="patch_42">
    <path clip-path="url(#p4cff8dd775)" d="M 613.817789 156.581497 
L 616.327742 156.581497 
L 616.327742 156.581497 
L 613.817789 156.581497 
z
" style="fill:#ff7f0e;stroke:#000000;stroke-linejoin:miter;"/>
   </g>
   <g id="matplotlib.axis_5">
    <g id="xtick_6">
     <g id="line2d_16">
      <g>
       <use style="stroke:#000000;stroke-width:0.8;" x="504.007309" xlink:href="#ma319ca33a4" y="156.581497"/>
      </g>
     </g>
     <g id="text_20">
      <!-- −0.5 -->
      <defs>
       <path d="M 10.6875 12.40625 
L 21 12.40625 
L 21 0 
L 10.6875 0 
z
" id="DejaVuSans-46"/>
       <path d="M 10.796875 72.90625 
L 49.515625 72.90625 
L 49.515625 64.59375 
L 19.828125 64.59375 
L 19.828125 46.734375 
Q 21.96875 47.46875 24.109375 47.828125 
Q 26.265625 48.1875 28.421875 48.1875 
Q 40.625 48.1875 47.75 41.5 
Q 54.890625 34.8125 54.890625 23.390625 
Q 54.890625 11.625 47.5625 5.09375 
Q 40.234375 -1.421875 26.90625 -1.421875 
Q 22.3125 -1.421875 17.546875 -0.640625 
Q 12.796875 0.140625 7.71875 1.703125 
L 7.71875 11.625 
Q 12.109375 9.234375 16.796875 8.0625 
Q 21.484375 6.890625 26.703125 6.890625 
Q 35.15625 6.890625 40.078125 11.328125 
Q 45.015625 15.765625 45.015625 23.390625 
Q 45.015625 31 40.078125 35.4375 
Q 35.15625 39.890625 26.703125 39.890625 
Q 22.75 39.890625 18.8125 39.015625 
Q 14.890625 38.140625 10.796875 36.28125 
z
" id="DejaVuSans-53"/>
      </defs>
      <g transform="translate(491.865903 171.179934)scale(0.1 -0.1)">
       <use xlink:href="#DejaVuSans-8722"/>
       <use x="83.789062" xlink:href="#DejaVuSans-48"/>
       <use x="147.412109" xlink:href="#DejaVuSans-46"/>
       <use x="179.199219" xlink:href="#DejaVuSans-53"/>
      </g>
     </g>
    </g>
    <g id="xtick_7">
     <g id="line2d_17">
      <g>
       <use style="stroke:#000000;stroke-width:0.8;" x="566.756155" xlink:href="#ma319ca33a4" y="156.581497"/>
      </g>
     </g>
     <g id="text_21">
      <!-- 0.0 -->
      <g transform="translate(558.804592 171.179934)scale(0.1 -0.1)">
       <use xlink:href="#DejaVuSans-48"/>
       <use x="63.623047" xlink:href="#DejaVuSans-46"/>
       <use x="95.410156" xlink:href="#DejaVuSans-48"/>
      </g>
     </g>
    </g>
    <g id="xtick_8">
     <g id="line2d_18">
      <g>
       <use style="stroke:#000000;stroke-width:0.8;" x="629.505" xlink:href="#ma319ca33a4" y="156.581497"/>
      </g>
     </g>
     <g id="text_22">
      <!-- 0.5 -->
      <g transform="translate(621.553437 171.179934)scale(0.1 -0.1)">
       <use xlink:href="#DejaVuSans-48"/>
       <use x="63.623047" xlink:href="#DejaVuSans-46"/>
       <use x="95.410156" xlink:href="#DejaVuSans-53"/>
      </g>
     </g>
    </g>
    <g id="text_23">
     <!-- Pearson's $r$ -->
     <defs>
      <path d="M 17.921875 72.90625 
L 17.921875 45.796875 
L 9.625 45.796875 
L 9.625 72.90625 
z
" id="DejaVuSans-39"/>
      <path d="M 44.578125 46.390625 
Q 43.21875 47.125 41.453125 47.515625 
Q 39.703125 47.90625 37.703125 47.90625 
Q 30.515625 47.90625 25.140625 42.453125 
Q 19.78125 37.015625 18.015625 27.875 
L 12.5 0 
L 3.515625 0 
L 14.203125 54.6875 
L 23.1875 54.6875 
L 21.484375 46.1875 
Q 25.046875 50.921875 30 53.453125 
Q 34.96875 56 40.578125 56 
Q 42.046875 56 43.453125 55.828125 
Q 44.875 55.671875 46.296875 55.28125 
z
" id="DejaVuSans-Oblique-114"/>
     </defs>
     <g transform="translate(535.918712 184.858059)scale(0.1 -0.1)">
      <use transform="translate(0 0.09375)" xlink:href="#DejaVuSans-80"/>
      <use transform="translate(60.302734 0.09375)" xlink:href="#DejaVuSans-101"/>
      <use transform="translate(121.826172 0.09375)" xlink:href="#DejaVuSans-97"/>
      <use transform="translate(183.105469 0.09375)" xlink:href="#DejaVuSans-114"/>
      <use transform="translate(224.21875 0.09375)" xlink:href="#DejaVuSans-115"/>
      <use transform="translate(276.318359 0.09375)" xlink:href="#DejaVuSans-111"/>
      <use transform="translate(337.5 0.09375)" xlink:href="#DejaVuSans-110"/>
      <use transform="translate(400.878906 0.09375)" xlink:href="#DejaVuSans-39"/>
      <use transform="translate(428.369141 0.09375)" xlink:href="#DejaVuSans-115"/>
      <use transform="translate(480.46875 0.09375)" xlink:href="#DejaVuSans-32"/>
      <use transform="translate(512.255859 0.09375)" xlink:href="#DejaVuSans-Oblique-114"/>
     </g>
    </g>
   </g>
   <g id="matplotlib.axis_6">
    <g id="ytick_9">
     <g id="line2d_19">
      <g>
       <use style="stroke:#000000;stroke-width:0.8;" x="493.462994" xlink:href="#m34f1ccee73" y="156.581497"/>
      </g>
     </g>
     <g id="text_24">
      <!-- 0 -->
      <g transform="translate(480.100494 160.380716)scale(0.1 -0.1)">
       <use xlink:href="#DejaVuSans-48"/>
      </g>
     </g>
    </g>
    <g id="ytick_10">
     <g id="line2d_20">
      <g>
       <use style="stroke:#000000;stroke-width:0.8;" x="493.462994" xlink:href="#m34f1ccee73" y="122.754965"/>
      </g>
     </g>
     <g id="text_25">
      <!-- 5 -->
      <g transform="translate(480.100494 126.554184)scale(0.1 -0.1)">
       <use xlink:href="#DejaVuSans-53"/>
      </g>
     </g>
    </g>
    <g id="ytick_11">
     <g id="line2d_21">
      <g>
       <use style="stroke:#000000;stroke-width:0.8;" x="493.462994" xlink:href="#m34f1ccee73" y="88.928433"/>
      </g>
     </g>
     <g id="text_26">
      <!-- 10 -->
      <g transform="translate(473.737994 92.727651)scale(0.1 -0.1)">
       <use xlink:href="#DejaVuSans-49"/>
       <use x="63.623047" xlink:href="#DejaVuSans-48"/>
      </g>
     </g>
    </g>
    <g id="ytick_12">
     <g id="line2d_22">
      <g>
       <use style="stroke:#000000;stroke-width:0.8;" x="493.462994" xlink:href="#m34f1ccee73" y="55.101901"/>
      </g>
     </g>
     <g id="text_27">
      <!-- 15 -->
      <g transform="translate(473.737994 58.901119)scale(0.1 -0.1)">
       <use xlink:href="#DejaVuSans-49"/>
       <use x="63.623047" xlink:href="#DejaVuSans-53"/>
      </g>
     </g>
    </g>
    <g id="text_28">
     <!-- Neuron Density -->
     <g transform="translate(467.658306 136.140373)rotate(-90)scale(0.1 -0.1)">
      <use xlink:href="#DejaVuSans-78"/>
      <use x="74.804688" xlink:href="#DejaVuSans-101"/>
      <use x="136.328125" xlink:href="#DejaVuSans-117"/>
      <use x="199.707031" xlink:href="#DejaVuSans-114"/>
      <use x="240.789062" xlink:href="#DejaVuSans-111"/>
      <use x="301.970703" xlink:href="#DejaVuSans-110"/>
      <use x="365.349609" xlink:href="#DejaVuSans-32"/>
      <use x="397.136719" xlink:href="#DejaVuSans-68"/>
      <use x="474.138672" xlink:href="#DejaVuSans-101"/>
      <use x="535.662109" xlink:href="#DejaVuSans-110"/>
      <use x="599.041016" xlink:href="#DejaVuSans-115"/>
      <use x="651.140625" xlink:href="#DejaVuSans-105"/>
      <use x="678.923828" xlink:href="#DejaVuSans-116"/>
      <use x="718.132812" xlink:href="#DejaVuSans-121"/>
     </g>
    </g>
   </g>
   <g id="line2d_23">
    <path clip-path="url(#p4cff8dd775)" d="M 505.638779 156.580586 
L 525.139538 156.465094 
L 531.059411 156.209984 
L 535.122069 155.824053 
L 538.488271 155.283788 
L 541.39017 154.593684 
L 544.059916 153.728075 
L 546.613587 152.659371 
L 549.051182 151.40014 
L 551.604852 149.826142 
L 554.390675 147.832991 
L 557.756877 145.127214 
L 565.533966 138.744021 
L 567.855484 137.188324 
L 569.828775 136.122378 
L 571.569914 135.418925 
L 573.194978 134.986845 
L 574.820041 134.785898 
L 576.445104 134.822631 
L 578.070167 135.095844 
L 579.69523 135.596656 
L 581.43637 136.367396 
L 583.409661 137.498907 
L 585.615103 139.027349 
L 588.517002 141.329423 
L 597.570926 148.722019 
L 600.356748 150.595965 
L 602.910419 152.048417 
L 605.46409 153.239996 
L 608.01776 154.184058 
L 610.687507 154.935443 
L 613.589405 155.523745 
L 616.955608 155.975323 
L 621.134342 156.297009 
L 621.598645 156.32111 
L 621.598645 156.32111 
" style="fill:none;stroke:#1f77b4;stroke-linecap:square;stroke-width:2;"/>
   </g>
   <g id="line2d_24">
    <path clip-path="url(#p4cff8dd775)" d="M 499.840786 156.581497 
L 554.87239 156.48282 
L 555.893859 156.247066 
L 556.532276 155.905388 
L 557.04301 155.432263 
L 557.553744 154.683923 
L 558.064479 153.537894 
L 558.575213 151.839338 
L 559.085947 149.404165 
L 559.724365 145.014349 
L 560.362782 138.765909 
L 561.0012 130.358356 
L 561.767301 117.302875 
L 562.788769 95.766014 
L 564.576339 57.73093 
L 565.214757 48.708174 
L 565.725491 44.615631 
L 565.980858 43.745935 
L 566.108541 43.616262 
L 566.236225 43.691346 
L 566.491592 44.453048 
L 566.874643 47.085396 
L 567.385377 53.158668 
L 568.023794 64.129095 
L 569.172946 89.183922 
L 570.577465 119.064167 
L 571.47125 133.529104 
L 572.237351 142.433294 
L 572.875769 147.62034 
L 573.514187 151.157274 
L 574.152604 153.443723 
L 574.791022 154.846829 
L 575.42944 155.665019 
L 576.067857 156.118756 
L 576.833958 156.389538 
L 577.98311 156.536118 
L 580.792148 156.580777 
L 627.396639 156.581497 
L 627.396639 156.581497 
" style="fill:none;stroke:#ff7f0e;stroke-linecap:square;stroke-width:2;"/>
   </g>
   <g id="patch_43">
    <path d="M 493.462994 156.581497 
L 493.462994 37.968 
" style="fill:none;stroke:#000000;stroke-linecap:square;stroke-linejoin:miter;stroke-width:0.8;"/>
   </g>
   <g id="patch_44">
    <path d="M 493.462994 156.581497 
L 633.774431 156.581497 
" style="fill:none;stroke:#000000;stroke-linecap:square;stroke-linejoin:miter;stroke-width:0.8;"/>
   </g>
   <g id="text_29">
    <!-- Residual spike count  -->
    <defs>
     <path d="M 9.078125 75.984375 
L 18.109375 75.984375 
L 18.109375 31.109375 
L 44.921875 54.6875 
L 56.390625 54.6875 
L 27.390625 29.109375 
L 57.625 0 
L 45.90625 0 
L 18.109375 26.703125 
L 18.109375 0 
L 9.078125 0 
z
" id="DejaVuSans-107"/>
    </defs>
    <g transform="translate(499.600587 18.530625)scale(0.12 -0.12)">
     <use xlink:href="#DejaVuSans-82"/>
     <use x="69.419922" xlink:href="#DejaVuSans-101"/>
     <use x="130.943359" xlink:href="#DejaVuSans-115"/>
     <use x="183.042969" xlink:href="#DejaVuSans-105"/>
     <use x="210.826172" xlink:href="#DejaVuSans-100"/>
     <use x="274.302734" xlink:href="#DejaVuSans-117"/>
     <use x="337.681641" xlink:href="#DejaVuSans-97"/>
     <use x="398.960938" xlink:href="#DejaVuSans-108"/>
     <use x="426.744141" xlink:href="#DejaVuSans-32"/>
     <use x="458.53125" xlink:href="#DejaVuSans-115"/>
     <use x="510.630859" xlink:href="#DejaVuSans-112"/>
     <use x="574.107422" xlink:href="#DejaVuSans-105"/>
     <use x="601.890625" xlink:href="#DejaVuSans-107"/>
     <use x="659.753906" xlink:href="#DejaVuSans-101"/>
     <use x="721.277344" xlink:href="#DejaVuSans-32"/>
     <use x="753.064453" xlink:href="#DejaVuSans-99"/>
     <use x="808.044922" xlink:href="#DejaVuSans-111"/>
     <use x="869.226562" xlink:href="#DejaVuSans-117"/>
     <use x="932.605469" xlink:href="#DejaVuSans-110"/>
     <use x="995.984375" xlink:href="#DejaVuSans-116"/>
     <use x="1035.193359" xlink:href="#DejaVuSans-32"/>
    </g>
    <!--  correlation with pupil -->
    <defs>
     <path d="M 54.890625 33.015625 
L 54.890625 0 
L 45.90625 0 
L 45.90625 32.71875 
Q 45.90625 40.484375 42.875 44.328125 
Q 39.84375 48.1875 33.796875 48.1875 
Q 26.515625 48.1875 22.3125 43.546875 
Q 18.109375 38.921875 18.109375 30.90625 
L 18.109375 0 
L 9.078125 0 
L 9.078125 75.984375 
L 18.109375 75.984375 
L 18.109375 46.1875 
Q 21.34375 51.125 25.703125 53.5625 
Q 30.078125 56 35.796875 56 
Q 45.21875 56 50.046875 50.171875 
Q 54.890625 44.34375 54.890625 33.015625 
z
" id="DejaVuSans-104"/>
    </defs>
    <g transform="translate(497.986212 31.968)scale(0.12 -0.12)">
     <use xlink:href="#DejaVuSans-32"/>
     <use x="31.787109" xlink:href="#DejaVuSans-99"/>
     <use x="86.767578" xlink:href="#DejaVuSans-111"/>
     <use x="147.949219" xlink:href="#DejaVuSans-114"/>
     <use x="189.046875" xlink:href="#DejaVuSans-114"/>
     <use x="230.128906" xlink:href="#DejaVuSans-101"/>
     <use x="291.652344" xlink:href="#DejaVuSans-108"/>
     <use x="319.435547" xlink:href="#DejaVuSans-97"/>
     <use x="380.714844" xlink:href="#DejaVuSans-116"/>
     <use x="419.923828" xlink:href="#DejaVuSans-105"/>
     <use x="447.707031" xlink:href="#DejaVuSans-111"/>
     <use x="508.888672" xlink:href="#DejaVuSans-110"/>
     <use x="572.267578" xlink:href="#DejaVuSans-32"/>
     <use x="604.054688" xlink:href="#DejaVuSans-119"/>
     <use x="685.841797" xlink:href="#DejaVuSans-105"/>
     <use x="713.625" xlink:href="#DejaVuSans-116"/>
     <use x="752.833984" xlink:href="#DejaVuSans-104"/>
     <use x="816.212891" xlink:href="#DejaVuSans-32"/>
     <use x="848" xlink:href="#DejaVuSans-112"/>
     <use x="911.476562" xlink:href="#DejaVuSans-117"/>
     <use x="974.855469" xlink:href="#DejaVuSans-112"/>
     <use x="1038.332031" xlink:href="#DejaVuSans-105"/>
     <use x="1066.115234" xlink:href="#DejaVuSans-108"/>
    </g>
   </g>
   <g id="legend_1">
    <g id="patch_45">
     <path d="M 543.545681 93.610998 
L 559.545681 93.610998 
L 559.545681 88.010998 
L 543.545681 88.010998 
z
" style="fill:#1f77b4;stroke:#000000;stroke-linejoin:miter;"/>
    </g>
    <g id="text_30">
     <!-- Raw -->
     <g transform="translate(565.945681 93.610998)scale(0.08 -0.08)">
      <use xlink:href="#DejaVuSans-82"/>
      <use x="69.451172" xlink:href="#DejaVuSans-97"/>
      <use x="130.730469" xlink:href="#DejaVuSans-119"/>
     </g>
    </g>
    <g id="patch_46">
     <path d="M 543.545681 105.353498 
L 559.545681 105.353498 
L 559.545681 99.753498 
L 543.545681 99.753498 
z
" style="fill:#ff7f0e;stroke:#000000;stroke-linejoin:miter;"/>
    </g>
    <g id="text_31">
     <!-- Pupil-corrected -->
     <defs>
      <path d="M 4.890625 31.390625 
L 31.203125 31.390625 
L 31.203125 23.390625 
L 4.890625 23.390625 
z
" id="DejaVuSans-45"/>
     </defs>
     <g transform="translate(565.945681 105.353498)scale(0.08 -0.08)">
      <use xlink:href="#DejaVuSans-80"/>
      <use x="60.287109" xlink:href="#DejaVuSans-117"/>
      <use x="123.666016" xlink:href="#DejaVuSans-112"/>
      <use x="187.142578" xlink:href="#DejaVuSans-105"/>
      <use x="214.925781" xlink:href="#DejaVuSans-108"/>
      <use x="242.708984" xlink:href="#DejaVuSans-45"/>
      <use x="278.792969" xlink:href="#DejaVuSans-99"/>
      <use x="333.773438" xlink:href="#DejaVuSans-111"/>
      <use x="394.955078" xlink:href="#DejaVuSans-114"/>
      <use x="436.052734" xlink:href="#DejaVuSans-114"/>
      <use x="477.134766" xlink:href="#DejaVuSans-101"/>
      <use x="538.658203" xlink:href="#DejaVuSans-99"/>
      <use x="593.638672" xlink:href="#DejaVuSans-116"/>
      <use x="632.847656" xlink:href="#DejaVuSans-101"/>
      <use x="694.371094" xlink:href="#DejaVuSans-100"/>
     </g>
    </g>
   </g>
  </g>
 </g>
 <defs>
  <clipPath id="p6681015320">
   <rect height="118.613497" width="140.311438" x="59.402" y="37.968"/>
  </clipPath>
  <clipPath id="pd2be03706d">
   <rect height="118.613497" width="140.311438" x="276.432497" y="37.968"/>
  </clipPath>
  <clipPath id="p4cff8dd775">
   <rect height="118.613497" width="140.311438" x="493.462994" y="37.968"/>
  </clipPath>
 </defs>
</svg>
