<?xml version="1.0" encoding="utf-8" standalone="no"?>
<!DOCTYPE svg PUBLIC "-//W3C//DTD SVG 1.1//EN"
  "http://www.w3.org/Graphics/SVG/1.1/DTD/svg11.dtd">
<!-- Created with matplotlib (https://matplotlib.org/) -->
<svg height="216pt" version="1.1" viewBox="0 0 432 216" width="432pt" xmlns="http://www.w3.org/2000/svg" xmlns:xlink="http://www.w3.org/1999/xlink">
 <defs>
  <style type="text/css">
*{stroke-linecap:butt;stroke-linejoin:round;}
  </style>
 </defs>
 <g id="figure_1">
  <g id="patch_1">
   <path d="M 0 216 
L 432 216 
L 432 0 
L 0 0 
z
" style="fill:#ffffff;"/>
  </g>
  <g id="axes_1">
   <g id="patch_2">
    <path d="M 61.562 161.08 
L 208.3482 161.08 
L 208.3482 25.44 
L 61.562 25.44 
z
" style="fill:#ffffff;"/>
   </g>
   <g id="line2d_1">
    <path clip-path="url(#p945ddf7f39)" d="M 73.315174 39.951942 
L 107.386931 79.436427 
" style="fill:none;stroke:#808080;stroke-linecap:square;stroke-width:1.5;"/>
   </g>
   <g id="line2d_2">
    <path clip-path="url(#p945ddf7f39)" d="M 75.463041 85.120167 
L 167.755227 65.17764 
" style="fill:none;stroke:#808080;stroke-linecap:square;stroke-width:1.5;"/>
   </g>
   <g id="line2d_3">
    <path clip-path="url(#p945ddf7f39)" d="M 70.601508 55.402567 
L 153.277928 111.097309 
" style="fill:none;stroke:#808080;stroke-linecap:square;stroke-width:1.5;"/>
   </g>
   <g id="line2d_4">
    <path clip-path="url(#p945ddf7f39)" d="M 73.32024 51.109031 
L 139.005746 103.240275 
" style="fill:none;stroke:#808080;stroke-linecap:square;stroke-width:1.5;"/>
   </g>
   <g id="line2d_5">
    <path clip-path="url(#p945ddf7f39)" d="M 70.779589 82.737789 
L 166.669108 65.713665 
" style="fill:none;stroke:#808080;stroke-linecap:square;stroke-width:1.5;"/>
   </g>
   <g id="line2d_6">
    <path clip-path="url(#p945ddf7f39)" d="M 73.214218 53.007171 
L 199.265131 152.906155 
" style="fill:none;stroke:#808080;stroke-linecap:square;stroke-width:1.5;"/>
   </g>
   <g id="line2d_7">
    <path clip-path="url(#p945ddf7f39)" d="M 79.054291 93.388227 
L 161.87606 105.602769 
" style="fill:none;stroke:#808080;stroke-linecap:square;stroke-width:1.5;"/>
   </g>
   <g id="line2d_8">
    <path clip-path="url(#p945ddf7f39)" d="M 73.558509 88.45956 
L 171.167569 33.613845 
" style="fill:none;stroke:#808080;stroke-linecap:square;stroke-width:1.5;"/>
   </g>
   <g id="matplotlib.axis_1">
    <g id="xtick_1">
     <g id="line2d_9">
      <defs>
       <path d="M 0 0 
L 0 3.5 
" id="m3a61b1a66a" style="stroke:#000000;stroke-width:0.8;"/>
      </defs>
      <g>
       <use style="stroke:#000000;stroke-width:0.8;" x="94.527292" xlink:href="#m3a61b1a66a" y="161.08"/>
      </g>
     </g>
     <g id="text_1">
      <text style="font-family:DejaVu Sans;font-size:10px;font-style:normal;font-weight:normal;text-anchor:middle;" transform="rotate(-0, 94.527292, 175.678438)" x="94.527292" y="175.678438">0</text>
     </g>
    </g>
    <g id="xtick_2">
     <g id="line2d_10">
      <g>
       <use style="stroke:#000000;stroke-width:0.8;" x="150.750541" xlink:href="#m3a61b1a66a" y="161.08"/>
      </g>
     </g>
     <g id="text_2">
      <text style="font-family:DejaVu Sans;font-size:10px;font-style:normal;font-weight:normal;text-anchor:middle;" transform="rotate(-0, 150.750541, 175.678438)" x="150.750541" y="175.678438">1</text>
     </g>
    </g>
    <g id="xtick_3">
     <g id="line2d_11">
      <g>
       <use style="stroke:#000000;stroke-width:0.8;" x="206.973789" xlink:href="#m3a61b1a66a" y="161.08"/>
      </g>
     </g>
     <g id="text_3">
      <text style="font-family:DejaVu Sans;font-size:10px;font-style:normal;font-weight:normal;text-anchor:middle;" transform="rotate(-0, 206.973789, 175.678438)" x="206.973789" y="175.678438">2</text>
     </g>
    </g>
    <g id="text_4">
     <!-- $\beta$ for $d'^{2}$ -->
     <g transform="translate(114.6051 190.858125)">
      <text>
       <tspan style="font-family:DejaVu Sans;font-size:10px;font-style:oblique;font-weight:oblique;" x="0 26.489258" y="-0.9765625">βd</tspan>
       <tspan style="font-family:DejaVu Sans;font-size:10px;font-style:book;font-weight:book;" x="6.381836 9.560547 13.081055 19.199219 23.310547" y="-0.9765625"> for </tspan>
       <tspan style="font-family:cmsy10;font-size:7px;font-style:regular;font-weight:regular;" x="33.581029" y="-4.8046875">0</tspan>
       <tspan style="font-family:DejaVu Sans;font-size:7px;font-style:book;font-weight:book;" x="35.874486" y="-4.8046875">2</tspan>
      </text>
     </g>
    </g>
   </g>
   <g id="matplotlib.axis_2">
    <g id="ytick_1">
     <g id="line2d_12">
      <defs>
       <path d="M 0 0 
L -3.5 0 
" id="m734c4b5c66" style="stroke:#000000;stroke-width:0.8;"/>
      </defs>
      <g>
       <use style="stroke:#000000;stroke-width:0.8;" x="61.562" xlink:href="#m734c4b5c66" y="126.904274"/>
      </g>
     </g>
     <g id="text_5">
      <text style="font-family:DejaVu Sans;font-size:10px;font-style:normal;font-weight:normal;text-anchor:end;" transform="rotate(-0, 54.562, 130.703493)" x="54.562" y="130.703493">−0.2</text>
     </g>
    </g>
    <g id="ytick_2">
     <g id="line2d_13">
      <g>
       <use style="stroke:#000000;stroke-width:0.8;" x="61.562" xlink:href="#m734c4b5c66" y="91.178705"/>
      </g>
     </g>
     <g id="text_6">
      <text style="font-family:DejaVu Sans;font-size:10px;font-style:normal;font-weight:normal;text-anchor:end;" transform="rotate(-0, 54.562, 94.977924)" x="54.562" y="94.977924">0.0</text>
     </g>
    </g>
    <g id="ytick_3">
     <g id="line2d_14">
      <g>
       <use style="stroke:#000000;stroke-width:0.8;" x="61.562" xlink:href="#m734c4b5c66" y="55.453137"/>
      </g>
     </g>
     <g id="text_7">
      <text style="font-family:DejaVu Sans;font-size:10px;font-style:normal;font-weight:normal;text-anchor:end;" transform="rotate(-0, 54.562, 59.252356)" x="54.562" y="59.252356">0.2</text>
     </g>
    </g>
    <g id="text_8">
     <!-- $\beta$ for $\Delta d'^{2}$ -->
     <g transform="translate(24.179188 117.01)rotate(-90)">
      <text>
       <tspan style="font-family:DejaVu Sans;font-size:10px;font-style:oblique;font-weight:oblique;" x="0 33.330078" y="-0.9765625">βd</tspan>
       <tspan style="font-family:DejaVu Sans;font-size:10px;font-style:book;font-weight:book;" x="6.381836 9.560547 13.081055 19.199219 23.310547 26.489258" y="-0.9765625"> for Δ</tspan>
       <tspan style="font-family:cmsy10;font-size:7px;font-style:regular;font-weight:regular;" x="40.421849" y="-4.8046875">0</tspan>
       <tspan style="font-family:DejaVu Sans;font-size:7px;font-style:book;font-weight:book;" x="42.715306" y="-4.8046875">2</tspan>
      </text>
     </g>
    </g>
   </g>
   <g id="PathCollection_1">
    <defs>
     <path d="M 0 3.535534 
C 0.937635 3.535534 1.836992 3.163008 2.5 2.5 
C 3.163008 1.836992 3.535534 0.937635 3.535534 0 
C 3.535534 -0.937635 3.163008 -1.836992 2.5 -2.5 
C 1.836992 -3.163008 0.937635 -3.535534 0 -3.535534 
C -0.937635 -3.535534 -1.836992 -3.163008 -2.5 -2.5 
C -3.163008 -1.836992 -3.535534 -0.937635 -3.535534 0 
C -3.535534 0.937635 -3.163008 1.836992 -2.5 2.5 
C -1.836992 3.163008 -0.937635 3.535534 0 3.535534 
z
" id="m0e62c59bb2" style="stroke:#ffffff;"/>
    </defs>
    <g clip-path="url(#p945ddf7f39)">
     <use style="fill:#800080;stroke:#ffffff;" x="73.315174" xlink:href="#m0e62c59bb2" y="39.951942"/>
     <use style="fill:#800080;stroke:#ffffff;" x="75.463041" xlink:href="#m0e62c59bb2" y="85.120167"/>
     <use style="fill:#800080;stroke:#ffffff;" x="70.601508" xlink:href="#m0e62c59bb2" y="55.402567"/>
     <use style="fill:#800080;stroke:#ffffff;" x="73.32024" xlink:href="#m0e62c59bb2" y="51.109031"/>
     <use style="fill:#800080;stroke:#ffffff;" x="70.779589" xlink:href="#m0e62c59bb2" y="82.737789"/>
     <use style="fill:#800080;stroke:#ffffff;" x="73.214218" xlink:href="#m0e62c59bb2" y="53.007171"/>
     <use style="fill:#800080;stroke:#ffffff;" x="79.054291" xlink:href="#m0e62c59bb2" y="93.388227"/>
     <use style="fill:#800080;stroke:#ffffff;" x="73.558509" xlink:href="#m0e62c59bb2" y="88.45956"/>
    </g>
   </g>
   <g id="PathCollection_2">
    <defs>
     <path d="M 0 3.535534 
C 0.937635 3.535534 1.836992 3.163008 2.5 2.5 
C 3.163008 1.836992 3.535534 0.937635 3.535534 0 
C 3.535534 -0.937635 3.163008 -1.836992 2.5 -2.5 
C 1.836992 -3.163008 0.937635 -3.535534 0 -3.535534 
C -0.937635 -3.535534 -1.836992 -3.163008 -2.5 -2.5 
C -3.163008 -1.836992 -3.535534 -0.937635 -3.535534 0 
C -3.535534 0.937635 -3.163008 1.836992 -2.5 2.5 
C -1.836992 3.163008 -0.937635 3.535534 0 3.535534 
z
" id="m0166af497b" style="stroke:#ffffff;"/>
    </defs>
    <g clip-path="url(#p945ddf7f39)">
     <use style="fill:#ffa500;stroke:#ffffff;" x="107.386931" xlink:href="#m0166af497b" y="79.436427"/>
     <use style="fill:#ffa500;stroke:#ffffff;" x="167.755227" xlink:href="#m0166af497b" y="65.17764"/>
     <use style="fill:#ffa500;stroke:#ffffff;" x="153.277928" xlink:href="#m0166af497b" y="111.097309"/>
     <use style="fill:#ffa500;stroke:#ffffff;" x="139.005746" xlink:href="#m0166af497b" y="103.240275"/>
     <use style="fill:#ffa500;stroke:#ffffff;" x="166.669108" xlink:href="#m0166af497b" y="65.713665"/>
     <use style="fill:#ffa500;stroke:#ffffff;" x="199.265131" xlink:href="#m0166af497b" y="152.906155"/>
     <use style="fill:#ffa500;stroke:#ffffff;" x="161.87606" xlink:href="#m0166af497b" y="105.602769"/>
     <use style="fill:#ffa500;stroke:#ffffff;" x="171.167569" xlink:href="#m0166af497b" y="33.613845"/>
    </g>
   </g>
   <g id="line2d_15">
    <path clip-path="url(#p945ddf7f39)" d="M 61.562 91.178705 
L 208.3482 91.178705 
" style="fill:none;stroke:#000000;stroke-dasharray:5.55,2.4;stroke-dashoffset:0;stroke-width:1.5;"/>
   </g>
   <g id="line2d_16">
    <path clip-path="url(#p945ddf7f39)" d="M 94.527292 161.08 
L 94.527292 25.44 
" style="fill:none;stroke:#000000;stroke-dasharray:5.55,2.4;stroke-dashoffset:0;stroke-width:1.5;"/>
   </g>
   <g id="patch_3">
    <path d="M 61.562 161.08 
L 61.562 25.44 
" style="fill:none;stroke:#000000;stroke-linecap:square;stroke-linejoin:miter;stroke-width:0.8;"/>
   </g>
   <g id="patch_4">
    <path d="M 61.562 161.08 
L 208.3482 161.08 
" style="fill:none;stroke:#000000;stroke-linecap:square;stroke-linejoin:miter;stroke-width:0.8;"/>
   </g>
   <g id="text_9">
    <text style="font-family:DejaVu Sans;font-size:12px;font-style:normal;font-weight:normal;text-anchor:middle;" transform="rotate(-0, 134.9551, 19.44)" x="134.9551" y="19.44">Regression coefficients</text>
   </g>
   <g id="legend_1">
    <g id="PathCollection_3">
     <g>
      <use style="fill:#800080;stroke:#ffffff;" x="80.562" xlink:href="#m0e62c59bb2" y="131.155"/>
     </g>
    </g>
    <g id="text_10">
     <!-- $|cos(\theta_{\Delta \mathbf{\mu}, \mathbf{e}_{1}})|$ -->
     <g transform="translate(98.562 133.78)">
      <text>
       <tspan style="font-family:DejaVu Sans;font-size:10px;font-style:book;font-weight:book;" x="0 20.195312 52.140088 56.041455" y="-0.328125">|()|</tspan>
       <tspan style="font-family:DejaVu Sans;font-size:10px;font-style:oblique;font-weight:oblique;" x="3.369141 8.867188 14.985352 24.09668" y="-0.328125">cosθ</tspan>
       <tspan style="font-family:DejaVu Sans;font-size:7px;font-style:book;font-weight:book;" x="30.214844 40.154297" y="1.3125">Δ,</tspan>
       <tspan style="font-family:DejaVu Sans;font-size:7px;font-style:bold;font-weight:bold;" x="35.003418 43.743164" y="1.3125">μe</tspan>
       <tspan style="font-family:DejaVu Sans;font-size:4.9px;font-style:book;font-weight:book;" x="48.557715" y="2.4609375">1</tspan>
      </text>
     </g>
    </g>
    <g id="PathCollection_4">
     <g>
      <use style="fill:#ffa500;stroke:#ffffff;" x="80.562" xlink:href="#m0166af497b" y="147.055"/>
     </g>
    </g>
    <g id="text_11">
     <!-- $|\Delta \mathbf{\mu}|$ -->
     <g transform="translate(98.562 149.68)">
      <text>
       <tspan style="font-family:DejaVu Sans;font-size:10px;font-style:book;font-weight:book;" x="0 3.369141 17.568359" y="-0.359375">|Δ|</tspan>
       <tspan style="font-family:DejaVu Sans;font-size:10px;font-style:bold;font-weight:bold;" x="10.209961" y="-0.359375">μ</tspan>
      </text>
     </g>
    </g>
   </g>
  </g>
  <g id="axes_2">
   <g id="patch_5">
    <path d="M 271.8938 161.08 
L 418.68 161.08 
L 418.68 25.44 
L 271.8938 25.44 
z
" style="fill:#ffffff;"/>
   </g>
   <g id="matplotlib.axis_3">
    <g id="xtick_4">
     <g id="line2d_17">
      <defs>
       <path d="M 0 0 
L 0 3.5 
" id="m5d1b064721" style="stroke:#ffa500;stroke-width:0.8;"/>
      </defs>
      <g>
       <use style="fill:#ffa500;stroke:#ffa500;stroke-width:0.8;" x="289.781566" xlink:href="#m5d1b064721" y="161.08"/>
      </g>
     </g>
     <g id="text_12">
      <text style="fill:#ffa500;font-family:DejaVu Sans;font-size:10px;font-style:normal;font-weight:normal;text-anchor:middle;" transform="rotate(-0, 289.781566, 175.678438)" x="289.781566" y="175.678438">2</text>
     </g>
    </g>
    <g id="xtick_5">
     <g id="line2d_18">
      <g>
       <use style="fill:#ffa500;stroke:#ffa500;stroke-width:0.8;" x="328.897786" xlink:href="#m5d1b064721" y="161.08"/>
      </g>
     </g>
     <g id="text_13">
      <text style="fill:#ffa500;font-family:DejaVu Sans;font-size:10px;font-style:normal;font-weight:normal;text-anchor:middle;" transform="rotate(-0, 328.897786, 175.678438)" x="328.897786" y="175.678438">4</text>
     </g>
    </g>
    <g id="xtick_6">
     <g id="line2d_19">
      <g>
       <use style="fill:#ffa500;stroke:#ffa500;stroke-width:0.8;" x="368.014007" xlink:href="#m5d1b064721" y="161.08"/>
      </g>
     </g>
     <g id="text_14">
      <text style="fill:#ffa500;font-family:DejaVu Sans;font-size:10px;font-style:normal;font-weight:normal;text-anchor:middle;" transform="rotate(-0, 368.014007, 175.678438)" x="368.014007" y="175.678438">6</text>
     </g>
    </g>
    <g id="xtick_7">
     <g id="line2d_20">
      <g>
       <use style="fill:#ffa500;stroke:#ffa500;stroke-width:0.8;" x="407.130227" xlink:href="#m5d1b064721" y="161.08"/>
      </g>
     </g>
     <g id="text_15">
      <text style="fill:#ffa500;font-family:DejaVu Sans;font-size:10px;font-style:normal;font-weight:normal;text-anchor:middle;" transform="rotate(-0, 407.130227, 175.678438)" x="407.130227" y="175.678438">8</text>
     </g>
    </g>
    <g id="text_16">
     <text style="fill:#ffa500;font-family:DejaVu Sans;font-size:10px;font-style:normal;font-weight:normal;" transform="translate(328.338462 189.03625)">Signal </text>
     <!-- $|\Delta \mathbf{\mu}|$ -->
     <g style="fill:#ffa500;" transform="translate(334.7869 200.355937)">
      <text>
       <tspan style="font-family:DejaVu Sans;font-size:10px;font-style:book;font-weight:book;" x="0 3.369141 17.568359" y="-0.359375">|Δ|</tspan>
       <tspan style="font-family:DejaVu Sans;font-size:10px;font-style:bold;font-weight:bold;" x="10.209961" y="-0.359375">μ</tspan>
      </text>
     </g>
    </g>
   </g>
   <g id="matplotlib.axis_4">
    <g id="ytick_4">
     <g id="line2d_21">
      <defs>
       <path d="M 0 0 
L -3.5 0 
" id="ma096870fd5" style="stroke:#800080;stroke-width:0.8;"/>
      </defs>
      <g>
       <use style="fill:#800080;stroke:#800080;stroke-width:0.8;" x="271.8938" xlink:href="#ma096870fd5" y="132.230708"/>
      </g>
     </g>
     <g id="text_17">
      <text style="fill:#800080;font-family:DejaVu Sans;font-size:10px;font-style:normal;font-weight:normal;text-anchor:end;" transform="rotate(-0, 264.8938, 136.029927)" x="264.8938" y="136.029927">0.4</text>
     </g>
    </g>
    <g id="ytick_5">
     <g id="line2d_22">
      <g>
       <use style="fill:#800080;stroke:#800080;stroke-width:0.8;" x="271.8938" xlink:href="#ma096870fd5" y="98.688957"/>
      </g>
     </g>
     <g id="text_18">
      <text style="fill:#800080;font-family:DejaVu Sans;font-size:10px;font-style:normal;font-weight:normal;text-anchor:end;" transform="rotate(-0, 264.8938, 102.488176)" x="264.8938" y="102.488176">0.6</text>
     </g>
    </g>
    <g id="ytick_6">
     <g id="line2d_23">
      <g>
       <use style="fill:#800080;stroke:#800080;stroke-width:0.8;" x="271.8938" xlink:href="#ma096870fd5" y="65.147206"/>
      </g>
     </g>
     <g id="text_19">
      <text style="fill:#800080;font-family:DejaVu Sans;font-size:10px;font-style:normal;font-weight:normal;text-anchor:end;" transform="rotate(-0, 264.8938, 68.946424)" x="264.8938" y="68.946424">0.8</text>
     </g>
    </g>
    <g id="ytick_7">
     <g id="line2d_24">
      <g>
       <use style="fill:#800080;stroke:#800080;stroke-width:0.8;" x="271.8938" xlink:href="#ma096870fd5" y="31.605455"/>
      </g>
     </g>
     <g id="text_20">
      <text style="fill:#800080;font-family:DejaVu Sans;font-size:10px;font-style:normal;font-weight:normal;text-anchor:end;" transform="rotate(-0, 264.8938, 35.404673)" x="264.8938" y="35.404673">1.0</text>
     </g>
    </g>
    <g id="text_21">
     <text style="fill:#800080;font-family:DejaVu Sans;font-size:10px;font-style:normal;font-weight:normal;" transform="translate(230.470988 155.65375)rotate(-90)">Signal vs. Noise Overlap </text>
     <!-- $|cos(\theta_{\Delta \mathbf{\mu}, \mathbf{e}_{1}})|$ -->
     <g style="fill:#800080;" transform="translate(241.790675 123.01)rotate(-90)">
      <text>
       <tspan style="font-family:DejaVu Sans;font-size:10px;font-style:book;font-weight:book;" x="0 20.195312 52.140088 56.041455" y="-0.328125">|()|</tspan>
       <tspan style="font-family:DejaVu Sans;font-size:10px;font-style:oblique;font-weight:oblique;" x="3.369141 8.867188 14.985352 24.09668" y="-0.328125">cosθ</tspan>
       <tspan style="font-family:DejaVu Sans;font-size:7px;font-style:book;font-weight:book;" x="30.214844 40.154297" y="1.3125">Δ,</tspan>
       <tspan style="font-family:DejaVu Sans;font-size:7px;font-style:bold;font-weight:bold;" x="35.003418 43.743164" y="1.3125">μe</tspan>
       <tspan style="font-family:DejaVu Sans;font-size:4.9px;font-style:book;font-weight:book;" x="48.557715" y="2.4609375">1</tspan>
      </text>
     </g>
    </g>
   </g>
   <g id="line2d_25">
    <path clip-path="url(#pca2456307b)" d="M 348.031758 94.284484 
L 347.688362 92.590457 
L 347.488867 90.896429 
L 347.425146 89.202401 
L 347.494908 87.508373 
L 347.702114 85.814345 
L 348.057727 84.120317 
L 348.569974 82.42629 
L 349.221925 80.732262 
L 350.080772 79.038234 
L 351.419246 77.065318 
L 352.535445 75.650178 
L 354.382596 73.812791 
L 356.195575 72.262123 
L 358.547631 70.568095 
L 364.066014 67.180039 
L 369.199347 64.138663 
L 375.126047 60.154445 
L 386.979447 51.381507 
L 389.942797 49.684395 
L 392.906147 48.480046 
L 395.869497 47.873816 
L 398.832847 47.980402 
L 401.796197 48.917105 
L 404.759547 50.885025 
L 405.767012 51.933789 
L 407.722897 54.345921 
L 408.300619 55.321844 
L 409.17189 57.015872 
L 409.901671 58.7099 
L 410.686247 61.024178 
L 411.341086 63.791983 
L 411.821318 67.180039 
L 412.0079 70.568095 
L 411.943179 73.95615 
L 411.661355 77.344206 
L 411.192199 80.732262 
L 410.210203 85.814345 
L 408.598308 92.590457 
L 406.572078 101.060596 
L 405.23709 107.836707 
L 404.225934 112.918791 
L 403.368189 116.306846 
L 402.239158 119.694902 
L 401.516438 121.38893 
L 400.642205 123.082958 
L 398.832847 125.968884 
L 398.45279 126.471013 
L 395.869497 129.387647 
L 395.359988 129.859069 
L 392.906147 131.912617 
L 389.942797 133.875345 
L 386.979447 135.442833 
L 384.016097 136.690534 
L 381.052747 137.638754 
L 377.709419 138.329208 
L 375.126047 138.600804 
L 372.162697 138.506523 
L 369.199347 137.889987 
L 366.235996 136.554435 
L 364.224747 134.941153 
L 362.776972 133.247125 
L 361.797024 131.553097 
L 361.094378 129.859069 
L 360.309296 126.846001 
L 359.948534 124.776986 
L 358.817226 116.306846 
L 357.969282 112.918791 
L 357.345946 111.183577 
L 356.523455 109.530735 
L 354.382596 106.00836 
L 351.419246 101.77189 
L 350.946743 101.060596 
L 349.961566 99.366568 
L 349.158338 97.67254 
L 348.455896 95.729067 
L 348.031758 94.284484 
L 348.031758 94.284484 
" style="fill:none;stroke:#f7fbff;stroke-linecap:square;stroke-width:2;"/>
   </g>
   <g id="line2d_26">
    <path clip-path="url(#pca2456307b)" d="M 280.234605 136.63518 
L 279.864057 134.941153 
L 279.547053 133.247125 
L 279.276057 131.553097 
L 279.047251 129.859069 
L 278.859841 128.165041 
L 278.715248 126.471013 
L 278.616216 124.776986 
L 278.5659 123.082958 
L 278.566993 121.38893 
L 278.620968 119.694902 
L 278.727496 118.000874 
L 278.884104 116.306846 
L 279.08614 114.612819 
L 279.327087 112.918791 
L 279.599245 111.224763 
L 279.894703 109.530735 
L 280.206451 107.836707 
L 280.298846 107.346035 
L 280.549767 106.142679 
L 280.911652 104.448652 
L 281.284478 102.754624 
L 281.672275 101.060596 
L 282.082299 99.366568 
L 282.524106 97.67254 
L 283.00836 95.978512 
L 283.262196 95.167188 
L 283.585041 94.284484 
L 284.2679 92.590457 
L 285.028114 90.896429 
L 285.867208 89.202401 
L 286.225546 88.525793 
L 286.893583 87.508373 
L 288.065489 85.814345 
L 289.188896 84.255881 
L 289.321893 84.120317 
L 290.965123 82.42629 
L 292.152246 81.176256 
L 292.853263 80.732262 
L 295.115596 79.181638 
L 295.858852 79.038234 
L 298.078946 78.551757 
L 299.664035 79.038234 
L 301.042296 79.451038 
L 303.223388 80.732262 
L 304.005646 81.192222 
L 306.135705 82.42629 
L 306.968996 82.971897 
L 308.97612 84.120317 
L 309.932346 84.934283 
L 310.74303 85.814345 
L 311.623446 87.508373 
L 312.109492 89.202401 
L 312.447877 90.896429 
L 312.752455 92.590457 
L 312.895696 93.284281 
L 313.070223 94.284484 
L 313.438894 95.978512 
L 313.877445 97.67254 
L 314.384507 99.366568 
L 314.951575 101.060596 
L 315.565252 102.754624 
L 315.859046 103.517445 
L 316.245722 104.448652 
L 316.968962 106.142679 
L 317.676379 107.836707 
L 318.342248 109.530735 
L 318.822396 110.874471 
L 318.951648 111.224763 
L 319.489756 112.918791 
L 319.917374 114.612819 
L 320.235154 116.306846 
L 320.446943 118.000874 
L 320.557383 119.694902 
L 320.570177 121.38893 
L 320.487064 123.082958 
L 320.30741 124.776986 
L 320.028244 126.471013 
L 319.644509 128.165041 
L 319.149326 129.859069 
L 318.822396 130.755365 
L 318.536914 131.553097 
L 317.817519 133.247125 
L 316.992014 134.941153 
L 316.056782 136.63518 
L 315.859046 136.955085 
L 315.032818 138.329208 
L 313.931826 140.023236 
L 312.895696 141.502362 
L 312.744171 141.717264 
L 311.479455 143.411292 
L 310.139994 145.10532 
L 309.932346 145.355558 
L 308.643157 146.799347 
L 307.032758 148.493375 
L 306.968996 148.557556 
L 305.011116 150.187403 
L 304.005646 150.970773 
L 302.319095 151.881431 
L 301.042296 152.533146 
L 298.078946 153.272109 
L 295.115596 153.257139 
L 292.152246 152.528891 
L 290.802727 151.881431 
L 289.188896 151.054984 
L 288.020935 150.187403 
L 286.225546 148.674858 
L 286.052961 148.493375 
L 284.624914 146.799347 
L 283.450002 145.10532 
L 283.262196 144.790296 
L 282.531311 143.411292 
L 281.787546 141.717264 
L 281.174499 140.023236 
L 280.664594 138.329208 
L 280.298846 136.889742 
L 280.234605 136.63518 
" style="fill:none;stroke:#dbe9f6;stroke-linecap:square;stroke-width:2;"/>
   </g>
   <g id="line2d_27">
    <path clip-path="url(#pca2456307b)" d="M 327.494258 141.717264 
L 327.070684 140.023236 
L 326.873794 138.329208 
L 326.85439 136.63518 
L 326.976555 134.941153 
L 327.538131 131.553097 
L 327.973803 129.859069 
L 331.075298 119.694902 
L 331.755887 116.306846 
L 331.999704 112.918791 
L 331.871276 107.836707 
L 331.84498 104.448652 
L 332.128913 101.060596 
L 332.759202 97.67254 
L 335.547577 85.814345 
L 337.619276 73.95615 
L 338.817988 68.874067 
L 340.249469 63.791983 
L 341.355883 60.403928 
L 342.708786 57.015872 
L 343.574105 55.321844 
L 345.492546 52.254095 
L 345.771164 51.933789 
L 348.455896 49.33337 
L 351.419246 47.611654 
L 357.560699 45.157677 
L 361.020758 43.463649 
L 364.245963 41.769622 
L 366.235996 40.795604 
L 369.199347 39.804423 
L 372.162697 39.426405 
L 375.126047 39.538249 
L 378.089397 39.837516 
L 381.052747 39.988972 
L 386.979447 39.826067 
L 389.942797 40.183455 
L 392.97202 41.769622 
L 394.266413 43.463649 
L 395.151058 45.157677 
L 395.711089 46.851705 
L 395.98744 48.545733 
L 396.079887 50.239761 
L 395.926632 53.627816 
L 395.43324 57.015872 
L 394.011407 65.486011 
L 393.686596 68.874067 
L 393.557124 72.262123 
L 393.436956 80.732262 
L 393.127539 84.120317 
L 392.591776 87.508373 
L 391.862529 90.896429 
L 390.959501 94.284484 
L 389.344559 99.366568 
L 388.135871 102.754624 
L 384.909076 111.224763 
L 383.898831 114.612819 
L 383.322221 118.000874 
L 383.102307 121.38893 
L 382.980584 128.165041 
L 382.774451 129.859069 
L 382.410048 131.553097 
L 381.856426 133.247125 
L 380.244714 136.63518 
L 374.470331 146.799347 
L 373.405608 148.493375 
L 372.154013 150.187403 
L 370.451442 151.881431 
L 369.199347 152.891551 
L 367.914436 153.575459 
L 366.235996 154.336213 
L 363.272646 154.914545 
L 360.309296 154.82913 
L 357.345946 154.216268 
L 354.382596 153.142593 
L 351.419246 151.615707 
L 348.455896 149.929699 
L 345.492546 148.878857 
L 342.529196 148.579118 
L 339.565846 148.451198 
L 336.602496 148.096992 
L 333.639146 147.32123 
L 332.428222 146.799347 
L 330.675796 145.834024 
L 329.786484 145.10532 
L 328.343601 143.411292 
L 327.494258 141.717264 
L 327.494258 141.717264 
" style="fill:none;stroke:#bbd6eb;stroke-linecap:square;stroke-width:2;"/>
   </g>
   <g id="line2d_28">
    <path clip-path="url(#pca2456307b)" d="M 309.758146 118.000874 
L 309.508145 116.306846 
L 309.432198 114.612819 
L 309.507427 112.918791 
L 309.996006 109.530735 
L 311.353278 102.754624 
L 311.743675 99.366568 
L 312.358178 90.896429 
L 312.895696 87.467055 
L 313.674997 84.120317 
L 314.713597 80.732262 
L 315.970408 77.344206 
L 318.192134 72.262123 
L 320.645747 67.180039 
L 323.336521 62.097956 
L 325.453447 58.7099 
L 327.984894 55.321844 
L 330.968981 51.933789 
L 333.639146 49.29174 
L 334.452843 48.545733 
L 336.602496 46.77444 
L 339.565846 44.828671 
L 342.626556 43.463649 
L 345.492546 42.75598 
L 348.455896 42.543782 
L 351.419246 42.773402 
L 354.957884 43.463649 
L 357.345946 44.166761 
L 360.309296 45.338406 
L 363.272646 47.183223 
L 364.984952 48.545733 
L 366.235996 49.868414 
L 366.744699 50.239761 
L 369.199347 52.319751 
L 372.162697 53.110649 
L 378.089397 52.304453 
L 381.052747 52.648981 
L 384.016097 54.008886 
L 388.122832 57.015872 
L 389.959688 58.7099 
L 391.03535 60.403928 
L 391.711226 62.097956 
L 392.003009 63.791983 
L 391.96533 65.486011 
L 391.66302 67.180039 
L 391.154085 68.874067 
L 389.942797 71.695694 
L 388.550994 73.95615 
L 386.979447 76.305779 
L 379.431409 85.814345 
L 376.084337 90.896429 
L 375.126047 92.648745 
L 372.989374 95.978512 
L 371.932724 97.67254 
L 365.464291 106.142679 
L 364.534312 107.836707 
L 363.272646 110.98254 
L 362.391462 114.612819 
L 360.805331 121.38893 
L 357.60511 133.247125 
L 356.487998 136.63518 
L 355.119 140.023236 
L 354.284023 141.717264 
L 353.301963 143.411292 
L 351.419246 146.01644 
L 350.723585 146.799347 
L 348.455896 148.954954 
L 345.492546 150.908625 
L 342.529196 152.097855 
L 339.565846 152.719527 
L 336.602496 152.999418 
L 333.639146 152.986776 
L 330.675796 152.496454 
L 329.303544 151.881431 
L 327.712446 151.029612 
L 326.84351 150.187403 
L 324.749096 147.595493 
L 323.506673 145.10532 
L 321.409448 140.023236 
L 319.994365 136.63518 
L 318.276697 133.247125 
L 315.859046 129.344762 
L 312.770922 124.776986 
L 311.752976 123.082958 
L 310.892986 121.38893 
L 309.932346 118.678288 
L 309.758146 118.000874 
L 309.758146 118.000874 
" style="fill:none;stroke:#88bedc;stroke-linecap:square;stroke-width:2;"/>
   </g>
   <g id="line2d_29">
    <path clip-path="url(#pca2456307b)" d="M 320.992199 31.605455 
L 321.785746 31.820329 
L 324.749096 32.656978 
L 327.428463 33.299482 
L 327.712446 33.383592 
L 330.675796 34.112874 
L 333.523686 34.99351 
L 333.639146 35.045828 
L 335.837686 36.687538 
L 336.602496 37.836472 
L 336.838711 38.381566 
L 336.964 40.075594 
L 336.602496 41.426106 
L 336.474685 41.769622 
L 335.083079 43.463649 
L 333.639146 44.603345 
L 332.738022 45.157677 
L 330.675796 46.144194 
L 329.221462 46.851705 
L 327.712446 47.489977 
L 325.747266 48.545733 
L 324.749096 49.049525 
L 322.994864 50.239761 
L 321.785746 51.054564 
L 320.78323 51.933789 
L 318.905761 53.627816 
L 318.822396 53.706107 
L 317.40168 55.321844 
L 315.991082 57.015872 
L 315.859046 57.183064 
L 314.775059 58.7099 
L 313.615547 60.403928 
L 312.895696 61.485647 
L 312.49406 62.097956 
L 311.406703 63.791983 
L 310.305935 65.486011 
L 309.932346 66.066738 
L 309.141836 67.180039 
L 307.922853 68.874067 
L 306.968996 70.168584 
L 306.590959 70.568095 
L 304.996586 72.262123 
L 304.005646 73.28848 
L 302.920294 73.95615 
L 301.042296 75.09847 
L 298.078946 75.614851 
L 295.115596 75.132886 
L 292.646103 73.95615 
L 292.152246 73.701614 
L 290.470105 72.262123 
L 289.188896 70.913531 
L 288.944217 70.568095 
L 287.893386 68.874067 
L 287.032544 67.180039 
L 286.322801 65.486011 
L 286.225546 65.216299 
L 285.760837 63.791983 
L 285.300323 62.097956 
L 284.939901 60.403928 
L 284.689355 58.7099 
L 284.561794 57.015872 
L 284.571749 55.321844 
L 284.733817 53.627816 
L 285.062197 51.933789 
L 285.571251 50.239761 
L 286.225546 48.668039 
L 286.277536 48.545733 
L 287.20391 46.851705 
L 288.361775 45.157677 
L 289.188896 44.153684 
L 289.758279 43.463649 
L 291.395428 41.769622 
L 292.152246 41.088468 
L 293.269954 40.075594 
L 295.115596 38.602522 
L 295.3967 38.381566 
L 297.763153 36.687538 
L 298.078946 36.479478 
L 300.472479 34.99351 
L 301.042296 34.662468 
L 303.700843 33.299482 
L 304.005646 33.14972 
L 306.968996 31.964492 
L 308.248538 31.605455 
" style="fill:none;stroke:#549ecd;stroke-linecap:square;stroke-width:2;"/>
   </g>
   <g id="line2d_30">
    <path clip-path="url(#pca2456307b)" d="M 400.613229 31.605455 
L 401.796197 32.035029 
L 403.838164 33.299482 
L 404.759547 34.024027 
L 405.64689 34.99351 
L 406.800824 36.687538 
L 407.722897 38.842225 
L 408.041589 40.075594 
L 408.2626 41.769622 
L 408.290693 43.463649 
L 408.146436 45.157677 
L 407.722897 47.306238 
L 407.372855 48.545733 
L 406.749492 50.239761 
L 405.983964 51.933789 
L 404.759547 54.15301 
L 402.635983 57.015872 
L 401.073074 58.7099 
L 398.832847 60.750003 
L 395.869497 62.769296 
L 392.906147 64.273028 
L 389.664055 65.486011 
L 384.016097 67.247307 
L 381.052747 68.505256 
L 380.47431 68.874067 
L 378.089397 70.709388 
L 376.813356 72.262123 
L 375.126047 74.649413 
L 371.98388 80.732262 
L 369.460861 85.814345 
L 365.622856 92.590457 
L 362.362052 97.67254 
L 356.847795 106.142679 
L 354.864904 109.530735 
L 353.939149 111.224763 
L 352.207694 114.612819 
L 351.419246 116.42337 
L 348.455896 121.892974 
L 345.827261 124.776986 
L 345.492546 125.09065 
L 342.529196 126.543653 
L 339.565846 126.764607 
L 338.625949 126.471013 
L 336.602496 125.53853 
L 335.973471 124.776986 
L 335.172455 123.082958 
L 334.829905 121.38893 
L 334.764138 119.694902 
L 335.01604 116.306846 
L 335.342322 112.918791 
L 335.435019 109.530735 
L 335.329949 107.836707 
L 335.097105 106.142679 
L 334.719514 104.448652 
L 334.182747 102.754624 
L 333.462493 101.060596 
L 332.474389 99.366568 
L 330.675796 97.047989 
L 329.424207 95.978512 
L 327.712446 94.729018 
L 324.749096 93.211834 
L 321.785746 91.839826 
L 318.822396 90.099202 
L 317.718571 89.202401 
L 315.848754 87.508373 
L 312.895696 83.861989 
L 310.899399 80.732262 
L 309.929982 79.038234 
L 309.147928 77.344206 
L 308.494542 75.650178 
L 307.982603 73.95615 
L 307.616658 72.262123 
L 307.393368 70.568095 
L 307.303497 68.874067 
L 307.472816 65.486011 
L 308.02347 62.097956 
L 308.885903 58.7099 
L 310.039371 55.321844 
L 311.432949 51.933789 
L 313.222441 48.545733 
L 314.306157 46.851705 
L 315.859046 44.816039 
L 317.114992 43.463649 
L 318.979725 41.769622 
L 321.785746 39.868434 
L 325.140172 38.381566 
L 327.712446 37.641498 
L 330.675796 37.221127 
L 333.639146 37.182647 
L 336.602496 37.477416 
L 340.933849 38.381566 
L 347.117868 40.075594 
L 351.419246 41.213411 
L 354.382596 41.865536 
L 357.345946 42.391369 
L 360.309296 42.737891 
L 363.272646 42.818834 
L 366.235996 42.49434 
L 369.199347 41.586661 
L 372.162697 40.06369 
L 380.095676 34.99351 
L 383.421346 33.299482 
L 384.016097 33.034329 
L 386.979447 31.928698 
L 388.164924 31.605455 
L 388.164924 31.605455 
" style="fill:none;stroke:#2a7aba;stroke-linecap:square;stroke-width:2;"/>
   </g>
   <g id="line2d_31">
    <path clip-path="url(#pca2456307b)" d="M 395.834889 31.605455 
L 395.869497 31.626139 
L 397.97134 33.299482 
L 398.82132 34.99351 
L 398.75369 36.687538 
L 398.010122 38.381566 
L 396.751562 40.075594 
L 395.869497 40.970936 
L 394.987778 41.769622 
L 392.906147 43.3737 
L 392.780844 43.463649 
L 390.214161 45.157677 
L 389.942797 45.333851 
L 387.492939 46.851705 
L 386.979447 47.177521 
L 384.751191 48.545733 
L 384.016097 49.018034 
L 382.061733 50.239761 
L 381.052747 50.901938 
L 379.438703 51.933789 
L 378.089397 52.832218 
L 376.842128 53.627816 
L 375.126047 54.760761 
L 374.191425 55.321844 
L 372.162697 56.591816 
L 371.346751 57.015872 
L 369.199347 58.208955 
L 367.98054 58.7099 
L 366.235996 59.504675 
L 363.286148 60.403928 
L 363.272646 60.408654 
L 360.309296 61.139633 
L 357.345946 61.776911 
L 356.063995 62.097956 
L 354.382596 62.578467 
L 351.419246 63.612898 
L 350.996508 63.791983 
L 348.455896 65.02853 
L 347.658363 65.486011 
L 345.492546 66.948365 
L 345.19684 67.180039 
L 343.399175 68.874067 
L 342.529196 69.830102 
L 341.923864 70.568095 
L 340.686678 72.262123 
L 339.565846 73.844208 
L 339.485771 73.95615 
L 338.236758 75.650178 
L 336.836613 77.344206 
L 336.602496 77.59545 
L 334.944525 79.038234 
L 333.639146 80.01819 
L 331.970631 80.732262 
L 330.675796 81.219466 
L 327.712446 81.320055 
L 325.76679 80.732262 
L 324.749096 80.406818 
L 322.788778 79.038234 
L 321.785746 78.228143 
L 321.071258 77.344206 
L 319.890466 75.650178 
L 318.834576 73.95615 
L 318.822396 73.935424 
L 317.972465 72.262123 
L 317.054728 70.568095 
L 316.0128 68.874067 
L 315.859046 68.649114 
L 314.968854 67.180039 
L 313.891497 65.486011 
L 312.895696 63.925536 
L 312.826818 63.791983 
L 312.003916 62.097956 
L 311.286752 60.403928 
L 310.690308 58.7099 
L 310.22818 57.015872 
L 309.932346 55.426165 
L 309.915203 55.321844 
L 309.770123 53.627816 
L 309.787725 51.933789 
L 309.932346 50.716635 
L 309.989013 50.239761 
L 310.391482 48.545733 
L 311.001451 46.851705 
L 311.836037 45.157677 
L 312.895696 43.506465 
L 312.924613 43.463649 
L 314.340604 41.769622 
L 315.859046 40.291621 
L 316.111604 40.075594 
L 318.461153 38.381566 
L 318.822396 38.156635 
L 321.7368 36.687538 
L 321.785746 36.665556 
L 324.749096 35.609158 
L 326.978149 34.99351 
L 327.712446 34.804609 
L 330.675796 34.179951 
L 333.639146 33.675642 
L 336.525409 33.299482 
L 336.602496 33.289632 
L 339.565846 33.039237 
L 342.529196 32.91422 
L 345.492546 32.860949 
L 348.455896 32.782817 
L 351.419246 32.58346 
L 354.382596 32.221348 
L 357.345946 31.725044 
L 357.972267 31.605455 
" style="fill:none;stroke:#0c56a0;stroke-linecap:square;stroke-width:2;"/>
   </g>
   <g id="line2d_32">
    <path clip-path="url(#pca2456307b)" d="M 306.737183 118.000874 
L 306.371938 116.306846 
L 306.281633 114.612819 
L 306.427661 112.918791 
L 306.968996 110.564534 
L 307.32811 109.530735 
L 308.881077 106.142679 
L 309.932346 104.167172 
L 316.112859 94.284484 
L 316.967858 92.590457 
L 317.664577 90.896429 
L 318.21158 89.202401 
L 318.950463 85.814345 
L 320.063662 79.038234 
L 320.923407 75.650178 
L 322.148585 72.262123 
L 323.730488 68.874067 
L 325.660462 65.486011 
L 327.870138 62.097956 
L 331.634191 57.015872 
L 334.372645 53.627816 
L 337.466232 50.239761 
L 339.565846 48.268232 
L 342.529196 46.025086 
L 345.492546 44.298332 
L 348.455896 42.989957 
L 352.438332 41.769622 
L 354.382596 41.318092 
L 357.345946 40.848432 
L 360.309296 40.571729 
L 363.272646 40.47078 
L 369.199347 40.64789 
L 375.126047 41.049097 
L 382.348065 41.769622 
L 386.979447 42.270583 
L 395.869497 42.968787 
L 398.832847 43.937166 
L 400.453189 45.157677 
L 401.796197 46.440037 
L 402.060572 46.851705 
L 402.970074 48.545733 
L 403.662311 50.239761 
L 404.17447 51.933789 
L 404.759547 55.147958 
L 404.918109 57.015872 
L 405.004118 60.403928 
L 404.895861 63.791983 
L 404.613416 67.180039 
L 404.138257 70.568095 
L 403.445819 73.95615 
L 402.511362 77.344206 
L 401.27275 80.732262 
L 399.70005 84.120317 
L 398.821237 85.814345 
L 395.869497 90.068438 
L 392.906147 92.891891 
L 389.942797 94.541459 
L 386.979447 95.150121 
L 384.016097 94.749669 
L 381.052747 93.319997 
L 380.129685 92.590457 
L 378.089397 90.733592 
L 375.390027 87.508373 
L 375.126047 87.166692 
L 372.162697 83.799017 
L 369.199347 81.61369 
L 366.235996 80.926451 
L 363.272646 81.879352 
L 360.309296 84.359227 
L 356.366829 89.202401 
L 354.008035 92.590457 
L 353.010181 94.284484 
L 352.184925 95.978512 
L 351.419246 98.441355 
L 351.20763 99.366568 
L 351.051378 101.060596 
L 351.105632 107.836707 
L 350.889683 109.530735 
L 350.514486 111.224763 
L 349.983138 112.918791 
L 349.303378 114.612819 
L 348.455896 116.351991 
L 347.262654 118.000874 
L 345.492546 120.131557 
L 342.529196 122.477186 
L 339.565846 124.119266 
L 333.639146 126.949421 
L 330.675796 128.619643 
L 326.139255 131.553097 
L 324.749096 132.638559 
L 323.571853 133.247125 
L 321.785746 134.475072 
L 318.822396 134.902626 
L 317.411979 133.247125 
L 315.859046 130.862197 
L 315.429701 129.859069 
L 314.495753 128.165041 
L 312.895696 126.080263 
L 311.81214 124.776986 
L 309.932346 122.869827 
L 308.717149 121.38893 
L 307.524847 119.694902 
L 306.737183 118.000874 
L 306.737183 118.000874 
" style="fill:none;stroke:#08306b;stroke-linecap:square;stroke-width:2;"/>
   </g>
   <g id="patch_6">
    <path d="M 271.8938 161.08 
L 271.8938 25.44 
" style="fill:none;stroke:#800080;stroke-linecap:square;stroke-linejoin:miter;stroke-width:0.8;"/>
   </g>
   <g id="patch_7">
    <path d="M 271.8938 161.08 
L 418.68 161.08 
" style="fill:none;stroke:#ffa500;stroke-linecap:square;stroke-linejoin:miter;stroke-width:0.8;"/>
   </g>
   <g id="text_22">
    <text style="font-family:DejaVu Sans;font-size:12px;font-style:normal;font-weight:normal;text-anchor:middle;" transform="rotate(-0, 345.2869, 19.44)" x="345.2869" y="19.44">Equi-density contours</text>
   </g>
  </g>
 </g>
 <defs>
  <clipPath id="p945ddf7f39">
   <rect height="135.64" width="146.7862" x="61.562" y="25.44"/>
  </clipPath>
  <clipPath id="pca2456307b">
   <rect height="135.64" width="146.7862" x="271.8938" y="25.44"/>
  </clipPath>
 </defs>
</svg>
