<?xml version="1.0" encoding="utf-8" standalone="no"?>
<!DOCTYPE svg PUBLIC "-//W3C//DTD SVG 1.1//EN"
  "http://www.w3.org/Graphics/SVG/1.1/DTD/svg11.dtd">
<!-- Created with matplotlib (https://matplotlib.org/) -->
<svg height="288pt" version="1.1" viewBox="0 0 864 288" width="864pt" xmlns="http://www.w3.org/2000/svg" xmlns:xlink="http://www.w3.org/1999/xlink">
 <defs>
  <style type="text/css">
*{stroke-linecap:butt;stroke-linejoin:round;}
  </style>
 </defs>
 <g id="figure_1">
  <g id="patch_1">
   <path d="M 0 288 
L 864 288 
L 864 0 
L 0 0 
z
" style="fill:#ffffff;"/>
  </g>
  <g id="axes_1">
   <g id="patch_2">
    <path d="M 54.272 244.6 
L 277.788 244.6 
L 277.788 26.16 
L 54.272 26.16 
z
" style="fill:#ffffff;"/>
   </g>
   <g id="PolyCollection_1">
    <path clip-path="url(#p7bbd05f521)" d="M 64.431818 227.844016 
L 64.431818 234.1293 
L 70.98654 217.792464 
L 81.911075 185.2223 
L 92.835611 170.233719 
L 103.760147 157.72452 
L 114.684682 148.614135 
L 125.609218 142.267311 
L 136.533754 134.037346 
L 147.458289 126.630689 
L 158.382825 120.046193 
L 169.307361 113.539559 
L 180.231896 107.639122 
L 191.156432 99.997406 
L 202.080968 92.526851 
L 213.005503 86.485569 
L 223.930039 77.90136 
L 234.854575 70.46125 
L 245.77911 61.20659 
L 256.703646 49.704892 
L 267.628182 40.109575 
L 267.628182 36.089091 
L 267.628182 36.089091 
L 256.703646 46.31105 
L 245.77911 58.414538 
L 234.854575 67.920137 
L 223.930039 75.282499 
L 213.005503 83.581405 
L 202.080968 89.822418 
L 191.156432 97.365941 
L 180.231896 105.785634 
L 169.307361 110.868528 
L 158.382825 117.789268 
L 147.458289 124.11484 
L 136.533754 131.511973 
L 125.609218 139.973732 
L 114.684682 145.588219 
L 103.760147 153.979421 
L 92.835611 166.137316 
L 81.911075 180.166693 
L 70.98654 210.796021 
L 64.431818 227.844016 
z
" style="fill:#1f77b4;fill-opacity:0.5;"/>
   </g>
   <g id="PolyCollection_2">
    <path clip-path="url(#p7bbd05f521)" d="M 64.431818 228.693921 
L 64.431818 234.670909 
L 70.98654 219.619414 
L 81.911075 191.999147 
L 92.835611 182.468166 
L 103.760147 176.463362 
L 114.684682 173.626257 
L 125.609218 174.622221 
L 136.533754 175.081504 
L 147.458289 176.126052 
L 158.382825 177.313895 
L 169.307361 178.641329 
L 180.231896 180.102567 
L 191.156432 182.51726 
L 202.080968 185.649078 
L 213.005503 187.155314 
L 223.930039 190.238232 
L 234.854575 192.818819 
L 245.77911 195.581142 
L 256.703646 198.629573 
L 267.628182 201.232404 
L 267.628182 200.456141 
L 267.628182 200.456141 
L 256.703646 197.924046 
L 245.77911 194.691977 
L 234.854575 191.831861 
L 223.930039 189.224575 
L 213.005503 186.170969 
L 202.080968 184.521519 
L 191.156432 181.387781 
L 180.231896 178.930579 
L 169.307361 177.349732 
L 158.382825 176.216257 
L 147.458289 174.795802 
L 136.533754 173.472718 
L 125.609218 172.875099 
L 114.684682 171.695161 
L 103.760147 173.707551 
L 92.835611 179.036569 
L 81.911075 187.537192 
L 70.98654 212.952875 
L 64.431818 228.693921 
z
" style="fill:#ff7f0e;fill-opacity:0.5;"/>
   </g>
   <g id="PolyCollection_3">
    <path clip-path="url(#p7bbd05f521)" d="M 64.431818 227.844016 
L 64.431818 234.1293 
L 70.98654 226.215138 
L 81.911075 204.599193 
L 92.835611 193.307309 
L 103.760147 182.557664 
L 114.684682 174.489581 
L 125.609218 172.45795 
L 136.533754 168.893004 
L 147.458289 163.665023 
L 158.382825 160.391257 
L 169.307361 159.345433 
L 180.231896 157.864605 
L 191.156432 156.8804 
L 202.080968 154.064839 
L 213.005503 153.647581 
L 223.930039 152.095406 
L 234.854575 151.176301 
L 245.77911 149.885847 
L 256.703646 149.787431 
L 267.628182 149.658207 
L 267.628182 148.466836 
L 267.628182 148.466836 
L 256.703646 148.530782 
L 245.77911 148.968185 
L 234.854575 150.017185 
L 223.930039 150.640933 
L 213.005503 152.288347 
L 202.080968 152.396594 
L 191.156432 155.050723 
L 180.231896 156.128276 
L 169.307361 157.398509 
L 158.382825 158.592008 
L 147.458289 161.630135 
L 136.533754 166.601685 
L 125.609218 170.216641 
L 114.684682 172.31051 
L 103.760147 179.694731 
L 92.835611 190.088814 
L 81.911075 199.160443 
L 70.98654 219.622368 
L 64.431818 227.844016 
z
" style="fill:#2ca02c;fill-opacity:0.5;"/>
   </g>
   <g id="PolyCollection_4">
    <path clip-path="url(#p7bbd05f521)" d="M 64.431818 228.693921 
L 64.431818 234.670909 
L 70.98654 227.209223 
L 81.911075 206.032059 
L 92.835611 194.473233 
L 103.760147 183.688885 
L 114.684682 175.806516 
L 125.609218 174.097473 
L 136.533754 170.318065 
L 147.458289 167.318564 
L 158.382825 163.533204 
L 169.307361 161.650574 
L 180.231896 160.555814 
L 191.156432 157.713404 
L 202.080968 156.772425 
L 213.005503 155.311037 
L 223.930039 153.945258 
L 234.854575 152.83882 
L 245.77911 152.995198 
L 256.703646 151.927142 
L 267.628182 151.40455 
L 267.628182 150.170256 
L 267.628182 150.170256 
L 256.703646 150.766879 
L 245.77911 151.708583 
L 234.854575 151.548217 
L 223.930039 152.676902 
L 213.005503 153.954216 
L 202.080968 155.284908 
L 191.156432 156.404118 
L 180.231896 158.736571 
L 169.307361 160.028393 
L 158.382825 162.09491 
L 147.458289 165.552845 
L 136.533754 168.211143 
L 125.609218 171.392246 
L 114.684682 173.795938 
L 103.760147 180.979552 
L 92.835611 191.189375 
L 81.911075 201.027238 
L 70.98654 220.992696 
L 64.431818 228.693921 
z
" style="fill:#d62728;fill-opacity:0.5;"/>
   </g>
   <g id="matplotlib.axis_1">
    <g id="xtick_1">
     <g id="line2d_1">
      <defs>
       <path d="M 0 0 
L 0 3.5 
" id="me1aff74447" style="stroke:#000000;stroke-width:0.8;"/>
      </defs>
      <g>
       <use style="stroke:#000000;stroke-width:0.8;" x="60.062004" xlink:href="#me1aff74447" y="244.6"/>
      </g>
     </g>
     <g id="text_1">
      <!-- 0 -->
      <defs>
       <path d="M 31.78125 66.40625 
Q 24.171875 66.40625 20.328125 58.90625 
Q 16.5 51.421875 16.5 36.375 
Q 16.5 21.390625 20.328125 13.890625 
Q 24.171875 6.390625 31.78125 6.390625 
Q 39.453125 6.390625 43.28125 13.890625 
Q 47.125 21.390625 47.125 36.375 
Q 47.125 51.421875 43.28125 58.90625 
Q 39.453125 66.40625 31.78125 66.40625 
z
M 31.78125 74.21875 
Q 44.046875 74.21875 50.515625 64.515625 
Q 56.984375 54.828125 56.984375 36.375 
Q 56.984375 17.96875 50.515625 8.265625 
Q 44.046875 -1.421875 31.78125 -1.421875 
Q 19.53125 -1.421875 13.0625 8.265625 
Q 6.59375 17.96875 6.59375 36.375 
Q 6.59375 54.828125 13.0625 64.515625 
Q 19.53125 74.21875 31.78125 74.21875 
z
" id="DejaVuSans-48"/>
      </defs>
      <g transform="translate(56.880754 259.198438)scale(0.1 -0.1)">
       <use xlink:href="#DejaVuSans-48"/>
      </g>
     </g>
    </g>
    <g id="xtick_2">
     <g id="line2d_2">
      <g>
       <use style="stroke:#000000;stroke-width:0.8;" x="103.760147" xlink:href="#me1aff74447" y="244.6"/>
      </g>
     </g>
     <g id="text_2">
      <!-- 20 -->
      <defs>
       <path d="M 19.1875 8.296875 
L 53.609375 8.296875 
L 53.609375 0 
L 7.328125 0 
L 7.328125 8.296875 
Q 12.9375 14.109375 22.625 23.890625 
Q 32.328125 33.6875 34.8125 36.53125 
Q 39.546875 41.84375 41.421875 45.53125 
Q 43.3125 49.21875 43.3125 52.78125 
Q 43.3125 58.59375 39.234375 62.25 
Q 35.15625 65.921875 28.609375 65.921875 
Q 23.96875 65.921875 18.8125 64.3125 
Q 13.671875 62.703125 7.8125 59.421875 
L 7.8125 69.390625 
Q 13.765625 71.78125 18.9375 73 
Q 24.125 74.21875 28.421875 74.21875 
Q 39.75 74.21875 46.484375 68.546875 
Q 53.21875 62.890625 53.21875 53.421875 
Q 53.21875 48.921875 51.53125 44.890625 
Q 49.859375 40.875 45.40625 35.40625 
Q 44.1875 33.984375 37.640625 27.21875 
Q 31.109375 20.453125 19.1875 8.296875 
z
" id="DejaVuSans-50"/>
      </defs>
      <g transform="translate(97.397647 259.198438)scale(0.1 -0.1)">
       <use xlink:href="#DejaVuSans-50"/>
       <use x="63.623047" xlink:href="#DejaVuSans-48"/>
      </g>
     </g>
    </g>
    <g id="xtick_3">
     <g id="line2d_3">
      <g>
       <use style="stroke:#000000;stroke-width:0.8;" x="147.458289" xlink:href="#me1aff74447" y="244.6"/>
      </g>
     </g>
     <g id="text_3">
      <!-- 40 -->
      <defs>
       <path d="M 37.796875 64.3125 
L 12.890625 25.390625 
L 37.796875 25.390625 
z
M 35.203125 72.90625 
L 47.609375 72.90625 
L 47.609375 25.390625 
L 58.015625 25.390625 
L 58.015625 17.1875 
L 47.609375 17.1875 
L 47.609375 0 
L 37.796875 0 
L 37.796875 17.1875 
L 4.890625 17.1875 
L 4.890625 26.703125 
z
" id="DejaVuSans-52"/>
      </defs>
      <g transform="translate(141.095789 259.198438)scale(0.1 -0.1)">
       <use xlink:href="#DejaVuSans-52"/>
       <use x="63.623047" xlink:href="#DejaVuSans-48"/>
      </g>
     </g>
    </g>
    <g id="xtick_4">
     <g id="line2d_4">
      <g>
       <use style="stroke:#000000;stroke-width:0.8;" x="191.156432" xlink:href="#me1aff74447" y="244.6"/>
      </g>
     </g>
     <g id="text_4">
      <!-- 60 -->
      <defs>
       <path d="M 33.015625 40.375 
Q 26.375 40.375 22.484375 35.828125 
Q 18.609375 31.296875 18.609375 23.390625 
Q 18.609375 15.53125 22.484375 10.953125 
Q 26.375 6.390625 33.015625 6.390625 
Q 39.65625 6.390625 43.53125 10.953125 
Q 47.40625 15.53125 47.40625 23.390625 
Q 47.40625 31.296875 43.53125 35.828125 
Q 39.65625 40.375 33.015625 40.375 
z
M 52.59375 71.296875 
L 52.59375 62.3125 
Q 48.875 64.0625 45.09375 64.984375 
Q 41.3125 65.921875 37.59375 65.921875 
Q 27.828125 65.921875 22.671875 59.328125 
Q 17.53125 52.734375 16.796875 39.40625 
Q 19.671875 43.65625 24.015625 45.921875 
Q 28.375 48.1875 33.59375 48.1875 
Q 44.578125 48.1875 50.953125 41.515625 
Q 57.328125 34.859375 57.328125 23.390625 
Q 57.328125 12.15625 50.6875 5.359375 
Q 44.046875 -1.421875 33.015625 -1.421875 
Q 20.359375 -1.421875 13.671875 8.265625 
Q 6.984375 17.96875 6.984375 36.375 
Q 6.984375 53.65625 15.1875 63.9375 
Q 23.390625 74.21875 37.203125 74.21875 
Q 40.921875 74.21875 44.703125 73.484375 
Q 48.484375 72.75 52.59375 71.296875 
z
" id="DejaVuSans-54"/>
      </defs>
      <g transform="translate(184.793932 259.198438)scale(0.1 -0.1)">
       <use xlink:href="#DejaVuSans-54"/>
       <use x="63.623047" xlink:href="#DejaVuSans-48"/>
      </g>
     </g>
    </g>
    <g id="xtick_5">
     <g id="line2d_5">
      <g>
       <use style="stroke:#000000;stroke-width:0.8;" x="234.854575" xlink:href="#me1aff74447" y="244.6"/>
      </g>
     </g>
     <g id="text_5">
      <!-- 80 -->
      <defs>
       <path d="M 31.78125 34.625 
Q 24.75 34.625 20.71875 30.859375 
Q 16.703125 27.09375 16.703125 20.515625 
Q 16.703125 13.921875 20.71875 10.15625 
Q 24.75 6.390625 31.78125 6.390625 
Q 38.8125 6.390625 42.859375 10.171875 
Q 46.921875 13.96875 46.921875 20.515625 
Q 46.921875 27.09375 42.890625 30.859375 
Q 38.875 34.625 31.78125 34.625 
z
M 21.921875 38.8125 
Q 15.578125 40.375 12.03125 44.71875 
Q 8.5 49.078125 8.5 55.328125 
Q 8.5 64.0625 14.71875 69.140625 
Q 20.953125 74.21875 31.78125 74.21875 
Q 42.671875 74.21875 48.875 69.140625 
Q 55.078125 64.0625 55.078125 55.328125 
Q 55.078125 49.078125 51.53125 44.71875 
Q 48 40.375 41.703125 38.8125 
Q 48.828125 37.15625 52.796875 32.3125 
Q 56.78125 27.484375 56.78125 20.515625 
Q 56.78125 9.90625 50.3125 4.234375 
Q 43.84375 -1.421875 31.78125 -1.421875 
Q 19.734375 -1.421875 13.25 4.234375 
Q 6.78125 9.90625 6.78125 20.515625 
Q 6.78125 27.484375 10.78125 32.3125 
Q 14.796875 37.15625 21.921875 38.8125 
z
M 18.3125 54.390625 
Q 18.3125 48.734375 21.84375 45.5625 
Q 25.390625 42.390625 31.78125 42.390625 
Q 38.140625 42.390625 41.71875 45.5625 
Q 45.3125 48.734375 45.3125 54.390625 
Q 45.3125 60.0625 41.71875 63.234375 
Q 38.140625 66.40625 31.78125 66.40625 
Q 25.390625 66.40625 21.84375 63.234375 
Q 18.3125 60.0625 18.3125 54.390625 
z
" id="DejaVuSans-56"/>
      </defs>
      <g transform="translate(228.492075 259.198438)scale(0.1 -0.1)">
       <use xlink:href="#DejaVuSans-56"/>
       <use x="63.623047" xlink:href="#DejaVuSans-48"/>
      </g>
     </g>
    </g>
    <g id="text_6">
     <!-- Neurons, $N$ -->
     <defs>
      <path d="M 9.8125 72.90625 
L 23.09375 72.90625 
L 55.421875 11.921875 
L 55.421875 72.90625 
L 64.984375 72.90625 
L 64.984375 0 
L 51.703125 0 
L 19.390625 60.984375 
L 19.390625 0 
L 9.8125 0 
z
" id="DejaVuSans-78"/>
      <path d="M 56.203125 29.59375 
L 56.203125 25.203125 
L 14.890625 25.203125 
Q 15.484375 15.921875 20.484375 11.0625 
Q 25.484375 6.203125 34.421875 6.203125 
Q 39.59375 6.203125 44.453125 7.46875 
Q 49.3125 8.734375 54.109375 11.28125 
L 54.109375 2.78125 
Q 49.265625 0.734375 44.1875 -0.34375 
Q 39.109375 -1.421875 33.890625 -1.421875 
Q 20.796875 -1.421875 13.15625 6.1875 
Q 5.515625 13.8125 5.515625 26.8125 
Q 5.515625 40.234375 12.765625 48.109375 
Q 20.015625 56 32.328125 56 
Q 43.359375 56 49.78125 48.890625 
Q 56.203125 41.796875 56.203125 29.59375 
z
M 47.21875 32.234375 
Q 47.125 39.59375 43.09375 43.984375 
Q 39.0625 48.390625 32.421875 48.390625 
Q 24.90625 48.390625 20.390625 44.140625 
Q 15.875 39.890625 15.1875 32.171875 
z
" id="DejaVuSans-101"/>
      <path d="M 8.5 21.578125 
L 8.5 54.6875 
L 17.484375 54.6875 
L 17.484375 21.921875 
Q 17.484375 14.15625 20.5 10.265625 
Q 23.53125 6.390625 29.59375 6.390625 
Q 36.859375 6.390625 41.078125 11.03125 
Q 45.3125 15.671875 45.3125 23.6875 
L 45.3125 54.6875 
L 54.296875 54.6875 
L 54.296875 0 
L 45.3125 0 
L 45.3125 8.40625 
Q 42.046875 3.421875 37.71875 1 
Q 33.40625 -1.421875 27.6875 -1.421875 
Q 18.265625 -1.421875 13.375 4.4375 
Q 8.5 10.296875 8.5 21.578125 
z
M 31.109375 56 
z
" id="DejaVuSans-117"/>
      <path d="M 41.109375 46.296875 
Q 39.59375 47.171875 37.8125 47.578125 
Q 36.03125 48 33.890625 48 
Q 26.265625 48 22.1875 43.046875 
Q 18.109375 38.09375 18.109375 28.8125 
L 18.109375 0 
L 9.078125 0 
L 9.078125 54.6875 
L 18.109375 54.6875 
L 18.109375 46.1875 
Q 20.953125 51.171875 25.484375 53.578125 
Q 30.03125 56 36.53125 56 
Q 37.453125 56 38.578125 55.875 
Q 39.703125 55.765625 41.0625 55.515625 
z
" id="DejaVuSans-114"/>
      <path d="M 30.609375 48.390625 
Q 23.390625 48.390625 19.1875 42.75 
Q 14.984375 37.109375 14.984375 27.296875 
Q 14.984375 17.484375 19.15625 11.84375 
Q 23.34375 6.203125 30.609375 6.203125 
Q 37.796875 6.203125 41.984375 11.859375 
Q 46.1875 17.53125 46.1875 27.296875 
Q 46.1875 37.015625 41.984375 42.703125 
Q 37.796875 48.390625 30.609375 48.390625 
z
M 30.609375 56 
Q 42.328125 56 49.015625 48.375 
Q 55.71875 40.765625 55.71875 27.296875 
Q 55.71875 13.875 49.015625 6.21875 
Q 42.328125 -1.421875 30.609375 -1.421875 
Q 18.84375 -1.421875 12.171875 6.21875 
Q 5.515625 13.875 5.515625 27.296875 
Q 5.515625 40.765625 12.171875 48.375 
Q 18.84375 56 30.609375 56 
z
" id="DejaVuSans-111"/>
      <path d="M 54.890625 33.015625 
L 54.890625 0 
L 45.90625 0 
L 45.90625 32.71875 
Q 45.90625 40.484375 42.875 44.328125 
Q 39.84375 48.1875 33.796875 48.1875 
Q 26.515625 48.1875 22.3125 43.546875 
Q 18.109375 38.921875 18.109375 30.90625 
L 18.109375 0 
L 9.078125 0 
L 9.078125 54.6875 
L 18.109375 54.6875 
L 18.109375 46.1875 
Q 21.34375 51.125 25.703125 53.5625 
Q 30.078125 56 35.796875 56 
Q 45.21875 56 50.046875 50.171875 
Q 54.890625 44.34375 54.890625 33.015625 
z
" id="DejaVuSans-110"/>
      <path d="M 44.28125 53.078125 
L 44.28125 44.578125 
Q 40.484375 46.53125 36.375 47.5 
Q 32.28125 48.484375 27.875 48.484375 
Q 21.1875 48.484375 17.84375 46.4375 
Q 14.5 44.390625 14.5 40.28125 
Q 14.5 37.15625 16.890625 35.375 
Q 19.28125 33.59375 26.515625 31.984375 
L 29.59375 31.296875 
Q 39.15625 29.25 43.1875 25.515625 
Q 47.21875 21.78125 47.21875 15.09375 
Q 47.21875 7.46875 41.1875 3.015625 
Q 35.15625 -1.421875 24.609375 -1.421875 
Q 20.21875 -1.421875 15.453125 -0.5625 
Q 10.6875 0.296875 5.421875 2 
L 5.421875 11.28125 
Q 10.40625 8.6875 15.234375 7.390625 
Q 20.0625 6.109375 24.8125 6.109375 
Q 31.15625 6.109375 34.5625 8.28125 
Q 37.984375 10.453125 37.984375 14.40625 
Q 37.984375 18.0625 35.515625 20.015625 
Q 33.0625 21.96875 24.703125 23.78125 
L 21.578125 24.515625 
Q 13.234375 26.265625 9.515625 29.90625 
Q 5.8125 33.546875 5.8125 39.890625 
Q 5.8125 47.609375 11.28125 51.796875 
Q 16.75 56 26.8125 56 
Q 31.78125 56 36.171875 55.265625 
Q 40.578125 54.546875 44.28125 53.078125 
z
" id="DejaVuSans-115"/>
      <path d="M 11.71875 12.40625 
L 22.015625 12.40625 
L 22.015625 4 
L 14.015625 -11.625 
L 7.71875 -11.625 
L 11.71875 4 
z
" id="DejaVuSans-44"/>
      <path id="DejaVuSans-32"/>
      <path d="M 16.890625 72.90625 
L 30.171875 72.90625 
L 50.296875 10.40625 
L 62.5 72.90625 
L 72.125 72.90625 
L 57.90625 0 
L 44.578125 0 
L 24.515625 62.890625 
L 12.3125 0 
L 2.6875 0 
z
" id="DejaVuSans-Oblique-78"/>
     </defs>
     <g transform="translate(138.23 272.876562)scale(0.1 -0.1)">
      <use transform="translate(0 0.09375)" xlink:href="#DejaVuSans-78"/>
      <use transform="translate(74.804688 0.09375)" xlink:href="#DejaVuSans-101"/>
      <use transform="translate(136.328125 0.09375)" xlink:href="#DejaVuSans-117"/>
      <use transform="translate(199.707031 0.09375)" xlink:href="#DejaVuSans-114"/>
      <use transform="translate(240.820312 0.09375)" xlink:href="#DejaVuSans-111"/>
      <use transform="translate(302.001953 0.09375)" xlink:href="#DejaVuSans-110"/>
      <use transform="translate(365.380859 0.09375)" xlink:href="#DejaVuSans-115"/>
      <use transform="translate(417.480469 0.09375)" xlink:href="#DejaVuSans-44"/>
      <use transform="translate(449.267578 0.09375)" xlink:href="#DejaVuSans-32"/>
      <use transform="translate(481.054688 0.09375)" xlink:href="#DejaVuSans-Oblique-78"/>
     </g>
    </g>
   </g>
   <g id="matplotlib.axis_2">
    <g id="ytick_1">
     <g id="line2d_6">
      <defs>
       <path d="M 0 0 
L -3.5 0 
" id="m739bdeae52" style="stroke:#000000;stroke-width:0.8;"/>
      </defs>
      <g>
       <use style="stroke:#000000;stroke-width:0.8;" x="54.272" xlink:href="#m739bdeae52" y="221.90841"/>
      </g>
     </g>
     <g id="text_7">
      <!-- 50 -->
      <defs>
       <path d="M 10.796875 72.90625 
L 49.515625 72.90625 
L 49.515625 64.59375 
L 19.828125 64.59375 
L 19.828125 46.734375 
Q 21.96875 47.46875 24.109375 47.828125 
Q 26.265625 48.1875 28.421875 48.1875 
Q 40.625 48.1875 47.75 41.5 
Q 54.890625 34.8125 54.890625 23.390625 
Q 54.890625 11.625 47.5625 5.09375 
Q 40.234375 -1.421875 26.90625 -1.421875 
Q 22.3125 -1.421875 17.546875 -0.640625 
Q 12.796875 0.140625 7.71875 1.703125 
L 7.71875 11.625 
Q 12.109375 9.234375 16.796875 8.0625 
Q 21.484375 6.890625 26.703125 6.890625 
Q 35.15625 6.890625 40.078125 11.328125 
Q 45.015625 15.765625 45.015625 23.390625 
Q 45.015625 31 40.078125 35.4375 
Q 35.15625 39.890625 26.703125 39.890625 
Q 22.75 39.890625 18.8125 39.015625 
Q 14.890625 38.140625 10.796875 36.28125 
z
" id="DejaVuSans-53"/>
      </defs>
      <g transform="translate(34.547 225.707629)scale(0.1 -0.1)">
       <use xlink:href="#DejaVuSans-53"/>
       <use x="63.623047" xlink:href="#DejaVuSans-48"/>
      </g>
     </g>
    </g>
    <g id="ytick_2">
     <g id="line2d_7">
      <g>
       <use style="stroke:#000000;stroke-width:0.8;" x="54.272" xlink:href="#m739bdeae52" y="185.099318"/>
      </g>
     </g>
     <g id="text_8">
      <!-- 100 -->
      <defs>
       <path d="M 12.40625 8.296875 
L 28.515625 8.296875 
L 28.515625 63.921875 
L 10.984375 60.40625 
L 10.984375 69.390625 
L 28.421875 72.90625 
L 38.28125 72.90625 
L 38.28125 8.296875 
L 54.390625 8.296875 
L 54.390625 0 
L 12.40625 0 
z
" id="DejaVuSans-49"/>
      </defs>
      <g transform="translate(28.1845 188.898536)scale(0.1 -0.1)">
       <use xlink:href="#DejaVuSans-49"/>
       <use x="63.623047" xlink:href="#DejaVuSans-48"/>
       <use x="127.246094" xlink:href="#DejaVuSans-48"/>
      </g>
     </g>
    </g>
    <g id="ytick_3">
     <g id="line2d_8">
      <g>
       <use style="stroke:#000000;stroke-width:0.8;" x="54.272" xlink:href="#m739bdeae52" y="148.290225"/>
      </g>
     </g>
     <g id="text_9">
      <!-- 150 -->
      <g transform="translate(28.1845 152.089444)scale(0.1 -0.1)">
       <use xlink:href="#DejaVuSans-49"/>
       <use x="63.623047" xlink:href="#DejaVuSans-53"/>
       <use x="127.246094" xlink:href="#DejaVuSans-48"/>
      </g>
     </g>
    </g>
    <g id="ytick_4">
     <g id="line2d_9">
      <g>
       <use style="stroke:#000000;stroke-width:0.8;" x="54.272" xlink:href="#m739bdeae52" y="111.481133"/>
      </g>
     </g>
     <g id="text_10">
      <!-- 200 -->
      <g transform="translate(28.1845 115.280352)scale(0.1 -0.1)">
       <use xlink:href="#DejaVuSans-50"/>
       <use x="63.623047" xlink:href="#DejaVuSans-48"/>
       <use x="127.246094" xlink:href="#DejaVuSans-48"/>
      </g>
     </g>
    </g>
    <g id="ytick_5">
     <g id="line2d_10">
      <g>
       <use style="stroke:#000000;stroke-width:0.8;" x="54.272" xlink:href="#m739bdeae52" y="74.67204"/>
      </g>
     </g>
     <g id="text_11">
      <!-- 250 -->
      <g transform="translate(28.1845 78.471259)scale(0.1 -0.1)">
       <use xlink:href="#DejaVuSans-50"/>
       <use x="63.623047" xlink:href="#DejaVuSans-53"/>
       <use x="127.246094" xlink:href="#DejaVuSans-48"/>
      </g>
     </g>
    </g>
    <g id="ytick_6">
     <g id="line2d_11">
      <g>
       <use style="stroke:#000000;stroke-width:0.8;" x="54.272" xlink:href="#m739bdeae52" y="37.862948"/>
      </g>
     </g>
     <g id="text_12">
      <!-- 300 -->
      <defs>
       <path d="M 40.578125 39.3125 
Q 47.65625 37.796875 51.625 33 
Q 55.609375 28.21875 55.609375 21.1875 
Q 55.609375 10.40625 48.1875 4.484375 
Q 40.765625 -1.421875 27.09375 -1.421875 
Q 22.515625 -1.421875 17.65625 -0.515625 
Q 12.796875 0.390625 7.625 2.203125 
L 7.625 11.71875 
Q 11.71875 9.328125 16.59375 8.109375 
Q 21.484375 6.890625 26.8125 6.890625 
Q 36.078125 6.890625 40.9375 10.546875 
Q 45.796875 14.203125 45.796875 21.1875 
Q 45.796875 27.640625 41.28125 31.265625 
Q 36.765625 34.90625 28.71875 34.90625 
L 20.21875 34.90625 
L 20.21875 43.015625 
L 29.109375 43.015625 
Q 36.375 43.015625 40.234375 45.921875 
Q 44.09375 48.828125 44.09375 54.296875 
Q 44.09375 59.90625 40.109375 62.90625 
Q 36.140625 65.921875 28.71875 65.921875 
Q 24.65625 65.921875 20.015625 65.03125 
Q 15.375 64.15625 9.8125 62.3125 
L 9.8125 71.09375 
Q 15.4375 72.65625 20.34375 73.4375 
Q 25.25 74.21875 29.59375 74.21875 
Q 40.828125 74.21875 47.359375 69.109375 
Q 53.90625 64.015625 53.90625 55.328125 
Q 53.90625 49.265625 50.4375 45.09375 
Q 46.96875 40.921875 40.578125 39.3125 
z
" id="DejaVuSans-51"/>
      </defs>
      <g transform="translate(28.1845 41.662167)scale(0.1 -0.1)">
       <use xlink:href="#DejaVuSans-51"/>
       <use x="63.623047" xlink:href="#DejaVuSans-48"/>
       <use x="127.246094" xlink:href="#DejaVuSans-48"/>
      </g>
     </g>
    </g>
    <g id="text_13">
     <!-- $d'^{2}$ -->
     <defs>
      <path d="M 41.796875 8.203125 
Q 38.1875 3.46875 33.25 1.015625 
Q 28.328125 -1.421875 22.3125 -1.421875 
Q 14.109375 -1.421875 9.34375 4.171875 
Q 4.59375 9.765625 4.59375 19.484375 
Q 4.59375 27.59375 7.46875 34.9375 
Q 10.359375 42.28125 15.828125 48.09375 
Q 19.4375 51.953125 23.96875 53.96875 
Q 28.515625 56 33.5 56 
Q 38.765625 56 42.796875 53.453125 
Q 46.828125 50.921875 49.03125 46.1875 
L 54.890625 75.984375 
L 63.921875 75.984375 
L 49.125 0 
L 40.09375 0 
z
M 13.921875 21.09375 
Q 13.921875 14.015625 17.109375 10.0625 
Q 20.3125 6.109375 25.984375 6.109375 
Q 30.171875 6.109375 33.765625 8.125 
Q 37.359375 10.15625 40.09375 14.109375 
Q 42.96875 18.21875 44.625 23.578125 
Q 46.296875 28.953125 46.296875 34.1875 
Q 46.296875 40.96875 43.09375 44.765625 
Q 39.890625 48.578125 34.28125 48.578125 
Q 30.03125 48.578125 26.359375 46.578125 
Q 22.703125 44.578125 20.125 40.828125 
Q 17.28125 36.765625 15.59375 31.390625 
Q 13.921875 26.03125 13.921875 21.09375 
z
" id="DejaVuSans-Oblique-100"/>
      <path d="M 3.515625 5.421875 
Q 2.875 5.609375 2.875 6.390625 
L 15.09375 51.8125 
Q 15.671875 53.65625 17.078125 54.78125 
Q 18.5 55.90625 20.3125 55.90625 
Q 22.65625 55.90625 24.4375 54.359375 
Q 26.21875 52.828125 26.21875 50.484375 
Q 26.21875 49.46875 25.6875 48.1875 
L 7.625 4.984375 
Q 7.28125 4.296875 6.6875 4.296875 
Q 6.15625 4.296875 5 4.78125 
Q 3.859375 5.28125 3.515625 5.421875 
z
" id="Cmsy10-48"/>
     </defs>
     <g transform="translate(22.104813 142.48)rotate(-90)scale(0.1 -0.1)">
      <use transform="translate(0 0.765625)" xlink:href="#DejaVuSans-Oblique-100"/>
      <use transform="translate(70.924271 39.046875)scale(0.7)" xlink:href="#Cmsy10-48"/>
      <use transform="translate(93.858841 39.046875)scale(0.7)" xlink:href="#DejaVuSans-50"/>
     </g>
    </g>
   </g>
   <g id="line2d_12">
    <path clip-path="url(#p7bbd05f521)" d="M 64.431818 230.986658 
L 70.98654 214.294242 
L 81.911075 182.694496 
L 92.835611 168.185517 
L 103.760147 155.851971 
L 114.684682 147.101177 
L 125.609218 141.120521 
L 136.533754 132.774659 
L 147.458289 125.372764 
L 158.382825 118.91773 
L 169.307361 112.204044 
L 180.231896 106.712378 
L 191.156432 98.681674 
L 202.080968 91.174634 
L 213.005503 85.033487 
L 223.930039 76.591929 
L 234.854575 69.190694 
L 245.77911 59.810564 
L 256.703646 48.007971 
L 267.628182 38.099333 
" style="fill:none;stroke:#1f77b4;stroke-linecap:square;stroke-width:1.5;"/>
    <defs>
     <path d="M 0 3 
C 0.795609 3 1.55874 2.683901 2.12132 2.12132 
C 2.683901 1.55874 3 0.795609 3 0 
C 3 -0.795609 2.683901 -1.55874 2.12132 -2.12132 
C 1.55874 -2.683901 0.795609 -3 0 -3 
C -0.795609 -3 -1.55874 -2.683901 -2.12132 -2.12132 
C -2.683901 -1.55874 -3 -0.795609 -3 0 
C -3 0.795609 -2.683901 1.55874 -2.12132 2.12132 
C -1.55874 2.683901 -0.795609 3 0 3 
z
" id="m2c8d7e029d" style="stroke:#1f77b4;"/>
    </defs>
    <g clip-path="url(#p7bbd05f521)">
     <use style="fill:#1f77b4;stroke:#1f77b4;" x="64.431818" xlink:href="#m2c8d7e029d" y="230.986658"/>
     <use style="fill:#1f77b4;stroke:#1f77b4;" x="70.98654" xlink:href="#m2c8d7e029d" y="214.294242"/>
     <use style="fill:#1f77b4;stroke:#1f77b4;" x="81.911075" xlink:href="#m2c8d7e029d" y="182.694496"/>
     <use style="fill:#1f77b4;stroke:#1f77b4;" x="92.835611" xlink:href="#m2c8d7e029d" y="168.185517"/>
     <use style="fill:#1f77b4;stroke:#1f77b4;" x="103.760147" xlink:href="#m2c8d7e029d" y="155.851971"/>
     <use style="fill:#1f77b4;stroke:#1f77b4;" x="114.684682" xlink:href="#m2c8d7e029d" y="147.101177"/>
     <use style="fill:#1f77b4;stroke:#1f77b4;" x="125.609218" xlink:href="#m2c8d7e029d" y="141.120521"/>
     <use style="fill:#1f77b4;stroke:#1f77b4;" x="136.533754" xlink:href="#m2c8d7e029d" y="132.774659"/>
     <use style="fill:#1f77b4;stroke:#1f77b4;" x="147.458289" xlink:href="#m2c8d7e029d" y="125.372764"/>
     <use style="fill:#1f77b4;stroke:#1f77b4;" x="158.382825" xlink:href="#m2c8d7e029d" y="118.91773"/>
     <use style="fill:#1f77b4;stroke:#1f77b4;" x="169.307361" xlink:href="#m2c8d7e029d" y="112.204044"/>
     <use style="fill:#1f77b4;stroke:#1f77b4;" x="180.231896" xlink:href="#m2c8d7e029d" y="106.712378"/>
     <use style="fill:#1f77b4;stroke:#1f77b4;" x="191.156432" xlink:href="#m2c8d7e029d" y="98.681674"/>
     <use style="fill:#1f77b4;stroke:#1f77b4;" x="202.080968" xlink:href="#m2c8d7e029d" y="91.174634"/>
     <use style="fill:#1f77b4;stroke:#1f77b4;" x="213.005503" xlink:href="#m2c8d7e029d" y="85.033487"/>
     <use style="fill:#1f77b4;stroke:#1f77b4;" x="223.930039" xlink:href="#m2c8d7e029d" y="76.591929"/>
     <use style="fill:#1f77b4;stroke:#1f77b4;" x="234.854575" xlink:href="#m2c8d7e029d" y="69.190694"/>
     <use style="fill:#1f77b4;stroke:#1f77b4;" x="245.77911" xlink:href="#m2c8d7e029d" y="59.810564"/>
     <use style="fill:#1f77b4;stroke:#1f77b4;" x="256.703646" xlink:href="#m2c8d7e029d" y="48.007971"/>
     <use style="fill:#1f77b4;stroke:#1f77b4;" x="267.628182" xlink:href="#m2c8d7e029d" y="38.099333"/>
    </g>
   </g>
   <g id="line2d_13">
    <path clip-path="url(#p7bbd05f521)" d="M 64.431818 231.682415 
L 70.98654 216.286145 
L 81.911075 189.768169 
L 92.835611 180.752368 
L 103.760147 175.085457 
L 114.684682 172.660709 
L 125.609218 173.74866 
L 136.533754 174.277111 
L 147.458289 175.460927 
L 158.382825 176.765076 
L 169.307361 177.995531 
L 180.231896 179.516573 
L 191.156432 181.95252 
L 202.080968 185.085299 
L 213.005503 186.663142 
L 223.930039 189.731403 
L 234.854575 192.32534 
L 245.77911 195.136559 
L 256.703646 198.276809 
L 267.628182 200.844272 
" style="fill:none;stroke:#ff7f0e;stroke-linecap:square;stroke-width:1.5;"/>
    <defs>
     <path d="M 0 3 
C 0.795609 3 1.55874 2.683901 2.12132 2.12132 
C 2.683901 1.55874 3 0.795609 3 0 
C 3 -0.795609 2.683901 -1.55874 2.12132 -2.12132 
C 1.55874 -2.683901 0.795609 -3 0 -3 
C -0.795609 -3 -1.55874 -2.683901 -2.12132 -2.12132 
C -2.683901 -1.55874 -3 -0.795609 -3 0 
C -3 0.795609 -2.683901 1.55874 -2.12132 2.12132 
C -1.55874 2.683901 -0.795609 3 0 3 
z
" id="m945053bac8" style="stroke:#ff7f0e;"/>
    </defs>
    <g clip-path="url(#p7bbd05f521)">
     <use style="fill:#ff7f0e;stroke:#ff7f0e;" x="64.431818" xlink:href="#m945053bac8" y="231.682415"/>
     <use style="fill:#ff7f0e;stroke:#ff7f0e;" x="70.98654" xlink:href="#m945053bac8" y="216.286145"/>
     <use style="fill:#ff7f0e;stroke:#ff7f0e;" x="81.911075" xlink:href="#m945053bac8" y="189.768169"/>
     <use style="fill:#ff7f0e;stroke:#ff7f0e;" x="92.835611" xlink:href="#m945053bac8" y="180.752368"/>
     <use style="fill:#ff7f0e;stroke:#ff7f0e;" x="103.760147" xlink:href="#m945053bac8" y="175.085457"/>
     <use style="fill:#ff7f0e;stroke:#ff7f0e;" x="114.684682" xlink:href="#m945053bac8" y="172.660709"/>
     <use style="fill:#ff7f0e;stroke:#ff7f0e;" x="125.609218" xlink:href="#m945053bac8" y="173.74866"/>
     <use style="fill:#ff7f0e;stroke:#ff7f0e;" x="136.533754" xlink:href="#m945053bac8" y="174.277111"/>
     <use style="fill:#ff7f0e;stroke:#ff7f0e;" x="147.458289" xlink:href="#m945053bac8" y="175.460927"/>
     <use style="fill:#ff7f0e;stroke:#ff7f0e;" x="158.382825" xlink:href="#m945053bac8" y="176.765076"/>
     <use style="fill:#ff7f0e;stroke:#ff7f0e;" x="169.307361" xlink:href="#m945053bac8" y="177.995531"/>
     <use style="fill:#ff7f0e;stroke:#ff7f0e;" x="180.231896" xlink:href="#m945053bac8" y="179.516573"/>
     <use style="fill:#ff7f0e;stroke:#ff7f0e;" x="191.156432" xlink:href="#m945053bac8" y="181.95252"/>
     <use style="fill:#ff7f0e;stroke:#ff7f0e;" x="202.080968" xlink:href="#m945053bac8" y="185.085299"/>
     <use style="fill:#ff7f0e;stroke:#ff7f0e;" x="213.005503" xlink:href="#m945053bac8" y="186.663142"/>
     <use style="fill:#ff7f0e;stroke:#ff7f0e;" x="223.930039" xlink:href="#m945053bac8" y="189.731403"/>
     <use style="fill:#ff7f0e;stroke:#ff7f0e;" x="234.854575" xlink:href="#m945053bac8" y="192.32534"/>
     <use style="fill:#ff7f0e;stroke:#ff7f0e;" x="245.77911" xlink:href="#m945053bac8" y="195.136559"/>
     <use style="fill:#ff7f0e;stroke:#ff7f0e;" x="256.703646" xlink:href="#m945053bac8" y="198.276809"/>
     <use style="fill:#ff7f0e;stroke:#ff7f0e;" x="267.628182" xlink:href="#m945053bac8" y="200.844272"/>
    </g>
   </g>
   <g id="line2d_14">
    <path clip-path="url(#p7bbd05f521)" d="M 64.431818 230.986658 
L 70.98654 222.918753 
L 81.911075 201.879818 
L 92.835611 191.698061 
L 103.760147 181.126198 
L 114.684682 173.400046 
L 125.609218 171.337296 
L 136.533754 167.747345 
L 147.458289 162.647579 
L 158.382825 159.491632 
L 169.307361 158.371971 
L 180.231896 156.996441 
L 191.156432 155.965562 
L 202.080968 153.230717 
L 213.005503 152.967964 
L 223.930039 151.368169 
L 234.854575 150.596743 
L 245.77911 149.427016 
L 256.703646 149.159107 
L 267.628182 149.062522 
" style="fill:none;stroke:#2ca02c;stroke-linecap:square;stroke-width:1.5;"/>
    <defs>
     <path d="M 0 3 
C 0.795609 3 1.55874 2.683901 2.12132 2.12132 
C 2.683901 1.55874 3 0.795609 3 0 
C 3 -0.795609 2.683901 -1.55874 2.12132 -2.12132 
C 1.55874 -2.683901 0.795609 -3 0 -3 
C -0.795609 -3 -1.55874 -2.683901 -2.12132 -2.12132 
C -2.683901 -1.55874 -3 -0.795609 -3 0 
C -3 0.795609 -2.683901 1.55874 -2.12132 2.12132 
C -1.55874 2.683901 -0.795609 3 0 3 
z
" id="me560ad09dd" style="stroke:#2ca02c;"/>
    </defs>
    <g clip-path="url(#p7bbd05f521)">
     <use style="fill:#2ca02c;stroke:#2ca02c;" x="64.431818" xlink:href="#me560ad09dd" y="230.986658"/>
     <use style="fill:#2ca02c;stroke:#2ca02c;" x="70.98654" xlink:href="#me560ad09dd" y="222.918753"/>
     <use style="fill:#2ca02c;stroke:#2ca02c;" x="81.911075" xlink:href="#me560ad09dd" y="201.879818"/>
     <use style="fill:#2ca02c;stroke:#2ca02c;" x="92.835611" xlink:href="#me560ad09dd" y="191.698061"/>
     <use style="fill:#2ca02c;stroke:#2ca02c;" x="103.760147" xlink:href="#me560ad09dd" y="181.126198"/>
     <use style="fill:#2ca02c;stroke:#2ca02c;" x="114.684682" xlink:href="#me560ad09dd" y="173.400046"/>
     <use style="fill:#2ca02c;stroke:#2ca02c;" x="125.609218" xlink:href="#me560ad09dd" y="171.337296"/>
     <use style="fill:#2ca02c;stroke:#2ca02c;" x="136.533754" xlink:href="#me560ad09dd" y="167.747345"/>
     <use style="fill:#2ca02c;stroke:#2ca02c;" x="147.458289" xlink:href="#me560ad09dd" y="162.647579"/>
     <use style="fill:#2ca02c;stroke:#2ca02c;" x="158.382825" xlink:href="#me560ad09dd" y="159.491632"/>
     <use style="fill:#2ca02c;stroke:#2ca02c;" x="169.307361" xlink:href="#me560ad09dd" y="158.371971"/>
     <use style="fill:#2ca02c;stroke:#2ca02c;" x="180.231896" xlink:href="#me560ad09dd" y="156.996441"/>
     <use style="fill:#2ca02c;stroke:#2ca02c;" x="191.156432" xlink:href="#me560ad09dd" y="155.965562"/>
     <use style="fill:#2ca02c;stroke:#2ca02c;" x="202.080968" xlink:href="#me560ad09dd" y="153.230717"/>
     <use style="fill:#2ca02c;stroke:#2ca02c;" x="213.005503" xlink:href="#me560ad09dd" y="152.967964"/>
     <use style="fill:#2ca02c;stroke:#2ca02c;" x="223.930039" xlink:href="#me560ad09dd" y="151.368169"/>
     <use style="fill:#2ca02c;stroke:#2ca02c;" x="234.854575" xlink:href="#me560ad09dd" y="150.596743"/>
     <use style="fill:#2ca02c;stroke:#2ca02c;" x="245.77911" xlink:href="#me560ad09dd" y="149.427016"/>
     <use style="fill:#2ca02c;stroke:#2ca02c;" x="256.703646" xlink:href="#me560ad09dd" y="149.159107"/>
     <use style="fill:#2ca02c;stroke:#2ca02c;" x="267.628182" xlink:href="#me560ad09dd" y="149.062522"/>
    </g>
   </g>
   <g id="line2d_15">
    <path clip-path="url(#p7bbd05f521)" d="M 64.431818 231.682415 
L 70.98654 224.10096 
L 81.911075 203.529648 
L 92.835611 192.831304 
L 103.760147 182.334219 
L 114.684682 174.801227 
L 125.609218 172.74486 
L 136.533754 169.264604 
L 147.458289 166.435704 
L 158.382825 162.814057 
L 169.307361 160.839483 
L 180.231896 159.646192 
L 191.156432 157.058761 
L 202.080968 156.028666 
L 213.005503 154.632627 
L 223.930039 153.31108 
L 234.854575 152.193519 
L 245.77911 152.351891 
L 256.703646 151.34701 
L 267.628182 150.787403 
" style="fill:none;stroke:#d62728;stroke-linecap:square;stroke-width:1.5;"/>
    <defs>
     <path d="M 0 3 
C 0.795609 3 1.55874 2.683901 2.12132 2.12132 
C 2.683901 1.55874 3 0.795609 3 0 
C 3 -0.795609 2.683901 -1.55874 2.12132 -2.12132 
C 1.55874 -2.683901 0.795609 -3 0 -3 
C -0.795609 -3 -1.55874 -2.683901 -2.12132 -2.12132 
C -2.683901 -1.55874 -3 -0.795609 -3 0 
C -3 0.795609 -2.683901 1.55874 -2.12132 2.12132 
C -1.55874 2.683901 -0.795609 3 0 3 
z
" id="mf52090c8e7" style="stroke:#d62728;"/>
    </defs>
    <g clip-path="url(#p7bbd05f521)">
     <use style="fill:#d62728;stroke:#d62728;" x="64.431818" xlink:href="#mf52090c8e7" y="231.682415"/>
     <use style="fill:#d62728;stroke:#d62728;" x="70.98654" xlink:href="#mf52090c8e7" y="224.10096"/>
     <use style="fill:#d62728;stroke:#d62728;" x="81.911075" xlink:href="#mf52090c8e7" y="203.529648"/>
     <use style="fill:#d62728;stroke:#d62728;" x="92.835611" xlink:href="#mf52090c8e7" y="192.831304"/>
     <use style="fill:#d62728;stroke:#d62728;" x="103.760147" xlink:href="#mf52090c8e7" y="182.334219"/>
     <use style="fill:#d62728;stroke:#d62728;" x="114.684682" xlink:href="#mf52090c8e7" y="174.801227"/>
     <use style="fill:#d62728;stroke:#d62728;" x="125.609218" xlink:href="#mf52090c8e7" y="172.74486"/>
     <use style="fill:#d62728;stroke:#d62728;" x="136.533754" xlink:href="#mf52090c8e7" y="169.264604"/>
     <use style="fill:#d62728;stroke:#d62728;" x="147.458289" xlink:href="#mf52090c8e7" y="166.435704"/>
     <use style="fill:#d62728;stroke:#d62728;" x="158.382825" xlink:href="#mf52090c8e7" y="162.814057"/>
     <use style="fill:#d62728;stroke:#d62728;" x="169.307361" xlink:href="#mf52090c8e7" y="160.839483"/>
     <use style="fill:#d62728;stroke:#d62728;" x="180.231896" xlink:href="#mf52090c8e7" y="159.646192"/>
     <use style="fill:#d62728;stroke:#d62728;" x="191.156432" xlink:href="#mf52090c8e7" y="157.058761"/>
     <use style="fill:#d62728;stroke:#d62728;" x="202.080968" xlink:href="#mf52090c8e7" y="156.028666"/>
     <use style="fill:#d62728;stroke:#d62728;" x="213.005503" xlink:href="#mf52090c8e7" y="154.632627"/>
     <use style="fill:#d62728;stroke:#d62728;" x="223.930039" xlink:href="#mf52090c8e7" y="153.31108"/>
     <use style="fill:#d62728;stroke:#d62728;" x="234.854575" xlink:href="#mf52090c8e7" y="152.193519"/>
     <use style="fill:#d62728;stroke:#d62728;" x="245.77911" xlink:href="#mf52090c8e7" y="152.351891"/>
     <use style="fill:#d62728;stroke:#d62728;" x="256.703646" xlink:href="#mf52090c8e7" y="151.34701"/>
     <use style="fill:#d62728;stroke:#d62728;" x="267.628182" xlink:href="#mf52090c8e7" y="150.787403"/>
    </g>
   </g>
   <g id="patch_3">
    <path d="M 54.272 244.6 
L 54.272 26.16 
" style="fill:none;stroke:#000000;stroke-linecap:square;stroke-linejoin:miter;stroke-width:0.8;"/>
   </g>
   <g id="patch_4">
    <path d="M 54.272 244.6 
L 277.788 244.6 
" style="fill:none;stroke:#000000;stroke-linecap:square;stroke-linejoin:miter;stroke-width:0.8;"/>
   </g>
   <g id="text_14">
    <!-- $k = 200$ -->
    <defs>
     <path d="M 18.3125 75.984375 
L 27.296875 75.984375 
L 18.703125 31.6875 
L 49.515625 54.6875 
L 61.1875 54.6875 
L 26.8125 28.515625 
L 51.90625 0 
L 41.015625 0 
L 17.671875 26.703125 
L 12.5 0 
L 3.515625 0 
z
" id="DejaVuSans-Oblique-107"/>
     <path d="M 10.59375 45.40625 
L 73.1875 45.40625 
L 73.1875 37.203125 
L 10.59375 37.203125 
z
M 10.59375 25.484375 
L 73.1875 25.484375 
L 73.1875 17.1875 
L 10.59375 17.1875 
z
" id="DejaVuSans-61"/>
    </defs>
    <g transform="translate(143.71 20.16)scale(0.12 -0.12)">
     <use transform="translate(0 0.015625)" xlink:href="#DejaVuSans-Oblique-107"/>
     <use transform="translate(77.392578 0.015625)" xlink:href="#DejaVuSans-61"/>
     <use transform="translate(180.664062 0.015625)" xlink:href="#DejaVuSans-50"/>
     <use transform="translate(244.287109 0.015625)" xlink:href="#DejaVuSans-48"/>
     <use transform="translate(307.910156 0.015625)" xlink:href="#DejaVuSans-48"/>
    </g>
   </g>
   <g id="legend_1">
    <g id="line2d_16">
     <path d="M 63.272 39.258437 
L 83.272 39.258437 
" style="fill:none;stroke:#1f77b4;stroke-linecap:square;stroke-width:1.5;"/>
    </g>
    <g id="line2d_17">
     <g>
      <use style="fill:#1f77b4;stroke:#1f77b4;" x="73.272" xlink:href="#m2c8d7e029d" y="39.258437"/>
     </g>
    </g>
    <g id="text_15">
     <!-- train -->
     <defs>
      <path d="M 18.3125 70.21875 
L 18.3125 54.6875 
L 36.8125 54.6875 
L 36.8125 47.703125 
L 18.3125 47.703125 
L 18.3125 18.015625 
Q 18.3125 11.328125 20.140625 9.421875 
Q 21.96875 7.515625 27.59375 7.515625 
L 36.8125 7.515625 
L 36.8125 0 
L 27.59375 0 
Q 17.1875 0 13.234375 3.875 
Q 9.28125 7.765625 9.28125 18.015625 
L 9.28125 47.703125 
L 2.6875 47.703125 
L 2.6875 54.6875 
L 9.28125 54.6875 
L 9.28125 70.21875 
z
" id="DejaVuSans-116"/>
      <path d="M 34.28125 27.484375 
Q 23.390625 27.484375 19.1875 25 
Q 14.984375 22.515625 14.984375 16.5 
Q 14.984375 11.71875 18.140625 8.90625 
Q 21.296875 6.109375 26.703125 6.109375 
Q 34.1875 6.109375 38.703125 11.40625 
Q 43.21875 16.703125 43.21875 25.484375 
L 43.21875 27.484375 
z
M 52.203125 31.203125 
L 52.203125 0 
L 43.21875 0 
L 43.21875 8.296875 
Q 40.140625 3.328125 35.546875 0.953125 
Q 30.953125 -1.421875 24.3125 -1.421875 
Q 15.921875 -1.421875 10.953125 3.296875 
Q 6 8.015625 6 15.921875 
Q 6 25.140625 12.171875 29.828125 
Q 18.359375 34.515625 30.609375 34.515625 
L 43.21875 34.515625 
L 43.21875 35.40625 
Q 43.21875 41.609375 39.140625 45 
Q 35.0625 48.390625 27.6875 48.390625 
Q 23 48.390625 18.546875 47.265625 
Q 14.109375 46.140625 10.015625 43.890625 
L 10.015625 52.203125 
Q 14.9375 54.109375 19.578125 55.046875 
Q 24.21875 56 28.609375 56 
Q 40.484375 56 46.34375 49.84375 
Q 52.203125 43.703125 52.203125 31.203125 
z
" id="DejaVuSans-97"/>
      <path d="M 9.421875 54.6875 
L 18.40625 54.6875 
L 18.40625 0 
L 9.421875 0 
z
M 9.421875 75.984375 
L 18.40625 75.984375 
L 18.40625 64.59375 
L 9.421875 64.59375 
z
" id="DejaVuSans-105"/>
     </defs>
     <g transform="translate(91.272 42.758437)scale(0.1 -0.1)">
      <use xlink:href="#DejaVuSans-116"/>
      <use x="39.208984" xlink:href="#DejaVuSans-114"/>
      <use x="80.322266" xlink:href="#DejaVuSans-97"/>
      <use x="141.601562" xlink:href="#DejaVuSans-105"/>
      <use x="169.384766" xlink:href="#DejaVuSans-110"/>
     </g>
    </g>
    <g id="line2d_18">
     <path d="M 63.272 53.936562 
L 83.272 53.936562 
" style="fill:none;stroke:#ff7f0e;stroke-linecap:square;stroke-width:1.5;"/>
    </g>
    <g id="line2d_19">
     <g>
      <use style="fill:#ff7f0e;stroke:#ff7f0e;" x="73.272" xlink:href="#m945053bac8" y="53.936562"/>
     </g>
    </g>
    <g id="text_16">
     <!-- test -->
     <g transform="translate(91.272 57.436562)scale(0.1 -0.1)">
      <use xlink:href="#DejaVuSans-116"/>
      <use x="39.208984" xlink:href="#DejaVuSans-101"/>
      <use x="100.732422" xlink:href="#DejaVuSans-115"/>
      <use x="152.832031" xlink:href="#DejaVuSans-116"/>
     </g>
    </g>
    <g id="line2d_20">
     <path d="M 63.272 68.614687 
L 83.272 68.614687 
" style="fill:none;stroke:#2ca02c;stroke-linecap:square;stroke-width:1.5;"/>
    </g>
    <g id="line2d_21">
     <g>
      <use style="fill:#2ca02c;stroke:#2ca02c;" x="73.272" xlink:href="#me560ad09dd" y="68.614687"/>
     </g>
    </g>
    <g id="text_17">
     <!-- train, TDR -->
     <defs>
      <path d="M -0.296875 72.90625 
L 61.375 72.90625 
L 61.375 64.59375 
L 35.5 64.59375 
L 35.5 0 
L 25.59375 0 
L 25.59375 64.59375 
L -0.296875 64.59375 
z
" id="DejaVuSans-84"/>
      <path d="M 19.671875 64.796875 
L 19.671875 8.109375 
L 31.59375 8.109375 
Q 46.6875 8.109375 53.6875 14.9375 
Q 60.6875 21.78125 60.6875 36.53125 
Q 60.6875 51.171875 53.6875 57.984375 
Q 46.6875 64.796875 31.59375 64.796875 
z
M 9.8125 72.90625 
L 30.078125 72.90625 
Q 51.265625 72.90625 61.171875 64.09375 
Q 71.09375 55.28125 71.09375 36.53125 
Q 71.09375 17.671875 61.125 8.828125 
Q 51.171875 0 30.078125 0 
L 9.8125 0 
z
" id="DejaVuSans-68"/>
      <path d="M 44.390625 34.1875 
Q 47.5625 33.109375 50.5625 29.59375 
Q 53.5625 26.078125 56.59375 19.921875 
L 66.609375 0 
L 56 0 
L 46.6875 18.703125 
Q 43.0625 26.03125 39.671875 28.421875 
Q 36.28125 30.8125 30.421875 30.8125 
L 19.671875 30.8125 
L 19.671875 0 
L 9.8125 0 
L 9.8125 72.90625 
L 32.078125 72.90625 
Q 44.578125 72.90625 50.734375 67.671875 
Q 56.890625 62.453125 56.890625 51.90625 
Q 56.890625 45.015625 53.6875 40.46875 
Q 50.484375 35.9375 44.390625 34.1875 
z
M 19.671875 64.796875 
L 19.671875 38.921875 
L 32.078125 38.921875 
Q 39.203125 38.921875 42.84375 42.21875 
Q 46.484375 45.515625 46.484375 51.90625 
Q 46.484375 58.296875 42.84375 61.546875 
Q 39.203125 64.796875 32.078125 64.796875 
z
" id="DejaVuSans-82"/>
     </defs>
     <g transform="translate(91.272 72.114687)scale(0.1 -0.1)">
      <use xlink:href="#DejaVuSans-116"/>
      <use x="39.208984" xlink:href="#DejaVuSans-114"/>
      <use x="80.322266" xlink:href="#DejaVuSans-97"/>
      <use x="141.601562" xlink:href="#DejaVuSans-105"/>
      <use x="169.384766" xlink:href="#DejaVuSans-110"/>
      <use x="232.763672" xlink:href="#DejaVuSans-44"/>
      <use x="264.550781" xlink:href="#DejaVuSans-32"/>
      <use x="296.337891" xlink:href="#DejaVuSans-84"/>
      <use x="357.421875" xlink:href="#DejaVuSans-68"/>
      <use x="434.423828" xlink:href="#DejaVuSans-82"/>
     </g>
    </g>
    <g id="line2d_22">
     <path d="M 63.272 83.292812 
L 83.272 83.292812 
" style="fill:none;stroke:#d62728;stroke-linecap:square;stroke-width:1.5;"/>
    </g>
    <g id="line2d_23">
     <g>
      <use style="fill:#d62728;stroke:#d62728;" x="73.272" xlink:href="#mf52090c8e7" y="83.292812"/>
     </g>
    </g>
    <g id="text_18">
     <!-- test, TDR -->
     <g transform="translate(91.272 86.792812)scale(0.1 -0.1)">
      <use xlink:href="#DejaVuSans-116"/>
      <use x="39.208984" xlink:href="#DejaVuSans-101"/>
      <use x="100.732422" xlink:href="#DejaVuSans-115"/>
      <use x="152.832031" xlink:href="#DejaVuSans-116"/>
      <use x="192.041016" xlink:href="#DejaVuSans-44"/>
      <use x="223.828125" xlink:href="#DejaVuSans-32"/>
      <use x="255.615234" xlink:href="#DejaVuSans-84"/>
      <use x="316.699219" xlink:href="#DejaVuSans-68"/>
      <use x="393.701172" xlink:href="#DejaVuSans-82"/>
     </g>
    </g>
   </g>
  </g>
  <g id="axes_2">
   <g id="patch_5">
    <path d="M 340.718 244.6 
L 564.234 244.6 
L 564.234 26.16 
L 340.718 26.16 
z
" style="fill:#ffffff;"/>
   </g>
   <g id="matplotlib.axis_3">
    <g id="xtick_6">
     <g id="line2d_24">
      <g>
       <use style="stroke:#000000;stroke-width:0.8;" x="350.877818" xlink:href="#me1aff74447" y="244.6"/>
      </g>
     </g>
     <g id="text_19">
      <!-- 0 -->
      <g transform="translate(347.696568 259.198438)scale(0.1 -0.1)">
       <use xlink:href="#DejaVuSans-48"/>
      </g>
     </g>
    </g>
    <g id="xtick_7">
     <g id="line2d_25">
      <g>
       <use style="stroke:#000000;stroke-width:0.8;" x="391.927589" xlink:href="#me1aff74447" y="244.6"/>
      </g>
     </g>
     <g id="text_20">
      <!-- 20 -->
      <g transform="translate(385.565089 259.198438)scale(0.1 -0.1)">
       <use xlink:href="#DejaVuSans-50"/>
       <use x="63.623047" xlink:href="#DejaVuSans-48"/>
      </g>
     </g>
    </g>
    <g id="xtick_8">
     <g id="line2d_26">
      <g>
       <use style="stroke:#000000;stroke-width:0.8;" x="432.977359" xlink:href="#me1aff74447" y="244.6"/>
      </g>
     </g>
     <g id="text_21">
      <!-- 40 -->
      <g transform="translate(426.614859 259.198438)scale(0.1 -0.1)">
       <use xlink:href="#DejaVuSans-52"/>
       <use x="63.623047" xlink:href="#DejaVuSans-48"/>
      </g>
     </g>
    </g>
    <g id="xtick_9">
     <g id="line2d_27">
      <g>
       <use style="stroke:#000000;stroke-width:0.8;" x="474.027129" xlink:href="#me1aff74447" y="244.6"/>
      </g>
     </g>
     <g id="text_22">
      <!-- 60 -->
      <g transform="translate(467.664629 259.198438)scale(0.1 -0.1)">
       <use xlink:href="#DejaVuSans-54"/>
       <use x="63.623047" xlink:href="#DejaVuSans-48"/>
      </g>
     </g>
    </g>
    <g id="xtick_10">
     <g id="line2d_28">
      <g>
       <use style="stroke:#000000;stroke-width:0.8;" x="515.0769" xlink:href="#me1aff74447" y="244.6"/>
      </g>
     </g>
     <g id="text_23">
      <!-- 80 -->
      <g transform="translate(508.7144 259.198438)scale(0.1 -0.1)">
       <use xlink:href="#DejaVuSans-56"/>
       <use x="63.623047" xlink:href="#DejaVuSans-48"/>
      </g>
     </g>
    </g>
    <g id="xtick_11">
     <g id="line2d_29">
      <g>
       <use style="stroke:#000000;stroke-width:0.8;" x="556.12667" xlink:href="#me1aff74447" y="244.6"/>
      </g>
     </g>
     <g id="text_24">
      <!-- 100 -->
      <g transform="translate(546.58292 259.198438)scale(0.1 -0.1)">
       <use xlink:href="#DejaVuSans-49"/>
       <use x="63.623047" xlink:href="#DejaVuSans-48"/>
       <use x="127.246094" xlink:href="#DejaVuSans-48"/>
      </g>
     </g>
    </g>
    <g id="text_25">
     <!-- $\alpha$ -->
     <defs>
      <path d="M 40.921875 25.4375 
L 40.96875 36.71875 
Q 41.015625 48.25 32.328125 48.296875 
Q 25.828125 48.34375 21.78125 42.921875 
Q 16.703125 36.234375 14.984375 27.296875 
Q 12.890625 16.546875 15.53125 11.421875 
Q 18.265625 6.203125 24.171875 6.203125 
Q 30.71875 6.203125 36.234375 16.609375 
z
M 33.84375 55.90625 
Q 49.078125 56.15625 48.875 40.375 
Q 48.875 40.375 56.5 54.6875 
L 64.5 54.6875 
L 48.734375 25.046875 
L 48.578125 14.359375 
Q 48.578125 11.96875 49.90625 9.96875 
Q 51.421875 7.625 52.984375 7.625 
L 57.328125 7.625 
L 55.859375 0 
L 50.4375 0 
Q 45.84375 0 42.53125 4.109375 
Q 40.96875 6.15625 40.921875 10.453125 
Q 37.75 5.21875 32.28125 0.78125 
Q 29.6875 -1.265625 22.703125 -1.21875 
Q 11.28125 -1.125 7.125 6.203125 
Q 2.875 13.8125 5.515625 27.296875 
Q 8.34375 41.796875 15.765625 48.390625 
Q 24.125 55.765625 33.84375 55.90625 
z
" id="DejaVuSans-Oblique-945"/>
     </defs>
     <g transform="translate(449.176 272.876562)scale(0.1 -0.1)">
      <use transform="translate(0 0.84375)" xlink:href="#DejaVuSans-Oblique-945"/>
     </g>
    </g>
   </g>
   <g id="matplotlib.axis_4">
    <g id="ytick_7">
     <g id="line2d_30">
      <g>
       <use style="stroke:#000000;stroke-width:0.8;" x="340.718" xlink:href="#m739bdeae52" y="234.859315"/>
      </g>
     </g>
     <g id="text_26">
      <!-- 0.000 -->
      <defs>
       <path d="M 10.6875 12.40625 
L 21 12.40625 
L 21 0 
L 10.6875 0 
z
" id="DejaVuSans-46"/>
      </defs>
      <g transform="translate(305.089875 238.658534)scale(0.1 -0.1)">
       <use xlink:href="#DejaVuSans-48"/>
       <use x="63.623047" xlink:href="#DejaVuSans-46"/>
       <use x="95.410156" xlink:href="#DejaVuSans-48"/>
       <use x="159.033203" xlink:href="#DejaVuSans-48"/>
       <use x="222.65625" xlink:href="#DejaVuSans-48"/>
      </g>
     </g>
    </g>
    <g id="ytick_8">
     <g id="line2d_31">
      <g>
       <use style="stroke:#000000;stroke-width:0.8;" x="340.718" xlink:href="#m739bdeae52" y="205.348533"/>
      </g>
     </g>
     <g id="text_27">
      <!-- 0.025 -->
      <g transform="translate(305.089875 209.147752)scale(0.1 -0.1)">
       <use xlink:href="#DejaVuSans-48"/>
       <use x="63.623047" xlink:href="#DejaVuSans-46"/>
       <use x="95.410156" xlink:href="#DejaVuSans-48"/>
       <use x="159.033203" xlink:href="#DejaVuSans-50"/>
       <use x="222.65625" xlink:href="#DejaVuSans-53"/>
      </g>
     </g>
    </g>
    <g id="ytick_9">
     <g id="line2d_32">
      <g>
       <use style="stroke:#000000;stroke-width:0.8;" x="340.718" xlink:href="#m739bdeae52" y="175.837752"/>
      </g>
     </g>
     <g id="text_28">
      <!-- 0.050 -->
      <g transform="translate(305.089875 179.63697)scale(0.1 -0.1)">
       <use xlink:href="#DejaVuSans-48"/>
       <use x="63.623047" xlink:href="#DejaVuSans-46"/>
       <use x="95.410156" xlink:href="#DejaVuSans-48"/>
       <use x="159.033203" xlink:href="#DejaVuSans-53"/>
       <use x="222.65625" xlink:href="#DejaVuSans-48"/>
      </g>
     </g>
    </g>
    <g id="ytick_10">
     <g id="line2d_33">
      <g>
       <use style="stroke:#000000;stroke-width:0.8;" x="340.718" xlink:href="#m739bdeae52" y="146.32697"/>
      </g>
     </g>
     <g id="text_29">
      <!-- 0.075 -->
      <defs>
       <path d="M 8.203125 72.90625 
L 55.078125 72.90625 
L 55.078125 68.703125 
L 28.609375 0 
L 18.3125 0 
L 43.21875 64.59375 
L 8.203125 64.59375 
z
" id="DejaVuSans-55"/>
      </defs>
      <g transform="translate(305.089875 150.126188)scale(0.1 -0.1)">
       <use xlink:href="#DejaVuSans-48"/>
       <use x="63.623047" xlink:href="#DejaVuSans-46"/>
       <use x="95.410156" xlink:href="#DejaVuSans-48"/>
       <use x="159.033203" xlink:href="#DejaVuSans-55"/>
       <use x="222.65625" xlink:href="#DejaVuSans-53"/>
      </g>
     </g>
    </g>
    <g id="ytick_11">
     <g id="line2d_34">
      <g>
       <use style="stroke:#000000;stroke-width:0.8;" x="340.718" xlink:href="#m739bdeae52" y="116.816188"/>
      </g>
     </g>
     <g id="text_30">
      <!-- 0.100 -->
      <g transform="translate(305.089875 120.615406)scale(0.1 -0.1)">
       <use xlink:href="#DejaVuSans-48"/>
       <use x="63.623047" xlink:href="#DejaVuSans-46"/>
       <use x="95.410156" xlink:href="#DejaVuSans-49"/>
       <use x="159.033203" xlink:href="#DejaVuSans-48"/>
       <use x="222.65625" xlink:href="#DejaVuSans-48"/>
      </g>
     </g>
    </g>
    <g id="ytick_12">
     <g id="line2d_35">
      <g>
       <use style="stroke:#000000;stroke-width:0.8;" x="340.718" xlink:href="#m739bdeae52" y="87.305406"/>
      </g>
     </g>
     <g id="text_31">
      <!-- 0.125 -->
      <g transform="translate(305.089875 91.104624)scale(0.1 -0.1)">
       <use xlink:href="#DejaVuSans-48"/>
       <use x="63.623047" xlink:href="#DejaVuSans-46"/>
       <use x="95.410156" xlink:href="#DejaVuSans-49"/>
       <use x="159.033203" xlink:href="#DejaVuSans-50"/>
       <use x="222.65625" xlink:href="#DejaVuSans-53"/>
      </g>
     </g>
    </g>
    <g id="ytick_13">
     <g id="line2d_36">
      <g>
       <use style="stroke:#000000;stroke-width:0.8;" x="340.718" xlink:href="#m739bdeae52" y="57.794624"/>
      </g>
     </g>
     <g id="text_32">
      <!-- 0.150 -->
      <g transform="translate(305.089875 61.593843)scale(0.1 -0.1)">
       <use xlink:href="#DejaVuSans-48"/>
       <use x="63.623047" xlink:href="#DejaVuSans-46"/>
       <use x="95.410156" xlink:href="#DejaVuSans-49"/>
       <use x="159.033203" xlink:href="#DejaVuSans-53"/>
       <use x="222.65625" xlink:href="#DejaVuSans-48"/>
      </g>
     </g>
    </g>
    <g id="ytick_14">
     <g id="line2d_37">
      <g>
       <use style="stroke:#000000;stroke-width:0.8;" x="340.718" xlink:href="#m739bdeae52" y="28.283842"/>
      </g>
     </g>
     <g id="text_33">
      <!-- 0.175 -->
      <g transform="translate(305.089875 32.083061)scale(0.1 -0.1)">
       <use xlink:href="#DejaVuSans-48"/>
       <use x="63.623047" xlink:href="#DejaVuSans-46"/>
       <use x="95.410156" xlink:href="#DejaVuSans-49"/>
       <use x="159.033203" xlink:href="#DejaVuSans-55"/>
       <use x="222.65625" xlink:href="#DejaVuSans-53"/>
      </g>
     </g>
    </g>
    <g id="text_34">
     <!-- Fraction Variance Explained -->
     <defs>
      <path d="M 9.8125 72.90625 
L 51.703125 72.90625 
L 51.703125 64.59375 
L 19.671875 64.59375 
L 19.671875 43.109375 
L 48.578125 43.109375 
L 48.578125 34.8125 
L 19.671875 34.8125 
L 19.671875 0 
L 9.8125 0 
z
" id="DejaVuSans-70"/>
      <path d="M 48.78125 52.59375 
L 48.78125 44.1875 
Q 44.96875 46.296875 41.140625 47.34375 
Q 37.3125 48.390625 33.40625 48.390625 
Q 24.65625 48.390625 19.8125 42.84375 
Q 14.984375 37.3125 14.984375 27.296875 
Q 14.984375 17.28125 19.8125 11.734375 
Q 24.65625 6.203125 33.40625 6.203125 
Q 37.3125 6.203125 41.140625 7.25 
Q 44.96875 8.296875 48.78125 10.40625 
L 48.78125 2.09375 
Q 45.015625 0.34375 40.984375 -0.53125 
Q 36.96875 -1.421875 32.421875 -1.421875 
Q 20.0625 -1.421875 12.78125 6.34375 
Q 5.515625 14.109375 5.515625 27.296875 
Q 5.515625 40.671875 12.859375 48.328125 
Q 20.21875 56 33.015625 56 
Q 37.15625 56 41.109375 55.140625 
Q 45.0625 54.296875 48.78125 52.59375 
z
" id="DejaVuSans-99"/>
      <path d="M 28.609375 0 
L 0.78125 72.90625 
L 11.078125 72.90625 
L 34.1875 11.53125 
L 57.328125 72.90625 
L 67.578125 72.90625 
L 39.796875 0 
z
" id="DejaVuSans-86"/>
      <path d="M 9.8125 72.90625 
L 55.90625 72.90625 
L 55.90625 64.59375 
L 19.671875 64.59375 
L 19.671875 43.015625 
L 54.390625 43.015625 
L 54.390625 34.71875 
L 19.671875 34.71875 
L 19.671875 8.296875 
L 56.78125 8.296875 
L 56.78125 0 
L 9.8125 0 
z
" id="DejaVuSans-69"/>
      <path d="M 54.890625 54.6875 
L 35.109375 28.078125 
L 55.90625 0 
L 45.3125 0 
L 29.390625 21.484375 
L 13.484375 0 
L 2.875 0 
L 24.125 28.609375 
L 4.6875 54.6875 
L 15.28125 54.6875 
L 29.78125 35.203125 
L 44.28125 54.6875 
z
" id="DejaVuSans-120"/>
      <path d="M 18.109375 8.203125 
L 18.109375 -20.796875 
L 9.078125 -20.796875 
L 9.078125 54.6875 
L 18.109375 54.6875 
L 18.109375 46.390625 
Q 20.953125 51.265625 25.265625 53.625 
Q 29.59375 56 35.59375 56 
Q 45.5625 56 51.78125 48.09375 
Q 58.015625 40.1875 58.015625 27.296875 
Q 58.015625 14.40625 51.78125 6.484375 
Q 45.5625 -1.421875 35.59375 -1.421875 
Q 29.59375 -1.421875 25.265625 0.953125 
Q 20.953125 3.328125 18.109375 8.203125 
z
M 48.6875 27.296875 
Q 48.6875 37.203125 44.609375 42.84375 
Q 40.53125 48.484375 33.40625 48.484375 
Q 26.265625 48.484375 22.1875 42.84375 
Q 18.109375 37.203125 18.109375 27.296875 
Q 18.109375 17.390625 22.1875 11.75 
Q 26.265625 6.109375 33.40625 6.109375 
Q 40.53125 6.109375 44.609375 11.75 
Q 48.6875 17.390625 48.6875 27.296875 
z
" id="DejaVuSans-112"/>
      <path d="M 9.421875 75.984375 
L 18.40625 75.984375 
L 18.40625 0 
L 9.421875 0 
z
" id="DejaVuSans-108"/>
      <path d="M 45.40625 46.390625 
L 45.40625 75.984375 
L 54.390625 75.984375 
L 54.390625 0 
L 45.40625 0 
L 45.40625 8.203125 
Q 42.578125 3.328125 38.25 0.953125 
Q 33.9375 -1.421875 27.875 -1.421875 
Q 17.96875 -1.421875 11.734375 6.484375 
Q 5.515625 14.40625 5.515625 27.296875 
Q 5.515625 40.1875 11.734375 48.09375 
Q 17.96875 56 27.875 56 
Q 33.9375 56 38.25 53.625 
Q 42.578125 51.265625 45.40625 46.390625 
z
M 14.796875 27.296875 
Q 14.796875 17.390625 18.875 11.75 
Q 22.953125 6.109375 30.078125 6.109375 
Q 37.203125 6.109375 41.296875 11.75 
Q 45.40625 17.390625 45.40625 27.296875 
Q 45.40625 37.203125 41.296875 42.84375 
Q 37.203125 48.484375 30.078125 48.484375 
Q 22.953125 48.484375 18.875 42.84375 
Q 14.796875 37.203125 14.796875 27.296875 
z
" id="DejaVuSans-100"/>
     </defs>
     <g transform="translate(299.010187 205.41125)rotate(-90)scale(0.1 -0.1)">
      <use xlink:href="#DejaVuSans-70"/>
      <use x="57.410156" xlink:href="#DejaVuSans-114"/>
      <use x="98.523438" xlink:href="#DejaVuSans-97"/>
      <use x="159.802734" xlink:href="#DejaVuSans-99"/>
      <use x="214.783203" xlink:href="#DejaVuSans-116"/>
      <use x="253.992188" xlink:href="#DejaVuSans-105"/>
      <use x="281.775391" xlink:href="#DejaVuSans-111"/>
      <use x="342.957031" xlink:href="#DejaVuSans-110"/>
      <use x="406.335938" xlink:href="#DejaVuSans-32"/>
      <use x="438.123047" xlink:href="#DejaVuSans-86"/>
      <use x="506.421875" xlink:href="#DejaVuSans-97"/>
      <use x="567.701172" xlink:href="#DejaVuSans-114"/>
      <use x="608.814453" xlink:href="#DejaVuSans-105"/>
      <use x="636.597656" xlink:href="#DejaVuSans-97"/>
      <use x="697.876953" xlink:href="#DejaVuSans-110"/>
      <use x="761.255859" xlink:href="#DejaVuSans-99"/>
      <use x="816.236328" xlink:href="#DejaVuSans-101"/>
      <use x="877.759766" xlink:href="#DejaVuSans-32"/>
      <use x="909.546875" xlink:href="#DejaVuSans-69"/>
      <use x="972.730469" xlink:href="#DejaVuSans-120"/>
      <use x="1031.910156" xlink:href="#DejaVuSans-112"/>
      <use x="1095.386719" xlink:href="#DejaVuSans-108"/>
      <use x="1123.169922" xlink:href="#DejaVuSans-97"/>
      <use x="1184.449219" xlink:href="#DejaVuSans-105"/>
      <use x="1212.232422" xlink:href="#DejaVuSans-110"/>
      <use x="1275.611328" xlink:href="#DejaVuSans-101"/>
      <use x="1337.134766" xlink:href="#DejaVuSans-100"/>
     </g>
    </g>
   </g>
   <g id="line2d_38">
    <path clip-path="url(#pdfaf2b75b7)" d="M 350.877818 36.089091 
L 352.930307 170.133467 
L 354.982795 189.626821 
L 357.035284 193.440293 
L 359.087772 195.427027 
L 361.140261 196.082386 
L 363.192749 198.667079 
L 365.245238 200.333174 
L 367.297726 202.966852 
L 369.350215 205.309375 
L 371.402703 206.745136 
L 373.455192 208.53465 
L 375.50768 210.250629 
L 377.560169 211.253156 
L 379.612657 211.363359 
L 381.665146 214.045906 
L 383.717635 214.451359 
L 385.770123 215.989435 
L 387.822612 216.190878 
L 389.8751 217.472963 
L 391.927589 217.805957 
L 393.980077 218.278345 
L 396.032566 219.090006 
L 398.085054 219.519029 
L 400.137543 220.434977 
L 402.190031 220.928984 
L 404.24252 221.339526 
L 406.295008 221.880254 
L 408.347497 222.68036 
L 410.399985 223.017163 
L 412.452474 223.514746 
L 414.504962 223.95419 
L 416.557451 224.367677 
L 418.609939 224.789351 
L 420.662428 225.156725 
L 422.714916 225.358574 
L 424.767405 225.796328 
L 426.819893 226.140948 
L 428.872382 226.801203 
L 430.924871 227.021744 
L 432.977359 227.778587 
L 435.029848 227.938183 
L 437.082336 227.984928 
L 439.134825 228.280125 
L 441.187313 228.442525 
L 443.239802 228.466365 
L 445.29229 228.939952 
L 447.344779 229.171857 
L 449.397267 229.492364 
L 451.449756 229.645683 
L 453.502244 229.847313 
L 455.554733 230.147012 
L 457.607221 230.469056 
L 459.65971 230.654915 
L 461.712198 230.811736 
L 463.764687 230.877263 
L 465.817175 231.005545 
L 467.869664 231.178623 
L 469.922152 231.473287 
L 471.974641 231.547865 
L 474.027129 231.687583 
L 476.079618 231.81176 
L 478.132107 231.949687 
L 480.184595 232.039836 
L 482.237084 232.31177 
L 484.289572 232.336011 
L 486.342061 232.481077 
L 488.394549 232.552323 
L 490.447038 232.607173 
L 492.499526 232.803218 
L 494.552015 232.873365 
L 496.604503 233.047646 
L 498.656992 233.087515 
L 500.70948 233.203947 
L 502.761969 233.238082 
L 504.814457 233.375662 
L 506.866946 233.41897 
L 508.919434 233.438881 
L 510.971923 233.528406 
L 513.024411 233.627598 
L 515.0769 233.648688 
L 517.129388 233.810915 
L 519.181877 233.831305 
L 521.234365 233.906888 
L 523.286854 233.932866 
L 525.339343 233.997027 
L 527.391831 234.026398 
L 529.44432 234.091603 
L 531.496808 234.11581 
L 533.549297 234.152512 
L 535.601785 234.23678 
L 537.654274 234.260827 
L 539.706762 234.32325 
L 541.759251 234.356332 
L 543.811739 234.373581 
L 545.864228 234.398846 
L 547.916716 234.48734 
L 549.969205 234.501832 
L 552.021693 234.553733 
L 554.074182 234.670909 
" style="fill:none;stroke:#000000;stroke-linecap:square;stroke-width:1.5;"/>
    <defs>
     <path d="M 0 3 
C 0.795609 3 1.55874 2.683901 2.12132 2.12132 
C 2.683901 1.55874 3 0.795609 3 0 
C 3 -0.795609 2.683901 -1.55874 2.12132 -2.12132 
C 1.55874 -2.683901 0.795609 -3 0 -3 
C -0.795609 -3 -1.55874 -2.683901 -2.12132 -2.12132 
C -2.683901 -1.55874 -3 -0.795609 -3 0 
C -3 0.795609 -2.683901 1.55874 -2.12132 2.12132 
C -1.55874 2.683901 -0.795609 3 0 3 
z
" id="m970f3b106a" style="stroke:#000000;"/>
    </defs>
    <g clip-path="url(#pdfaf2b75b7)">
     <use style="stroke:#000000;" x="350.877818" xlink:href="#m970f3b106a" y="36.089091"/>
     <use style="stroke:#000000;" x="352.930307" xlink:href="#m970f3b106a" y="170.133467"/>
     <use style="stroke:#000000;" x="354.982795" xlink:href="#m970f3b106a" y="189.626821"/>
     <use style="stroke:#000000;" x="357.035284" xlink:href="#m970f3b106a" y="193.440293"/>
     <use style="stroke:#000000;" x="359.087772" xlink:href="#m970f3b106a" y="195.427027"/>
     <use style="stroke:#000000;" x="361.140261" xlink:href="#m970f3b106a" y="196.082386"/>
     <use style="stroke:#000000;" x="363.192749" xlink:href="#m970f3b106a" y="198.667079"/>
     <use style="stroke:#000000;" x="365.245238" xlink:href="#m970f3b106a" y="200.333174"/>
     <use style="stroke:#000000;" x="367.297726" xlink:href="#m970f3b106a" y="202.966852"/>
     <use style="stroke:#000000;" x="369.350215" xlink:href="#m970f3b106a" y="205.309375"/>
     <use style="stroke:#000000;" x="371.402703" xlink:href="#m970f3b106a" y="206.745136"/>
     <use style="stroke:#000000;" x="373.455192" xlink:href="#m970f3b106a" y="208.53465"/>
     <use style="stroke:#000000;" x="375.50768" xlink:href="#m970f3b106a" y="210.250629"/>
     <use style="stroke:#000000;" x="377.560169" xlink:href="#m970f3b106a" y="211.253156"/>
     <use style="stroke:#000000;" x="379.612657" xlink:href="#m970f3b106a" y="211.363359"/>
     <use style="stroke:#000000;" x="381.665146" xlink:href="#m970f3b106a" y="214.045906"/>
     <use style="stroke:#000000;" x="383.717635" xlink:href="#m970f3b106a" y="214.451359"/>
     <use style="stroke:#000000;" x="385.770123" xlink:href="#m970f3b106a" y="215.989435"/>
     <use style="stroke:#000000;" x="387.822612" xlink:href="#m970f3b106a" y="216.190878"/>
     <use style="stroke:#000000;" x="389.8751" xlink:href="#m970f3b106a" y="217.472963"/>
     <use style="stroke:#000000;" x="391.927589" xlink:href="#m970f3b106a" y="217.805957"/>
     <use style="stroke:#000000;" x="393.980077" xlink:href="#m970f3b106a" y="218.278345"/>
     <use style="stroke:#000000;" x="396.032566" xlink:href="#m970f3b106a" y="219.090006"/>
     <use style="stroke:#000000;" x="398.085054" xlink:href="#m970f3b106a" y="219.519029"/>
     <use style="stroke:#000000;" x="400.137543" xlink:href="#m970f3b106a" y="220.434977"/>
     <use style="stroke:#000000;" x="402.190031" xlink:href="#m970f3b106a" y="220.928984"/>
     <use style="stroke:#000000;" x="404.24252" xlink:href="#m970f3b106a" y="221.339526"/>
     <use style="stroke:#000000;" x="406.295008" xlink:href="#m970f3b106a" y="221.880254"/>
     <use style="stroke:#000000;" x="408.347497" xlink:href="#m970f3b106a" y="222.68036"/>
     <use style="stroke:#000000;" x="410.399985" xlink:href="#m970f3b106a" y="223.017163"/>
     <use style="stroke:#000000;" x="412.452474" xlink:href="#m970f3b106a" y="223.514746"/>
     <use style="stroke:#000000;" x="414.504962" xlink:href="#m970f3b106a" y="223.95419"/>
     <use style="stroke:#000000;" x="416.557451" xlink:href="#m970f3b106a" y="224.367677"/>
     <use style="stroke:#000000;" x="418.609939" xlink:href="#m970f3b106a" y="224.789351"/>
     <use style="stroke:#000000;" x="420.662428" xlink:href="#m970f3b106a" y="225.156725"/>
     <use style="stroke:#000000;" x="422.714916" xlink:href="#m970f3b106a" y="225.358574"/>
     <use style="stroke:#000000;" x="424.767405" xlink:href="#m970f3b106a" y="225.796328"/>
     <use style="stroke:#000000;" x="426.819893" xlink:href="#m970f3b106a" y="226.140948"/>
     <use style="stroke:#000000;" x="428.872382" xlink:href="#m970f3b106a" y="226.801203"/>
     <use style="stroke:#000000;" x="430.924871" xlink:href="#m970f3b106a" y="227.021744"/>
     <use style="stroke:#000000;" x="432.977359" xlink:href="#m970f3b106a" y="227.778587"/>
     <use style="stroke:#000000;" x="435.029848" xlink:href="#m970f3b106a" y="227.938183"/>
     <use style="stroke:#000000;" x="437.082336" xlink:href="#m970f3b106a" y="227.984928"/>
     <use style="stroke:#000000;" x="439.134825" xlink:href="#m970f3b106a" y="228.280125"/>
     <use style="stroke:#000000;" x="441.187313" xlink:href="#m970f3b106a" y="228.442525"/>
     <use style="stroke:#000000;" x="443.239802" xlink:href="#m970f3b106a" y="228.466365"/>
     <use style="stroke:#000000;" x="445.29229" xlink:href="#m970f3b106a" y="228.939952"/>
     <use style="stroke:#000000;" x="447.344779" xlink:href="#m970f3b106a" y="229.171857"/>
     <use style="stroke:#000000;" x="449.397267" xlink:href="#m970f3b106a" y="229.492364"/>
     <use style="stroke:#000000;" x="451.449756" xlink:href="#m970f3b106a" y="229.645683"/>
     <use style="stroke:#000000;" x="453.502244" xlink:href="#m970f3b106a" y="229.847313"/>
     <use style="stroke:#000000;" x="455.554733" xlink:href="#m970f3b106a" y="230.147012"/>
     <use style="stroke:#000000;" x="457.607221" xlink:href="#m970f3b106a" y="230.469056"/>
     <use style="stroke:#000000;" x="459.65971" xlink:href="#m970f3b106a" y="230.654915"/>
     <use style="stroke:#000000;" x="461.712198" xlink:href="#m970f3b106a" y="230.811736"/>
     <use style="stroke:#000000;" x="463.764687" xlink:href="#m970f3b106a" y="230.877263"/>
     <use style="stroke:#000000;" x="465.817175" xlink:href="#m970f3b106a" y="231.005545"/>
     <use style="stroke:#000000;" x="467.869664" xlink:href="#m970f3b106a" y="231.178623"/>
     <use style="stroke:#000000;" x="469.922152" xlink:href="#m970f3b106a" y="231.473287"/>
     <use style="stroke:#000000;" x="471.974641" xlink:href="#m970f3b106a" y="231.547865"/>
     <use style="stroke:#000000;" x="474.027129" xlink:href="#m970f3b106a" y="231.687583"/>
     <use style="stroke:#000000;" x="476.079618" xlink:href="#m970f3b106a" y="231.81176"/>
     <use style="stroke:#000000;" x="478.132107" xlink:href="#m970f3b106a" y="231.949687"/>
     <use style="stroke:#000000;" x="480.184595" xlink:href="#m970f3b106a" y="232.039836"/>
     <use style="stroke:#000000;" x="482.237084" xlink:href="#m970f3b106a" y="232.31177"/>
     <use style="stroke:#000000;" x="484.289572" xlink:href="#m970f3b106a" y="232.336011"/>
     <use style="stroke:#000000;" x="486.342061" xlink:href="#m970f3b106a" y="232.481077"/>
     <use style="stroke:#000000;" x="488.394549" xlink:href="#m970f3b106a" y="232.552323"/>
     <use style="stroke:#000000;" x="490.447038" xlink:href="#m970f3b106a" y="232.607173"/>
     <use style="stroke:#000000;" x="492.499526" xlink:href="#m970f3b106a" y="232.803218"/>
     <use style="stroke:#000000;" x="494.552015" xlink:href="#m970f3b106a" y="232.873365"/>
     <use style="stroke:#000000;" x="496.604503" xlink:href="#m970f3b106a" y="233.047646"/>
     <use style="stroke:#000000;" x="498.656992" xlink:href="#m970f3b106a" y="233.087515"/>
     <use style="stroke:#000000;" x="500.70948" xlink:href="#m970f3b106a" y="233.203947"/>
     <use style="stroke:#000000;" x="502.761969" xlink:href="#m970f3b106a" y="233.238082"/>
     <use style="stroke:#000000;" x="504.814457" xlink:href="#m970f3b106a" y="233.375662"/>
     <use style="stroke:#000000;" x="506.866946" xlink:href="#m970f3b106a" y="233.41897"/>
     <use style="stroke:#000000;" x="508.919434" xlink:href="#m970f3b106a" y="233.438881"/>
     <use style="stroke:#000000;" x="510.971923" xlink:href="#m970f3b106a" y="233.528406"/>
     <use style="stroke:#000000;" x="513.024411" xlink:href="#m970f3b106a" y="233.627598"/>
     <use style="stroke:#000000;" x="515.0769" xlink:href="#m970f3b106a" y="233.648688"/>
     <use style="stroke:#000000;" x="517.129388" xlink:href="#m970f3b106a" y="233.810915"/>
     <use style="stroke:#000000;" x="519.181877" xlink:href="#m970f3b106a" y="233.831305"/>
     <use style="stroke:#000000;" x="521.234365" xlink:href="#m970f3b106a" y="233.906888"/>
     <use style="stroke:#000000;" x="523.286854" xlink:href="#m970f3b106a" y="233.932866"/>
     <use style="stroke:#000000;" x="525.339343" xlink:href="#m970f3b106a" y="233.997027"/>
     <use style="stroke:#000000;" x="527.391831" xlink:href="#m970f3b106a" y="234.026398"/>
     <use style="stroke:#000000;" x="529.44432" xlink:href="#m970f3b106a" y="234.091603"/>
     <use style="stroke:#000000;" x="531.496808" xlink:href="#m970f3b106a" y="234.11581"/>
     <use style="stroke:#000000;" x="533.549297" xlink:href="#m970f3b106a" y="234.152512"/>
     <use style="stroke:#000000;" x="535.601785" xlink:href="#m970f3b106a" y="234.23678"/>
     <use style="stroke:#000000;" x="537.654274" xlink:href="#m970f3b106a" y="234.260827"/>
     <use style="stroke:#000000;" x="539.706762" xlink:href="#m970f3b106a" y="234.32325"/>
     <use style="stroke:#000000;" x="541.759251" xlink:href="#m970f3b106a" y="234.356332"/>
     <use style="stroke:#000000;" x="543.811739" xlink:href="#m970f3b106a" y="234.373581"/>
     <use style="stroke:#000000;" x="545.864228" xlink:href="#m970f3b106a" y="234.398846"/>
     <use style="stroke:#000000;" x="547.916716" xlink:href="#m970f3b106a" y="234.48734"/>
     <use style="stroke:#000000;" x="549.969205" xlink:href="#m970f3b106a" y="234.501832"/>
     <use style="stroke:#000000;" x="552.021693" xlink:href="#m970f3b106a" y="234.553733"/>
     <use style="stroke:#000000;" x="554.074182" xlink:href="#m970f3b106a" y="234.670909"/>
    </g>
   </g>
   <g id="patch_6">
    <path d="M 340.718 244.6 
L 340.718 26.16 
" style="fill:none;stroke:#000000;stroke-linecap:square;stroke-linejoin:miter;stroke-width:0.8;"/>
   </g>
   <g id="patch_7">
    <path d="M 340.718 244.6 
L 564.234 244.6 
" style="fill:none;stroke:#000000;stroke-linecap:square;stroke-linejoin:miter;stroke-width:0.8;"/>
   </g>
  </g>
  <g id="axes_3">
   <g id="patch_8">
    <path d="M 627.164 244.6 
L 850.68 244.6 
L 850.68 26.16 
L 627.164 26.16 
z
" style="fill:#ffffff;"/>
   </g>
   <g id="matplotlib.axis_5">
    <g id="xtick_12">
     <g id="line2d_39">
      <g>
       <use style="stroke:#000000;stroke-width:0.8;" x="637.323818" xlink:href="#me1aff74447" y="244.6"/>
      </g>
     </g>
     <g id="text_35">
      <!-- 0 -->
      <g transform="translate(634.142568 259.198438)scale(0.1 -0.1)">
       <use xlink:href="#DejaVuSans-48"/>
      </g>
     </g>
    </g>
    <g id="xtick_13">
     <g id="line2d_40">
      <g>
       <use style="stroke:#000000;stroke-width:0.8;" x="678.373589" xlink:href="#me1aff74447" y="244.6"/>
      </g>
     </g>
     <g id="text_36">
      <!-- 20 -->
      <g transform="translate(672.011089 259.198438)scale(0.1 -0.1)">
       <use xlink:href="#DejaVuSans-50"/>
       <use x="63.623047" xlink:href="#DejaVuSans-48"/>
      </g>
     </g>
    </g>
    <g id="xtick_14">
     <g id="line2d_41">
      <g>
       <use style="stroke:#000000;stroke-width:0.8;" x="719.423359" xlink:href="#me1aff74447" y="244.6"/>
      </g>
     </g>
     <g id="text_37">
      <!-- 40 -->
      <g transform="translate(713.060859 259.198438)scale(0.1 -0.1)">
       <use xlink:href="#DejaVuSans-52"/>
       <use x="63.623047" xlink:href="#DejaVuSans-48"/>
      </g>
     </g>
    </g>
    <g id="xtick_15">
     <g id="line2d_42">
      <g>
       <use style="stroke:#000000;stroke-width:0.8;" x="760.473129" xlink:href="#me1aff74447" y="244.6"/>
      </g>
     </g>
     <g id="text_38">
      <!-- 60 -->
      <g transform="translate(754.110629 259.198438)scale(0.1 -0.1)">
       <use xlink:href="#DejaVuSans-54"/>
       <use x="63.623047" xlink:href="#DejaVuSans-48"/>
      </g>
     </g>
    </g>
    <g id="xtick_16">
     <g id="line2d_43">
      <g>
       <use style="stroke:#000000;stroke-width:0.8;" x="801.5229" xlink:href="#me1aff74447" y="244.6"/>
      </g>
     </g>
     <g id="text_39">
      <!-- 80 -->
      <g transform="translate(795.1604 259.198438)scale(0.1 -0.1)">
       <use xlink:href="#DejaVuSans-56"/>
       <use x="63.623047" xlink:href="#DejaVuSans-48"/>
      </g>
     </g>
    </g>
    <g id="xtick_17">
     <g id="line2d_44">
      <g>
       <use style="stroke:#000000;stroke-width:0.8;" x="842.57267" xlink:href="#me1aff74447" y="244.6"/>
      </g>
     </g>
     <g id="text_40">
      <!-- 100 -->
      <g transform="translate(833.02892 259.198438)scale(0.1 -0.1)">
       <use xlink:href="#DejaVuSans-49"/>
       <use x="63.623047" xlink:href="#DejaVuSans-48"/>
       <use x="127.246094" xlink:href="#DejaVuSans-48"/>
      </g>
     </g>
    </g>
    <g id="text_41">
     <!-- $\alpha$ -->
     <g transform="translate(735.622 272.876562)scale(0.1 -0.1)">
      <use transform="translate(0 0.84375)" xlink:href="#DejaVuSans-Oblique-945"/>
     </g>
    </g>
   </g>
   <g id="matplotlib.axis_6">
    <g id="ytick_15">
     <g id="line2d_45">
      <g>
       <use style="stroke:#000000;stroke-width:0.8;" x="627.164" xlink:href="#m739bdeae52" y="234.693796"/>
      </g>
     </g>
     <g id="text_42">
      <!-- 0.0 -->
      <g transform="translate(604.260875 238.493014)scale(0.1 -0.1)">
       <use xlink:href="#DejaVuSans-48"/>
       <use x="63.623047" xlink:href="#DejaVuSans-46"/>
       <use x="95.410156" xlink:href="#DejaVuSans-48"/>
      </g>
     </g>
    </g>
    <g id="ytick_16">
     <g id="line2d_46">
      <g>
       <use style="stroke:#000000;stroke-width:0.8;" x="627.164" xlink:href="#m739bdeae52" y="190.244133"/>
      </g>
     </g>
     <g id="text_43">
      <!-- 0.2 -->
      <g transform="translate(604.260875 194.043351)scale(0.1 -0.1)">
       <use xlink:href="#DejaVuSans-48"/>
       <use x="63.623047" xlink:href="#DejaVuSans-46"/>
       <use x="95.410156" xlink:href="#DejaVuSans-50"/>
      </g>
     </g>
    </g>
    <g id="ytick_17">
     <g id="line2d_47">
      <g>
       <use style="stroke:#000000;stroke-width:0.8;" x="627.164" xlink:href="#m739bdeae52" y="145.79447"/>
      </g>
     </g>
     <g id="text_44">
      <!-- 0.4 -->
      <g transform="translate(604.260875 149.593688)scale(0.1 -0.1)">
       <use xlink:href="#DejaVuSans-48"/>
       <use x="63.623047" xlink:href="#DejaVuSans-46"/>
       <use x="95.410156" xlink:href="#DejaVuSans-52"/>
      </g>
     </g>
    </g>
    <g id="ytick_18">
     <g id="line2d_48">
      <g>
       <use style="stroke:#000000;stroke-width:0.8;" x="627.164" xlink:href="#m739bdeae52" y="101.344807"/>
      </g>
     </g>
     <g id="text_45">
      <!-- 0.6 -->
      <g transform="translate(604.260875 105.144025)scale(0.1 -0.1)">
       <use xlink:href="#DejaVuSans-48"/>
       <use x="63.623047" xlink:href="#DejaVuSans-46"/>
       <use x="95.410156" xlink:href="#DejaVuSans-54"/>
      </g>
     </g>
    </g>
    <g id="ytick_19">
     <g id="line2d_49">
      <g>
       <use style="stroke:#000000;stroke-width:0.8;" x="627.164" xlink:href="#m739bdeae52" y="56.895144"/>
      </g>
     </g>
     <g id="text_46">
      <!-- 0.8 -->
      <g transform="translate(604.260875 60.694362)scale(0.1 -0.1)">
       <use xlink:href="#DejaVuSans-48"/>
       <use x="63.623047" xlink:href="#DejaVuSans-46"/>
       <use x="95.410156" xlink:href="#DejaVuSans-56"/>
      </g>
     </g>
    </g>
    <g id="text_47">
     <!-- $cos(\Delta \mathbf{\mu}, \mathbf{e}_{\alpha})$ -->
     <defs>
      <path d="M 53.609375 52.59375 
L 51.8125 43.703125 
Q 48.578125 46.046875 44.9375 47.21875 
Q 41.3125 48.390625 37.40625 48.390625 
Q 33.109375 48.390625 29.21875 46.875 
Q 25.34375 45.359375 22.703125 42.578125 
Q 18.5 38.328125 16.203125 32.609375 
Q 13.921875 26.90625 13.921875 20.796875 
Q 13.921875 13.421875 17.609375 9.8125 
Q 21.296875 6.203125 28.8125 6.203125 
Q 32.515625 6.203125 36.6875 7.328125 
Q 40.875 8.453125 45.40625 10.6875 
L 43.703125 1.8125 
Q 39.796875 0.203125 35.671875 -0.609375 
Q 31.546875 -1.421875 27.203125 -1.421875 
Q 16.3125 -1.421875 10.453125 4.015625 
Q 4.59375 9.46875 4.59375 19.578125 
Q 4.59375 28.078125 7.640625 35.234375 
Q 10.6875 42.390625 16.703125 48.09375 
Q 20.796875 52 26.3125 54 
Q 31.84375 56 38.375 56 
Q 42.1875 56 45.9375 55.140625 
Q 49.703125 54.296875 53.609375 52.59375 
z
" id="DejaVuSans-Oblique-99"/>
      <path d="M 25.390625 -1.421875 
Q 15.765625 -1.421875 10.171875 4.515625 
Q 4.59375 10.453125 4.59375 20.703125 
Q 4.59375 26.65625 6.515625 32.828125 
Q 8.453125 39.015625 11.53125 43.21875 
Q 16.359375 49.75 22.3125 52.875 
Q 28.265625 56 35.796875 56 
Q 45.125 56 50.859375 50.1875 
Q 56.59375 44.390625 56.59375 35.015625 
Q 56.59375 28.515625 54.6875 22.0625 
Q 52.78125 15.625 49.703125 11.375 
Q 44.921875 4.828125 38.96875 1.703125 
Q 33.015625 -1.421875 25.390625 -1.421875 
z
M 13.921875 21 
Q 13.921875 13.578125 17.015625 9.890625 
Q 20.125 6.203125 26.421875 6.203125 
Q 35.453125 6.203125 41.375 14.078125 
Q 47.3125 21.96875 47.3125 34.078125 
Q 47.3125 41.15625 44.140625 44.765625 
Q 40.96875 48.390625 34.8125 48.390625 
Q 29.734375 48.390625 25.78125 46.015625 
Q 21.828125 43.65625 18.703125 38.8125 
Q 16.40625 35.203125 15.15625 30.5625 
Q 13.921875 25.921875 13.921875 21 
z
" id="DejaVuSans-Oblique-111"/>
      <path d="M 50 53.078125 
L 48.296875 44.578125 
Q 44.734375 46.53125 40.765625 47.5 
Q 36.8125 48.484375 32.625 48.484375 
Q 25.53125 48.484375 21.453125 46.0625 
Q 17.390625 43.65625 17.390625 39.5 
Q 17.390625 34.671875 26.859375 32.078125 
Q 27.59375 31.890625 27.9375 31.78125 
L 30.8125 30.90625 
Q 39.796875 28.421875 42.796875 25.6875 
Q 45.796875 22.953125 45.796875 18.21875 
Q 45.796875 9.515625 38.890625 4.046875 
Q 31.984375 -1.421875 20.796875 -1.421875 
Q 16.453125 -1.421875 11.671875 -0.578125 
Q 6.890625 0.25 1.125 2 
L 2.875 11.28125 
Q 7.8125 8.734375 12.59375 7.421875 
Q 17.390625 6.109375 21.78125 6.109375 
Q 28.375 6.109375 32.5 8.9375 
Q 36.625 11.765625 36.625 16.109375 
Q 36.625 20.796875 25.78125 23.6875 
L 24.859375 23.921875 
L 21.78125 24.703125 
Q 14.9375 26.515625 11.765625 29.46875 
Q 8.59375 32.421875 8.59375 37.015625 
Q 8.59375 45.75 15.15625 50.875 
Q 21.734375 56 33.015625 56 
Q 37.453125 56 41.671875 55.265625 
Q 45.90625 54.546875 50 53.078125 
z
" id="DejaVuSans-Oblique-115"/>
      <path d="M 31 75.875 
Q 24.46875 64.65625 21.28125 53.65625 
Q 18.109375 42.671875 18.109375 31.390625 
Q 18.109375 20.125 21.3125 9.0625 
Q 24.515625 -2 31 -13.1875 
L 23.1875 -13.1875 
Q 15.875 -1.703125 12.234375 9.375 
Q 8.59375 20.453125 8.59375 31.390625 
Q 8.59375 42.28125 12.203125 53.3125 
Q 15.828125 64.359375 23.1875 75.875 
z
" id="DejaVuSans-40"/>
      <path d="M 34.1875 63.1875 
L 14.15625 8.203125 
L 54.25 8.203125 
z
M 0.78125 0 
L 28.609375 72.90625 
L 39.796875 72.90625 
L 67.578125 0 
z
" id="DejaVuSans-916"/>
      <path d="M 8.5 -20.90625 
L 8.5 54.6875 
L 26.125 54.6875 
L 26.125 22.90625 
Q 26.125 17.234375 28.5625 14.46875 
Q 31 11.71875 35.984375 11.71875 
Q 41.015625 11.71875 43.453125 14.46875 
Q 45.90625 17.234375 45.90625 22.90625 
L 45.90625 54.6875 
L 63.484375 54.6875 
L 63.484375 18.109375 
Q 63.484375 14.65625 64.28125 13.28125 
Q 65.09375 11.921875 67 11.921875 
Q 67.875 11.921875 68.671875 12.15625 
Q 69.484375 12.40625 70.40625 12.984375 
L 70.40625 0.78125 
Q 67.828125 -0.34375 65.546875 -0.875 
Q 63.28125 -1.421875 61.078125 -1.421875 
Q 56.734375 -1.421875 53.96875 0.40625 
Q 51.21875 2.25 49.515625 6.296875 
Q 47.21875 2.4375 43.921875 0.5 
Q 40.625 -1.421875 36.28125 -1.421875 
Q 32.671875 -1.421875 30.125 -0.265625 
Q 27.59375 0.875 26.125 3.21875 
L 26.125 -20.90625 
z
" id="DejaVuSans-Bold-956"/>
      <path d="M 62.984375 27.484375 
L 62.984375 22.515625 
L 22.125 22.515625 
Q 22.75 16.359375 26.5625 13.28125 
Q 30.375 10.203125 37.203125 10.203125 
Q 42.71875 10.203125 48.5 11.84375 
Q 54.296875 13.484375 60.40625 16.796875 
L 60.40625 3.328125 
Q 54.203125 0.984375 48 -0.21875 
Q 41.796875 -1.421875 35.59375 -1.421875 
Q 20.75 -1.421875 12.515625 6.125 
Q 4.296875 13.671875 4.296875 27.296875 
Q 4.296875 40.671875 12.375 48.328125 
Q 20.453125 56 34.625 56 
Q 47.515625 56 55.25 48.234375 
Q 62.984375 40.484375 62.984375 27.484375 
z
M 45.015625 33.296875 
Q 45.015625 38.28125 42.109375 41.328125 
Q 39.203125 44.390625 34.515625 44.390625 
Q 29.4375 44.390625 26.265625 41.53125 
Q 23.09375 38.671875 22.3125 33.296875 
z
" id="DejaVuSans-Bold-101"/>
      <path d="M 8.015625 75.875 
L 15.828125 75.875 
Q 23.140625 64.359375 26.78125 53.3125 
Q 30.421875 42.28125 30.421875 31.390625 
Q 30.421875 20.453125 26.78125 9.375 
Q 23.140625 -1.703125 15.828125 -13.1875 
L 8.015625 -13.1875 
Q 14.5 -2 17.703125 9.0625 
Q 20.90625 20.125 20.90625 31.390625 
Q 20.90625 42.671875 17.703125 53.65625 
Q 14.5 64.65625 8.015625 75.875 
z
" id="DejaVuSans-41"/>
     </defs>
     <g transform="translate(598.160875 163.28)rotate(-90)scale(0.1 -0.1)">
      <use transform="translate(0 0.125)" xlink:href="#DejaVuSans-Oblique-99"/>
      <use transform="translate(54.980469 0.125)" xlink:href="#DejaVuSans-Oblique-111"/>
      <use transform="translate(116.162109 0.125)" xlink:href="#DejaVuSans-Oblique-115"/>
      <use transform="translate(168.261719 0.125)" xlink:href="#DejaVuSans-40"/>
      <use transform="translate(207.275391 0.125)" xlink:href="#DejaVuSans-916"/>
      <use transform="translate(275.683594 0.125)" xlink:href="#DejaVuSans-Bold-956"/>
      <use transform="translate(349.267578 0.125)" xlink:href="#DejaVuSans-44"/>
      <use transform="translate(400.537109 0.125)" xlink:href="#DejaVuSans-Bold-101"/>
      <use transform="translate(469.316406 -16.28125)scale(0.7)" xlink:href="#DejaVuSans-Oblique-945"/>
      <use transform="translate(518.193359 0.125)" xlink:href="#DejaVuSans-41"/>
     </g>
    </g>
   </g>
   <g id="line2d_50">
    <path clip-path="url(#p527e820b09)" d="M 637.323818 220.680159 
L 639.376307 36.089091 
L 641.428795 228.722925 
L 643.481284 206.109897 
L 645.533772 222.357507 
L 647.586261 204.888712 
L 649.638749 216.953918 
L 651.691238 205.229148 
L 653.743726 222.287878 
L 655.796215 232.409202 
L 657.848703 202.200151 
L 659.901192 212.069902 
L 661.95368 219.10525 
L 664.006169 218.677211 
L 666.058657 218.257298 
L 668.111146 219.065176 
L 670.163635 217.734781 
L 672.216123 216.401657 
L 674.268612 221.658009 
L 676.3211 230.70554 
L 678.373589 227.522528 
L 680.426077 228.917381 
L 682.478566 227.651496 
L 684.531054 231.284111 
L 686.583543 215.929926 
L 688.636031 218.079138 
L 690.68852 227.566758 
L 692.741008 233.872805 
L 694.793497 228.864912 
L 696.845985 233.157639 
L 698.898474 231.81798 
L 700.950962 232.326752 
L 703.003451 224.542221 
L 705.055939 220.276423 
L 707.108428 231.23626 
L 709.160916 221.098406 
L 711.213405 211.835892 
L 713.265893 232.445092 
L 715.318382 230.429014 
L 717.370871 231.753351 
L 719.423359 230.768396 
L 721.475848 226.382464 
L 723.528336 225.918181 
L 725.580825 233.991749 
L 727.633313 227.210507 
L 729.685802 227.211312 
L 731.73829 224.084073 
L 733.790779 232.363865 
L 735.843267 232.924884 
L 737.895756 230.283795 
L 739.948244 233.199787 
L 742.000733 230.710073 
L 744.053221 223.576829 
L 746.10571 229.857092 
L 748.158198 229.823771 
L 750.210687 227.829084 
L 752.263175 231.125668 
L 754.315664 234.275592 
L 756.368152 232.204826 
L 758.420641 233.214044 
L 760.473129 234.029449 
L 762.525618 233.256244 
L 764.578107 230.248786 
L 766.630595 234.670909 
L 768.683084 227.329176 
L 770.735572 232.855805 
L 772.788061 230.917436 
L 774.840549 233.947141 
L 776.893038 230.029575 
L 778.945526 231.475 
L 780.998015 231.437656 
L 783.050503 226.186939 
L 785.102992 233.243614 
L 787.15548 230.068548 
L 789.207969 231.778021 
L 791.260457 231.350304 
L 793.312946 228.594425 
L 795.365434 230.125945 
L 797.417923 228.906084 
L 799.470411 229.712568 
L 801.5229 234.311527 
L 803.575388 231.572227 
L 805.627877 233.112528 
L 807.680365 234.192646 
L 809.732854 231.925423 
L 811.785343 234.630493 
L 813.837831 231.194357 
L 815.89032 234.58637 
L 817.942808 234.324587 
L 819.995297 231.95065 
L 822.047785 231.919606 
L 824.100274 232.559688 
L 826.152762 232.056339 
L 828.205251 233.78774 
L 830.257739 225.670794 
L 832.310228 234.045089 
L 834.362716 233.367339 
L 836.415205 232.442239 
L 838.467693 234.153983 
L 840.520182 233.693501 
" style="fill:none;stroke:#000000;stroke-linecap:square;stroke-width:1.5;"/>
    <g clip-path="url(#p527e820b09)">
     <use style="stroke:#000000;" x="637.323818" xlink:href="#m970f3b106a" y="220.680159"/>
     <use style="stroke:#000000;" x="639.376307" xlink:href="#m970f3b106a" y="36.089091"/>
     <use style="stroke:#000000;" x="641.428795" xlink:href="#m970f3b106a" y="228.722925"/>
     <use style="stroke:#000000;" x="643.481284" xlink:href="#m970f3b106a" y="206.109897"/>
     <use style="stroke:#000000;" x="645.533772" xlink:href="#m970f3b106a" y="222.357507"/>
     <use style="stroke:#000000;" x="647.586261" xlink:href="#m970f3b106a" y="204.888712"/>
     <use style="stroke:#000000;" x="649.638749" xlink:href="#m970f3b106a" y="216.953918"/>
     <use style="stroke:#000000;" x="651.691238" xlink:href="#m970f3b106a" y="205.229148"/>
     <use style="stroke:#000000;" x="653.743726" xlink:href="#m970f3b106a" y="222.287878"/>
     <use style="stroke:#000000;" x="655.796215" xlink:href="#m970f3b106a" y="232.409202"/>
     <use style="stroke:#000000;" x="657.848703" xlink:href="#m970f3b106a" y="202.200151"/>
     <use style="stroke:#000000;" x="659.901192" xlink:href="#m970f3b106a" y="212.069902"/>
     <use style="stroke:#000000;" x="661.95368" xlink:href="#m970f3b106a" y="219.10525"/>
     <use style="stroke:#000000;" x="664.006169" xlink:href="#m970f3b106a" y="218.677211"/>
     <use style="stroke:#000000;" x="666.058657" xlink:href="#m970f3b106a" y="218.257298"/>
     <use style="stroke:#000000;" x="668.111146" xlink:href="#m970f3b106a" y="219.065176"/>
     <use style="stroke:#000000;" x="670.163635" xlink:href="#m970f3b106a" y="217.734781"/>
     <use style="stroke:#000000;" x="672.216123" xlink:href="#m970f3b106a" y="216.401657"/>
     <use style="stroke:#000000;" x="674.268612" xlink:href="#m970f3b106a" y="221.658009"/>
     <use style="stroke:#000000;" x="676.3211" xlink:href="#m970f3b106a" y="230.70554"/>
     <use style="stroke:#000000;" x="678.373589" xlink:href="#m970f3b106a" y="227.522528"/>
     <use style="stroke:#000000;" x="680.426077" xlink:href="#m970f3b106a" y="228.917381"/>
     <use style="stroke:#000000;" x="682.478566" xlink:href="#m970f3b106a" y="227.651496"/>
     <use style="stroke:#000000;" x="684.531054" xlink:href="#m970f3b106a" y="231.284111"/>
     <use style="stroke:#000000;" x="686.583543" xlink:href="#m970f3b106a" y="215.929926"/>
     <use style="stroke:#000000;" x="688.636031" xlink:href="#m970f3b106a" y="218.079138"/>
     <use style="stroke:#000000;" x="690.68852" xlink:href="#m970f3b106a" y="227.566758"/>
     <use style="stroke:#000000;" x="692.741008" xlink:href="#m970f3b106a" y="233.872805"/>
     <use style="stroke:#000000;" x="694.793497" xlink:href="#m970f3b106a" y="228.864912"/>
     <use style="stroke:#000000;" x="696.845985" xlink:href="#m970f3b106a" y="233.157639"/>
     <use style="stroke:#000000;" x="698.898474" xlink:href="#m970f3b106a" y="231.81798"/>
     <use style="stroke:#000000;" x="700.950962" xlink:href="#m970f3b106a" y="232.326752"/>
     <use style="stroke:#000000;" x="703.003451" xlink:href="#m970f3b106a" y="224.542221"/>
     <use style="stroke:#000000;" x="705.055939" xlink:href="#m970f3b106a" y="220.276423"/>
     <use style="stroke:#000000;" x="707.108428" xlink:href="#m970f3b106a" y="231.23626"/>
     <use style="stroke:#000000;" x="709.160916" xlink:href="#m970f3b106a" y="221.098406"/>
     <use style="stroke:#000000;" x="711.213405" xlink:href="#m970f3b106a" y="211.835892"/>
     <use style="stroke:#000000;" x="713.265893" xlink:href="#m970f3b106a" y="232.445092"/>
     <use style="stroke:#000000;" x="715.318382" xlink:href="#m970f3b106a" y="230.429014"/>
     <use style="stroke:#000000;" x="717.370871" xlink:href="#m970f3b106a" y="231.753351"/>
     <use style="stroke:#000000;" x="719.423359" xlink:href="#m970f3b106a" y="230.768396"/>
     <use style="stroke:#000000;" x="721.475848" xlink:href="#m970f3b106a" y="226.382464"/>
     <use style="stroke:#000000;" x="723.528336" xlink:href="#m970f3b106a" y="225.918181"/>
     <use style="stroke:#000000;" x="725.580825" xlink:href="#m970f3b106a" y="233.991749"/>
     <use style="stroke:#000000;" x="727.633313" xlink:href="#m970f3b106a" y="227.210507"/>
     <use style="stroke:#000000;" x="729.685802" xlink:href="#m970f3b106a" y="227.211312"/>
     <use style="stroke:#000000;" x="731.73829" xlink:href="#m970f3b106a" y="224.084073"/>
     <use style="stroke:#000000;" x="733.790779" xlink:href="#m970f3b106a" y="232.363865"/>
     <use style="stroke:#000000;" x="735.843267" xlink:href="#m970f3b106a" y="232.924884"/>
     <use style="stroke:#000000;" x="737.895756" xlink:href="#m970f3b106a" y="230.283795"/>
     <use style="stroke:#000000;" x="739.948244" xlink:href="#m970f3b106a" y="233.199787"/>
     <use style="stroke:#000000;" x="742.000733" xlink:href="#m970f3b106a" y="230.710073"/>
     <use style="stroke:#000000;" x="744.053221" xlink:href="#m970f3b106a" y="223.576829"/>
     <use style="stroke:#000000;" x="746.10571" xlink:href="#m970f3b106a" y="229.857092"/>
     <use style="stroke:#000000;" x="748.158198" xlink:href="#m970f3b106a" y="229.823771"/>
     <use style="stroke:#000000;" x="750.210687" xlink:href="#m970f3b106a" y="227.829084"/>
     <use style="stroke:#000000;" x="752.263175" xlink:href="#m970f3b106a" y="231.125668"/>
     <use style="stroke:#000000;" x="754.315664" xlink:href="#m970f3b106a" y="234.275592"/>
     <use style="stroke:#000000;" x="756.368152" xlink:href="#m970f3b106a" y="232.204826"/>
     <use style="stroke:#000000;" x="758.420641" xlink:href="#m970f3b106a" y="233.214044"/>
     <use style="stroke:#000000;" x="760.473129" xlink:href="#m970f3b106a" y="234.029449"/>
     <use style="stroke:#000000;" x="762.525618" xlink:href="#m970f3b106a" y="233.256244"/>
     <use style="stroke:#000000;" x="764.578107" xlink:href="#m970f3b106a" y="230.248786"/>
     <use style="stroke:#000000;" x="766.630595" xlink:href="#m970f3b106a" y="234.670909"/>
     <use style="stroke:#000000;" x="768.683084" xlink:href="#m970f3b106a" y="227.329176"/>
     <use style="stroke:#000000;" x="770.735572" xlink:href="#m970f3b106a" y="232.855805"/>
     <use style="stroke:#000000;" x="772.788061" xlink:href="#m970f3b106a" y="230.917436"/>
     <use style="stroke:#000000;" x="774.840549" xlink:href="#m970f3b106a" y="233.947141"/>
     <use style="stroke:#000000;" x="776.893038" xlink:href="#m970f3b106a" y="230.029575"/>
     <use style="stroke:#000000;" x="778.945526" xlink:href="#m970f3b106a" y="231.475"/>
     <use style="stroke:#000000;" x="780.998015" xlink:href="#m970f3b106a" y="231.437656"/>
     <use style="stroke:#000000;" x="783.050503" xlink:href="#m970f3b106a" y="226.186939"/>
     <use style="stroke:#000000;" x="785.102992" xlink:href="#m970f3b106a" y="233.243614"/>
     <use style="stroke:#000000;" x="787.15548" xlink:href="#m970f3b106a" y="230.068548"/>
     <use style="stroke:#000000;" x="789.207969" xlink:href="#m970f3b106a" y="231.778021"/>
     <use style="stroke:#000000;" x="791.260457" xlink:href="#m970f3b106a" y="231.350304"/>
     <use style="stroke:#000000;" x="793.312946" xlink:href="#m970f3b106a" y="228.594425"/>
     <use style="stroke:#000000;" x="795.365434" xlink:href="#m970f3b106a" y="230.125945"/>
     <use style="stroke:#000000;" x="797.417923" xlink:href="#m970f3b106a" y="228.906084"/>
     <use style="stroke:#000000;" x="799.470411" xlink:href="#m970f3b106a" y="229.712568"/>
     <use style="stroke:#000000;" x="801.5229" xlink:href="#m970f3b106a" y="234.311527"/>
     <use style="stroke:#000000;" x="803.575388" xlink:href="#m970f3b106a" y="231.572227"/>
     <use style="stroke:#000000;" x="805.627877" xlink:href="#m970f3b106a" y="233.112528"/>
     <use style="stroke:#000000;" x="807.680365" xlink:href="#m970f3b106a" y="234.192646"/>
     <use style="stroke:#000000;" x="809.732854" xlink:href="#m970f3b106a" y="231.925423"/>
     <use style="stroke:#000000;" x="811.785343" xlink:href="#m970f3b106a" y="234.630493"/>
     <use style="stroke:#000000;" x="813.837831" xlink:href="#m970f3b106a" y="231.194357"/>
     <use style="stroke:#000000;" x="815.89032" xlink:href="#m970f3b106a" y="234.58637"/>
     <use style="stroke:#000000;" x="817.942808" xlink:href="#m970f3b106a" y="234.324587"/>
     <use style="stroke:#000000;" x="819.995297" xlink:href="#m970f3b106a" y="231.95065"/>
     <use style="stroke:#000000;" x="822.047785" xlink:href="#m970f3b106a" y="231.919606"/>
     <use style="stroke:#000000;" x="824.100274" xlink:href="#m970f3b106a" y="232.559688"/>
     <use style="stroke:#000000;" x="826.152762" xlink:href="#m970f3b106a" y="232.056339"/>
     <use style="stroke:#000000;" x="828.205251" xlink:href="#m970f3b106a" y="233.78774"/>
     <use style="stroke:#000000;" x="830.257739" xlink:href="#m970f3b106a" y="225.670794"/>
     <use style="stroke:#000000;" x="832.310228" xlink:href="#m970f3b106a" y="234.045089"/>
     <use style="stroke:#000000;" x="834.362716" xlink:href="#m970f3b106a" y="233.367339"/>
     <use style="stroke:#000000;" x="836.415205" xlink:href="#m970f3b106a" y="232.442239"/>
     <use style="stroke:#000000;" x="838.467693" xlink:href="#m970f3b106a" y="234.153983"/>
     <use style="stroke:#000000;" x="840.520182" xlink:href="#m970f3b106a" y="233.693501"/>
    </g>
   </g>
   <g id="patch_9">
    <path d="M 627.164 244.6 
L 627.164 26.16 
" style="fill:none;stroke:#000000;stroke-linecap:square;stroke-linejoin:miter;stroke-width:0.8;"/>
   </g>
   <g id="patch_10">
    <path d="M 627.164 244.6 
L 850.68 244.6 
" style="fill:none;stroke:#000000;stroke-linecap:square;stroke-linejoin:miter;stroke-width:0.8;"/>
   </g>
  </g>
 </g>
 <defs>
  <clipPath id="p7bbd05f521">
   <rect height="218.44" width="223.516" x="54.272" y="26.16"/>
  </clipPath>
  <clipPath id="pdfaf2b75b7">
   <rect height="218.44" width="223.516" x="340.718" y="26.16"/>
  </clipPath>
  <clipPath id="p527e820b09">
   <rect height="218.44" width="223.516" x="627.164" y="26.16"/>
  </clipPath>
 </defs>
</svg>
