<?xml version="1.0" encoding="utf-8" standalone="no"?>
<!DOCTYPE svg PUBLIC "-//W3C//DTD SVG 1.1//EN"
  "http://www.w3.org/Graphics/SVG/1.1/DTD/svg11.dtd">
<!-- Created with matplotlib (https://matplotlib.org/) -->
<svg height="288pt" version="1.1" viewBox="0 0 864 288" width="864pt" xmlns="http://www.w3.org/2000/svg" xmlns:xlink="http://www.w3.org/1999/xlink">
 <defs>
  <style type="text/css">
*{stroke-linecap:butt;stroke-linejoin:round;}
  </style>
 </defs>
 <g id="figure_1">
  <g id="patch_1">
   <path d="M 0 288 
L 864 288 
L 864 0 
L 0 0 
z
" style="fill:#ffffff;"/>
  </g>
  <g id="axes_1">
   <g id="patch_2">
    <path d="M 54.272 244.6 
L 277.788 244.6 
L 277.788 26.16 
L 54.272 26.16 
z
" style="fill:#ffffff;"/>
   </g>
   <g id="PolyCollection_1">
    <path clip-path="url(#p72f6156c97)" d="M 64.431818 228.248178 
L 64.431818 233.180691 
L 70.98654 207.550195 
L 81.911075 167.242984 
L 92.835611 133.693565 
L 103.760147 102.223329 
L 114.684682 46.06234 
L 114.684682 36.089091 
L 114.684682 36.089091 
L 103.760147 95.132408 
L 92.835611 127.771508 
L 81.911075 162.379766 
L 70.98654 199.718349 
L 64.431818 228.248178 
z
" style="fill:#1f77b4;fill-opacity:0.5;"/>
   </g>
   <g id="PolyCollection_2">
    <path clip-path="url(#p72f6156c97)" d="M 64.431818 230.039321 
L 64.431818 234.670909 
L 70.98654 216.249409 
L 81.911075 201.861652 
L 92.835611 199.581753 
L 103.760147 203.524636 
L 114.684682 207.408878 
L 114.684682 205.392025 
L 114.684682 205.392025 
L 103.760147 201.198672 
L 92.835611 195.871859 
L 81.911075 198.07384 
L 70.98654 209.690166 
L 64.431818 230.039321 
z
" style="fill:#ff7f0e;fill-opacity:0.5;"/>
   </g>
   <g id="PolyCollection_3">
    <path clip-path="url(#p72f6156c97)" d="M 64.431818 228.248178 
L 64.431818 233.180691 
L 70.98654 218.255489 
L 81.911075 199.62357 
L 92.835611 190.158738 
L 103.760147 183.125651 
L 114.684682 177.037863 
L 125.609218 170.470357 
L 136.533754 167.518494 
L 147.458289 165.80614 
L 158.382825 162.024713 
L 169.307361 161.238898 
L 180.231896 158.595688 
L 191.156432 160.029702 
L 202.080968 159.618948 
L 213.005503 158.765957 
L 223.930039 154.930811 
L 234.854575 155.303832 
L 245.77911 157.1706 
L 256.703646 154.145839 
L 267.628182 156.024114 
L 267.628182 153.06671 
L 267.628182 153.06671 
L 256.703646 151.629737 
L 245.77911 154.232488 
L 234.854575 153.00028 
L 223.930039 151.928592 
L 213.005503 156.038112 
L 202.080968 157.043401 
L 191.156432 156.494063 
L 180.231896 155.987511 
L 169.307361 159.245158 
L 158.382825 158.643872 
L 147.458289 163.197914 
L 136.533754 162.913126 
L 125.609218 166.342318 
L 114.684682 173.689487 
L 103.760147 178.916262 
L 92.835611 185.340926 
L 81.911075 195.210611 
L 70.98654 211.802882 
L 64.431818 228.248178 
z
" style="fill:#2ca02c;fill-opacity:0.5;"/>
   </g>
   <g id="PolyCollection_4">
    <path clip-path="url(#p72f6156c97)" d="M 64.431818 230.039321 
L 64.431818 234.670909 
L 70.98654 221.320686 
L 81.911075 205.848058 
L 92.835611 197.406233 
L 103.760147 189.777947 
L 114.684682 181.304205 
L 125.609218 178.068086 
L 136.533754 174.604773 
L 147.458289 172.831687 
L 158.382825 171.877905 
L 169.307361 170.712692 
L 180.231896 166.291265 
L 191.156432 167.972003 
L 202.080968 168.07646 
L 213.005503 163.106016 
L 223.930039 164.161525 
L 234.854575 163.382174 
L 245.77911 163.923851 
L 256.703646 164.36148 
L 267.628182 160.577838 
L 267.628182 158.149512 
L 267.628182 158.149512 
L 256.703646 162.219741 
L 245.77911 161.423923 
L 234.854575 160.410949 
L 223.930039 162.107585 
L 213.005503 160.479922 
L 202.080968 165.366682 
L 191.156432 165.738675 
L 180.231896 163.022311 
L 169.307361 167.518247 
L 158.382825 169.007528 
L 147.458289 169.849469 
L 136.533754 170.818265 
L 125.609218 173.599255 
L 114.684682 178.584594 
L 103.760147 185.96405 
L 92.835611 192.529729 
L 81.911075 201.477801 
L 70.98654 214.915492 
L 64.431818 230.039321 
z
" style="fill:#d62728;fill-opacity:0.5;"/>
   </g>
   <g id="matplotlib.axis_1">
    <g id="xtick_1">
     <g id="line2d_1">
      <defs>
       <path d="M 0 0 
L 0 3.5 
" id="m47fca31302" style="stroke:#000000;stroke-width:0.8;"/>
      </defs>
      <g>
       <use style="stroke:#000000;stroke-width:0.8;" x="60.062004" xlink:href="#m47fca31302" y="244.6"/>
      </g>
     </g>
     <g id="text_1">
      <!-- 0 -->
      <defs>
       <path d="M 31.78125 66.40625 
Q 24.171875 66.40625 20.328125 58.90625 
Q 16.5 51.421875 16.5 36.375 
Q 16.5 21.390625 20.328125 13.890625 
Q 24.171875 6.390625 31.78125 6.390625 
Q 39.453125 6.390625 43.28125 13.890625 
Q 47.125 21.390625 47.125 36.375 
Q 47.125 51.421875 43.28125 58.90625 
Q 39.453125 66.40625 31.78125 66.40625 
z
M 31.78125 74.21875 
Q 44.046875 74.21875 50.515625 64.515625 
Q 56.984375 54.828125 56.984375 36.375 
Q 56.984375 17.96875 50.515625 8.265625 
Q 44.046875 -1.421875 31.78125 -1.421875 
Q 19.53125 -1.421875 13.0625 8.265625 
Q 6.59375 17.96875 6.59375 36.375 
Q 6.59375 54.828125 13.0625 64.515625 
Q 19.53125 74.21875 31.78125 74.21875 
z
" id="DejaVuSans-48"/>
      </defs>
      <g transform="translate(56.880754 259.198438)scale(0.1 -0.1)">
       <use xlink:href="#DejaVuSans-48"/>
      </g>
     </g>
    </g>
    <g id="xtick_2">
     <g id="line2d_2">
      <g>
       <use style="stroke:#000000;stroke-width:0.8;" x="103.760147" xlink:href="#m47fca31302" y="244.6"/>
      </g>
     </g>
     <g id="text_2">
      <!-- 20 -->
      <defs>
       <path d="M 19.1875 8.296875 
L 53.609375 8.296875 
L 53.609375 0 
L 7.328125 0 
L 7.328125 8.296875 
Q 12.9375 14.109375 22.625 23.890625 
Q 32.328125 33.6875 34.8125 36.53125 
Q 39.546875 41.84375 41.421875 45.53125 
Q 43.3125 49.21875 43.3125 52.78125 
Q 43.3125 58.59375 39.234375 62.25 
Q 35.15625 65.921875 28.609375 65.921875 
Q 23.96875 65.921875 18.8125 64.3125 
Q 13.671875 62.703125 7.8125 59.421875 
L 7.8125 69.390625 
Q 13.765625 71.78125 18.9375 73 
Q 24.125 74.21875 28.421875 74.21875 
Q 39.75 74.21875 46.484375 68.546875 
Q 53.21875 62.890625 53.21875 53.421875 
Q 53.21875 48.921875 51.53125 44.890625 
Q 49.859375 40.875 45.40625 35.40625 
Q 44.1875 33.984375 37.640625 27.21875 
Q 31.109375 20.453125 19.1875 8.296875 
z
" id="DejaVuSans-50"/>
      </defs>
      <g transform="translate(97.397647 259.198438)scale(0.1 -0.1)">
       <use xlink:href="#DejaVuSans-50"/>
       <use x="63.623047" xlink:href="#DejaVuSans-48"/>
      </g>
     </g>
    </g>
    <g id="xtick_3">
     <g id="line2d_3">
      <g>
       <use style="stroke:#000000;stroke-width:0.8;" x="147.458289" xlink:href="#m47fca31302" y="244.6"/>
      </g>
     </g>
     <g id="text_3">
      <!-- 40 -->
      <defs>
       <path d="M 37.796875 64.3125 
L 12.890625 25.390625 
L 37.796875 25.390625 
z
M 35.203125 72.90625 
L 47.609375 72.90625 
L 47.609375 25.390625 
L 58.015625 25.390625 
L 58.015625 17.1875 
L 47.609375 17.1875 
L 47.609375 0 
L 37.796875 0 
L 37.796875 17.1875 
L 4.890625 17.1875 
L 4.890625 26.703125 
z
" id="DejaVuSans-52"/>
      </defs>
      <g transform="translate(141.095789 259.198438)scale(0.1 -0.1)">
       <use xlink:href="#DejaVuSans-52"/>
       <use x="63.623047" xlink:href="#DejaVuSans-48"/>
      </g>
     </g>
    </g>
    <g id="xtick_4">
     <g id="line2d_4">
      <g>
       <use style="stroke:#000000;stroke-width:0.8;" x="191.156432" xlink:href="#m47fca31302" y="244.6"/>
      </g>
     </g>
     <g id="text_4">
      <!-- 60 -->
      <defs>
       <path d="M 33.015625 40.375 
Q 26.375 40.375 22.484375 35.828125 
Q 18.609375 31.296875 18.609375 23.390625 
Q 18.609375 15.53125 22.484375 10.953125 
Q 26.375 6.390625 33.015625 6.390625 
Q 39.65625 6.390625 43.53125 10.953125 
Q 47.40625 15.53125 47.40625 23.390625 
Q 47.40625 31.296875 43.53125 35.828125 
Q 39.65625 40.375 33.015625 40.375 
z
M 52.59375 71.296875 
L 52.59375 62.3125 
Q 48.875 64.0625 45.09375 64.984375 
Q 41.3125 65.921875 37.59375 65.921875 
Q 27.828125 65.921875 22.671875 59.328125 
Q 17.53125 52.734375 16.796875 39.40625 
Q 19.671875 43.65625 24.015625 45.921875 
Q 28.375 48.1875 33.59375 48.1875 
Q 44.578125 48.1875 50.953125 41.515625 
Q 57.328125 34.859375 57.328125 23.390625 
Q 57.328125 12.15625 50.6875 5.359375 
Q 44.046875 -1.421875 33.015625 -1.421875 
Q 20.359375 -1.421875 13.671875 8.265625 
Q 6.984375 17.96875 6.984375 36.375 
Q 6.984375 53.65625 15.1875 63.9375 
Q 23.390625 74.21875 37.203125 74.21875 
Q 40.921875 74.21875 44.703125 73.484375 
Q 48.484375 72.75 52.59375 71.296875 
z
" id="DejaVuSans-54"/>
      </defs>
      <g transform="translate(184.793932 259.198438)scale(0.1 -0.1)">
       <use xlink:href="#DejaVuSans-54"/>
       <use x="63.623047" xlink:href="#DejaVuSans-48"/>
      </g>
     </g>
    </g>
    <g id="xtick_5">
     <g id="line2d_5">
      <g>
       <use style="stroke:#000000;stroke-width:0.8;" x="234.854575" xlink:href="#m47fca31302" y="244.6"/>
      </g>
     </g>
     <g id="text_5">
      <!-- 80 -->
      <defs>
       <path d="M 31.78125 34.625 
Q 24.75 34.625 20.71875 30.859375 
Q 16.703125 27.09375 16.703125 20.515625 
Q 16.703125 13.921875 20.71875 10.15625 
Q 24.75 6.390625 31.78125 6.390625 
Q 38.8125 6.390625 42.859375 10.171875 
Q 46.921875 13.96875 46.921875 20.515625 
Q 46.921875 27.09375 42.890625 30.859375 
Q 38.875 34.625 31.78125 34.625 
z
M 21.921875 38.8125 
Q 15.578125 40.375 12.03125 44.71875 
Q 8.5 49.078125 8.5 55.328125 
Q 8.5 64.0625 14.71875 69.140625 
Q 20.953125 74.21875 31.78125 74.21875 
Q 42.671875 74.21875 48.875 69.140625 
Q 55.078125 64.0625 55.078125 55.328125 
Q 55.078125 49.078125 51.53125 44.71875 
Q 48 40.375 41.703125 38.8125 
Q 48.828125 37.15625 52.796875 32.3125 
Q 56.78125 27.484375 56.78125 20.515625 
Q 56.78125 9.90625 50.3125 4.234375 
Q 43.84375 -1.421875 31.78125 -1.421875 
Q 19.734375 -1.421875 13.25 4.234375 
Q 6.78125 9.90625 6.78125 20.515625 
Q 6.78125 27.484375 10.78125 32.3125 
Q 14.796875 37.15625 21.921875 38.8125 
z
M 18.3125 54.390625 
Q 18.3125 48.734375 21.84375 45.5625 
Q 25.390625 42.390625 31.78125 42.390625 
Q 38.140625 42.390625 41.71875 45.5625 
Q 45.3125 48.734375 45.3125 54.390625 
Q 45.3125 60.0625 41.71875 63.234375 
Q 38.140625 66.40625 31.78125 66.40625 
Q 25.390625 66.40625 21.84375 63.234375 
Q 18.3125 60.0625 18.3125 54.390625 
z
" id="DejaVuSans-56"/>
      </defs>
      <g transform="translate(228.492075 259.198438)scale(0.1 -0.1)">
       <use xlink:href="#DejaVuSans-56"/>
       <use x="63.623047" xlink:href="#DejaVuSans-48"/>
      </g>
     </g>
    </g>
    <g id="text_6">
     <!-- Neurons, $N$ -->
     <defs>
      <path d="M 9.8125 72.90625 
L 23.09375 72.90625 
L 55.421875 11.921875 
L 55.421875 72.90625 
L 64.984375 72.90625 
L 64.984375 0 
L 51.703125 0 
L 19.390625 60.984375 
L 19.390625 0 
L 9.8125 0 
z
" id="DejaVuSans-78"/>
      <path d="M 56.203125 29.59375 
L 56.203125 25.203125 
L 14.890625 25.203125 
Q 15.484375 15.921875 20.484375 11.0625 
Q 25.484375 6.203125 34.421875 6.203125 
Q 39.59375 6.203125 44.453125 7.46875 
Q 49.3125 8.734375 54.109375 11.28125 
L 54.109375 2.78125 
Q 49.265625 0.734375 44.1875 -0.34375 
Q 39.109375 -1.421875 33.890625 -1.421875 
Q 20.796875 -1.421875 13.15625 6.1875 
Q 5.515625 13.8125 5.515625 26.8125 
Q 5.515625 40.234375 12.765625 48.109375 
Q 20.015625 56 32.328125 56 
Q 43.359375 56 49.78125 48.890625 
Q 56.203125 41.796875 56.203125 29.59375 
z
M 47.21875 32.234375 
Q 47.125 39.59375 43.09375 43.984375 
Q 39.0625 48.390625 32.421875 48.390625 
Q 24.90625 48.390625 20.390625 44.140625 
Q 15.875 39.890625 15.1875 32.171875 
z
" id="DejaVuSans-101"/>
      <path d="M 8.5 21.578125 
L 8.5 54.6875 
L 17.484375 54.6875 
L 17.484375 21.921875 
Q 17.484375 14.15625 20.5 10.265625 
Q 23.53125 6.390625 29.59375 6.390625 
Q 36.859375 6.390625 41.078125 11.03125 
Q 45.3125 15.671875 45.3125 23.6875 
L 45.3125 54.6875 
L 54.296875 54.6875 
L 54.296875 0 
L 45.3125 0 
L 45.3125 8.40625 
Q 42.046875 3.421875 37.71875 1 
Q 33.40625 -1.421875 27.6875 -1.421875 
Q 18.265625 -1.421875 13.375 4.4375 
Q 8.5 10.296875 8.5 21.578125 
z
M 31.109375 56 
z
" id="DejaVuSans-117"/>
      <path d="M 41.109375 46.296875 
Q 39.59375 47.171875 37.8125 47.578125 
Q 36.03125 48 33.890625 48 
Q 26.265625 48 22.1875 43.046875 
Q 18.109375 38.09375 18.109375 28.8125 
L 18.109375 0 
L 9.078125 0 
L 9.078125 54.6875 
L 18.109375 54.6875 
L 18.109375 46.1875 
Q 20.953125 51.171875 25.484375 53.578125 
Q 30.03125 56 36.53125 56 
Q 37.453125 56 38.578125 55.875 
Q 39.703125 55.765625 41.0625 55.515625 
z
" id="DejaVuSans-114"/>
      <path d="M 30.609375 48.390625 
Q 23.390625 48.390625 19.1875 42.75 
Q 14.984375 37.109375 14.984375 27.296875 
Q 14.984375 17.484375 19.15625 11.84375 
Q 23.34375 6.203125 30.609375 6.203125 
Q 37.796875 6.203125 41.984375 11.859375 
Q 46.1875 17.53125 46.1875 27.296875 
Q 46.1875 37.015625 41.984375 42.703125 
Q 37.796875 48.390625 30.609375 48.390625 
z
M 30.609375 56 
Q 42.328125 56 49.015625 48.375 
Q 55.71875 40.765625 55.71875 27.296875 
Q 55.71875 13.875 49.015625 6.21875 
Q 42.328125 -1.421875 30.609375 -1.421875 
Q 18.84375 -1.421875 12.171875 6.21875 
Q 5.515625 13.875 5.515625 27.296875 
Q 5.515625 40.765625 12.171875 48.375 
Q 18.84375 56 30.609375 56 
z
" id="DejaVuSans-111"/>
      <path d="M 54.890625 33.015625 
L 54.890625 0 
L 45.90625 0 
L 45.90625 32.71875 
Q 45.90625 40.484375 42.875 44.328125 
Q 39.84375 48.1875 33.796875 48.1875 
Q 26.515625 48.1875 22.3125 43.546875 
Q 18.109375 38.921875 18.109375 30.90625 
L 18.109375 0 
L 9.078125 0 
L 9.078125 54.6875 
L 18.109375 54.6875 
L 18.109375 46.1875 
Q 21.34375 51.125 25.703125 53.5625 
Q 30.078125 56 35.796875 56 
Q 45.21875 56 50.046875 50.171875 
Q 54.890625 44.34375 54.890625 33.015625 
z
" id="DejaVuSans-110"/>
      <path d="M 44.28125 53.078125 
L 44.28125 44.578125 
Q 40.484375 46.53125 36.375 47.5 
Q 32.28125 48.484375 27.875 48.484375 
Q 21.1875 48.484375 17.84375 46.4375 
Q 14.5 44.390625 14.5 40.28125 
Q 14.5 37.15625 16.890625 35.375 
Q 19.28125 33.59375 26.515625 31.984375 
L 29.59375 31.296875 
Q 39.15625 29.25 43.1875 25.515625 
Q 47.21875 21.78125 47.21875 15.09375 
Q 47.21875 7.46875 41.1875 3.015625 
Q 35.15625 -1.421875 24.609375 -1.421875 
Q 20.21875 -1.421875 15.453125 -0.5625 
Q 10.6875 0.296875 5.421875 2 
L 5.421875 11.28125 
Q 10.40625 8.6875 15.234375 7.390625 
Q 20.0625 6.109375 24.8125 6.109375 
Q 31.15625 6.109375 34.5625 8.28125 
Q 37.984375 10.453125 37.984375 14.40625 
Q 37.984375 18.0625 35.515625 20.015625 
Q 33.0625 21.96875 24.703125 23.78125 
L 21.578125 24.515625 
Q 13.234375 26.265625 9.515625 29.90625 
Q 5.8125 33.546875 5.8125 39.890625 
Q 5.8125 47.609375 11.28125 51.796875 
Q 16.75 56 26.8125 56 
Q 31.78125 56 36.171875 55.265625 
Q 40.578125 54.546875 44.28125 53.078125 
z
" id="DejaVuSans-115"/>
      <path d="M 11.71875 12.40625 
L 22.015625 12.40625 
L 22.015625 4 
L 14.015625 -11.625 
L 7.71875 -11.625 
L 11.71875 4 
z
" id="DejaVuSans-44"/>
      <path id="DejaVuSans-32"/>
      <path d="M 16.890625 72.90625 
L 30.171875 72.90625 
L 50.296875 10.40625 
L 62.5 72.90625 
L 72.125 72.90625 
L 57.90625 0 
L 44.578125 0 
L 24.515625 62.890625 
L 12.3125 0 
L 2.6875 0 
z
" id="DejaVuSans-Oblique-78"/>
     </defs>
     <g transform="translate(138.23 272.876562)scale(0.1 -0.1)">
      <use transform="translate(0 0.09375)" xlink:href="#DejaVuSans-78"/>
      <use transform="translate(74.804688 0.09375)" xlink:href="#DejaVuSans-101"/>
      <use transform="translate(136.328125 0.09375)" xlink:href="#DejaVuSans-117"/>
      <use transform="translate(199.707031 0.09375)" xlink:href="#DejaVuSans-114"/>
      <use transform="translate(240.820312 0.09375)" xlink:href="#DejaVuSans-111"/>
      <use transform="translate(302.001953 0.09375)" xlink:href="#DejaVuSans-110"/>
      <use transform="translate(365.380859 0.09375)" xlink:href="#DejaVuSans-115"/>
      <use transform="translate(417.480469 0.09375)" xlink:href="#DejaVuSans-44"/>
      <use transform="translate(449.267578 0.09375)" xlink:href="#DejaVuSans-32"/>
      <use transform="translate(481.054688 0.09375)" xlink:href="#DejaVuSans-Oblique-78"/>
     </g>
    </g>
   </g>
   <g id="matplotlib.axis_2">
    <g id="ytick_1">
     <g id="line2d_6">
      <defs>
       <path d="M 0 0 
L -3.5 0 
" id="ma843a21eeb" style="stroke:#000000;stroke-width:0.8;"/>
      </defs>
      <g>
       <use style="stroke:#000000;stroke-width:0.8;" x="54.272" xlink:href="#ma843a21eeb" y="218.153021"/>
      </g>
     </g>
     <g id="text_7">
      <!-- 50 -->
      <defs>
       <path d="M 10.796875 72.90625 
L 49.515625 72.90625 
L 49.515625 64.59375 
L 19.828125 64.59375 
L 19.828125 46.734375 
Q 21.96875 47.46875 24.109375 47.828125 
Q 26.265625 48.1875 28.421875 48.1875 
Q 40.625 48.1875 47.75 41.5 
Q 54.890625 34.8125 54.890625 23.390625 
Q 54.890625 11.625 47.5625 5.09375 
Q 40.234375 -1.421875 26.90625 -1.421875 
Q 22.3125 -1.421875 17.546875 -0.640625 
Q 12.796875 0.140625 7.71875 1.703125 
L 7.71875 11.625 
Q 12.109375 9.234375 16.796875 8.0625 
Q 21.484375 6.890625 26.703125 6.890625 
Q 35.15625 6.890625 40.078125 11.328125 
Q 45.015625 15.765625 45.015625 23.390625 
Q 45.015625 31 40.078125 35.4375 
Q 35.15625 39.890625 26.703125 39.890625 
Q 22.75 39.890625 18.8125 39.015625 
Q 14.890625 38.140625 10.796875 36.28125 
z
" id="DejaVuSans-53"/>
      </defs>
      <g transform="translate(34.547 221.95224)scale(0.1 -0.1)">
       <use xlink:href="#DejaVuSans-53"/>
       <use x="63.623047" xlink:href="#DejaVuSans-48"/>
      </g>
     </g>
    </g>
    <g id="ytick_2">
     <g id="line2d_7">
      <g>
       <use style="stroke:#000000;stroke-width:0.8;" x="54.272" xlink:href="#ma843a21eeb" y="178.792456"/>
      </g>
     </g>
     <g id="text_8">
      <!-- 100 -->
      <defs>
       <path d="M 12.40625 8.296875 
L 28.515625 8.296875 
L 28.515625 63.921875 
L 10.984375 60.40625 
L 10.984375 69.390625 
L 28.421875 72.90625 
L 38.28125 72.90625 
L 38.28125 8.296875 
L 54.390625 8.296875 
L 54.390625 0 
L 12.40625 0 
z
" id="DejaVuSans-49"/>
      </defs>
      <g transform="translate(28.1845 182.591675)scale(0.1 -0.1)">
       <use xlink:href="#DejaVuSans-49"/>
       <use x="63.623047" xlink:href="#DejaVuSans-48"/>
       <use x="127.246094" xlink:href="#DejaVuSans-48"/>
      </g>
     </g>
    </g>
    <g id="ytick_3">
     <g id="line2d_8">
      <g>
       <use style="stroke:#000000;stroke-width:0.8;" x="54.272" xlink:href="#ma843a21eeb" y="139.431891"/>
      </g>
     </g>
     <g id="text_9">
      <!-- 150 -->
      <g transform="translate(28.1845 143.23111)scale(0.1 -0.1)">
       <use xlink:href="#DejaVuSans-49"/>
       <use x="63.623047" xlink:href="#DejaVuSans-53"/>
       <use x="127.246094" xlink:href="#DejaVuSans-48"/>
      </g>
     </g>
    </g>
    <g id="ytick_4">
     <g id="line2d_9">
      <g>
       <use style="stroke:#000000;stroke-width:0.8;" x="54.272" xlink:href="#ma843a21eeb" y="100.071326"/>
      </g>
     </g>
     <g id="text_10">
      <!-- 200 -->
      <g transform="translate(28.1845 103.870544)scale(0.1 -0.1)">
       <use xlink:href="#DejaVuSans-50"/>
       <use x="63.623047" xlink:href="#DejaVuSans-48"/>
       <use x="127.246094" xlink:href="#DejaVuSans-48"/>
      </g>
     </g>
    </g>
    <g id="ytick_5">
     <g id="line2d_10">
      <g>
       <use style="stroke:#000000;stroke-width:0.8;" x="54.272" xlink:href="#ma843a21eeb" y="60.71076"/>
      </g>
     </g>
     <g id="text_11">
      <!-- 250 -->
      <g transform="translate(28.1845 64.509979)scale(0.1 -0.1)">
       <use xlink:href="#DejaVuSans-50"/>
       <use x="63.623047" xlink:href="#DejaVuSans-53"/>
       <use x="127.246094" xlink:href="#DejaVuSans-48"/>
      </g>
     </g>
    </g>
    <g id="text_12">
     <!-- $d'^{2}$ -->
     <defs>
      <path d="M 41.796875 8.203125 
Q 38.1875 3.46875 33.25 1.015625 
Q 28.328125 -1.421875 22.3125 -1.421875 
Q 14.109375 -1.421875 9.34375 4.171875 
Q 4.59375 9.765625 4.59375 19.484375 
Q 4.59375 27.59375 7.46875 34.9375 
Q 10.359375 42.28125 15.828125 48.09375 
Q 19.4375 51.953125 23.96875 53.96875 
Q 28.515625 56 33.5 56 
Q 38.765625 56 42.796875 53.453125 
Q 46.828125 50.921875 49.03125 46.1875 
L 54.890625 75.984375 
L 63.921875 75.984375 
L 49.125 0 
L 40.09375 0 
z
M 13.921875 21.09375 
Q 13.921875 14.015625 17.109375 10.0625 
Q 20.3125 6.109375 25.984375 6.109375 
Q 30.171875 6.109375 33.765625 8.125 
Q 37.359375 10.15625 40.09375 14.109375 
Q 42.96875 18.21875 44.625 23.578125 
Q 46.296875 28.953125 46.296875 34.1875 
Q 46.296875 40.96875 43.09375 44.765625 
Q 39.890625 48.578125 34.28125 48.578125 
Q 30.03125 48.578125 26.359375 46.578125 
Q 22.703125 44.578125 20.125 40.828125 
Q 17.28125 36.765625 15.59375 31.390625 
Q 13.921875 26.03125 13.921875 21.09375 
z
" id="DejaVuSans-Oblique-100"/>
      <path d="M 3.515625 5.421875 
Q 2.875 5.609375 2.875 6.390625 
L 15.09375 51.8125 
Q 15.671875 53.65625 17.078125 54.78125 
Q 18.5 55.90625 20.3125 55.90625 
Q 22.65625 55.90625 24.4375 54.359375 
Q 26.21875 52.828125 26.21875 50.484375 
Q 26.21875 49.46875 25.6875 48.1875 
L 7.625 4.984375 
Q 7.28125 4.296875 6.6875 4.296875 
Q 6.15625 4.296875 5 4.78125 
Q 3.859375 5.28125 3.515625 5.421875 
z
" id="Cmsy10-48"/>
     </defs>
     <g transform="translate(22.104813 142.48)rotate(-90)scale(0.1 -0.1)">
      <use transform="translate(0 0.765625)" xlink:href="#DejaVuSans-Oblique-100"/>
      <use transform="translate(70.924271 39.046875)scale(0.7)" xlink:href="#Cmsy10-48"/>
      <use transform="translate(93.858841 39.046875)scale(0.7)" xlink:href="#DejaVuSans-50"/>
     </g>
    </g>
   </g>
   <g id="line2d_11">
    <path clip-path="url(#p72f6156c97)" d="M 64.431818 230.714434 
L 70.98654 203.634272 
L 81.911075 164.811375 
L 92.835611 130.732537 
L 103.760147 98.677868 
L 114.684682 41.075715 
" style="fill:none;stroke:#1f77b4;stroke-linecap:square;stroke-width:1.5;"/>
    <defs>
     <path d="M 0 3 
C 0.795609 3 1.55874 2.683901 2.12132 2.12132 
C 2.683901 1.55874 3 0.795609 3 0 
C 3 -0.795609 2.683901 -1.55874 2.12132 -2.12132 
C 1.55874 -2.683901 0.795609 -3 0 -3 
C -0.795609 -3 -1.55874 -2.683901 -2.12132 -2.12132 
C -2.683901 -1.55874 -3 -0.795609 -3 0 
C -3 0.795609 -2.683901 1.55874 -2.12132 2.12132 
C -1.55874 2.683901 -0.795609 3 0 3 
z
" id="m88bf396d16" style="stroke:#1f77b4;"/>
    </defs>
    <g clip-path="url(#p72f6156c97)">
     <use style="fill:#1f77b4;stroke:#1f77b4;" x="64.431818" xlink:href="#m88bf396d16" y="230.714434"/>
     <use style="fill:#1f77b4;stroke:#1f77b4;" x="70.98654" xlink:href="#m88bf396d16" y="203.634272"/>
     <use style="fill:#1f77b4;stroke:#1f77b4;" x="81.911075" xlink:href="#m88bf396d16" y="164.811375"/>
     <use style="fill:#1f77b4;stroke:#1f77b4;" x="92.835611" xlink:href="#m88bf396d16" y="130.732537"/>
     <use style="fill:#1f77b4;stroke:#1f77b4;" x="103.760147" xlink:href="#m88bf396d16" y="98.677868"/>
     <use style="fill:#1f77b4;stroke:#1f77b4;" x="114.684682" xlink:href="#m88bf396d16" y="41.075715"/>
    </g>
   </g>
   <g id="line2d_12">
    <path clip-path="url(#p72f6156c97)" d="M 64.431818 232.355115 
L 70.98654 212.969787 
L 81.911075 199.967746 
L 92.835611 197.726806 
L 103.760147 202.361654 
L 114.684682 206.400452 
" style="fill:none;stroke:#ff7f0e;stroke-linecap:square;stroke-width:1.5;"/>
    <defs>
     <path d="M 0 3 
C 0.795609 3 1.55874 2.683901 2.12132 2.12132 
C 2.683901 1.55874 3 0.795609 3 0 
C 3 -0.795609 2.683901 -1.55874 2.12132 -2.12132 
C 1.55874 -2.683901 0.795609 -3 0 -3 
C -0.795609 -3 -1.55874 -2.683901 -2.12132 -2.12132 
C -2.683901 -1.55874 -3 -0.795609 -3 0 
C -3 0.795609 -2.683901 1.55874 -2.12132 2.12132 
C -1.55874 2.683901 -0.795609 3 0 3 
z
" id="md480d3073f" style="stroke:#ff7f0e;"/>
    </defs>
    <g clip-path="url(#p72f6156c97)">
     <use style="fill:#ff7f0e;stroke:#ff7f0e;" x="64.431818" xlink:href="#md480d3073f" y="232.355115"/>
     <use style="fill:#ff7f0e;stroke:#ff7f0e;" x="70.98654" xlink:href="#md480d3073f" y="212.969787"/>
     <use style="fill:#ff7f0e;stroke:#ff7f0e;" x="81.911075" xlink:href="#md480d3073f" y="199.967746"/>
     <use style="fill:#ff7f0e;stroke:#ff7f0e;" x="92.835611" xlink:href="#md480d3073f" y="197.726806"/>
     <use style="fill:#ff7f0e;stroke:#ff7f0e;" x="103.760147" xlink:href="#md480d3073f" y="202.361654"/>
     <use style="fill:#ff7f0e;stroke:#ff7f0e;" x="114.684682" xlink:href="#md480d3073f" y="206.400452"/>
    </g>
   </g>
   <g id="line2d_13">
    <path clip-path="url(#p72f6156c97)" d="M 64.431818 230.714434 
L 70.98654 215.029186 
L 81.911075 197.41709 
L 92.835611 187.749832 
L 103.760147 181.020957 
L 114.684682 175.363675 
L 125.609218 168.406338 
L 136.533754 165.21581 
L 147.458289 164.502027 
L 158.382825 160.334292 
L 169.307361 160.242028 
L 180.231896 157.2916 
L 191.156432 158.261882 
L 202.080968 158.331174 
L 213.005503 157.402035 
L 223.930039 153.429702 
L 234.854575 154.152056 
L 245.77911 155.701544 
L 256.703646 152.887788 
L 267.628182 154.545412 
" style="fill:none;stroke:#2ca02c;stroke-linecap:square;stroke-width:1.5;"/>
    <defs>
     <path d="M 0 3 
C 0.795609 3 1.55874 2.683901 2.12132 2.12132 
C 2.683901 1.55874 3 0.795609 3 0 
C 3 -0.795609 2.683901 -1.55874 2.12132 -2.12132 
C 1.55874 -2.683901 0.795609 -3 0 -3 
C -0.795609 -3 -1.55874 -2.683901 -2.12132 -2.12132 
C -2.683901 -1.55874 -3 -0.795609 -3 0 
C -3 0.795609 -2.683901 1.55874 -2.12132 2.12132 
C -1.55874 2.683901 -0.795609 3 0 3 
z
" id="m189368c2bd" style="stroke:#2ca02c;"/>
    </defs>
    <g clip-path="url(#p72f6156c97)">
     <use style="fill:#2ca02c;stroke:#2ca02c;" x="64.431818" xlink:href="#m189368c2bd" y="230.714434"/>
     <use style="fill:#2ca02c;stroke:#2ca02c;" x="70.98654" xlink:href="#m189368c2bd" y="215.029186"/>
     <use style="fill:#2ca02c;stroke:#2ca02c;" x="81.911075" xlink:href="#m189368c2bd" y="197.41709"/>
     <use style="fill:#2ca02c;stroke:#2ca02c;" x="92.835611" xlink:href="#m189368c2bd" y="187.749832"/>
     <use style="fill:#2ca02c;stroke:#2ca02c;" x="103.760147" xlink:href="#m189368c2bd" y="181.020957"/>
     <use style="fill:#2ca02c;stroke:#2ca02c;" x="114.684682" xlink:href="#m189368c2bd" y="175.363675"/>
     <use style="fill:#2ca02c;stroke:#2ca02c;" x="125.609218" xlink:href="#m189368c2bd" y="168.406338"/>
     <use style="fill:#2ca02c;stroke:#2ca02c;" x="136.533754" xlink:href="#m189368c2bd" y="165.21581"/>
     <use style="fill:#2ca02c;stroke:#2ca02c;" x="147.458289" xlink:href="#m189368c2bd" y="164.502027"/>
     <use style="fill:#2ca02c;stroke:#2ca02c;" x="158.382825" xlink:href="#m189368c2bd" y="160.334292"/>
     <use style="fill:#2ca02c;stroke:#2ca02c;" x="169.307361" xlink:href="#m189368c2bd" y="160.242028"/>
     <use style="fill:#2ca02c;stroke:#2ca02c;" x="180.231896" xlink:href="#m189368c2bd" y="157.2916"/>
     <use style="fill:#2ca02c;stroke:#2ca02c;" x="191.156432" xlink:href="#m189368c2bd" y="158.261882"/>
     <use style="fill:#2ca02c;stroke:#2ca02c;" x="202.080968" xlink:href="#m189368c2bd" y="158.331174"/>
     <use style="fill:#2ca02c;stroke:#2ca02c;" x="213.005503" xlink:href="#m189368c2bd" y="157.402035"/>
     <use style="fill:#2ca02c;stroke:#2ca02c;" x="223.930039" xlink:href="#m189368c2bd" y="153.429702"/>
     <use style="fill:#2ca02c;stroke:#2ca02c;" x="234.854575" xlink:href="#m189368c2bd" y="154.152056"/>
     <use style="fill:#2ca02c;stroke:#2ca02c;" x="245.77911" xlink:href="#m189368c2bd" y="155.701544"/>
     <use style="fill:#2ca02c;stroke:#2ca02c;" x="256.703646" xlink:href="#m189368c2bd" y="152.887788"/>
     <use style="fill:#2ca02c;stroke:#2ca02c;" x="267.628182" xlink:href="#m189368c2bd" y="154.545412"/>
    </g>
   </g>
   <g id="line2d_14">
    <path clip-path="url(#p72f6156c97)" d="M 64.431818 232.355115 
L 70.98654 218.118089 
L 81.911075 203.66293 
L 92.835611 194.967981 
L 103.760147 187.870999 
L 114.684682 179.9444 
L 125.609218 175.833671 
L 136.533754 172.711519 
L 147.458289 171.340578 
L 158.382825 170.442716 
L 169.307361 169.115469 
L 180.231896 164.656788 
L 191.156432 166.855339 
L 202.080968 166.721571 
L 213.005503 161.792969 
L 223.930039 163.134555 
L 234.854575 161.896561 
L 245.77911 162.673887 
L 256.703646 163.290611 
L 267.628182 159.363675 
" style="fill:none;stroke:#d62728;stroke-linecap:square;stroke-width:1.5;"/>
    <defs>
     <path d="M 0 3 
C 0.795609 3 1.55874 2.683901 2.12132 2.12132 
C 2.683901 1.55874 3 0.795609 3 0 
C 3 -0.795609 2.683901 -1.55874 2.12132 -2.12132 
C 1.55874 -2.683901 0.795609 -3 0 -3 
C -0.795609 -3 -1.55874 -2.683901 -2.12132 -2.12132 
C -2.683901 -1.55874 -3 -0.795609 -3 0 
C -3 0.795609 -2.683901 1.55874 -2.12132 2.12132 
C -1.55874 2.683901 -0.795609 3 0 3 
z
" id="m74a083ff58" style="stroke:#d62728;"/>
    </defs>
    <g clip-path="url(#p72f6156c97)">
     <use style="fill:#d62728;stroke:#d62728;" x="64.431818" xlink:href="#m74a083ff58" y="232.355115"/>
     <use style="fill:#d62728;stroke:#d62728;" x="70.98654" xlink:href="#m74a083ff58" y="218.118089"/>
     <use style="fill:#d62728;stroke:#d62728;" x="81.911075" xlink:href="#m74a083ff58" y="203.66293"/>
     <use style="fill:#d62728;stroke:#d62728;" x="92.835611" xlink:href="#m74a083ff58" y="194.967981"/>
     <use style="fill:#d62728;stroke:#d62728;" x="103.760147" xlink:href="#m74a083ff58" y="187.870999"/>
     <use style="fill:#d62728;stroke:#d62728;" x="114.684682" xlink:href="#m74a083ff58" y="179.9444"/>
     <use style="fill:#d62728;stroke:#d62728;" x="125.609218" xlink:href="#m74a083ff58" y="175.833671"/>
     <use style="fill:#d62728;stroke:#d62728;" x="136.533754" xlink:href="#m74a083ff58" y="172.711519"/>
     <use style="fill:#d62728;stroke:#d62728;" x="147.458289" xlink:href="#m74a083ff58" y="171.340578"/>
     <use style="fill:#d62728;stroke:#d62728;" x="158.382825" xlink:href="#m74a083ff58" y="170.442716"/>
     <use style="fill:#d62728;stroke:#d62728;" x="169.307361" xlink:href="#m74a083ff58" y="169.115469"/>
     <use style="fill:#d62728;stroke:#d62728;" x="180.231896" xlink:href="#m74a083ff58" y="164.656788"/>
     <use style="fill:#d62728;stroke:#d62728;" x="191.156432" xlink:href="#m74a083ff58" y="166.855339"/>
     <use style="fill:#d62728;stroke:#d62728;" x="202.080968" xlink:href="#m74a083ff58" y="166.721571"/>
     <use style="fill:#d62728;stroke:#d62728;" x="213.005503" xlink:href="#m74a083ff58" y="161.792969"/>
     <use style="fill:#d62728;stroke:#d62728;" x="223.930039" xlink:href="#m74a083ff58" y="163.134555"/>
     <use style="fill:#d62728;stroke:#d62728;" x="234.854575" xlink:href="#m74a083ff58" y="161.896561"/>
     <use style="fill:#d62728;stroke:#d62728;" x="245.77911" xlink:href="#m74a083ff58" y="162.673887"/>
     <use style="fill:#d62728;stroke:#d62728;" x="256.703646" xlink:href="#m74a083ff58" y="163.290611"/>
     <use style="fill:#d62728;stroke:#d62728;" x="267.628182" xlink:href="#m74a083ff58" y="159.363675"/>
    </g>
   </g>
   <g id="patch_3">
    <path d="M 54.272 244.6 
L 54.272 26.16 
" style="fill:none;stroke:#000000;stroke-linecap:square;stroke-linejoin:miter;stroke-width:0.8;"/>
   </g>
   <g id="patch_4">
    <path d="M 54.272 244.6 
L 277.788 244.6 
" style="fill:none;stroke:#000000;stroke-linecap:square;stroke-linejoin:miter;stroke-width:0.8;"/>
   </g>
   <g id="text_13">
    <!-- $k = 50$ -->
    <defs>
     <path d="M 18.3125 75.984375 
L 27.296875 75.984375 
L 18.703125 31.6875 
L 49.515625 54.6875 
L 61.1875 54.6875 
L 26.8125 28.515625 
L 51.90625 0 
L 41.015625 0 
L 17.671875 26.703125 
L 12.5 0 
L 3.515625 0 
z
" id="DejaVuSans-Oblique-107"/>
     <path d="M 10.59375 45.40625 
L 73.1875 45.40625 
L 73.1875 37.203125 
L 10.59375 37.203125 
z
M 10.59375 25.484375 
L 73.1875 25.484375 
L 73.1875 17.1875 
L 10.59375 17.1875 
z
" id="DejaVuSans-61"/>
    </defs>
    <g transform="translate(147.55 20.16)scale(0.12 -0.12)">
     <use transform="translate(0 0.015625)" xlink:href="#DejaVuSans-Oblique-107"/>
     <use transform="translate(77.392578 0.015625)" xlink:href="#DejaVuSans-61"/>
     <use transform="translate(180.664062 0.015625)" xlink:href="#DejaVuSans-53"/>
     <use transform="translate(244.287109 0.015625)" xlink:href="#DejaVuSans-48"/>
    </g>
   </g>
   <g id="legend_1">
    <g id="line2d_15">
     <path d="M 190.4005 39.258437 
L 210.4005 39.258437 
" style="fill:none;stroke:#1f77b4;stroke-linecap:square;stroke-width:1.5;"/>
    </g>
    <g id="line2d_16">
     <g>
      <use style="fill:#1f77b4;stroke:#1f77b4;" x="200.4005" xlink:href="#m88bf396d16" y="39.258437"/>
     </g>
    </g>
    <g id="text_14">
     <!-- train -->
     <defs>
      <path d="M 18.3125 70.21875 
L 18.3125 54.6875 
L 36.8125 54.6875 
L 36.8125 47.703125 
L 18.3125 47.703125 
L 18.3125 18.015625 
Q 18.3125 11.328125 20.140625 9.421875 
Q 21.96875 7.515625 27.59375 7.515625 
L 36.8125 7.515625 
L 36.8125 0 
L 27.59375 0 
Q 17.1875 0 13.234375 3.875 
Q 9.28125 7.765625 9.28125 18.015625 
L 9.28125 47.703125 
L 2.6875 47.703125 
L 2.6875 54.6875 
L 9.28125 54.6875 
L 9.28125 70.21875 
z
" id="DejaVuSans-116"/>
      <path d="M 34.28125 27.484375 
Q 23.390625 27.484375 19.1875 25 
Q 14.984375 22.515625 14.984375 16.5 
Q 14.984375 11.71875 18.140625 8.90625 
Q 21.296875 6.109375 26.703125 6.109375 
Q 34.1875 6.109375 38.703125 11.40625 
Q 43.21875 16.703125 43.21875 25.484375 
L 43.21875 27.484375 
z
M 52.203125 31.203125 
L 52.203125 0 
L 43.21875 0 
L 43.21875 8.296875 
Q 40.140625 3.328125 35.546875 0.953125 
Q 30.953125 -1.421875 24.3125 -1.421875 
Q 15.921875 -1.421875 10.953125 3.296875 
Q 6 8.015625 6 15.921875 
Q 6 25.140625 12.171875 29.828125 
Q 18.359375 34.515625 30.609375 34.515625 
L 43.21875 34.515625 
L 43.21875 35.40625 
Q 43.21875 41.609375 39.140625 45 
Q 35.0625 48.390625 27.6875 48.390625 
Q 23 48.390625 18.546875 47.265625 
Q 14.109375 46.140625 10.015625 43.890625 
L 10.015625 52.203125 
Q 14.9375 54.109375 19.578125 55.046875 
Q 24.21875 56 28.609375 56 
Q 40.484375 56 46.34375 49.84375 
Q 52.203125 43.703125 52.203125 31.203125 
z
" id="DejaVuSans-97"/>
      <path d="M 9.421875 54.6875 
L 18.40625 54.6875 
L 18.40625 0 
L 9.421875 0 
z
M 9.421875 75.984375 
L 18.40625 75.984375 
L 18.40625 64.59375 
L 9.421875 64.59375 
z
" id="DejaVuSans-105"/>
     </defs>
     <g transform="translate(218.4005 42.758437)scale(0.1 -0.1)">
      <use xlink:href="#DejaVuSans-116"/>
      <use x="39.208984" xlink:href="#DejaVuSans-114"/>
      <use x="80.322266" xlink:href="#DejaVuSans-97"/>
      <use x="141.601562" xlink:href="#DejaVuSans-105"/>
      <use x="169.384766" xlink:href="#DejaVuSans-110"/>
     </g>
    </g>
    <g id="line2d_17">
     <path d="M 190.4005 53.936562 
L 210.4005 53.936562 
" style="fill:none;stroke:#ff7f0e;stroke-linecap:square;stroke-width:1.5;"/>
    </g>
    <g id="line2d_18">
     <g>
      <use style="fill:#ff7f0e;stroke:#ff7f0e;" x="200.4005" xlink:href="#md480d3073f" y="53.936562"/>
     </g>
    </g>
    <g id="text_15">
     <!-- test -->
     <g transform="translate(218.4005 57.436562)scale(0.1 -0.1)">
      <use xlink:href="#DejaVuSans-116"/>
      <use x="39.208984" xlink:href="#DejaVuSans-101"/>
      <use x="100.732422" xlink:href="#DejaVuSans-115"/>
      <use x="152.832031" xlink:href="#DejaVuSans-116"/>
     </g>
    </g>
    <g id="line2d_19">
     <path d="M 190.4005 68.614687 
L 210.4005 68.614687 
" style="fill:none;stroke:#2ca02c;stroke-linecap:square;stroke-width:1.5;"/>
    </g>
    <g id="line2d_20">
     <g>
      <use style="fill:#2ca02c;stroke:#2ca02c;" x="200.4005" xlink:href="#m189368c2bd" y="68.614687"/>
     </g>
    </g>
    <g id="text_16">
     <!-- train, TDR -->
     <defs>
      <path d="M -0.296875 72.90625 
L 61.375 72.90625 
L 61.375 64.59375 
L 35.5 64.59375 
L 35.5 0 
L 25.59375 0 
L 25.59375 64.59375 
L -0.296875 64.59375 
z
" id="DejaVuSans-84"/>
      <path d="M 19.671875 64.796875 
L 19.671875 8.109375 
L 31.59375 8.109375 
Q 46.6875 8.109375 53.6875 14.9375 
Q 60.6875 21.78125 60.6875 36.53125 
Q 60.6875 51.171875 53.6875 57.984375 
Q 46.6875 64.796875 31.59375 64.796875 
z
M 9.8125 72.90625 
L 30.078125 72.90625 
Q 51.265625 72.90625 61.171875 64.09375 
Q 71.09375 55.28125 71.09375 36.53125 
Q 71.09375 17.671875 61.125 8.828125 
Q 51.171875 0 30.078125 0 
L 9.8125 0 
z
" id="DejaVuSans-68"/>
      <path d="M 44.390625 34.1875 
Q 47.5625 33.109375 50.5625 29.59375 
Q 53.5625 26.078125 56.59375 19.921875 
L 66.609375 0 
L 56 0 
L 46.6875 18.703125 
Q 43.0625 26.03125 39.671875 28.421875 
Q 36.28125 30.8125 30.421875 30.8125 
L 19.671875 30.8125 
L 19.671875 0 
L 9.8125 0 
L 9.8125 72.90625 
L 32.078125 72.90625 
Q 44.578125 72.90625 50.734375 67.671875 
Q 56.890625 62.453125 56.890625 51.90625 
Q 56.890625 45.015625 53.6875 40.46875 
Q 50.484375 35.9375 44.390625 34.1875 
z
M 19.671875 64.796875 
L 19.671875 38.921875 
L 32.078125 38.921875 
Q 39.203125 38.921875 42.84375 42.21875 
Q 46.484375 45.515625 46.484375 51.90625 
Q 46.484375 58.296875 42.84375 61.546875 
Q 39.203125 64.796875 32.078125 64.796875 
z
" id="DejaVuSans-82"/>
     </defs>
     <g transform="translate(218.4005 72.114687)scale(0.1 -0.1)">
      <use xlink:href="#DejaVuSans-116"/>
      <use x="39.208984" xlink:href="#DejaVuSans-114"/>
      <use x="80.322266" xlink:href="#DejaVuSans-97"/>
      <use x="141.601562" xlink:href="#DejaVuSans-105"/>
      <use x="169.384766" xlink:href="#DejaVuSans-110"/>
      <use x="232.763672" xlink:href="#DejaVuSans-44"/>
      <use x="264.550781" xlink:href="#DejaVuSans-32"/>
      <use x="296.337891" xlink:href="#DejaVuSans-84"/>
      <use x="357.421875" xlink:href="#DejaVuSans-68"/>
      <use x="434.423828" xlink:href="#DejaVuSans-82"/>
     </g>
    </g>
    <g id="line2d_21">
     <path d="M 190.4005 83.292812 
L 210.4005 83.292812 
" style="fill:none;stroke:#d62728;stroke-linecap:square;stroke-width:1.5;"/>
    </g>
    <g id="line2d_22">
     <g>
      <use style="fill:#d62728;stroke:#d62728;" x="200.4005" xlink:href="#m74a083ff58" y="83.292812"/>
     </g>
    </g>
    <g id="text_17">
     <!-- test, TDR -->
     <g transform="translate(218.4005 86.792812)scale(0.1 -0.1)">
      <use xlink:href="#DejaVuSans-116"/>
      <use x="39.208984" xlink:href="#DejaVuSans-101"/>
      <use x="100.732422" xlink:href="#DejaVuSans-115"/>
      <use x="152.832031" xlink:href="#DejaVuSans-116"/>
      <use x="192.041016" xlink:href="#DejaVuSans-44"/>
      <use x="223.828125" xlink:href="#DejaVuSans-32"/>
      <use x="255.615234" xlink:href="#DejaVuSans-84"/>
      <use x="316.699219" xlink:href="#DejaVuSans-68"/>
      <use x="393.701172" xlink:href="#DejaVuSans-82"/>
     </g>
    </g>
   </g>
  </g>
  <g id="axes_2">
   <g id="patch_5">
    <path d="M 340.718 244.6 
L 564.234 244.6 
L 564.234 26.16 
L 340.718 26.16 
z
" style="fill:#ffffff;"/>
   </g>
   <g id="matplotlib.axis_3">
    <g id="xtick_6">
     <g id="line2d_23">
      <g>
       <use style="stroke:#000000;stroke-width:0.8;" x="350.877818" xlink:href="#m47fca31302" y="244.6"/>
      </g>
     </g>
     <g id="text_18">
      <!-- 0 -->
      <g transform="translate(347.696568 259.198438)scale(0.1 -0.1)">
       <use xlink:href="#DejaVuSans-48"/>
      </g>
     </g>
    </g>
    <g id="xtick_7">
     <g id="line2d_24">
      <g>
       <use style="stroke:#000000;stroke-width:0.8;" x="392.346464" xlink:href="#m47fca31302" y="244.6"/>
      </g>
     </g>
     <g id="text_19">
      <!-- 10 -->
      <g transform="translate(385.983964 259.198438)scale(0.1 -0.1)">
       <use xlink:href="#DejaVuSans-49"/>
       <use x="63.623047" xlink:href="#DejaVuSans-48"/>
      </g>
     </g>
    </g>
    <g id="xtick_8">
     <g id="line2d_25">
      <g>
       <use style="stroke:#000000;stroke-width:0.8;" x="433.815109" xlink:href="#m47fca31302" y="244.6"/>
      </g>
     </g>
     <g id="text_20">
      <!-- 20 -->
      <g transform="translate(427.452609 259.198438)scale(0.1 -0.1)">
       <use xlink:href="#DejaVuSans-50"/>
       <use x="63.623047" xlink:href="#DejaVuSans-48"/>
      </g>
     </g>
    </g>
    <g id="xtick_9">
     <g id="line2d_26">
      <g>
       <use style="stroke:#000000;stroke-width:0.8;" x="475.283755" xlink:href="#m47fca31302" y="244.6"/>
      </g>
     </g>
     <g id="text_21">
      <!-- 30 -->
      <defs>
       <path d="M 40.578125 39.3125 
Q 47.65625 37.796875 51.625 33 
Q 55.609375 28.21875 55.609375 21.1875 
Q 55.609375 10.40625 48.1875 4.484375 
Q 40.765625 -1.421875 27.09375 -1.421875 
Q 22.515625 -1.421875 17.65625 -0.515625 
Q 12.796875 0.390625 7.625 2.203125 
L 7.625 11.71875 
Q 11.71875 9.328125 16.59375 8.109375 
Q 21.484375 6.890625 26.8125 6.890625 
Q 36.078125 6.890625 40.9375 10.546875 
Q 45.796875 14.203125 45.796875 21.1875 
Q 45.796875 27.640625 41.28125 31.265625 
Q 36.765625 34.90625 28.71875 34.90625 
L 20.21875 34.90625 
L 20.21875 43.015625 
L 29.109375 43.015625 
Q 36.375 43.015625 40.234375 45.921875 
Q 44.09375 48.828125 44.09375 54.296875 
Q 44.09375 59.90625 40.109375 62.90625 
Q 36.140625 65.921875 28.71875 65.921875 
Q 24.65625 65.921875 20.015625 65.03125 
Q 15.375 64.15625 9.8125 62.3125 
L 9.8125 71.09375 
Q 15.4375 72.65625 20.34375 73.4375 
Q 25.25 74.21875 29.59375 74.21875 
Q 40.828125 74.21875 47.359375 69.109375 
Q 53.90625 64.015625 53.90625 55.328125 
Q 53.90625 49.265625 50.4375 45.09375 
Q 46.96875 40.921875 40.578125 39.3125 
z
" id="DejaVuSans-51"/>
      </defs>
      <g transform="translate(468.921255 259.198438)scale(0.1 -0.1)">
       <use xlink:href="#DejaVuSans-51"/>
       <use x="63.623047" xlink:href="#DejaVuSans-48"/>
      </g>
     </g>
    </g>
    <g id="xtick_10">
     <g id="line2d_27">
      <g>
       <use style="stroke:#000000;stroke-width:0.8;" x="516.752401" xlink:href="#m47fca31302" y="244.6"/>
      </g>
     </g>
     <g id="text_22">
      <!-- 40 -->
      <g transform="translate(510.389901 259.198438)scale(0.1 -0.1)">
       <use xlink:href="#DejaVuSans-52"/>
       <use x="63.623047" xlink:href="#DejaVuSans-48"/>
      </g>
     </g>
    </g>
    <g id="xtick_11">
     <g id="line2d_28">
      <g>
       <use style="stroke:#000000;stroke-width:0.8;" x="558.221046" xlink:href="#m47fca31302" y="244.6"/>
      </g>
     </g>
     <g id="text_23">
      <!-- 50 -->
      <g transform="translate(551.858546 259.198438)scale(0.1 -0.1)">
       <use xlink:href="#DejaVuSans-53"/>
       <use x="63.623047" xlink:href="#DejaVuSans-48"/>
      </g>
     </g>
    </g>
    <g id="text_24">
     <!-- $\alpha$ -->
     <defs>
      <path d="M 40.921875 25.4375 
L 40.96875 36.71875 
Q 41.015625 48.25 32.328125 48.296875 
Q 25.828125 48.34375 21.78125 42.921875 
Q 16.703125 36.234375 14.984375 27.296875 
Q 12.890625 16.546875 15.53125 11.421875 
Q 18.265625 6.203125 24.171875 6.203125 
Q 30.71875 6.203125 36.234375 16.609375 
z
M 33.84375 55.90625 
Q 49.078125 56.15625 48.875 40.375 
Q 48.875 40.375 56.5 54.6875 
L 64.5 54.6875 
L 48.734375 25.046875 
L 48.578125 14.359375 
Q 48.578125 11.96875 49.90625 9.96875 
Q 51.421875 7.625 52.984375 7.625 
L 57.328125 7.625 
L 55.859375 0 
L 50.4375 0 
Q 45.84375 0 42.53125 4.109375 
Q 40.96875 6.15625 40.921875 10.453125 
Q 37.75 5.21875 32.28125 0.78125 
Q 29.6875 -1.265625 22.703125 -1.21875 
Q 11.28125 -1.125 7.125 6.203125 
Q 2.875 13.8125 5.515625 27.296875 
Q 8.34375 41.796875 15.765625 48.390625 
Q 24.125 55.765625 33.84375 55.90625 
z
" id="DejaVuSans-Oblique-945"/>
     </defs>
     <g transform="translate(449.176 272.876562)scale(0.1 -0.1)">
      <use transform="translate(0 0.84375)" xlink:href="#DejaVuSans-Oblique-945"/>
     </g>
    </g>
   </g>
   <g id="matplotlib.axis_4">
    <g id="ytick_6">
     <g id="line2d_29">
      <g>
       <use style="stroke:#000000;stroke-width:0.8;" x="340.718" xlink:href="#ma843a21eeb" y="234.670909"/>
      </g>
     </g>
     <g id="text_25">
      <!-- 0.000 -->
      <defs>
       <path d="M 10.6875 12.40625 
L 21 12.40625 
L 21 0 
L 10.6875 0 
z
" id="DejaVuSans-46"/>
      </defs>
      <g transform="translate(305.089875 238.470128)scale(0.1 -0.1)">
       <use xlink:href="#DejaVuSans-48"/>
       <use x="63.623047" xlink:href="#DejaVuSans-46"/>
       <use x="95.410156" xlink:href="#DejaVuSans-48"/>
       <use x="159.033203" xlink:href="#DejaVuSans-48"/>
       <use x="222.65625" xlink:href="#DejaVuSans-48"/>
      </g>
     </g>
    </g>
    <g id="ytick_7">
     <g id="line2d_30">
      <g>
       <use style="stroke:#000000;stroke-width:0.8;" x="340.718" xlink:href="#ma843a21eeb" y="204.77446"/>
      </g>
     </g>
     <g id="text_26">
      <!-- 0.025 -->
      <g transform="translate(305.089875 208.573678)scale(0.1 -0.1)">
       <use xlink:href="#DejaVuSans-48"/>
       <use x="63.623047" xlink:href="#DejaVuSans-46"/>
       <use x="95.410156" xlink:href="#DejaVuSans-48"/>
       <use x="159.033203" xlink:href="#DejaVuSans-50"/>
       <use x="222.65625" xlink:href="#DejaVuSans-53"/>
      </g>
     </g>
    </g>
    <g id="ytick_8">
     <g id="line2d_31">
      <g>
       <use style="stroke:#000000;stroke-width:0.8;" x="340.718" xlink:href="#ma843a21eeb" y="174.87801"/>
      </g>
     </g>
     <g id="text_27">
      <!-- 0.050 -->
      <g transform="translate(305.089875 178.677229)scale(0.1 -0.1)">
       <use xlink:href="#DejaVuSans-48"/>
       <use x="63.623047" xlink:href="#DejaVuSans-46"/>
       <use x="95.410156" xlink:href="#DejaVuSans-48"/>
       <use x="159.033203" xlink:href="#DejaVuSans-53"/>
       <use x="222.65625" xlink:href="#DejaVuSans-48"/>
      </g>
     </g>
    </g>
    <g id="ytick_9">
     <g id="line2d_32">
      <g>
       <use style="stroke:#000000;stroke-width:0.8;" x="340.718" xlink:href="#ma843a21eeb" y="144.98156"/>
      </g>
     </g>
     <g id="text_28">
      <!-- 0.075 -->
      <defs>
       <path d="M 8.203125 72.90625 
L 55.078125 72.90625 
L 55.078125 68.703125 
L 28.609375 0 
L 18.3125 0 
L 43.21875 64.59375 
L 8.203125 64.59375 
z
" id="DejaVuSans-55"/>
      </defs>
      <g transform="translate(305.089875 148.780779)scale(0.1 -0.1)">
       <use xlink:href="#DejaVuSans-48"/>
       <use x="63.623047" xlink:href="#DejaVuSans-46"/>
       <use x="95.410156" xlink:href="#DejaVuSans-48"/>
       <use x="159.033203" xlink:href="#DejaVuSans-55"/>
       <use x="222.65625" xlink:href="#DejaVuSans-53"/>
      </g>
     </g>
    </g>
    <g id="ytick_10">
     <g id="line2d_33">
      <g>
       <use style="stroke:#000000;stroke-width:0.8;" x="340.718" xlink:href="#ma843a21eeb" y="115.085111"/>
      </g>
     </g>
     <g id="text_29">
      <!-- 0.100 -->
      <g transform="translate(305.089875 118.88433)scale(0.1 -0.1)">
       <use xlink:href="#DejaVuSans-48"/>
       <use x="63.623047" xlink:href="#DejaVuSans-46"/>
       <use x="95.410156" xlink:href="#DejaVuSans-49"/>
       <use x="159.033203" xlink:href="#DejaVuSans-48"/>
       <use x="222.65625" xlink:href="#DejaVuSans-48"/>
      </g>
     </g>
    </g>
    <g id="ytick_11">
     <g id="line2d_34">
      <g>
       <use style="stroke:#000000;stroke-width:0.8;" x="340.718" xlink:href="#ma843a21eeb" y="85.188661"/>
      </g>
     </g>
     <g id="text_30">
      <!-- 0.125 -->
      <g transform="translate(305.089875 88.98788)scale(0.1 -0.1)">
       <use xlink:href="#DejaVuSans-48"/>
       <use x="63.623047" xlink:href="#DejaVuSans-46"/>
       <use x="95.410156" xlink:href="#DejaVuSans-49"/>
       <use x="159.033203" xlink:href="#DejaVuSans-50"/>
       <use x="222.65625" xlink:href="#DejaVuSans-53"/>
      </g>
     </g>
    </g>
    <g id="ytick_12">
     <g id="line2d_35">
      <g>
       <use style="stroke:#000000;stroke-width:0.8;" x="340.718" xlink:href="#ma843a21eeb" y="55.292212"/>
      </g>
     </g>
     <g id="text_31">
      <!-- 0.150 -->
      <g transform="translate(305.089875 59.09143)scale(0.1 -0.1)">
       <use xlink:href="#DejaVuSans-48"/>
       <use x="63.623047" xlink:href="#DejaVuSans-46"/>
       <use x="95.410156" xlink:href="#DejaVuSans-49"/>
       <use x="159.033203" xlink:href="#DejaVuSans-53"/>
       <use x="222.65625" xlink:href="#DejaVuSans-48"/>
      </g>
     </g>
    </g>
    <g id="text_32">
     <!-- Fraction Variance Explained -->
     <defs>
      <path d="M 9.8125 72.90625 
L 51.703125 72.90625 
L 51.703125 64.59375 
L 19.671875 64.59375 
L 19.671875 43.109375 
L 48.578125 43.109375 
L 48.578125 34.8125 
L 19.671875 34.8125 
L 19.671875 0 
L 9.8125 0 
z
" id="DejaVuSans-70"/>
      <path d="M 48.78125 52.59375 
L 48.78125 44.1875 
Q 44.96875 46.296875 41.140625 47.34375 
Q 37.3125 48.390625 33.40625 48.390625 
Q 24.65625 48.390625 19.8125 42.84375 
Q 14.984375 37.3125 14.984375 27.296875 
Q 14.984375 17.28125 19.8125 11.734375 
Q 24.65625 6.203125 33.40625 6.203125 
Q 37.3125 6.203125 41.140625 7.25 
Q 44.96875 8.296875 48.78125 10.40625 
L 48.78125 2.09375 
Q 45.015625 0.34375 40.984375 -0.53125 
Q 36.96875 -1.421875 32.421875 -1.421875 
Q 20.0625 -1.421875 12.78125 6.34375 
Q 5.515625 14.109375 5.515625 27.296875 
Q 5.515625 40.671875 12.859375 48.328125 
Q 20.21875 56 33.015625 56 
Q 37.15625 56 41.109375 55.140625 
Q 45.0625 54.296875 48.78125 52.59375 
z
" id="DejaVuSans-99"/>
      <path d="M 28.609375 0 
L 0.78125 72.90625 
L 11.078125 72.90625 
L 34.1875 11.53125 
L 57.328125 72.90625 
L 67.578125 72.90625 
L 39.796875 0 
z
" id="DejaVuSans-86"/>
      <path d="M 9.8125 72.90625 
L 55.90625 72.90625 
L 55.90625 64.59375 
L 19.671875 64.59375 
L 19.671875 43.015625 
L 54.390625 43.015625 
L 54.390625 34.71875 
L 19.671875 34.71875 
L 19.671875 8.296875 
L 56.78125 8.296875 
L 56.78125 0 
L 9.8125 0 
z
" id="DejaVuSans-69"/>
      <path d="M 54.890625 54.6875 
L 35.109375 28.078125 
L 55.90625 0 
L 45.3125 0 
L 29.390625 21.484375 
L 13.484375 0 
L 2.875 0 
L 24.125 28.609375 
L 4.6875 54.6875 
L 15.28125 54.6875 
L 29.78125 35.203125 
L 44.28125 54.6875 
z
" id="DejaVuSans-120"/>
      <path d="M 18.109375 8.203125 
L 18.109375 -20.796875 
L 9.078125 -20.796875 
L 9.078125 54.6875 
L 18.109375 54.6875 
L 18.109375 46.390625 
Q 20.953125 51.265625 25.265625 53.625 
Q 29.59375 56 35.59375 56 
Q 45.5625 56 51.78125 48.09375 
Q 58.015625 40.1875 58.015625 27.296875 
Q 58.015625 14.40625 51.78125 6.484375 
Q 45.5625 -1.421875 35.59375 -1.421875 
Q 29.59375 -1.421875 25.265625 0.953125 
Q 20.953125 3.328125 18.109375 8.203125 
z
M 48.6875 27.296875 
Q 48.6875 37.203125 44.609375 42.84375 
Q 40.53125 48.484375 33.40625 48.484375 
Q 26.265625 48.484375 22.1875 42.84375 
Q 18.109375 37.203125 18.109375 27.296875 
Q 18.109375 17.390625 22.1875 11.75 
Q 26.265625 6.109375 33.40625 6.109375 
Q 40.53125 6.109375 44.609375 11.75 
Q 48.6875 17.390625 48.6875 27.296875 
z
" id="DejaVuSans-112"/>
      <path d="M 9.421875 75.984375 
L 18.40625 75.984375 
L 18.40625 0 
L 9.421875 0 
z
" id="DejaVuSans-108"/>
      <path d="M 45.40625 46.390625 
L 45.40625 75.984375 
L 54.390625 75.984375 
L 54.390625 0 
L 45.40625 0 
L 45.40625 8.203125 
Q 42.578125 3.328125 38.25 0.953125 
Q 33.9375 -1.421875 27.875 -1.421875 
Q 17.96875 -1.421875 11.734375 6.484375 
Q 5.515625 14.40625 5.515625 27.296875 
Q 5.515625 40.1875 11.734375 48.09375 
Q 17.96875 56 27.875 56 
Q 33.9375 56 38.25 53.625 
Q 42.578125 51.265625 45.40625 46.390625 
z
M 14.796875 27.296875 
Q 14.796875 17.390625 18.875 11.75 
Q 22.953125 6.109375 30.078125 6.109375 
Q 37.203125 6.109375 41.296875 11.75 
Q 45.40625 17.390625 45.40625 27.296875 
Q 45.40625 37.203125 41.296875 42.84375 
Q 37.203125 48.484375 30.078125 48.484375 
Q 22.953125 48.484375 18.875 42.84375 
Q 14.796875 37.203125 14.796875 27.296875 
z
" id="DejaVuSans-100"/>
     </defs>
     <g transform="translate(299.010187 205.41125)rotate(-90)scale(0.1 -0.1)">
      <use xlink:href="#DejaVuSans-70"/>
      <use x="57.410156" xlink:href="#DejaVuSans-114"/>
      <use x="98.523438" xlink:href="#DejaVuSans-97"/>
      <use x="159.802734" xlink:href="#DejaVuSans-99"/>
      <use x="214.783203" xlink:href="#DejaVuSans-116"/>
      <use x="253.992188" xlink:href="#DejaVuSans-105"/>
      <use x="281.775391" xlink:href="#DejaVuSans-111"/>
      <use x="342.957031" xlink:href="#DejaVuSans-110"/>
      <use x="406.335938" xlink:href="#DejaVuSans-32"/>
      <use x="438.123047" xlink:href="#DejaVuSans-86"/>
      <use x="506.421875" xlink:href="#DejaVuSans-97"/>
      <use x="567.701172" xlink:href="#DejaVuSans-114"/>
      <use x="608.814453" xlink:href="#DejaVuSans-105"/>
      <use x="636.597656" xlink:href="#DejaVuSans-97"/>
      <use x="697.876953" xlink:href="#DejaVuSans-110"/>
      <use x="761.255859" xlink:href="#DejaVuSans-99"/>
      <use x="816.236328" xlink:href="#DejaVuSans-101"/>
      <use x="877.759766" xlink:href="#DejaVuSans-32"/>
      <use x="909.546875" xlink:href="#DejaVuSans-69"/>
      <use x="972.730469" xlink:href="#DejaVuSans-120"/>
      <use x="1031.910156" xlink:href="#DejaVuSans-112"/>
      <use x="1095.386719" xlink:href="#DejaVuSans-108"/>
      <use x="1123.169922" xlink:href="#DejaVuSans-97"/>
      <use x="1184.449219" xlink:href="#DejaVuSans-105"/>
      <use x="1212.232422" xlink:href="#DejaVuSans-110"/>
      <use x="1275.611328" xlink:href="#DejaVuSans-101"/>
      <use x="1337.134766" xlink:href="#DejaVuSans-100"/>
     </g>
    </g>
   </g>
   <g id="line2d_36">
    <path clip-path="url(#p4123b813a8)" d="M 350.877818 36.089091 
L 355.024683 141.560727 
L 359.171547 170.435164 
L 363.318412 172.800379 
L 367.465276 175.814372 
L 371.612141 178.368114 
L 375.759006 186.136514 
L 379.90587 187.279899 
L 384.052735 195.375827 
L 388.199599 196.943218 
L 392.346464 199.140097 
L 396.493328 201.257792 
L 400.640193 203.626735 
L 404.787058 205.569261 
L 408.933922 206.984223 
L 413.080787 208.329567 
L 417.227651 209.36163 
L 421.374516 212.528509 
L 425.52138 214.412776 
L 429.668245 215.146009 
L 433.815109 215.891368 
L 437.961974 217.292278 
L 442.108839 218.091141 
L 446.255703 220.067448 
L 450.402568 221.162575 
L 454.549432 221.681295 
L 458.696297 222.4042 
L 462.843161 223.93199 
L 466.990026 224.318704 
L 471.136891 224.603968 
L 475.283755 226.018848 
L 479.43062 226.513622 
L 483.577484 227.615356 
L 487.724349 227.71118 
L 491.871213 228.212809 
L 496.018078 229.066816 
L 500.164942 229.420105 
L 504.311807 229.94893 
L 508.458672 230.829405 
L 512.605536 231.038118 
L 516.752401 231.332087 
L 520.899265 231.533841 
L 525.04613 231.643331 
L 529.192994 231.738504 
L 533.339859 232.034064 
L 537.486724 232.387269 
L 541.633588 232.993065 
L 545.780453 233.052864 
L 549.927317 233.32148 
L 554.074182 234.670909 
" style="fill:none;stroke:#000000;stroke-linecap:square;stroke-width:1.5;"/>
    <defs>
     <path d="M 0 3 
C 0.795609 3 1.55874 2.683901 2.12132 2.12132 
C 2.683901 1.55874 3 0.795609 3 0 
C 3 -0.795609 2.683901 -1.55874 2.12132 -2.12132 
C 1.55874 -2.683901 0.795609 -3 0 -3 
C -0.795609 -3 -1.55874 -2.683901 -2.12132 -2.12132 
C -2.683901 -1.55874 -3 -0.795609 -3 0 
C -3 0.795609 -2.683901 1.55874 -2.12132 2.12132 
C -1.55874 2.683901 -0.795609 3 0 3 
z
" id="m1fd0dd4390" style="stroke:#000000;"/>
    </defs>
    <g clip-path="url(#p4123b813a8)">
     <use style="stroke:#000000;" x="350.877818" xlink:href="#m1fd0dd4390" y="36.089091"/>
     <use style="stroke:#000000;" x="355.024683" xlink:href="#m1fd0dd4390" y="141.560727"/>
     <use style="stroke:#000000;" x="359.171547" xlink:href="#m1fd0dd4390" y="170.435164"/>
     <use style="stroke:#000000;" x="363.318412" xlink:href="#m1fd0dd4390" y="172.800379"/>
     <use style="stroke:#000000;" x="367.465276" xlink:href="#m1fd0dd4390" y="175.814372"/>
     <use style="stroke:#000000;" x="371.612141" xlink:href="#m1fd0dd4390" y="178.368114"/>
     <use style="stroke:#000000;" x="375.759006" xlink:href="#m1fd0dd4390" y="186.136514"/>
     <use style="stroke:#000000;" x="379.90587" xlink:href="#m1fd0dd4390" y="187.279899"/>
     <use style="stroke:#000000;" x="384.052735" xlink:href="#m1fd0dd4390" y="195.375827"/>
     <use style="stroke:#000000;" x="388.199599" xlink:href="#m1fd0dd4390" y="196.943218"/>
     <use style="stroke:#000000;" x="392.346464" xlink:href="#m1fd0dd4390" y="199.140097"/>
     <use style="stroke:#000000;" x="396.493328" xlink:href="#m1fd0dd4390" y="201.257792"/>
     <use style="stroke:#000000;" x="400.640193" xlink:href="#m1fd0dd4390" y="203.626735"/>
     <use style="stroke:#000000;" x="404.787058" xlink:href="#m1fd0dd4390" y="205.569261"/>
     <use style="stroke:#000000;" x="408.933922" xlink:href="#m1fd0dd4390" y="206.984223"/>
     <use style="stroke:#000000;" x="413.080787" xlink:href="#m1fd0dd4390" y="208.329567"/>
     <use style="stroke:#000000;" x="417.227651" xlink:href="#m1fd0dd4390" y="209.36163"/>
     <use style="stroke:#000000;" x="421.374516" xlink:href="#m1fd0dd4390" y="212.528509"/>
     <use style="stroke:#000000;" x="425.52138" xlink:href="#m1fd0dd4390" y="214.412776"/>
     <use style="stroke:#000000;" x="429.668245" xlink:href="#m1fd0dd4390" y="215.146009"/>
     <use style="stroke:#000000;" x="433.815109" xlink:href="#m1fd0dd4390" y="215.891368"/>
     <use style="stroke:#000000;" x="437.961974" xlink:href="#m1fd0dd4390" y="217.292278"/>
     <use style="stroke:#000000;" x="442.108839" xlink:href="#m1fd0dd4390" y="218.091141"/>
     <use style="stroke:#000000;" x="446.255703" xlink:href="#m1fd0dd4390" y="220.067448"/>
     <use style="stroke:#000000;" x="450.402568" xlink:href="#m1fd0dd4390" y="221.162575"/>
     <use style="stroke:#000000;" x="454.549432" xlink:href="#m1fd0dd4390" y="221.681295"/>
     <use style="stroke:#000000;" x="458.696297" xlink:href="#m1fd0dd4390" y="222.4042"/>
     <use style="stroke:#000000;" x="462.843161" xlink:href="#m1fd0dd4390" y="223.93199"/>
     <use style="stroke:#000000;" x="466.990026" xlink:href="#m1fd0dd4390" y="224.318704"/>
     <use style="stroke:#000000;" x="471.136891" xlink:href="#m1fd0dd4390" y="224.603968"/>
     <use style="stroke:#000000;" x="475.283755" xlink:href="#m1fd0dd4390" y="226.018848"/>
     <use style="stroke:#000000;" x="479.43062" xlink:href="#m1fd0dd4390" y="226.513622"/>
     <use style="stroke:#000000;" x="483.577484" xlink:href="#m1fd0dd4390" y="227.615356"/>
     <use style="stroke:#000000;" x="487.724349" xlink:href="#m1fd0dd4390" y="227.71118"/>
     <use style="stroke:#000000;" x="491.871213" xlink:href="#m1fd0dd4390" y="228.212809"/>
     <use style="stroke:#000000;" x="496.018078" xlink:href="#m1fd0dd4390" y="229.066816"/>
     <use style="stroke:#000000;" x="500.164942" xlink:href="#m1fd0dd4390" y="229.420105"/>
     <use style="stroke:#000000;" x="504.311807" xlink:href="#m1fd0dd4390" y="229.94893"/>
     <use style="stroke:#000000;" x="508.458672" xlink:href="#m1fd0dd4390" y="230.829405"/>
     <use style="stroke:#000000;" x="512.605536" xlink:href="#m1fd0dd4390" y="231.038118"/>
     <use style="stroke:#000000;" x="516.752401" xlink:href="#m1fd0dd4390" y="231.332087"/>
     <use style="stroke:#000000;" x="520.899265" xlink:href="#m1fd0dd4390" y="231.533841"/>
     <use style="stroke:#000000;" x="525.04613" xlink:href="#m1fd0dd4390" y="231.643331"/>
     <use style="stroke:#000000;" x="529.192994" xlink:href="#m1fd0dd4390" y="231.738504"/>
     <use style="stroke:#000000;" x="533.339859" xlink:href="#m1fd0dd4390" y="232.034064"/>
     <use style="stroke:#000000;" x="537.486724" xlink:href="#m1fd0dd4390" y="232.387269"/>
     <use style="stroke:#000000;" x="541.633588" xlink:href="#m1fd0dd4390" y="232.993065"/>
     <use style="stroke:#000000;" x="545.780453" xlink:href="#m1fd0dd4390" y="233.052864"/>
     <use style="stroke:#000000;" x="549.927317" xlink:href="#m1fd0dd4390" y="233.32148"/>
     <use style="stroke:#000000;" x="554.074182" xlink:href="#m1fd0dd4390" y="234.670909"/>
    </g>
   </g>
   <g id="patch_6">
    <path d="M 340.718 244.6 
L 340.718 26.16 
" style="fill:none;stroke:#000000;stroke-linecap:square;stroke-linejoin:miter;stroke-width:0.8;"/>
   </g>
   <g id="patch_7">
    <path d="M 340.718 244.6 
L 564.234 244.6 
" style="fill:none;stroke:#000000;stroke-linecap:square;stroke-linejoin:miter;stroke-width:0.8;"/>
   </g>
  </g>
  <g id="axes_3">
   <g id="patch_8">
    <path d="M 627.164 244.6 
L 850.68 244.6 
L 850.68 26.16 
L 627.164 26.16 
z
" style="fill:#ffffff;"/>
   </g>
   <g id="matplotlib.axis_5">
    <g id="xtick_12">
     <g id="line2d_37">
      <g>
       <use style="stroke:#000000;stroke-width:0.8;" x="637.323818" xlink:href="#m47fca31302" y="244.6"/>
      </g>
     </g>
     <g id="text_33">
      <!-- 0 -->
      <g transform="translate(634.142568 259.198438)scale(0.1 -0.1)">
       <use xlink:href="#DejaVuSans-48"/>
      </g>
     </g>
    </g>
    <g id="xtick_13">
     <g id="line2d_38">
      <g>
       <use style="stroke:#000000;stroke-width:0.8;" x="678.792464" xlink:href="#m47fca31302" y="244.6"/>
      </g>
     </g>
     <g id="text_34">
      <!-- 10 -->
      <g transform="translate(672.429964 259.198438)scale(0.1 -0.1)">
       <use xlink:href="#DejaVuSans-49"/>
       <use x="63.623047" xlink:href="#DejaVuSans-48"/>
      </g>
     </g>
    </g>
    <g id="xtick_14">
     <g id="line2d_39">
      <g>
       <use style="stroke:#000000;stroke-width:0.8;" x="720.261109" xlink:href="#m47fca31302" y="244.6"/>
      </g>
     </g>
     <g id="text_35">
      <!-- 20 -->
      <g transform="translate(713.898609 259.198438)scale(0.1 -0.1)">
       <use xlink:href="#DejaVuSans-50"/>
       <use x="63.623047" xlink:href="#DejaVuSans-48"/>
      </g>
     </g>
    </g>
    <g id="xtick_15">
     <g id="line2d_40">
      <g>
       <use style="stroke:#000000;stroke-width:0.8;" x="761.729755" xlink:href="#m47fca31302" y="244.6"/>
      </g>
     </g>
     <g id="text_36">
      <!-- 30 -->
      <g transform="translate(755.367255 259.198438)scale(0.1 -0.1)">
       <use xlink:href="#DejaVuSans-51"/>
       <use x="63.623047" xlink:href="#DejaVuSans-48"/>
      </g>
     </g>
    </g>
    <g id="xtick_16">
     <g id="line2d_41">
      <g>
       <use style="stroke:#000000;stroke-width:0.8;" x="803.198401" xlink:href="#m47fca31302" y="244.6"/>
      </g>
     </g>
     <g id="text_37">
      <!-- 40 -->
      <g transform="translate(796.835901 259.198438)scale(0.1 -0.1)">
       <use xlink:href="#DejaVuSans-52"/>
       <use x="63.623047" xlink:href="#DejaVuSans-48"/>
      </g>
     </g>
    </g>
    <g id="xtick_17">
     <g id="line2d_42">
      <g>
       <use style="stroke:#000000;stroke-width:0.8;" x="844.667046" xlink:href="#m47fca31302" y="244.6"/>
      </g>
     </g>
     <g id="text_38">
      <!-- 50 -->
      <g transform="translate(838.304546 259.198438)scale(0.1 -0.1)">
       <use xlink:href="#DejaVuSans-53"/>
       <use x="63.623047" xlink:href="#DejaVuSans-48"/>
      </g>
     </g>
    </g>
    <g id="text_39">
     <!-- $\alpha$ -->
     <g transform="translate(735.622 272.876562)scale(0.1 -0.1)">
      <use transform="translate(0 0.84375)" xlink:href="#DejaVuSans-Oblique-945"/>
     </g>
    </g>
   </g>
   <g id="matplotlib.axis_6">
    <g id="ytick_13">
     <g id="line2d_43">
      <g>
       <use style="stroke:#000000;stroke-width:0.8;" x="627.164" xlink:href="#ma843a21eeb" y="235.537426"/>
      </g>
     </g>
     <g id="text_40">
      <!-- 0.0 -->
      <g transform="translate(604.260875 239.336645)scale(0.1 -0.1)">
       <use xlink:href="#DejaVuSans-48"/>
       <use x="63.623047" xlink:href="#DejaVuSans-46"/>
       <use x="95.410156" xlink:href="#DejaVuSans-48"/>
      </g>
     </g>
    </g>
    <g id="ytick_14">
     <g id="line2d_44">
      <g>
       <use style="stroke:#000000;stroke-width:0.8;" x="627.164" xlink:href="#ma843a21eeb" y="207.67194"/>
      </g>
     </g>
     <g id="text_41">
      <!-- 0.1 -->
      <g transform="translate(604.260875 211.471158)scale(0.1 -0.1)">
       <use xlink:href="#DejaVuSans-48"/>
       <use x="63.623047" xlink:href="#DejaVuSans-46"/>
       <use x="95.410156" xlink:href="#DejaVuSans-49"/>
      </g>
     </g>
    </g>
    <g id="ytick_15">
     <g id="line2d_45">
      <g>
       <use style="stroke:#000000;stroke-width:0.8;" x="627.164" xlink:href="#ma843a21eeb" y="179.806453"/>
      </g>
     </g>
     <g id="text_42">
      <!-- 0.2 -->
      <g transform="translate(604.260875 183.605672)scale(0.1 -0.1)">
       <use xlink:href="#DejaVuSans-48"/>
       <use x="63.623047" xlink:href="#DejaVuSans-46"/>
       <use x="95.410156" xlink:href="#DejaVuSans-50"/>
      </g>
     </g>
    </g>
    <g id="ytick_16">
     <g id="line2d_46">
      <g>
       <use style="stroke:#000000;stroke-width:0.8;" x="627.164" xlink:href="#ma843a21eeb" y="151.940967"/>
      </g>
     </g>
     <g id="text_43">
      <!-- 0.3 -->
      <g transform="translate(604.260875 155.740185)scale(0.1 -0.1)">
       <use xlink:href="#DejaVuSans-48"/>
       <use x="63.623047" xlink:href="#DejaVuSans-46"/>
       <use x="95.410156" xlink:href="#DejaVuSans-51"/>
      </g>
     </g>
    </g>
    <g id="ytick_17">
     <g id="line2d_47">
      <g>
       <use style="stroke:#000000;stroke-width:0.8;" x="627.164" xlink:href="#ma843a21eeb" y="124.07548"/>
      </g>
     </g>
     <g id="text_44">
      <!-- 0.4 -->
      <g transform="translate(604.260875 127.874699)scale(0.1 -0.1)">
       <use xlink:href="#DejaVuSans-48"/>
       <use x="63.623047" xlink:href="#DejaVuSans-46"/>
       <use x="95.410156" xlink:href="#DejaVuSans-52"/>
      </g>
     </g>
    </g>
    <g id="ytick_18">
     <g id="line2d_48">
      <g>
       <use style="stroke:#000000;stroke-width:0.8;" x="627.164" xlink:href="#ma843a21eeb" y="96.209994"/>
      </g>
     </g>
     <g id="text_45">
      <!-- 0.5 -->
      <g transform="translate(604.260875 100.009212)scale(0.1 -0.1)">
       <use xlink:href="#DejaVuSans-48"/>
       <use x="63.623047" xlink:href="#DejaVuSans-46"/>
       <use x="95.410156" xlink:href="#DejaVuSans-53"/>
      </g>
     </g>
    </g>
    <g id="ytick_19">
     <g id="line2d_49">
      <g>
       <use style="stroke:#000000;stroke-width:0.8;" x="627.164" xlink:href="#ma843a21eeb" y="68.344507"/>
      </g>
     </g>
     <g id="text_46">
      <!-- 0.6 -->
      <g transform="translate(604.260875 72.143726)scale(0.1 -0.1)">
       <use xlink:href="#DejaVuSans-48"/>
       <use x="63.623047" xlink:href="#DejaVuSans-46"/>
       <use x="95.410156" xlink:href="#DejaVuSans-54"/>
      </g>
     </g>
    </g>
    <g id="ytick_20">
     <g id="line2d_50">
      <g>
       <use style="stroke:#000000;stroke-width:0.8;" x="627.164" xlink:href="#ma843a21eeb" y="40.479021"/>
      </g>
     </g>
     <g id="text_47">
      <!-- 0.7 -->
      <g transform="translate(604.260875 44.278239)scale(0.1 -0.1)">
       <use xlink:href="#DejaVuSans-48"/>
       <use x="63.623047" xlink:href="#DejaVuSans-46"/>
       <use x="95.410156" xlink:href="#DejaVuSans-55"/>
      </g>
     </g>
    </g>
    <g id="text_48">
     <!-- $cos(\Delta \mathbf{\mu}, \mathbf{e}_{\alpha})$ -->
     <defs>
      <path d="M 53.609375 52.59375 
L 51.8125 43.703125 
Q 48.578125 46.046875 44.9375 47.21875 
Q 41.3125 48.390625 37.40625 48.390625 
Q 33.109375 48.390625 29.21875 46.875 
Q 25.34375 45.359375 22.703125 42.578125 
Q 18.5 38.328125 16.203125 32.609375 
Q 13.921875 26.90625 13.921875 20.796875 
Q 13.921875 13.421875 17.609375 9.8125 
Q 21.296875 6.203125 28.8125 6.203125 
Q 32.515625 6.203125 36.6875 7.328125 
Q 40.875 8.453125 45.40625 10.6875 
L 43.703125 1.8125 
Q 39.796875 0.203125 35.671875 -0.609375 
Q 31.546875 -1.421875 27.203125 -1.421875 
Q 16.3125 -1.421875 10.453125 4.015625 
Q 4.59375 9.46875 4.59375 19.578125 
Q 4.59375 28.078125 7.640625 35.234375 
Q 10.6875 42.390625 16.703125 48.09375 
Q 20.796875 52 26.3125 54 
Q 31.84375 56 38.375 56 
Q 42.1875 56 45.9375 55.140625 
Q 49.703125 54.296875 53.609375 52.59375 
z
" id="DejaVuSans-Oblique-99"/>
      <path d="M 25.390625 -1.421875 
Q 15.765625 -1.421875 10.171875 4.515625 
Q 4.59375 10.453125 4.59375 20.703125 
Q 4.59375 26.65625 6.515625 32.828125 
Q 8.453125 39.015625 11.53125 43.21875 
Q 16.359375 49.75 22.3125 52.875 
Q 28.265625 56 35.796875 56 
Q 45.125 56 50.859375 50.1875 
Q 56.59375 44.390625 56.59375 35.015625 
Q 56.59375 28.515625 54.6875 22.0625 
Q 52.78125 15.625 49.703125 11.375 
Q 44.921875 4.828125 38.96875 1.703125 
Q 33.015625 -1.421875 25.390625 -1.421875 
z
M 13.921875 21 
Q 13.921875 13.578125 17.015625 9.890625 
Q 20.125 6.203125 26.421875 6.203125 
Q 35.453125 6.203125 41.375 14.078125 
Q 47.3125 21.96875 47.3125 34.078125 
Q 47.3125 41.15625 44.140625 44.765625 
Q 40.96875 48.390625 34.8125 48.390625 
Q 29.734375 48.390625 25.78125 46.015625 
Q 21.828125 43.65625 18.703125 38.8125 
Q 16.40625 35.203125 15.15625 30.5625 
Q 13.921875 25.921875 13.921875 21 
z
" id="DejaVuSans-Oblique-111"/>
      <path d="M 50 53.078125 
L 48.296875 44.578125 
Q 44.734375 46.53125 40.765625 47.5 
Q 36.8125 48.484375 32.625 48.484375 
Q 25.53125 48.484375 21.453125 46.0625 
Q 17.390625 43.65625 17.390625 39.5 
Q 17.390625 34.671875 26.859375 32.078125 
Q 27.59375 31.890625 27.9375 31.78125 
L 30.8125 30.90625 
Q 39.796875 28.421875 42.796875 25.6875 
Q 45.796875 22.953125 45.796875 18.21875 
Q 45.796875 9.515625 38.890625 4.046875 
Q 31.984375 -1.421875 20.796875 -1.421875 
Q 16.453125 -1.421875 11.671875 -0.578125 
Q 6.890625 0.25 1.125 2 
L 2.875 11.28125 
Q 7.8125 8.734375 12.59375 7.421875 
Q 17.390625 6.109375 21.78125 6.109375 
Q 28.375 6.109375 32.5 8.9375 
Q 36.625 11.765625 36.625 16.109375 
Q 36.625 20.796875 25.78125 23.6875 
L 24.859375 23.921875 
L 21.78125 24.703125 
Q 14.9375 26.515625 11.765625 29.46875 
Q 8.59375 32.421875 8.59375 37.015625 
Q 8.59375 45.75 15.15625 50.875 
Q 21.734375 56 33.015625 56 
Q 37.453125 56 41.671875 55.265625 
Q 45.90625 54.546875 50 53.078125 
z
" id="DejaVuSans-Oblique-115"/>
      <path d="M 31 75.875 
Q 24.46875 64.65625 21.28125 53.65625 
Q 18.109375 42.671875 18.109375 31.390625 
Q 18.109375 20.125 21.3125 9.0625 
Q 24.515625 -2 31 -13.1875 
L 23.1875 -13.1875 
Q 15.875 -1.703125 12.234375 9.375 
Q 8.59375 20.453125 8.59375 31.390625 
Q 8.59375 42.28125 12.203125 53.3125 
Q 15.828125 64.359375 23.1875 75.875 
z
" id="DejaVuSans-40"/>
      <path d="M 34.1875 63.1875 
L 14.15625 8.203125 
L 54.25 8.203125 
z
M 0.78125 0 
L 28.609375 72.90625 
L 39.796875 72.90625 
L 67.578125 0 
z
" id="DejaVuSans-916"/>
      <path d="M 8.5 -20.90625 
L 8.5 54.6875 
L 26.125 54.6875 
L 26.125 22.90625 
Q 26.125 17.234375 28.5625 14.46875 
Q 31 11.71875 35.984375 11.71875 
Q 41.015625 11.71875 43.453125 14.46875 
Q 45.90625 17.234375 45.90625 22.90625 
L 45.90625 54.6875 
L 63.484375 54.6875 
L 63.484375 18.109375 
Q 63.484375 14.65625 64.28125 13.28125 
Q 65.09375 11.921875 67 11.921875 
Q 67.875 11.921875 68.671875 12.15625 
Q 69.484375 12.40625 70.40625 12.984375 
L 70.40625 0.78125 
Q 67.828125 -0.34375 65.546875 -0.875 
Q 63.28125 -1.421875 61.078125 -1.421875 
Q 56.734375 -1.421875 53.96875 0.40625 
Q 51.21875 2.25 49.515625 6.296875 
Q 47.21875 2.4375 43.921875 0.5 
Q 40.625 -1.421875 36.28125 -1.421875 
Q 32.671875 -1.421875 30.125 -0.265625 
Q 27.59375 0.875 26.125 3.21875 
L 26.125 -20.90625 
z
" id="DejaVuSans-Bold-956"/>
      <path d="M 62.984375 27.484375 
L 62.984375 22.515625 
L 22.125 22.515625 
Q 22.75 16.359375 26.5625 13.28125 
Q 30.375 10.203125 37.203125 10.203125 
Q 42.71875 10.203125 48.5 11.84375 
Q 54.296875 13.484375 60.40625 16.796875 
L 60.40625 3.328125 
Q 54.203125 0.984375 48 -0.21875 
Q 41.796875 -1.421875 35.59375 -1.421875 
Q 20.75 -1.421875 12.515625 6.125 
Q 4.296875 13.671875 4.296875 27.296875 
Q 4.296875 40.671875 12.375 48.328125 
Q 20.453125 56 34.625 56 
Q 47.515625 56 55.25 48.234375 
Q 62.984375 40.484375 62.984375 27.484375 
z
M 45.015625 33.296875 
Q 45.015625 38.28125 42.109375 41.328125 
Q 39.203125 44.390625 34.515625 44.390625 
Q 29.4375 44.390625 26.265625 41.53125 
Q 23.09375 38.671875 22.3125 33.296875 
z
" id="DejaVuSans-Bold-101"/>
      <path d="M 8.015625 75.875 
L 15.828125 75.875 
Q 23.140625 64.359375 26.78125 53.3125 
Q 30.421875 42.28125 30.421875 31.390625 
Q 30.421875 20.453125 26.78125 9.375 
Q 23.140625 -1.703125 15.828125 -13.1875 
L 8.015625 -13.1875 
Q 14.5 -2 17.703125 9.0625 
Q 20.90625 20.125 20.90625 31.390625 
Q 20.90625 42.671875 17.703125 53.65625 
Q 14.5 64.65625 8.015625 75.875 
z
" id="DejaVuSans-41"/>
     </defs>
     <g transform="translate(598.160875 163.28)rotate(-90)scale(0.1 -0.1)">
      <use transform="translate(0 0.125)" xlink:href="#DejaVuSans-Oblique-99"/>
      <use transform="translate(54.980469 0.125)" xlink:href="#DejaVuSans-Oblique-111"/>
      <use transform="translate(116.162109 0.125)" xlink:href="#DejaVuSans-Oblique-115"/>
      <use transform="translate(168.261719 0.125)" xlink:href="#DejaVuSans-40"/>
      <use transform="translate(207.275391 0.125)" xlink:href="#DejaVuSans-916"/>
      <use transform="translate(275.683594 0.125)" xlink:href="#DejaVuSans-Bold-956"/>
      <use transform="translate(349.267578 0.125)" xlink:href="#DejaVuSans-44"/>
      <use transform="translate(400.537109 0.125)" xlink:href="#DejaVuSans-Bold-101"/>
      <use transform="translate(469.316406 -16.28125)scale(0.7)" xlink:href="#DejaVuSans-Oblique-945"/>
      <use transform="translate(518.193359 0.125)" xlink:href="#DejaVuSans-41"/>
     </g>
    </g>
   </g>
   <g id="line2d_51">
    <path clip-path="url(#p42f0571526)" d="M 637.323818 169.825124 
L 641.470683 36.089091 
L 645.617547 207.658979 
L 649.764412 185.553319 
L 653.911276 231.435628 
L 658.058141 186.284508 
L 662.205006 212.134673 
L 666.35187 213.485595 
L 670.498735 194.926455 
L 674.645599 234.670909 
L 678.792464 226.054657 
L 682.939328 221.55081 
L 687.086193 227.724067 
L 691.233058 196.3838 
L 695.379922 163.893386 
L 699.526787 222.976058 
L 703.673651 217.325529 
L 707.820516 226.497599 
L 711.96738 229.375636 
L 716.114245 204.727374 
L 720.261109 223.879481 
L 724.407974 201.09417 
L 728.554839 209.74296 
L 732.701703 218.012042 
L 736.848568 223.419951 
L 740.995432 212.490457 
L 745.142297 209.687795 
L 749.289161 232.8458 
L 753.436026 222.353683 
L 757.582891 227.335893 
L 761.729755 221.849407 
L 765.87662 225.891142 
L 770.023484 201.981958 
L 774.170349 222.010025 
L 778.317213 222.103584 
L 782.464078 207.532834 
L 786.610942 223.355252 
L 790.757807 232.015369 
L 794.904672 230.429793 
L 799.051536 223.339612 
L 803.198401 213.522221 
L 807.345265 212.867738 
L 811.49213 234.507662 
L 815.638994 232.97737 
L 819.785859 213.772637 
L 823.932724 220.52238 
L 828.079588 233.118708 
L 832.226453 233.940806 
L 836.373317 225.546845 
L 840.520182 227.750792 
" style="fill:none;stroke:#000000;stroke-linecap:square;stroke-width:1.5;"/>
    <g clip-path="url(#p42f0571526)">
     <use style="stroke:#000000;" x="637.323818" xlink:href="#m1fd0dd4390" y="169.825124"/>
     <use style="stroke:#000000;" x="641.470683" xlink:href="#m1fd0dd4390" y="36.089091"/>
     <use style="stroke:#000000;" x="645.617547" xlink:href="#m1fd0dd4390" y="207.658979"/>
     <use style="stroke:#000000;" x="649.764412" xlink:href="#m1fd0dd4390" y="185.553319"/>
     <use style="stroke:#000000;" x="653.911276" xlink:href="#m1fd0dd4390" y="231.435628"/>
     <use style="stroke:#000000;" x="658.058141" xlink:href="#m1fd0dd4390" y="186.284508"/>
     <use style="stroke:#000000;" x="662.205006" xlink:href="#m1fd0dd4390" y="212.134673"/>
     <use style="stroke:#000000;" x="666.35187" xlink:href="#m1fd0dd4390" y="213.485595"/>
     <use style="stroke:#000000;" x="670.498735" xlink:href="#m1fd0dd4390" y="194.926455"/>
     <use style="stroke:#000000;" x="674.645599" xlink:href="#m1fd0dd4390" y="234.670909"/>
     <use style="stroke:#000000;" x="678.792464" xlink:href="#m1fd0dd4390" y="226.054657"/>
     <use style="stroke:#000000;" x="682.939328" xlink:href="#m1fd0dd4390" y="221.55081"/>
     <use style="stroke:#000000;" x="687.086193" xlink:href="#m1fd0dd4390" y="227.724067"/>
     <use style="stroke:#000000;" x="691.233058" xlink:href="#m1fd0dd4390" y="196.3838"/>
     <use style="stroke:#000000;" x="695.379922" xlink:href="#m1fd0dd4390" y="163.893386"/>
     <use style="stroke:#000000;" x="699.526787" xlink:href="#m1fd0dd4390" y="222.976058"/>
     <use style="stroke:#000000;" x="703.673651" xlink:href="#m1fd0dd4390" y="217.325529"/>
     <use style="stroke:#000000;" x="707.820516" xlink:href="#m1fd0dd4390" y="226.497599"/>
     <use style="stroke:#000000;" x="711.96738" xlink:href="#m1fd0dd4390" y="229.375636"/>
     <use style="stroke:#000000;" x="716.114245" xlink:href="#m1fd0dd4390" y="204.727374"/>
     <use style="stroke:#000000;" x="720.261109" xlink:href="#m1fd0dd4390" y="223.879481"/>
     <use style="stroke:#000000;" x="724.407974" xlink:href="#m1fd0dd4390" y="201.09417"/>
     <use style="stroke:#000000;" x="728.554839" xlink:href="#m1fd0dd4390" y="209.74296"/>
     <use style="stroke:#000000;" x="732.701703" xlink:href="#m1fd0dd4390" y="218.012042"/>
     <use style="stroke:#000000;" x="736.848568" xlink:href="#m1fd0dd4390" y="223.419951"/>
     <use style="stroke:#000000;" x="740.995432" xlink:href="#m1fd0dd4390" y="212.490457"/>
     <use style="stroke:#000000;" x="745.142297" xlink:href="#m1fd0dd4390" y="209.687795"/>
     <use style="stroke:#000000;" x="749.289161" xlink:href="#m1fd0dd4390" y="232.8458"/>
     <use style="stroke:#000000;" x="753.436026" xlink:href="#m1fd0dd4390" y="222.353683"/>
     <use style="stroke:#000000;" x="757.582891" xlink:href="#m1fd0dd4390" y="227.335893"/>
     <use style="stroke:#000000;" x="761.729755" xlink:href="#m1fd0dd4390" y="221.849407"/>
     <use style="stroke:#000000;" x="765.87662" xlink:href="#m1fd0dd4390" y="225.891142"/>
     <use style="stroke:#000000;" x="770.023484" xlink:href="#m1fd0dd4390" y="201.981958"/>
     <use style="stroke:#000000;" x="774.170349" xlink:href="#m1fd0dd4390" y="222.010025"/>
     <use style="stroke:#000000;" x="778.317213" xlink:href="#m1fd0dd4390" y="222.103584"/>
     <use style="stroke:#000000;" x="782.464078" xlink:href="#m1fd0dd4390" y="207.532834"/>
     <use style="stroke:#000000;" x="786.610942" xlink:href="#m1fd0dd4390" y="223.355252"/>
     <use style="stroke:#000000;" x="790.757807" xlink:href="#m1fd0dd4390" y="232.015369"/>
     <use style="stroke:#000000;" x="794.904672" xlink:href="#m1fd0dd4390" y="230.429793"/>
     <use style="stroke:#000000;" x="799.051536" xlink:href="#m1fd0dd4390" y="223.339612"/>
     <use style="stroke:#000000;" x="803.198401" xlink:href="#m1fd0dd4390" y="213.522221"/>
     <use style="stroke:#000000;" x="807.345265" xlink:href="#m1fd0dd4390" y="212.867738"/>
     <use style="stroke:#000000;" x="811.49213" xlink:href="#m1fd0dd4390" y="234.507662"/>
     <use style="stroke:#000000;" x="815.638994" xlink:href="#m1fd0dd4390" y="232.97737"/>
     <use style="stroke:#000000;" x="819.785859" xlink:href="#m1fd0dd4390" y="213.772637"/>
     <use style="stroke:#000000;" x="823.932724" xlink:href="#m1fd0dd4390" y="220.52238"/>
     <use style="stroke:#000000;" x="828.079588" xlink:href="#m1fd0dd4390" y="233.118708"/>
     <use style="stroke:#000000;" x="832.226453" xlink:href="#m1fd0dd4390" y="233.940806"/>
     <use style="stroke:#000000;" x="836.373317" xlink:href="#m1fd0dd4390" y="225.546845"/>
     <use style="stroke:#000000;" x="840.520182" xlink:href="#m1fd0dd4390" y="227.750792"/>
    </g>
   </g>
   <g id="patch_9">
    <path d="M 627.164 244.6 
L 627.164 26.16 
" style="fill:none;stroke:#000000;stroke-linecap:square;stroke-linejoin:miter;stroke-width:0.8;"/>
   </g>
   <g id="patch_10">
    <path d="M 627.164 244.6 
L 850.68 244.6 
" style="fill:none;stroke:#000000;stroke-linecap:square;stroke-linejoin:miter;stroke-width:0.8;"/>
   </g>
  </g>
 </g>
 <defs>
  <clipPath id="p72f6156c97">
   <rect height="218.44" width="223.516" x="54.272" y="26.16"/>
  </clipPath>
  <clipPath id="p4123b813a8">
   <rect height="218.44" width="223.516" x="340.718" y="26.16"/>
  </clipPath>
  <clipPath id="p42f0571526">
   <rect height="218.44" width="223.516" x="627.164" y="26.16"/>
  </clipPath>
 </defs>
</svg>
