<?xml version="1.0" encoding="utf-8" standalone="no"?>
<!DOCTYPE svg PUBLIC "-//W3C//DTD SVG 1.1//EN"
  "http://www.w3.org/Graphics/SVG/1.1/DTD/svg11.dtd">
<!-- Created with matplotlib (https://matplotlib.org/) -->
<svg height="216pt" version="1.1" viewBox="0 0 432 216" width="432pt" xmlns="http://www.w3.org/2000/svg" xmlns:xlink="http://www.w3.org/1999/xlink">
 <defs>
  <style type="text/css">
*{stroke-linecap:butt;stroke-linejoin:round;}
  </style>
 </defs>
 <g id="figure_1">
  <g id="patch_1">
   <path d="M 0 216 
L 432 216 
L 432 0 
L 0 0 
z
" style="fill:#ffffff;"/>
  </g>
  <g id="axes_1">
   <g id="patch_2">
    <path d="M 61.472 161.08 
L 208.3032 161.08 
L 208.3032 25.44 
L 61.472 25.44 
z
" style="fill:#ffffff;"/>
   </g>
   <g id="line2d_1">
    <path clip-path="url(#pa43210f867)" d="M 76.061327 113.422643 
L 160.349496 33.613845 
" style="fill:none;stroke:#808080;stroke-linecap:square;stroke-width:1.5;"/>
   </g>
   <g id="line2d_2">
    <path clip-path="url(#pa43210f867)" d="M 79.903389 92.361189 
L 160.205783 101.206766 
" style="fill:none;stroke:#808080;stroke-linecap:square;stroke-width:1.5;"/>
   </g>
   <g id="line2d_3">
    <path clip-path="url(#pa43210f867)" d="M 73.727788 106.72794 
L 169.107508 104.255737 
" style="fill:none;stroke:#808080;stroke-linecap:square;stroke-width:1.5;"/>
   </g>
   <g id="line2d_4">
    <path clip-path="url(#pa43210f867)" d="M 84.204728 79.307184 
L 188.003213 141.430831 
" style="fill:none;stroke:#808080;stroke-linecap:square;stroke-width:1.5;"/>
   </g>
   <g id="line2d_5">
    <path clip-path="url(#pa43210f867)" d="M 73.302895 84.404162 
L 163.104285 130.893157 
" style="fill:none;stroke:#808080;stroke-linecap:square;stroke-width:1.5;"/>
   </g>
   <g id="line2d_6">
    <path clip-path="url(#pa43210f867)" d="M 76.235591 81.125687 
L 147.619423 123.797639 
" style="fill:none;stroke:#808080;stroke-linecap:square;stroke-width:1.5;"/>
   </g>
   <g id="line2d_7">
    <path clip-path="url(#pa43210f867)" d="M 70.51428 103.514195 
L 176.889991 128.32689 
" style="fill:none;stroke:#808080;stroke-linecap:square;stroke-width:1.5;"/>
   </g>
   <g id="line2d_8">
    <path clip-path="url(#pa43210f867)" d="M 78.975185 85.673973 
L 199.217347 152.906155 
" style="fill:none;stroke:#808080;stroke-linecap:square;stroke-width:1.5;"/>
   </g>
   <g id="line2d_9">
    <path clip-path="url(#pa43210f867)" d="M 81.655427 108.215004 
L 177.942556 140.567403 
" style="fill:none;stroke:#808080;stroke-linecap:square;stroke-width:1.5;"/>
   </g>
   <g id="line2d_10">
    <path clip-path="url(#pa43210f867)" d="M 74.835611 112.74002 
L 185.03274 85.137424 
" style="fill:none;stroke:#808080;stroke-linecap:square;stroke-width:1.5;"/>
   </g>
   <g id="matplotlib.axis_1">
    <g id="xtick_1">
     <g id="line2d_11">
      <defs>
       <path d="M 0 0 
L 0 3.5 
" id="m74349452ba" style="stroke:#000000;stroke-width:0.8;"/>
      </defs>
      <g>
       <use style="stroke:#000000;stroke-width:0.8;" x="99.211093" xlink:href="#m74349452ba" y="161.08"/>
      </g>
     </g>
     <g id="text_1">
      <!-- 0 -->
      <defs>
       <path d="M 31.78125 66.40625 
Q 24.171875 66.40625 20.328125 58.90625 
Q 16.5 51.421875 16.5 36.375 
Q 16.5 21.390625 20.328125 13.890625 
Q 24.171875 6.390625 31.78125 6.390625 
Q 39.453125 6.390625 43.28125 13.890625 
Q 47.125 21.390625 47.125 36.375 
Q 47.125 51.421875 43.28125 58.90625 
Q 39.453125 66.40625 31.78125 66.40625 
z
M 31.78125 74.21875 
Q 44.046875 74.21875 50.515625 64.515625 
Q 56.984375 54.828125 56.984375 36.375 
Q 56.984375 17.96875 50.515625 8.265625 
Q 44.046875 -1.421875 31.78125 -1.421875 
Q 19.53125 -1.421875 13.0625 8.265625 
Q 6.59375 17.96875 6.59375 36.375 
Q 6.59375 54.828125 13.0625 64.515625 
Q 19.53125 74.21875 31.78125 74.21875 
z
" id="DejaVuSans-48"/>
      </defs>
      <g transform="translate(96.029843 175.678438)scale(0.1 -0.1)">
       <use xlink:href="#DejaVuSans-48"/>
      </g>
     </g>
    </g>
    <g id="xtick_2">
     <g id="line2d_12">
      <g>
       <use style="stroke:#000000;stroke-width:0.8;" x="160.214217" xlink:href="#m74349452ba" y="161.08"/>
      </g>
     </g>
     <g id="text_2">
      <!-- 1 -->
      <defs>
       <path d="M 12.40625 8.296875 
L 28.515625 8.296875 
L 28.515625 63.921875 
L 10.984375 60.40625 
L 10.984375 69.390625 
L 28.421875 72.90625 
L 38.28125 72.90625 
L 38.28125 8.296875 
L 54.390625 8.296875 
L 54.390625 0 
L 12.40625 0 
z
" id="DejaVuSans-49"/>
      </defs>
      <g transform="translate(157.032967 175.678438)scale(0.1 -0.1)">
       <use xlink:href="#DejaVuSans-49"/>
      </g>
     </g>
    </g>
    <g id="text_3">
     <!-- $\beta$ for $d'^{2}$ -->
     <defs>
      <path d="M 13.625 3.375 
L 8.9375 -20.796875 
L -0.09375 -20.796875 
L 14.5 54.34375 
Q 18.84375 76.609375 39.65625 76.609375 
Q 60.75 76.609375 57.171875 57.8125 
Q 54.734375 44.4375 45.21875 39.546875 
Q 58.015625 35.15625 55.515625 22.125 
Q 51.125 -1.078125 27.484375 -1.03125 
Q 17.140625 -0.984375 13.625 3.375 
z
M 15.921875 15.09375 
Q 19.671875 6.59375 29.296875 6.640625 
Q 43.359375 6.640625 46.34375 21.96875 
Q 49.03125 35.75 26.171875 34.671875 
L 27.78125 42.96875 
Q 45.453125 42.671875 48.53125 58.59375 
Q 50.640625 69.34375 39.203125 69.28125 
Q 26.421875 69.28125 23.484375 54.046875 
z
" id="DejaVuSans-Oblique-946"/>
      <path id="DejaVuSans-32"/>
      <path d="M 37.109375 75.984375 
L 37.109375 68.5 
L 28.515625 68.5 
Q 23.6875 68.5 21.796875 66.546875 
Q 19.921875 64.59375 19.921875 59.515625 
L 19.921875 54.6875 
L 34.71875 54.6875 
L 34.71875 47.703125 
L 19.921875 47.703125 
L 19.921875 0 
L 10.890625 0 
L 10.890625 47.703125 
L 2.296875 47.703125 
L 2.296875 54.6875 
L 10.890625 54.6875 
L 10.890625 58.5 
Q 10.890625 67.625 15.140625 71.796875 
Q 19.390625 75.984375 28.609375 75.984375 
z
" id="DejaVuSans-102"/>
      <path d="M 30.609375 48.390625 
Q 23.390625 48.390625 19.1875 42.75 
Q 14.984375 37.109375 14.984375 27.296875 
Q 14.984375 17.484375 19.15625 11.84375 
Q 23.34375 6.203125 30.609375 6.203125 
Q 37.796875 6.203125 41.984375 11.859375 
Q 46.1875 17.53125 46.1875 27.296875 
Q 46.1875 37.015625 41.984375 42.703125 
Q 37.796875 48.390625 30.609375 48.390625 
z
M 30.609375 56 
Q 42.328125 56 49.015625 48.375 
Q 55.71875 40.765625 55.71875 27.296875 
Q 55.71875 13.875 49.015625 6.21875 
Q 42.328125 -1.421875 30.609375 -1.421875 
Q 18.84375 -1.421875 12.171875 6.21875 
Q 5.515625 13.875 5.515625 27.296875 
Q 5.515625 40.765625 12.171875 48.375 
Q 18.84375 56 30.609375 56 
z
" id="DejaVuSans-111"/>
      <path d="M 41.109375 46.296875 
Q 39.59375 47.171875 37.8125 47.578125 
Q 36.03125 48 33.890625 48 
Q 26.265625 48 22.1875 43.046875 
Q 18.109375 38.09375 18.109375 28.8125 
L 18.109375 0 
L 9.078125 0 
L 9.078125 54.6875 
L 18.109375 54.6875 
L 18.109375 46.1875 
Q 20.953125 51.171875 25.484375 53.578125 
Q 30.03125 56 36.53125 56 
Q 37.453125 56 38.578125 55.875 
Q 39.703125 55.765625 41.0625 55.515625 
z
" id="DejaVuSans-114"/>
      <path d="M 41.796875 8.203125 
Q 38.1875 3.46875 33.25 1.015625 
Q 28.328125 -1.421875 22.3125 -1.421875 
Q 14.109375 -1.421875 9.34375 4.171875 
Q 4.59375 9.765625 4.59375 19.484375 
Q 4.59375 27.59375 7.46875 34.9375 
Q 10.359375 42.28125 15.828125 48.09375 
Q 19.4375 51.953125 23.96875 53.96875 
Q 28.515625 56 33.5 56 
Q 38.765625 56 42.796875 53.453125 
Q 46.828125 50.921875 49.03125 46.1875 
L 54.890625 75.984375 
L 63.921875 75.984375 
L 49.125 0 
L 40.09375 0 
z
M 13.921875 21.09375 
Q 13.921875 14.015625 17.109375 10.0625 
Q 20.3125 6.109375 25.984375 6.109375 
Q 30.171875 6.109375 33.765625 8.125 
Q 37.359375 10.15625 40.09375 14.109375 
Q 42.96875 18.21875 44.625 23.578125 
Q 46.296875 28.953125 46.296875 34.1875 
Q 46.296875 40.96875 43.09375 44.765625 
Q 39.890625 48.578125 34.28125 48.578125 
Q 30.03125 48.578125 26.359375 46.578125 
Q 22.703125 44.578125 20.125 40.828125 
Q 17.28125 36.765625 15.59375 31.390625 
Q 13.921875 26.03125 13.921875 21.09375 
z
" id="DejaVuSans-Oblique-100"/>
      <path d="M 3.515625 5.421875 
Q 2.875 5.609375 2.875 6.390625 
L 15.09375 51.8125 
Q 15.671875 53.65625 17.078125 54.78125 
Q 18.5 55.90625 20.3125 55.90625 
Q 22.65625 55.90625 24.4375 54.359375 
Q 26.21875 52.828125 26.21875 50.484375 
Q 26.21875 49.46875 25.6875 48.1875 
L 7.625 4.984375 
Q 7.28125 4.296875 6.6875 4.296875 
Q 6.15625 4.296875 5 4.78125 
Q 3.859375 5.28125 3.515625 5.421875 
z
" id="Cmsy10-48"/>
      <path d="M 19.1875 8.296875 
L 53.609375 8.296875 
L 53.609375 0 
L 7.328125 0 
L 7.328125 8.296875 
Q 12.9375 14.109375 22.625 23.890625 
Q 32.328125 33.6875 34.8125 36.53125 
Q 39.546875 41.84375 41.421875 45.53125 
Q 43.3125 49.21875 43.3125 52.78125 
Q 43.3125 58.59375 39.234375 62.25 
Q 35.15625 65.921875 28.609375 65.921875 
Q 23.96875 65.921875 18.8125 64.3125 
Q 13.671875 62.703125 7.8125 59.421875 
L 7.8125 69.390625 
Q 13.765625 71.78125 18.9375 73 
Q 24.125 74.21875 28.421875 74.21875 
Q 39.75 74.21875 46.484375 68.546875 
Q 53.21875 62.890625 53.21875 53.421875 
Q 53.21875 48.921875 51.53125 44.890625 
Q 49.859375 40.875 45.40625 35.40625 
Q 44.1875 33.984375 37.640625 27.21875 
Q 31.109375 20.453125 19.1875 8.296875 
z
" id="DejaVuSans-50"/>
     </defs>
     <g transform="translate(114.5376 190.858125)scale(0.1 -0.1)">
      <use transform="translate(0 0.765625)" xlink:href="#DejaVuSans-Oblique-946"/>
      <use transform="translate(63.818359 0.765625)" xlink:href="#DejaVuSans-32"/>
      <use transform="translate(95.605469 0.765625)" xlink:href="#DejaVuSans-102"/>
      <use transform="translate(130.810547 0.765625)" xlink:href="#DejaVuSans-111"/>
      <use transform="translate(191.992188 0.765625)" xlink:href="#DejaVuSans-114"/>
      <use transform="translate(233.105469 0.765625)" xlink:href="#DejaVuSans-32"/>
      <use transform="translate(264.892578 0.765625)" xlink:href="#DejaVuSans-Oblique-100"/>
      <use transform="translate(335.816849 39.046875)scale(0.7)" xlink:href="#Cmsy10-48"/>
      <use transform="translate(358.751419 39.046875)scale(0.7)" xlink:href="#DejaVuSans-50"/>
     </g>
    </g>
   </g>
   <g id="matplotlib.axis_2">
    <g id="ytick_1">
     <g id="line2d_13">
      <defs>
       <path d="M 0 0 
L -3.5 0 
" id="m557beaf4a5" style="stroke:#000000;stroke-width:0.8;"/>
      </defs>
      <g>
       <use style="stroke:#000000;stroke-width:0.8;" x="61.472" xlink:href="#m557beaf4a5" y="144.078568"/>
      </g>
     </g>
     <g id="text_4">
      <!-- −0.2 -->
      <defs>
       <path d="M 10.59375 35.5 
L 73.1875 35.5 
L 73.1875 27.203125 
L 10.59375 27.203125 
z
" id="DejaVuSans-8722"/>
       <path d="M 10.6875 12.40625 
L 21 12.40625 
L 21 0 
L 10.6875 0 
z
" id="DejaVuSans-46"/>
      </defs>
      <g transform="translate(30.189188 147.877787)scale(0.1 -0.1)">
       <use xlink:href="#DejaVuSans-8722"/>
       <use x="83.789062" xlink:href="#DejaVuSans-48"/>
       <use x="147.412109" xlink:href="#DejaVuSans-46"/>
       <use x="179.199219" xlink:href="#DejaVuSans-50"/>
      </g>
     </g>
    </g>
    <g id="ytick_2">
     <g id="line2d_14">
      <g>
       <use style="stroke:#000000;stroke-width:0.8;" x="61.472" xlink:href="#m557beaf4a5" y="114.247207"/>
      </g>
     </g>
     <g id="text_5">
      <!-- 0.0 -->
      <g transform="translate(38.568875 118.046426)scale(0.1 -0.1)">
       <use xlink:href="#DejaVuSans-48"/>
       <use x="63.623047" xlink:href="#DejaVuSans-46"/>
       <use x="95.410156" xlink:href="#DejaVuSans-48"/>
      </g>
     </g>
    </g>
    <g id="ytick_3">
     <g id="line2d_15">
      <g>
       <use style="stroke:#000000;stroke-width:0.8;" x="61.472" xlink:href="#m557beaf4a5" y="84.415847"/>
      </g>
     </g>
     <g id="text_6">
      <!-- 0.2 -->
      <g transform="translate(38.568875 88.215066)scale(0.1 -0.1)">
       <use xlink:href="#DejaVuSans-48"/>
       <use x="63.623047" xlink:href="#DejaVuSans-46"/>
       <use x="95.410156" xlink:href="#DejaVuSans-50"/>
      </g>
     </g>
    </g>
    <g id="ytick_4">
     <g id="line2d_16">
      <g>
       <use style="stroke:#000000;stroke-width:0.8;" x="61.472" xlink:href="#m557beaf4a5" y="54.584487"/>
      </g>
     </g>
     <g id="text_7">
      <!-- 0.4 -->
      <defs>
       <path d="M 37.796875 64.3125 
L 12.890625 25.390625 
L 37.796875 25.390625 
z
M 35.203125 72.90625 
L 47.609375 72.90625 
L 47.609375 25.390625 
L 58.015625 25.390625 
L 58.015625 17.1875 
L 47.609375 17.1875 
L 47.609375 0 
L 37.796875 0 
L 37.796875 17.1875 
L 4.890625 17.1875 
L 4.890625 26.703125 
z
" id="DejaVuSans-52"/>
      </defs>
      <g transform="translate(38.568875 58.383705)scale(0.1 -0.1)">
       <use xlink:href="#DejaVuSans-48"/>
       <use x="63.623047" xlink:href="#DejaVuSans-46"/>
       <use x="95.410156" xlink:href="#DejaVuSans-52"/>
      </g>
     </g>
    </g>
    <g id="text_8">
     <!-- $\beta$ for $\Delta d'^{2}$ -->
     <defs>
      <path d="M 34.1875 63.1875 
L 14.15625 8.203125 
L 54.25 8.203125 
z
M 0.78125 0 
L 28.609375 72.90625 
L 39.796875 72.90625 
L 67.578125 0 
z
" id="DejaVuSans-916"/>
     </defs>
     <g transform="translate(24.089188 117.01)rotate(-90)scale(0.1 -0.1)">
      <use transform="translate(0 0.765625)" xlink:href="#DejaVuSans-Oblique-946"/>
      <use transform="translate(63.818359 0.765625)" xlink:href="#DejaVuSans-32"/>
      <use transform="translate(95.605469 0.765625)" xlink:href="#DejaVuSans-102"/>
      <use transform="translate(130.810547 0.765625)" xlink:href="#DejaVuSans-111"/>
      <use transform="translate(191.992188 0.765625)" xlink:href="#DejaVuSans-114"/>
      <use transform="translate(233.105469 0.765625)" xlink:href="#DejaVuSans-32"/>
      <use transform="translate(264.892578 0.765625)" xlink:href="#DejaVuSans-916"/>
      <use transform="translate(333.300781 0.765625)" xlink:href="#DejaVuSans-Oblique-100"/>
      <use transform="translate(404.225052 39.046875)scale(0.7)" xlink:href="#Cmsy10-48"/>
      <use transform="translate(427.159622 39.046875)scale(0.7)" xlink:href="#DejaVuSans-50"/>
     </g>
    </g>
   </g>
   <g id="PathCollection_1">
    <defs>
     <path d="M 0 3.535534 
C 0.937635 3.535534 1.836992 3.163008 2.5 2.5 
C 3.163008 1.836992 3.535534 0.937635 3.535534 0 
C 3.535534 -0.937635 3.163008 -1.836992 2.5 -2.5 
C 1.836992 -3.163008 0.937635 -3.535534 0 -3.535534 
C -0.937635 -3.535534 -1.836992 -3.163008 -2.5 -2.5 
C -3.163008 -1.836992 -3.535534 -0.937635 -3.535534 0 
C -3.535534 0.937635 -3.163008 1.836992 -2.5 2.5 
C -1.836992 3.163008 -0.937635 3.535534 0 3.535534 
z
" id="mbec27f023a" style="stroke:#ffffff;"/>
    </defs>
    <g clip-path="url(#pa43210f867)">
     <use style="fill:#800080;stroke:#ffffff;" x="76.061327" xlink:href="#mbec27f023a" y="113.422643"/>
     <use style="fill:#800080;stroke:#ffffff;" x="79.903389" xlink:href="#mbec27f023a" y="92.361189"/>
     <use style="fill:#800080;stroke:#ffffff;" x="73.727788" xlink:href="#mbec27f023a" y="106.72794"/>
     <use style="fill:#800080;stroke:#ffffff;" x="84.204728" xlink:href="#mbec27f023a" y="79.307184"/>
     <use style="fill:#800080;stroke:#ffffff;" x="73.302895" xlink:href="#mbec27f023a" y="84.404162"/>
     <use style="fill:#800080;stroke:#ffffff;" x="76.235591" xlink:href="#mbec27f023a" y="81.125687"/>
     <use style="fill:#800080;stroke:#ffffff;" x="70.51428" xlink:href="#mbec27f023a" y="103.514195"/>
     <use style="fill:#800080;stroke:#ffffff;" x="78.975185" xlink:href="#mbec27f023a" y="85.673973"/>
     <use style="fill:#800080;stroke:#ffffff;" x="81.655427" xlink:href="#mbec27f023a" y="108.215004"/>
     <use style="fill:#800080;stroke:#ffffff;" x="74.835611" xlink:href="#mbec27f023a" y="112.74002"/>
    </g>
   </g>
   <g id="PathCollection_2">
    <defs>
     <path d="M 0 3.535534 
C 0.937635 3.535534 1.836992 3.163008 2.5 2.5 
C 3.163008 1.836992 3.535534 0.937635 3.535534 0 
C 3.535534 -0.937635 3.163008 -1.836992 2.5 -2.5 
C 1.836992 -3.163008 0.937635 -3.535534 0 -3.535534 
C -0.937635 -3.535534 -1.836992 -3.163008 -2.5 -2.5 
C -3.163008 -1.836992 -3.535534 -0.937635 -3.535534 0 
C -3.535534 0.937635 -3.163008 1.836992 -2.5 2.5 
C -1.836992 3.163008 -0.937635 3.535534 0 3.535534 
z
" id="mf335b1aa04" style="stroke:#ffffff;"/>
    </defs>
    <g clip-path="url(#pa43210f867)">
     <use style="fill:#ffa500;stroke:#ffffff;" x="160.349496" xlink:href="#mf335b1aa04" y="33.613845"/>
     <use style="fill:#ffa500;stroke:#ffffff;" x="160.205783" xlink:href="#mf335b1aa04" y="101.206766"/>
     <use style="fill:#ffa500;stroke:#ffffff;" x="169.107508" xlink:href="#mf335b1aa04" y="104.255737"/>
     <use style="fill:#ffa500;stroke:#ffffff;" x="188.003213" xlink:href="#mf335b1aa04" y="141.430831"/>
     <use style="fill:#ffa500;stroke:#ffffff;" x="163.104285" xlink:href="#mf335b1aa04" y="130.893157"/>
     <use style="fill:#ffa500;stroke:#ffffff;" x="147.619423" xlink:href="#mf335b1aa04" y="123.797639"/>
     <use style="fill:#ffa500;stroke:#ffffff;" x="176.889991" xlink:href="#mf335b1aa04" y="128.32689"/>
     <use style="fill:#ffa500;stroke:#ffffff;" x="199.217347" xlink:href="#mf335b1aa04" y="152.906155"/>
     <use style="fill:#ffa500;stroke:#ffffff;" x="177.942556" xlink:href="#mf335b1aa04" y="140.567403"/>
     <use style="fill:#ffa500;stroke:#ffffff;" x="185.03274" xlink:href="#mf335b1aa04" y="85.137424"/>
    </g>
   </g>
   <g id="line2d_17">
    <path clip-path="url(#pa43210f867)" d="M 61.472 114.247207 
L 208.3032 114.247207 
" style="fill:none;stroke:#000000;stroke-dasharray:5.55,2.4;stroke-dashoffset:0;stroke-width:1.5;"/>
   </g>
   <g id="line2d_18">
    <path clip-path="url(#pa43210f867)" d="M 99.211093 161.08 
L 99.211093 25.44 
" style="fill:none;stroke:#000000;stroke-dasharray:5.55,2.4;stroke-dashoffset:0;stroke-width:1.5;"/>
   </g>
   <g id="patch_3">
    <path d="M 61.472 161.08 
L 61.472 25.44 
" style="fill:none;stroke:#000000;stroke-linecap:square;stroke-linejoin:miter;stroke-width:0.8;"/>
   </g>
   <g id="patch_4">
    <path d="M 61.472 161.08 
L 208.3032 161.08 
" style="fill:none;stroke:#000000;stroke-linecap:square;stroke-linejoin:miter;stroke-width:0.8;"/>
   </g>
   <g id="text_9">
    <!-- Regression coefficients -->
    <defs>
     <path d="M 44.390625 34.1875 
Q 47.5625 33.109375 50.5625 29.59375 
Q 53.5625 26.078125 56.59375 19.921875 
L 66.609375 0 
L 56 0 
L 46.6875 18.703125 
Q 43.0625 26.03125 39.671875 28.421875 
Q 36.28125 30.8125 30.421875 30.8125 
L 19.671875 30.8125 
L 19.671875 0 
L 9.8125 0 
L 9.8125 72.90625 
L 32.078125 72.90625 
Q 44.578125 72.90625 50.734375 67.671875 
Q 56.890625 62.453125 56.890625 51.90625 
Q 56.890625 45.015625 53.6875 40.46875 
Q 50.484375 35.9375 44.390625 34.1875 
z
M 19.671875 64.796875 
L 19.671875 38.921875 
L 32.078125 38.921875 
Q 39.203125 38.921875 42.84375 42.21875 
Q 46.484375 45.515625 46.484375 51.90625 
Q 46.484375 58.296875 42.84375 61.546875 
Q 39.203125 64.796875 32.078125 64.796875 
z
" id="DejaVuSans-82"/>
     <path d="M 56.203125 29.59375 
L 56.203125 25.203125 
L 14.890625 25.203125 
Q 15.484375 15.921875 20.484375 11.0625 
Q 25.484375 6.203125 34.421875 6.203125 
Q 39.59375 6.203125 44.453125 7.46875 
Q 49.3125 8.734375 54.109375 11.28125 
L 54.109375 2.78125 
Q 49.265625 0.734375 44.1875 -0.34375 
Q 39.109375 -1.421875 33.890625 -1.421875 
Q 20.796875 -1.421875 13.15625 6.1875 
Q 5.515625 13.8125 5.515625 26.8125 
Q 5.515625 40.234375 12.765625 48.109375 
Q 20.015625 56 32.328125 56 
Q 43.359375 56 49.78125 48.890625 
Q 56.203125 41.796875 56.203125 29.59375 
z
M 47.21875 32.234375 
Q 47.125 39.59375 43.09375 43.984375 
Q 39.0625 48.390625 32.421875 48.390625 
Q 24.90625 48.390625 20.390625 44.140625 
Q 15.875 39.890625 15.1875 32.171875 
z
" id="DejaVuSans-101"/>
     <path d="M 45.40625 27.984375 
Q 45.40625 37.75 41.375 43.109375 
Q 37.359375 48.484375 30.078125 48.484375 
Q 22.859375 48.484375 18.828125 43.109375 
Q 14.796875 37.75 14.796875 27.984375 
Q 14.796875 18.265625 18.828125 12.890625 
Q 22.859375 7.515625 30.078125 7.515625 
Q 37.359375 7.515625 41.375 12.890625 
Q 45.40625 18.265625 45.40625 27.984375 
z
M 54.390625 6.78125 
Q 54.390625 -7.171875 48.1875 -13.984375 
Q 42 -20.796875 29.203125 -20.796875 
Q 24.46875 -20.796875 20.265625 -20.09375 
Q 16.0625 -19.390625 12.109375 -17.921875 
L 12.109375 -9.1875 
Q 16.0625 -11.328125 19.921875 -12.34375 
Q 23.78125 -13.375 27.78125 -13.375 
Q 36.625 -13.375 41.015625 -8.765625 
Q 45.40625 -4.15625 45.40625 5.171875 
L 45.40625 9.625 
Q 42.625 4.78125 38.28125 2.390625 
Q 33.9375 0 27.875 0 
Q 17.828125 0 11.671875 7.65625 
Q 5.515625 15.328125 5.515625 27.984375 
Q 5.515625 40.671875 11.671875 48.328125 
Q 17.828125 56 27.875 56 
Q 33.9375 56 38.28125 53.609375 
Q 42.625 51.21875 45.40625 46.390625 
L 45.40625 54.6875 
L 54.390625 54.6875 
z
" id="DejaVuSans-103"/>
     <path d="M 44.28125 53.078125 
L 44.28125 44.578125 
Q 40.484375 46.53125 36.375 47.5 
Q 32.28125 48.484375 27.875 48.484375 
Q 21.1875 48.484375 17.84375 46.4375 
Q 14.5 44.390625 14.5 40.28125 
Q 14.5 37.15625 16.890625 35.375 
Q 19.28125 33.59375 26.515625 31.984375 
L 29.59375 31.296875 
Q 39.15625 29.25 43.1875 25.515625 
Q 47.21875 21.78125 47.21875 15.09375 
Q 47.21875 7.46875 41.1875 3.015625 
Q 35.15625 -1.421875 24.609375 -1.421875 
Q 20.21875 -1.421875 15.453125 -0.5625 
Q 10.6875 0.296875 5.421875 2 
L 5.421875 11.28125 
Q 10.40625 8.6875 15.234375 7.390625 
Q 20.0625 6.109375 24.8125 6.109375 
Q 31.15625 6.109375 34.5625 8.28125 
Q 37.984375 10.453125 37.984375 14.40625 
Q 37.984375 18.0625 35.515625 20.015625 
Q 33.0625 21.96875 24.703125 23.78125 
L 21.578125 24.515625 
Q 13.234375 26.265625 9.515625 29.90625 
Q 5.8125 33.546875 5.8125 39.890625 
Q 5.8125 47.609375 11.28125 51.796875 
Q 16.75 56 26.8125 56 
Q 31.78125 56 36.171875 55.265625 
Q 40.578125 54.546875 44.28125 53.078125 
z
" id="DejaVuSans-115"/>
     <path d="M 9.421875 54.6875 
L 18.40625 54.6875 
L 18.40625 0 
L 9.421875 0 
z
M 9.421875 75.984375 
L 18.40625 75.984375 
L 18.40625 64.59375 
L 9.421875 64.59375 
z
" id="DejaVuSans-105"/>
     <path d="M 54.890625 33.015625 
L 54.890625 0 
L 45.90625 0 
L 45.90625 32.71875 
Q 45.90625 40.484375 42.875 44.328125 
Q 39.84375 48.1875 33.796875 48.1875 
Q 26.515625 48.1875 22.3125 43.546875 
Q 18.109375 38.921875 18.109375 30.90625 
L 18.109375 0 
L 9.078125 0 
L 9.078125 54.6875 
L 18.109375 54.6875 
L 18.109375 46.1875 
Q 21.34375 51.125 25.703125 53.5625 
Q 30.078125 56 35.796875 56 
Q 45.21875 56 50.046875 50.171875 
Q 54.890625 44.34375 54.890625 33.015625 
z
" id="DejaVuSans-110"/>
     <path d="M 48.78125 52.59375 
L 48.78125 44.1875 
Q 44.96875 46.296875 41.140625 47.34375 
Q 37.3125 48.390625 33.40625 48.390625 
Q 24.65625 48.390625 19.8125 42.84375 
Q 14.984375 37.3125 14.984375 27.296875 
Q 14.984375 17.28125 19.8125 11.734375 
Q 24.65625 6.203125 33.40625 6.203125 
Q 37.3125 6.203125 41.140625 7.25 
Q 44.96875 8.296875 48.78125 10.40625 
L 48.78125 2.09375 
Q 45.015625 0.34375 40.984375 -0.53125 
Q 36.96875 -1.421875 32.421875 -1.421875 
Q 20.0625 -1.421875 12.78125 6.34375 
Q 5.515625 14.109375 5.515625 27.296875 
Q 5.515625 40.671875 12.859375 48.328125 
Q 20.21875 56 33.015625 56 
Q 37.15625 56 41.109375 55.140625 
Q 45.0625 54.296875 48.78125 52.59375 
z
" id="DejaVuSans-99"/>
     <path d="M 18.3125 70.21875 
L 18.3125 54.6875 
L 36.8125 54.6875 
L 36.8125 47.703125 
L 18.3125 47.703125 
L 18.3125 18.015625 
Q 18.3125 11.328125 20.140625 9.421875 
Q 21.96875 7.515625 27.59375 7.515625 
L 36.8125 7.515625 
L 36.8125 0 
L 27.59375 0 
Q 17.1875 0 13.234375 3.875 
Q 9.28125 7.765625 9.28125 18.015625 
L 9.28125 47.703125 
L 2.6875 47.703125 
L 2.6875 54.6875 
L 9.28125 54.6875 
L 9.28125 70.21875 
z
" id="DejaVuSans-116"/>
    </defs>
    <g transform="translate(65.274475 19.44)scale(0.12 -0.12)">
     <use xlink:href="#DejaVuSans-82"/>
     <use x="69.419922" xlink:href="#DejaVuSans-101"/>
     <use x="130.943359" xlink:href="#DejaVuSans-103"/>
     <use x="194.419922" xlink:href="#DejaVuSans-114"/>
     <use x="235.501953" xlink:href="#DejaVuSans-101"/>
     <use x="297.025391" xlink:href="#DejaVuSans-115"/>
     <use x="349.125" xlink:href="#DejaVuSans-115"/>
     <use x="401.224609" xlink:href="#DejaVuSans-105"/>
     <use x="429.007812" xlink:href="#DejaVuSans-111"/>
     <use x="490.189453" xlink:href="#DejaVuSans-110"/>
     <use x="553.568359" xlink:href="#DejaVuSans-32"/>
     <use x="585.355469" xlink:href="#DejaVuSans-99"/>
     <use x="640.335938" xlink:href="#DejaVuSans-111"/>
     <use x="701.517578" xlink:href="#DejaVuSans-101"/>
     <use x="763.041016" xlink:href="#DejaVuSans-102"/>
     <use x="798.246094" xlink:href="#DejaVuSans-102"/>
     <use x="833.451172" xlink:href="#DejaVuSans-105"/>
     <use x="861.234375" xlink:href="#DejaVuSans-99"/>
     <use x="916.214844" xlink:href="#DejaVuSans-105"/>
     <use x="943.998047" xlink:href="#DejaVuSans-101"/>
     <use x="1005.521484" xlink:href="#DejaVuSans-110"/>
     <use x="1068.900391" xlink:href="#DejaVuSans-116"/>
     <use x="1108.109375" xlink:href="#DejaVuSans-115"/>
    </g>
   </g>
   <g id="legend_1">
    <g id="PathCollection_3">
     <g>
      <use style="fill:#800080;stroke:#ffffff;" x="121.8032" xlink:href="#mbec27f023a" y="39.515"/>
     </g>
    </g>
    <g id="text_10">
     <!-- $|cos(\theta_{\Delta \mathbf{\mu}, \mathbf{e}_{1}})|$ -->
     <defs>
      <path d="M 21 76.421875 
L 21 -23.578125 
L 12.703125 -23.578125 
L 12.703125 76.421875 
z
" id="DejaVuSans-124"/>
      <path d="M 53.609375 52.59375 
L 51.8125 43.703125 
Q 48.578125 46.046875 44.9375 47.21875 
Q 41.3125 48.390625 37.40625 48.390625 
Q 33.109375 48.390625 29.21875 46.875 
Q 25.34375 45.359375 22.703125 42.578125 
Q 18.5 38.328125 16.203125 32.609375 
Q 13.921875 26.90625 13.921875 20.796875 
Q 13.921875 13.421875 17.609375 9.8125 
Q 21.296875 6.203125 28.8125 6.203125 
Q 32.515625 6.203125 36.6875 7.328125 
Q 40.875 8.453125 45.40625 10.6875 
L 43.703125 1.8125 
Q 39.796875 0.203125 35.671875 -0.609375 
Q 31.546875 -1.421875 27.203125 -1.421875 
Q 16.3125 -1.421875 10.453125 4.015625 
Q 4.59375 9.46875 4.59375 19.578125 
Q 4.59375 28.078125 7.640625 35.234375 
Q 10.6875 42.390625 16.703125 48.09375 
Q 20.796875 52 26.3125 54 
Q 31.84375 56 38.375 56 
Q 42.1875 56 45.9375 55.140625 
Q 49.703125 54.296875 53.609375 52.59375 
z
" id="DejaVuSans-Oblique-99"/>
      <path d="M 25.390625 -1.421875 
Q 15.765625 -1.421875 10.171875 4.515625 
Q 4.59375 10.453125 4.59375 20.703125 
Q 4.59375 26.65625 6.515625 32.828125 
Q 8.453125 39.015625 11.53125 43.21875 
Q 16.359375 49.75 22.3125 52.875 
Q 28.265625 56 35.796875 56 
Q 45.125 56 50.859375 50.1875 
Q 56.59375 44.390625 56.59375 35.015625 
Q 56.59375 28.515625 54.6875 22.0625 
Q 52.78125 15.625 49.703125 11.375 
Q 44.921875 4.828125 38.96875 1.703125 
Q 33.015625 -1.421875 25.390625 -1.421875 
z
M 13.921875 21 
Q 13.921875 13.578125 17.015625 9.890625 
Q 20.125 6.203125 26.421875 6.203125 
Q 35.453125 6.203125 41.375 14.078125 
Q 47.3125 21.96875 47.3125 34.078125 
Q 47.3125 41.15625 44.140625 44.765625 
Q 40.96875 48.390625 34.8125 48.390625 
Q 29.734375 48.390625 25.78125 46.015625 
Q 21.828125 43.65625 18.703125 38.8125 
Q 16.40625 35.203125 15.15625 30.5625 
Q 13.921875 25.921875 13.921875 21 
z
" id="DejaVuSans-Oblique-111"/>
      <path d="M 50 53.078125 
L 48.296875 44.578125 
Q 44.734375 46.53125 40.765625 47.5 
Q 36.8125 48.484375 32.625 48.484375 
Q 25.53125 48.484375 21.453125 46.0625 
Q 17.390625 43.65625 17.390625 39.5 
Q 17.390625 34.671875 26.859375 32.078125 
Q 27.59375 31.890625 27.9375 31.78125 
L 30.8125 30.90625 
Q 39.796875 28.421875 42.796875 25.6875 
Q 45.796875 22.953125 45.796875 18.21875 
Q 45.796875 9.515625 38.890625 4.046875 
Q 31.984375 -1.421875 20.796875 -1.421875 
Q 16.453125 -1.421875 11.671875 -0.578125 
Q 6.890625 0.25 1.125 2 
L 2.875 11.28125 
Q 7.8125 8.734375 12.59375 7.421875 
Q 17.390625 6.109375 21.78125 6.109375 
Q 28.375 6.109375 32.5 8.9375 
Q 36.625 11.765625 36.625 16.109375 
Q 36.625 20.796875 25.78125 23.6875 
L 24.859375 23.921875 
L 21.78125 24.703125 
Q 14.9375 26.515625 11.765625 29.46875 
Q 8.59375 32.421875 8.59375 37.015625 
Q 8.59375 45.75 15.15625 50.875 
Q 21.734375 56 33.015625 56 
Q 37.453125 56 41.671875 55.265625 
Q 45.90625 54.546875 50 53.078125 
z
" id="DejaVuSans-Oblique-115"/>
      <path d="M 31 75.875 
Q 24.46875 64.65625 21.28125 53.65625 
Q 18.109375 42.671875 18.109375 31.390625 
Q 18.109375 20.125 21.3125 9.0625 
Q 24.515625 -2 31 -13.1875 
L 23.1875 -13.1875 
Q 15.875 -1.703125 12.234375 9.375 
Q 8.59375 20.453125 8.59375 31.390625 
Q 8.59375 42.28125 12.203125 53.3125 
Q 15.828125 64.359375 23.1875 75.875 
z
" id="DejaVuSans-40"/>
      <path d="M 45.515625 34.671875 
L 14.453125 34.671875 
Q 12.359375 20.0625 14.5 13.875 
Q 17.1875 6.25 24.46875 6.25 
Q 31.78125 6.25 37.359375 13.921875 
Q 42.234375 20.65625 45.515625 34.671875 
z
M 47.015625 42.96875 
Q 48.34375 56.84375 46.625 61.71875 
Q 43.953125 69.4375 36.765625 69.4375 
Q 29.296875 69.4375 23.828125 61.8125 
Q 19.53125 55.671875 16.15625 42.96875 
z
M 38.1875 76.765625 
Q 49.90625 76.765625 54.59375 66.40625 
Q 59.28125 56.109375 55.71875 37.84375 
Q 52.203125 19.625 43.453125 9.28125 
Q 34.765625 -1.125 23.046875 -1.125 
Q 11.28125 -1.125 6.640625 9.28125 
Q 2 19.625 5.515625 37.84375 
Q 9.078125 56.109375 17.71875 66.40625 
Q 26.421875 76.765625 38.1875 76.765625 
z
" id="DejaVuSans-Oblique-952"/>
      <path d="M 8.5 -20.90625 
L 8.5 54.6875 
L 26.125 54.6875 
L 26.125 22.90625 
Q 26.125 17.234375 28.5625 14.46875 
Q 31 11.71875 35.984375 11.71875 
Q 41.015625 11.71875 43.453125 14.46875 
Q 45.90625 17.234375 45.90625 22.90625 
L 45.90625 54.6875 
L 63.484375 54.6875 
L 63.484375 18.109375 
Q 63.484375 14.65625 64.28125 13.28125 
Q 65.09375 11.921875 67 11.921875 
Q 67.875 11.921875 68.671875 12.15625 
Q 69.484375 12.40625 70.40625 12.984375 
L 70.40625 0.78125 
Q 67.828125 -0.34375 65.546875 -0.875 
Q 63.28125 -1.421875 61.078125 -1.421875 
Q 56.734375 -1.421875 53.96875 0.40625 
Q 51.21875 2.25 49.515625 6.296875 
Q 47.21875 2.4375 43.921875 0.5 
Q 40.625 -1.421875 36.28125 -1.421875 
Q 32.671875 -1.421875 30.125 -0.265625 
Q 27.59375 0.875 26.125 3.21875 
L 26.125 -20.90625 
z
" id="DejaVuSans-Bold-956"/>
      <path d="M 11.71875 12.40625 
L 22.015625 12.40625 
L 22.015625 4 
L 14.015625 -11.625 
L 7.71875 -11.625 
L 11.71875 4 
z
" id="DejaVuSans-44"/>
      <path d="M 62.984375 27.484375 
L 62.984375 22.515625 
L 22.125 22.515625 
Q 22.75 16.359375 26.5625 13.28125 
Q 30.375 10.203125 37.203125 10.203125 
Q 42.71875 10.203125 48.5 11.84375 
Q 54.296875 13.484375 60.40625 16.796875 
L 60.40625 3.328125 
Q 54.203125 0.984375 48 -0.21875 
Q 41.796875 -1.421875 35.59375 -1.421875 
Q 20.75 -1.421875 12.515625 6.125 
Q 4.296875 13.671875 4.296875 27.296875 
Q 4.296875 40.671875 12.375 48.328125 
Q 20.453125 56 34.625 56 
Q 47.515625 56 55.25 48.234375 
Q 62.984375 40.484375 62.984375 27.484375 
z
M 45.015625 33.296875 
Q 45.015625 38.28125 42.109375 41.328125 
Q 39.203125 44.390625 34.515625 44.390625 
Q 29.4375 44.390625 26.265625 41.53125 
Q 23.09375 38.671875 22.3125 33.296875 
z
" id="DejaVuSans-Bold-101"/>
      <path d="M 8.015625 75.875 
L 15.828125 75.875 
Q 23.140625 64.359375 26.78125 53.3125 
Q 30.421875 42.28125 30.421875 31.390625 
Q 30.421875 20.453125 26.78125 9.375 
Q 23.140625 -1.703125 15.828125 -13.1875 
L 8.015625 -13.1875 
Q 14.5 -2 17.703125 9.0625 
Q 20.90625 20.125 20.90625 31.390625 
Q 20.90625 42.671875 17.703125 53.65625 
Q 14.5 64.65625 8.015625 75.875 
z
" id="DejaVuSans-41"/>
     </defs>
     <g transform="translate(139.8032 42.14)scale(0.1 -0.1)">
      <use transform="translate(0 0.234375)" xlink:href="#DejaVuSans-124"/>
      <use transform="translate(33.691406 0.234375)" xlink:href="#DejaVuSans-Oblique-99"/>
      <use transform="translate(88.671875 0.234375)" xlink:href="#DejaVuSans-Oblique-111"/>
      <use transform="translate(149.853516 0.234375)" xlink:href="#DejaVuSans-Oblique-115"/>
      <use transform="translate(201.953125 0.234375)" xlink:href="#DejaVuSans-40"/>
      <use transform="translate(240.966797 0.234375)" xlink:href="#DejaVuSans-Oblique-952"/>
      <use transform="translate(302.148438 -16.171875)scale(0.7)" xlink:href="#DejaVuSans-916"/>
      <use transform="translate(350.03418 -16.171875)scale(0.7)" xlink:href="#DejaVuSans-Bold-956"/>
      <use transform="translate(401.542969 -16.171875)scale(0.7)" xlink:href="#DejaVuSans-44"/>
      <use transform="translate(437.431641 -16.171875)scale(0.7)" xlink:href="#DejaVuSans-Bold-101"/>
      <use transform="translate(485.577148 -27.65625)scale(0.49)" xlink:href="#DejaVuSans-49"/>
      <use transform="translate(521.400879 0.234375)" xlink:href="#DejaVuSans-41"/>
      <use transform="translate(560.414551 0.234375)" xlink:href="#DejaVuSans-124"/>
     </g>
    </g>
    <g id="PathCollection_4">
     <g>
      <use style="fill:#ffa500;stroke:#ffffff;" x="121.8032" xlink:href="#mf335b1aa04" y="55.415"/>
     </g>
    </g>
    <g id="text_11">
     <!-- $|\Delta \mathbf{\mu}|$ -->
     <g transform="translate(139.8032 58.04)scale(0.1 -0.1)">
      <use transform="translate(0 0.578125)" xlink:href="#DejaVuSans-124"/>
      <use transform="translate(33.691406 0.578125)" xlink:href="#DejaVuSans-916"/>
      <use transform="translate(102.099609 0.578125)" xlink:href="#DejaVuSans-Bold-956"/>
      <use transform="translate(175.683594 0.578125)" xlink:href="#DejaVuSans-124"/>
     </g>
    </g>
   </g>
  </g>
  <g id="axes_2">
   <g id="patch_5">
    <path d="M 271.8488 161.08 
L 418.68 161.08 
L 418.68 25.44 
L 271.8488 25.44 
z
" style="fill:#ffffff;"/>
   </g>
   <g id="matplotlib.axis_3">
    <g id="xtick_3">
     <g id="line2d_19">
      <defs>
       <path d="M 0 0 
L 0 3.5 
" id="ma9176b59d8" style="stroke:#ffa500;stroke-width:0.8;"/>
      </defs>
      <g>
       <use style="fill:#ffa500;stroke:#ffa500;stroke-width:0.8;" x="287.306437" xlink:href="#ma9176b59d8" y="161.08"/>
      </g>
     </g>
     <g id="text_12">
      <!-- 2 -->
      <g style="fill:#ffa500;" transform="translate(284.125187 175.678438)scale(0.1 -0.1)">
       <use xlink:href="#DejaVuSans-50"/>
      </g>
     </g>
    </g>
    <g id="xtick_4">
     <g id="line2d_20">
      <g>
       <use style="fill:#ffa500;stroke:#ffa500;stroke-width:0.8;" x="329.721393" xlink:href="#ma9176b59d8" y="161.08"/>
      </g>
     </g>
     <g id="text_13">
      <!-- 4 -->
      <g style="fill:#ffa500;" transform="translate(326.540143 175.678438)scale(0.1 -0.1)">
       <use xlink:href="#DejaVuSans-52"/>
      </g>
     </g>
    </g>
    <g id="xtick_5">
     <g id="line2d_21">
      <g>
       <use style="fill:#ffa500;stroke:#ffa500;stroke-width:0.8;" x="372.136348" xlink:href="#ma9176b59d8" y="161.08"/>
      </g>
     </g>
     <g id="text_14">
      <!-- 6 -->
      <defs>
       <path d="M 33.015625 40.375 
Q 26.375 40.375 22.484375 35.828125 
Q 18.609375 31.296875 18.609375 23.390625 
Q 18.609375 15.53125 22.484375 10.953125 
Q 26.375 6.390625 33.015625 6.390625 
Q 39.65625 6.390625 43.53125 10.953125 
Q 47.40625 15.53125 47.40625 23.390625 
Q 47.40625 31.296875 43.53125 35.828125 
Q 39.65625 40.375 33.015625 40.375 
z
M 52.59375 71.296875 
L 52.59375 62.3125 
Q 48.875 64.0625 45.09375 64.984375 
Q 41.3125 65.921875 37.59375 65.921875 
Q 27.828125 65.921875 22.671875 59.328125 
Q 17.53125 52.734375 16.796875 39.40625 
Q 19.671875 43.65625 24.015625 45.921875 
Q 28.375 48.1875 33.59375 48.1875 
Q 44.578125 48.1875 50.953125 41.515625 
Q 57.328125 34.859375 57.328125 23.390625 
Q 57.328125 12.15625 50.6875 5.359375 
Q 44.046875 -1.421875 33.015625 -1.421875 
Q 20.359375 -1.421875 13.671875 8.265625 
Q 6.984375 17.96875 6.984375 36.375 
Q 6.984375 53.65625 15.1875 63.9375 
Q 23.390625 74.21875 37.203125 74.21875 
Q 40.921875 74.21875 44.703125 73.484375 
Q 48.484375 72.75 52.59375 71.296875 
z
" id="DejaVuSans-54"/>
      </defs>
      <g style="fill:#ffa500;" transform="translate(368.955098 175.678438)scale(0.1 -0.1)">
       <use xlink:href="#DejaVuSans-54"/>
      </g>
     </g>
    </g>
    <g id="xtick_6">
     <g id="line2d_22">
      <g>
       <use style="fill:#ffa500;stroke:#ffa500;stroke-width:0.8;" x="414.551303" xlink:href="#ma9176b59d8" y="161.08"/>
      </g>
     </g>
     <g id="text_15">
      <!-- 8 -->
      <defs>
       <path d="M 31.78125 34.625 
Q 24.75 34.625 20.71875 30.859375 
Q 16.703125 27.09375 16.703125 20.515625 
Q 16.703125 13.921875 20.71875 10.15625 
Q 24.75 6.390625 31.78125 6.390625 
Q 38.8125 6.390625 42.859375 10.171875 
Q 46.921875 13.96875 46.921875 20.515625 
Q 46.921875 27.09375 42.890625 30.859375 
Q 38.875 34.625 31.78125 34.625 
z
M 21.921875 38.8125 
Q 15.578125 40.375 12.03125 44.71875 
Q 8.5 49.078125 8.5 55.328125 
Q 8.5 64.0625 14.71875 69.140625 
Q 20.953125 74.21875 31.78125 74.21875 
Q 42.671875 74.21875 48.875 69.140625 
Q 55.078125 64.0625 55.078125 55.328125 
Q 55.078125 49.078125 51.53125 44.71875 
Q 48 40.375 41.703125 38.8125 
Q 48.828125 37.15625 52.796875 32.3125 
Q 56.78125 27.484375 56.78125 20.515625 
Q 56.78125 9.90625 50.3125 4.234375 
Q 43.84375 -1.421875 31.78125 -1.421875 
Q 19.734375 -1.421875 13.25 4.234375 
Q 6.78125 9.90625 6.78125 20.515625 
Q 6.78125 27.484375 10.78125 32.3125 
Q 14.796875 37.15625 21.921875 38.8125 
z
M 18.3125 54.390625 
Q 18.3125 48.734375 21.84375 45.5625 
Q 25.390625 42.390625 31.78125 42.390625 
Q 38.140625 42.390625 41.71875 45.5625 
Q 45.3125 48.734375 45.3125 54.390625 
Q 45.3125 60.0625 41.71875 63.234375 
Q 38.140625 66.40625 31.78125 66.40625 
Q 25.390625 66.40625 21.84375 63.234375 
Q 18.3125 60.0625 18.3125 54.390625 
z
" id="DejaVuSans-56"/>
      </defs>
      <g style="fill:#ffa500;" transform="translate(411.370053 175.678438)scale(0.1 -0.1)">
       <use xlink:href="#DejaVuSans-56"/>
      </g>
     </g>
    </g>
    <g id="text_16">
     <!-- Signal  -->
     <defs>
      <path d="M 53.515625 70.515625 
L 53.515625 60.890625 
Q 47.90625 63.578125 42.921875 64.890625 
Q 37.9375 66.21875 33.296875 66.21875 
Q 25.25 66.21875 20.875 63.09375 
Q 16.5 59.96875 16.5 54.203125 
Q 16.5 49.359375 19.40625 46.890625 
Q 22.3125 44.4375 30.421875 42.921875 
L 36.375 41.703125 
Q 47.40625 39.59375 52.65625 34.296875 
Q 57.90625 29 57.90625 20.125 
Q 57.90625 9.515625 50.796875 4.046875 
Q 43.703125 -1.421875 29.984375 -1.421875 
Q 24.8125 -1.421875 18.96875 -0.25 
Q 13.140625 0.921875 6.890625 3.21875 
L 6.890625 13.375 
Q 12.890625 10.015625 18.65625 8.296875 
Q 24.421875 6.59375 29.984375 6.59375 
Q 38.421875 6.59375 43.015625 9.90625 
Q 47.609375 13.234375 47.609375 19.390625 
Q 47.609375 24.75 44.3125 27.78125 
Q 41.015625 30.8125 33.5 32.328125 
L 27.484375 33.5 
Q 16.453125 35.6875 11.515625 40.375 
Q 6.59375 45.0625 6.59375 53.421875 
Q 6.59375 63.09375 13.40625 68.65625 
Q 20.21875 74.21875 32.171875 74.21875 
Q 37.3125 74.21875 42.625 73.28125 
Q 47.953125 72.359375 53.515625 70.515625 
z
" id="DejaVuSans-83"/>
      <path d="M 34.28125 27.484375 
Q 23.390625 27.484375 19.1875 25 
Q 14.984375 22.515625 14.984375 16.5 
Q 14.984375 11.71875 18.140625 8.90625 
Q 21.296875 6.109375 26.703125 6.109375 
Q 34.1875 6.109375 38.703125 11.40625 
Q 43.21875 16.703125 43.21875 25.484375 
L 43.21875 27.484375 
z
M 52.203125 31.203125 
L 52.203125 0 
L 43.21875 0 
L 43.21875 8.296875 
Q 40.140625 3.328125 35.546875 0.953125 
Q 30.953125 -1.421875 24.3125 -1.421875 
Q 15.921875 -1.421875 10.953125 3.296875 
Q 6 8.015625 6 15.921875 
Q 6 25.140625 12.171875 29.828125 
Q 18.359375 34.515625 30.609375 34.515625 
L 43.21875 34.515625 
L 43.21875 35.40625 
Q 43.21875 41.609375 39.140625 45 
Q 35.0625 48.390625 27.6875 48.390625 
Q 23 48.390625 18.546875 47.265625 
Q 14.109375 46.140625 10.015625 43.890625 
L 10.015625 52.203125 
Q 14.9375 54.109375 19.578125 55.046875 
Q 24.21875 56 28.609375 56 
Q 40.484375 56 46.34375 49.84375 
Q 52.203125 43.703125 52.203125 31.203125 
z
" id="DejaVuSans-97"/>
      <path d="M 9.421875 75.984375 
L 18.40625 75.984375 
L 18.40625 0 
L 9.421875 0 
z
" id="DejaVuSans-108"/>
     </defs>
     <g style="fill:#ffa500;" transform="translate(328.315962 189.03625)scale(0.1 -0.1)">
      <use xlink:href="#DejaVuSans-83"/>
      <use x="63.476562" xlink:href="#DejaVuSans-105"/>
      <use x="91.259766" xlink:href="#DejaVuSans-103"/>
      <use x="154.736328" xlink:href="#DejaVuSans-110"/>
      <use x="218.115234" xlink:href="#DejaVuSans-97"/>
      <use x="279.394531" xlink:href="#DejaVuSans-108"/>
      <use x="307.177734" xlink:href="#DejaVuSans-32"/>
     </g>
     <!-- $|\Delta \mathbf{\mu}|$ -->
     <g style="fill:#ffa500;" transform="translate(334.7644 200.355937)scale(0.1 -0.1)">
      <use transform="translate(0 0.578125)" xlink:href="#DejaVuSans-124"/>
      <use transform="translate(33.691406 0.578125)" xlink:href="#DejaVuSans-916"/>
      <use transform="translate(102.099609 0.578125)" xlink:href="#DejaVuSans-Bold-956"/>
      <use transform="translate(175.683594 0.578125)" xlink:href="#DejaVuSans-124"/>
     </g>
    </g>
   </g>
   <g id="matplotlib.axis_4">
    <g id="ytick_5">
     <g id="line2d_23">
      <defs>
       <path d="M 0 0 
L -3.5 0 
" id="m201dd34565" style="stroke:#800080;stroke-width:0.8;"/>
      </defs>
      <g>
       <use style="fill:#800080;stroke:#800080;stroke-width:0.8;" x="271.8488" xlink:href="#m201dd34565" y="153.406255"/>
      </g>
     </g>
     <g id="text_17">
      <!-- 0.2 -->
      <g style="fill:#800080;" transform="translate(248.945675 157.205474)scale(0.1 -0.1)">
       <use xlink:href="#DejaVuSans-48"/>
       <use x="63.623047" xlink:href="#DejaVuSans-46"/>
       <use x="95.410156" xlink:href="#DejaVuSans-50"/>
      </g>
     </g>
    </g>
    <g id="ytick_6">
     <g id="line2d_24">
      <g>
       <use style="fill:#800080;stroke:#800080;stroke-width:0.8;" x="271.8488" xlink:href="#m201dd34565" y="122.956055"/>
      </g>
     </g>
     <g id="text_18">
      <!-- 0.4 -->
      <g style="fill:#800080;" transform="translate(248.945675 126.755274)scale(0.1 -0.1)">
       <use xlink:href="#DejaVuSans-48"/>
       <use x="63.623047" xlink:href="#DejaVuSans-46"/>
       <use x="95.410156" xlink:href="#DejaVuSans-52"/>
      </g>
     </g>
    </g>
    <g id="ytick_7">
     <g id="line2d_25">
      <g>
       <use style="fill:#800080;stroke:#800080;stroke-width:0.8;" x="271.8488" xlink:href="#m201dd34565" y="92.505855"/>
      </g>
     </g>
     <g id="text_19">
      <!-- 0.6 -->
      <g style="fill:#800080;" transform="translate(248.945675 96.305074)scale(0.1 -0.1)">
       <use xlink:href="#DejaVuSans-48"/>
       <use x="63.623047" xlink:href="#DejaVuSans-46"/>
       <use x="95.410156" xlink:href="#DejaVuSans-54"/>
      </g>
     </g>
    </g>
    <g id="ytick_8">
     <g id="line2d_26">
      <g>
       <use style="fill:#800080;stroke:#800080;stroke-width:0.8;" x="271.8488" xlink:href="#m201dd34565" y="62.055655"/>
      </g>
     </g>
     <g id="text_20">
      <!-- 0.8 -->
      <g style="fill:#800080;" transform="translate(248.945675 65.854873)scale(0.1 -0.1)">
       <use xlink:href="#DejaVuSans-48"/>
       <use x="63.623047" xlink:href="#DejaVuSans-46"/>
       <use x="95.410156" xlink:href="#DejaVuSans-56"/>
      </g>
     </g>
    </g>
    <g id="ytick_9">
     <g id="line2d_27">
      <g>
       <use style="fill:#800080;stroke:#800080;stroke-width:0.8;" x="271.8488" xlink:href="#m201dd34565" y="31.605455"/>
      </g>
     </g>
     <g id="text_21">
      <!-- 1.0 -->
      <g style="fill:#800080;" transform="translate(248.945675 35.404673)scale(0.1 -0.1)">
       <use xlink:href="#DejaVuSans-49"/>
       <use x="63.623047" xlink:href="#DejaVuSans-46"/>
       <use x="95.410156" xlink:href="#DejaVuSans-48"/>
      </g>
     </g>
    </g>
    <g id="text_22">
     <!-- Signal vs. Noise Overlap  -->
     <defs>
      <path d="M 2.984375 54.6875 
L 12.5 54.6875 
L 29.59375 8.796875 
L 46.6875 54.6875 
L 56.203125 54.6875 
L 35.6875 0 
L 23.484375 0 
z
" id="DejaVuSans-118"/>
      <path d="M 9.8125 72.90625 
L 23.09375 72.90625 
L 55.421875 11.921875 
L 55.421875 72.90625 
L 64.984375 72.90625 
L 64.984375 0 
L 51.703125 0 
L 19.390625 60.984375 
L 19.390625 0 
L 9.8125 0 
z
" id="DejaVuSans-78"/>
      <path d="M 39.40625 66.21875 
Q 28.65625 66.21875 22.328125 58.203125 
Q 16.015625 50.203125 16.015625 36.375 
Q 16.015625 22.609375 22.328125 14.59375 
Q 28.65625 6.59375 39.40625 6.59375 
Q 50.140625 6.59375 56.421875 14.59375 
Q 62.703125 22.609375 62.703125 36.375 
Q 62.703125 50.203125 56.421875 58.203125 
Q 50.140625 66.21875 39.40625 66.21875 
z
M 39.40625 74.21875 
Q 54.734375 74.21875 63.90625 63.9375 
Q 73.09375 53.65625 73.09375 36.375 
Q 73.09375 19.140625 63.90625 8.859375 
Q 54.734375 -1.421875 39.40625 -1.421875 
Q 24.03125 -1.421875 14.8125 8.828125 
Q 5.609375 19.09375 5.609375 36.375 
Q 5.609375 53.65625 14.8125 63.9375 
Q 24.03125 74.21875 39.40625 74.21875 
z
" id="DejaVuSans-79"/>
      <path d="M 18.109375 8.203125 
L 18.109375 -20.796875 
L 9.078125 -20.796875 
L 9.078125 54.6875 
L 18.109375 54.6875 
L 18.109375 46.390625 
Q 20.953125 51.265625 25.265625 53.625 
Q 29.59375 56 35.59375 56 
Q 45.5625 56 51.78125 48.09375 
Q 58.015625 40.1875 58.015625 27.296875 
Q 58.015625 14.40625 51.78125 6.484375 
Q 45.5625 -1.421875 35.59375 -1.421875 
Q 29.59375 -1.421875 25.265625 0.953125 
Q 20.953125 3.328125 18.109375 8.203125 
z
M 48.6875 27.296875 
Q 48.6875 37.203125 44.609375 42.84375 
Q 40.53125 48.484375 33.40625 48.484375 
Q 26.265625 48.484375 22.1875 42.84375 
Q 18.109375 37.203125 18.109375 27.296875 
Q 18.109375 17.390625 22.1875 11.75 
Q 26.265625 6.109375 33.40625 6.109375 
Q 40.53125 6.109375 44.609375 11.75 
Q 48.6875 17.390625 48.6875 27.296875 
z
" id="DejaVuSans-112"/>
     </defs>
     <g style="fill:#800080;" transform="translate(230.425987 155.65375)rotate(-90)scale(0.1 -0.1)">
      <use xlink:href="#DejaVuSans-83"/>
      <use x="63.476562" xlink:href="#DejaVuSans-105"/>
      <use x="91.259766" xlink:href="#DejaVuSans-103"/>
      <use x="154.736328" xlink:href="#DejaVuSans-110"/>
      <use x="218.115234" xlink:href="#DejaVuSans-97"/>
      <use x="279.394531" xlink:href="#DejaVuSans-108"/>
      <use x="307.177734" xlink:href="#DejaVuSans-32"/>
      <use x="338.964844" xlink:href="#DejaVuSans-118"/>
      <use x="398.144531" xlink:href="#DejaVuSans-115"/>
      <use x="450.244141" xlink:href="#DejaVuSans-46"/>
      <use x="482.03125" xlink:href="#DejaVuSans-32"/>
      <use x="513.818359" xlink:href="#DejaVuSans-78"/>
      <use x="588.623047" xlink:href="#DejaVuSans-111"/>
      <use x="649.804688" xlink:href="#DejaVuSans-105"/>
      <use x="677.587891" xlink:href="#DejaVuSans-115"/>
      <use x="729.6875" xlink:href="#DejaVuSans-101"/>
      <use x="791.210938" xlink:href="#DejaVuSans-32"/>
      <use x="822.998047" xlink:href="#DejaVuSans-79"/>
      <use x="901.708984" xlink:href="#DejaVuSans-118"/>
      <use x="960.888672" xlink:href="#DejaVuSans-101"/>
      <use x="1022.412109" xlink:href="#DejaVuSans-114"/>
      <use x="1063.525391" xlink:href="#DejaVuSans-108"/>
      <use x="1091.308594" xlink:href="#DejaVuSans-97"/>
      <use x="1152.587891" xlink:href="#DejaVuSans-112"/>
      <use x="1216.064453" xlink:href="#DejaVuSans-32"/>
     </g>
     <!-- $|cos(\theta_{\Delta \mathbf{\mu}, \mathbf{e}_{1}})|$ -->
     <g style="fill:#800080;" transform="translate(241.745675 123.01)rotate(-90)scale(0.1 -0.1)">
      <use transform="translate(0 0.234375)" xlink:href="#DejaVuSans-124"/>
      <use transform="translate(33.691406 0.234375)" xlink:href="#DejaVuSans-Oblique-99"/>
      <use transform="translate(88.671875 0.234375)" xlink:href="#DejaVuSans-Oblique-111"/>
      <use transform="translate(149.853516 0.234375)" xlink:href="#DejaVuSans-Oblique-115"/>
      <use transform="translate(201.953125 0.234375)" xlink:href="#DejaVuSans-40"/>
      <use transform="translate(240.966797 0.234375)" xlink:href="#DejaVuSans-Oblique-952"/>
      <use transform="translate(302.148438 -16.171875)scale(0.7)" xlink:href="#DejaVuSans-916"/>
      <use transform="translate(350.03418 -16.171875)scale(0.7)" xlink:href="#DejaVuSans-Bold-956"/>
      <use transform="translate(401.542969 -16.171875)scale(0.7)" xlink:href="#DejaVuSans-44"/>
      <use transform="translate(437.431641 -16.171875)scale(0.7)" xlink:href="#DejaVuSans-Bold-101"/>
      <use transform="translate(485.577148 -27.65625)scale(0.49)" xlink:href="#DejaVuSans-49"/>
      <use transform="translate(521.400879 0.234375)" xlink:href="#DejaVuSans-41"/>
      <use transform="translate(560.414551 0.234375)" xlink:href="#DejaVuSans-124"/>
     </g>
    </g>
   </g>
   <g id="line2d_28">
    <path clip-path="url(#pdfdad5f0d3)" d="M 309.132666 82.355788 
L 308.280102 79.28001 
L 307.645019 76.204233 
L 307.304781 73.128455 
L 307.2978 70.052677 
L 307.638872 66.976899 
L 308.343503 63.901121 
L 309.447398 60.825344 
L 310.988738 57.749566 
L 312.36982 55.624861 
L 314.358896 53.135899 
L 315.829113 51.59801 
L 318.796328 48.944627 
L 321.282243 46.984344 
L 325.627435 43.908566 
L 328.436091 42.079883 
L 331.649345 40.219595 
L 334.862599 38.70995 
L 338.075853 37.662021 
L 341.289108 37.179637 
L 344.502362 37.347788 
L 347.715616 38.251316 
L 350.92887 39.922894 
L 352.306191 40.832788 
L 358.508149 45.446455 
L 361.143985 46.984344 
L 363.781887 48.032922 
L 366.995141 48.660109 
L 370.208395 48.832804 
L 373.421649 48.807348 
L 376.634904 48.907372 
L 379.848158 49.594464 
L 380.718802 50.060121 
L 382.656868 51.59801 
L 383.061412 52.133259 
L 383.545533 53.135899 
L 383.94655 54.673788 
L 384.084469 56.211677 
L 384.037291 57.749566 
L 383.597309 60.825344 
L 382.525314 65.43901 
L 380.334913 74.666344 
L 377.854966 85.431566 
L 376.634904 89.180828 
L 375.455321 91.583121 
L 374.499864 93.12101 
L 373.364453 94.658899 
L 371.673882 96.196788 
L 369.561118 97.734677 
L 363.781887 100.993359 
L 360.568633 103.537462 
L 358.997614 105.424122 
L 357.355379 107.604696 
L 352.287272 116.189344 
L 350.215431 119.265122 
L 347.715616 122.581326 
L 344.502362 126.189635 
L 341.289108 129.144412 
L 337.91905 131.568233 
L 334.862599 133.283893 
L 331.534109 134.644011 
L 328.436091 135.556801 
L 325.222837 136.100263 
L 322.009583 136.127009 
L 318.796328 135.381985 
L 317.448819 134.644011 
L 315.583074 133.478482 
L 315.200253 133.106122 
L 313.825502 131.568233 
L 312.36982 129.47783 
L 311.873378 128.492455 
L 311.255974 126.954566 
L 310.790565 125.416677 
L 310.463502 123.878788 
L 310.168886 120.803011 
L 310.26591 117.727233 
L 310.657218 114.651455 
L 311.571649 110.037788 
L 312.473269 105.424122 
L 312.804332 102.348344 
L 312.854752 99.272566 
L 312.625953 96.196788 
L 312.139481 93.12101 
L 311.428674 90.045233 
L 310.092548 85.431566 
L 309.132666 82.355788 
L 309.132666 82.355788 
" style="fill:none;stroke:#f7fbff;stroke-linecap:square;stroke-width:2;"/>
   </g>
   <g id="line2d_29">
    <path clip-path="url(#pdfdad5f0d3)" d="M 325.098711 137.719788 
L 324.87557 134.644011 
L 325.060734 131.568233 
L 325.299577 130.030344 
L 326.119723 126.954566 
L 327.321478 123.878788 
L 328.436091 121.601914 
L 330.230162 119.265122 
L 331.649345 117.661132 
L 334.862599 115.727949 
L 338.075853 114.955237 
L 344.502362 114.280199 
L 347.715616 113.615746 
L 350.92887 112.571051 
L 354.142124 111.170074 
L 358.910985 108.499899 
L 361.32298 106.96201 
L 365.569694 103.886233 
L 370.208395 100.112679 
L 378.817813 93.12101 
L 381.057805 91.583121 
L 383.584932 90.045233 
L 386.532324 88.507344 
L 390.130381 86.969455 
L 392.701175 86.045634 
L 395.914429 85.313455 
L 399.127683 85.267327 
L 402.340937 86.404703 
L 404.631563 88.507344 
L 405.554191 89.455391 
L 406.801932 91.583121 
L 408.344836 94.658899 
L 408.960034 96.196788 
L 409.886789 99.272566 
L 410.619127 102.348344 
L 411.16845 105.424122 
L 411.694219 110.037788 
L 411.941135 114.651455 
L 412.00306 120.803011 
L 411.823106 131.568233 
L 411.524445 136.181899 
L 411.085259 139.257677 
L 410.30953 142.333455 
L 409.744864 143.871344 
L 408.767445 145.874006 
L 408.08472 146.947122 
L 406.884654 148.485011 
L 405.379225 150.0229 
L 402.340937 152.14927 
L 399.127683 153.578047 
L 395.914429 154.442111 
L 392.701175 154.86782 
L 389.48792 154.914545 
L 386.274666 154.619194 
L 383.061412 154.025733 
L 373.421649 151.549213 
L 370.208395 151.08536 
L 366.995141 151.073014 
L 363.517509 151.560788 
L 354.142124 153.587091 
L 350.92887 153.952702 
L 347.715616 154.008789 
L 344.502362 153.740892 
L 341.093676 153.098677 
L 338.075853 152.198203 
L 334.862599 150.82353 
L 333.455316 150.0229 
L 331.21157 148.485011 
L 329.553437 146.947122 
L 328.219839 145.409233 
L 327.232779 143.871344 
L 326.45132 142.333455 
L 325.847004 140.795566 
L 325.222837 138.386826 
L 325.098711 137.719788 
L 325.098711 137.719788 
" style="fill:none;stroke:#e1edf8;stroke-linecap:square;stroke-width:2;"/>
   </g>
   <g id="line2d_30">
    <path clip-path="url(#pdfdad5f0d3)" d="M 330.542525 136.181899 
L 329.687794 134.644011 
L 329.193766 133.106122 
L 328.958741 131.568233 
L 328.910262 130.030344 
L 329.178251 126.954566 
L 329.723643 123.878788 
L 331.099156 117.727233 
L 332.266007 113.113566 
L 333.197253 110.037788 
L 334.316939 106.96201 
L 335.693345 103.886233 
L 337.324712 100.810455 
L 339.229438 97.734677 
L 341.360101 94.658899 
L 344.944595 90.045233 
L 350.17376 83.893677 
L 354.142124 79.450175 
L 357.355379 76.141384 
L 360.828 73.128455 
L 363.781887 71.072937 
L 366.995141 69.306516 
L 370.208395 67.89332 
L 373.421649 66.734486 
L 378.067036 65.43901 
L 379.848158 65.010887 
L 383.061412 64.390473 
L 386.466932 63.901121 
L 389.48792 63.662443 
L 392.701175 63.75301 
L 393.4088 63.901121 
L 395.914429 64.580491 
L 397.246888 65.43901 
L 399.127683 67.13238 
L 399.925713 68.514788 
L 400.625584 70.052677 
L 401.650719 73.128455 
L 402.389357 76.204233 
L 403.089292 80.817899 
L 403.405843 83.893677 
L 403.507395 86.969455 
L 403.312363 90.045233 
L 402.804154 93.12101 
L 402.029745 96.196788 
L 400.81688 100.810455 
L 400.319136 103.886233 
L 400.194 106.96201 
L 400.45642 110.037788 
L 401.055617 113.113566 
L 402.357953 117.727233 
L 403.255002 120.803011 
L 403.920681 123.878788 
L 404.098187 125.416677 
L 404.138104 126.954566 
L 404.017809 128.492455 
L 403.716875 130.030344 
L 403.216048 131.568233 
L 402.340937 133.358591 
L 401.511246 134.644011 
L 400.264135 136.181899 
L 398.741115 137.719788 
L 395.914429 140.050532 
L 394.948131 140.795566 
L 389.48792 144.541438 
L 385.727092 146.947122 
L 383.061412 148.534682 
L 379.848158 150.199298 
L 376.453524 151.560788 
L 373.421649 152.391666 
L 370.208395 152.804251 
L 366.995141 152.705743 
L 363.781887 152.07488 
L 360.568633 150.926745 
L 357.355379 149.385541 
L 350.92887 146.127305 
L 347.715616 144.735375 
L 337.271881 140.795566 
L 334.096431 139.257677 
L 331.649345 137.455706 
L 330.542525 136.181899 
L 330.542525 136.181899 
" style="fill:none;stroke:#cbdff1;stroke-linecap:square;stroke-width:2;"/>
   </g>
   <g id="line2d_31">
    <path clip-path="url(#pdfdad5f0d3)" d="M 286.647061 128.492455 
L 286.269782 125.416677 
L 286.257218 122.340899 
L 286.663787 119.18153 
L 287.432342 116.189344 
L 288.525347 113.113566 
L 290.511505 108.499899 
L 292.567805 103.886233 
L 296.371442 94.658899 
L 298.096876 91.583121 
L 299.516803 89.560303 
L 301.922661 86.969455 
L 303.625812 85.431566 
L 305.943312 83.519619 
L 309.591188 80.817899 
L 312.36982 78.884599 
L 315.583074 76.983224 
L 318.796328 75.666438 
L 322.009583 75.354091 
L 324.09051 76.204233 
L 325.222837 76.857449 
L 325.926317 77.742121 
L 326.871773 79.28001 
L 328.216563 82.355788 
L 330.55389 88.507344 
L 331.649345 90.642252 
L 333.35574 93.12101 
L 334.862599 95.006838 
L 338.075853 97.633173 
L 341.289108 98.923786 
L 344.502362 99.140296 
L 347.715616 98.417081 
L 349.220746 97.734677 
L 351.793232 96.196788 
L 354.142124 94.153405 
L 355.305556 93.12101 
L 357.355379 90.845011 
L 358.496915 90.045233 
L 360.568633 88.370457 
L 363.781887 88.867682 
L 365.223561 91.583121 
L 366.485604 94.658899 
L 366.995141 96.501916 
L 367.205981 99.272566 
L 367.16758 100.810455 
L 366.995141 102.432724 
L 366.142388 105.424122 
L 364.937034 108.499899 
L 363.558121 111.575677 
L 362.093443 114.651455 
L 358.876148 122.340899 
L 357.355379 125.868773 
L 355.962185 128.492455 
L 353.977837 131.568233 
L 352.624297 133.106122 
L 350.92887 134.794191 
L 347.715616 137.088499 
L 344.502362 138.851401 
L 334.844752 143.871344 
L 328.436091 147.48504 
L 325.222837 149.014001 
L 322.009583 150.204622 
L 318.796328 151.010854 
L 315.583074 151.459819 
L 312.31986 151.560788 
L 309.156566 151.348945 
L 305.943312 150.83012 
L 302.730057 150.001764 
L 298.913307 148.485011 
L 296.225994 146.947122 
L 294.261922 145.409233 
L 292.757229 143.871344 
L 291.578021 142.333455 
L 290.646061 140.795566 
L 289.239157 137.719788 
L 288.173589 134.644011 
L 287.312101 131.568233 
L 286.647061 128.492455 
L 286.647061 128.492455 
" style="fill:none;stroke:#abd0e6;stroke-linecap:square;stroke-width:2;"/>
   </g>
   <g id="line2d_32">
    <path clip-path="url(#pdfdad5f0d3)" d="M 327.941519 130.030344 
L 327.710425 128.492455 
L 327.684864 126.954566 
L 327.819334 125.416677 
L 328.436091 122.333818 
L 329.48247 119.265122 
L 331.154425 114.651455 
L 332.511199 110.037788 
L 332.927866 106.96201 
L 332.964745 103.886233 
L 332.823739 99.272566 
L 333.013435 96.196788 
L 333.600464 93.12101 
L 334.514096 90.045233 
L 336.050248 85.431566 
L 336.844543 82.355788 
L 337.743924 77.742121 
L 338.935264 71.590566 
L 340.125535 66.976899 
L 341.595946 62.363232 
L 342.7224 59.287455 
L 344.040969 56.211677 
L 344.840934 54.673788 
L 345.785748 53.135899 
L 347.715616 50.551137 
L 348.227882 50.060121 
L 350.92887 47.867359 
L 354.142124 46.295304 
L 361.222556 43.908566 
L 364.933846 42.370677 
L 368.475163 40.832788 
L 370.208395 40.122956 
L 373.421649 39.222 
L 376.634904 38.890043 
L 379.848158 39.000009 
L 383.563434 39.294899 
L 386.274666 39.420041 
L 393.099399 39.294899 
L 395.914429 39.615904 
L 399.127683 41.057545 
L 400.330678 42.370677 
L 401.306255 43.908566 
L 401.926788 45.446455 
L 402.268611 46.984344 
L 402.385513 48.522232 
L 402.340937 50.231637 
L 401.963741 53.135899 
L 400.007279 63.901121 
L 399.822864 66.976899 
L 399.86784 71.590566 
L 399.874774 76.204233 
L 399.62735 79.28001 
L 399.103921 82.355788 
L 398.357591 85.431566 
L 397.387472 88.507344 
L 395.914429 92.243657 
L 394.14901 96.196788 
L 391.188138 102.348344 
L 390.006735 105.424122 
L 389.48792 107.420799 
L 389.293594 108.499899 
L 389.144413 110.037788 
L 389.165413 113.113566 
L 389.450635 117.727233 
L 389.403197 119.265122 
L 389.193173 120.803011 
L 388.777815 122.340899 
L 388.12941 123.878788 
L 387.238174 125.416677 
L 384.961102 128.492455 
L 382.552826 131.568233 
L 378.146397 137.719788 
L 376.634904 139.42653 
L 374.997924 140.795566 
L 373.421649 141.862344 
L 372.373501 142.333455 
L 370.208395 143.156938 
L 366.995141 143.723146 
L 363.781887 143.758012 
L 360.568633 143.385725 
L 356.091471 142.333455 
L 352.046986 140.795566 
L 350.92887 140.238002 
L 347.715616 139.04707 
L 344.502362 138.332525 
L 340.288571 137.719788 
L 338.075853 137.327048 
L 334.150881 136.181899 
L 331.154774 134.644011 
L 329.488455 133.106122 
L 328.436091 131.557998 
L 327.941519 130.030344 
L 327.941519 130.030344 
" style="fill:none;stroke:#82badb;stroke-linecap:square;stroke-width:2;"/>
   </g>
   <g id="line2d_33">
    <path clip-path="url(#pdfdad5f0d3)" d="M 309.087967 110.037788 
L 308.815375 108.499899 
L 308.731734 106.96201 
L 308.813741 105.424122 
L 309.356295 102.348344 
L 310.833485 96.196788 
L 311.263435 93.12101 
L 312.131846 83.893677 
L 312.807776 80.817899 
L 313.763664 77.742121 
L 314.987654 74.666344 
L 316.443871 71.590566 
L 318.957541 66.976899 
L 322.009583 61.85303 
L 323.65437 59.287455 
L 325.913277 56.211677 
L 328.604961 53.135899 
L 331.78573 50.060121 
L 334.862599 47.480654 
L 335.505917 46.984344 
L 338.075853 45.197785 
L 341.289108 43.452839 
L 344.502362 42.274934 
L 347.715616 41.649254 
L 350.92887 41.489101 
L 354.142124 41.718588 
L 357.996208 42.370677 
L 360.568633 43.030806 
L 363.781887 44.164104 
L 366.262473 45.446455 
L 368.458962 46.984344 
L 370.208395 48.596598 
L 373.421649 50.883283 
L 376.634904 51.3924 
L 383.061412 50.211841 
L 386.274666 50.324094 
L 389.734317 51.59801 
L 392.701175 53.280798 
L 395.914429 55.764164 
L 396.324289 56.211677 
L 397.391358 57.749566 
L 398.03026 59.287455 
L 398.268737 60.825344 
L 398.168478 62.363232 
L 397.797103 63.901121 
L 397.212983 65.43901 
L 395.914429 67.906284 
L 394.324587 70.052677 
L 392.701175 72.066361 
L 384.297822 80.817899 
L 377.22322 90.045233 
L 376.634904 90.869246 
L 374.539934 93.12101 
L 373.140341 94.658899 
L 371.494287 96.196788 
L 370.080295 97.734677 
L 368.844977 99.272566 
L 367.888672 100.810455 
L 366.995141 102.686348 
L 366.186401 105.424122 
L 364.176909 113.113566 
L 361.370917 122.340899 
L 359.573355 126.954566 
L 358.0419 130.030344 
L 357.100132 131.568233 
L 355.989454 133.106122 
L 354.142124 135.201678 
L 353.072037 136.181899 
L 350.92887 137.862278 
L 347.715616 139.641065 
L 344.184187 140.795566 
L 341.289108 141.305236 
L 338.075853 141.561058 
L 334.862599 141.547484 
L 331.649345 141.101721 
L 330.807136 140.795566 
L 328.436091 139.7679 
L 327.785373 139.257677 
L 326.143662 137.719788 
L 324.896688 136.181899 
L 323.186045 133.106122 
L 320.16105 126.954566 
L 318.283204 123.878788 
L 315.583074 120.274044 
L 312.307459 116.189344 
L 311.219239 114.651455 
L 310.303629 113.113566 
L 309.586959 111.575677 
L 309.087967 110.037788 
L 309.087967 110.037788 
" style="fill:none;stroke:#59a2cf;stroke-linecap:square;stroke-width:2;"/>
   </g>
   <g id="line2d_34">
    <path clip-path="url(#pdfdad5f0d3)" d="M 329.926378 31.605455 
L 331.649345 32.293604 
L 333.429505 33.143343 
L 334.862599 34.085 
L 335.779076 34.681232 
L 337.367056 36.219121 
L 338.075853 37.542497 
L 338.218701 37.75701 
L 338.296273 39.294899 
L 338.075853 39.677722 
L 337.511263 40.832788 
L 335.920147 42.370677 
L 334.862599 43.051865 
L 333.671319 43.908566 
L 331.649345 45.070442 
L 331.032608 45.446455 
L 328.436091 46.863791 
L 328.227152 46.984344 
L 325.451193 48.522232 
L 325.222837 48.648494 
L 322.84459 50.060121 
L 322.009583 50.56665 
L 320.401692 51.59801 
L 318.796328 52.653434 
L 318.081879 53.135899 
L 315.85091 54.673788 
L 315.583074 54.865958 
L 313.714331 56.211677 
L 312.36982 57.191232 
L 311.633691 57.749566 
L 309.625337 59.287455 
L 309.156566 59.654664 
L 307.785782 60.825344 
L 305.943312 62.361328 
L 305.941238 62.363232 
L 304.316473 63.901121 
L 302.730057 65.335298 
L 302.619005 65.43901 
L 301.009939 66.976899 
L 299.516803 68.33149 
L 299.297416 68.514788 
L 297.48635 70.052677 
L 296.303549 71.019135 
L 295.422878 71.590566 
L 293.090295 73.084132 
L 292.980384 73.128455 
L 289.877041 74.419089 
L 288.175957 74.666344 
L 286.663787 74.902625 
L 285.16731 74.666344 
L 283.450532 74.351311 
L 281.776759 73.128455 
L 280.497931 71.590566 
L 280.237278 71.089568 
L 279.908648 70.052677 
L 279.591599 68.514788 
L 279.39586 66.976899 
L 279.273712 65.43901 
L 279.190153 63.901121 
L 279.119014 62.363232 
L 279.041445 60.825344 
L 278.946361 59.287455 
L 278.832133 57.749566 
L 278.708274 56.211677 
L 278.595492 54.673788 
L 278.522945 53.135899 
L 278.523199 51.59801 
L 278.626992 50.060121 
L 278.860253 48.522232 
L 279.244441 46.984344 
L 279.799647 45.446455 
L 280.237278 44.549846 
L 280.561766 43.908566 
L 281.554909 42.370677 
L 282.782423 40.832788 
L 283.450532 40.140405 
L 284.281802 39.294899 
L 286.069928 37.75701 
L 286.663787 37.315625 
L 288.231055 36.219121 
L 289.877041 35.211254 
L 290.898228 34.681232 
L 293.090295 33.65461 
L 294.567768 33.143343 
L 296.303549 32.582287 
L 299.516803 31.887776 
L 301.370526 31.605455 
" style="fill:none;stroke:#3787c0;stroke-linecap:square;stroke-width:2;"/>
   </g>
   <g id="line2d_35">
    <path clip-path="url(#pdfdad5f0d3)" d="M 308.955165 79.28001 
L 308.857411 77.742121 
L 308.871508 76.204233 
L 309.232713 73.128455 
L 309.96368 70.052677 
L 311.000555 66.976899 
L 312.912594 62.363232 
L 315.695997 56.211677 
L 318.161701 51.59801 
L 319.161248 50.060121 
L 320.370264 48.522232 
L 322.009583 46.713551 
L 325.222837 44.434601 
L 328.436091 43.176639 
L 331.649345 42.671373 
L 334.862599 42.781622 
L 342.293001 43.908566 
L 344.502362 44.09878 
L 348.768693 43.908566 
L 350.92887 43.673146 
L 354.142124 43.119681 
L 360.568633 41.681337 
L 366.995141 39.894218 
L 376.634904 36.515423 
L 379.848158 35.436104 
L 383.061412 34.49304 
L 386.274666 33.756753 
L 389.990768 33.143343 
L 392.701175 32.846736 
L 395.914429 32.688982 
L 399.127683 32.776353 
L 402.340937 33.216803 
L 405.554191 34.244355 
L 406.375764 34.681232 
L 408.767445 36.417936 
L 409.779012 37.75701 
L 410.509021 39.294899 
L 410.88399 40.832788 
L 410.967986 42.370677 
L 410.807706 43.908566 
L 410.437915 45.446455 
L 409.885024 46.984344 
L 408.767445 49.250621 
L 407.140836 51.59801 
L 405.554191 53.594797 
L 402.340937 56.754168 
L 399.065239 59.287455 
L 395.914429 61.220927 
L 392.701175 62.626879 
L 388.105447 63.901121 
L 386.274666 64.349875 
L 382.729852 65.43901 
L 379.701204 66.976899 
L 376.634904 69.551458 
L 375.019768 71.590566 
L 373.421649 73.706862 
L 371.19036 77.742121 
L 370.208395 79.656471 
L 369.144527 82.355788 
L 368.137455 85.431566 
L 367.40382 88.507344 
L 367.019311 91.583121 
L 367.018717 94.658899 
L 367.636161 102.348344 
L 367.53355 103.886233 
L 366.995141 106.541411 
L 366.878707 106.96201 
L 366.295182 108.499899 
L 364.752628 111.575677 
L 363.781887 113.219954 
L 360.459351 117.727233 
L 357.355379 121.270718 
L 354.142124 124.266253 
L 350.92887 126.472957 
L 347.715616 127.905029 
L 344.502362 128.596322 
L 341.289108 128.398355 
L 337.499156 126.954566 
L 330.850533 123.878788 
L 328.022005 122.340899 
L 326.092548 120.803011 
L 325.222837 119.965354 
L 324.675939 119.265122 
L 323.649604 117.727233 
L 322.009583 114.561633 
L 320.155681 110.037788 
L 319.132091 106.96201 
L 318.327013 103.886233 
L 317.561803 100.810455 
L 317.07974 99.272566 
L 316.469003 97.734677 
L 314.860389 94.658899 
L 312.238421 90.045233 
L 310.861311 86.969455 
L 309.838778 83.893677 
L 309.156566 80.787058 
L 308.955165 79.28001 
L 308.955165 79.28001 
" style="fill:none;stroke:#1b6aaf;stroke-linecap:square;stroke-width:2;"/>
   </g>
   <g id="line2d_36">
    <path clip-path="url(#pdfdad5f0d3)" d="M 394.993479 31.605455 
L 395.914429 31.857246 
L 399.127683 32.924253 
L 399.675839 33.143343 
L 401.759245 34.681232 
L 402.223918 36.219121 
L 401.550117 37.75701 
L 400.064199 39.294899 
L 399.127683 39.983658 
L 397.952523 40.832788 
L 395.914429 42.065652 
L 395.430467 42.370677 
L 392.786336 43.908566 
L 392.701175 43.957887 
L 390.258575 45.446455 
L 389.48792 45.93594 
L 387.892543 46.984344 
L 386.274666 48.115105 
L 385.686652 48.522232 
L 383.603823 50.060121 
L 383.061412 50.485293 
L 381.502105 51.59801 
L 379.848158 52.805133 
L 379.299898 53.135899 
L 376.8132 54.673788 
L 376.634904 54.788558 
L 373.685774 56.211677 
L 373.421649 56.347451 
L 370.208395 57.545133 
L 369.524534 57.749566 
L 366.995141 58.586261 
L 364.901631 59.287455 
L 363.781887 59.696465 
L 361.138805 60.825344 
L 360.568633 61.081264 
L 358.104687 62.363232 
L 357.355379 62.761564 
L 355.384024 63.901121 
L 354.142124 64.632767 
L 352.810568 65.43901 
L 350.92887 66.614816 
L 350.344286 66.976899 
L 347.968068 68.514788 
L 347.715616 68.683316 
L 345.60653 70.052677 
L 344.502362 70.78137 
L 343.171032 71.590566 
L 341.289108 72.736116 
L 340.506664 73.128455 
L 338.075853 74.319101 
L 336.95425 74.666344 
L 334.862599 75.276462 
L 331.649345 75.495075 
L 328.436091 75.060397 
L 327.17712 74.666344 
L 325.222837 74.053817 
L 323.445627 73.128455 
L 322.009583 72.304221 
L 321.147024 71.590566 
L 319.500038 70.052677 
L 318.796328 69.325099 
L 318.148737 68.514788 
L 316.983819 66.976899 
L 315.826839 65.43901 
L 315.583074 65.11599 
L 314.78773 63.901121 
L 313.798885 62.363232 
L 312.829083 60.825344 
L 312.36982 60.081824 
L 311.959774 59.287455 
L 311.210271 57.749566 
L 310.535965 56.211677 
L 309.964559 54.673788 
L 309.527909 53.135899 
L 309.254288 51.59801 
L 309.16305 50.060121 
L 309.264012 48.522232 
L 309.561499 46.984344 
L 310.061397 45.446455 
L 310.779476 43.908566 
L 311.750184 42.370677 
L 312.36982 41.615987 
L 313.039592 40.832788 
L 314.718153 39.294899 
L 315.583074 38.66177 
L 317.041528 37.75701 
L 318.796328 36.86429 
L 320.492942 36.219121 
L 322.009583 35.718792 
L 325.222837 34.998911 
L 327.329813 34.681232 
L 328.436091 34.526222 
L 331.649345 34.161778 
L 334.862599 33.798499 
L 338.075853 33.407382 
L 340.216847 33.143343 
L 341.289108 33.013357 
L 344.502362 32.661416 
L 347.715616 32.378918 
L 350.92887 32.153331 
L 354.142124 31.951731 
L 357.355379 31.748041 
L 359.536629 31.605455 
" style="fill:none;stroke:#084d97;stroke-linecap:square;stroke-width:2;"/>
   </g>
   <g id="line2d_37">
    <path clip-path="url(#pdfdad5f0d3)" d="M 312.353066 106.96201 
L 311.531444 105.424122 
L 311.142989 103.886233 
L 311.099378 102.348344 
L 311.319472 100.810455 
L 311.739116 99.272566 
L 312.36982 97.604278 
L 314.729021 93.12101 
L 316.320524 90.045233 
L 316.965036 88.507344 
L 317.448479 86.969455 
L 317.763897 85.431566 
L 317.92091 83.893677 
L 317.883848 80.817899 
L 317.610523 76.204233 
L 317.69398 73.128455 
L 318.142698 70.052677 
L 318.984751 66.976899 
L 320.188787 63.901121 
L 321.819826 60.825344 
L 323.834227 57.749566 
L 326.251688 54.673788 
L 329.064901 51.59801 
L 332.346345 48.522232 
L 334.862599 46.515103 
L 336.335618 45.446455 
L 338.763432 43.908566 
L 341.617486 42.370677 
L 345.186757 40.832788 
L 347.715616 39.961219 
L 350.92887 39.13388 
L 354.142124 38.604247 
L 357.355379 38.314284 
L 360.568633 38.203557 
L 366.995141 38.284506 
L 373.421649 38.660096 
L 378.885636 39.294899 
L 383.061412 40.006677 
L 392.701175 41.794777 
L 399.127683 42.504265 
L 402.340937 43.077098 
L 405.554191 44.383848 
L 406.829956 45.446455 
L 408.245317 46.984344 
L 408.767445 47.729708 
L 409.155102 48.522232 
L 409.724491 50.060121 
L 410.109694 51.59801 
L 410.337148 53.135899 
L 410.414155 56.211677 
L 410.121609 59.287455 
L 409.580421 62.363232 
L 408.767445 65.793296 
L 407.906958 68.514788 
L 406.743273 71.590566 
L 405.554191 74.196992 
L 404.269779 76.204233 
L 402.340937 78.834999 
L 399.127683 81.708091 
L 395.914429 83.463875 
L 392.701175 84.262779 
L 389.220022 83.893677 
L 385.948699 82.355788 
L 383.061412 80.466375 
L 379.848158 78.717187 
L 376.634904 77.702993 
L 373.421649 77.516632 
L 372.547353 77.742121 
L 370.208395 78.460357 
L 369.160396 79.28001 
L 366.995141 81.311478 
L 365.383477 83.893677 
L 363.765938 86.969455 
L 362.717047 90.045233 
L 362.04285 93.12101 
L 361.072658 99.272566 
L 360.312056 102.348344 
L 359.272056 105.424122 
L 358.003665 108.499899 
L 357.280633 110.037788 
L 355.540865 113.113566 
L 354.142124 115.263099 
L 351.850072 117.727233 
L 350.92887 118.585035 
L 347.715616 120.350536 
L 344.502362 120.967609 
L 341.289108 120.669811 
L 336.818352 119.265122 
L 328.436091 116.06051 
L 325.222837 114.568251 
L 318.796328 111.179031 
L 315.583074 109.518724 
L 314.08908 108.499899 
L 312.353066 106.96201 
L 312.353066 106.96201 
" style="fill:none;stroke:#08306b;stroke-linecap:square;stroke-width:2;"/>
   </g>
   <g id="patch_6">
    <path d="M 271.8488 161.08 
L 271.8488 25.44 
" style="fill:none;stroke:#800080;stroke-linecap:square;stroke-linejoin:miter;stroke-width:0.8;"/>
   </g>
   <g id="patch_7">
    <path d="M 271.8488 161.08 
L 418.68 161.08 
" style="fill:none;stroke:#ffa500;stroke-linecap:square;stroke-linejoin:miter;stroke-width:0.8;"/>
   </g>
   <g id="text_23">
    <!-- Equi-density contours -->
    <defs>
     <path d="M 9.8125 72.90625 
L 55.90625 72.90625 
L 55.90625 64.59375 
L 19.671875 64.59375 
L 19.671875 43.015625 
L 54.390625 43.015625 
L 54.390625 34.71875 
L 19.671875 34.71875 
L 19.671875 8.296875 
L 56.78125 8.296875 
L 56.78125 0 
L 9.8125 0 
z
" id="DejaVuSans-69"/>
     <path d="M 14.796875 27.296875 
Q 14.796875 17.390625 18.875 11.75 
Q 22.953125 6.109375 30.078125 6.109375 
Q 37.203125 6.109375 41.296875 11.75 
Q 45.40625 17.390625 45.40625 27.296875 
Q 45.40625 37.203125 41.296875 42.84375 
Q 37.203125 48.484375 30.078125 48.484375 
Q 22.953125 48.484375 18.875 42.84375 
Q 14.796875 37.203125 14.796875 27.296875 
z
M 45.40625 8.203125 
Q 42.578125 3.328125 38.25 0.953125 
Q 33.9375 -1.421875 27.875 -1.421875 
Q 17.96875 -1.421875 11.734375 6.484375 
Q 5.515625 14.40625 5.515625 27.296875 
Q 5.515625 40.1875 11.734375 48.09375 
Q 17.96875 56 27.875 56 
Q 33.9375 56 38.25 53.625 
Q 42.578125 51.265625 45.40625 46.390625 
L 45.40625 54.6875 
L 54.390625 54.6875 
L 54.390625 -20.796875 
L 45.40625 -20.796875 
z
" id="DejaVuSans-113"/>
     <path d="M 8.5 21.578125 
L 8.5 54.6875 
L 17.484375 54.6875 
L 17.484375 21.921875 
Q 17.484375 14.15625 20.5 10.265625 
Q 23.53125 6.390625 29.59375 6.390625 
Q 36.859375 6.390625 41.078125 11.03125 
Q 45.3125 15.671875 45.3125 23.6875 
L 45.3125 54.6875 
L 54.296875 54.6875 
L 54.296875 0 
L 45.3125 0 
L 45.3125 8.40625 
Q 42.046875 3.421875 37.71875 1 
Q 33.40625 -1.421875 27.6875 -1.421875 
Q 18.265625 -1.421875 13.375 4.4375 
Q 8.5 10.296875 8.5 21.578125 
z
M 31.109375 56 
z
" id="DejaVuSans-117"/>
     <path d="M 4.890625 31.390625 
L 31.203125 31.390625 
L 31.203125 23.390625 
L 4.890625 23.390625 
z
" id="DejaVuSans-45"/>
     <path d="M 45.40625 46.390625 
L 45.40625 75.984375 
L 54.390625 75.984375 
L 54.390625 0 
L 45.40625 0 
L 45.40625 8.203125 
Q 42.578125 3.328125 38.25 0.953125 
Q 33.9375 -1.421875 27.875 -1.421875 
Q 17.96875 -1.421875 11.734375 6.484375 
Q 5.515625 14.40625 5.515625 27.296875 
Q 5.515625 40.1875 11.734375 48.09375 
Q 17.96875 56 27.875 56 
Q 33.9375 56 38.25 53.625 
Q 42.578125 51.265625 45.40625 46.390625 
z
M 14.796875 27.296875 
Q 14.796875 17.390625 18.875 11.75 
Q 22.953125 6.109375 30.078125 6.109375 
Q 37.203125 6.109375 41.296875 11.75 
Q 45.40625 17.390625 45.40625 27.296875 
Q 45.40625 37.203125 41.296875 42.84375 
Q 37.203125 48.484375 30.078125 48.484375 
Q 22.953125 48.484375 18.875 42.84375 
Q 14.796875 37.203125 14.796875 27.296875 
z
" id="DejaVuSans-100"/>
     <path d="M 32.171875 -5.078125 
Q 28.375 -14.84375 24.75 -17.8125 
Q 21.140625 -20.796875 15.09375 -20.796875 
L 7.90625 -20.796875 
L 7.90625 -13.28125 
L 13.1875 -13.28125 
Q 16.890625 -13.28125 18.9375 -11.515625 
Q 21 -9.765625 23.484375 -3.21875 
L 25.09375 0.875 
L 2.984375 54.6875 
L 12.5 54.6875 
L 29.59375 11.921875 
L 46.6875 54.6875 
L 56.203125 54.6875 
z
" id="DejaVuSans-121"/>
    </defs>
    <g transform="translate(279.932837 19.44)scale(0.12 -0.12)">
     <use xlink:href="#DejaVuSans-69"/>
     <use x="63.183594" xlink:href="#DejaVuSans-113"/>
     <use x="126.660156" xlink:href="#DejaVuSans-117"/>
     <use x="190.039062" xlink:href="#DejaVuSans-105"/>
     <use x="217.822266" xlink:href="#DejaVuSans-45"/>
     <use x="253.90625" xlink:href="#DejaVuSans-100"/>
     <use x="317.382812" xlink:href="#DejaVuSans-101"/>
     <use x="378.90625" xlink:href="#DejaVuSans-110"/>
     <use x="442.285156" xlink:href="#DejaVuSans-115"/>
     <use x="494.384766" xlink:href="#DejaVuSans-105"/>
     <use x="522.167969" xlink:href="#DejaVuSans-116"/>
     <use x="561.376953" xlink:href="#DejaVuSans-121"/>
     <use x="620.556641" xlink:href="#DejaVuSans-32"/>
     <use x="652.34375" xlink:href="#DejaVuSans-99"/>
     <use x="707.324219" xlink:href="#DejaVuSans-111"/>
     <use x="768.505859" xlink:href="#DejaVuSans-110"/>
     <use x="831.884766" xlink:href="#DejaVuSans-116"/>
     <use x="871.09375" xlink:href="#DejaVuSans-111"/>
     <use x="932.275391" xlink:href="#DejaVuSans-117"/>
     <use x="995.654297" xlink:href="#DejaVuSans-114"/>
     <use x="1036.767578" xlink:href="#DejaVuSans-115"/>
    </g>
   </g>
  </g>
 </g>
 <defs>
  <clipPath id="pa43210f867">
   <rect height="135.64" width="146.8312" x="61.472" y="25.44"/>
  </clipPath>
  <clipPath id="pdfdad5f0d3">
   <rect height="135.64" width="146.8312" x="271.8488" y="25.44"/>
  </clipPath>
 </defs>
</svg>
