<?xml version="1.0" encoding="utf-8" standalone="no"?>
<!DOCTYPE svg PUBLIC "-//W3C//DTD SVG 1.1//EN"
  "http://www.w3.org/Graphics/SVG/1.1/DTD/svg11.dtd">
<!-- Created with matplotlib (https://matplotlib.org/) -->
<svg height="288pt" version="1.1" viewBox="0 0 864 288" width="864pt" xmlns="http://www.w3.org/2000/svg" xmlns:xlink="http://www.w3.org/1999/xlink">
 <defs>
  <style type="text/css">
*{stroke-linecap:butt;stroke-linejoin:round;}
  </style>
 </defs>
 <g id="figure_1">
  <g id="patch_1">
   <path d="M 0 288 
L 864 288 
L 864 0 
L 0 0 
z
" style="fill:#ffffff;"/>
  </g>
  <g id="axes_1">
   <g id="patch_2">
    <path d="M 54.272 244.6 
L 281.988 244.6 
L 281.988 26.16 
L 54.272 26.16 
z
" style="fill:#ffffff;"/>
   </g>
   <g id="PolyCollection_1">
    <path clip-path="url(#pb5cbf01b59)" d="M 64.622727 222.281194 
L 64.622727 234.621896 
L 71.300616 195.109066 
L 82.43043 137.069554 
L 93.560244 109.853515 
L 104.690059 88.334494 
L 115.819873 79.180697 
L 126.949687 72.396595 
L 138.079501 65.460553 
L 149.209316 58.670867 
L 160.33913 55.739878 
L 171.468944 51.76948 
L 182.598759 48.620169 
L 193.728573 46.384311 
L 204.858387 45.203231 
L 215.988201 43.057058 
L 227.118016 41.556243 
L 238.24783 40.157036 
L 249.377644 39.175019 
L 260.507458 37.754613 
L 271.637273 36.540455 
L 271.637273 36.089091 
L 271.637273 36.089091 
L 260.507458 37.211023 
L 249.377644 38.745068 
L 238.24783 39.586264 
L 227.118016 40.893027 
L 215.988201 42.326929 
L 204.858387 44.314025 
L 193.728573 45.542216 
L 182.598759 47.79431 
L 171.468944 50.561785 
L 160.33913 54.204468 
L 149.209316 57.035785 
L 138.079501 63.363702 
L 126.949687 69.539068 
L 115.819873 75.951643 
L 104.690059 84.95269 
L 93.560244 104.184034 
L 82.43043 129.074095 
L 71.300616 181.343291 
L 64.622727 222.281194 
z
" style="fill:#1f77b4;fill-opacity:0.5;"/>
   </g>
   <g id="PolyCollection_2">
    <path clip-path="url(#pb5cbf01b59)" d="M 64.622727 222.396103 
L 64.622727 234.670909 
L 71.300616 195.029479 
L 82.43043 137.389087 
L 93.560244 110.426177 
L 104.690059 89.188687 
L 115.819873 80.246512 
L 126.949687 74.188063 
L 138.079501 66.953939 
L 149.209316 59.89061 
L 160.33913 58.053228 
L 171.468944 54.852876 
L 182.598759 51.733242 
L 193.728573 49.419914 
L 204.858387 48.447295 
L 215.988201 46.540928 
L 227.118016 45.464515 
L 238.24783 44.508491 
L 249.377644 42.889184 
L 260.507458 42.422378 
L 271.637273 41.793056 
L 271.637273 41.381386 
L 271.637273 41.381386 
L 260.507458 41.928994 
L 249.377644 42.392167 
L 238.24783 43.864209 
L 227.118016 44.754476 
L 215.988201 45.85741 
L 204.858387 47.59298 
L 193.728573 48.535937 
L 182.598759 50.739521 
L 171.468944 53.55986 
L 160.33913 56.450103 
L 149.209316 58.212996 
L 138.079501 64.853614 
L 126.949687 71.174816 
L 115.819873 77.14239 
L 104.690059 85.792986 
L 93.560244 104.842486 
L 82.43043 129.408448 
L 71.300616 181.258652 
L 64.622727 222.396103 
z
" style="fill:#ff7f0e;fill-opacity:0.5;"/>
   </g>
   <g id="PolyCollection_3">
    <path clip-path="url(#pb5cbf01b59)" d="M 64.622727 222.281194 
L 64.622727 234.621896 
L 71.300616 214.605645 
L 82.43043 165.884486 
L 93.560244 146.567105 
L 104.690059 124.05014 
L 115.819873 110.132155 
L 126.949687 101.211697 
L 138.079501 92.279589 
L 149.209316 84.761434 
L 160.33913 80.59591 
L 171.468944 75.023342 
L 182.598759 68.98019 
L 193.728573 66.125668 
L 204.858387 64.565885 
L 215.988201 61.692586 
L 227.118016 59.090247 
L 238.24783 56.93274 
L 249.377644 55.430442 
L 260.507458 53.419918 
L 271.637273 51.804128 
L 271.637273 51.32271 
L 271.637273 51.32271 
L 260.507458 52.764616 
L 249.377644 54.975767 
L 238.24783 56.261872 
L 227.118016 58.090075 
L 215.988201 60.675001 
L 204.858387 63.190626 
L 193.728573 64.970494 
L 182.598759 67.677109 
L 171.468944 73.141633 
L 160.33913 78.430332 
L 149.209316 82.350391 
L 138.079501 90.07762 
L 126.949687 97.645452 
L 115.819873 106.583317 
L 104.690059 120.671565 
L 93.560244 141.563896 
L 82.43043 156.435669 
L 71.300616 202.253182 
L 64.622727 222.281194 
z
" style="fill:#2ca02c;fill-opacity:0.5;"/>
   </g>
   <g id="PolyCollection_4">
    <path clip-path="url(#pb5cbf01b59)" d="M 64.622727 222.396103 
L 64.622727 234.670909 
L 71.300616 214.666527 
L 82.43043 166.001492 
L 93.560244 146.659381 
L 104.690059 124.022687 
L 115.819873 110.024761 
L 126.949687 101.54957 
L 138.079501 92.273512 
L 149.209316 84.296341 
L 160.33913 80.713108 
L 171.468944 75.643048 
L 182.598759 69.40521 
L 193.728573 66.354234 
L 204.858387 64.859197 
L 215.988201 61.771342 
L 227.118016 59.320927 
L 238.24783 57.389479 
L 249.377644 54.965209 
L 260.507458 53.575287 
L 271.637273 52.273746 
L 271.637273 51.82792 
L 271.637273 51.82792 
L 260.507458 53.039038 
L 249.377644 54.398653 
L 238.24783 56.6165 
L 227.118016 58.212735 
L 215.988201 60.802761 
L 204.858387 63.521696 
L 193.728573 65.259138 
L 182.598759 67.989717 
L 171.468944 73.664325 
L 160.33913 78.551299 
L 149.209316 81.838221 
L 138.079501 90.067525 
L 126.949687 97.916958 
L 115.819873 106.610762 
L 104.690059 120.593773 
L 93.560244 141.65262 
L 82.43043 156.528454 
L 71.300616 202.318614 
L 64.622727 222.396103 
z
" style="fill:#d62728;fill-opacity:0.5;"/>
   </g>
   <g id="matplotlib.axis_1">
    <g id="xtick_1">
     <g id="line2d_1">
      <defs>
       <path d="M 0 0 
L 0 3.5 
" id="macdb762b83" style="stroke:#000000;stroke-width:0.8;"/>
      </defs>
      <g>
       <use style="stroke:#000000;stroke-width:0.8;" x="60.170802" xlink:href="#macdb762b83" y="244.6"/>
      </g>
     </g>
     <g id="text_1">
      <!-- 0 -->
      <defs>
       <path d="M 31.78125 66.40625 
Q 24.171875 66.40625 20.328125 58.90625 
Q 16.5 51.421875 16.5 36.375 
Q 16.5 21.390625 20.328125 13.890625 
Q 24.171875 6.390625 31.78125 6.390625 
Q 39.453125 6.390625 43.28125 13.890625 
Q 47.125 21.390625 47.125 36.375 
Q 47.125 51.421875 43.28125 58.90625 
Q 39.453125 66.40625 31.78125 66.40625 
z
M 31.78125 74.21875 
Q 44.046875 74.21875 50.515625 64.515625 
Q 56.984375 54.828125 56.984375 36.375 
Q 56.984375 17.96875 50.515625 8.265625 
Q 44.046875 -1.421875 31.78125 -1.421875 
Q 19.53125 -1.421875 13.0625 8.265625 
Q 6.59375 17.96875 6.59375 36.375 
Q 6.59375 54.828125 13.0625 64.515625 
Q 19.53125 74.21875 31.78125 74.21875 
z
" id="DejaVuSans-48"/>
      </defs>
      <g transform="translate(56.989552 259.198438)scale(0.1 -0.1)">
       <use xlink:href="#DejaVuSans-48"/>
      </g>
     </g>
    </g>
    <g id="xtick_2">
     <g id="line2d_2">
      <g>
       <use style="stroke:#000000;stroke-width:0.8;" x="104.690059" xlink:href="#macdb762b83" y="244.6"/>
      </g>
     </g>
     <g id="text_2">
      <!-- 20 -->
      <defs>
       <path d="M 19.1875 8.296875 
L 53.609375 8.296875 
L 53.609375 0 
L 7.328125 0 
L 7.328125 8.296875 
Q 12.9375 14.109375 22.625 23.890625 
Q 32.328125 33.6875 34.8125 36.53125 
Q 39.546875 41.84375 41.421875 45.53125 
Q 43.3125 49.21875 43.3125 52.78125 
Q 43.3125 58.59375 39.234375 62.25 
Q 35.15625 65.921875 28.609375 65.921875 
Q 23.96875 65.921875 18.8125 64.3125 
Q 13.671875 62.703125 7.8125 59.421875 
L 7.8125 69.390625 
Q 13.765625 71.78125 18.9375 73 
Q 24.125 74.21875 28.421875 74.21875 
Q 39.75 74.21875 46.484375 68.546875 
Q 53.21875 62.890625 53.21875 53.421875 
Q 53.21875 48.921875 51.53125 44.890625 
Q 49.859375 40.875 45.40625 35.40625 
Q 44.1875 33.984375 37.640625 27.21875 
Q 31.109375 20.453125 19.1875 8.296875 
z
" id="DejaVuSans-50"/>
      </defs>
      <g transform="translate(98.327559 259.198438)scale(0.1 -0.1)">
       <use xlink:href="#DejaVuSans-50"/>
       <use x="63.623047" xlink:href="#DejaVuSans-48"/>
      </g>
     </g>
    </g>
    <g id="xtick_3">
     <g id="line2d_3">
      <g>
       <use style="stroke:#000000;stroke-width:0.8;" x="149.209316" xlink:href="#macdb762b83" y="244.6"/>
      </g>
     </g>
     <g id="text_3">
      <!-- 40 -->
      <defs>
       <path d="M 37.796875 64.3125 
L 12.890625 25.390625 
L 37.796875 25.390625 
z
M 35.203125 72.90625 
L 47.609375 72.90625 
L 47.609375 25.390625 
L 58.015625 25.390625 
L 58.015625 17.1875 
L 47.609375 17.1875 
L 47.609375 0 
L 37.796875 0 
L 37.796875 17.1875 
L 4.890625 17.1875 
L 4.890625 26.703125 
z
" id="DejaVuSans-52"/>
      </defs>
      <g transform="translate(142.846816 259.198438)scale(0.1 -0.1)">
       <use xlink:href="#DejaVuSans-52"/>
       <use x="63.623047" xlink:href="#DejaVuSans-48"/>
      </g>
     </g>
    </g>
    <g id="xtick_4">
     <g id="line2d_4">
      <g>
       <use style="stroke:#000000;stroke-width:0.8;" x="193.728573" xlink:href="#macdb762b83" y="244.6"/>
      </g>
     </g>
     <g id="text_4">
      <!-- 60 -->
      <defs>
       <path d="M 33.015625 40.375 
Q 26.375 40.375 22.484375 35.828125 
Q 18.609375 31.296875 18.609375 23.390625 
Q 18.609375 15.53125 22.484375 10.953125 
Q 26.375 6.390625 33.015625 6.390625 
Q 39.65625 6.390625 43.53125 10.953125 
Q 47.40625 15.53125 47.40625 23.390625 
Q 47.40625 31.296875 43.53125 35.828125 
Q 39.65625 40.375 33.015625 40.375 
z
M 52.59375 71.296875 
L 52.59375 62.3125 
Q 48.875 64.0625 45.09375 64.984375 
Q 41.3125 65.921875 37.59375 65.921875 
Q 27.828125 65.921875 22.671875 59.328125 
Q 17.53125 52.734375 16.796875 39.40625 
Q 19.671875 43.65625 24.015625 45.921875 
Q 28.375 48.1875 33.59375 48.1875 
Q 44.578125 48.1875 50.953125 41.515625 
Q 57.328125 34.859375 57.328125 23.390625 
Q 57.328125 12.15625 50.6875 5.359375 
Q 44.046875 -1.421875 33.015625 -1.421875 
Q 20.359375 -1.421875 13.671875 8.265625 
Q 6.984375 17.96875 6.984375 36.375 
Q 6.984375 53.65625 15.1875 63.9375 
Q 23.390625 74.21875 37.203125 74.21875 
Q 40.921875 74.21875 44.703125 73.484375 
Q 48.484375 72.75 52.59375 71.296875 
z
" id="DejaVuSans-54"/>
      </defs>
      <g transform="translate(187.366073 259.198438)scale(0.1 -0.1)">
       <use xlink:href="#DejaVuSans-54"/>
       <use x="63.623047" xlink:href="#DejaVuSans-48"/>
      </g>
     </g>
    </g>
    <g id="xtick_5">
     <g id="line2d_5">
      <g>
       <use style="stroke:#000000;stroke-width:0.8;" x="238.24783" xlink:href="#macdb762b83" y="244.6"/>
      </g>
     </g>
     <g id="text_5">
      <!-- 80 -->
      <defs>
       <path d="M 31.78125 34.625 
Q 24.75 34.625 20.71875 30.859375 
Q 16.703125 27.09375 16.703125 20.515625 
Q 16.703125 13.921875 20.71875 10.15625 
Q 24.75 6.390625 31.78125 6.390625 
Q 38.8125 6.390625 42.859375 10.171875 
Q 46.921875 13.96875 46.921875 20.515625 
Q 46.921875 27.09375 42.890625 30.859375 
Q 38.875 34.625 31.78125 34.625 
z
M 21.921875 38.8125 
Q 15.578125 40.375 12.03125 44.71875 
Q 8.5 49.078125 8.5 55.328125 
Q 8.5 64.0625 14.71875 69.140625 
Q 20.953125 74.21875 31.78125 74.21875 
Q 42.671875 74.21875 48.875 69.140625 
Q 55.078125 64.0625 55.078125 55.328125 
Q 55.078125 49.078125 51.53125 44.71875 
Q 48 40.375 41.703125 38.8125 
Q 48.828125 37.15625 52.796875 32.3125 
Q 56.78125 27.484375 56.78125 20.515625 
Q 56.78125 9.90625 50.3125 4.234375 
Q 43.84375 -1.421875 31.78125 -1.421875 
Q 19.734375 -1.421875 13.25 4.234375 
Q 6.78125 9.90625 6.78125 20.515625 
Q 6.78125 27.484375 10.78125 32.3125 
Q 14.796875 37.15625 21.921875 38.8125 
z
M 18.3125 54.390625 
Q 18.3125 48.734375 21.84375 45.5625 
Q 25.390625 42.390625 31.78125 42.390625 
Q 38.140625 42.390625 41.71875 45.5625 
Q 45.3125 48.734375 45.3125 54.390625 
Q 45.3125 60.0625 41.71875 63.234375 
Q 38.140625 66.40625 31.78125 66.40625 
Q 25.390625 66.40625 21.84375 63.234375 
Q 18.3125 60.0625 18.3125 54.390625 
z
" id="DejaVuSans-56"/>
      </defs>
      <g transform="translate(231.88533 259.198438)scale(0.1 -0.1)">
       <use xlink:href="#DejaVuSans-56"/>
       <use x="63.623047" xlink:href="#DejaVuSans-48"/>
      </g>
     </g>
    </g>
    <g id="text_6">
     <!-- Neurons, $N$ -->
     <defs>
      <path d="M 9.8125 72.90625 
L 23.09375 72.90625 
L 55.421875 11.921875 
L 55.421875 72.90625 
L 64.984375 72.90625 
L 64.984375 0 
L 51.703125 0 
L 19.390625 60.984375 
L 19.390625 0 
L 9.8125 0 
z
" id="DejaVuSans-78"/>
      <path d="M 56.203125 29.59375 
L 56.203125 25.203125 
L 14.890625 25.203125 
Q 15.484375 15.921875 20.484375 11.0625 
Q 25.484375 6.203125 34.421875 6.203125 
Q 39.59375 6.203125 44.453125 7.46875 
Q 49.3125 8.734375 54.109375 11.28125 
L 54.109375 2.78125 
Q 49.265625 0.734375 44.1875 -0.34375 
Q 39.109375 -1.421875 33.890625 -1.421875 
Q 20.796875 -1.421875 13.15625 6.1875 
Q 5.515625 13.8125 5.515625 26.8125 
Q 5.515625 40.234375 12.765625 48.109375 
Q 20.015625 56 32.328125 56 
Q 43.359375 56 49.78125 48.890625 
Q 56.203125 41.796875 56.203125 29.59375 
z
M 47.21875 32.234375 
Q 47.125 39.59375 43.09375 43.984375 
Q 39.0625 48.390625 32.421875 48.390625 
Q 24.90625 48.390625 20.390625 44.140625 
Q 15.875 39.890625 15.1875 32.171875 
z
" id="DejaVuSans-101"/>
      <path d="M 8.5 21.578125 
L 8.5 54.6875 
L 17.484375 54.6875 
L 17.484375 21.921875 
Q 17.484375 14.15625 20.5 10.265625 
Q 23.53125 6.390625 29.59375 6.390625 
Q 36.859375 6.390625 41.078125 11.03125 
Q 45.3125 15.671875 45.3125 23.6875 
L 45.3125 54.6875 
L 54.296875 54.6875 
L 54.296875 0 
L 45.3125 0 
L 45.3125 8.40625 
Q 42.046875 3.421875 37.71875 1 
Q 33.40625 -1.421875 27.6875 -1.421875 
Q 18.265625 -1.421875 13.375 4.4375 
Q 8.5 10.296875 8.5 21.578125 
z
M 31.109375 56 
z
" id="DejaVuSans-117"/>
      <path d="M 41.109375 46.296875 
Q 39.59375 47.171875 37.8125 47.578125 
Q 36.03125 48 33.890625 48 
Q 26.265625 48 22.1875 43.046875 
Q 18.109375 38.09375 18.109375 28.8125 
L 18.109375 0 
L 9.078125 0 
L 9.078125 54.6875 
L 18.109375 54.6875 
L 18.109375 46.1875 
Q 20.953125 51.171875 25.484375 53.578125 
Q 30.03125 56 36.53125 56 
Q 37.453125 56 38.578125 55.875 
Q 39.703125 55.765625 41.0625 55.515625 
z
" id="DejaVuSans-114"/>
      <path d="M 30.609375 48.390625 
Q 23.390625 48.390625 19.1875 42.75 
Q 14.984375 37.109375 14.984375 27.296875 
Q 14.984375 17.484375 19.15625 11.84375 
Q 23.34375 6.203125 30.609375 6.203125 
Q 37.796875 6.203125 41.984375 11.859375 
Q 46.1875 17.53125 46.1875 27.296875 
Q 46.1875 37.015625 41.984375 42.703125 
Q 37.796875 48.390625 30.609375 48.390625 
z
M 30.609375 56 
Q 42.328125 56 49.015625 48.375 
Q 55.71875 40.765625 55.71875 27.296875 
Q 55.71875 13.875 49.015625 6.21875 
Q 42.328125 -1.421875 30.609375 -1.421875 
Q 18.84375 -1.421875 12.171875 6.21875 
Q 5.515625 13.875 5.515625 27.296875 
Q 5.515625 40.765625 12.171875 48.375 
Q 18.84375 56 30.609375 56 
z
" id="DejaVuSans-111"/>
      <path d="M 54.890625 33.015625 
L 54.890625 0 
L 45.90625 0 
L 45.90625 32.71875 
Q 45.90625 40.484375 42.875 44.328125 
Q 39.84375 48.1875 33.796875 48.1875 
Q 26.515625 48.1875 22.3125 43.546875 
Q 18.109375 38.921875 18.109375 30.90625 
L 18.109375 0 
L 9.078125 0 
L 9.078125 54.6875 
L 18.109375 54.6875 
L 18.109375 46.1875 
Q 21.34375 51.125 25.703125 53.5625 
Q 30.078125 56 35.796875 56 
Q 45.21875 56 50.046875 50.171875 
Q 54.890625 44.34375 54.890625 33.015625 
z
" id="DejaVuSans-110"/>
      <path d="M 44.28125 53.078125 
L 44.28125 44.578125 
Q 40.484375 46.53125 36.375 47.5 
Q 32.28125 48.484375 27.875 48.484375 
Q 21.1875 48.484375 17.84375 46.4375 
Q 14.5 44.390625 14.5 40.28125 
Q 14.5 37.15625 16.890625 35.375 
Q 19.28125 33.59375 26.515625 31.984375 
L 29.59375 31.296875 
Q 39.15625 29.25 43.1875 25.515625 
Q 47.21875 21.78125 47.21875 15.09375 
Q 47.21875 7.46875 41.1875 3.015625 
Q 35.15625 -1.421875 24.609375 -1.421875 
Q 20.21875 -1.421875 15.453125 -0.5625 
Q 10.6875 0.296875 5.421875 2 
L 5.421875 11.28125 
Q 10.40625 8.6875 15.234375 7.390625 
Q 20.0625 6.109375 24.8125 6.109375 
Q 31.15625 6.109375 34.5625 8.28125 
Q 37.984375 10.453125 37.984375 14.40625 
Q 37.984375 18.0625 35.515625 20.015625 
Q 33.0625 21.96875 24.703125 23.78125 
L 21.578125 24.515625 
Q 13.234375 26.265625 9.515625 29.90625 
Q 5.8125 33.546875 5.8125 39.890625 
Q 5.8125 47.609375 11.28125 51.796875 
Q 16.75 56 26.8125 56 
Q 31.78125 56 36.171875 55.265625 
Q 40.578125 54.546875 44.28125 53.078125 
z
" id="DejaVuSans-115"/>
      <path d="M 11.71875 12.40625 
L 22.015625 12.40625 
L 22.015625 4 
L 14.015625 -11.625 
L 7.71875 -11.625 
L 11.71875 4 
z
" id="DejaVuSans-44"/>
      <path id="DejaVuSans-32"/>
      <path d="M 16.890625 72.90625 
L 30.171875 72.90625 
L 50.296875 10.40625 
L 62.5 72.90625 
L 72.125 72.90625 
L 57.90625 0 
L 44.578125 0 
L 24.515625 62.890625 
L 12.3125 0 
L 2.6875 0 
z
" id="DejaVuSans-Oblique-78"/>
     </defs>
     <g transform="translate(140.33 272.876562)scale(0.1 -0.1)">
      <use transform="translate(0 0.09375)" xlink:href="#DejaVuSans-78"/>
      <use transform="translate(74.804688 0.09375)" xlink:href="#DejaVuSans-101"/>
      <use transform="translate(136.328125 0.09375)" xlink:href="#DejaVuSans-117"/>
      <use transform="translate(199.707031 0.09375)" xlink:href="#DejaVuSans-114"/>
      <use transform="translate(240.820312 0.09375)" xlink:href="#DejaVuSans-111"/>
      <use transform="translate(302.001953 0.09375)" xlink:href="#DejaVuSans-110"/>
      <use transform="translate(365.380859 0.09375)" xlink:href="#DejaVuSans-115"/>
      <use transform="translate(417.480469 0.09375)" xlink:href="#DejaVuSans-44"/>
      <use transform="translate(449.267578 0.09375)" xlink:href="#DejaVuSans-32"/>
      <use transform="translate(481.054688 0.09375)" xlink:href="#DejaVuSans-Oblique-78"/>
     </g>
    </g>
   </g>
   <g id="matplotlib.axis_2">
    <g id="ytick_1">
     <g id="line2d_6">
      <defs>
       <path d="M 0 0 
L -3.5 0 
" id="m4424f7774a" style="stroke:#000000;stroke-width:0.8;"/>
      </defs>
      <g>
       <use style="stroke:#000000;stroke-width:0.8;" x="54.272" xlink:href="#m4424f7774a" y="225.6119"/>
      </g>
     </g>
     <g id="text_7">
      <!-- 40 -->
      <g transform="translate(34.547 229.411119)scale(0.1 -0.1)">
       <use xlink:href="#DejaVuSans-52"/>
       <use x="63.623047" xlink:href="#DejaVuSans-48"/>
      </g>
     </g>
    </g>
    <g id="ytick_2">
     <g id="line2d_7">
      <g>
       <use style="stroke:#000000;stroke-width:0.8;" x="54.272" xlink:href="#m4424f7774a" y="196.030355"/>
      </g>
     </g>
     <g id="text_8">
      <!-- 60 -->
      <g transform="translate(34.547 199.829574)scale(0.1 -0.1)">
       <use xlink:href="#DejaVuSans-54"/>
       <use x="63.623047" xlink:href="#DejaVuSans-48"/>
      </g>
     </g>
    </g>
    <g id="ytick_3">
     <g id="line2d_8">
      <g>
       <use style="stroke:#000000;stroke-width:0.8;" x="54.272" xlink:href="#m4424f7774a" y="166.44881"/>
      </g>
     </g>
     <g id="text_9">
      <!-- 80 -->
      <g transform="translate(34.547 170.248029)scale(0.1 -0.1)">
       <use xlink:href="#DejaVuSans-56"/>
       <use x="63.623047" xlink:href="#DejaVuSans-48"/>
      </g>
     </g>
    </g>
    <g id="ytick_4">
     <g id="line2d_9">
      <g>
       <use style="stroke:#000000;stroke-width:0.8;" x="54.272" xlink:href="#m4424f7774a" y="136.867265"/>
      </g>
     </g>
     <g id="text_10">
      <!-- 100 -->
      <defs>
       <path d="M 12.40625 8.296875 
L 28.515625 8.296875 
L 28.515625 63.921875 
L 10.984375 60.40625 
L 10.984375 69.390625 
L 28.421875 72.90625 
L 38.28125 72.90625 
L 38.28125 8.296875 
L 54.390625 8.296875 
L 54.390625 0 
L 12.40625 0 
z
" id="DejaVuSans-49"/>
      </defs>
      <g transform="translate(28.1845 140.666484)scale(0.1 -0.1)">
       <use xlink:href="#DejaVuSans-49"/>
       <use x="63.623047" xlink:href="#DejaVuSans-48"/>
       <use x="127.246094" xlink:href="#DejaVuSans-48"/>
      </g>
     </g>
    </g>
    <g id="ytick_5">
     <g id="line2d_10">
      <g>
       <use style="stroke:#000000;stroke-width:0.8;" x="54.272" xlink:href="#m4424f7774a" y="107.28572"/>
      </g>
     </g>
     <g id="text_11">
      <!-- 120 -->
      <g transform="translate(28.1845 111.084939)scale(0.1 -0.1)">
       <use xlink:href="#DejaVuSans-49"/>
       <use x="63.623047" xlink:href="#DejaVuSans-50"/>
       <use x="127.246094" xlink:href="#DejaVuSans-48"/>
      </g>
     </g>
    </g>
    <g id="ytick_6">
     <g id="line2d_11">
      <g>
       <use style="stroke:#000000;stroke-width:0.8;" x="54.272" xlink:href="#m4424f7774a" y="77.704175"/>
      </g>
     </g>
     <g id="text_12">
      <!-- 140 -->
      <g transform="translate(28.1845 81.503394)scale(0.1 -0.1)">
       <use xlink:href="#DejaVuSans-49"/>
       <use x="63.623047" xlink:href="#DejaVuSans-52"/>
       <use x="127.246094" xlink:href="#DejaVuSans-48"/>
      </g>
     </g>
    </g>
    <g id="ytick_7">
     <g id="line2d_12">
      <g>
       <use style="stroke:#000000;stroke-width:0.8;" x="54.272" xlink:href="#m4424f7774a" y="48.12263"/>
      </g>
     </g>
     <g id="text_13">
      <!-- 160 -->
      <g transform="translate(28.1845 51.921849)scale(0.1 -0.1)">
       <use xlink:href="#DejaVuSans-49"/>
       <use x="63.623047" xlink:href="#DejaVuSans-54"/>
       <use x="127.246094" xlink:href="#DejaVuSans-48"/>
      </g>
     </g>
    </g>
    <g id="text_14">
     <!-- $d'^{2}$ -->
     <defs>
      <path d="M 41.796875 8.203125 
Q 38.1875 3.46875 33.25 1.015625 
Q 28.328125 -1.421875 22.3125 -1.421875 
Q 14.109375 -1.421875 9.34375 4.171875 
Q 4.59375 9.765625 4.59375 19.484375 
Q 4.59375 27.59375 7.46875 34.9375 
Q 10.359375 42.28125 15.828125 48.09375 
Q 19.4375 51.953125 23.96875 53.96875 
Q 28.515625 56 33.5 56 
Q 38.765625 56 42.796875 53.453125 
Q 46.828125 50.921875 49.03125 46.1875 
L 54.890625 75.984375 
L 63.921875 75.984375 
L 49.125 0 
L 40.09375 0 
z
M 13.921875 21.09375 
Q 13.921875 14.015625 17.109375 10.0625 
Q 20.3125 6.109375 25.984375 6.109375 
Q 30.171875 6.109375 33.765625 8.125 
Q 37.359375 10.15625 40.09375 14.109375 
Q 42.96875 18.21875 44.625 23.578125 
Q 46.296875 28.953125 46.296875 34.1875 
Q 46.296875 40.96875 43.09375 44.765625 
Q 39.890625 48.578125 34.28125 48.578125 
Q 30.03125 48.578125 26.359375 46.578125 
Q 22.703125 44.578125 20.125 40.828125 
Q 17.28125 36.765625 15.59375 31.390625 
Q 13.921875 26.03125 13.921875 21.09375 
z
" id="DejaVuSans-Oblique-100"/>
      <path d="M 3.515625 5.421875 
Q 2.875 5.609375 2.875 6.390625 
L 15.09375 51.8125 
Q 15.671875 53.65625 17.078125 54.78125 
Q 18.5 55.90625 20.3125 55.90625 
Q 22.65625 55.90625 24.4375 54.359375 
Q 26.21875 52.828125 26.21875 50.484375 
Q 26.21875 49.46875 25.6875 48.1875 
L 7.625 4.984375 
Q 7.28125 4.296875 6.6875 4.296875 
Q 6.15625 4.296875 5 4.78125 
Q 3.859375 5.28125 3.515625 5.421875 
z
" id="Cmsy10-48"/>
     </defs>
     <g transform="translate(22.104813 142.48)rotate(-90)scale(0.1 -0.1)">
      <use transform="translate(0 0.765625)" xlink:href="#DejaVuSans-Oblique-100"/>
      <use transform="translate(70.924271 39.046875)scale(0.7)" xlink:href="#Cmsy10-48"/>
      <use transform="translate(93.858841 39.046875)scale(0.7)" xlink:href="#DejaVuSans-50"/>
     </g>
    </g>
   </g>
   <g id="line2d_13">
    <path clip-path="url(#pb5cbf01b59)" d="M 64.622727 228.451545 
L 71.300616 188.226179 
L 82.43043 133.071825 
L 93.560244 107.018775 
L 104.690059 86.643592 
L 115.819873 77.56617 
L 126.949687 70.967831 
L 138.079501 64.412127 
L 149.209316 57.853326 
L 160.33913 54.972173 
L 171.468944 51.165632 
L 182.598759 48.20724 
L 193.728573 45.963263 
L 204.858387 44.758628 
L 215.988201 42.691994 
L 227.118016 41.224635 
L 238.24783 39.87165 
L 249.377644 38.960044 
L 260.507458 37.482818 
L 271.637273 36.314773 
" style="fill:none;stroke:#1f77b4;stroke-linecap:square;stroke-width:1.5;"/>
    <defs>
     <path d="M 0 3 
C 0.795609 3 1.55874 2.683901 2.12132 2.12132 
C 2.683901 1.55874 3 0.795609 3 0 
C 3 -0.795609 2.683901 -1.55874 2.12132 -2.12132 
C 1.55874 -2.683901 0.795609 -3 0 -3 
C -0.795609 -3 -1.55874 -2.683901 -2.12132 -2.12132 
C -2.683901 -1.55874 -3 -0.795609 -3 0 
C -3 0.795609 -2.683901 1.55874 -2.12132 2.12132 
C -1.55874 2.683901 -0.795609 3 0 3 
z
" id="m7b06e33e1f" style="stroke:#1f77b4;"/>
    </defs>
    <g clip-path="url(#pb5cbf01b59)">
     <use style="fill:#1f77b4;stroke:#1f77b4;" x="64.622727" xlink:href="#m7b06e33e1f" y="228.451545"/>
     <use style="fill:#1f77b4;stroke:#1f77b4;" x="71.300616" xlink:href="#m7b06e33e1f" y="188.226179"/>
     <use style="fill:#1f77b4;stroke:#1f77b4;" x="82.43043" xlink:href="#m7b06e33e1f" y="133.071825"/>
     <use style="fill:#1f77b4;stroke:#1f77b4;" x="93.560244" xlink:href="#m7b06e33e1f" y="107.018775"/>
     <use style="fill:#1f77b4;stroke:#1f77b4;" x="104.690059" xlink:href="#m7b06e33e1f" y="86.643592"/>
     <use style="fill:#1f77b4;stroke:#1f77b4;" x="115.819873" xlink:href="#m7b06e33e1f" y="77.56617"/>
     <use style="fill:#1f77b4;stroke:#1f77b4;" x="126.949687" xlink:href="#m7b06e33e1f" y="70.967831"/>
     <use style="fill:#1f77b4;stroke:#1f77b4;" x="138.079501" xlink:href="#m7b06e33e1f" y="64.412127"/>
     <use style="fill:#1f77b4;stroke:#1f77b4;" x="149.209316" xlink:href="#m7b06e33e1f" y="57.853326"/>
     <use style="fill:#1f77b4;stroke:#1f77b4;" x="160.33913" xlink:href="#m7b06e33e1f" y="54.972173"/>
     <use style="fill:#1f77b4;stroke:#1f77b4;" x="171.468944" xlink:href="#m7b06e33e1f" y="51.165632"/>
     <use style="fill:#1f77b4;stroke:#1f77b4;" x="182.598759" xlink:href="#m7b06e33e1f" y="48.20724"/>
     <use style="fill:#1f77b4;stroke:#1f77b4;" x="193.728573" xlink:href="#m7b06e33e1f" y="45.963263"/>
     <use style="fill:#1f77b4;stroke:#1f77b4;" x="204.858387" xlink:href="#m7b06e33e1f" y="44.758628"/>
     <use style="fill:#1f77b4;stroke:#1f77b4;" x="215.988201" xlink:href="#m7b06e33e1f" y="42.691994"/>
     <use style="fill:#1f77b4;stroke:#1f77b4;" x="227.118016" xlink:href="#m7b06e33e1f" y="41.224635"/>
     <use style="fill:#1f77b4;stroke:#1f77b4;" x="238.24783" xlink:href="#m7b06e33e1f" y="39.87165"/>
     <use style="fill:#1f77b4;stroke:#1f77b4;" x="249.377644" xlink:href="#m7b06e33e1f" y="38.960044"/>
     <use style="fill:#1f77b4;stroke:#1f77b4;" x="260.507458" xlink:href="#m7b06e33e1f" y="37.482818"/>
     <use style="fill:#1f77b4;stroke:#1f77b4;" x="271.637273" xlink:href="#m7b06e33e1f" y="36.314773"/>
    </g>
   </g>
   <g id="line2d_14">
    <path clip-path="url(#pb5cbf01b59)" d="M 64.622727 228.533506 
L 71.300616 188.144066 
L 82.43043 133.398767 
L 93.560244 107.634332 
L 104.690059 87.490837 
L 115.819873 78.694451 
L 126.949687 72.681439 
L 138.079501 65.903777 
L 149.209316 59.051803 
L 160.33913 57.251665 
L 171.468944 54.206368 
L 182.598759 51.236382 
L 193.728573 48.977926 
L 204.858387 48.020138 
L 215.988201 46.199169 
L 227.118016 45.109496 
L 238.24783 44.18635 
L 249.377644 42.640676 
L 260.507458 42.175686 
L 271.637273 41.587221 
" style="fill:none;stroke:#ff7f0e;stroke-linecap:square;stroke-width:1.5;"/>
    <defs>
     <path d="M 0 3 
C 0.795609 3 1.55874 2.683901 2.12132 2.12132 
C 2.683901 1.55874 3 0.795609 3 0 
C 3 -0.795609 2.683901 -1.55874 2.12132 -2.12132 
C 1.55874 -2.683901 0.795609 -3 0 -3 
C -0.795609 -3 -1.55874 -2.683901 -2.12132 -2.12132 
C -2.683901 -1.55874 -3 -0.795609 -3 0 
C -3 0.795609 -2.683901 1.55874 -2.12132 2.12132 
C -1.55874 2.683901 -0.795609 3 0 3 
z
" id="m9b57aa9daf" style="stroke:#ff7f0e;"/>
    </defs>
    <g clip-path="url(#pb5cbf01b59)">
     <use style="fill:#ff7f0e;stroke:#ff7f0e;" x="64.622727" xlink:href="#m9b57aa9daf" y="228.533506"/>
     <use style="fill:#ff7f0e;stroke:#ff7f0e;" x="71.300616" xlink:href="#m9b57aa9daf" y="188.144066"/>
     <use style="fill:#ff7f0e;stroke:#ff7f0e;" x="82.43043" xlink:href="#m9b57aa9daf" y="133.398767"/>
     <use style="fill:#ff7f0e;stroke:#ff7f0e;" x="93.560244" xlink:href="#m9b57aa9daf" y="107.634332"/>
     <use style="fill:#ff7f0e;stroke:#ff7f0e;" x="104.690059" xlink:href="#m9b57aa9daf" y="87.490837"/>
     <use style="fill:#ff7f0e;stroke:#ff7f0e;" x="115.819873" xlink:href="#m9b57aa9daf" y="78.694451"/>
     <use style="fill:#ff7f0e;stroke:#ff7f0e;" x="126.949687" xlink:href="#m9b57aa9daf" y="72.681439"/>
     <use style="fill:#ff7f0e;stroke:#ff7f0e;" x="138.079501" xlink:href="#m9b57aa9daf" y="65.903777"/>
     <use style="fill:#ff7f0e;stroke:#ff7f0e;" x="149.209316" xlink:href="#m9b57aa9daf" y="59.051803"/>
     <use style="fill:#ff7f0e;stroke:#ff7f0e;" x="160.33913" xlink:href="#m9b57aa9daf" y="57.251665"/>
     <use style="fill:#ff7f0e;stroke:#ff7f0e;" x="171.468944" xlink:href="#m9b57aa9daf" y="54.206368"/>
     <use style="fill:#ff7f0e;stroke:#ff7f0e;" x="182.598759" xlink:href="#m9b57aa9daf" y="51.236382"/>
     <use style="fill:#ff7f0e;stroke:#ff7f0e;" x="193.728573" xlink:href="#m9b57aa9daf" y="48.977926"/>
     <use style="fill:#ff7f0e;stroke:#ff7f0e;" x="204.858387" xlink:href="#m9b57aa9daf" y="48.020138"/>
     <use style="fill:#ff7f0e;stroke:#ff7f0e;" x="215.988201" xlink:href="#m9b57aa9daf" y="46.199169"/>
     <use style="fill:#ff7f0e;stroke:#ff7f0e;" x="227.118016" xlink:href="#m9b57aa9daf" y="45.109496"/>
     <use style="fill:#ff7f0e;stroke:#ff7f0e;" x="238.24783" xlink:href="#m9b57aa9daf" y="44.18635"/>
     <use style="fill:#ff7f0e;stroke:#ff7f0e;" x="249.377644" xlink:href="#m9b57aa9daf" y="42.640676"/>
     <use style="fill:#ff7f0e;stroke:#ff7f0e;" x="260.507458" xlink:href="#m9b57aa9daf" y="42.175686"/>
     <use style="fill:#ff7f0e;stroke:#ff7f0e;" x="271.637273" xlink:href="#m9b57aa9daf" y="41.587221"/>
    </g>
   </g>
   <g id="line2d_15">
    <path clip-path="url(#pb5cbf01b59)" d="M 64.622727 228.451545 
L 71.300616 208.429414 
L 82.43043 161.160078 
L 93.560244 144.065501 
L 104.690059 122.360852 
L 115.819873 108.357736 
L 126.949687 99.428574 
L 138.079501 91.178605 
L 149.209316 83.555912 
L 160.33913 79.513121 
L 171.468944 74.082487 
L 182.598759 68.32865 
L 193.728573 65.548081 
L 204.858387 63.878256 
L 215.988201 61.183793 
L 227.118016 58.590161 
L 238.24783 56.597306 
L 249.377644 55.203104 
L 260.507458 53.092267 
L 271.637273 51.563419 
" style="fill:none;stroke:#2ca02c;stroke-linecap:square;stroke-width:1.5;"/>
    <defs>
     <path d="M 0 3 
C 0.795609 3 1.55874 2.683901 2.12132 2.12132 
C 2.683901 1.55874 3 0.795609 3 0 
C 3 -0.795609 2.683901 -1.55874 2.12132 -2.12132 
C 1.55874 -2.683901 0.795609 -3 0 -3 
C -0.795609 -3 -1.55874 -2.683901 -2.12132 -2.12132 
C -2.683901 -1.55874 -3 -0.795609 -3 0 
C -3 0.795609 -2.683901 1.55874 -2.12132 2.12132 
C -1.55874 2.683901 -0.795609 3 0 3 
z
" id="m91f14e9578" style="stroke:#2ca02c;"/>
    </defs>
    <g clip-path="url(#pb5cbf01b59)">
     <use style="fill:#2ca02c;stroke:#2ca02c;" x="64.622727" xlink:href="#m91f14e9578" y="228.451545"/>
     <use style="fill:#2ca02c;stroke:#2ca02c;" x="71.300616" xlink:href="#m91f14e9578" y="208.429414"/>
     <use style="fill:#2ca02c;stroke:#2ca02c;" x="82.43043" xlink:href="#m91f14e9578" y="161.160078"/>
     <use style="fill:#2ca02c;stroke:#2ca02c;" x="93.560244" xlink:href="#m91f14e9578" y="144.065501"/>
     <use style="fill:#2ca02c;stroke:#2ca02c;" x="104.690059" xlink:href="#m91f14e9578" y="122.360852"/>
     <use style="fill:#2ca02c;stroke:#2ca02c;" x="115.819873" xlink:href="#m91f14e9578" y="108.357736"/>
     <use style="fill:#2ca02c;stroke:#2ca02c;" x="126.949687" xlink:href="#m91f14e9578" y="99.428574"/>
     <use style="fill:#2ca02c;stroke:#2ca02c;" x="138.079501" xlink:href="#m91f14e9578" y="91.178605"/>
     <use style="fill:#2ca02c;stroke:#2ca02c;" x="149.209316" xlink:href="#m91f14e9578" y="83.555912"/>
     <use style="fill:#2ca02c;stroke:#2ca02c;" x="160.33913" xlink:href="#m91f14e9578" y="79.513121"/>
     <use style="fill:#2ca02c;stroke:#2ca02c;" x="171.468944" xlink:href="#m91f14e9578" y="74.082487"/>
     <use style="fill:#2ca02c;stroke:#2ca02c;" x="182.598759" xlink:href="#m91f14e9578" y="68.32865"/>
     <use style="fill:#2ca02c;stroke:#2ca02c;" x="193.728573" xlink:href="#m91f14e9578" y="65.548081"/>
     <use style="fill:#2ca02c;stroke:#2ca02c;" x="204.858387" xlink:href="#m91f14e9578" y="63.878256"/>
     <use style="fill:#2ca02c;stroke:#2ca02c;" x="215.988201" xlink:href="#m91f14e9578" y="61.183793"/>
     <use style="fill:#2ca02c;stroke:#2ca02c;" x="227.118016" xlink:href="#m91f14e9578" y="58.590161"/>
     <use style="fill:#2ca02c;stroke:#2ca02c;" x="238.24783" xlink:href="#m91f14e9578" y="56.597306"/>
     <use style="fill:#2ca02c;stroke:#2ca02c;" x="249.377644" xlink:href="#m91f14e9578" y="55.203104"/>
     <use style="fill:#2ca02c;stroke:#2ca02c;" x="260.507458" xlink:href="#m91f14e9578" y="53.092267"/>
     <use style="fill:#2ca02c;stroke:#2ca02c;" x="271.637273" xlink:href="#m91f14e9578" y="51.563419"/>
    </g>
   </g>
   <g id="line2d_16">
    <path clip-path="url(#pb5cbf01b59)" d="M 64.622727 228.533506 
L 71.300616 208.49257 
L 82.43043 161.264973 
L 93.560244 144.156 
L 104.690059 122.30823 
L 115.819873 108.317761 
L 126.949687 99.733264 
L 138.079501 91.170518 
L 149.209316 83.067281 
L 160.33913 79.632203 
L 171.468944 74.653687 
L 182.598759 68.697463 
L 193.728573 65.806686 
L 204.858387 64.190447 
L 215.988201 61.287052 
L 227.118016 58.766831 
L 238.24783 57.002989 
L 249.377644 54.681931 
L 260.507458 53.307163 
L 271.637273 52.050833 
" style="fill:none;stroke:#d62728;stroke-linecap:square;stroke-width:1.5;"/>
    <defs>
     <path d="M 0 3 
C 0.795609 3 1.55874 2.683901 2.12132 2.12132 
C 2.683901 1.55874 3 0.795609 3 0 
C 3 -0.795609 2.683901 -1.55874 2.12132 -2.12132 
C 1.55874 -2.683901 0.795609 -3 0 -3 
C -0.795609 -3 -1.55874 -2.683901 -2.12132 -2.12132 
C -2.683901 -1.55874 -3 -0.795609 -3 0 
C -3 0.795609 -2.683901 1.55874 -2.12132 2.12132 
C -1.55874 2.683901 -0.795609 3 0 3 
z
" id="m36105a2e69" style="stroke:#d62728;"/>
    </defs>
    <g clip-path="url(#pb5cbf01b59)">
     <use style="fill:#d62728;stroke:#d62728;" x="64.622727" xlink:href="#m36105a2e69" y="228.533506"/>
     <use style="fill:#d62728;stroke:#d62728;" x="71.300616" xlink:href="#m36105a2e69" y="208.49257"/>
     <use style="fill:#d62728;stroke:#d62728;" x="82.43043" xlink:href="#m36105a2e69" y="161.264973"/>
     <use style="fill:#d62728;stroke:#d62728;" x="93.560244" xlink:href="#m36105a2e69" y="144.156"/>
     <use style="fill:#d62728;stroke:#d62728;" x="104.690059" xlink:href="#m36105a2e69" y="122.30823"/>
     <use style="fill:#d62728;stroke:#d62728;" x="115.819873" xlink:href="#m36105a2e69" y="108.317761"/>
     <use style="fill:#d62728;stroke:#d62728;" x="126.949687" xlink:href="#m36105a2e69" y="99.733264"/>
     <use style="fill:#d62728;stroke:#d62728;" x="138.079501" xlink:href="#m36105a2e69" y="91.170518"/>
     <use style="fill:#d62728;stroke:#d62728;" x="149.209316" xlink:href="#m36105a2e69" y="83.067281"/>
     <use style="fill:#d62728;stroke:#d62728;" x="160.33913" xlink:href="#m36105a2e69" y="79.632203"/>
     <use style="fill:#d62728;stroke:#d62728;" x="171.468944" xlink:href="#m36105a2e69" y="74.653687"/>
     <use style="fill:#d62728;stroke:#d62728;" x="182.598759" xlink:href="#m36105a2e69" y="68.697463"/>
     <use style="fill:#d62728;stroke:#d62728;" x="193.728573" xlink:href="#m36105a2e69" y="65.806686"/>
     <use style="fill:#d62728;stroke:#d62728;" x="204.858387" xlink:href="#m36105a2e69" y="64.190447"/>
     <use style="fill:#d62728;stroke:#d62728;" x="215.988201" xlink:href="#m36105a2e69" y="61.287052"/>
     <use style="fill:#d62728;stroke:#d62728;" x="227.118016" xlink:href="#m36105a2e69" y="58.766831"/>
     <use style="fill:#d62728;stroke:#d62728;" x="238.24783" xlink:href="#m36105a2e69" y="57.002989"/>
     <use style="fill:#d62728;stroke:#d62728;" x="249.377644" xlink:href="#m36105a2e69" y="54.681931"/>
     <use style="fill:#d62728;stroke:#d62728;" x="260.507458" xlink:href="#m36105a2e69" y="53.307163"/>
     <use style="fill:#d62728;stroke:#d62728;" x="271.637273" xlink:href="#m36105a2e69" y="52.050833"/>
    </g>
   </g>
   <g id="patch_3">
    <path d="M 54.272 244.6 
L 54.272 26.16 
" style="fill:none;stroke:#000000;stroke-linecap:square;stroke-linejoin:miter;stroke-width:0.8;"/>
   </g>
   <g id="patch_4">
    <path d="M 54.272 244.6 
L 281.988 244.6 
" style="fill:none;stroke:#000000;stroke-linecap:square;stroke-linejoin:miter;stroke-width:0.8;"/>
   </g>
   <g id="text_15">
    <!-- $k = 10000$ -->
    <defs>
     <path d="M 18.3125 75.984375 
L 27.296875 75.984375 
L 18.703125 31.6875 
L 49.515625 54.6875 
L 61.1875 54.6875 
L 26.8125 28.515625 
L 51.90625 0 
L 41.015625 0 
L 17.671875 26.703125 
L 12.5 0 
L 3.515625 0 
z
" id="DejaVuSans-Oblique-107"/>
     <path d="M 10.59375 45.40625 
L 73.1875 45.40625 
L 73.1875 37.203125 
L 10.59375 37.203125 
z
M 10.59375 25.484375 
L 73.1875 25.484375 
L 73.1875 17.1875 
L 10.59375 17.1875 
z
" id="DejaVuSans-61"/>
    </defs>
    <g transform="translate(138.19 20.16)scale(0.12 -0.12)">
     <use transform="translate(0 0.015625)" xlink:href="#DejaVuSans-Oblique-107"/>
     <use transform="translate(77.392578 0.015625)" xlink:href="#DejaVuSans-61"/>
     <use transform="translate(180.664062 0.015625)" xlink:href="#DejaVuSans-49"/>
     <use transform="translate(244.287109 0.015625)" xlink:href="#DejaVuSans-48"/>
     <use transform="translate(307.910156 0.015625)" xlink:href="#DejaVuSans-48"/>
     <use transform="translate(371.533203 0.015625)" xlink:href="#DejaVuSans-48"/>
     <use transform="translate(435.15625 0.015625)" xlink:href="#DejaVuSans-48"/>
    </g>
   </g>
   <g id="legend_1">
    <g id="line2d_17">
     <path d="M 194.6005 185.985937 
L 214.6005 185.985937 
" style="fill:none;stroke:#1f77b4;stroke-linecap:square;stroke-width:1.5;"/>
    </g>
    <g id="line2d_18">
     <g>
      <use style="fill:#1f77b4;stroke:#1f77b4;" x="204.6005" xlink:href="#m7b06e33e1f" y="185.985937"/>
     </g>
    </g>
    <g id="text_16">
     <!-- train -->
     <defs>
      <path d="M 18.3125 70.21875 
L 18.3125 54.6875 
L 36.8125 54.6875 
L 36.8125 47.703125 
L 18.3125 47.703125 
L 18.3125 18.015625 
Q 18.3125 11.328125 20.140625 9.421875 
Q 21.96875 7.515625 27.59375 7.515625 
L 36.8125 7.515625 
L 36.8125 0 
L 27.59375 0 
Q 17.1875 0 13.234375 3.875 
Q 9.28125 7.765625 9.28125 18.015625 
L 9.28125 47.703125 
L 2.6875 47.703125 
L 2.6875 54.6875 
L 9.28125 54.6875 
L 9.28125 70.21875 
z
" id="DejaVuSans-116"/>
      <path d="M 34.28125 27.484375 
Q 23.390625 27.484375 19.1875 25 
Q 14.984375 22.515625 14.984375 16.5 
Q 14.984375 11.71875 18.140625 8.90625 
Q 21.296875 6.109375 26.703125 6.109375 
Q 34.1875 6.109375 38.703125 11.40625 
Q 43.21875 16.703125 43.21875 25.484375 
L 43.21875 27.484375 
z
M 52.203125 31.203125 
L 52.203125 0 
L 43.21875 0 
L 43.21875 8.296875 
Q 40.140625 3.328125 35.546875 0.953125 
Q 30.953125 -1.421875 24.3125 -1.421875 
Q 15.921875 -1.421875 10.953125 3.296875 
Q 6 8.015625 6 15.921875 
Q 6 25.140625 12.171875 29.828125 
Q 18.359375 34.515625 30.609375 34.515625 
L 43.21875 34.515625 
L 43.21875 35.40625 
Q 43.21875 41.609375 39.140625 45 
Q 35.0625 48.390625 27.6875 48.390625 
Q 23 48.390625 18.546875 47.265625 
Q 14.109375 46.140625 10.015625 43.890625 
L 10.015625 52.203125 
Q 14.9375 54.109375 19.578125 55.046875 
Q 24.21875 56 28.609375 56 
Q 40.484375 56 46.34375 49.84375 
Q 52.203125 43.703125 52.203125 31.203125 
z
" id="DejaVuSans-97"/>
      <path d="M 9.421875 54.6875 
L 18.40625 54.6875 
L 18.40625 0 
L 9.421875 0 
z
M 9.421875 75.984375 
L 18.40625 75.984375 
L 18.40625 64.59375 
L 9.421875 64.59375 
z
" id="DejaVuSans-105"/>
     </defs>
     <g transform="translate(222.6005 189.485937)scale(0.1 -0.1)">
      <use xlink:href="#DejaVuSans-116"/>
      <use x="39.208984" xlink:href="#DejaVuSans-114"/>
      <use x="80.322266" xlink:href="#DejaVuSans-97"/>
      <use x="141.601562" xlink:href="#DejaVuSans-105"/>
      <use x="169.384766" xlink:href="#DejaVuSans-110"/>
     </g>
    </g>
    <g id="line2d_19">
     <path d="M 194.6005 200.664062 
L 214.6005 200.664062 
" style="fill:none;stroke:#ff7f0e;stroke-linecap:square;stroke-width:1.5;"/>
    </g>
    <g id="line2d_20">
     <g>
      <use style="fill:#ff7f0e;stroke:#ff7f0e;" x="204.6005" xlink:href="#m9b57aa9daf" y="200.664062"/>
     </g>
    </g>
    <g id="text_17">
     <!-- test -->
     <g transform="translate(222.6005 204.164062)scale(0.1 -0.1)">
      <use xlink:href="#DejaVuSans-116"/>
      <use x="39.208984" xlink:href="#DejaVuSans-101"/>
      <use x="100.732422" xlink:href="#DejaVuSans-115"/>
      <use x="152.832031" xlink:href="#DejaVuSans-116"/>
     </g>
    </g>
    <g id="line2d_21">
     <path d="M 194.6005 215.342187 
L 214.6005 215.342187 
" style="fill:none;stroke:#2ca02c;stroke-linecap:square;stroke-width:1.5;"/>
    </g>
    <g id="line2d_22">
     <g>
      <use style="fill:#2ca02c;stroke:#2ca02c;" x="204.6005" xlink:href="#m91f14e9578" y="215.342187"/>
     </g>
    </g>
    <g id="text_18">
     <!-- train, TDR -->
     <defs>
      <path d="M -0.296875 72.90625 
L 61.375 72.90625 
L 61.375 64.59375 
L 35.5 64.59375 
L 35.5 0 
L 25.59375 0 
L 25.59375 64.59375 
L -0.296875 64.59375 
z
" id="DejaVuSans-84"/>
      <path d="M 19.671875 64.796875 
L 19.671875 8.109375 
L 31.59375 8.109375 
Q 46.6875 8.109375 53.6875 14.9375 
Q 60.6875 21.78125 60.6875 36.53125 
Q 60.6875 51.171875 53.6875 57.984375 
Q 46.6875 64.796875 31.59375 64.796875 
z
M 9.8125 72.90625 
L 30.078125 72.90625 
Q 51.265625 72.90625 61.171875 64.09375 
Q 71.09375 55.28125 71.09375 36.53125 
Q 71.09375 17.671875 61.125 8.828125 
Q 51.171875 0 30.078125 0 
L 9.8125 0 
z
" id="DejaVuSans-68"/>
      <path d="M 44.390625 34.1875 
Q 47.5625 33.109375 50.5625 29.59375 
Q 53.5625 26.078125 56.59375 19.921875 
L 66.609375 0 
L 56 0 
L 46.6875 18.703125 
Q 43.0625 26.03125 39.671875 28.421875 
Q 36.28125 30.8125 30.421875 30.8125 
L 19.671875 30.8125 
L 19.671875 0 
L 9.8125 0 
L 9.8125 72.90625 
L 32.078125 72.90625 
Q 44.578125 72.90625 50.734375 67.671875 
Q 56.890625 62.453125 56.890625 51.90625 
Q 56.890625 45.015625 53.6875 40.46875 
Q 50.484375 35.9375 44.390625 34.1875 
z
M 19.671875 64.796875 
L 19.671875 38.921875 
L 32.078125 38.921875 
Q 39.203125 38.921875 42.84375 42.21875 
Q 46.484375 45.515625 46.484375 51.90625 
Q 46.484375 58.296875 42.84375 61.546875 
Q 39.203125 64.796875 32.078125 64.796875 
z
" id="DejaVuSans-82"/>
     </defs>
     <g transform="translate(222.6005 218.842187)scale(0.1 -0.1)">
      <use xlink:href="#DejaVuSans-116"/>
      <use x="39.208984" xlink:href="#DejaVuSans-114"/>
      <use x="80.322266" xlink:href="#DejaVuSans-97"/>
      <use x="141.601562" xlink:href="#DejaVuSans-105"/>
      <use x="169.384766" xlink:href="#DejaVuSans-110"/>
      <use x="232.763672" xlink:href="#DejaVuSans-44"/>
      <use x="264.550781" xlink:href="#DejaVuSans-32"/>
      <use x="296.337891" xlink:href="#DejaVuSans-84"/>
      <use x="357.421875" xlink:href="#DejaVuSans-68"/>
      <use x="434.423828" xlink:href="#DejaVuSans-82"/>
     </g>
    </g>
    <g id="line2d_23">
     <path d="M 194.6005 230.020312 
L 214.6005 230.020312 
" style="fill:none;stroke:#d62728;stroke-linecap:square;stroke-width:1.5;"/>
    </g>
    <g id="line2d_24">
     <g>
      <use style="fill:#d62728;stroke:#d62728;" x="204.6005" xlink:href="#m36105a2e69" y="230.020312"/>
     </g>
    </g>
    <g id="text_19">
     <!-- test, TDR -->
     <g transform="translate(222.6005 233.520312)scale(0.1 -0.1)">
      <use xlink:href="#DejaVuSans-116"/>
      <use x="39.208984" xlink:href="#DejaVuSans-101"/>
      <use x="100.732422" xlink:href="#DejaVuSans-115"/>
      <use x="152.832031" xlink:href="#DejaVuSans-116"/>
      <use x="192.041016" xlink:href="#DejaVuSans-44"/>
      <use x="223.828125" xlink:href="#DejaVuSans-32"/>
      <use x="255.615234" xlink:href="#DejaVuSans-84"/>
      <use x="316.699219" xlink:href="#DejaVuSans-68"/>
      <use x="393.701172" xlink:href="#DejaVuSans-82"/>
     </g>
    </g>
   </g>
  </g>
  <g id="axes_2">
   <g id="patch_5">
    <path d="M 338.618 244.6 
L 566.334 244.6 
L 566.334 26.16 
L 338.618 26.16 
z
" style="fill:#ffffff;"/>
   </g>
   <g id="matplotlib.axis_3">
    <g id="xtick_6">
     <g id="line2d_25">
      <g>
       <use style="stroke:#000000;stroke-width:0.8;" x="348.968727" xlink:href="#macdb762b83" y="244.6"/>
      </g>
     </g>
     <g id="text_20">
      <!-- 0 -->
      <g transform="translate(345.787477 259.198438)scale(0.1 -0.1)">
       <use xlink:href="#DejaVuSans-48"/>
      </g>
     </g>
    </g>
    <g id="xtick_7">
     <g id="line2d_26">
      <g>
       <use style="stroke:#000000;stroke-width:0.8;" x="390.789848" xlink:href="#macdb762b83" y="244.6"/>
      </g>
     </g>
     <g id="text_21">
      <!-- 20 -->
      <g transform="translate(384.427348 259.198438)scale(0.1 -0.1)">
       <use xlink:href="#DejaVuSans-50"/>
       <use x="63.623047" xlink:href="#DejaVuSans-48"/>
      </g>
     </g>
    </g>
    <g id="xtick_8">
     <g id="line2d_27">
      <g>
       <use style="stroke:#000000;stroke-width:0.8;" x="432.610968" xlink:href="#macdb762b83" y="244.6"/>
      </g>
     </g>
     <g id="text_22">
      <!-- 40 -->
      <g transform="translate(426.248468 259.198438)scale(0.1 -0.1)">
       <use xlink:href="#DejaVuSans-52"/>
       <use x="63.623047" xlink:href="#DejaVuSans-48"/>
      </g>
     </g>
    </g>
    <g id="xtick_9">
     <g id="line2d_28">
      <g>
       <use style="stroke:#000000;stroke-width:0.8;" x="474.432088" xlink:href="#macdb762b83" y="244.6"/>
      </g>
     </g>
     <g id="text_23">
      <!-- 60 -->
      <g transform="translate(468.069588 259.198438)scale(0.1 -0.1)">
       <use xlink:href="#DejaVuSans-54"/>
       <use x="63.623047" xlink:href="#DejaVuSans-48"/>
      </g>
     </g>
    </g>
    <g id="xtick_10">
     <g id="line2d_29">
      <g>
       <use style="stroke:#000000;stroke-width:0.8;" x="516.253208" xlink:href="#macdb762b83" y="244.6"/>
      </g>
     </g>
     <g id="text_24">
      <!-- 80 -->
      <g transform="translate(509.890708 259.198438)scale(0.1 -0.1)">
       <use xlink:href="#DejaVuSans-56"/>
       <use x="63.623047" xlink:href="#DejaVuSans-48"/>
      </g>
     </g>
    </g>
    <g id="xtick_11">
     <g id="line2d_30">
      <g>
       <use style="stroke:#000000;stroke-width:0.8;" x="558.074329" xlink:href="#macdb762b83" y="244.6"/>
      </g>
     </g>
     <g id="text_25">
      <!-- 100 -->
      <g transform="translate(548.530579 259.198438)scale(0.1 -0.1)">
       <use xlink:href="#DejaVuSans-49"/>
       <use x="63.623047" xlink:href="#DejaVuSans-48"/>
       <use x="127.246094" xlink:href="#DejaVuSans-48"/>
      </g>
     </g>
    </g>
    <g id="text_26">
     <!-- $\alpha$ -->
     <defs>
      <path d="M 40.921875 25.4375 
L 40.96875 36.71875 
Q 41.015625 48.25 32.328125 48.296875 
Q 25.828125 48.34375 21.78125 42.921875 
Q 16.703125 36.234375 14.984375 27.296875 
Q 12.890625 16.546875 15.53125 11.421875 
Q 18.265625 6.203125 24.171875 6.203125 
Q 30.71875 6.203125 36.234375 16.609375 
z
M 33.84375 55.90625 
Q 49.078125 56.15625 48.875 40.375 
Q 48.875 40.375 56.5 54.6875 
L 64.5 54.6875 
L 48.734375 25.046875 
L 48.578125 14.359375 
Q 48.578125 11.96875 49.90625 9.96875 
Q 51.421875 7.625 52.984375 7.625 
L 57.328125 7.625 
L 55.859375 0 
L 50.4375 0 
Q 45.84375 0 42.53125 4.109375 
Q 40.96875 6.15625 40.921875 10.453125 
Q 37.75 5.21875 32.28125 0.78125 
Q 29.6875 -1.265625 22.703125 -1.21875 
Q 11.28125 -1.125 7.125 6.203125 
Q 2.875 13.8125 5.515625 27.296875 
Q 8.34375 41.796875 15.765625 48.390625 
Q 24.125 55.765625 33.84375 55.90625 
z
" id="DejaVuSans-Oblique-945"/>
     </defs>
     <g transform="translate(449.176 272.876562)scale(0.1 -0.1)">
      <use transform="translate(0 0.84375)" xlink:href="#DejaVuSans-Oblique-945"/>
     </g>
    </g>
   </g>
   <g id="matplotlib.axis_4">
    <g id="ytick_8">
     <g id="line2d_31">
      <g>
       <use style="stroke:#000000;stroke-width:0.8;" x="338.618" xlink:href="#m4424f7774a" y="235.569496"/>
      </g>
     </g>
     <g id="text_27">
      <!-- 0.00 -->
      <defs>
       <path d="M 10.6875 12.40625 
L 21 12.40625 
L 21 0 
L 10.6875 0 
z
" id="DejaVuSans-46"/>
      </defs>
      <g transform="translate(309.352375 239.368715)scale(0.1 -0.1)">
       <use xlink:href="#DejaVuSans-48"/>
       <use x="63.623047" xlink:href="#DejaVuSans-46"/>
       <use x="95.410156" xlink:href="#DejaVuSans-48"/>
       <use x="159.033203" xlink:href="#DejaVuSans-48"/>
      </g>
     </g>
    </g>
    <g id="ytick_9">
     <g id="line2d_32">
      <g>
       <use style="stroke:#000000;stroke-width:0.8;" x="338.618" xlink:href="#m4424f7774a" y="210.222275"/>
      </g>
     </g>
     <g id="text_28">
      <!-- 0.02 -->
      <g transform="translate(309.352375 214.021494)scale(0.1 -0.1)">
       <use xlink:href="#DejaVuSans-48"/>
       <use x="63.623047" xlink:href="#DejaVuSans-46"/>
       <use x="95.410156" xlink:href="#DejaVuSans-48"/>
       <use x="159.033203" xlink:href="#DejaVuSans-50"/>
      </g>
     </g>
    </g>
    <g id="ytick_10">
     <g id="line2d_33">
      <g>
       <use style="stroke:#000000;stroke-width:0.8;" x="338.618" xlink:href="#m4424f7774a" y="184.875054"/>
      </g>
     </g>
     <g id="text_29">
      <!-- 0.04 -->
      <g transform="translate(309.352375 188.674272)scale(0.1 -0.1)">
       <use xlink:href="#DejaVuSans-48"/>
       <use x="63.623047" xlink:href="#DejaVuSans-46"/>
       <use x="95.410156" xlink:href="#DejaVuSans-48"/>
       <use x="159.033203" xlink:href="#DejaVuSans-52"/>
      </g>
     </g>
    </g>
    <g id="ytick_11">
     <g id="line2d_34">
      <g>
       <use style="stroke:#000000;stroke-width:0.8;" x="338.618" xlink:href="#m4424f7774a" y="159.527832"/>
      </g>
     </g>
     <g id="text_30">
      <!-- 0.06 -->
      <g transform="translate(309.352375 163.327051)scale(0.1 -0.1)">
       <use xlink:href="#DejaVuSans-48"/>
       <use x="63.623047" xlink:href="#DejaVuSans-46"/>
       <use x="95.410156" xlink:href="#DejaVuSans-48"/>
       <use x="159.033203" xlink:href="#DejaVuSans-54"/>
      </g>
     </g>
    </g>
    <g id="ytick_12">
     <g id="line2d_35">
      <g>
       <use style="stroke:#000000;stroke-width:0.8;" x="338.618" xlink:href="#m4424f7774a" y="134.180611"/>
      </g>
     </g>
     <g id="text_31">
      <!-- 0.08 -->
      <g transform="translate(309.352375 137.979829)scale(0.1 -0.1)">
       <use xlink:href="#DejaVuSans-48"/>
       <use x="63.623047" xlink:href="#DejaVuSans-46"/>
       <use x="95.410156" xlink:href="#DejaVuSans-48"/>
       <use x="159.033203" xlink:href="#DejaVuSans-56"/>
      </g>
     </g>
    </g>
    <g id="ytick_13">
     <g id="line2d_36">
      <g>
       <use style="stroke:#000000;stroke-width:0.8;" x="338.618" xlink:href="#m4424f7774a" y="108.833389"/>
      </g>
     </g>
     <g id="text_32">
      <!-- 0.10 -->
      <g transform="translate(309.352375 112.632608)scale(0.1 -0.1)">
       <use xlink:href="#DejaVuSans-48"/>
       <use x="63.623047" xlink:href="#DejaVuSans-46"/>
       <use x="95.410156" xlink:href="#DejaVuSans-49"/>
       <use x="159.033203" xlink:href="#DejaVuSans-48"/>
      </g>
     </g>
    </g>
    <g id="ytick_14">
     <g id="line2d_37">
      <g>
       <use style="stroke:#000000;stroke-width:0.8;" x="338.618" xlink:href="#m4424f7774a" y="83.486168"/>
      </g>
     </g>
     <g id="text_33">
      <!-- 0.12 -->
      <g transform="translate(309.352375 87.285387)scale(0.1 -0.1)">
       <use xlink:href="#DejaVuSans-48"/>
       <use x="63.623047" xlink:href="#DejaVuSans-46"/>
       <use x="95.410156" xlink:href="#DejaVuSans-49"/>
       <use x="159.033203" xlink:href="#DejaVuSans-50"/>
      </g>
     </g>
    </g>
    <g id="ytick_15">
     <g id="line2d_38">
      <g>
       <use style="stroke:#000000;stroke-width:0.8;" x="338.618" xlink:href="#m4424f7774a" y="58.138946"/>
      </g>
     </g>
     <g id="text_34">
      <!-- 0.14 -->
      <g transform="translate(309.352375 61.938165)scale(0.1 -0.1)">
       <use xlink:href="#DejaVuSans-48"/>
       <use x="63.623047" xlink:href="#DejaVuSans-46"/>
       <use x="95.410156" xlink:href="#DejaVuSans-49"/>
       <use x="159.033203" xlink:href="#DejaVuSans-52"/>
      </g>
     </g>
    </g>
    <g id="ytick_16">
     <g id="line2d_39">
      <g>
       <use style="stroke:#000000;stroke-width:0.8;" x="338.618" xlink:href="#m4424f7774a" y="32.791725"/>
      </g>
     </g>
     <g id="text_35">
      <!-- 0.16 -->
      <g transform="translate(309.352375 36.590944)scale(0.1 -0.1)">
       <use xlink:href="#DejaVuSans-48"/>
       <use x="63.623047" xlink:href="#DejaVuSans-46"/>
       <use x="95.410156" xlink:href="#DejaVuSans-49"/>
       <use x="159.033203" xlink:href="#DejaVuSans-54"/>
      </g>
     </g>
    </g>
    <g id="text_36">
     <!-- Fraction Variance Explained -->
     <defs>
      <path d="M 9.8125 72.90625 
L 51.703125 72.90625 
L 51.703125 64.59375 
L 19.671875 64.59375 
L 19.671875 43.109375 
L 48.578125 43.109375 
L 48.578125 34.8125 
L 19.671875 34.8125 
L 19.671875 0 
L 9.8125 0 
z
" id="DejaVuSans-70"/>
      <path d="M 48.78125 52.59375 
L 48.78125 44.1875 
Q 44.96875 46.296875 41.140625 47.34375 
Q 37.3125 48.390625 33.40625 48.390625 
Q 24.65625 48.390625 19.8125 42.84375 
Q 14.984375 37.3125 14.984375 27.296875 
Q 14.984375 17.28125 19.8125 11.734375 
Q 24.65625 6.203125 33.40625 6.203125 
Q 37.3125 6.203125 41.140625 7.25 
Q 44.96875 8.296875 48.78125 10.40625 
L 48.78125 2.09375 
Q 45.015625 0.34375 40.984375 -0.53125 
Q 36.96875 -1.421875 32.421875 -1.421875 
Q 20.0625 -1.421875 12.78125 6.34375 
Q 5.515625 14.109375 5.515625 27.296875 
Q 5.515625 40.671875 12.859375 48.328125 
Q 20.21875 56 33.015625 56 
Q 37.15625 56 41.109375 55.140625 
Q 45.0625 54.296875 48.78125 52.59375 
z
" id="DejaVuSans-99"/>
      <path d="M 28.609375 0 
L 0.78125 72.90625 
L 11.078125 72.90625 
L 34.1875 11.53125 
L 57.328125 72.90625 
L 67.578125 72.90625 
L 39.796875 0 
z
" id="DejaVuSans-86"/>
      <path d="M 9.8125 72.90625 
L 55.90625 72.90625 
L 55.90625 64.59375 
L 19.671875 64.59375 
L 19.671875 43.015625 
L 54.390625 43.015625 
L 54.390625 34.71875 
L 19.671875 34.71875 
L 19.671875 8.296875 
L 56.78125 8.296875 
L 56.78125 0 
L 9.8125 0 
z
" id="DejaVuSans-69"/>
      <path d="M 54.890625 54.6875 
L 35.109375 28.078125 
L 55.90625 0 
L 45.3125 0 
L 29.390625 21.484375 
L 13.484375 0 
L 2.875 0 
L 24.125 28.609375 
L 4.6875 54.6875 
L 15.28125 54.6875 
L 29.78125 35.203125 
L 44.28125 54.6875 
z
" id="DejaVuSans-120"/>
      <path d="M 18.109375 8.203125 
L 18.109375 -20.796875 
L 9.078125 -20.796875 
L 9.078125 54.6875 
L 18.109375 54.6875 
L 18.109375 46.390625 
Q 20.953125 51.265625 25.265625 53.625 
Q 29.59375 56 35.59375 56 
Q 45.5625 56 51.78125 48.09375 
Q 58.015625 40.1875 58.015625 27.296875 
Q 58.015625 14.40625 51.78125 6.484375 
Q 45.5625 -1.421875 35.59375 -1.421875 
Q 29.59375 -1.421875 25.265625 0.953125 
Q 20.953125 3.328125 18.109375 8.203125 
z
M 48.6875 27.296875 
Q 48.6875 37.203125 44.609375 42.84375 
Q 40.53125 48.484375 33.40625 48.484375 
Q 26.265625 48.484375 22.1875 42.84375 
Q 18.109375 37.203125 18.109375 27.296875 
Q 18.109375 17.390625 22.1875 11.75 
Q 26.265625 6.109375 33.40625 6.109375 
Q 40.53125 6.109375 44.609375 11.75 
Q 48.6875 17.390625 48.6875 27.296875 
z
" id="DejaVuSans-112"/>
      <path d="M 9.421875 75.984375 
L 18.40625 75.984375 
L 18.40625 0 
L 9.421875 0 
z
" id="DejaVuSans-108"/>
      <path d="M 45.40625 46.390625 
L 45.40625 75.984375 
L 54.390625 75.984375 
L 54.390625 0 
L 45.40625 0 
L 45.40625 8.203125 
Q 42.578125 3.328125 38.25 0.953125 
Q 33.9375 -1.421875 27.875 -1.421875 
Q 17.96875 -1.421875 11.734375 6.484375 
Q 5.515625 14.40625 5.515625 27.296875 
Q 5.515625 40.1875 11.734375 48.09375 
Q 17.96875 56 27.875 56 
Q 33.9375 56 38.25 53.625 
Q 42.578125 51.265625 45.40625 46.390625 
z
M 14.796875 27.296875 
Q 14.796875 17.390625 18.875 11.75 
Q 22.953125 6.109375 30.078125 6.109375 
Q 37.203125 6.109375 41.296875 11.75 
Q 45.40625 17.390625 45.40625 27.296875 
Q 45.40625 37.203125 41.296875 42.84375 
Q 37.203125 48.484375 30.078125 48.484375 
Q 22.953125 48.484375 18.875 42.84375 
Q 14.796875 37.203125 14.796875 27.296875 
z
" id="DejaVuSans-100"/>
     </defs>
     <g transform="translate(303.272688 205.41125)rotate(-90)scale(0.1 -0.1)">
      <use xlink:href="#DejaVuSans-70"/>
      <use x="57.410156" xlink:href="#DejaVuSans-114"/>
      <use x="98.523438" xlink:href="#DejaVuSans-97"/>
      <use x="159.802734" xlink:href="#DejaVuSans-99"/>
      <use x="214.783203" xlink:href="#DejaVuSans-116"/>
      <use x="253.992188" xlink:href="#DejaVuSans-105"/>
      <use x="281.775391" xlink:href="#DejaVuSans-111"/>
      <use x="342.957031" xlink:href="#DejaVuSans-110"/>
      <use x="406.335938" xlink:href="#DejaVuSans-32"/>
      <use x="438.123047" xlink:href="#DejaVuSans-86"/>
      <use x="506.421875" xlink:href="#DejaVuSans-97"/>
      <use x="567.701172" xlink:href="#DejaVuSans-114"/>
      <use x="608.814453" xlink:href="#DejaVuSans-105"/>
      <use x="636.597656" xlink:href="#DejaVuSans-97"/>
      <use x="697.876953" xlink:href="#DejaVuSans-110"/>
      <use x="761.255859" xlink:href="#DejaVuSans-99"/>
      <use x="816.236328" xlink:href="#DejaVuSans-101"/>
      <use x="877.759766" xlink:href="#DejaVuSans-32"/>
      <use x="909.546875" xlink:href="#DejaVuSans-69"/>
      <use x="972.730469" xlink:href="#DejaVuSans-120"/>
      <use x="1031.910156" xlink:href="#DejaVuSans-112"/>
      <use x="1095.386719" xlink:href="#DejaVuSans-108"/>
      <use x="1123.169922" xlink:href="#DejaVuSans-97"/>
      <use x="1184.449219" xlink:href="#DejaVuSans-105"/>
      <use x="1212.232422" xlink:href="#DejaVuSans-110"/>
      <use x="1275.611328" xlink:href="#DejaVuSans-101"/>
      <use x="1337.134766" xlink:href="#DejaVuSans-100"/>
     </g>
    </g>
   </g>
   <g id="line2d_40">
    <path clip-path="url(#p8480cfece7)" d="M 348.968727 36.089091 
L 351.059783 177.377485 
L 353.150839 199.326129 
L 355.241895 199.706235 
L 357.332951 200.538815 
L 359.424007 200.853571 
L 361.515063 201.026674 
L 363.606119 203.254663 
L 365.697175 204.389686 
L 367.788231 206.127092 
L 369.879287 207.97013 
L 371.970343 209.585134 
L 374.061399 212.273559 
L 376.152455 216.701858 
L 378.243511 217.082792 
L 380.334567 217.2944 
L 382.425624 217.531895 
L 384.51668 217.824448 
L 386.607736 217.983833 
L 388.698792 218.021013 
L 390.789848 218.206992 
L 392.880904 218.375667 
L 394.97196 218.4984 
L 397.063016 218.510771 
L 399.154072 218.593848 
L 401.245128 218.945621 
L 403.336184 219.127939 
L 405.42724 219.193976 
L 407.518296 219.62809 
L 409.609352 219.784959 
L 411.700408 220.222464 
L 413.791464 220.353036 
L 415.88252 220.722781 
L 417.973576 220.778076 
L 420.064632 221.033711 
L 422.155688 221.806902 
L 424.246744 223.063205 
L 426.3378 224.255469 
L 428.428856 226.905107 
L 430.519912 228.272511 
L 432.610968 228.30533 
L 434.702024 228.362086 
L 436.79308 228.379611 
L 438.884136 228.443895 
L 440.975192 228.480166 
L 443.066248 228.565531 
L 445.157304 228.621693 
L 447.24836 228.660339 
L 449.339416 228.735886 
L 451.430472 228.804507 
L 453.521528 228.872734 
L 455.612584 228.915765 
L 457.70364 228.977829 
L 459.794696 229.03785 
L 461.885752 229.092702 
L 463.976808 229.100937 
L 466.067864 229.202166 
L 468.15892 229.353222 
L 470.249976 229.463411 
L 472.341032 229.52615 
L 474.432088 229.8658 
L 476.523144 230.464995 
L 478.6142 231.559288 
L 480.705256 231.888726 
L 482.796312 231.923998 
L 484.887368 231.976436 
L 486.978424 231.996489 
L 489.06948 232.022843 
L 491.160536 232.056613 
L 493.251592 232.099789 
L 495.342648 232.15119 
L 497.433704 232.167196 
L 499.52476 232.206243 
L 501.615816 232.219973 
L 503.706872 232.279368 
L 505.797928 232.311534 
L 507.888984 232.333258 
L 509.98004 232.352968 
L 512.071096 232.396579 
L 514.162152 232.443542 
L 516.253208 232.661485 
L 518.344264 233.190386 
L 520.43532 233.399016 
L 522.526376 233.494341 
L 524.617433 233.52727 
L 526.708489 233.546525 
L 528.799545 233.565773 
L 530.890601 233.588489 
L 532.981657 233.59553 
L 535.072713 233.632242 
L 537.163769 233.668491 
L 539.254825 234.052026 
L 541.345881 234.205547 
L 543.436937 234.231268 
L 545.527993 234.258755 
L 547.619049 234.270564 
L 549.710105 234.280857 
L 551.801161 234.310859 
L 553.892217 234.581572 
L 555.983273 234.670909 
" style="fill:none;stroke:#000000;stroke-linecap:square;stroke-width:1.5;"/>
    <defs>
     <path d="M 0 3 
C 0.795609 3 1.55874 2.683901 2.12132 2.12132 
C 2.683901 1.55874 3 0.795609 3 0 
C 3 -0.795609 2.683901 -1.55874 2.12132 -2.12132 
C 1.55874 -2.683901 0.795609 -3 0 -3 
C -0.795609 -3 -1.55874 -2.683901 -2.12132 -2.12132 
C -2.683901 -1.55874 -3 -0.795609 -3 0 
C -3 0.795609 -2.683901 1.55874 -2.12132 2.12132 
C -1.55874 2.683901 -0.795609 3 0 3 
z
" id="m719a8cbe87" style="stroke:#000000;"/>
    </defs>
    <g clip-path="url(#p8480cfece7)">
     <use style="stroke:#000000;" x="348.968727" xlink:href="#m719a8cbe87" y="36.089091"/>
     <use style="stroke:#000000;" x="351.059783" xlink:href="#m719a8cbe87" y="177.377485"/>
     <use style="stroke:#000000;" x="353.150839" xlink:href="#m719a8cbe87" y="199.326129"/>
     <use style="stroke:#000000;" x="355.241895" xlink:href="#m719a8cbe87" y="199.706235"/>
     <use style="stroke:#000000;" x="357.332951" xlink:href="#m719a8cbe87" y="200.538815"/>
     <use style="stroke:#000000;" x="359.424007" xlink:href="#m719a8cbe87" y="200.853571"/>
     <use style="stroke:#000000;" x="361.515063" xlink:href="#m719a8cbe87" y="201.026674"/>
     <use style="stroke:#000000;" x="363.606119" xlink:href="#m719a8cbe87" y="203.254663"/>
     <use style="stroke:#000000;" x="365.697175" xlink:href="#m719a8cbe87" y="204.389686"/>
     <use style="stroke:#000000;" x="367.788231" xlink:href="#m719a8cbe87" y="206.127092"/>
     <use style="stroke:#000000;" x="369.879287" xlink:href="#m719a8cbe87" y="207.97013"/>
     <use style="stroke:#000000;" x="371.970343" xlink:href="#m719a8cbe87" y="209.585134"/>
     <use style="stroke:#000000;" x="374.061399" xlink:href="#m719a8cbe87" y="212.273559"/>
     <use style="stroke:#000000;" x="376.152455" xlink:href="#m719a8cbe87" y="216.701858"/>
     <use style="stroke:#000000;" x="378.243511" xlink:href="#m719a8cbe87" y="217.082792"/>
     <use style="stroke:#000000;" x="380.334567" xlink:href="#m719a8cbe87" y="217.2944"/>
     <use style="stroke:#000000;" x="382.425624" xlink:href="#m719a8cbe87" y="217.531895"/>
     <use style="stroke:#000000;" x="384.51668" xlink:href="#m719a8cbe87" y="217.824448"/>
     <use style="stroke:#000000;" x="386.607736" xlink:href="#m719a8cbe87" y="217.983833"/>
     <use style="stroke:#000000;" x="388.698792" xlink:href="#m719a8cbe87" y="218.021013"/>
     <use style="stroke:#000000;" x="390.789848" xlink:href="#m719a8cbe87" y="218.206992"/>
     <use style="stroke:#000000;" x="392.880904" xlink:href="#m719a8cbe87" y="218.375667"/>
     <use style="stroke:#000000;" x="394.97196" xlink:href="#m719a8cbe87" y="218.4984"/>
     <use style="stroke:#000000;" x="397.063016" xlink:href="#m719a8cbe87" y="218.510771"/>
     <use style="stroke:#000000;" x="399.154072" xlink:href="#m719a8cbe87" y="218.593848"/>
     <use style="stroke:#000000;" x="401.245128" xlink:href="#m719a8cbe87" y="218.945621"/>
     <use style="stroke:#000000;" x="403.336184" xlink:href="#m719a8cbe87" y="219.127939"/>
     <use style="stroke:#000000;" x="405.42724" xlink:href="#m719a8cbe87" y="219.193976"/>
     <use style="stroke:#000000;" x="407.518296" xlink:href="#m719a8cbe87" y="219.62809"/>
     <use style="stroke:#000000;" x="409.609352" xlink:href="#m719a8cbe87" y="219.784959"/>
     <use style="stroke:#000000;" x="411.700408" xlink:href="#m719a8cbe87" y="220.222464"/>
     <use style="stroke:#000000;" x="413.791464" xlink:href="#m719a8cbe87" y="220.353036"/>
     <use style="stroke:#000000;" x="415.88252" xlink:href="#m719a8cbe87" y="220.722781"/>
     <use style="stroke:#000000;" x="417.973576" xlink:href="#m719a8cbe87" y="220.778076"/>
     <use style="stroke:#000000;" x="420.064632" xlink:href="#m719a8cbe87" y="221.033711"/>
     <use style="stroke:#000000;" x="422.155688" xlink:href="#m719a8cbe87" y="221.806902"/>
     <use style="stroke:#000000;" x="424.246744" xlink:href="#m719a8cbe87" y="223.063205"/>
     <use style="stroke:#000000;" x="426.3378" xlink:href="#m719a8cbe87" y="224.255469"/>
     <use style="stroke:#000000;" x="428.428856" xlink:href="#m719a8cbe87" y="226.905107"/>
     <use style="stroke:#000000;" x="430.519912" xlink:href="#m719a8cbe87" y="228.272511"/>
     <use style="stroke:#000000;" x="432.610968" xlink:href="#m719a8cbe87" y="228.30533"/>
     <use style="stroke:#000000;" x="434.702024" xlink:href="#m719a8cbe87" y="228.362086"/>
     <use style="stroke:#000000;" x="436.79308" xlink:href="#m719a8cbe87" y="228.379611"/>
     <use style="stroke:#000000;" x="438.884136" xlink:href="#m719a8cbe87" y="228.443895"/>
     <use style="stroke:#000000;" x="440.975192" xlink:href="#m719a8cbe87" y="228.480166"/>
     <use style="stroke:#000000;" x="443.066248" xlink:href="#m719a8cbe87" y="228.565531"/>
     <use style="stroke:#000000;" x="445.157304" xlink:href="#m719a8cbe87" y="228.621693"/>
     <use style="stroke:#000000;" x="447.24836" xlink:href="#m719a8cbe87" y="228.660339"/>
     <use style="stroke:#000000;" x="449.339416" xlink:href="#m719a8cbe87" y="228.735886"/>
     <use style="stroke:#000000;" x="451.430472" xlink:href="#m719a8cbe87" y="228.804507"/>
     <use style="stroke:#000000;" x="453.521528" xlink:href="#m719a8cbe87" y="228.872734"/>
     <use style="stroke:#000000;" x="455.612584" xlink:href="#m719a8cbe87" y="228.915765"/>
     <use style="stroke:#000000;" x="457.70364" xlink:href="#m719a8cbe87" y="228.977829"/>
     <use style="stroke:#000000;" x="459.794696" xlink:href="#m719a8cbe87" y="229.03785"/>
     <use style="stroke:#000000;" x="461.885752" xlink:href="#m719a8cbe87" y="229.092702"/>
     <use style="stroke:#000000;" x="463.976808" xlink:href="#m719a8cbe87" y="229.100937"/>
     <use style="stroke:#000000;" x="466.067864" xlink:href="#m719a8cbe87" y="229.202166"/>
     <use style="stroke:#000000;" x="468.15892" xlink:href="#m719a8cbe87" y="229.353222"/>
     <use style="stroke:#000000;" x="470.249976" xlink:href="#m719a8cbe87" y="229.463411"/>
     <use style="stroke:#000000;" x="472.341032" xlink:href="#m719a8cbe87" y="229.52615"/>
     <use style="stroke:#000000;" x="474.432088" xlink:href="#m719a8cbe87" y="229.8658"/>
     <use style="stroke:#000000;" x="476.523144" xlink:href="#m719a8cbe87" y="230.464995"/>
     <use style="stroke:#000000;" x="478.6142" xlink:href="#m719a8cbe87" y="231.559288"/>
     <use style="stroke:#000000;" x="480.705256" xlink:href="#m719a8cbe87" y="231.888726"/>
     <use style="stroke:#000000;" x="482.796312" xlink:href="#m719a8cbe87" y="231.923998"/>
     <use style="stroke:#000000;" x="484.887368" xlink:href="#m719a8cbe87" y="231.976436"/>
     <use style="stroke:#000000;" x="486.978424" xlink:href="#m719a8cbe87" y="231.996489"/>
     <use style="stroke:#000000;" x="489.06948" xlink:href="#m719a8cbe87" y="232.022843"/>
     <use style="stroke:#000000;" x="491.160536" xlink:href="#m719a8cbe87" y="232.056613"/>
     <use style="stroke:#000000;" x="493.251592" xlink:href="#m719a8cbe87" y="232.099789"/>
     <use style="stroke:#000000;" x="495.342648" xlink:href="#m719a8cbe87" y="232.15119"/>
     <use style="stroke:#000000;" x="497.433704" xlink:href="#m719a8cbe87" y="232.167196"/>
     <use style="stroke:#000000;" x="499.52476" xlink:href="#m719a8cbe87" y="232.206243"/>
     <use style="stroke:#000000;" x="501.615816" xlink:href="#m719a8cbe87" y="232.219973"/>
     <use style="stroke:#000000;" x="503.706872" xlink:href="#m719a8cbe87" y="232.279368"/>
     <use style="stroke:#000000;" x="505.797928" xlink:href="#m719a8cbe87" y="232.311534"/>
     <use style="stroke:#000000;" x="507.888984" xlink:href="#m719a8cbe87" y="232.333258"/>
     <use style="stroke:#000000;" x="509.98004" xlink:href="#m719a8cbe87" y="232.352968"/>
     <use style="stroke:#000000;" x="512.071096" xlink:href="#m719a8cbe87" y="232.396579"/>
     <use style="stroke:#000000;" x="514.162152" xlink:href="#m719a8cbe87" y="232.443542"/>
     <use style="stroke:#000000;" x="516.253208" xlink:href="#m719a8cbe87" y="232.661485"/>
     <use style="stroke:#000000;" x="518.344264" xlink:href="#m719a8cbe87" y="233.190386"/>
     <use style="stroke:#000000;" x="520.43532" xlink:href="#m719a8cbe87" y="233.399016"/>
     <use style="stroke:#000000;" x="522.526376" xlink:href="#m719a8cbe87" y="233.494341"/>
     <use style="stroke:#000000;" x="524.617433" xlink:href="#m719a8cbe87" y="233.52727"/>
     <use style="stroke:#000000;" x="526.708489" xlink:href="#m719a8cbe87" y="233.546525"/>
     <use style="stroke:#000000;" x="528.799545" xlink:href="#m719a8cbe87" y="233.565773"/>
     <use style="stroke:#000000;" x="530.890601" xlink:href="#m719a8cbe87" y="233.588489"/>
     <use style="stroke:#000000;" x="532.981657" xlink:href="#m719a8cbe87" y="233.59553"/>
     <use style="stroke:#000000;" x="535.072713" xlink:href="#m719a8cbe87" y="233.632242"/>
     <use style="stroke:#000000;" x="537.163769" xlink:href="#m719a8cbe87" y="233.668491"/>
     <use style="stroke:#000000;" x="539.254825" xlink:href="#m719a8cbe87" y="234.052026"/>
     <use style="stroke:#000000;" x="541.345881" xlink:href="#m719a8cbe87" y="234.205547"/>
     <use style="stroke:#000000;" x="543.436937" xlink:href="#m719a8cbe87" y="234.231268"/>
     <use style="stroke:#000000;" x="545.527993" xlink:href="#m719a8cbe87" y="234.258755"/>
     <use style="stroke:#000000;" x="547.619049" xlink:href="#m719a8cbe87" y="234.270564"/>
     <use style="stroke:#000000;" x="549.710105" xlink:href="#m719a8cbe87" y="234.280857"/>
     <use style="stroke:#000000;" x="551.801161" xlink:href="#m719a8cbe87" y="234.310859"/>
     <use style="stroke:#000000;" x="553.892217" xlink:href="#m719a8cbe87" y="234.581572"/>
     <use style="stroke:#000000;" x="555.983273" xlink:href="#m719a8cbe87" y="234.670909"/>
    </g>
   </g>
   <g id="patch_6">
    <path d="M 338.618 244.6 
L 338.618 26.16 
" style="fill:none;stroke:#000000;stroke-linecap:square;stroke-linejoin:miter;stroke-width:0.8;"/>
   </g>
   <g id="patch_7">
    <path d="M 338.618 244.6 
L 566.334 244.6 
" style="fill:none;stroke:#000000;stroke-linecap:square;stroke-linejoin:miter;stroke-width:0.8;"/>
   </g>
  </g>
  <g id="axes_3">
   <g id="patch_8">
    <path d="M 622.964 244.6 
L 850.68 244.6 
L 850.68 26.16 
L 622.964 26.16 
z
" style="fill:#ffffff;"/>
   </g>
   <g id="matplotlib.axis_5">
    <g id="xtick_12">
     <g id="line2d_41">
      <g>
       <use style="stroke:#000000;stroke-width:0.8;" x="633.314727" xlink:href="#macdb762b83" y="244.6"/>
      </g>
     </g>
     <g id="text_37">
      <!-- 0 -->
      <g transform="translate(630.133477 259.198438)scale(0.1 -0.1)">
       <use xlink:href="#DejaVuSans-48"/>
      </g>
     </g>
    </g>
    <g id="xtick_13">
     <g id="line2d_42">
      <g>
       <use style="stroke:#000000;stroke-width:0.8;" x="675.135848" xlink:href="#macdb762b83" y="244.6"/>
      </g>
     </g>
     <g id="text_38">
      <!-- 20 -->
      <g transform="translate(668.773348 259.198438)scale(0.1 -0.1)">
       <use xlink:href="#DejaVuSans-50"/>
       <use x="63.623047" xlink:href="#DejaVuSans-48"/>
      </g>
     </g>
    </g>
    <g id="xtick_14">
     <g id="line2d_43">
      <g>
       <use style="stroke:#000000;stroke-width:0.8;" x="716.956968" xlink:href="#macdb762b83" y="244.6"/>
      </g>
     </g>
     <g id="text_39">
      <!-- 40 -->
      <g transform="translate(710.594468 259.198438)scale(0.1 -0.1)">
       <use xlink:href="#DejaVuSans-52"/>
       <use x="63.623047" xlink:href="#DejaVuSans-48"/>
      </g>
     </g>
    </g>
    <g id="xtick_15">
     <g id="line2d_44">
      <g>
       <use style="stroke:#000000;stroke-width:0.8;" x="758.778088" xlink:href="#macdb762b83" y="244.6"/>
      </g>
     </g>
     <g id="text_40">
      <!-- 60 -->
      <g transform="translate(752.415588 259.198438)scale(0.1 -0.1)">
       <use xlink:href="#DejaVuSans-54"/>
       <use x="63.623047" xlink:href="#DejaVuSans-48"/>
      </g>
     </g>
    </g>
    <g id="xtick_16">
     <g id="line2d_45">
      <g>
       <use style="stroke:#000000;stroke-width:0.8;" x="800.599208" xlink:href="#macdb762b83" y="244.6"/>
      </g>
     </g>
     <g id="text_41">
      <!-- 80 -->
      <g transform="translate(794.236708 259.198438)scale(0.1 -0.1)">
       <use xlink:href="#DejaVuSans-56"/>
       <use x="63.623047" xlink:href="#DejaVuSans-48"/>
      </g>
     </g>
    </g>
    <g id="xtick_17">
     <g id="line2d_46">
      <g>
       <use style="stroke:#000000;stroke-width:0.8;" x="842.420329" xlink:href="#macdb762b83" y="244.6"/>
      </g>
     </g>
     <g id="text_42">
      <!-- 100 -->
      <g transform="translate(832.876579 259.198438)scale(0.1 -0.1)">
       <use xlink:href="#DejaVuSans-49"/>
       <use x="63.623047" xlink:href="#DejaVuSans-48"/>
       <use x="127.246094" xlink:href="#DejaVuSans-48"/>
      </g>
     </g>
    </g>
    <g id="text_43">
     <!-- $\alpha$ -->
     <g transform="translate(733.522 272.876562)scale(0.1 -0.1)">
      <use transform="translate(0 0.84375)" xlink:href="#DejaVuSans-Oblique-945"/>
     </g>
    </g>
   </g>
   <g id="matplotlib.axis_6">
    <g id="ytick_17">
     <g id="line2d_47">
      <g>
       <use style="stroke:#000000;stroke-width:0.8;" x="622.964" xlink:href="#m4424f7774a" y="234.671119"/>
      </g>
     </g>
     <g id="text_44">
      <!-- 0.0 -->
      <g transform="translate(600.060875 238.470337)scale(0.1 -0.1)">
       <use xlink:href="#DejaVuSans-48"/>
       <use x="63.623047" xlink:href="#DejaVuSans-46"/>
       <use x="95.410156" xlink:href="#DejaVuSans-48"/>
      </g>
     </g>
    </g>
    <g id="ytick_18">
     <g id="line2d_48">
      <g>
       <use style="stroke:#000000;stroke-width:0.8;" x="622.964" xlink:href="#m4424f7774a" y="194.403194"/>
      </g>
     </g>
     <g id="text_45">
      <!-- 0.2 -->
      <g transform="translate(600.060875 198.202413)scale(0.1 -0.1)">
       <use xlink:href="#DejaVuSans-48"/>
       <use x="63.623047" xlink:href="#DejaVuSans-46"/>
       <use x="95.410156" xlink:href="#DejaVuSans-50"/>
      </g>
     </g>
    </g>
    <g id="ytick_19">
     <g id="line2d_49">
      <g>
       <use style="stroke:#000000;stroke-width:0.8;" x="622.964" xlink:href="#m4424f7774a" y="154.13527"/>
      </g>
     </g>
     <g id="text_46">
      <!-- 0.4 -->
      <g transform="translate(600.060875 157.934489)scale(0.1 -0.1)">
       <use xlink:href="#DejaVuSans-48"/>
       <use x="63.623047" xlink:href="#DejaVuSans-46"/>
       <use x="95.410156" xlink:href="#DejaVuSans-52"/>
      </g>
     </g>
    </g>
    <g id="ytick_20">
     <g id="line2d_50">
      <g>
       <use style="stroke:#000000;stroke-width:0.8;" x="622.964" xlink:href="#m4424f7774a" y="113.867346"/>
      </g>
     </g>
     <g id="text_47">
      <!-- 0.6 -->
      <g transform="translate(600.060875 117.666565)scale(0.1 -0.1)">
       <use xlink:href="#DejaVuSans-48"/>
       <use x="63.623047" xlink:href="#DejaVuSans-46"/>
       <use x="95.410156" xlink:href="#DejaVuSans-54"/>
      </g>
     </g>
    </g>
    <g id="ytick_21">
     <g id="line2d_51">
      <g>
       <use style="stroke:#000000;stroke-width:0.8;" x="622.964" xlink:href="#m4424f7774a" y="73.599422"/>
      </g>
     </g>
     <g id="text_48">
      <!-- 0.8 -->
      <g transform="translate(600.060875 77.398641)scale(0.1 -0.1)">
       <use xlink:href="#DejaVuSans-48"/>
       <use x="63.623047" xlink:href="#DejaVuSans-46"/>
       <use x="95.410156" xlink:href="#DejaVuSans-56"/>
      </g>
     </g>
    </g>
    <g id="ytick_22">
     <g id="line2d_52">
      <g>
       <use style="stroke:#000000;stroke-width:0.8;" x="622.964" xlink:href="#m4424f7774a" y="33.331498"/>
      </g>
     </g>
     <g id="text_49">
      <!-- 1.0 -->
      <g transform="translate(600.060875 37.130717)scale(0.1 -0.1)">
       <use xlink:href="#DejaVuSans-49"/>
       <use x="63.623047" xlink:href="#DejaVuSans-46"/>
       <use x="95.410156" xlink:href="#DejaVuSans-48"/>
      </g>
     </g>
    </g>
    <g id="text_50">
     <!-- $cos(\Delta \mathbf{\mu}, \mathbf{e}_{\alpha})$ -->
     <defs>
      <path d="M 53.609375 52.59375 
L 51.8125 43.703125 
Q 48.578125 46.046875 44.9375 47.21875 
Q 41.3125 48.390625 37.40625 48.390625 
Q 33.109375 48.390625 29.21875 46.875 
Q 25.34375 45.359375 22.703125 42.578125 
Q 18.5 38.328125 16.203125 32.609375 
Q 13.921875 26.90625 13.921875 20.796875 
Q 13.921875 13.421875 17.609375 9.8125 
Q 21.296875 6.203125 28.8125 6.203125 
Q 32.515625 6.203125 36.6875 7.328125 
Q 40.875 8.453125 45.40625 10.6875 
L 43.703125 1.8125 
Q 39.796875 0.203125 35.671875 -0.609375 
Q 31.546875 -1.421875 27.203125 -1.421875 
Q 16.3125 -1.421875 10.453125 4.015625 
Q 4.59375 9.46875 4.59375 19.578125 
Q 4.59375 28.078125 7.640625 35.234375 
Q 10.6875 42.390625 16.703125 48.09375 
Q 20.796875 52 26.3125 54 
Q 31.84375 56 38.375 56 
Q 42.1875 56 45.9375 55.140625 
Q 49.703125 54.296875 53.609375 52.59375 
z
" id="DejaVuSans-Oblique-99"/>
      <path d="M 25.390625 -1.421875 
Q 15.765625 -1.421875 10.171875 4.515625 
Q 4.59375 10.453125 4.59375 20.703125 
Q 4.59375 26.65625 6.515625 32.828125 
Q 8.453125 39.015625 11.53125 43.21875 
Q 16.359375 49.75 22.3125 52.875 
Q 28.265625 56 35.796875 56 
Q 45.125 56 50.859375 50.1875 
Q 56.59375 44.390625 56.59375 35.015625 
Q 56.59375 28.515625 54.6875 22.0625 
Q 52.78125 15.625 49.703125 11.375 
Q 44.921875 4.828125 38.96875 1.703125 
Q 33.015625 -1.421875 25.390625 -1.421875 
z
M 13.921875 21 
Q 13.921875 13.578125 17.015625 9.890625 
Q 20.125 6.203125 26.421875 6.203125 
Q 35.453125 6.203125 41.375 14.078125 
Q 47.3125 21.96875 47.3125 34.078125 
Q 47.3125 41.15625 44.140625 44.765625 
Q 40.96875 48.390625 34.8125 48.390625 
Q 29.734375 48.390625 25.78125 46.015625 
Q 21.828125 43.65625 18.703125 38.8125 
Q 16.40625 35.203125 15.15625 30.5625 
Q 13.921875 25.921875 13.921875 21 
z
" id="DejaVuSans-Oblique-111"/>
      <path d="M 50 53.078125 
L 48.296875 44.578125 
Q 44.734375 46.53125 40.765625 47.5 
Q 36.8125 48.484375 32.625 48.484375 
Q 25.53125 48.484375 21.453125 46.0625 
Q 17.390625 43.65625 17.390625 39.5 
Q 17.390625 34.671875 26.859375 32.078125 
Q 27.59375 31.890625 27.9375 31.78125 
L 30.8125 30.90625 
Q 39.796875 28.421875 42.796875 25.6875 
Q 45.796875 22.953125 45.796875 18.21875 
Q 45.796875 9.515625 38.890625 4.046875 
Q 31.984375 -1.421875 20.796875 -1.421875 
Q 16.453125 -1.421875 11.671875 -0.578125 
Q 6.890625 0.25 1.125 2 
L 2.875 11.28125 
Q 7.8125 8.734375 12.59375 7.421875 
Q 17.390625 6.109375 21.78125 6.109375 
Q 28.375 6.109375 32.5 8.9375 
Q 36.625 11.765625 36.625 16.109375 
Q 36.625 20.796875 25.78125 23.6875 
L 24.859375 23.921875 
L 21.78125 24.703125 
Q 14.9375 26.515625 11.765625 29.46875 
Q 8.59375 32.421875 8.59375 37.015625 
Q 8.59375 45.75 15.15625 50.875 
Q 21.734375 56 33.015625 56 
Q 37.453125 56 41.671875 55.265625 
Q 45.90625 54.546875 50 53.078125 
z
" id="DejaVuSans-Oblique-115"/>
      <path d="M 31 75.875 
Q 24.46875 64.65625 21.28125 53.65625 
Q 18.109375 42.671875 18.109375 31.390625 
Q 18.109375 20.125 21.3125 9.0625 
Q 24.515625 -2 31 -13.1875 
L 23.1875 -13.1875 
Q 15.875 -1.703125 12.234375 9.375 
Q 8.59375 20.453125 8.59375 31.390625 
Q 8.59375 42.28125 12.203125 53.3125 
Q 15.828125 64.359375 23.1875 75.875 
z
" id="DejaVuSans-40"/>
      <path d="M 34.1875 63.1875 
L 14.15625 8.203125 
L 54.25 8.203125 
z
M 0.78125 0 
L 28.609375 72.90625 
L 39.796875 72.90625 
L 67.578125 0 
z
" id="DejaVuSans-916"/>
      <path d="M 8.5 -20.90625 
L 8.5 54.6875 
L 26.125 54.6875 
L 26.125 22.90625 
Q 26.125 17.234375 28.5625 14.46875 
Q 31 11.71875 35.984375 11.71875 
Q 41.015625 11.71875 43.453125 14.46875 
Q 45.90625 17.234375 45.90625 22.90625 
L 45.90625 54.6875 
L 63.484375 54.6875 
L 63.484375 18.109375 
Q 63.484375 14.65625 64.28125 13.28125 
Q 65.09375 11.921875 67 11.921875 
Q 67.875 11.921875 68.671875 12.15625 
Q 69.484375 12.40625 70.40625 12.984375 
L 70.40625 0.78125 
Q 67.828125 -0.34375 65.546875 -0.875 
Q 63.28125 -1.421875 61.078125 -1.421875 
Q 56.734375 -1.421875 53.96875 0.40625 
Q 51.21875 2.25 49.515625 6.296875 
Q 47.21875 2.4375 43.921875 0.5 
Q 40.625 -1.421875 36.28125 -1.421875 
Q 32.671875 -1.421875 30.125 -0.265625 
Q 27.59375 0.875 26.125 3.21875 
L 26.125 -20.90625 
z
" id="DejaVuSans-Bold-956"/>
      <path d="M 62.984375 27.484375 
L 62.984375 22.515625 
L 22.125 22.515625 
Q 22.75 16.359375 26.5625 13.28125 
Q 30.375 10.203125 37.203125 10.203125 
Q 42.71875 10.203125 48.5 11.84375 
Q 54.296875 13.484375 60.40625 16.796875 
L 60.40625 3.328125 
Q 54.203125 0.984375 48 -0.21875 
Q 41.796875 -1.421875 35.59375 -1.421875 
Q 20.75 -1.421875 12.515625 6.125 
Q 4.296875 13.671875 4.296875 27.296875 
Q 4.296875 40.671875 12.375 48.328125 
Q 20.453125 56 34.625 56 
Q 47.515625 56 55.25 48.234375 
Q 62.984375 40.484375 62.984375 27.484375 
z
M 45.015625 33.296875 
Q 45.015625 38.28125 42.109375 41.328125 
Q 39.203125 44.390625 34.515625 44.390625 
Q 29.4375 44.390625 26.265625 41.53125 
Q 23.09375 38.671875 22.3125 33.296875 
z
" id="DejaVuSans-Bold-101"/>
      <path d="M 8.015625 75.875 
L 15.828125 75.875 
Q 23.140625 64.359375 26.78125 53.3125 
Q 30.421875 42.28125 30.421875 31.390625 
Q 30.421875 20.453125 26.78125 9.375 
Q 23.140625 -1.703125 15.828125 -13.1875 
L 8.015625 -13.1875 
Q 14.5 -2 17.703125 9.0625 
Q 20.90625 20.125 20.90625 31.390625 
Q 20.90625 42.671875 17.703125 53.65625 
Q 14.5 64.65625 8.015625 75.875 
z
" id="DejaVuSans-41"/>
     </defs>
     <g transform="translate(593.960875 163.28)rotate(-90)scale(0.1 -0.1)">
      <use transform="translate(0 0.125)" xlink:href="#DejaVuSans-Oblique-99"/>
      <use transform="translate(54.980469 0.125)" xlink:href="#DejaVuSans-Oblique-111"/>
      <use transform="translate(116.162109 0.125)" xlink:href="#DejaVuSans-Oblique-115"/>
      <use transform="translate(168.261719 0.125)" xlink:href="#DejaVuSans-40"/>
      <use transform="translate(207.275391 0.125)" xlink:href="#DejaVuSans-916"/>
      <use transform="translate(275.683594 0.125)" xlink:href="#DejaVuSans-Bold-956"/>
      <use transform="translate(349.267578 0.125)" xlink:href="#DejaVuSans-44"/>
      <use transform="translate(400.537109 0.125)" xlink:href="#DejaVuSans-Bold-101"/>
      <use transform="translate(469.316406 -16.28125)scale(0.7)" xlink:href="#DejaVuSans-Oblique-945"/>
      <use transform="translate(518.193359 0.125)" xlink:href="#DejaVuSans-41"/>
     </g>
    </g>
   </g>
   <g id="line2d_53">
    <path clip-path="url(#p72d6d350e9)" d="M 633.314727 214.507492 
L 635.405783 36.089091 
L 637.496839 229.330764 
L 639.587895 231.93371 
L 641.678951 234.649199 
L 643.770007 229.664036 
L 645.861063 230.038681 
L 647.952119 232.11244 
L 650.043175 231.389806 
L 652.134231 231.304531 
L 654.225287 231.895302 
L 656.316343 232.542111 
L 658.407399 233.434599 
L 660.498455 234.53646 
L 662.589511 233.922526 
L 664.680567 234.387411 
L 666.771624 231.566791 
L 668.86268 233.190435 
L 670.953736 234.505345 
L 673.044792 234.529377 
L 675.135848 233.897782 
L 677.226904 233.208104 
L 679.31796 232.083899 
L 681.409016 231.453747 
L 683.500072 234.084306 
L 685.591128 234.243952 
L 687.682184 232.470813 
L 689.77324 232.750323 
L 691.864296 232.437186 
L 693.955352 232.333246 
L 696.046408 229.231693 
L 698.137464 227.440283 
L 700.22852 234.283688 
L 702.319576 229.537021 
L 704.410632 227.594867 
L 706.501688 221.746053 
L 708.592744 226.968447 
L 710.6838 233.288673 
L 712.774856 233.42047 
L 714.865912 233.039661 
L 716.956968 233.677173 
L 719.048024 233.166026 
L 721.13908 234.513974 
L 723.230136 234.120633 
L 725.321192 233.230123 
L 727.412248 234.211249 
L 729.503304 232.796389 
L 731.59436 233.880716 
L 733.685416 232.70079 
L 735.776472 233.569434 
L 737.867528 234.063817 
L 739.958584 234.626787 
L 742.04964 233.31051 
L 744.140696 234.359412 
L 746.231752 234.409719 
L 748.322808 234.59172 
L 750.413864 232.967444 
L 752.50492 232.994341 
L 754.595976 233.623757 
L 756.687032 233.080326 
L 758.778088 232.417634 
L 760.869144 227.04894 
L 762.9602 234.013885 
L 765.051256 234.164785 
L 767.142312 234.181414 
L 769.233368 234.599543 
L 771.324424 234.604387 
L 773.41548 233.398929 
L 775.506536 234.571648 
L 777.597592 233.974102 
L 779.688648 234.124374 
L 781.779704 233.523017 
L 783.87076 234.464082 
L 785.961816 234.587354 
L 788.052872 234.023421 
L 790.143928 234.047858 
L 792.234984 234.276236 
L 794.32604 234.295775 
L 796.417096 234.442854 
L 798.508152 234.172749 
L 800.599208 232.777328 
L 802.690264 230.420139 
L 804.78132 233.625618 
L 806.872376 234.670909 
L 808.963433 234.58603 
L 811.054489 234.389077 
L 813.145545 234.452427 
L 815.236601 234.652268 
L 817.327657 234.254128 
L 819.418713 234.185365 
L 821.509769 234.506764 
L 823.600825 232.062458 
L 825.691881 234.076412 
L 827.782937 234.28269 
L 829.873993 234.460247 
L 831.965049 234.474644 
L 834.056105 234.462403 
L 836.147161 234.508867 
L 838.238217 233.618016 
L 840.329273 234.0045 
" style="fill:none;stroke:#000000;stroke-linecap:square;stroke-width:1.5;"/>
    <g clip-path="url(#p72d6d350e9)">
     <use style="stroke:#000000;" x="633.314727" xlink:href="#m719a8cbe87" y="214.507492"/>
     <use style="stroke:#000000;" x="635.405783" xlink:href="#m719a8cbe87" y="36.089091"/>
     <use style="stroke:#000000;" x="637.496839" xlink:href="#m719a8cbe87" y="229.330764"/>
     <use style="stroke:#000000;" x="639.587895" xlink:href="#m719a8cbe87" y="231.93371"/>
     <use style="stroke:#000000;" x="641.678951" xlink:href="#m719a8cbe87" y="234.649199"/>
     <use style="stroke:#000000;" x="643.770007" xlink:href="#m719a8cbe87" y="229.664036"/>
     <use style="stroke:#000000;" x="645.861063" xlink:href="#m719a8cbe87" y="230.038681"/>
     <use style="stroke:#000000;" x="647.952119" xlink:href="#m719a8cbe87" y="232.11244"/>
     <use style="stroke:#000000;" x="650.043175" xlink:href="#m719a8cbe87" y="231.389806"/>
     <use style="stroke:#000000;" x="652.134231" xlink:href="#m719a8cbe87" y="231.304531"/>
     <use style="stroke:#000000;" x="654.225287" xlink:href="#m719a8cbe87" y="231.895302"/>
     <use style="stroke:#000000;" x="656.316343" xlink:href="#m719a8cbe87" y="232.542111"/>
     <use style="stroke:#000000;" x="658.407399" xlink:href="#m719a8cbe87" y="233.434599"/>
     <use style="stroke:#000000;" x="660.498455" xlink:href="#m719a8cbe87" y="234.53646"/>
     <use style="stroke:#000000;" x="662.589511" xlink:href="#m719a8cbe87" y="233.922526"/>
     <use style="stroke:#000000;" x="664.680567" xlink:href="#m719a8cbe87" y="234.387411"/>
     <use style="stroke:#000000;" x="666.771624" xlink:href="#m719a8cbe87" y="231.566791"/>
     <use style="stroke:#000000;" x="668.86268" xlink:href="#m719a8cbe87" y="233.190435"/>
     <use style="stroke:#000000;" x="670.953736" xlink:href="#m719a8cbe87" y="234.505345"/>
     <use style="stroke:#000000;" x="673.044792" xlink:href="#m719a8cbe87" y="234.529377"/>
     <use style="stroke:#000000;" x="675.135848" xlink:href="#m719a8cbe87" y="233.897782"/>
     <use style="stroke:#000000;" x="677.226904" xlink:href="#m719a8cbe87" y="233.208104"/>
     <use style="stroke:#000000;" x="679.31796" xlink:href="#m719a8cbe87" y="232.083899"/>
     <use style="stroke:#000000;" x="681.409016" xlink:href="#m719a8cbe87" y="231.453747"/>
     <use style="stroke:#000000;" x="683.500072" xlink:href="#m719a8cbe87" y="234.084306"/>
     <use style="stroke:#000000;" x="685.591128" xlink:href="#m719a8cbe87" y="234.243952"/>
     <use style="stroke:#000000;" x="687.682184" xlink:href="#m719a8cbe87" y="232.470813"/>
     <use style="stroke:#000000;" x="689.77324" xlink:href="#m719a8cbe87" y="232.750323"/>
     <use style="stroke:#000000;" x="691.864296" xlink:href="#m719a8cbe87" y="232.437186"/>
     <use style="stroke:#000000;" x="693.955352" xlink:href="#m719a8cbe87" y="232.333246"/>
     <use style="stroke:#000000;" x="696.046408" xlink:href="#m719a8cbe87" y="229.231693"/>
     <use style="stroke:#000000;" x="698.137464" xlink:href="#m719a8cbe87" y="227.440283"/>
     <use style="stroke:#000000;" x="700.22852" xlink:href="#m719a8cbe87" y="234.283688"/>
     <use style="stroke:#000000;" x="702.319576" xlink:href="#m719a8cbe87" y="229.537021"/>
     <use style="stroke:#000000;" x="704.410632" xlink:href="#m719a8cbe87" y="227.594867"/>
     <use style="stroke:#000000;" x="706.501688" xlink:href="#m719a8cbe87" y="221.746053"/>
     <use style="stroke:#000000;" x="708.592744" xlink:href="#m719a8cbe87" y="226.968447"/>
     <use style="stroke:#000000;" x="710.6838" xlink:href="#m719a8cbe87" y="233.288673"/>
     <use style="stroke:#000000;" x="712.774856" xlink:href="#m719a8cbe87" y="233.42047"/>
     <use style="stroke:#000000;" x="714.865912" xlink:href="#m719a8cbe87" y="233.039661"/>
     <use style="stroke:#000000;" x="716.956968" xlink:href="#m719a8cbe87" y="233.677173"/>
     <use style="stroke:#000000;" x="719.048024" xlink:href="#m719a8cbe87" y="233.166026"/>
     <use style="stroke:#000000;" x="721.13908" xlink:href="#m719a8cbe87" y="234.513974"/>
     <use style="stroke:#000000;" x="723.230136" xlink:href="#m719a8cbe87" y="234.120633"/>
     <use style="stroke:#000000;" x="725.321192" xlink:href="#m719a8cbe87" y="233.230123"/>
     <use style="stroke:#000000;" x="727.412248" xlink:href="#m719a8cbe87" y="234.211249"/>
     <use style="stroke:#000000;" x="729.503304" xlink:href="#m719a8cbe87" y="232.796389"/>
     <use style="stroke:#000000;" x="731.59436" xlink:href="#m719a8cbe87" y="233.880716"/>
     <use style="stroke:#000000;" x="733.685416" xlink:href="#m719a8cbe87" y="232.70079"/>
     <use style="stroke:#000000;" x="735.776472" xlink:href="#m719a8cbe87" y="233.569434"/>
     <use style="stroke:#000000;" x="737.867528" xlink:href="#m719a8cbe87" y="234.063817"/>
     <use style="stroke:#000000;" x="739.958584" xlink:href="#m719a8cbe87" y="234.626787"/>
     <use style="stroke:#000000;" x="742.04964" xlink:href="#m719a8cbe87" y="233.31051"/>
     <use style="stroke:#000000;" x="744.140696" xlink:href="#m719a8cbe87" y="234.359412"/>
     <use style="stroke:#000000;" x="746.231752" xlink:href="#m719a8cbe87" y="234.409719"/>
     <use style="stroke:#000000;" x="748.322808" xlink:href="#m719a8cbe87" y="234.59172"/>
     <use style="stroke:#000000;" x="750.413864" xlink:href="#m719a8cbe87" y="232.967444"/>
     <use style="stroke:#000000;" x="752.50492" xlink:href="#m719a8cbe87" y="232.994341"/>
     <use style="stroke:#000000;" x="754.595976" xlink:href="#m719a8cbe87" y="233.623757"/>
     <use style="stroke:#000000;" x="756.687032" xlink:href="#m719a8cbe87" y="233.080326"/>
     <use style="stroke:#000000;" x="758.778088" xlink:href="#m719a8cbe87" y="232.417634"/>
     <use style="stroke:#000000;" x="760.869144" xlink:href="#m719a8cbe87" y="227.04894"/>
     <use style="stroke:#000000;" x="762.9602" xlink:href="#m719a8cbe87" y="234.013885"/>
     <use style="stroke:#000000;" x="765.051256" xlink:href="#m719a8cbe87" y="234.164785"/>
     <use style="stroke:#000000;" x="767.142312" xlink:href="#m719a8cbe87" y="234.181414"/>
     <use style="stroke:#000000;" x="769.233368" xlink:href="#m719a8cbe87" y="234.599543"/>
     <use style="stroke:#000000;" x="771.324424" xlink:href="#m719a8cbe87" y="234.604387"/>
     <use style="stroke:#000000;" x="773.41548" xlink:href="#m719a8cbe87" y="233.398929"/>
     <use style="stroke:#000000;" x="775.506536" xlink:href="#m719a8cbe87" y="234.571648"/>
     <use style="stroke:#000000;" x="777.597592" xlink:href="#m719a8cbe87" y="233.974102"/>
     <use style="stroke:#000000;" x="779.688648" xlink:href="#m719a8cbe87" y="234.124374"/>
     <use style="stroke:#000000;" x="781.779704" xlink:href="#m719a8cbe87" y="233.523017"/>
     <use style="stroke:#000000;" x="783.87076" xlink:href="#m719a8cbe87" y="234.464082"/>
     <use style="stroke:#000000;" x="785.961816" xlink:href="#m719a8cbe87" y="234.587354"/>
     <use style="stroke:#000000;" x="788.052872" xlink:href="#m719a8cbe87" y="234.023421"/>
     <use style="stroke:#000000;" x="790.143928" xlink:href="#m719a8cbe87" y="234.047858"/>
     <use style="stroke:#000000;" x="792.234984" xlink:href="#m719a8cbe87" y="234.276236"/>
     <use style="stroke:#000000;" x="794.32604" xlink:href="#m719a8cbe87" y="234.295775"/>
     <use style="stroke:#000000;" x="796.417096" xlink:href="#m719a8cbe87" y="234.442854"/>
     <use style="stroke:#000000;" x="798.508152" xlink:href="#m719a8cbe87" y="234.172749"/>
     <use style="stroke:#000000;" x="800.599208" xlink:href="#m719a8cbe87" y="232.777328"/>
     <use style="stroke:#000000;" x="802.690264" xlink:href="#m719a8cbe87" y="230.420139"/>
     <use style="stroke:#000000;" x="804.78132" xlink:href="#m719a8cbe87" y="233.625618"/>
     <use style="stroke:#000000;" x="806.872376" xlink:href="#m719a8cbe87" y="234.670909"/>
     <use style="stroke:#000000;" x="808.963433" xlink:href="#m719a8cbe87" y="234.58603"/>
     <use style="stroke:#000000;" x="811.054489" xlink:href="#m719a8cbe87" y="234.389077"/>
     <use style="stroke:#000000;" x="813.145545" xlink:href="#m719a8cbe87" y="234.452427"/>
     <use style="stroke:#000000;" x="815.236601" xlink:href="#m719a8cbe87" y="234.652268"/>
     <use style="stroke:#000000;" x="817.327657" xlink:href="#m719a8cbe87" y="234.254128"/>
     <use style="stroke:#000000;" x="819.418713" xlink:href="#m719a8cbe87" y="234.185365"/>
     <use style="stroke:#000000;" x="821.509769" xlink:href="#m719a8cbe87" y="234.506764"/>
     <use style="stroke:#000000;" x="823.600825" xlink:href="#m719a8cbe87" y="232.062458"/>
     <use style="stroke:#000000;" x="825.691881" xlink:href="#m719a8cbe87" y="234.076412"/>
     <use style="stroke:#000000;" x="827.782937" xlink:href="#m719a8cbe87" y="234.28269"/>
     <use style="stroke:#000000;" x="829.873993" xlink:href="#m719a8cbe87" y="234.460247"/>
     <use style="stroke:#000000;" x="831.965049" xlink:href="#m719a8cbe87" y="234.474644"/>
     <use style="stroke:#000000;" x="834.056105" xlink:href="#m719a8cbe87" y="234.462403"/>
     <use style="stroke:#000000;" x="836.147161" xlink:href="#m719a8cbe87" y="234.508867"/>
     <use style="stroke:#000000;" x="838.238217" xlink:href="#m719a8cbe87" y="233.618016"/>
     <use style="stroke:#000000;" x="840.329273" xlink:href="#m719a8cbe87" y="234.0045"/>
    </g>
   </g>
   <g id="patch_9">
    <path d="M 622.964 244.6 
L 622.964 26.16 
" style="fill:none;stroke:#000000;stroke-linecap:square;stroke-linejoin:miter;stroke-width:0.8;"/>
   </g>
   <g id="patch_10">
    <path d="M 622.964 244.6 
L 850.68 244.6 
" style="fill:none;stroke:#000000;stroke-linecap:square;stroke-linejoin:miter;stroke-width:0.8;"/>
   </g>
  </g>
 </g>
 <defs>
  <clipPath id="pb5cbf01b59">
   <rect height="218.44" width="227.716" x="54.272" y="26.16"/>
  </clipPath>
  <clipPath id="p8480cfece7">
   <rect height="218.44" width="227.716" x="338.618" y="26.16"/>
  </clipPath>
  <clipPath id="p72d6d350e9">
   <rect height="218.44" width="227.716" x="622.964" y="26.16"/>
  </clipPath>
 </defs>
</svg>
