<?xml version="1.0" encoding="utf-8" standalone="no"?>
<!DOCTYPE svg PUBLIC "-//W3C//DTD SVG 1.1//EN"
  "http://www.w3.org/Graphics/SVG/1.1/DTD/svg11.dtd">
<!-- Created with matplotlib (https://matplotlib.org/) -->
<svg height="345.6pt" version="1.1" viewBox="0 0 460.8 345.6" width="460.8pt" xmlns="http://www.w3.org/2000/svg" xmlns:xlink="http://www.w3.org/1999/xlink">
 <defs>
  <style type="text/css">
*{stroke-linecap:butt;stroke-linejoin:round;}
  </style>
 </defs>
 <g id="figure_1">
  <g id="patch_1">
   <path d="M 0 345.6 
L 460.8 345.6 
L 460.8 0 
L 0 0 
z
" style="fill:#ffffff;"/>
  </g>
  <g id="axes_1">
   <g id="patch_2">
    <path d="M 57.6 307.584 
L 414.72 307.584 
L 414.72 41.472 
L 57.6 41.472 
z
" style="fill:#ffffff;"/>
   </g>
   <g id="matplotlib.axis_1">
    <g id="xtick_1">
     <g id="line2d_1">
      <defs>
       <path d="M 0 0 
L 0 3.5 
" id="m5284e4a4c7" style="stroke:#000000;stroke-width:0.8;"/>
      </defs>
      <g>
       <use style="stroke:#000000;stroke-width:0.8;" x="73.832727" xlink:href="#m5284e4a4c7" y="307.584"/>
      </g>
     </g>
     <g id="text_1">
      <!-- 0 -->
      <defs>
       <path d="M 31.78125 66.40625 
Q 24.171875 66.40625 20.328125 58.90625 
Q 16.5 51.421875 16.5 36.375 
Q 16.5 21.390625 20.328125 13.890625 
Q 24.171875 6.390625 31.78125 6.390625 
Q 39.453125 6.390625 43.28125 13.890625 
Q 47.125 21.390625 47.125 36.375 
Q 47.125 51.421875 43.28125 58.90625 
Q 39.453125 66.40625 31.78125 66.40625 
z
M 31.78125 74.21875 
Q 44.046875 74.21875 50.515625 64.515625 
Q 56.984375 54.828125 56.984375 36.375 
Q 56.984375 17.96875 50.515625 8.265625 
Q 44.046875 -1.421875 31.78125 -1.421875 
Q 19.53125 -1.421875 13.0625 8.265625 
Q 6.59375 17.96875 6.59375 36.375 
Q 6.59375 54.828125 13.0625 64.515625 
Q 19.53125 74.21875 31.78125 74.21875 
z
" id="DejaVuSans-48"/>
      </defs>
      <g transform="translate(71.287727 320.66275)scale(0.08 -0.08)">
       <use xlink:href="#DejaVuSans-48"/>
      </g>
     </g>
    </g>
    <g id="xtick_2">
     <g id="line2d_2">
      <g>
       <use style="stroke:#000000;stroke-width:0.8;" x="138.828632" xlink:href="#m5284e4a4c7" y="307.584"/>
      </g>
     </g>
     <g id="text_2">
      <!-- 200 -->
      <defs>
       <path d="M 19.1875 8.296875 
L 53.609375 8.296875 
L 53.609375 0 
L 7.328125 0 
L 7.328125 8.296875 
Q 12.9375 14.109375 22.625 23.890625 
Q 32.328125 33.6875 34.8125 36.53125 
Q 39.546875 41.84375 41.421875 45.53125 
Q 43.3125 49.21875 43.3125 52.78125 
Q 43.3125 58.59375 39.234375 62.25 
Q 35.15625 65.921875 28.609375 65.921875 
Q 23.96875 65.921875 18.8125 64.3125 
Q 13.671875 62.703125 7.8125 59.421875 
L 7.8125 69.390625 
Q 13.765625 71.78125 18.9375 73 
Q 24.125 74.21875 28.421875 74.21875 
Q 39.75 74.21875 46.484375 68.546875 
Q 53.21875 62.890625 53.21875 53.421875 
Q 53.21875 48.921875 51.53125 44.890625 
Q 49.859375 40.875 45.40625 35.40625 
Q 44.1875 33.984375 37.640625 27.21875 
Q 31.109375 20.453125 19.1875 8.296875 
z
" id="DejaVuSans-50"/>
      </defs>
      <g transform="translate(131.193632 320.66275)scale(0.08 -0.08)">
       <use xlink:href="#DejaVuSans-50"/>
       <use x="63.623047" xlink:href="#DejaVuSans-48"/>
       <use x="127.246094" xlink:href="#DejaVuSans-48"/>
      </g>
     </g>
    </g>
    <g id="xtick_3">
     <g id="line2d_3">
      <g>
       <use style="stroke:#000000;stroke-width:0.8;" x="203.824537" xlink:href="#m5284e4a4c7" y="307.584"/>
      </g>
     </g>
     <g id="text_3">
      <!-- 400 -->
      <defs>
       <path d="M 37.796875 64.3125 
L 12.890625 25.390625 
L 37.796875 25.390625 
z
M 35.203125 72.90625 
L 47.609375 72.90625 
L 47.609375 25.390625 
L 58.015625 25.390625 
L 58.015625 17.1875 
L 47.609375 17.1875 
L 47.609375 0 
L 37.796875 0 
L 37.796875 17.1875 
L 4.890625 17.1875 
L 4.890625 26.703125 
z
" id="DejaVuSans-52"/>
      </defs>
      <g transform="translate(196.189537 320.66275)scale(0.08 -0.08)">
       <use xlink:href="#DejaVuSans-52"/>
       <use x="63.623047" xlink:href="#DejaVuSans-48"/>
       <use x="127.246094" xlink:href="#DejaVuSans-48"/>
      </g>
     </g>
    </g>
    <g id="xtick_4">
     <g id="line2d_4">
      <g>
       <use style="stroke:#000000;stroke-width:0.8;" x="268.820442" xlink:href="#m5284e4a4c7" y="307.584"/>
      </g>
     </g>
     <g id="text_4">
      <!-- 600 -->
      <defs>
       <path d="M 33.015625 40.375 
Q 26.375 40.375 22.484375 35.828125 
Q 18.609375 31.296875 18.609375 23.390625 
Q 18.609375 15.53125 22.484375 10.953125 
Q 26.375 6.390625 33.015625 6.390625 
Q 39.65625 6.390625 43.53125 10.953125 
Q 47.40625 15.53125 47.40625 23.390625 
Q 47.40625 31.296875 43.53125 35.828125 
Q 39.65625 40.375 33.015625 40.375 
z
M 52.59375 71.296875 
L 52.59375 62.3125 
Q 48.875 64.0625 45.09375 64.984375 
Q 41.3125 65.921875 37.59375 65.921875 
Q 27.828125 65.921875 22.671875 59.328125 
Q 17.53125 52.734375 16.796875 39.40625 
Q 19.671875 43.65625 24.015625 45.921875 
Q 28.375 48.1875 33.59375 48.1875 
Q 44.578125 48.1875 50.953125 41.515625 
Q 57.328125 34.859375 57.328125 23.390625 
Q 57.328125 12.15625 50.6875 5.359375 
Q 44.046875 -1.421875 33.015625 -1.421875 
Q 20.359375 -1.421875 13.671875 8.265625 
Q 6.984375 17.96875 6.984375 36.375 
Q 6.984375 53.65625 15.1875 63.9375 
Q 23.390625 74.21875 37.203125 74.21875 
Q 40.921875 74.21875 44.703125 73.484375 
Q 48.484375 72.75 52.59375 71.296875 
z
" id="DejaVuSans-54"/>
      </defs>
      <g transform="translate(261.185442 320.66275)scale(0.08 -0.08)">
       <use xlink:href="#DejaVuSans-54"/>
       <use x="63.623047" xlink:href="#DejaVuSans-48"/>
       <use x="127.246094" xlink:href="#DejaVuSans-48"/>
      </g>
     </g>
    </g>
    <g id="xtick_5">
     <g id="line2d_5">
      <g>
       <use style="stroke:#000000;stroke-width:0.8;" x="333.816347" xlink:href="#m5284e4a4c7" y="307.584"/>
      </g>
     </g>
     <g id="text_5">
      <!-- 800 -->
      <defs>
       <path d="M 31.78125 34.625 
Q 24.75 34.625 20.71875 30.859375 
Q 16.703125 27.09375 16.703125 20.515625 
Q 16.703125 13.921875 20.71875 10.15625 
Q 24.75 6.390625 31.78125 6.390625 
Q 38.8125 6.390625 42.859375 10.171875 
Q 46.921875 13.96875 46.921875 20.515625 
Q 46.921875 27.09375 42.890625 30.859375 
Q 38.875 34.625 31.78125 34.625 
z
M 21.921875 38.8125 
Q 15.578125 40.375 12.03125 44.71875 
Q 8.5 49.078125 8.5 55.328125 
Q 8.5 64.0625 14.71875 69.140625 
Q 20.953125 74.21875 31.78125 74.21875 
Q 42.671875 74.21875 48.875 69.140625 
Q 55.078125 64.0625 55.078125 55.328125 
Q 55.078125 49.078125 51.53125 44.71875 
Q 48 40.375 41.703125 38.8125 
Q 48.828125 37.15625 52.796875 32.3125 
Q 56.78125 27.484375 56.78125 20.515625 
Q 56.78125 9.90625 50.3125 4.234375 
Q 43.84375 -1.421875 31.78125 -1.421875 
Q 19.734375 -1.421875 13.25 4.234375 
Q 6.78125 9.90625 6.78125 20.515625 
Q 6.78125 27.484375 10.78125 32.3125 
Q 14.796875 37.15625 21.921875 38.8125 
z
M 18.3125 54.390625 
Q 18.3125 48.734375 21.84375 45.5625 
Q 25.390625 42.390625 31.78125 42.390625 
Q 38.140625 42.390625 41.71875 45.5625 
Q 45.3125 48.734375 45.3125 54.390625 
Q 45.3125 60.0625 41.71875 63.234375 
Q 38.140625 66.40625 31.78125 66.40625 
Q 25.390625 66.40625 21.84375 63.234375 
Q 18.3125 60.0625 18.3125 54.390625 
z
" id="DejaVuSans-56"/>
      </defs>
      <g transform="translate(326.181347 320.66275)scale(0.08 -0.08)">
       <use xlink:href="#DejaVuSans-56"/>
       <use x="63.623047" xlink:href="#DejaVuSans-48"/>
       <use x="127.246094" xlink:href="#DejaVuSans-48"/>
      </g>
     </g>
    </g>
    <g id="xtick_6">
     <g id="line2d_6">
      <g>
       <use style="stroke:#000000;stroke-width:0.8;" x="398.812252" xlink:href="#m5284e4a4c7" y="307.584"/>
      </g>
     </g>
     <g id="text_6">
      <!-- 1000 -->
      <defs>
       <path d="M 12.40625 8.296875 
L 28.515625 8.296875 
L 28.515625 63.921875 
L 10.984375 60.40625 
L 10.984375 69.390625 
L 28.421875 72.90625 
L 38.28125 72.90625 
L 38.28125 8.296875 
L 54.390625 8.296875 
L 54.390625 0 
L 12.40625 0 
z
" id="DejaVuSans-49"/>
      </defs>
      <g transform="translate(388.632252 320.66275)scale(0.08 -0.08)">
       <use xlink:href="#DejaVuSans-49"/>
       <use x="63.623047" xlink:href="#DejaVuSans-48"/>
       <use x="127.246094" xlink:href="#DejaVuSans-48"/>
       <use x="190.869141" xlink:href="#DejaVuSans-48"/>
      </g>
     </g>
    </g>
   </g>
   <g id="matplotlib.axis_2">
    <g id="ytick_1">
     <g id="line2d_7">
      <defs>
       <path d="M 0 0 
L -3.5 0 
" id="m23ea9982f2" style="stroke:#000000;stroke-width:0.8;"/>
      </defs>
      <g>
       <use style="stroke:#000000;stroke-width:0.8;" x="57.6" xlink:href="#m23ea9982f2" y="299.49104"/>
      </g>
     </g>
     <g id="text_7">
      <!-- −4 -->
      <defs>
       <path d="M 10.59375 35.5 
L 73.1875 35.5 
L 73.1875 27.203125 
L 10.59375 27.203125 
z
" id="DejaVuSans-8722"/>
      </defs>
      <g transform="translate(38.80625 302.530415)scale(0.08 -0.08)">
       <use xlink:href="#DejaVuSans-8722"/>
       <use x="83.789062" xlink:href="#DejaVuSans-52"/>
      </g>
     </g>
    </g>
    <g id="ytick_2">
     <g id="line2d_8">
      <g>
       <use style="stroke:#000000;stroke-width:0.8;" x="57.6" xlink:href="#m23ea9982f2" y="264.133267"/>
      </g>
     </g>
     <g id="text_8">
      <!-- −3 -->
      <defs>
       <path d="M 40.578125 39.3125 
Q 47.65625 37.796875 51.625 33 
Q 55.609375 28.21875 55.609375 21.1875 
Q 55.609375 10.40625 48.1875 4.484375 
Q 40.765625 -1.421875 27.09375 -1.421875 
Q 22.515625 -1.421875 17.65625 -0.515625 
Q 12.796875 0.390625 7.625 2.203125 
L 7.625 11.71875 
Q 11.71875 9.328125 16.59375 8.109375 
Q 21.484375 6.890625 26.8125 6.890625 
Q 36.078125 6.890625 40.9375 10.546875 
Q 45.796875 14.203125 45.796875 21.1875 
Q 45.796875 27.640625 41.28125 31.265625 
Q 36.765625 34.90625 28.71875 34.90625 
L 20.21875 34.90625 
L 20.21875 43.015625 
L 29.109375 43.015625 
Q 36.375 43.015625 40.234375 45.921875 
Q 44.09375 48.828125 44.09375 54.296875 
Q 44.09375 59.90625 40.109375 62.90625 
Q 36.140625 65.921875 28.71875 65.921875 
Q 24.65625 65.921875 20.015625 65.03125 
Q 15.375 64.15625 9.8125 62.3125 
L 9.8125 71.09375 
Q 15.4375 72.65625 20.34375 73.4375 
Q 25.25 74.21875 29.59375 74.21875 
Q 40.828125 74.21875 47.359375 69.109375 
Q 53.90625 64.015625 53.90625 55.328125 
Q 53.90625 49.265625 50.4375 45.09375 
Q 46.96875 40.921875 40.578125 39.3125 
z
" id="DejaVuSans-51"/>
      </defs>
      <g transform="translate(38.80625 267.172642)scale(0.08 -0.08)">
       <use xlink:href="#DejaVuSans-8722"/>
       <use x="83.789062" xlink:href="#DejaVuSans-51"/>
      </g>
     </g>
    </g>
    <g id="ytick_3">
     <g id="line2d_9">
      <g>
       <use style="stroke:#000000;stroke-width:0.8;" x="57.6" xlink:href="#m23ea9982f2" y="228.775495"/>
      </g>
     </g>
     <g id="text_9">
      <!-- −2 -->
      <g transform="translate(38.80625 231.81487)scale(0.08 -0.08)">
       <use xlink:href="#DejaVuSans-8722"/>
       <use x="83.789062" xlink:href="#DejaVuSans-50"/>
      </g>
     </g>
    </g>
    <g id="ytick_4">
     <g id="line2d_10">
      <g>
       <use style="stroke:#000000;stroke-width:0.8;" x="57.6" xlink:href="#m23ea9982f2" y="193.417723"/>
      </g>
     </g>
     <g id="text_10">
      <!-- −1 -->
      <g transform="translate(38.80625 196.457098)scale(0.08 -0.08)">
       <use xlink:href="#DejaVuSans-8722"/>
       <use x="83.789062" xlink:href="#DejaVuSans-49"/>
      </g>
     </g>
    </g>
    <g id="ytick_5">
     <g id="line2d_11">
      <g>
       <use style="stroke:#000000;stroke-width:0.8;" x="57.6" xlink:href="#m23ea9982f2" y="158.059951"/>
      </g>
     </g>
     <g id="text_11">
      <!-- 0 -->
      <g transform="translate(45.51 161.099326)scale(0.08 -0.08)">
       <use xlink:href="#DejaVuSans-48"/>
      </g>
     </g>
    </g>
    <g id="ytick_6">
     <g id="line2d_12">
      <g>
       <use style="stroke:#000000;stroke-width:0.8;" x="57.6" xlink:href="#m23ea9982f2" y="122.702178"/>
      </g>
     </g>
     <g id="text_12">
      <!-- 1 -->
      <g transform="translate(45.51 125.741553)scale(0.08 -0.08)">
       <use xlink:href="#DejaVuSans-49"/>
      </g>
     </g>
    </g>
    <g id="ytick_7">
     <g id="line2d_13">
      <g>
       <use style="stroke:#000000;stroke-width:0.8;" x="57.6" xlink:href="#m23ea9982f2" y="87.344406"/>
      </g>
     </g>
     <g id="text_13">
      <!-- 2 -->
      <g transform="translate(45.51 90.383781)scale(0.08 -0.08)">
       <use xlink:href="#DejaVuSans-50"/>
      </g>
     </g>
    </g>
    <g id="ytick_8">
     <g id="line2d_14">
      <g>
       <use style="stroke:#000000;stroke-width:0.8;" x="57.6" xlink:href="#m23ea9982f2" y="51.986634"/>
      </g>
     </g>
     <g id="text_14">
      <!-- 3 -->
      <g transform="translate(45.51 55.026009)scale(0.08 -0.08)">
       <use xlink:href="#DejaVuSans-51"/>
      </g>
     </g>
    </g>
   </g>
   <g id="line2d_15">
    <path clip-path="url(#p5da07b50b7)" d="M 73.832727 130.951242 
L 74.157707 125.324877 
L 74.807666 158.522036 
L 75.132645 161.381013 
L 75.782604 108.246919 
L 76.107584 183.866805 
L 76.757543 148.211428 
L 77.082523 161.555853 
L 77.407502 95.589964 
L 77.732482 153.676636 
L 78.057461 136.327759 
L 78.382441 194.809969 
L 78.70742 176.060364 
L 79.0324 139.235386 
L 79.357379 218.05036 
L 79.682359 142.225879 
L 80.332318 168.214261 
L 80.657297 119.439509 
L 80.982277 203.677271 
L 81.307256 175.39115 
L 81.632236 269.451049 
L 81.957215 134.635749 
L 82.932154 221.094175 
L 83.257133 167.322299 
L 83.582113 181.183516 
L 83.907093 182.345193 
L 84.232072 182.705635 
L 84.557052 130.213608 
L 84.882031 168.172733 
L 85.207011 152.035839 
L 85.53199 113.268368 
L 85.85697 102.026807 
L 86.181949 192.233933 
L 86.831908 122.475744 
L 87.156888 115.285766 
L 87.806847 142.982437 
L 88.131826 148.306568 
L 88.456806 108.151202 
L 88.781785 85.205878 
L 89.106765 129.097294 
L 89.431744 133.339945 
L 89.756724 183.909492 
L 90.081704 191.761923 
L 90.406683 118.561499 
L 90.731663 221.672977 
L 91.056642 133.913356 
L 91.381622 150.969977 
L 91.706601 58.301137 
L 92.031581 149.34968 
L 92.35656 126.240155 
L 92.68154 132.613547 
L 93.006519 107.37519 
L 93.331499 94.793181 
L 93.656478 214.771861 
L 93.981458 173.409858 
L 94.631417 144.917217 
L 94.956396 192.054508 
L 95.281376 162.740319 
L 95.606355 173.312304 
L 95.931335 140.490587 
L 96.256314 131.201043 
L 96.581294 180.212674 
L 96.906274 191.866985 
L 97.231253 197.860912 
L 97.556233 174.955247 
L 97.881212 188.742919 
L 98.206192 185.350945 
L 98.531171 190.484101 
L 98.856151 125.996805 
L 99.18113 206.45054 
L 99.50611 196.485693 
L 99.831089 117.77294 
L 100.156069 184.023516 
L 100.481048 135.709578 
L 100.806028 141.45045 
L 101.131007 137.387073 
L 101.780966 212.364686 
L 102.105946 118.636615 
L 102.430925 209.641539 
L 102.755905 134.851183 
L 103.080885 233.143263 
L 103.730844 116.729555 
L 104.055823 170.906413 
L 104.380803 162.878739 
L 104.705782 137.034663 
L 105.030762 143.314458 
L 105.355741 115.074123 
L 105.680721 198.064794 
L 106.0057 178.003592 
L 106.33068 83.732759 
L 106.655659 197.064293 
L 106.980639 155.136702 
L 107.630598 161.026522 
L 107.955577 197.407034 
L 108.280557 168.251891 
L 108.605536 117.787287 
L 108.930516 104.317759 
L 109.255495 195.744757 
L 109.580475 115.87364 
L 109.905455 127.516253 
L 110.555414 203.877936 
L 110.880393 150.652786 
L 111.205373 125.297941 
L 111.530352 183.788321 
L 111.855332 208.910261 
L 112.180311 204.924377 
L 112.505291 120.410537 
L 112.83027 188.787298 
L 113.15525 157.73482 
L 113.480229 98.187126 
L 114.130188 174.743834 
L 114.455168 166.501048 
L 114.780147 126.238315 
L 115.105127 174.322704 
L 115.430106 172.039459 
L 115.755086 175.228304 
L 116.080066 229.98915 
L 116.405045 158.906801 
L 116.730025 166.77431 
L 117.379984 90.619857 
L 117.704963 156.973056 
L 118.029943 198.883887 
L 118.354922 77.097345 
L 118.679902 180.136993 
L 119.004881 145.489329 
L 119.329861 148.659694 
L 119.65484 171.400602 
L 119.97982 167.417985 
L 120.304799 178.02166 
L 120.954758 83.766659 
L 121.279738 146.953061 
L 121.604717 137.610161 
L 122.254676 219.691506 
L 122.579656 156.311829 
L 122.904636 157.305548 
L 123.229615 158.724081 
L 123.554595 114.45667 
L 123.879574 173.446897 
L 124.204554 177.061953 
L 124.529533 202.634879 
L 124.854513 163.523278 
L 125.179492 166.265131 
L 125.504472 163.214888 
L 125.829451 188.158289 
L 126.154431 156.327044 
L 126.47941 186.888224 
L 126.80439 101.888937 
L 127.129369 140.453731 
L 127.454349 139.065698 
L 127.779328 91.728301 
L 128.104308 226.011315 
L 128.429287 178.586494 
L 128.754267 73.758148 
L 129.404226 144.030832 
L 129.729206 141.336326 
L 130.054185 181.013265 
L 130.704144 115.192857 
L 131.029124 142.652579 
L 131.354103 84.333191 
L 131.679083 145.437119 
L 132.004062 130.63306 
L 132.329042 148.51689 
L 132.654021 135.785728 
L 132.979001 184.110082 
L 133.30398 153.393217 
L 133.62896 155.728692 
L 133.953939 202.404885 
L 134.278919 130.457804 
L 134.603898 110.152261 
L 134.928878 135.635748 
L 135.253857 145.263383 
L 135.578837 123.019184 
L 135.903817 113.363467 
L 136.228796 127.157665 
L 136.553776 206.978115 
L 136.878755 107.044045 
L 137.203735 135.341032 
L 137.528714 150.750635 
L 137.853694 142.627744 
L 138.178673 119.012453 
L 138.503653 105.484524 
L 138.828632 203.764237 
L 139.803571 98.431429 
L 140.12855 122.393322 
L 140.45353 137.742257 
L 140.778509 136.464492 
L 141.103489 149.616687 
L 141.428468 117.497267 
L 141.753448 137.370371 
L 142.078428 212.47105 
L 142.403407 129.371981 
L 142.728387 175.226653 
L 143.053366 155.26914 
L 143.378346 157.005369 
L 143.703325 215.99988 
L 144.028305 149.522211 
L 144.353284 184.842023 
L 144.678264 146.785381 
L 145.003243 139.304253 
L 145.328223 196.76174 
L 145.653202 171.780845 
L 145.978182 164.462217 
L 146.303161 150.925315 
L 146.628141 222.582708 
L 146.95312 164.911637 
L 147.2781 214.324405 
L 147.603079 199.808254 
L 147.928059 123.284326 
L 148.578018 163.773031 
L 148.902998 143.373868 
L 149.227977 162.764621 
L 149.552957 121.254508 
L 149.877936 194.871568 
L 150.202916 174.355903 
L 150.527895 71.032295 
L 150.852875 93.270138 
L 151.177854 180.300531 
L 151.502834 129.809855 
L 151.827813 205.976475 
L 152.152793 149.769271 
L 152.477772 129.32173 
L 152.802752 53.568 
L 153.127731 91.856557 
L 153.452711 214.188331 
L 153.77769 188.790831 
L 154.10267 144.549484 
L 154.427649 143.660698 
L 155.077609 177.993306 
L 155.402588 178.882782 
L 155.727568 142.878613 
L 156.052547 187.967257 
L 156.377527 118.462108 
L 156.702506 127.393762 
L 157.027486 198.005953 
L 157.352465 210.760175 
L 157.677445 119.545559 
L 158.002424 203.380853 
L 158.327404 141.466096 
L 158.652383 132.751154 
L 158.977363 190.434905 
L 159.302342 170.137645 
L 159.627322 173.665813 
L 159.952301 183.415268 
L 160.277281 149.667075 
L 160.60226 190.43334 
L 160.92724 147.979329 
L 161.252219 154.386282 
L 161.577199 112.052457 
L 161.902179 194.030499 
L 162.227158 121.508743 
L 162.552138 114.605594 
L 162.877117 166.896542 
L 163.202097 146.591938 
L 163.527076 228.714795 
L 163.852056 183.670907 
L 164.177035 220.173177 
L 164.502015 121.462834 
L 164.826994 123.225122 
L 165.151974 169.672368 
L 165.476953 193.36943 
L 165.801933 85.448417 
L 166.126912 234.287039 
L 167.101851 173.619784 
L 167.42683 116.315343 
L 167.75181 132.742715 
L 168.07679 109.429246 
L 168.401769 169.195551 
L 168.726749 144.472139 
L 169.051728 213.119296 
L 169.376708 161.913289 
L 169.701687 245.261596 
L 170.026667 174.193985 
L 170.351646 214.866489 
L 170.676626 121.878947 
L 171.001605 135.487217 
L 171.326585 120.810491 
L 171.651564 160.314046 
L 171.976544 119.103629 
L 172.301523 177.401572 
L 172.626503 165.293072 
L 172.951482 95.770605 
L 173.276462 249.766381 
L 173.601441 214.397705 
L 173.926421 88.1137 
L 174.2514 191.902793 
L 174.57638 127.338382 
L 174.90136 160.423819 
L 175.226339 128.965375 
L 175.551319 136.348064 
L 175.876298 121.978437 
L 176.201278 192.464697 
L 176.526257 149.059542 
L 176.851237 123.335022 
L 177.176216 136.321589 
L 177.501196 139.881384 
L 177.826175 153.26707 
L 178.151155 193.880882 
L 178.476134 165.107962 
L 178.801114 153.146554 
L 179.126093 218.46862 
L 179.451073 125.537872 
L 179.776052 204.28697 
L 180.101032 151.21547 
L 180.426011 177.90435 
L 180.750991 107.632967 
L 181.075971 159.903669 
L 181.40095 120.626656 
L 181.72593 128.413934 
L 182.050909 122.717056 
L 182.375889 177.165824 
L 182.700868 137.51266 
L 183.025848 187.795888 
L 183.350827 123.009779 
L 183.675807 91.695791 
L 184.325766 167.9173 
L 184.650745 134.019423 
L 184.975725 138.779262 
L 185.300704 197.057458 
L 185.625684 188.074478 
L 185.950663 174.33541 
L 186.275643 128.877782 
L 186.600622 157.612322 
L 186.925602 119.634428 
L 187.250581 96.640735 
L 187.575561 152.510371 
L 187.900541 180.707966 
L 188.22552 143.464488 
L 188.5505 122.512792 
L 188.875479 154.018719 
L 189.200459 141.35869 
L 189.525438 143.187941 
L 189.850418 128.062707 
L 190.175397 126.22016 
L 190.500377 194.204075 
L 190.825356 182.318708 
L 191.150336 191.689286 
L 191.475315 112.111584 
L 191.800295 127.135213 
L 192.125274 156.434057 
L 192.450254 146.149867 
L 193.100213 254.276269 
L 193.425192 113.766241 
L 193.750172 177.122623 
L 194.075152 178.787042 
L 194.400131 142.977342 
L 194.725111 171.452494 
L 195.05009 222.810456 
L 195.37507 135.031367 
L 195.700049 149.317775 
L 196.025029 148.447467 
L 196.350008 162.009258 
L 196.674988 125.966814 
L 196.999967 199.903501 
L 197.324947 201.664754 
L 197.649926 89.052671 
L 197.974906 120.689833 
L 198.299885 166.010106 
L 198.624865 148.259896 
L 198.949844 146.471125 
L 199.274824 142.935568 
L 199.599803 213.051827 
L 199.924783 149.182632 
L 200.249762 171.728576 
L 200.574742 184.508697 
L 200.899722 127.705839 
L 201.224701 235.697363 
L 201.549681 185.104826 
L 201.87466 240.127207 
L 202.19964 194.001489 
L 202.524619 170.996023 
L 202.849599 131.417983 
L 203.174578 141.849599 
L 203.499558 130.251112 
L 203.824537 181.225871 
L 204.149517 170.204487 
L 204.474496 163.369807 
L 204.799476 211.324213 
L 205.124455 133.920378 
L 205.449435 132.72725 
L 205.774414 155.971578 
L 206.099394 202.587639 
L 206.424373 133.726455 
L 206.749353 179.308575 
L 207.074333 127.518469 
L 207.399312 183.725939 
L 207.724292 169.64203 
L 208.049271 165.254923 
L 208.374251 134.403333 
L 208.69923 197.117706 
L 209.02421 134.854859 
L 209.349189 97.466328 
L 209.674169 163.350975 
L 209.999148 107.90383 
L 210.324128 170.994736 
L 210.974087 182.188731 
L 211.299066 153.587733 
L 211.624046 162.217524 
L 211.949025 131.084412 
L 212.274005 195.993395 
L 212.598984 187.395119 
L 212.923964 195.909887 
L 213.248943 168.98091 
L 213.573923 131.068366 
L 213.898903 184.299633 
L 214.223882 182.61029 
L 214.548862 145.870794 
L 214.873841 168.873924 
L 215.198821 169.705921 
L 215.5238 182.978361 
L 215.84878 189.525589 
L 216.173759 108.659307 
L 216.498739 195.300631 
L 216.823718 155.856574 
L 217.148698 142.84857 
L 217.473677 163.532316 
L 217.798657 127.825824 
L 218.123636 184.64356 
L 218.773595 138.958397 
L 219.098575 173.333535 
L 219.423554 146.396842 
L 219.748534 175.737071 
L 220.073514 192.407805 
L 220.398493 179.798138 
L 220.723473 130.459938 
L 221.048452 167.501754 
L 221.373432 139.946868 
L 221.698411 152.426071 
L 222.023391 143.950694 
L 222.34837 95.111002 
L 222.998329 187.440677 
L 223.323309 147.06103 
L 223.648288 156.230944 
L 223.973268 142.051882 
L 224.298247 158.210787 
L 224.623227 227.597243 
L 224.948206 194.802909 
L 225.598165 165.31867 
L 225.923145 184.235801 
L 226.248124 169.710965 
L 226.573104 94.851219 
L 226.898084 160.504403 
L 227.223063 125.016946 
L 227.548043 143.498008 
L 227.873022 186.42335 
L 228.198002 175.779892 
L 228.522981 203.83806 
L 228.847961 125.686328 
L 229.17294 122.24117 
L 229.49792 123.659592 
L 229.822899 204.346995 
L 230.147879 197.437047 
L 230.472858 181.341378 
L 230.797838 85.039309 
L 231.122817 125.326008 
L 231.772776 166.909565 
L 232.097756 176.621256 
L 232.422735 194.856041 
L 232.747715 192.157412 
L 233.072695 188.45141 
L 233.397674 131.386609 
L 233.722654 166.089102 
L 234.047633 124.369893 
L 234.372613 209.421533 
L 235.022572 165.943912 
L 235.347551 203.80617 
L 235.672531 199.021477 
L 235.99751 138.61685 
L 236.32249 133.713881 
L 236.647469 107.765495 
L 236.972449 180.957628 
L 237.297428 134.520676 
L 237.947387 221.93536 
L 238.272367 130.74694 
L 238.597346 231.837845 
L 238.922326 169.21319 
L 239.247305 218.350481 
L 239.572285 123.906209 
L 239.897265 130.592934 
L 240.222244 153.857477 
L 240.547224 200.432931 
L 240.872203 206.714064 
L 241.197183 190.215468 
L 241.522162 93.866733 
L 241.847142 188.280176 
L 242.172121 141.357099 
L 242.497101 195.303884 
L 242.82208 210.98046 
L 243.14706 153.118762 
L 243.472039 172.95717 
L 243.797019 130.725261 
L 244.121998 120.105228 
L 244.446978 219.665337 
L 244.771957 134.214927 
L 245.096937 160.703588 
L 245.421916 173.012724 
L 246.071876 209.158578 
L 246.396855 146.15177 
L 246.721835 170.482263 
L 247.046814 153.399855 
L 247.371794 185.96963 
L 247.696773 207.322552 
L 248.021753 173.370897 
L 248.346732 193.890601 
L 248.671712 201.545986 
L 249.321671 119.253705 
L 249.64665 202.523676 
L 249.97163 154.965341 
L 250.296609 179.03364 
L 250.621589 172.461581 
L 250.946568 170.200657 
L 251.271548 182.848957 
L 251.596527 114.053512 
L 251.921507 115.507633 
L 252.246486 99.098703 
L 252.571466 157.479957 
L 252.896446 152.606453 
L 253.221425 167.05097 
L 253.546405 91.394879 
L 253.871384 159.436785 
L 254.196364 148.430241 
L 254.521343 177.278257 
L 254.846323 165.546133 
L 255.171302 123.994203 
L 255.496282 154.224243 
L 256.146241 180.044076 
L 256.47122 128.986483 
L 256.7962 172.14119 
L 257.121179 153.999551 
L 257.446159 162.659775 
L 257.771138 220.32083 
L 258.096118 152.96995 
L 258.421097 127.317955 
L 258.746077 135.249451 
L 259.071057 155.495272 
L 259.396036 204.807931 
L 259.721016 189.140231 
L 260.370975 135.163767 
L 260.695954 188.943014 
L 261.020934 141.984374 
L 261.345913 166.937088 
L 261.670893 171.058025 
L 261.995872 135.409074 
L 262.320852 126.288536 
L 262.645831 141.384247 
L 262.970811 97.040332 
L 263.29579 158.092042 
L 263.62077 161.773899 
L 263.945749 161.2181 
L 264.270729 134.578144 
L 264.595708 166.038944 
L 264.920688 147.404691 
L 265.245667 142.532356 
L 265.570647 142.133745 
L 266.220606 161.897015 
L 266.545586 146.942346 
L 266.870565 120.991695 
L 267.195545 225.885472 
L 267.520524 161.411324 
L 267.845504 144.856125 
L 268.170483 157.946141 
L 268.495463 179.386646 
L 268.820442 158.899013 
L 269.145422 241.404661 
L 269.470401 196.215695 
L 269.795381 234.970419 
L 270.12036 128.879934 
L 270.44534 139.25142 
L 270.770319 128.407711 
L 271.095299 182.30457 
L 271.420278 180.649401 
L 271.745258 195.608543 
L 272.395217 100.835913 
L 272.720197 135.084436 
L 273.045176 154.814192 
L 273.370156 158.357094 
L 273.695135 110.850243 
L 274.020115 185.007931 
L 274.345094 225.635963 
L 274.670074 145.764328 
L 274.995053 124.44543 
L 275.320033 68.604692 
L 275.645012 173.802865 
L 275.969992 185.478068 
L 276.294971 187.578547 
L 277.26991 105.775996 
L 277.594889 147.914374 
L 277.919869 155.395454 
L 278.244848 130.452541 
L 278.569828 186.916369 
L 278.894808 169.529676 
L 279.219787 104.801255 
L 279.544767 157.289476 
L 279.869746 181.051647 
L 280.194726 182.173099 
L 280.519705 156.971296 
L 280.844685 169.681745 
L 281.169664 188.172954 
L 281.494644 158.715847 
L 281.819623 196.613737 
L 282.144603 149.464309 
L 282.469582 186.8519 
L 282.794562 255.683569 
L 283.119541 138.841691 
L 283.444521 228.722149 
L 283.7695 123.455575 
L 284.09448 193.802422 
L 284.419459 138.963692 
L 284.744439 194.164574 
L 285.069419 179.755107 
L 285.394398 191.899982 
L 285.719378 151.326785 
L 286.044357 126.408582 
L 286.369337 210.81272 
L 286.694316 115.869276 
L 287.019296 122.412522 
L 287.344275 188.34843 
L 287.669255 127.739537 
L 287.994234 191.997716 
L 288.319214 147.490951 
L 288.644193 180.497218 
L 288.969173 169.330046 
L 289.294152 93.042963 
L 289.619132 135.192386 
L 289.944111 130.467727 
L 290.269091 172.672569 
L 290.59407 162.496497 
L 290.91905 156.377431 
L 291.244029 157.620981 
L 291.569009 125.390847 
L 291.893989 177.869667 
L 292.218968 188.41382 
L 292.543948 250.88752 
L 292.868927 212.088028 
L 293.518886 177.085987 
L 293.843866 179.16314 
L 294.168845 159.104454 
L 294.818804 133.068814 
L 295.143784 210.046191 
L 295.468763 157.562284 
L 296.118722 186.198252 
L 296.443702 113.517223 
L 296.768681 111.167761 
L 297.093661 114.605955 
L 297.41864 126.607646 
L 297.74362 295.488 
L 298.393579 111.637505 
L 299.043538 160.484807 
L 299.368518 171.765299 
L 299.693497 131.852791 
L 300.018477 188.272904 
L 300.343456 140.658477 
L 300.668436 143.197787 
L 300.993415 132.10157 
L 301.318395 192.16405 
L 301.643374 103.355951 
L 302.293333 153.384469 
L 302.618313 130.45015 
L 302.943292 96.165856 
L 303.593251 181.590637 
L 303.918231 170.740597 
L 304.24321 178.224815 
L 304.56819 125.356381 
L 304.89317 152.07168 
L 305.218149 151.971286 
L 305.543129 194.256972 
L 305.868108 145.309805 
L 306.193088 177.497544 
L 306.518067 174.803944 
L 306.843047 134.926001 
L 307.168026 111.227421 
L 307.817985 253.082706 
L 308.142965 170.683876 
L 308.792924 188.134076 
L 309.117903 188.914155 
L 309.442883 168.222534 
L 309.767862 117.277259 
L 310.092842 127.186493 
L 310.417821 111.074736 
L 310.742801 208.103237 
L 311.067781 153.594392 
L 311.39276 176.107179 
L 311.71774 117.1791 
L 312.042719 179.085604 
L 312.367699 73.902215 
L 312.692678 217.112484 
L 313.017658 196.248889 
L 313.342637 148.943184 
L 313.992596 185.694094 
L 314.317576 136.736817 
L 314.642555 150.777828 
L 314.967535 151.985724 
L 315.292514 177.918796 
L 315.942473 95.577576 
L 316.267453 152.746771 
L 316.592432 126.496135 
L 316.917412 132.733606 
L 317.242391 135.4602 
L 317.567371 198.340608 
L 317.892351 197.165078 
L 318.21733 118.141467 
L 318.54231 142.303002 
L 318.867289 230.400205 
L 319.192269 106.671451 
L 319.517248 186.848962 
L 319.842228 205.89958 
L 320.167207 175.361903 
L 320.492187 131.301985 
L 320.817166 134.773476 
L 321.142146 144.780934 
L 321.467125 139.931829 
L 321.792105 196.218113 
L 322.117084 120.791866 
L 322.442064 140.691427 
L 322.767043 130.229601 
L 323.092023 227.49977 
L 323.417002 167.109571 
L 323.741982 184.052692 
L 324.066962 134.235506 
L 324.391941 231.700064 
L 324.716921 177.208324 
L 325.0419 151.220847 
L 325.36688 141.435659 
L 325.691859 240.198873 
L 326.016839 169.325782 
L 326.341818 172.955564 
L 326.666798 152.410994 
L 326.991777 155.587589 
L 327.316757 146.982159 
L 327.641736 168.20573 
L 327.966716 170.036771 
L 328.291695 167.093947 
L 328.616675 94.538556 
L 328.941654 160.173674 
L 329.266634 110.997806 
L 329.591613 190.159112 
L 329.916593 127.013126 
L 330.566552 205.274119 
L 330.891532 204.499176 
L 331.216511 167.886599 
L 331.541491 199.355487 
L 331.86647 244.215452 
L 332.19145 166.517668 
L 332.516429 144.010596 
L 332.841409 138.114904 
L 333.166388 147.452146 
L 333.491368 166.760795 
L 333.816347 133.455741 
L 334.141327 138.190989 
L 334.466306 144.765592 
L 334.791286 208.206152 
L 335.116265 155.903736 
L 335.441245 133.440075 
L 335.766224 140.318475 
L 336.091204 194.09962 
L 336.416183 148.656466 
L 336.741163 214.02529 
L 337.066143 153.784367 
L 337.716102 195.987737 
L 338.041081 174.876363 
L 338.366061 78.607621 
L 338.69104 159.108518 
L 339.01602 139.258854 
L 339.340999 97.435275 
L 339.665979 181.916424 
L 339.990958 219.880847 
L 340.315938 173.832249 
L 340.965897 129.463892 
L 341.290876 190.745688 
L 341.615856 107.720112 
L 341.940835 185.026302 
L 342.265815 161.163344 
L 342.590794 199.572 
L 342.915774 144.923723 
L 343.565733 204.659085 
L 343.890713 169.848897 
L 344.215692 98.568438 
L 344.540672 134.909571 
L 344.865651 112.250819 
L 345.190631 115.208158 
L 345.51561 112.500569 
L 345.84059 169.407809 
L 346.165569 128.0839 
L 346.490549 145.976939 
L 346.815528 203.374075 
L 347.140508 159.408131 
L 347.465487 202.386593 
L 347.790467 192.608175 
L 348.115446 170.730759 
L 348.440426 115.937946 
L 348.765405 134.038889 
L 349.090385 173.015461 
L 349.415364 145.218891 
L 349.740344 166.188328 
L 350.065324 176.177934 
L 350.390303 147.731181 
L 350.715283 215.563657 
L 351.040262 169.032773 
L 351.365242 185.777202 
L 351.690221 174.573105 
L 352.015201 115.457288 
L 352.34018 142.969179 
L 352.66516 135.901063 
L 352.990139 223.299289 
L 353.315119 148.861413 
L 353.640098 125.635896 
L 353.965078 125.905951 
L 354.290057 153.003912 
L 354.940016 179.860811 
L 355.264996 74.121517 
L 355.589975 200.150098 
L 356.239934 138.07015 
L 356.564914 96.927938 
L 356.889894 226.816132 
L 357.214873 133.869456 
L 357.539853 182.20775 
L 357.864832 173.773006 
L 358.189812 184.680783 
L 358.514791 184.447707 
L 358.839771 115.802103 
L 359.16475 148.111394 
L 359.48973 140.189937 
L 359.814709 199.977872 
L 360.139689 160.768532 
L 360.464668 135.741196 
L 360.789648 220.424948 
L 361.114627 199.608166 
L 361.439607 153.088441 
L 361.764586 129.11537 
L 362.089566 121.126175 
L 362.414545 204.034633 
L 362.739525 182.450522 
L 363.064505 170.056185 
L 363.389484 209.545883 
L 364.039443 98.981808 
L 364.364423 157.765778 
L 364.689402 165.645479 
L 365.014382 145.626001 
L 365.339361 174.208194 
L 365.664341 130.140101 
L 365.98932 178.944575 
L 366.3143 105.004563 
L 366.639279 216.437475 
L 366.964259 150.273426 
L 367.289238 173.115239 
L 367.614218 250.752997 
L 367.939197 147.005215 
L 368.264177 124.606112 
L 368.589156 142.484391 
L 368.914136 186.476707 
L 369.564095 162.595202 
L 369.889075 130.035525 
L 370.214054 207.994414 
L 370.539034 184.334404 
L 370.864013 141.554812 
L 371.188993 166.411402 
L 371.513972 214.890135 
L 371.838952 131.43322 
L 372.163931 233.025424 
L 372.488911 134.344411 
L 372.81389 156.772922 
L 373.13887 196.670171 
L 373.463849 221.686359 
L 373.788829 184.863918 
L 374.113808 115.904966 
L 374.438788 109.863145 
L 374.763767 141.051083 
L 375.088747 143.924823 
L 375.413726 177.422082 
L 375.738706 223.412909 
L 376.063686 180.065527 
L 376.388665 158.93833 
L 376.713645 129.134998 
L 377.038624 133.23412 
L 377.363604 89.749743 
L 377.688583 153.905642 
L 378.013563 153.936048 
L 378.338542 122.296482 
L 378.663522 158.566825 
L 378.988501 150.722775 
L 379.313481 176.906923 
L 379.63846 123.142216 
L 379.96344 173.096503 
L 380.288419 144.585804 
L 380.613399 149.277628 
L 380.938378 167.818384 
L 381.263358 168.959942 
L 381.588337 176.936721 
L 381.913317 167.785973 
L 382.238296 136.703561 
L 382.563276 166.794634 
L 382.888256 153.24574 
L 383.213235 198.673259 
L 383.538215 209.161466 
L 383.863194 211.36748 
L 384.188174 98.266849 
L 384.513153 123.530281 
L 384.838133 129.800555 
L 385.163112 213.53114 
L 385.488092 185.408776 
L 385.813071 177.903108 
L 386.138051 210.133344 
L 386.46303 134.565535 
L 387.112989 246.303366 
L 387.437969 149.159728 
L 387.762948 158.362629 
L 388.087928 218.105585 
L 388.412907 189.032243 
L 388.737887 201.060053 
L 389.062867 237.649409 
L 389.387846 150.604255 
L 389.712826 140.852479 
L 390.037805 219.401308 
L 390.362785 160.198223 
L 390.687764 160.528028 
L 391.012744 139.503629 
L 391.337723 129.793135 
L 391.662703 158.704395 
L 391.987682 147.565607 
L 392.312662 105.636365 
L 392.637641 128.991277 
L 392.962621 110.213474 
L 393.61258 171.851193 
L 394.262539 64.462337 
L 394.587518 220.294863 
L 394.912498 119.141679 
L 395.237477 155.01072 
L 395.562457 141.746353 
L 395.887437 185.061936 
L 396.212416 177.359319 
L 396.537396 197.523978 
L 396.862375 153.535579 
L 397.187355 133.389399 
L 397.512334 132.012284 
L 397.837314 176.617834 
L 398.162293 131.019251 
L 398.487273 122.359298 
L 398.487273 122.359298 
" style="fill:none;stroke:#1f77b4;stroke-linecap:square;stroke-width:1.5;"/>
   </g>
   <g id="patch_3">
    <path d="M 57.6 307.584 
L 57.6 41.472 
" style="fill:none;stroke:#000000;stroke-linecap:square;stroke-linejoin:miter;stroke-width:0.8;"/>
   </g>
   <g id="patch_4">
    <path d="M 57.6 307.584 
L 414.72 307.584 
" style="fill:none;stroke:#000000;stroke-linecap:square;stroke-linejoin:miter;stroke-width:0.8;"/>
   </g>
  </g>
 </g>
 <defs>
  <clipPath id="p5da07b50b7">
   <rect height="266.112" width="357.12" x="57.6" y="41.472"/>
  </clipPath>
 </defs>
</svg>
