<?xml version="1.0" encoding="utf-8" standalone="no"?>
<!DOCTYPE svg PUBLIC "-//W3C//DTD SVG 1.1//EN"
  "http://www.w3.org/Graphics/SVG/1.1/DTD/svg11.dtd">
<!-- Created with matplotlib (https://matplotlib.org/) -->
<svg height="345.6pt" version="1.1" viewBox="0 0 460.8 345.6" width="460.8pt" xmlns="http://www.w3.org/2000/svg" xmlns:xlink="http://www.w3.org/1999/xlink">
 <defs>
  <style type="text/css">
*{stroke-linecap:butt;stroke-linejoin:round;}
  </style>
 </defs>
 <g id="figure_1">
  <g id="patch_1">
   <path d="M 0 345.6 
L 460.8 345.6 
L 460.8 0 
L 0 0 
z
" style="fill:#ffffff;"/>
  </g>
  <g id="axes_1">
   <g id="patch_2">
    <path d="M 57.6 119.740235 
L 414.72 119.740235 
L 414.72 41.472 
L 57.6 41.472 
z
" style="fill:#ffffff;"/>
   </g>
   <g id="matplotlib.axis_1">
    <g id="xtick_1">
     <g id="line2d_1">
      <defs>
       <path d="M 0 0 
L 0 3.5 
" id="ma1a04f237a" style="stroke:#000000;stroke-width:0.8;"/>
      </defs>
      <g>
       <use style="stroke:#000000;stroke-width:0.8;" x="73.832727" xlink:href="#ma1a04f237a" y="119.740235"/>
      </g>
     </g>
     <g id="text_1">
      <!-- 0 -->
      <defs>
       <path d="M 31.78125 66.40625 
Q 24.171875 66.40625 20.328125 58.90625 
Q 16.5 51.421875 16.5 36.375 
Q 16.5 21.390625 20.328125 13.890625 
Q 24.171875 6.390625 31.78125 6.390625 
Q 39.453125 6.390625 43.28125 13.890625 
Q 47.125 21.390625 47.125 36.375 
Q 47.125 51.421875 43.28125 58.90625 
Q 39.453125 66.40625 31.78125 66.40625 
z
M 31.78125 74.21875 
Q 44.046875 74.21875 50.515625 64.515625 
Q 56.984375 54.828125 56.984375 36.375 
Q 56.984375 17.96875 50.515625 8.265625 
Q 44.046875 -1.421875 31.78125 -1.421875 
Q 19.53125 -1.421875 13.0625 8.265625 
Q 6.59375 17.96875 6.59375 36.375 
Q 6.59375 54.828125 13.0625 64.515625 
Q 19.53125 74.21875 31.78125 74.21875 
z
" id="DejaVuSans-48"/>
      </defs>
      <g transform="translate(71.287727 132.818985)scale(0.08 -0.08)">
       <use xlink:href="#DejaVuSans-48"/>
      </g>
     </g>
    </g>
    <g id="xtick_2">
     <g id="line2d_2">
      <g>
       <use style="stroke:#000000;stroke-width:0.8;" x="138.828632" xlink:href="#ma1a04f237a" y="119.740235"/>
      </g>
     </g>
     <g id="text_2">
      <!-- 200 -->
      <defs>
       <path d="M 19.1875 8.296875 
L 53.609375 8.296875 
L 53.609375 0 
L 7.328125 0 
L 7.328125 8.296875 
Q 12.9375 14.109375 22.625 23.890625 
Q 32.328125 33.6875 34.8125 36.53125 
Q 39.546875 41.84375 41.421875 45.53125 
Q 43.3125 49.21875 43.3125 52.78125 
Q 43.3125 58.59375 39.234375 62.25 
Q 35.15625 65.921875 28.609375 65.921875 
Q 23.96875 65.921875 18.8125 64.3125 
Q 13.671875 62.703125 7.8125 59.421875 
L 7.8125 69.390625 
Q 13.765625 71.78125 18.9375 73 
Q 24.125 74.21875 28.421875 74.21875 
Q 39.75 74.21875 46.484375 68.546875 
Q 53.21875 62.890625 53.21875 53.421875 
Q 53.21875 48.921875 51.53125 44.890625 
Q 49.859375 40.875 45.40625 35.40625 
Q 44.1875 33.984375 37.640625 27.21875 
Q 31.109375 20.453125 19.1875 8.296875 
z
" id="DejaVuSans-50"/>
      </defs>
      <g transform="translate(131.193632 132.818985)scale(0.08 -0.08)">
       <use xlink:href="#DejaVuSans-50"/>
       <use x="63.623047" xlink:href="#DejaVuSans-48"/>
       <use x="127.246094" xlink:href="#DejaVuSans-48"/>
      </g>
     </g>
    </g>
    <g id="xtick_3">
     <g id="line2d_3">
      <g>
       <use style="stroke:#000000;stroke-width:0.8;" x="203.824537" xlink:href="#ma1a04f237a" y="119.740235"/>
      </g>
     </g>
     <g id="text_3">
      <!-- 400 -->
      <defs>
       <path d="M 37.796875 64.3125 
L 12.890625 25.390625 
L 37.796875 25.390625 
z
M 35.203125 72.90625 
L 47.609375 72.90625 
L 47.609375 25.390625 
L 58.015625 25.390625 
L 58.015625 17.1875 
L 47.609375 17.1875 
L 47.609375 0 
L 37.796875 0 
L 37.796875 17.1875 
L 4.890625 17.1875 
L 4.890625 26.703125 
z
" id="DejaVuSans-52"/>
      </defs>
      <g transform="translate(196.189537 132.818985)scale(0.08 -0.08)">
       <use xlink:href="#DejaVuSans-52"/>
       <use x="63.623047" xlink:href="#DejaVuSans-48"/>
       <use x="127.246094" xlink:href="#DejaVuSans-48"/>
      </g>
     </g>
    </g>
    <g id="xtick_4">
     <g id="line2d_4">
      <g>
       <use style="stroke:#000000;stroke-width:0.8;" x="268.820442" xlink:href="#ma1a04f237a" y="119.740235"/>
      </g>
     </g>
     <g id="text_4">
      <!-- 600 -->
      <defs>
       <path d="M 33.015625 40.375 
Q 26.375 40.375 22.484375 35.828125 
Q 18.609375 31.296875 18.609375 23.390625 
Q 18.609375 15.53125 22.484375 10.953125 
Q 26.375 6.390625 33.015625 6.390625 
Q 39.65625 6.390625 43.53125 10.953125 
Q 47.40625 15.53125 47.40625 23.390625 
Q 47.40625 31.296875 43.53125 35.828125 
Q 39.65625 40.375 33.015625 40.375 
z
M 52.59375 71.296875 
L 52.59375 62.3125 
Q 48.875 64.0625 45.09375 64.984375 
Q 41.3125 65.921875 37.59375 65.921875 
Q 27.828125 65.921875 22.671875 59.328125 
Q 17.53125 52.734375 16.796875 39.40625 
Q 19.671875 43.65625 24.015625 45.921875 
Q 28.375 48.1875 33.59375 48.1875 
Q 44.578125 48.1875 50.953125 41.515625 
Q 57.328125 34.859375 57.328125 23.390625 
Q 57.328125 12.15625 50.6875 5.359375 
Q 44.046875 -1.421875 33.015625 -1.421875 
Q 20.359375 -1.421875 13.671875 8.265625 
Q 6.984375 17.96875 6.984375 36.375 
Q 6.984375 53.65625 15.1875 63.9375 
Q 23.390625 74.21875 37.203125 74.21875 
Q 40.921875 74.21875 44.703125 73.484375 
Q 48.484375 72.75 52.59375 71.296875 
z
" id="DejaVuSans-54"/>
      </defs>
      <g transform="translate(261.185442 132.818985)scale(0.08 -0.08)">
       <use xlink:href="#DejaVuSans-54"/>
       <use x="63.623047" xlink:href="#DejaVuSans-48"/>
       <use x="127.246094" xlink:href="#DejaVuSans-48"/>
      </g>
     </g>
    </g>
    <g id="xtick_5">
     <g id="line2d_5">
      <g>
       <use style="stroke:#000000;stroke-width:0.8;" x="333.816347" xlink:href="#ma1a04f237a" y="119.740235"/>
      </g>
     </g>
     <g id="text_5">
      <!-- 800 -->
      <defs>
       <path d="M 31.78125 34.625 
Q 24.75 34.625 20.71875 30.859375 
Q 16.703125 27.09375 16.703125 20.515625 
Q 16.703125 13.921875 20.71875 10.15625 
Q 24.75 6.390625 31.78125 6.390625 
Q 38.8125 6.390625 42.859375 10.171875 
Q 46.921875 13.96875 46.921875 20.515625 
Q 46.921875 27.09375 42.890625 30.859375 
Q 38.875 34.625 31.78125 34.625 
z
M 21.921875 38.8125 
Q 15.578125 40.375 12.03125 44.71875 
Q 8.5 49.078125 8.5 55.328125 
Q 8.5 64.0625 14.71875 69.140625 
Q 20.953125 74.21875 31.78125 74.21875 
Q 42.671875 74.21875 48.875 69.140625 
Q 55.078125 64.0625 55.078125 55.328125 
Q 55.078125 49.078125 51.53125 44.71875 
Q 48 40.375 41.703125 38.8125 
Q 48.828125 37.15625 52.796875 32.3125 
Q 56.78125 27.484375 56.78125 20.515625 
Q 56.78125 9.90625 50.3125 4.234375 
Q 43.84375 -1.421875 31.78125 -1.421875 
Q 19.734375 -1.421875 13.25 4.234375 
Q 6.78125 9.90625 6.78125 20.515625 
Q 6.78125 27.484375 10.78125 32.3125 
Q 14.796875 37.15625 21.921875 38.8125 
z
M 18.3125 54.390625 
Q 18.3125 48.734375 21.84375 45.5625 
Q 25.390625 42.390625 31.78125 42.390625 
Q 38.140625 42.390625 41.71875 45.5625 
Q 45.3125 48.734375 45.3125 54.390625 
Q 45.3125 60.0625 41.71875 63.234375 
Q 38.140625 66.40625 31.78125 66.40625 
Q 25.390625 66.40625 21.84375 63.234375 
Q 18.3125 60.0625 18.3125 54.390625 
z
" id="DejaVuSans-56"/>
      </defs>
      <g transform="translate(326.181347 132.818985)scale(0.08 -0.08)">
       <use xlink:href="#DejaVuSans-56"/>
       <use x="63.623047" xlink:href="#DejaVuSans-48"/>
       <use x="127.246094" xlink:href="#DejaVuSans-48"/>
      </g>
     </g>
    </g>
    <g id="xtick_6">
     <g id="line2d_6">
      <g>
       <use style="stroke:#000000;stroke-width:0.8;" x="398.812252" xlink:href="#ma1a04f237a" y="119.740235"/>
      </g>
     </g>
     <g id="text_6">
      <!-- 1000 -->
      <defs>
       <path d="M 12.40625 8.296875 
L 28.515625 8.296875 
L 28.515625 63.921875 
L 10.984375 60.40625 
L 10.984375 69.390625 
L 28.421875 72.90625 
L 38.28125 72.90625 
L 38.28125 8.296875 
L 54.390625 8.296875 
L 54.390625 0 
L 12.40625 0 
z
" id="DejaVuSans-49"/>
      </defs>
      <g transform="translate(388.632252 132.818985)scale(0.08 -0.08)">
       <use xlink:href="#DejaVuSans-49"/>
       <use x="63.623047" xlink:href="#DejaVuSans-48"/>
       <use x="127.246094" xlink:href="#DejaVuSans-48"/>
       <use x="190.869141" xlink:href="#DejaVuSans-48"/>
      </g>
     </g>
    </g>
   </g>
   <g id="matplotlib.axis_2">
    <g id="ytick_1">
     <g id="line2d_7">
      <defs>
       <path d="M 0 0 
L -3.5 0 
" id="m66afb01a5f" style="stroke:#000000;stroke-width:0.8;"/>
      </defs>
      <g>
       <use style="stroke:#000000;stroke-width:0.8;" x="57.6" xlink:href="#m66afb01a5f" y="101.585401"/>
      </g>
     </g>
     <g id="text_7">
      <!-- −2 -->
      <defs>
       <path d="M 10.59375 35.5 
L 73.1875 35.5 
L 73.1875 27.203125 
L 10.59375 27.203125 
z
" id="DejaVuSans-8722"/>
      </defs>
      <g transform="translate(38.80625 104.624776)scale(0.08 -0.08)">
       <use xlink:href="#DejaVuSans-8722"/>
       <use x="83.789062" xlink:href="#DejaVuSans-50"/>
      </g>
     </g>
    </g>
    <g id="ytick_2">
     <g id="line2d_8">
      <g>
       <use style="stroke:#000000;stroke-width:0.8;" x="57.6" xlink:href="#m66afb01a5f" y="79.19412"/>
      </g>
     </g>
     <g id="text_8">
      <!-- 0 -->
      <g transform="translate(45.51 82.233495)scale(0.08 -0.08)">
       <use xlink:href="#DejaVuSans-48"/>
      </g>
     </g>
    </g>
    <g id="ytick_3">
     <g id="line2d_9">
      <g>
       <use style="stroke:#000000;stroke-width:0.8;" x="57.6" xlink:href="#m66afb01a5f" y="56.802839"/>
      </g>
     </g>
     <g id="text_9">
      <!-- 2 -->
      <g transform="translate(45.51 59.842214)scale(0.08 -0.08)">
       <use xlink:href="#DejaVuSans-50"/>
      </g>
     </g>
    </g>
   </g>
   <g id="line2d_10">
    <path clip-path="url(#p34068624b6)" d="M 73.832727 87.76236 
L 74.157707 84.30232 
L 74.482686 71.405243 
L 74.807666 77.710374 
L 75.132645 75.316748 
L 75.457625 74.809836 
L 75.782604 102.230273 
L 76.432563 60.533073 
L 76.757543 76.459173 
L 77.082523 72.561705 
L 78.057461 92.176408 
L 78.382441 72.092635 
L 78.70742 73.165747 
L 79.0324 86.880507 
L 79.357379 85.055177 
L 79.682359 89.092451 
L 80.007338 55.141758 
L 80.332318 76.620937 
L 80.657297 74.046356 
L 80.982277 67.208897 
L 81.307256 98.868709 
L 81.957215 67.913607 
L 82.282195 79.385103 
L 82.607174 76.466525 
L 82.932154 85.428224 
L 83.257133 77.336838 
L 83.582113 74.358481 
L 83.907093 91.620164 
L 84.232072 77.603125 
L 84.557052 94.575562 
L 84.882031 79.227672 
L 85.207011 87.499014 
L 85.53199 79.522142 
L 85.85697 97.747642 
L 86.181949 71.024607 
L 86.506929 74.158056 
L 86.831908 91.580783 
L 87.156888 73.451436 
L 87.481867 63.008848 
L 88.131826 86.180502 
L 88.456806 84.992444 
L 89.106765 60.062328 
L 89.431744 86.441441 
L 89.756724 72.825977 
L 90.081704 88.533388 
L 90.406683 76.994593 
L 90.731663 72.18122 
L 91.056642 74.688956 
L 91.381622 108.969213 
L 91.706601 78.944072 
L 92.031581 72.366333 
L 92.35656 92.623155 
L 92.68154 64.696348 
L 93.006519 77.875096 
L 93.331499 62.807482 
L 93.656478 81.659497 
L 93.981458 108.851399 
L 94.306437 72.833171 
L 94.631417 57.230852 
L 94.956396 80.760247 
L 95.281376 84.931192 
L 95.606355 83.547771 
L 95.931335 72.716006 
L 96.256314 91.765677 
L 96.581294 89.382679 
L 96.906274 64.51863 
L 97.231253 88.347507 
L 97.556233 77.807747 
L 97.881212 87.345116 
L 98.206192 69.069442 
L 98.531171 90.82065 
L 98.856151 82.021779 
L 99.18113 82.960609 
L 99.50611 91.247451 
L 99.831089 90.038384 
L 100.156069 77.608803 
L 100.481048 58.944491 
L 100.806028 61.345605 
L 101.131007 78.947605 
L 101.455987 61.496576 
L 101.780966 55.767151 
L 102.105946 74.2733 
L 102.430925 77.06712 
L 102.755905 77.088738 
L 103.080885 81.33941 
L 103.405864 90.471141 
L 103.730844 89.094933 
L 104.055823 74.22499 
L 104.380803 82.761748 
L 104.705782 74.030703 
L 105.030762 73.918437 
L 105.355741 84.550359 
L 105.680721 64.032663 
L 106.0057 75.449695 
L 106.33068 63.292063 
L 106.655659 85.064121 
L 106.980639 72.125068 
L 107.305618 76.686397 
L 107.630598 91.87944 
L 107.955577 96.460059 
L 108.280557 92.997938 
L 108.605536 81.851101 
L 108.930516 56.749492 
L 109.255495 67.589546 
L 109.580475 58.053802 
L 109.905455 82.080602 
L 110.230434 81.804423 
L 110.555414 90.640558 
L 110.880393 86.577085 
L 111.205373 93.886783 
L 111.530352 84.504941 
L 111.855332 88.021604 
L 112.180311 76.728614 
L 112.505291 87.700585 
L 112.83027 78.512584 
L 113.15525 79.120917 
L 113.480229 73.419941 
L 113.805209 72.89048 
L 114.455168 90.174447 
L 114.780147 67.062908 
L 115.105127 82.855123 
L 115.430106 74.62726 
L 115.755086 79.060087 
L 116.080066 99.312436 
L 116.405045 93.34294 
L 116.730025 84.495602 
L 117.055004 84.923739 
L 117.379984 85.019184 
L 118.029943 52.192601 
L 118.354922 90.364844 
L 118.679902 93.201221 
L 119.004881 110.582017 
L 119.329861 60.611053 
L 119.65484 67.932937 
L 119.97982 88.300796 
L 120.304799 80.551536 
L 120.629779 83.451119 
L 120.954758 62.210115 
L 121.279738 73.861546 
L 121.604717 75.498919 
L 121.929697 72.552465 
L 122.254676 79.030331 
L 122.579656 76.308158 
L 122.904636 65.862227 
L 123.229615 81.114671 
L 123.554595 58.10138 
L 123.879574 86.358991 
L 124.204554 65.938349 
L 124.854513 88.393901 
L 125.179492 78.846146 
L 125.504472 95.714012 
L 125.829451 75.447813 
L 126.154431 102.579858 
L 126.47941 92.579085 
L 126.80439 72.331087 
L 127.129369 69.31874 
L 127.454349 63.459085 
L 127.779328 63.736705 
L 128.104308 80.849605 
L 128.429287 78.377971 
L 128.754267 87.007161 
L 129.079247 61.933465 
L 129.404226 74.699601 
L 129.729206 67.10359 
L 130.379165 71.993708 
L 130.704144 90.036578 
L 131.029124 87.928524 
L 131.354103 79.661266 
L 131.679083 90.764601 
L 132.004062 69.154522 
L 132.329042 95.358898 
L 132.654021 78.586881 
L 132.979001 78.342262 
L 133.30398 71.702282 
L 133.62896 93.990445 
L 133.953939 78.487237 
L 134.278919 86.781666 
L 134.603898 83.000361 
L 134.928878 84.352522 
L 135.253857 82.886506 
L 135.578837 80.709152 
L 135.903817 99.376662 
L 136.228796 88.190469 
L 136.553776 86.535722 
L 136.878755 88.187157 
L 137.203735 82.909915 
L 137.528714 101.211872 
L 137.853694 72.157723 
L 138.178673 74.052953 
L 138.503653 61.153434 
L 138.828632 76.646646 
L 139.153612 85.045684 
L 139.478591 75.246348 
L 139.803571 88.426585 
L 140.12855 93.567917 
L 140.45353 58.933306 
L 140.778509 66.340172 
L 141.103489 83.165877 
L 141.428468 83.992993 
L 141.753448 73.336429 
L 142.078428 66.917977 
L 142.403407 71.665626 
L 142.728387 80.388438 
L 143.053366 81.416645 
L 143.378346 92.779429 
L 143.703325 70.97816 
L 144.028305 86.966109 
L 144.353284 84.508369 
L 144.678264 75.545474 
L 145.003243 88.59021 
L 145.328223 70.059923 
L 145.653202 67.932834 
L 145.978182 73.77289 
L 146.303161 77.179126 
L 146.628141 88.401511 
L 146.95312 88.914833 
L 147.603079 68.221372 
L 147.928059 88.635946 
L 148.578018 56.687279 
L 149.227977 94.294013 
L 149.552957 76.211384 
L 149.877936 76.115452 
L 150.202916 96.434012 
L 150.527895 98.761539 
L 151.177854 82.871906 
L 151.502834 74.091434 
L 151.827813 98.075629 
L 152.152793 67.18067 
L 152.477772 81.371144 
L 152.802752 79.128103 
L 153.127731 92.641152 
L 153.452711 76.409456 
L 153.77769 82.710991 
L 154.10267 72.203937 
L 154.427649 88.581968 
L 154.752629 78.518867 
L 155.077609 76.24536 
L 155.402588 76.44174 
L 155.727568 76.20535 
L 156.052547 70.62249 
L 156.377527 109.884573 
L 156.702506 64.959518 
L 157.027486 115.250409 
L 157.352465 72.931452 
L 157.677445 71.52853 
L 158.002424 77.410584 
L 158.327404 96.29643 
L 158.977363 62.539152 
L 159.302342 102.430222 
L 159.627322 80.250409 
L 159.952301 77.431407 
L 160.277281 67.325502 
L 160.60226 76.20031 
L 160.92724 75.482608 
L 161.252219 89.030107 
L 161.577199 73.104721 
L 161.902179 87.468703 
L 162.552138 69.880921 
L 162.877117 89.519542 
L 163.202097 90.73983 
L 163.527076 71.878762 
L 163.852056 88.798142 
L 164.177035 75.349959 
L 164.502015 84.59181 
L 164.826994 58.317076 
L 165.151974 82.507523 
L 165.476953 76.99289 
L 165.801933 85.956633 
L 166.126912 76.537033 
L 166.451892 61.734185 
L 166.776871 76.210965 
L 167.42683 80.926119 
L 167.75181 81.771402 
L 168.07679 86.176679 
L 168.401769 77.954164 
L 168.726749 57.461383 
L 169.051728 71.196172 
L 169.376708 64.870663 
L 169.701687 88.419942 
L 170.026667 79.197818 
L 170.351646 93.727966 
L 170.676626 71.065517 
L 171.001605 68.970989 
L 171.326585 92.428577 
L 171.651564 81.21786 
L 171.976544 87.003691 
L 172.301523 75.44272 
L 172.626503 78.164587 
L 172.951482 75.308627 
L 173.276462 80.816903 
L 173.601441 76.723656 
L 173.926421 45.029647 
L 174.2514 72.608295 
L 174.57638 71.338945 
L 174.90136 74.873915 
L 175.226339 73.938748 
L 175.551319 83.476733 
L 175.876298 71.523617 
L 176.201278 82.609675 
L 176.526257 73.297599 
L 176.851237 73.208849 
L 177.176216 71.199216 
L 177.501196 80.834209 
L 178.151155 59.763806 
L 178.476134 60.013367 
L 178.801114 86.34274 
L 179.126093 85.394927 
L 179.451073 78.723936 
L 179.776052 81.182839 
L 180.101032 67.087812 
L 180.426011 66.034867 
L 180.750991 95.349898 
L 181.075971 87.029401 
L 181.40095 63.109218 
L 181.72593 78.491305 
L 182.050909 76.711695 
L 182.375889 80.086733 
L 182.700868 67.512917 
L 183.025848 82.503561 
L 183.350827 85.237201 
L 183.675807 90.905613 
L 184.000786 71.771217 
L 184.650745 102.18601 
L 184.975725 78.86596 
L 185.625684 66.307611 
L 185.950663 99.308197 
L 186.275643 93.191333 
L 186.600622 78.70317 
L 186.925602 100.725315 
L 187.575561 65.515512 
L 187.900541 90.301649 
L 188.22552 97.194689 
L 188.5505 71.227402 
L 188.875479 101.811409 
L 189.200459 67.816083 
L 189.525438 63.497249 
L 189.850418 92.203286 
L 190.175397 82.277106 
L 190.500377 80.768708 
L 190.825356 73.247959 
L 191.150336 81.877629 
L 191.475315 65.820919 
L 191.800295 69.893823 
L 192.450254 90.523646 
L 192.775233 75.756734 
L 193.100213 82.097315 
L 193.425192 102.47207 
L 193.750172 54.563297 
L 194.075152 74.237625 
L 194.400131 55.736333 
L 194.725111 90.689041 
L 195.05009 83.725532 
L 195.37507 86.391955 
L 195.700049 71.854048 
L 196.025029 73.255733 
L 196.350008 73.43703 
L 196.674988 85.772607 
L 196.999967 70.809523 
L 197.649926 104.14919 
L 197.974906 80.454149 
L 198.299885 80.08811 
L 198.949844 100.870993 
L 199.274824 60.91957 
L 199.599803 102.87173 
L 199.924783 64.56578 
L 200.249762 80.566629 
L 200.574742 81.666625 
L 200.899722 80.089891 
L 201.224701 76.139411 
L 201.549681 61.758871 
L 201.87466 80.334548 
L 202.19964 74.397471 
L 202.524619 79.431309 
L 202.849599 97.06622 
L 203.174578 84.238785 
L 203.499558 47.284688 
L 203.824537 72.720935 
L 204.149517 79.648089 
L 204.474496 108.725273 
L 205.124455 53.466716 
L 205.449435 82.885717 
L 206.099394 90.217602 
L 206.424373 87.597096 
L 206.749353 72.435977 
L 207.074333 104.132851 
L 207.399312 73.64342 
L 207.724292 82.010411 
L 208.049271 84.640486 
L 208.374251 91.087582 
L 208.69923 91.446886 
L 209.02421 66.480386 
L 209.349189 96.048404 
L 209.999148 64.195874 
L 210.324128 90.871458 
L 210.649107 79.100332 
L 210.974087 71.443274 
L 211.299066 81.917422 
L 211.624046 86.848187 
L 211.949025 81.143371 
L 212.274005 70.021256 
L 212.598984 64.97613 
L 212.923964 77.411134 
L 213.248943 78.702984 
L 213.573923 74.632282 
L 213.898903 63.985835 
L 214.223882 88.106633 
L 214.548862 72.131157 
L 214.873841 88.677543 
L 215.198821 96.422146 
L 215.5238 62.553716 
L 215.84878 66.5229 
L 216.173759 92.18284 
L 216.498739 82.045082 
L 216.823718 60.487876 
L 217.148698 85.321509 
L 217.473677 67.376207 
L 217.798657 85.275677 
L 218.123636 75.23463 
L 218.448616 81.281386 
L 218.773595 68.124409 
L 219.098575 96.007154 
L 219.423554 74.328041 
L 219.748534 63.679345 
L 220.073514 64.803418 
L 220.398493 63.225864 
L 221.048452 83.337234 
L 221.373432 65.164571 
L 221.698411 89.659495 
L 222.023391 74.83273 
L 222.34837 96.203471 
L 222.67335 88.604525 
L 222.998329 90.887412 
L 223.323309 86.606104 
L 223.648288 79.669989 
L 223.973268 116.182588 
L 224.298247 84.117868 
L 224.623227 84.333097 
L 225.273186 70.22131 
L 225.598165 68.970768 
L 225.923145 83.595625 
L 226.248124 67.110161 
L 226.573104 68.63371 
L 226.898084 65.973166 
L 227.548043 85.221457 
L 227.873022 67.402795 
L 228.198002 70.984076 
L 228.522981 81.743524 
L 228.847961 71.035224 
L 229.17294 86.433068 
L 229.49792 69.697291 
L 229.822899 80.856433 
L 230.147879 103.731701 
L 230.472858 75.475278 
L 230.797838 61.16795 
L 231.122817 94.38968 
L 231.447797 94.989435 
L 231.772776 83.740193 
L 232.097756 86.5188 
L 232.422735 84.203257 
L 233.072695 77.59941 
L 233.397674 85.667424 
L 233.722654 81.997918 
L 234.047633 85.490306 
L 234.372613 65.496452 
L 234.697592 68.010213 
L 235.022572 80.772099 
L 235.347551 81.048406 
L 235.672531 72.745255 
L 235.99751 91.103583 
L 236.32249 84.690438 
L 236.647469 82.940668 
L 236.972449 90.653682 
L 237.297428 73.214862 
L 237.622408 68.248749 
L 238.272367 80.629352 
L 238.597346 53.229986 
L 238.922326 87.528062 
L 239.247305 72.450336 
L 239.572285 68.27252 
L 239.897265 79.945953 
L 240.222244 49.068675 
L 240.547224 68.394565 
L 240.872203 97.316508 
L 241.522162 59.724731 
L 241.847142 89.007966 
L 242.172121 67.800156 
L 242.497101 71.64615 
L 242.82208 60.672816 
L 243.14706 81.579763 
L 243.797019 87.179992 
L 244.121998 67.029081 
L 244.446978 77.615202 
L 244.771957 81.207304 
L 245.096937 73.893061 
L 245.421916 78.275315 
L 245.746896 91.885559 
L 246.071876 69.290165 
L 246.396855 75.836007 
L 246.721835 68.473232 
L 247.046814 77.136841 
L 247.371794 72.967168 
L 247.696773 87.946044 
L 248.021753 63.885459 
L 248.346732 83.838772 
L 248.671712 73.059825 
L 248.996691 80.998733 
L 249.321671 67.834101 
L 249.97163 83.557067 
L 250.621589 60.493712 
L 250.946568 83.278286 
L 251.271548 65.629848 
L 251.596527 70.039988 
L 251.921507 58.795048 
L 252.246486 70.320419 
L 252.571466 76.298719 
L 252.896446 74.67761 
L 253.221425 75.43665 
L 253.546405 92.765546 
L 253.871384 79.796084 
L 254.196364 98.504246 
L 254.521343 79.579091 
L 255.171302 96.620739 
L 255.496282 63.824378 
L 255.821261 73.620787 
L 256.146241 76.20568 
L 256.47122 91.405266 
L 256.7962 73.384385 
L 257.121179 75.013502 
L 257.446159 79.259504 
L 257.771138 90.410937 
L 258.096118 78.30456 
L 258.421097 72.344538 
L 258.746077 99.599916 
L 259.071057 94.852304 
L 259.396036 107.366386 
L 259.721016 90.062695 
L 260.045995 81.350511 
L 260.370975 95.454154 
L 260.695954 69.200767 
L 261.020934 80.02271 
L 261.345913 79.685547 
L 261.670893 100.251911 
L 261.995872 96.987531 
L 262.320852 75.810169 
L 262.645831 73.152976 
L 262.970811 86.167387 
L 263.29579 82.512198 
L 263.62077 69.278375 
L 263.945749 80.202895 
L 264.270729 78.646611 
L 264.920688 73.069327 
L 265.245667 78.251254 
L 265.895627 59.095522 
L 266.220606 78.881854 
L 266.545586 82.621337 
L 266.870565 72.005496 
L 267.195545 70.826869 
L 267.520524 87.402252 
L 267.845504 76.630318 
L 268.170483 96.506282 
L 268.495463 75.182836 
L 269.145422 103.451248 
L 269.470401 59.40844 
L 269.795381 74.22166 
L 270.12036 60.72559 
L 270.44534 83.530308 
L 271.095299 101.694615 
L 271.420278 77.743904 
L 271.745258 87.940088 
L 272.070238 70.474947 
L 272.395217 90.983392 
L 272.720197 84.953717 
L 273.045176 87.064062 
L 273.370156 71.839954 
L 273.695135 78.004799 
L 274.020115 73.964029 
L 274.345094 85.375401 
L 274.670074 90.798552 
L 274.995053 81.590574 
L 275.320033 84.856006 
L 275.645012 96.18229 
L 275.969992 72.325748 
L 276.619951 66.264635 
L 276.94493 77.429443 
L 277.26991 79.016222 
L 277.594889 69.507275 
L 277.919869 74.578768 
L 278.244848 58.96895 
L 278.569828 102.048413 
L 278.894808 81.622883 
L 279.544767 72.090662 
L 279.869746 86.552865 
L 280.194726 79.048677 
L 280.519705 87.654501 
L 280.844685 87.558786 
L 281.169664 73.463718 
L 281.494644 78.676563 
L 281.819623 92.471235 
L 282.144603 86.057771 
L 282.469582 68.919673 
L 282.794562 88.408604 
L 283.119541 62.470119 
L 283.444521 99.206531 
L 283.7695 89.884554 
L 284.09448 91.248918 
L 284.419459 95.094636 
L 284.744439 100.780436 
L 285.069419 66.396389 
L 285.394398 78.506787 
L 285.719378 81.572784 
L 286.044357 71.730279 
L 286.369337 66.268892 
L 286.694316 102.586812 
L 287.019296 74.269521 
L 287.344275 82.537198 
L 287.669255 84.772046 
L 287.994234 91.920449 
L 288.644193 71.784306 
L 288.969173 89.875839 
L 289.294152 72.264763 
L 289.619132 69.783499 
L 289.944111 74.742391 
L 290.269091 88.748876 
L 290.59407 63.440304 
L 290.91905 55.996917 
L 291.244029 62.638356 
L 291.569009 77.327835 
L 291.893989 72.488746 
L 292.218968 86.291495 
L 292.543948 88.735279 
L 293.518886 78.243083 
L 293.843866 82.537938 
L 294.168845 78.258131 
L 294.493825 83.001124 
L 294.818804 75.600894 
L 295.143784 80.006668 
L 295.468763 76.870039 
L 295.793743 71.852604 
L 296.118722 75.624811 
L 296.443702 98.143216 
L 296.768681 67.686666 
L 297.093661 72.784723 
L 297.41864 71.672727 
L 297.74362 66.125297 
L 298.0686 79.971806 
L 298.718559 59.374607 
L 299.043538 66.312013 
L 299.368518 62.011541 
L 299.693497 72.369949 
L 300.343456 77.271363 
L 300.668436 92.44951 
L 300.993415 90.657506 
L 301.318395 74.616809 
L 301.643374 97.785342 
L 301.968354 88.330981 
L 302.293333 67.269438 
L 302.618313 91.429643 
L 302.943292 72.801007 
L 303.268272 69.385237 
L 303.593251 77.508959 
L 303.918231 79.747082 
L 304.24321 70.774101 
L 304.56819 97.628511 
L 304.89317 76.031813 
L 305.218149 103.834389 
L 305.543129 103.136563 
L 305.868108 88.250409 
L 306.193088 97.795953 
L 306.518067 84.410319 
L 307.168026 74.232422 
L 307.493006 83.882457 
L 307.817985 61.249299 
L 308.142965 58.893552 
L 308.467944 86.922535 
L 308.792924 89.490044 
L 309.117903 81.269473 
L 309.442883 88.587739 
L 309.767862 90.234025 
L 310.092842 65.178697 
L 310.417821 62.61036 
L 310.742801 83.931998 
L 311.067781 86.818321 
L 311.39276 79.062242 
L 311.71774 82.21828 
L 312.042719 68.387944 
L 312.367699 95.947606 
L 312.692678 78.175786 
L 313.017658 73.426781 
L 313.342637 84.633991 
L 313.667617 80.211208 
L 313.992596 79.029406 
L 314.317576 70.205607 
L 314.642555 102.129964 
L 314.967535 84.097012 
L 315.292514 87.950036 
L 315.617494 89.122788 
L 315.942473 88.648626 
L 316.267453 77.957683 
L 316.592432 97.198507 
L 317.242391 76.137335 
L 317.567371 80.250134 
L 317.892351 63.784871 
L 318.21733 86.158998 
L 318.54231 85.995112 
L 318.867289 69.973862 
L 319.517248 80.25474 
L 319.842228 84.344743 
L 320.167207 93.754323 
L 320.492187 89.737672 
L 321.142146 71.962555 
L 321.467125 76.981725 
L 321.792105 75.300688 
L 322.117084 97.235026 
L 322.442064 82.335597 
L 322.767043 73.15611 
L 323.092023 59.916285 
L 323.741982 91.169878 
L 324.066962 76.629952 
L 324.391941 96.5471 
L 324.716921 74.568163 
L 325.0419 94.213441 
L 325.36688 88.41202 
L 326.016839 57.279162 
L 326.666798 87.798315 
L 326.991777 80.13033 
L 327.316757 80.208365 
L 327.641736 96.534098 
L 327.966716 86.150747 
L 328.291695 67.89673 
L 328.616675 82.550399 
L 328.941654 81.43046 
L 329.591613 67.064286 
L 329.916593 73.063667 
L 330.241572 76.724903 
L 330.566552 88.781714 
L 330.891532 73.189854 
L 331.216511 99.662501 
L 331.541491 65.521966 
L 331.86647 101.58451 
L 332.19145 79.771326 
L 332.516429 80.893736 
L 332.841409 56.185982 
L 333.166388 83.676317 
L 333.491368 63.302755 
L 333.816347 85.451465 
L 334.141327 88.248678 
L 334.466306 76.314616 
L 334.791286 79.288258 
L 335.116265 75.362822 
L 335.441245 94.059276 
L 335.766224 71.234771 
L 336.091204 74.770959 
L 336.416183 109.173261 
L 337.066143 72.395962 
L 337.391122 86.685159 
L 337.716102 76.455026 
L 338.041081 80.082268 
L 338.366061 86.108287 
L 338.69104 81.190321 
L 339.01602 71.298426 
L 339.340999 90.831741 
L 339.990958 71.412135 
L 340.315938 73.120501 
L 340.640917 101.157429 
L 340.965897 55.503808 
L 341.290876 98.878756 
L 341.615856 83.706302 
L 341.940835 80.149273 
L 342.265815 87.742908 
L 342.590794 54.540922 
L 342.915774 73.514184 
L 343.240753 72.594195 
L 343.565733 73.668142 
L 343.890713 79.206241 
L 344.215692 70.878448 
L 344.540672 81.065111 
L 344.865651 59.766696 
L 345.190631 88.622263 
L 345.51561 74.275441 
L 345.84059 96.677856 
L 346.165569 88.783069 
L 346.490549 97.073785 
L 346.815528 71.218033 
L 347.140508 81.276867 
L 347.465487 65.133992 
L 347.790467 76.896852 
L 348.115446 55.850443 
L 348.440426 71.38143 
L 348.765405 66.824858 
L 349.090385 85.05965 
L 349.415364 76.033457 
L 349.740344 92.45196 
L 350.065324 73.211288 
L 350.390303 76.962554 
L 350.715283 56.244142 
L 351.040262 80.449783 
L 351.365242 93.497048 
L 351.690221 84.605096 
L 352.015201 63.482748 
L 352.34018 70.803507 
L 352.66516 87.444419 
L 352.990139 72.190789 
L 353.315119 92.196008 
L 353.640098 88.134544 
L 353.965078 78.864269 
L 354.290057 88.046366 
L 354.615037 85.463688 
L 354.940016 80.498724 
L 355.264996 78.530561 
L 355.589975 72.240547 
L 355.914955 102.736626 
L 356.239934 84.405574 
L 356.564914 93.225477 
L 356.889894 78.362005 
L 357.214873 86.546067 
L 357.539853 87.352573 
L 357.864832 83.2695 
L 358.189812 63.688287 
L 358.514791 76.731281 
L 358.839771 82.49805 
L 359.48973 62.164594 
L 359.814709 86.421636 
L 360.139689 80.222385 
L 360.464668 86.139074 
L 360.789648 73.330467 
L 361.114627 88.202736 
L 361.439607 61.783167 
L 361.764586 86.912421 
L 362.089566 88.759018 
L 362.414545 81.085818 
L 362.739525 67.387682 
L 363.064505 74.001634 
L 363.389484 72.785133 
L 363.714464 66.998672 
L 364.039443 69.418553 
L 364.364423 78.956472 
L 364.689402 75.222314 
L 365.014382 73.391424 
L 365.664341 92.89686 
L 365.98932 65.787119 
L 366.3143 87.172342 
L 366.639279 75.169159 
L 366.964259 77.779557 
L 367.289238 83.457187 
L 367.939197 66.45373 
L 368.264177 93.475421 
L 368.589156 91.804046 
L 368.914136 84.735384 
L 369.239115 85.948032 
L 369.564095 69.132992 
L 369.889075 68.970046 
L 370.214054 66.560029 
L 370.539034 74.138627 
L 370.864013 95.78189 
L 371.188993 86.192692 
L 371.513972 84.78306 
L 372.163931 69.3414 
L 372.488911 80.606123 
L 372.81389 86.2572 
L 373.463849 79.710121 
L 373.788829 74.104401 
L 374.113808 74.034962 
L 374.438788 89.36416 
L 374.763767 73.691246 
L 375.088747 71.628747 
L 375.738706 63.788672 
L 376.063686 67.801188 
L 376.713645 90.63056 
L 377.038624 61.867567 
L 377.688583 74.504629 
L 378.013563 69.635906 
L 378.338542 73.624644 
L 378.663522 83.512307 
L 378.988501 88.596086 
L 379.313481 59.292224 
L 379.63846 62.030997 
L 379.96344 75.445062 
L 380.288419 94.355304 
L 380.613399 86.975065 
L 380.938378 71.44557 
L 381.263358 79.161808 
L 381.588337 93.366799 
L 381.913317 85.072657 
L 382.238296 59.001849 
L 382.563276 78.42573 
L 382.888256 70.693785 
L 383.213235 72.311232 
L 383.538215 82.361384 
L 383.863194 58.612973 
L 384.188174 78.954466 
L 384.513153 52.810342 
L 384.838133 80.896257 
L 385.163112 88.996583 
L 385.488092 91.875659 
L 385.813071 58.958117 
L 386.138051 55.515928 
L 386.46303 60.638984 
L 386.78801 93.347162 
L 387.112989 91.882576 
L 387.437969 66.829481 
L 388.087928 83.001219 
L 388.412907 95.693185 
L 388.737887 70.426224 
L 389.062867 83.315577 
L 389.387846 84.264991 
L 389.712826 81.990873 
L 390.037805 84.500477 
L 390.362785 64.700848 
L 390.687764 66.476442 
L 391.012744 103.16387 
L 391.337723 80.195388 
L 391.662703 82.195334 
L 391.987682 73.710161 
L 392.312662 97.835372 
L 392.637641 69.654477 
L 392.962621 58.813878 
L 393.2876 85.260083 
L 393.61258 85.230106 
L 394.262539 62.374577 
L 394.587518 89.793759 
L 394.912498 75.593383 
L 395.237477 74.988427 
L 395.562457 66.22294 
L 395.887437 82.490244 
L 396.212416 79.580017 
L 396.537396 67.387242 
L 396.862375 74.240417 
L 397.187355 72.433063 
L 397.512334 76.521723 
L 397.837314 61.557099 
L 398.162293 79.178202 
L 398.487273 72.611011 
L 398.487273 72.611011 
" style="fill:none;stroke:#1f77b4;stroke-linecap:square;stroke-width:1.5;"/>
   </g>
   <g id="patch_3">
    <path d="M 57.6 119.740235 
L 57.6 41.472 
" style="fill:none;stroke:#000000;stroke-linecap:square;stroke-linejoin:miter;stroke-width:0.8;"/>
   </g>
   <g id="patch_4">
    <path d="M 57.6 119.740235 
L 414.72 119.740235 
" style="fill:none;stroke:#000000;stroke-linecap:square;stroke-linejoin:miter;stroke-width:0.8;"/>
   </g>
  </g>
  <g id="axes_2">
   <g id="patch_5">
    <path d="M 57.6 213.662118 
L 414.72 213.662118 
L 414.72 135.393882 
L 57.6 135.393882 
z
" style="fill:#ffffff;"/>
   </g>
   <g id="matplotlib.axis_3">
    <g id="xtick_7">
     <g id="line2d_11">
      <g>
       <use style="stroke:#000000;stroke-width:0.8;" x="73.832727" xlink:href="#ma1a04f237a" y="213.662118"/>
      </g>
     </g>
     <g id="text_10">
      <!-- 0 -->
      <g transform="translate(71.287727 226.740868)scale(0.08 -0.08)">
       <use xlink:href="#DejaVuSans-48"/>
      </g>
     </g>
    </g>
    <g id="xtick_8">
     <g id="line2d_12">
      <g>
       <use style="stroke:#000000;stroke-width:0.8;" x="138.828632" xlink:href="#ma1a04f237a" y="213.662118"/>
      </g>
     </g>
     <g id="text_11">
      <!-- 200 -->
      <g transform="translate(131.193632 226.740868)scale(0.08 -0.08)">
       <use xlink:href="#DejaVuSans-50"/>
       <use x="63.623047" xlink:href="#DejaVuSans-48"/>
       <use x="127.246094" xlink:href="#DejaVuSans-48"/>
      </g>
     </g>
    </g>
    <g id="xtick_9">
     <g id="line2d_13">
      <g>
       <use style="stroke:#000000;stroke-width:0.8;" x="203.824537" xlink:href="#ma1a04f237a" y="213.662118"/>
      </g>
     </g>
     <g id="text_12">
      <!-- 400 -->
      <g transform="translate(196.189537 226.740868)scale(0.08 -0.08)">
       <use xlink:href="#DejaVuSans-52"/>
       <use x="63.623047" xlink:href="#DejaVuSans-48"/>
       <use x="127.246094" xlink:href="#DejaVuSans-48"/>
      </g>
     </g>
    </g>
    <g id="xtick_10">
     <g id="line2d_14">
      <g>
       <use style="stroke:#000000;stroke-width:0.8;" x="268.820442" xlink:href="#ma1a04f237a" y="213.662118"/>
      </g>
     </g>
     <g id="text_13">
      <!-- 600 -->
      <g transform="translate(261.185442 226.740868)scale(0.08 -0.08)">
       <use xlink:href="#DejaVuSans-54"/>
       <use x="63.623047" xlink:href="#DejaVuSans-48"/>
       <use x="127.246094" xlink:href="#DejaVuSans-48"/>
      </g>
     </g>
    </g>
    <g id="xtick_11">
     <g id="line2d_15">
      <g>
       <use style="stroke:#000000;stroke-width:0.8;" x="333.816347" xlink:href="#ma1a04f237a" y="213.662118"/>
      </g>
     </g>
     <g id="text_14">
      <!-- 800 -->
      <g transform="translate(326.181347 226.740868)scale(0.08 -0.08)">
       <use xlink:href="#DejaVuSans-56"/>
       <use x="63.623047" xlink:href="#DejaVuSans-48"/>
       <use x="127.246094" xlink:href="#DejaVuSans-48"/>
      </g>
     </g>
    </g>
    <g id="xtick_12">
     <g id="line2d_16">
      <g>
       <use style="stroke:#000000;stroke-width:0.8;" x="398.812252" xlink:href="#ma1a04f237a" y="213.662118"/>
      </g>
     </g>
     <g id="text_15">
      <!-- 1000 -->
      <g transform="translate(388.632252 226.740868)scale(0.08 -0.08)">
       <use xlink:href="#DejaVuSans-49"/>
       <use x="63.623047" xlink:href="#DejaVuSans-48"/>
       <use x="127.246094" xlink:href="#DejaVuSans-48"/>
       <use x="190.869141" xlink:href="#DejaVuSans-48"/>
      </g>
     </g>
    </g>
   </g>
   <g id="matplotlib.axis_4">
    <g id="ytick_4">
     <g id="line2d_17">
      <g>
       <use style="stroke:#000000;stroke-width:0.8;" x="57.6" xlink:href="#m66afb01a5f" y="207.192432"/>
      </g>
     </g>
     <g id="text_16">
      <!-- −0.1 -->
      <defs>
       <path d="M 10.6875 12.40625 
L 21 12.40625 
L 21 0 
L 10.6875 0 
z
" id="DejaVuSans-46"/>
      </defs>
      <g transform="translate(31.17375 210.231807)scale(0.08 -0.08)">
       <use xlink:href="#DejaVuSans-8722"/>
       <use x="83.789062" xlink:href="#DejaVuSans-48"/>
       <use x="147.412109" xlink:href="#DejaVuSans-46"/>
       <use x="179.199219" xlink:href="#DejaVuSans-49"/>
      </g>
     </g>
    </g>
    <g id="ytick_5">
     <g id="line2d_18">
      <g>
       <use style="stroke:#000000;stroke-width:0.8;" x="57.6" xlink:href="#m66afb01a5f" y="178.912977"/>
      </g>
     </g>
     <g id="text_17">
      <!-- 0.0 -->
      <g transform="translate(37.8775 181.952352)scale(0.08 -0.08)">
       <use xlink:href="#DejaVuSans-48"/>
       <use x="63.623047" xlink:href="#DejaVuSans-46"/>
       <use x="95.410156" xlink:href="#DejaVuSans-48"/>
      </g>
     </g>
    </g>
    <g id="ytick_6">
     <g id="line2d_19">
      <g>
       <use style="stroke:#000000;stroke-width:0.8;" x="57.6" xlink:href="#m66afb01a5f" y="150.633522"/>
      </g>
     </g>
     <g id="text_18">
      <!-- 0.1 -->
      <g transform="translate(37.8775 153.672897)scale(0.08 -0.08)">
       <use xlink:href="#DejaVuSans-48"/>
       <use x="63.623047" xlink:href="#DejaVuSans-46"/>
       <use x="95.410156" xlink:href="#DejaVuSans-49"/>
      </g>
     </g>
    </g>
   </g>
   <g id="line2d_20">
    <path clip-path="url(#p5640b2c2b5)" d="M 73.832727 177.87895 
L 76.757543 177.752215 
L 80.007338 177.372172 
L 85.53199 176.450734 
L 89.106765 175.975329 
L 91.706601 175.837906 
L 93.981458 175.933267 
L 95.931335 176.211676 
L 97.881212 176.685399 
L 99.831089 177.371184 
L 102.105946 178.452365 
L 104.380803 179.829565 
L 106.655659 181.490099 
L 109.255495 183.688835 
L 112.505291 186.799279 
L 117.704963 192.208178 
L 121.929697 196.447817 
L 124.529533 198.739717 
L 126.80439 200.427037 
L 128.754267 201.592031 
L 130.379165 202.331689 
L 132.004062 202.853066 
L 133.62896 203.14625 
L 135.253857 203.21293 
L 136.878755 203.054424 
L 138.828632 202.59913 
L 140.778509 201.887829 
L 143.053366 200.804003 
L 146.303161 198.981082 
L 150.852875 196.449847 
L 153.127731 195.423513 
L 155.077609 194.753253 
L 157.027486 194.309084 
L 158.977363 194.090233 
L 160.92724 194.089732 
L 163.202097 194.329314 
L 166.126912 194.889106 
L 171.976544 196.088399 
L 174.2514 196.293007 
L 176.201278 196.25351 
L 178.151155 195.986764 
L 180.101032 195.484756 
L 182.050909 194.755975 
L 184.000786 193.800394 
L 186.275643 192.441771 
L 188.875479 190.624512 
L 192.450254 187.810787 
L 197.649926 183.373835 
L 205.124455 176.640611 
L 217.473677 165.362274 
L 220.073514 163.361946 
L 222.34837 161.886246 
L 224.298247 160.874846 
L 225.923145 160.239501 
L 227.548043 159.820824 
L 229.17294 159.629561 
L 230.797838 159.67459 
L 232.422735 159.965804 
L 234.047633 160.506845 
L 235.672531 161.284691 
L 237.297428 162.297529 
L 239.247305 163.808846 
L 241.197183 165.605741 
L 243.472039 168.011492 
L 246.071876 171.100107 
L 249.64665 175.743207 
L 261.345913 191.302888 
L 264.920688 195.569057 
L 268.170483 199.122388 
L 271.420278 202.318146 
L 274.020115 204.581886 
L 276.294971 206.312286 
L 278.569828 207.766116 
L 280.519705 208.760978 
L 282.469582 209.498774 
L 284.09448 209.900527 
L 285.719378 210.091279 
L 287.344275 210.065441 
L 288.969173 209.828211 
L 290.59407 209.372785 
L 292.543948 208.558239 
L 294.493825 207.472049 
L 296.768681 205.920278 
L 299.693497 203.606979 
L 307.493006 197.225938 
L 310.092842 195.465513 
L 312.692678 194.000799 
L 315.292514 192.814923 
L 319.517248 191.20581 
L 322.767043 189.851456 
L 324.716921 188.811553 
L 326.666798 187.505605 
L 328.291695 186.164098 
L 329.916593 184.548015 
L 331.541491 182.63766 
L 333.491368 179.95136 
L 335.441245 176.842579 
L 337.716102 172.731816 
L 340.315938 167.54142 
L 348.765405 150.133855 
L 350.715283 146.769876 
L 352.34018 144.349314 
L 353.965078 142.336268 
L 355.264996 141.045011 
L 356.564914 140.055654 
L 357.864832 139.379121 
L 358.839771 139.07937 
L 359.814709 138.954915 
L 360.789648 139.003566 
L 361.764586 139.226742 
L 363.064505 139.777672 
L 364.364423 140.602565 
L 365.664341 141.685191 
L 367.289238 143.350438 
L 369.239115 145.739906 
L 371.513972 148.936778 
L 374.763767 153.956742 
L 380.613399 163.038938 
L 383.213235 166.649213 
L 385.488092 169.452034 
L 387.762948 171.860819 
L 389.712826 173.588667 
L 391.337723 174.781052 
L 392.962621 175.738479 
L 394.587518 176.457836 
L 396.212416 176.937091 
L 397.837314 177.18211 
L 398.487273 177.211513 
L 398.487273 177.211513 
" style="fill:none;stroke:#1f77b4;stroke-linecap:square;stroke-width:1.5;"/>
   </g>
   <g id="patch_6">
    <path d="M 57.6 213.662118 
L 57.6 135.393882 
" style="fill:none;stroke:#000000;stroke-linecap:square;stroke-linejoin:miter;stroke-width:0.8;"/>
   </g>
   <g id="patch_7">
    <path d="M 57.6 213.662118 
L 414.72 213.662118 
" style="fill:none;stroke:#000000;stroke-linecap:square;stroke-linejoin:miter;stroke-width:0.8;"/>
   </g>
  </g>
  <g id="axes_3">
   <g id="patch_8">
    <path d="M 57.6 307.584 
L 414.72 307.584 
L 414.72 229.315765 
L 57.6 229.315765 
z
" style="fill:#ffffff;"/>
   </g>
   <g id="matplotlib.axis_5">
    <g id="xtick_13">
     <g id="line2d_21">
      <g>
       <use style="stroke:#000000;stroke-width:0.8;" x="73.832727" xlink:href="#ma1a04f237a" y="307.584"/>
      </g>
     </g>
     <g id="text_19">
      <!-- 0 -->
      <g transform="translate(71.287727 320.66275)scale(0.08 -0.08)">
       <use xlink:href="#DejaVuSans-48"/>
      </g>
     </g>
    </g>
    <g id="xtick_14">
     <g id="line2d_22">
      <g>
       <use style="stroke:#000000;stroke-width:0.8;" x="138.828632" xlink:href="#ma1a04f237a" y="307.584"/>
      </g>
     </g>
     <g id="text_20">
      <!-- 200 -->
      <g transform="translate(131.193632 320.66275)scale(0.08 -0.08)">
       <use xlink:href="#DejaVuSans-50"/>
       <use x="63.623047" xlink:href="#DejaVuSans-48"/>
       <use x="127.246094" xlink:href="#DejaVuSans-48"/>
      </g>
     </g>
    </g>
    <g id="xtick_15">
     <g id="line2d_23">
      <g>
       <use style="stroke:#000000;stroke-width:0.8;" x="203.824537" xlink:href="#ma1a04f237a" y="307.584"/>
      </g>
     </g>
     <g id="text_21">
      <!-- 400 -->
      <g transform="translate(196.189537 320.66275)scale(0.08 -0.08)">
       <use xlink:href="#DejaVuSans-52"/>
       <use x="63.623047" xlink:href="#DejaVuSans-48"/>
       <use x="127.246094" xlink:href="#DejaVuSans-48"/>
      </g>
     </g>
    </g>
    <g id="xtick_16">
     <g id="line2d_24">
      <g>
       <use style="stroke:#000000;stroke-width:0.8;" x="268.820442" xlink:href="#ma1a04f237a" y="307.584"/>
      </g>
     </g>
     <g id="text_22">
      <!-- 600 -->
      <g transform="translate(261.185442 320.66275)scale(0.08 -0.08)">
       <use xlink:href="#DejaVuSans-54"/>
       <use x="63.623047" xlink:href="#DejaVuSans-48"/>
       <use x="127.246094" xlink:href="#DejaVuSans-48"/>
      </g>
     </g>
    </g>
    <g id="xtick_17">
     <g id="line2d_25">
      <g>
       <use style="stroke:#000000;stroke-width:0.8;" x="333.816347" xlink:href="#ma1a04f237a" y="307.584"/>
      </g>
     </g>
     <g id="text_23">
      <!-- 800 -->
      <g transform="translate(326.181347 320.66275)scale(0.08 -0.08)">
       <use xlink:href="#DejaVuSans-56"/>
       <use x="63.623047" xlink:href="#DejaVuSans-48"/>
       <use x="127.246094" xlink:href="#DejaVuSans-48"/>
      </g>
     </g>
    </g>
    <g id="xtick_18">
     <g id="line2d_26">
      <g>
       <use style="stroke:#000000;stroke-width:0.8;" x="398.812252" xlink:href="#ma1a04f237a" y="307.584"/>
      </g>
     </g>
     <g id="text_24">
      <!-- 1000 -->
      <g transform="translate(388.632252 320.66275)scale(0.08 -0.08)">
       <use xlink:href="#DejaVuSans-49"/>
       <use x="63.623047" xlink:href="#DejaVuSans-48"/>
       <use x="127.246094" xlink:href="#DejaVuSans-48"/>
       <use x="190.869141" xlink:href="#DejaVuSans-48"/>
      </g>
     </g>
    </g>
   </g>
   <g id="matplotlib.axis_6">
    <g id="ytick_7">
     <g id="line2d_27">
      <g>
       <use style="stroke:#000000;stroke-width:0.8;" x="57.6" xlink:href="#m66afb01a5f" y="299.498595"/>
      </g>
     </g>
     <g id="text_25">
      <!-- −0.2 -->
      <g transform="translate(31.17375 302.53797)scale(0.08 -0.08)">
       <use xlink:href="#DejaVuSans-8722"/>
       <use x="83.789062" xlink:href="#DejaVuSans-48"/>
       <use x="147.412109" xlink:href="#DejaVuSans-46"/>
       <use x="179.199219" xlink:href="#DejaVuSans-50"/>
      </g>
     </g>
    </g>
    <g id="ytick_8">
     <g id="line2d_28">
      <g>
       <use style="stroke:#000000;stroke-width:0.8;" x="57.6" xlink:href="#m66afb01a5f" y="272.055026"/>
      </g>
     </g>
     <g id="text_26">
      <!-- 0.0 -->
      <g transform="translate(37.8775 275.094401)scale(0.08 -0.08)">
       <use xlink:href="#DejaVuSans-48"/>
       <use x="63.623047" xlink:href="#DejaVuSans-46"/>
       <use x="95.410156" xlink:href="#DejaVuSans-48"/>
      </g>
     </g>
    </g>
    <g id="ytick_9">
     <g id="line2d_29">
      <g>
       <use style="stroke:#000000;stroke-width:0.8;" x="57.6" xlink:href="#m66afb01a5f" y="244.611457"/>
      </g>
     </g>
     <g id="text_27">
      <!-- 0.2 -->
      <g transform="translate(37.8775 247.650832)scale(0.08 -0.08)">
       <use xlink:href="#DejaVuSans-48"/>
       <use x="63.623047" xlink:href="#DejaVuSans-46"/>
       <use x="95.410156" xlink:href="#DejaVuSans-50"/>
      </g>
     </g>
    </g>
   </g>
   <g id="line2d_30">
    <path clip-path="url(#pbb6d7474bc)" d="M 73.832727 271.671041 
L 74.157707 271.82564 
L 74.482686 272.406525 
L 74.807666 272.122532 
L 75.457625 272.259362 
L 75.782604 270.965143 
L 76.432563 272.973423 
L 76.757543 272.192615 
L 77.082523 272.39686 
L 78.057461 271.331971 
L 78.382441 272.462238 
L 78.70742 272.411378 
L 79.0324 271.587024 
L 79.357379 271.687074 
L 79.682359 271.414116 
L 80.007338 273.661213 
L 80.332318 272.232168 
L 80.657297 272.420328 
L 80.982277 272.931403 
L 81.307256 270.570543 
L 81.957215 272.959618 
L 82.282195 272.039258 
L 82.607174 272.286812 
L 82.932154 271.509858 
L 83.257133 272.221964 
L 83.582113 272.501379 
L 83.907093 270.8778 
L 84.232072 272.209564 
L 84.557052 270.523197 
L 84.882031 272.051604 
L 85.207011 271.188128 
L 85.53199 272.020021 
L 85.85697 270.032346 
L 86.181949 272.964367 
L 86.506929 272.626077 
L 86.831908 270.624516 
L 87.156888 272.729775 
L 87.481867 273.986894 
L 88.131826 271.196583 
L 88.456806 271.333121 
L 89.106765 274.490851 
L 89.431744 271.123409 
L 89.756724 272.880707 
L 90.081704 270.834711 
L 90.406683 272.344302 
L 90.731663 272.982323 
L 91.056642 272.652839 
L 91.381622 268.09247 
L 91.706601 272.088351 
L 92.031581 272.965004 
L 92.35656 270.267355 
L 92.68154 273.979127 
L 93.006519 272.229307 
L 93.331499 274.20824 
L 93.656478 271.733558 
L 93.981458 268.225052 
L 94.306437 272.867586 
L 94.631417 274.823996 
L 94.956396 271.860573 
L 95.281376 271.35439 
L 95.606355 271.534019 
L 95.931335 272.81345 
L 96.256314 270.618738 
L 96.581294 270.922468 
L 96.906274 273.637684 
L 97.231253 271.099948 
L 97.556233 272.194415 
L 97.881212 271.268099 
L 98.206192 272.989408 
L 98.531171 271.035086 
L 98.856151 271.820788 
L 99.18113 271.76203 
L 99.50611 271.181391 
L 99.831089 271.330395 
L 100.481048 273.161981 
L 100.806028 272.9165 
L 101.131007 272.065274 
L 101.455987 272.668132 
L 101.780966 272.697451 
L 102.105946 272.15326 
L 102.755905 272.064042 
L 103.080885 272.063728 
L 103.730844 272.266841 
L 104.055823 271.903849 
L 104.380803 272.19675 
L 104.705782 271.800807 
L 105.030762 271.743594 
L 105.355741 272.425089 
L 105.680721 270.852019 
L 106.0057 271.718213 
L 106.33068 270.453911 
L 106.655659 272.710664 
L 106.980639 271.18607 
L 107.305618 271.718061 
L 107.630598 273.907058 
L 107.955577 274.780647 
L 108.280557 274.399784 
L 108.605536 272.538493 
L 108.930516 267.693235 
L 109.255495 269.653036 
L 109.580475 267.407749 
L 109.905455 272.726839 
L 110.230434 272.696969 
L 110.555414 275.021915 
L 110.880393 274.067894 
L 111.205373 276.260696 
L 111.530352 273.647953 
L 111.855332 274.824547 
L 112.180311 271.247311 
L 112.505291 274.962482 
L 112.83027 271.812383 
L 113.15525 272.027922 
L 113.480229 269.833761 
L 113.805209 269.538763 
L 114.455168 276.758092 
L 114.780147 266.680419 
L 115.105127 273.731102 
L 115.430106 269.896585 
L 115.755086 271.989694 
L 116.080066 282.161555 
L 116.405045 279.372643 
L 116.730025 274.875066 
L 117.055004 275.18685 
L 117.379984 275.325684 
L 118.029943 256.100815 
L 118.354922 278.818897 
L 118.679902 280.740034 
L 119.004881 291.97111 
L 119.329861 259.99608 
L 119.65484 264.58606 
L 119.97982 278.224767 
L 120.304799 272.993879 
L 120.629779 275.058921 
L 120.954758 259.835644 
L 121.279738 268.145296 
L 121.604717 269.296119 
L 121.929697 267.007614 
L 122.254676 271.928398 
L 122.579656 269.78645 
L 122.904636 261.404477 
L 123.229615 273.613467 
L 123.554595 254.680616 
L 123.879574 278.043462 
L 124.204554 260.818433 
L 124.854513 280.064467 
L 125.179492 271.748233 
L 125.504472 286.796888 
L 125.829451 268.672668 
L 126.154431 293.407132 
L 126.47941 284.40792 
L 126.80439 265.655777 
L 127.129369 262.755828 
L 127.454349 257.097444 
L 127.779328 257.229243 
L 128.104308 273.656581 
L 128.429287 271.259028 
L 128.754267 279.734574 
L 129.079247 254.965674 
L 129.404226 267.574572 
L 129.729206 259.925503 
L 130.379165 264.746818 
L 130.704144 283.11744 
L 131.029124 281.009291 
L 131.354103 272.536073 
L 131.679083 284.016988 
L 132.004062 261.638266 
L 132.329042 288.881247 
L 132.654021 271.421196 
L 132.979001 271.163686 
L 133.30398 264.200223 
L 133.62896 287.595224 
L 133.953939 271.311671 
L 134.278919 280.041397 
L 134.603898 276.063576 
L 134.928878 277.488732 
L 135.253857 275.943714 
L 135.578837 273.649702 
L 135.903817 293.278015 
L 136.228796 281.502815 
L 136.553776 279.752106 
L 136.878755 281.46439 
L 137.203735 275.933646 
L 137.528714 294.975502 
L 137.853694 264.752451 
L 138.178673 266.736973 
L 138.503653 253.461442 
L 138.828632 269.439886 
L 139.153612 278.03638 
L 139.478591 268.038268 
L 139.803571 281.402756 
L 140.12855 286.531952 
L 140.45353 251.762017 
L 140.778509 259.255913 
L 141.103489 275.985738 
L 141.428468 276.773745 
L 141.753448 266.333766 
L 142.078428 260.147885 
L 142.403407 264.804648 
L 142.728387 273.196705 
L 143.053366 274.163671 
L 143.378346 284.8438 
L 143.703325 264.382845 
L 144.028305 279.252683 
L 144.353284 276.935523 
L 144.678264 268.733101 
L 145.003243 280.534427 
L 145.328223 263.886358 
L 145.653202 262.076335 
L 145.978182 267.29534 
L 146.303161 270.302475 
L 146.628141 279.987933 
L 146.95312 280.350061 
L 147.603079 262.870504 
L 147.928059 279.881056 
L 148.578018 253.762625 
L 149.227977 284.091566 
L 149.552957 269.700343 
L 149.877936 269.647825 
L 150.202916 285.406181 
L 150.527895 287.067054 
L 151.177854 274.824832 
L 151.502834 268.246616 
L 151.827813 286.024035 
L 152.152793 263.243351 
L 152.477772 273.63828 
L 152.802752 272.007408 
L 153.127731 281.677311 
L 153.452711 270.077772 
L 153.77769 274.533953 
L 154.10267 267.16285 
L 154.427649 278.580797 
L 154.752629 271.58862 
L 155.077609 270.030643 
L 155.402588 270.176221 
L 155.727568 270.025685 
L 156.052547 266.263164 
L 156.377527 292.697999 
L 156.702506 262.520193 
L 157.027486 296.114302 
L 157.352465 267.890708 
L 157.677445 266.972628 
L 158.002424 270.875531 
L 158.327404 283.34027 
L 158.977363 261.09964 
L 159.302342 287.323425 
L 159.627322 272.748701 
L 159.952301 270.897719 
L 160.277281 264.260569 
L 160.60226 270.087548 
L 160.92724 269.613731 
L 161.252219 278.533154 
L 161.577199 268.037782 
L 161.902179 277.525315 
L 162.552138 265.868501 
L 162.877117 278.932795 
L 163.202097 279.769254 
L 163.527076 267.15136 
L 163.852056 278.515804 
L 164.177035 269.459357 
L 164.502015 275.714035 
L 164.826994 257.848305 
L 165.151974 274.3192 
L 165.476953 270.54421 
L 165.801933 276.716375 
L 166.126912 270.215237 
L 166.451892 259.911031 
L 166.776871 269.9706 
L 167.42683 273.276495 
L 167.75181 273.880912 
L 168.07679 277.024394 
L 168.401769 271.168557 
L 168.726749 256.44826 
L 169.051728 266.287054 
L 169.376708 261.682887 
L 169.701687 278.762855 
L 170.026667 272.057725 
L 170.351646 282.702942 
L 170.676626 266.078163 
L 171.001605 264.512132 
L 171.326585 281.850034 
L 171.651564 273.557242 
L 171.976544 277.868359 
L 172.301523 269.2556 
L 172.626503 271.284991 
L 172.951482 269.143004 
L 173.276462 273.273288 
L 173.601441 270.197721 
L 173.926421 246.341681 
L 174.2514 267.094231 
L 174.57638 266.13507 
L 174.90136 268.79839 
L 175.226339 268.094644 
L 175.551319 275.28077 
L 175.876298 266.282918 
L 176.201278 274.621958 
L 176.526257 267.630882 
L 176.851237 267.573211 
L 177.176216 266.083019 
L 177.501196 273.276703 
L 178.151155 257.676967 
L 178.476134 257.91785 
L 178.801114 277.301222 
L 179.126093 276.584245 
L 179.451073 271.713342 
L 179.776052 273.492122 
L 180.101032 263.359989 
L 180.426011 262.664337 
L 180.750991 283.505004 
L 181.075971 277.567894 
L 181.40095 260.824145 
L 181.72593 271.568292 
L 182.050909 270.350499 
L 182.375889 272.662406 
L 182.700868 264.182607 
L 183.025848 274.263053 
L 183.350827 276.044092 
L 183.675807 279.699211 
L 184.000786 267.265597 
L 184.650745 286.529184 
L 184.975725 271.851138 
L 185.625684 264.26831 
L 185.950663 284.031178 
L 186.275643 280.262155 
L 186.600622 271.771718 
L 186.925602 284.278154 
L 187.575561 264.555948 
L 187.900541 278.034219 
L 188.22552 281.563623 
L 188.5505 267.928582 
L 188.875479 283.535108 
L 189.200459 266.400067 
L 189.525438 264.420514 
L 189.850418 278.242119 
L 190.175397 273.487776 
L 190.500377 272.769471 
L 190.825356 269.423147 
L 191.150336 273.212701 
L 191.475315 266.436382 
L 191.800295 268.254062 
L 192.450254 276.42406 
L 192.775233 270.76952 
L 193.100213 273.106946 
L 193.425192 280.215757 
L 193.750172 263.711997 
L 194.075152 270.434546 
L 194.400131 264.665802 
L 194.725111 275.538037 
L 195.05009 273.373379 
L 195.37507 274.062613 
L 195.700049 270.096598 
L 196.025029 270.542877 
L 196.350008 270.659108 
L 196.674988 273.569343 
L 196.999967 270.227558 
L 197.649926 276.879698 
L 197.974906 272.282974 
L 198.299885 272.2056 
L 198.949844 275.166113 
L 199.274824 269.659483 
L 199.599803 274.861549 
L 199.924783 270.504771 
L 200.249762 272.183256 
L 200.574742 272.254783 
L 201.224701 271.885056 
L 201.549681 271.306139 
L 201.87466 272.089519 
L 202.19964 271.970942 
L 202.524619 272.056156 
L 202.849599 271.911005 
L 203.174578 271.949729 
L 203.499558 273.13126 
L 203.824537 272.356883 
L 204.149517 272.027963 
L 204.474496 269.912414 
L 205.124455 274.588783 
L 205.449435 271.643411 
L 206.099394 270.53764 
L 206.424373 270.788662 
L 206.749353 273.161602 
L 207.074333 267.645062 
L 207.399312 273.109346 
L 207.724292 271.482968 
L 208.049271 270.876598 
L 208.374251 269.324301 
L 208.69923 269.080239 
L 209.02421 275.309176 
L 209.349189 267.517452 
L 209.999148 276.489964 
L 210.324128 268.447805 
L 210.974087 274.653855 
L 211.299066 271.105991 
L 211.624046 269.287186 
L 211.949025 271.324658 
L 212.274005 275.61203 
L 212.598984 277.753602 
L 212.923964 272.792789 
L 213.248943 272.264619 
L 213.573923 274.060688 
L 213.898903 278.937183 
L 214.223882 267.908204 
L 214.548862 275.430794 
L 214.873841 267.403197 
L 215.198821 263.389969 
L 215.5238 280.63064 
L 215.84878 278.74082 
L 216.173759 265.042933 
L 216.498739 270.481588 
L 216.823718 282.602646 
L 217.148698 268.527725 
L 217.473677 278.995565 
L 217.798657 268.413193 
L 218.123636 274.470688 
L 218.448616 270.758219 
L 218.773595 279.053493 
L 219.098575 261.244587 
L 219.423554 275.235166 
L 219.748534 282.355221 
L 220.073514 281.754134 
L 220.398493 282.975616 
L 221.048452 269.142792 
L 221.373432 282.044785 
L 221.698411 264.509774 
L 222.023391 275.237034 
L 222.34837 259.503122 
L 222.67335 265.034596 
L 222.998329 263.239823 
L 223.323309 266.412402 
L 223.648288 271.689343 
L 223.973268 243.378337 
L 224.298247 268.205759 
L 224.623227 268.00556 
L 225.273186 279.227823 
L 225.598165 280.279721 
L 225.923145 268.492836 
L 226.248124 281.88734 
L 226.573104 280.690048 
L 226.898084 282.913956 
L 227.548043 267.067663 
L 227.873022 281.840891 
L 228.198002 278.885806 
L 228.522981 269.929665 
L 228.847961 278.866527 
L 229.17294 266.0051 
L 229.49792 279.995919 
L 229.822899 270.665068 
L 230.147879 251.548012 
L 230.472858 275.160094 
L 230.797838 287.085155 
L 231.122817 259.409842 
L 231.447797 258.94377 
L 231.772776 268.293232 
L 232.097756 266.015799 
L 232.422735 267.941654 
L 233.072695 273.351586 
L 233.397674 266.822185 
L 233.722654 269.802697 
L 234.047633 267.032401 
L 234.372613 282.902278 
L 234.697592 280.840543 
L 235.022572 270.826114 
L 235.347551 270.624302 
L 235.672531 276.982042 
L 235.99751 263.051477 
L 236.32249 267.945444 
L 236.647469 269.286764 
L 236.972449 263.692991 
L 237.297428 276.360787 
L 237.622408 279.827861 
L 238.272367 271.06601 
L 238.597346 289.65847 
L 238.922326 266.500729 
L 239.247305 276.469612 
L 239.572285 279.071912 
L 239.897265 271.581329 
L 240.222244 290.648643 
L 240.547224 278.578522 
L 240.872203 261.35283 
L 241.522162 283.008414 
L 241.847142 266.674569 
L 242.172121 278.134441 
L 242.497101 275.969928 
L 242.82208 281.380808 
L 243.14706 270.890469 
L 243.797019 268.408841 
L 244.121998 277.411698 
L 244.446978 272.724355 
L 244.771957 271.235192 
L 245.096937 274.124586 
L 245.421916 272.398065 
L 245.746896 267.535105 
L 246.071876 275.408615 
L 246.396855 273.132861 
L 246.721835 275.305673 
L 247.046814 272.641871 
L 247.371794 273.718298 
L 247.696773 269.876728 
L 248.021753 275.584345 
L 248.346732 271.069876 
L 248.671712 273.242338 
L 248.996691 271.739281 
L 249.321671 273.829268 
L 249.97163 271.538286 
L 250.296609 272.812345 
L 250.621589 273.560018 
L 250.946568 271.804396 
L 251.271548 272.628436 
L 251.596527 272.266802 
L 252.896446 271.812099 
L 253.221425 271.780888 
L 253.546405 273.30451 
L 253.871384 272.122001 
L 254.196364 274.573217 
L 254.521343 272.112584 
L 255.171302 275.326484 
L 255.496282 268.876 
L 255.821261 270.79631 
L 256.146241 271.323527 
L 256.47122 275.275175 
L 256.7962 270.413338 
L 257.121179 270.794983 
L 257.446159 272.07595 
L 257.771138 275.853598 
L 258.096118 271.737278 
L 258.421097 269.482826 
L 258.746077 280.091618 
L 259.071057 278.50749 
L 259.396036 284.178136 
L 259.721016 276.928551 
L 260.045995 273.060661 
L 260.370975 279.928374 
L 260.695954 267.039559 
L 261.020934 272.485457 
L 261.345913 272.318913 
L 261.670893 283.729098 
L 261.995872 282.228795 
L 262.320852 270.06208 
L 262.645831 268.394174 
L 262.970811 276.399233 
L 263.29579 274.17786 
L 263.62077 265.545923 
L 263.945749 272.733875 
L 264.270729 271.677574 
L 264.920688 267.633677 
L 265.245667 271.359257 
L 265.895627 256.585872 
L 266.220606 271.809803 
L 266.545586 274.799386 
L 266.870565 266.188519 
L 267.195545 265.099827 
L 267.520524 279.001437 
L 267.845504 269.847144 
L 268.170483 287.21839 
L 268.495463 268.483413 
L 269.145422 294.347442 
L 269.470401 253.592746 
L 269.795381 267.345855 
L 270.12036 254.309988 
L 270.44534 276.280534 
L 271.095299 294.584103 
L 271.420278 270.58395 
L 271.745258 281.040277 
L 272.070238 262.985609 
L 272.395217 284.465923 
L 272.720197 278.189574 
L 273.045176 280.533214 
L 273.370156 264.044605 
L 273.695135 270.745582 
L 274.020115 266.236577 
L 274.345094 279.002155 
L 274.670074 285.225987 
L 274.995053 274.801281 
L 275.320033 278.604088 
L 275.645012 291.883864 
L 275.969992 263.967078 
L 276.619951 256.575594 
L 276.94493 269.925475 
L 277.26991 271.838688 
L 277.594889 260.187906 
L 277.919869 266.360851 
L 278.244848 246.931254 
L 278.569828 300.634318 
L 278.894808 275.111501 
L 279.544767 263.009735 
L 279.869746 281.477412 
L 280.194726 271.86781 
L 280.519705 282.999522 
L 280.844685 282.92707 
L 281.169664 264.573396 
L 281.494644 271.376453 
L 281.819623 289.531856 
L 282.144603 281.122725 
L 282.469582 258.435285 
L 282.794562 284.3085 
L 283.119541 249.750752 
L 283.444521 298.814515 
L 283.7695 286.383452 
L 284.09448 288.244688 
L 284.419459 293.448082 
L 284.744439 301.141174 
L 285.069419 254.789518 
L 285.394398 271.126867 
L 285.719378 275.26925 
L 286.044357 261.965506 
L 286.369337 254.582126 
L 286.694316 303.673518 
L 287.019296 265.401394 
L 287.344275 276.568694 
L 287.669255 279.579324 
L 287.994234 289.199614 
L 288.644193 262.106207 
L 288.969173 286.367157 
L 289.294152 262.793026 
L 289.619132 259.509374 
L 289.944111 266.137882 
L 290.269091 284.713689 
L 290.59407 251.25789 
L 290.91905 241.549478 
L 291.244029 250.371778 
L 291.569009 269.621421 
L 291.893989 263.351877 
L 292.218968 281.221566 
L 292.543948 284.3138 
L 293.518886 270.854073 
L 293.843866 276.250687 
L 294.168845 270.888455 
L 294.493825 276.767164 
L 294.818804 267.63929 
L 295.143784 273.046181 
L 295.468763 269.241966 
L 295.793743 263.239797 
L 296.118722 267.804455 
L 296.443702 294.428703 
L 296.768681 258.58554 
L 297.093661 264.620061 
L 297.41864 263.410611 
L 297.74362 257.176911 
L 298.0686 272.9318 
L 298.393579 259.119506 
L 298.718559 250.156552 
L 299.043538 257.969614 
L 299.368518 253.46535 
L 299.693497 264.75151 
L 300.343456 270.042419 
L 300.668436 285.772661 
L 300.993415 283.781793 
L 301.318395 267.427417 
L 301.643374 290.629349 
L 301.968354 281.07402 
L 302.293333 260.427341 
L 302.618313 283.83959 
L 302.943292 265.973897 
L 303.268272 262.841798 
L 303.593251 270.49211 
L 303.918231 272.561361 
L 304.24321 264.443819 
L 304.56819 288.504755 
L 304.89317 269.269678 
L 305.218149 293.478212 
L 305.543129 292.603527 
L 305.868108 279.726786 
L 306.193088 287.607948 
L 306.518067 276.359837 
L 307.168026 268.065679 
L 307.493006 275.776098 
L 307.817985 257.994858 
L 308.142965 256.353042 
L 308.467944 277.957096 
L 308.792924 279.818235 
L 309.117903 273.600209 
L 309.442883 278.962042 
L 309.767862 280.072372 
L 310.092842 262.000506 
L 310.417821 260.300737 
L 310.742801 275.373406 
L 311.067781 277.33231 
L 311.39276 271.964807 
L 311.71774 274.100039 
L 312.042719 264.829866 
L 312.367699 283.130996 
L 312.692678 271.389129 
L 313.017658 268.324254 
L 313.342637 275.53678 
L 313.667617 272.699321 
L 313.992596 271.951745 
L 314.317576 266.475709 
L 314.642555 286.14998 
L 314.967535 275.038146 
L 315.292514 277.330577 
L 315.617494 277.980082 
L 315.942473 277.643164 
L 316.267453 271.331123 
L 316.592432 282.498368 
L 317.242391 270.314683 
L 317.567371 272.650633 
L 317.892351 263.443718 
L 318.21733 275.91074 
L 318.54231 275.784554 
L 318.867289 267.046223 
L 319.517248 272.620096 
L 319.842228 274.7715 
L 320.167207 279.655777 
L 320.492187 277.500768 
L 320.817166 271.990182 
L 321.142146 268.402055 
L 321.467125 270.95042 
L 321.792105 270.134488 
L 322.117084 280.841757 
L 322.442064 273.565034 
L 322.767043 269.192553 
L 323.092023 263.047289 
L 323.741982 277.477063 
L 324.066962 270.913487 
L 324.391941 279.642572 
L 324.716921 270.070463 
L 325.0419 278.37049 
L 325.36688 275.849482 
L 326.016839 263.446428 
L 326.666798 275.259279 
L 326.991777 272.393614 
L 327.316757 272.410563 
L 327.641736 277.931213 
L 327.966716 274.328366 
L 328.291695 268.504654 
L 328.616675 273.066339 
L 328.941654 272.698554 
L 329.266634 270.392837 
L 329.591613 268.911016 
L 329.916593 270.557826 
L 330.241572 271.490126 
L 330.566552 274.095137 
L 330.891532 270.876926 
L 331.216511 275.721641 
L 331.541491 269.847952 
L 331.86647 275.263891 
L 332.19145 272.126988 
L 332.516429 272.234398 
L 332.841409 270.079927 
L 333.166388 272.349402 
L 333.491368 271.339856 
L 333.816347 272.20415 
L 334.141327 272.074311 
L 334.791286 272.050993 
L 335.116265 272.30846 
L 335.441245 270.721155 
L 335.766224 272.961916 
L 336.091204 272.667692 
L 336.416183 267.151509 
L 337.066143 273.516133 
L 337.391122 270.248283 
L 337.716102 272.788809 
L 338.041081 271.793102 
L 338.366061 269.826257 
L 338.69104 271.356222 
L 339.01602 275.040456 
L 339.340999 267.325099 
L 339.665979 270.68312 
L 339.990958 275.664748 
L 340.315938 275.04838 
L 340.640917 260.58568 
L 340.965897 285.124614 
L 341.290876 260.610918 
L 341.615856 269.297696 
L 341.940835 271.442829 
L 342.265815 266.319529 
L 342.590794 289.336509 
L 342.915774 276.20737 
L 343.240753 277.078494 
L 343.565733 276.427187 
L 343.890713 272.045071 
L 344.215692 279.133222 
L 344.540672 270.406703 
L 344.865651 289.748096 
L 345.190631 263.189794 
L 345.51561 276.824614 
L 345.84059 254.591456 
L 346.165569 262.200168 
L 346.490549 253.166628 
L 346.815528 280.707877 
L 347.140508 269.737289 
L 347.465487 288.090767 
L 347.790467 274.737835 
L 348.115446 299.945097 
L 348.440426 281.596438 
L 348.765405 287.483108 
L 349.090385 264.5887 
L 349.415364 276.157563 
L 349.740344 254.519638 
L 350.065324 280.111996 
L 350.390303 275.112762 
L 350.715283 304.026353 
L 351.040262 270.277708 
L 351.365242 251.50055 
L 351.690221 264.165734 
L 352.015201 295.281933 
L 352.34018 284.624123 
L 352.66516 259.539884 
L 352.990139 282.805991 
L 353.315119 251.868678 
L 353.640098 258.024378 
L 353.965078 272.57792 
L 354.290057 257.887616 
L 354.615037 261.930557 
L 354.940016 269.930529 
L 355.264996 273.144061 
L 355.589975 283.550768 
L 355.914955 232.873412 
L 356.239934 263.327991 
L 356.564914 248.425057 
L 356.889894 273.46355 
L 357.214873 259.553733 
L 357.539853 258.126 
L 357.864832 265.072253 
L 358.189812 298.703694 
L 358.514791 276.298414 
L 358.839771 266.351137 
L 359.48973 301.530885 
L 359.814709 259.538491 
L 360.139689 270.274137 
L 360.464668 260.031575 
L 360.789648 282.197273 
L 361.114627 256.494378 
L 361.439607 302.072417 
L 361.764586 258.779485 
L 362.089566 255.649202 
L 362.414545 268.820831 
L 362.739525 292.164425 
L 363.064505 280.862161 
L 363.389484 282.875004 
L 363.714464 292.539389 
L 364.039443 288.383723 
L 364.364423 272.449611 
L 364.689402 278.606866 
L 365.014382 281.561038 
L 365.664341 249.946222 
L 365.98932 293.509045 
L 366.3143 259.39916 
L 366.639279 278.381554 
L 366.964259 274.257266 
L 367.289238 265.484419 
L 367.939197 291.274991 
L 368.264177 250.753765 
L 368.589156 253.467631 
L 368.914136 263.986748 
L 369.239115 262.344747 
L 369.564095 286.330997 
L 369.889075 286.366258 
L 370.214054 289.493138 
L 370.539034 278.932333 
L 370.864013 249.823197 
L 371.188993 262.818101 
L 371.513972 264.794023 
L 372.163931 284.440248 
L 372.488911 270.31037 
L 372.81389 263.480638 
L 373.463849 271.451127 
L 373.788829 277.899373 
L 374.113808 277.864819 
L 374.438788 260.828328 
L 374.763767 278.006976 
L 375.088747 280.069039 
L 375.738706 287.684152 
L 376.063686 283.357681 
L 376.713645 261.21867 
L 377.038624 288.086731 
L 377.688583 276.185976 
L 378.013563 280.265115 
L 378.338542 276.716688 
L 378.663522 268.534888 
L 378.988501 264.594317 
L 379.313481 287.419414 
L 379.63846 284.939328 
L 380.288419 261.310424 
L 380.613399 266.701864 
L 380.938378 277.227732 
L 381.263358 272.075943 
L 381.588337 263.163179 
L 381.913317 268.482659 
L 382.238296 283.931539 
L 382.563276 272.492239 
L 382.888256 276.731 
L 383.213235 275.713374 
L 383.538215 270.429509 
L 383.863194 282.246476 
L 384.188174 272.169453 
L 384.513153 284.194253 
L 384.838133 271.300855 
L 385.163112 267.875076 
L 385.488092 266.855102 
L 385.813071 280.029939 
L 386.138051 281.015845 
L 386.46303 278.793324 
L 386.78801 267.125609 
L 387.112989 267.820526 
L 387.437969 276.005682 
L 388.412907 267.449035 
L 388.737887 274.390357 
L 389.062867 271.007962 
L 389.387846 270.8267 
L 389.712826 271.409657 
L 390.037805 270.889798 
L 390.362785 275.081376 
L 390.687764 274.579714 
L 391.012744 267.533578 
L 391.337723 271.875721 
L 391.662703 271.544955 
L 391.987682 272.939546 
L 392.312662 269.203116 
L 392.637641 273.439106 
L 392.962621 274.859006 
L 393.2876 271.262835 
L 393.61258 271.306963 
L 394.262539 273.935856 
L 394.587518 270.927158 
L 394.912498 272.420178 
L 395.237477 272.4624 
L 395.562457 273.25695 
L 395.887437 271.761848 
L 396.212416 272.02198 
L 396.537396 273.031884 
L 396.862375 272.452065 
L 397.187355 272.582872 
L 397.512334 272.258975 
L 397.837314 273.378086 
L 398.162293 272.056206 
L 398.487273 272.540476 
L 398.487273 272.540476 
" style="fill:none;stroke:#1f77b4;stroke-linecap:square;stroke-width:1.5;"/>
   </g>
   <g id="patch_9">
    <path d="M 57.6 307.584 
L 57.6 229.315765 
" style="fill:none;stroke:#000000;stroke-linecap:square;stroke-linejoin:miter;stroke-width:0.8;"/>
   </g>
   <g id="patch_10">
    <path d="M 57.6 307.584 
L 414.72 307.584 
" style="fill:none;stroke:#000000;stroke-linecap:square;stroke-linejoin:miter;stroke-width:0.8;"/>
   </g>
  </g>
 </g>
 <defs>
  <clipPath id="p34068624b6">
   <rect height="78.268235" width="357.12" x="57.6" y="41.472"/>
  </clipPath>
  <clipPath id="p5640b2c2b5">
   <rect height="78.268235" width="357.12" x="57.6" y="135.393882"/>
  </clipPath>
  <clipPath id="pbb6d7474bc">
   <rect height="78.268235" width="357.12" x="57.6" y="229.315765"/>
  </clipPath>
 </defs>
</svg>
