<?xml version="1.0" encoding="UTF-8" standalone="no"?>
<svg
   xmlns:dc="http://purl.org/dc/elements/1.1/"
   xmlns:cc="http://creativecommons.org/ns#"
   xmlns:rdf="http://www.w3.org/1999/02/22-rdf-syntax-ns#"
   xmlns:svg="http://www.w3.org/2000/svg"
   xmlns="http://www.w3.org/2000/svg"
   xmlns:xlink="http://www.w3.org/1999/xlink"
   xmlns:sodipodi="http://sodipodi.sourceforge.net/DTD/sodipodi-0.dtd"
   xmlns:inkscape="http://www.inkscape.org/namespaces/inkscape"
   height="1.8in"
   version="1.1"
   viewBox="0 0 108 129.6"
   width="1.5in"
   id="svg232987"
   sodipodi:docname="S2_fig3.svg"
   inkscape:version="1.0.2 (1.0.2+r75+1)">
  <metadata
     id="metadata232991">
    <rdf:RDF>
      <cc:Work
         rdf:about="">
        <dc:format>image/svg+xml</dc:format>
        <dc:type
           rdf:resource="http://purl.org/dc/dcmitype/StillImage" />
        <dc:title></dc:title>
      </cc:Work>
    </rdf:RDF>
  </metadata>
  <sodipodi:namedview
     pagecolor="#ffffff"
     bordercolor="#666666"
     borderopacity="1"
     objecttolerance="10"
     gridtolerance="10"
     guidetolerance="10"
     inkscape:pageopacity="0"
     inkscape:pageshadow="2"
     inkscape:window-width="1920"
     inkscape:window-height="1051"
     id="namedview232989"
     showgrid="false"
     units="in"
     inkscape:zoom="2.9722222"
     inkscape:cx="91.394538"
     inkscape:cy="110.4885"
     inkscape:window-x="0"
     inkscape:window-y="0"
     inkscape:window-maximized="1"
     inkscape:current-layer="svg232987" />
  <defs
     id="defs232561">
    <style
       type="text/css"
       id="style232559">
*{stroke-linecap:butt;stroke-linejoin:round;}
  </style>
    <defs
       id="defs232643">
      <path
         d="M 19.671875,34.8125 V 8.109375 H 35.5 q 7.953125,0 11.78125,3.296875 3.84375,3.296875 3.84375,10.078125 0,6.84375 -3.84375,10.078125 -3.828125,3.25 -11.78125,3.25 z m 0,29.984375 V 42.828125 H 34.28125 q 7.21875,0 10.75,2.703125 3.546875,2.71875 3.546875,8.28125 0,5.515625 -3.546875,8.25 -3.53125,2.734375 -10.75,2.734375 z M 9.8125,72.90625 h 25.203125 q 11.28125,0 17.375,-4.6875 Q 58.5,63.53125 58.5,54.890625 58.5,48.1875 55.375,44.234375 52.25,40.28125 46.1875,39.3125 53.46875,37.75 57.5,32.78125 q 4.03125,-4.953125 4.03125,-12.375 0,-9.765625 -6.640625,-15.09375 Q 48.25,0 35.984375,0 H 9.8125 Z"
         id="DejaVuSans-66" />
      <path
         d="m 44.28125,53.078125 v -8.5 Q 40.484375,46.53125 36.375,47.5 q -4.09375,0.984375 -8.5,0.984375 -6.6875,0 -10.03125,-2.046875 Q 14.5,44.390625 14.5,40.28125 q 0,-3.125 2.390625,-4.90625 2.390625,-1.78125 9.625,-3.390625 l 3.078125,-0.6875 Q 39.15625,29.25 43.1875,25.515625 47.21875,21.78125 47.21875,15.09375 q 0,-7.625 -6.03125,-12.078125 -6.03125,-4.4375 -16.578125,-4.4375 -4.390625,0 -9.15625,0.859375 Q 10.6875,0.296875 5.421875,2 v 9.28125 q 4.984375,-2.59375 9.8125,-3.890625 4.828125,-1.28125 9.578125,-1.28125 6.34375,0 9.75,2.171875 3.421875,2.171875 3.421875,6.125 0,3.65625 -2.46875,5.609375 -2.453125,1.953125 -10.8125,3.765625 l -3.125,0.734375 q -8.34375,1.75 -12.0625,5.390625 -3.703125,3.640625 -3.703125,9.984375 0,7.71875 5.46875,11.90625 Q 16.75,56 26.8125,56 q 4.96875,0 9.359375,-0.734375 4.40625,-0.71875 8.109375,-2.1875 z"
         id="DejaVuSans-115" />
      <path
         d="M 9.421875,54.6875 H 18.40625 V 0 H 9.421875 Z m 0,21.296875 H 18.40625 V 64.59375 H 9.421875 Z"
         id="DejaVuSans-105" />
      <path
         d="M 54.890625,33.015625 V 0 H 45.90625 v 32.71875 q 0,7.765625 -3.03125,11.609375 -3.03125,3.859375 -9.078125,3.859375 -7.28125,0 -11.484375,-4.640625 -4.203125,-4.625 -4.203125,-12.640625 V 0 h -9.03125 v 54.6875 h 9.03125 v -8.5 q 3.234375,4.9375 7.59375,7.375 4.375,2.4375 10.09375,2.4375 9.421875,0 14.25,-5.828125 4.84375,-5.828125 4.84375,-17.15625 z"
         id="DejaVuSans-110" />
      <path
         id="DejaVuSans-32"
         d="" />
      <path
         d="m 45.40625,46.390625 v 29.59375 h 8.984375 V 0 H 45.40625 v 8.203125 q -2.828125,-4.875 -7.15625,-7.25 -4.3125,-2.375 -10.375,-2.375 -9.90625,0 -16.140625,7.90625 -6.21875,7.921875 -6.21875,20.8125 0,12.890625 6.21875,20.796875 Q 17.96875,56 27.875,56 q 6.0625,0 10.375,-2.375 4.328125,-2.359375 7.15625,-7.234375 z M 14.796875,27.296875 q 0,-9.90625 4.078125,-15.546875 4.078125,-5.640625 11.203125,-5.640625 7.125,0 11.21875,5.640625 4.109375,5.640625 4.109375,15.546875 0,9.90625 -4.109375,15.546875 -4.09375,5.640625 -11.21875,5.640625 -7.125,0 -11.203125,-5.640625 -4.078125,-5.640625 -4.078125,-15.546875 z"
         id="DejaVuSans-100" />
      <path
         d="M 48.78125,52.59375 V 44.1875 q -3.8125,2.109375 -7.640625,3.15625 -3.828125,1.046875 -7.734375,1.046875 -8.75,0 -13.59375,-5.546875 -4.828125,-5.53125 -4.828125,-15.546875 0,-10.015625 4.828125,-15.5625 4.84375,-5.53125 13.59375,-5.53125 3.90625,0 7.734375,1.046875 3.828125,1.046875 7.640625,3.15625 v -8.3125 q -3.765625,-1.75 -7.796875,-2.625 -4.015625,-0.890625 -8.5625,-0.890625 -12.359375,0 -19.640625,7.765625 -7.265625,7.765625 -7.265625,20.953125 0,13.375 7.34375,21.03125 Q 20.21875,56 33.015625,56 q 4.140625,0 8.09375,-0.859375 3.953125,-0.84375 7.671875,-2.546875 z"
         id="DejaVuSans-99" />
      <path
         d="m 48.6875,27.296875 q 0,9.90625 -4.078125,15.546875 -4.078125,5.640625 -11.203125,5.640625 -7.140625,0 -11.21875,-5.640625 -4.078125,-5.640625 -4.078125,-15.546875 0,-9.90625 4.078125,-15.546875 4.078125,-5.640625 11.21875,-5.640625 7.125,0 11.203125,5.640625 4.078125,5.640625 4.078125,15.546875 z m -30.578125,19.09375 q 2.84375,4.875 7.15625,7.234375 Q 29.59375,56 35.59375,56 q 9.96875,0 16.1875,-7.90625 6.234375,-7.90625 6.234375,-20.796875 0,-12.890625 -6.234375,-20.8125 -6.21875,-7.90625 -16.1875,-7.90625 -6,0 -10.328125,2.375 -4.3125,2.375 -7.15625,7.25 V 0 h -9.03125 v 75.984375 h 9.03125 z"
         id="DejaVuSans-98" />
      <path
         d="M 18.3125,70.21875 V 54.6875 h 18.5 v -6.984375 h -18.5 v -29.6875 q 0,-6.6875 1.828125,-8.59375 1.828125,-1.90625 7.453125,-1.90625 H 36.8125 V 0 H 27.59375 Q 17.1875,0 13.234375,3.875 9.28125,7.765625 9.28125,18.015625 v 29.6875 H 2.6875 V 54.6875 h 6.59375 v 15.53125 z"
         id="DejaVuSans-116" />
      <path
         d="M 32.171875,-5.078125 Q 28.375,-14.84375 24.75,-17.8125 q -3.609375,-2.984375 -9.65625,-2.984375 h -7.1875 v 7.515625 h 5.28125 q 3.703125,0 5.75,1.765625 2.0625,1.75 4.546875,8.296875 L 25.09375,0.875 2.984375,54.6875 H 12.5 L 29.59375,11.921875 46.6875,54.6875 h 9.515625 z"
         id="DejaVuSans-121" />
      <path
         d="M 31,75.875 Q 24.46875,64.65625 21.28125,53.65625 18.109375,42.671875 18.109375,31.390625 18.109375,20.125 21.3125,9.0625 24.515625,-2 31,-13.1875 H 23.1875 Q 15.875,-1.703125 12.234375,9.375 8.59375,20.453125 8.59375,31.390625 q 0,10.890625 3.609375,21.921875 3.625,11.046875 10.984375,22.5625 z"
         id="DejaVuSans-40" />
      <path
         d="M 41.796875,8.203125 Q 38.1875,3.46875 33.25,1.015625 q -4.921875,-2.4375 -10.9375,-2.4375 -8.203125,0 -12.96875,5.59375 -4.75,5.59375 -4.75,15.3125 0,8.109375 2.875,15.453125 2.890625,7.34375 8.359375,13.15625 3.609375,3.859375 8.140625,5.875 Q 28.515625,56 33.5,56 q 5.265625,0 9.296875,-2.546875 4.03125,-2.53125 6.234375,-7.265625 l 5.859375,29.796875 h 9.03125 L 49.125,0 h -9.03125 z m -27.875,12.890625 q 0,-7.078125 3.1875,-11.03125 3.203125,-3.953125 8.875,-3.953125 4.1875,0 7.78125,2.015625 3.59375,2.03125 6.328125,5.984375 2.875,4.109375 4.53125,9.46875 1.671875,5.375 1.671875,10.609375 0,6.78125 -3.203125,10.578125 -3.203125,3.8125 -8.8125,3.8125 -4.25,0 -7.921875,-2 -3.65625,-2 -6.234375,-5.75 -2.84375,-4.0625 -4.53125,-9.4375 Q 13.921875,26.03125 13.921875,21.09375 Z"
         id="DejaVuSans-Oblique-100" />
      <path
         d="M 3.515625,5.421875 Q 2.875,5.609375 2.875,6.390625 L 15.09375,51.8125 q 0.578125,1.84375 1.984375,2.96875 1.421875,1.125 3.234375,1.125 2.34375,0 4.125,-1.546875 1.78125,-1.53125 1.78125,-3.875 0,-1.015625 -0.53125,-2.296875 L 7.625,4.984375 q -0.34375,-0.6875 -0.9375,-0.6875 -0.53125,0 -1.6875,0.484375 -1.140625,0.5 -1.484375,0.640625 z"
         id="Cmsy10-48" />
      <path
         d="M 19.1875,8.296875 H 53.609375 V 0 H 7.328125 v 8.296875 q 5.609375,5.8125 15.296875,15.59375 9.703125,9.796875 12.1875,12.640625 4.734375,5.3125 6.609375,9 1.890625,3.6875 1.890625,7.25 0,5.8125 -4.078125,9.46875 -4.078125,3.671875 -10.625,3.671875 -4.640625,0 -9.796875,-1.609375 -5.140625,-1.609375 -11,-4.890625 v 9.96875 Q 13.765625,71.78125 18.9375,73 q 5.1875,1.21875 9.484375,1.21875 11.328125,0 18.0625,-5.671875 6.734375,-5.65625 6.734375,-15.125 0,-4.5 -1.6875,-8.53125 Q 49.859375,40.875 45.40625,35.40625 44.1875,33.984375 37.640625,27.21875 31.109375,20.453125 19.1875,8.296875 Z"
         id="DejaVuSans-50" />
      <path
         d="m 8.015625,75.875 h 7.8125 q 7.3125,-11.515625 10.953125,-22.5625 3.640625,-11.03125 3.640625,-21.921875 0,-10.9375 -3.640625,-22.015625 -3.640625,-11.078125 -10.953125,-22.5625 h -7.8125 Q 14.5,-2 17.703125,9.0625 20.90625,20.125 20.90625,31.390625 q 0,11.28125 -3.203125,22.265625 -3.203125,11 -9.6875,22.21875 z"
         id="DejaVuSans-41" />
    </defs>
  </defs>
  <g
     id="patch_2"
     transform="matrix(0.59426989,0,0,0.59426989,-1.6057178,1.9729214)">
    <path
       d="M 43.706,177.784 H 168.84 V 14.4 H 43.706 Z"
       style="fill:#ffffff"
       id="path232566" />
  </g>
  <g
     id="patch_3"
     transform="matrix(0.59426989,0,0,0.59426989,-1.6057178,1.9729214)">
    <path
       clip-path="url(#pa16df552c0)"
       d="M 49.393909,177.784 H 99.953101 V 67.5683 H 49.393909 Z"
       style="fill:none;stroke:#000000;stroke-width:2;stroke-linejoin:miter"
       id="path232569" />
  </g>
  <g
     id="patch_4"
     transform="matrix(0.59426989,0,0,0.59426989,-1.6057178,1.9729214)">
    <path
       clip-path="url(#pa16df552c0)"
       d="m 112.5929,177.784 h 50.55919 V 67.555317 H 112.5929 Z"
       style="fill:none;stroke:#000000;stroke-width:2;stroke-linejoin:miter"
       id="path232572" />
  </g>
  <g
     id="text_1"
     transform="matrix(0.59426989,0,0,0.59426989,-1.6057178,1.9729214)">
    <!-- Small -->
    <defs
       id="defs232587">
      <path
         d="m 53.515625,70.515625 v -9.625 q -5.609375,2.6875 -10.59375,4 -4.984375,1.328125 -9.625,1.328125 -8.046875,0 -12.421875,-3.125 -4.375,-3.125 -4.375,-8.890625 0,-4.84375 2.90625,-7.3125 2.90625,-2.453125 11.015625,-3.96875 L 36.375,41.703125 Q 47.40625,39.59375 52.65625,34.296875 57.90625,29 57.90625,20.125 q 0,-10.609375 -7.109375,-16.078125 -7.09375,-5.46875 -20.8125,-5.46875 -5.171875,0 -11.015625,1.171875 Q 13.140625,0.921875 6.890625,3.21875 V 13.375 q 6,-3.359375 11.765625,-5.078125 5.765625,-1.703125 11.328125,-1.703125 8.4375,0 13.03125,3.3125 4.59375,3.328125 4.59375,9.484375 0,5.359375 -3.296875,8.390625 Q 41.015625,30.8125 33.5,32.328125 L 27.484375,33.5 q -11.03125,2.1875 -15.96875,6.875 -4.921875,4.6875 -4.921875,13.046875 0,9.671875 6.8125,15.234375 6.8125,5.5625 18.765625,5.5625 5.140625,0 10.453125,-0.9375 5.328125,-0.921875 10.890625,-2.765625 z"
         id="DejaVuSans-83" />
      <path
         d="M 52,44.1875 Q 55.375,50.25 60.0625,53.125 64.75,56 71.09375,56 q 8.546875,0 13.1875,-5.984375 4.640625,-5.96875 4.640625,-17 V 0 h -9.03125 v 32.71875 q 0,7.859375 -2.796875,11.65625 -2.78125,3.8125 -8.484375,3.8125 -6.984375,0 -11.046875,-4.640625 -4.046875,-4.625 -4.046875,-12.640625 V 0 h -9.03125 v 32.71875 q 0,7.90625 -2.78125,11.6875 -2.78125,3.78125 -8.59375,3.78125 -6.890625,0 -10.953125,-4.65625 -4.046875,-4.65625 -4.046875,-12.625 V 0 h -9.03125 v 54.6875 h 9.03125 v -8.5 q 3.078125,5.03125 7.375,7.421875 Q 29.78125,56 35.6875,56 41.65625,56 45.828125,52.96875 50,49.953125 52,44.1875 Z"
         id="DejaVuSans-109" />
      <path
         d="m 34.28125,27.484375 q -10.890625,0 -15.09375,-2.484375 -4.203125,-2.484375 -4.203125,-8.5 0,-4.78125 3.15625,-7.59375 3.15625,-2.796875 8.5625,-2.796875 7.484375,0 12,5.296875 4.515625,5.296875 4.515625,14.078125 v 2 z m 17.921875,3.71875 V 0 H 43.21875 v 8.296875 q -3.078125,-4.96875 -7.671875,-7.34375 -4.59375,-2.375 -11.234375,-2.375 -8.390625,0 -13.359375,4.71875 Q 6,8.015625 6,15.921875 q 0,9.21875 6.171875,13.90625 6.1875,4.6875 18.4375,4.6875 H 43.21875 v 0.890625 q 0,6.203125 -4.078125,9.59375 -4.078125,3.390625 -11.453125,3.390625 -4.6875,0 -9.140625,-1.125 -4.4375,-1.125 -8.53125,-3.375 v 8.3125 q 4.921875,1.90625 9.5625,2.84375 Q 24.21875,56 28.609375,56 q 11.875,0 17.734375,-6.15625 5.859375,-6.140625 5.859375,-18.640625 z"
         id="DejaVuSans-97" />
      <path
         d="M 9.421875,75.984375 H 18.40625 V 0 H 9.421875 Z"
         id="DejaVuSans-108" />
    </defs>
    <g
       transform="matrix(0.08,0,0,-0.08,63.56413,190.86275)"
       id="g232599">
      <use
         xlink:href="#DejaVuSans-83"
         id="use232589"
         x="0"
         y="0"
         width="100%"
         height="100%" />
      <use
         x="63.476562"
         xlink:href="#DejaVuSans-109"
         id="use232591"
         y="0"
         width="100%"
         height="100%" />
      <use
         x="160.88867"
         xlink:href="#DejaVuSans-97"
         id="use232593"
         y="0"
         width="100%"
         height="100%" />
      <use
         x="222.16797"
         xlink:href="#DejaVuSans-108"
         id="use232595"
         y="0"
         width="100%"
         height="100%" />
      <use
         x="249.95117"
         xlink:href="#DejaVuSans-108"
         id="use232597"
         y="0"
         width="100%"
         height="100%" />
    </g>
  </g>
  <g
     id="text_2"
     transform="matrix(0.59426989,0,0,0.59426989,-1.6057178,1.9729214)">
    <!-- Large -->
    <defs
       id="defs232612">
      <path
         d="m 9.8125,72.90625 h 9.859375 V 8.296875 h 35.5 V 0 H 9.8125 Z"
         id="DejaVuSans-76" />
      <path
         d="m 41.109375,46.296875 q -1.515625,0.875 -3.296875,1.28125 Q 36.03125,48 33.890625,48 26.265625,48 22.1875,43.046875 18.109375,38.09375 18.109375,28.8125 V 0 h -9.03125 v 54.6875 h 9.03125 v -8.5 q 2.84375,4.984375 7.375,7.390625 Q 30.03125,56 36.53125,56 q 0.921875,0 2.046875,-0.125 1.125,-0.109375 2.484375,-0.359375 z"
         id="DejaVuSans-114" />
      <path
         d="m 45.40625,27.984375 q 0,9.765625 -4.03125,15.125 -4.015625,5.375 -11.296875,5.375 -7.21875,0 -11.25,-5.375 -4.03125,-5.359375 -4.03125,-15.125 0,-9.71875 4.03125,-15.09375 4.03125,-5.375 11.25,-5.375 7.28125,0 11.296875,5.375 4.03125,5.375 4.03125,15.09375 z M 54.390625,6.78125 q 0,-13.953125 -6.203125,-20.765625 -6.1875,-6.8125 -18.984375,-6.8125 -4.734375,0 -8.9375,0.703125 -4.203125,0.703125 -8.15625,2.171875 V -9.1875 q 3.953125,-2.140625 7.8125,-3.15625 3.859375,-1.03125 7.859375,-1.03125 8.84375,0 13.234375,4.609375 4.390625,4.609375 4.390625,13.9375 V 9.625 Q 42.625,4.78125 38.28125,2.390625 33.9375,0 27.875,0 17.828125,0 11.671875,7.65625 q -6.15625,7.671875 -6.15625,20.328125 0,12.6875 6.15625,20.34375 Q 17.828125,56 27.875,56 q 6.0625,0 10.40625,-2.390625 4.34375,-2.390625 7.125,-7.21875 V 54.6875 h 8.984375 z"
         id="DejaVuSans-103" />
      <path
         d="m 56.203125,29.59375 v -4.390625 h -41.3125 q 0.59375,-9.28125 5.59375,-14.140625 5,-4.859375 13.9375,-4.859375 5.171875,0 10.03125,1.265625 4.859375,1.265625 9.65625,3.8125 v -8.5 q -4.84375,-2.046875 -9.921875,-3.125 -5.078125,-1.078125 -10.296875,-1.078125 -13.09375,0 -20.734375,7.609375 -7.640625,7.625 -7.640625,20.625 0,13.421875 7.25,21.296875 Q 20.015625,56 32.328125,56 q 11.03125,0 17.453125,-7.109375 6.421875,-7.09375 6.421875,-19.296875 z m -8.984375,2.640625 q -0.09375,7.359375 -4.125,11.75 -4.03125,4.40625 -10.671875,4.40625 -7.515625,0 -12.03125,-4.25 -4.515625,-4.25 -5.203125,-11.96875 z"
         id="DejaVuSans-101" />
    </defs>
    <g
       transform="matrix(0.08,0,0,-0.08,126.54812,190.86275)"
       id="g232624">
      <use
         xlink:href="#DejaVuSans-76"
         id="use232614"
         x="0"
         y="0"
         width="100%"
         height="100%" />
      <use
         x="55.712891"
         xlink:href="#DejaVuSans-97"
         id="use232616"
         y="0"
         width="100%"
         height="100%" />
      <use
         x="116.99219"
         xlink:href="#DejaVuSans-114"
         id="use232618"
         y="0"
         width="100%"
         height="100%" />
      <use
         x="158.08984"
         xlink:href="#DejaVuSans-103"
         id="use232620"
         y="0"
         width="100%"
         height="100%" />
      <use
         x="221.56641"
         xlink:href="#DejaVuSans-101"
         id="use232622"
         y="0"
         width="100%"
         height="100%" />
    </g>
  </g>
  <g
     id="line2d_3"
     transform="matrix(0.59426989,0,0,0.59426989,-1.6057178,1.9729214)"
     style="stroke-width:1.68274;stroke-miterlimit:4;stroke-dasharray:none">
    <defs
       id="defs232712">
      <path
         d="M 0,0 H -3.5"
         id="m2eb4558522"
         style="stroke:#000000;stroke-width:0.8" />
    </defs>
    <g
       id="g232716"
       style="stroke-width:1.68274;stroke-miterlimit:4;stroke-dasharray:none">
      <use
         style="stroke:#000000;stroke-width:1.68274;stroke-miterlimit:4;stroke-dasharray:none"
         x="43.706001"
         xlink:href="#m2eb4558522"
         y="177.784"
         id="use232714"
         width="100%"
         height="100%" />
    </g>
  </g>
  <g
     id="text_4"
     transform="matrix(0.59426989,0,0,0.59426989,-1.6057178,1.9729214)">
    <!-- 0.0 -->
    <defs
       id="defs232721">
      <path
         d="m 31.78125,66.40625 q -7.609375,0 -11.453125,-7.5 Q 16.5,51.421875 16.5,36.375 q 0,-14.984375 3.828125,-22.484375 3.84375,-7.5 11.453125,-7.5 7.671875,0 11.5,7.5 3.84375,7.5 3.84375,22.484375 0,15.046875 -3.84375,22.53125 -3.828125,7.5 -11.5,7.5 z m 0,7.8125 q 12.265625,0 18.734375,-9.703125 6.46875,-9.6875 6.46875,-28.140625 0,-18.40625 -6.46875,-28.109375 -6.46875,-9.6875 -18.734375,-9.6875 -12.25,0 -18.71875,9.6875 Q 6.59375,17.96875 6.59375,36.375 q 0,18.453125 6.46875,28.140625 6.46875,9.703125 18.71875,9.703125 z"
         id="DejaVuSans-48" />
      <path
         d="M 10.6875,12.40625 H 21 V 0 H 10.6875 Z"
         id="DejaVuSans-46" />
    </defs>
    <g
       transform="matrix(0.08,0,0,-0.08,23.9835,180.82337)"
       id="g232729">
      <use
         xlink:href="#DejaVuSans-48"
         id="use232723"
         x="0"
         y="0"
         width="100%"
         height="100%" />
      <use
         x="63.623047"
         xlink:href="#DejaVuSans-46"
         id="use232725"
         y="0"
         width="100%"
         height="100%" />
      <use
         x="95.410156"
         xlink:href="#DejaVuSans-48"
         id="use232727"
         y="0"
         width="100%"
         height="100%" />
    </g>
  </g>
  <g
     id="line2d_4"
     transform="matrix(0.59426989,0,0,0.59426989,-1.6057178,1.9729214)"
     style="stroke-width:1.68274;stroke-miterlimit:4;stroke-dasharray:none">
    <g
       id="g232735"
       style="stroke-width:1.68274;stroke-miterlimit:4;stroke-dasharray:none">
      <use
         style="stroke:#000000;stroke-width:1.68274;stroke-miterlimit:4;stroke-dasharray:none"
         x="43.706001"
         xlink:href="#m2eb4558522"
         y="146.66324"
         id="use232733"
         width="100%"
         height="100%" />
    </g>
  </g>
  <g
     id="text_5"
     transform="matrix(0.59426989,0,0,0.59426989,-1.6057178,1.9729214)">
    <!-- 0.2 -->
    <g
       transform="matrix(0.08,0,0,-0.08,23.9835,149.70261)"
       id="g232744">
      <use
         xlink:href="#DejaVuSans-48"
         id="use232738"
         x="0"
         y="0"
         width="100%"
         height="100%" />
      <use
         x="63.623047"
         xlink:href="#DejaVuSans-46"
         id="use232740"
         y="0"
         width="100%"
         height="100%" />
      <use
         x="95.410156"
         xlink:href="#DejaVuSans-50"
         id="use232742"
         y="0"
         width="100%"
         height="100%" />
    </g>
  </g>
  <g
     id="line2d_5"
     transform="matrix(0.59426989,0,0,0.59426989,-1.6057178,1.9729214)"
     style="stroke-width:1.68274;stroke-miterlimit:4;stroke-dasharray:none">
    <g
       id="g232750"
       style="stroke-width:1.68274;stroke-miterlimit:4;stroke-dasharray:none">
      <use
         style="stroke:#000000;stroke-width:1.68274;stroke-miterlimit:4;stroke-dasharray:none"
         x="43.706001"
         xlink:href="#m2eb4558522"
         y="115.54247"
         id="use232748"
         width="100%"
         height="100%" />
    </g>
  </g>
  <g
     id="text_6"
     transform="matrix(0.59426989,0,0,0.59426989,-1.6057178,1.9729214)">
    <!-- 0.4 -->
    <defs
       id="defs232754">
      <path
         d="M 37.796875,64.3125 12.890625,25.390625 h 24.90625 z m -2.59375,8.59375 h 12.40625 V 25.390625 h 10.40625 V 17.1875 H 47.609375 V 0 h -9.8125 V 17.1875 H 4.890625 v 9.515625 z"
         id="DejaVuSans-52" />
    </defs>
    <g
       transform="matrix(0.08,0,0,-0.08,23.9835,118.58185)"
       id="g232762">
      <use
         xlink:href="#DejaVuSans-48"
         id="use232756"
         x="0"
         y="0"
         width="100%"
         height="100%" />
      <use
         x="63.623047"
         xlink:href="#DejaVuSans-46"
         id="use232758"
         y="0"
         width="100%"
         height="100%" />
      <use
         x="95.410156"
         xlink:href="#DejaVuSans-52"
         id="use232760"
         y="0"
         width="100%"
         height="100%" />
    </g>
  </g>
  <g
     id="line2d_6"
     transform="matrix(0.59426989,0,0,0.59426989,-1.6057178,1.9729214)"
     style="stroke-width:1.68274;stroke-miterlimit:4;stroke-dasharray:none">
    <g
       id="g232768"
       style="stroke-width:1.68274;stroke-miterlimit:4;stroke-dasharray:none">
      <use
         style="stroke:#000000;stroke-width:1.68274;stroke-miterlimit:4;stroke-dasharray:none"
         x="43.706001"
         xlink:href="#m2eb4558522"
         y="84.421715"
         id="use232766"
         width="100%"
         height="100%" />
    </g>
  </g>
  <g
     id="text_7"
     transform="matrix(0.59426989,0,0,0.59426989,-1.6057178,1.9729214)">
    <!-- 0.6 -->
    <defs
       id="defs232772">
      <path
         d="m 33.015625,40.375 q -6.640625,0 -10.53125,-4.546875 -3.875,-4.53125 -3.875,-12.4375 0,-7.859375 3.875,-12.4375 3.890625,-4.5625 10.53125,-4.5625 6.640625,0 10.515625,4.5625 3.875,4.578125 3.875,12.4375 0,7.90625 -3.875,12.4375 Q 39.65625,40.375 33.015625,40.375 Z M 52.59375,71.296875 V 62.3125 q -3.71875,1.75 -7.5,2.671875 -3.78125,0.9375 -7.5,0.9375 -9.765625,0 -14.921875,-6.59375 -5.140625,-6.59375 -5.875,-19.921875 2.875,4.25 7.21875,6.515625 4.359375,2.265625 9.578125,2.265625 10.984375,0 17.359375,-6.671875 6.375,-6.65625 6.375,-18.125 0,-11.234375 -6.640625,-18.03125 -6.640625,-6.78125 -17.671875,-6.78125 -12.65625,0 -19.34375,9.6875 -6.6875,9.703125 -6.6875,28.109375 0,17.28125 8.203125,27.5625 8.203125,10.28125 22.015625,10.28125 3.71875,0 7.5,-0.734375 3.78125,-0.734375 7.890625,-2.1875 z"
         id="DejaVuSans-54" />
    </defs>
    <g
       transform="matrix(0.08,0,0,-0.08,23.9835,87.461089)"
       id="g232780">
      <use
         xlink:href="#DejaVuSans-48"
         id="use232774"
         x="0"
         y="0"
         width="100%"
         height="100%" />
      <use
         x="63.623047"
         xlink:href="#DejaVuSans-46"
         id="use232776"
         y="0"
         width="100%"
         height="100%" />
      <use
         x="95.410156"
         xlink:href="#DejaVuSans-54"
         id="use232778"
         y="0"
         width="100%"
         height="100%" />
    </g>
  </g>
  <g
     id="line2d_7"
     transform="matrix(0.59426989,0,0,0.59426989,-1.6057178,1.9729214)"
     style="stroke-width:1.68274;stroke-miterlimit:4;stroke-dasharray:none">
    <g
       id="g232786"
       style="stroke-width:1.68274;stroke-miterlimit:4;stroke-dasharray:none">
      <use
         style="stroke:#000000;stroke-width:1.68274;stroke-miterlimit:4;stroke-dasharray:none"
         x="43.706001"
         xlink:href="#m2eb4558522"
         y="53.300953"
         id="use232784"
         width="100%"
         height="100%" />
    </g>
  </g>
  <g
     id="text_8"
     transform="matrix(0.59426989,0,0,0.59426989,-1.6057178,1.9729214)">
    <!-- 0.8 -->
    <defs
       id="defs232790">
      <path
         d="m 31.78125,34.625 q -7.03125,0 -11.0625,-3.765625 -4.015625,-3.765625 -4.015625,-10.34375 0,-6.59375 4.015625,-10.359375 4.03125,-3.765625 11.0625,-3.765625 7.03125,0 11.078125,3.78125 4.0625,3.796875 4.0625,10.34375 0,6.578125 -4.03125,10.34375 Q 38.875,34.625 31.78125,34.625 Z m -9.859375,4.1875 Q 15.578125,40.375 12.03125,44.71875 8.5,49.078125 8.5,55.328125 q 0,8.734375 6.21875,13.8125 6.234375,5.078125 17.0625,5.078125 10.890625,0 17.09375,-5.078125 6.203125,-5.078125 6.203125,-13.8125 0,-6.25 -3.546875,-10.609375 Q 48,40.375 41.703125,38.8125 q 7.125,-1.65625 11.09375,-6.5 3.984375,-4.828125 3.984375,-11.796875 0,-10.609375 -6.46875,-16.28125 -6.46875,-5.65625 -18.53125,-5.65625 -12.046875,0 -18.53125,5.65625 -6.46875,5.671875 -6.46875,16.28125 0,6.96875 4,11.796875 4.015625,4.84375 11.140625,6.5 z M 18.3125,54.390625 q 0,-5.65625 3.53125,-8.828125 3.546875,-3.171875 9.9375,-3.171875 6.359375,0 9.9375,3.171875 3.59375,3.171875 3.59375,8.828125 0,5.671875 -3.59375,8.84375 -3.578125,3.171875 -9.9375,3.171875 -6.390625,0 -9.9375,-3.171875 Q 18.3125,60.0625 18.3125,54.390625 Z"
         id="DejaVuSans-56" />
    </defs>
    <g
       transform="matrix(0.08,0,0,-0.08,23.9835,56.340327)"
       id="g232798">
      <use
         xlink:href="#DejaVuSans-48"
         id="use232792"
         x="0"
         y="0"
         width="100%"
         height="100%" />
      <use
         x="63.623047"
         xlink:href="#DejaVuSans-46"
         id="use232794"
         y="0"
         width="100%"
         height="100%" />
      <use
         x="95.410156"
         xlink:href="#DejaVuSans-56"
         id="use232796"
         y="0"
         width="100%"
         height="100%" />
    </g>
  </g>
  <g
     id="line2d_8"
     transform="matrix(0.59426989,0,0,0.59426989,-1.6057178,1.9729214)"
     style="stroke-width:1.68274;stroke-miterlimit:4;stroke-dasharray:none">
    <g
       id="g232804"
       style="stroke-width:1.68274;stroke-miterlimit:4;stroke-dasharray:none">
      <use
         style="stroke:#000000;stroke-width:1.68274;stroke-miterlimit:4;stroke-dasharray:none"
         x="43.706001"
         xlink:href="#m2eb4558522"
         y="22.180189"
         id="use232802"
         width="100%"
         height="100%" />
    </g>
  </g>
  <g
     id="text_9"
     transform="matrix(0.59426989,0,0,0.59426989,-1.6057178,1.9729214)">
    <!-- 1.0 -->
    <defs
       id="defs232808">
      <path
         d="m 12.40625,8.296875 h 16.109375 v 55.625 L 10.984375,60.40625 v 8.984375 l 17.4375,3.515625 H 38.28125 V 8.296875 H 54.390625 V 0 H 12.40625 Z"
         id="DejaVuSans-49" />
    </defs>
    <g
       transform="matrix(0.08,0,0,-0.08,23.9835,25.219565)"
       id="g232816">
      <use
         xlink:href="#DejaVuSans-49"
         id="use232810"
         x="0"
         y="0"
         width="100%"
         height="100%" />
      <use
         x="63.623047"
         xlink:href="#DejaVuSans-46"
         id="use232812"
         y="0"
         width="100%"
         height="100%" />
      <use
         x="95.410156"
         xlink:href="#DejaVuSans-48"
         id="use232814"
         y="0"
         width="100%"
         height="100%" />
    </g>
  </g>
  <g
     id="line2d_9"
     transform="matrix(0.59426989,0,0,0.59426989,-1.6057178,1.9729214)">
    <path
       clip-path="url(#pa16df552c0)"
       d="M 74.673505,22.18019 H 137.87249"
       style="fill:none;stroke:#1f77b4;stroke-width:1.5;stroke-linecap:square"
       id="path232893" />
  </g>
  <g
     id="line2d_10"
     transform="matrix(0.59426989,0,0,0.59426989,-1.6057178,1.9729214)">
    <path
       clip-path="url(#pa16df552c0)"
       d="M 74.673505,55.187059 137.87249,36.325991"
       style="fill:none;stroke:#1f77b4;stroke-width:1.5;stroke-linecap:square"
       id="path232896" />
  </g>
  <g
     id="line2d_11"
     transform="matrix(0.59426989,0,0,0.59426989,-1.6057178,1.9729214)">
    <path
       clip-path="url(#pa16df552c0)"
       d="M 74.673505,111.77026 137.87249,78.763394"
       style="fill:none;stroke:#1f77b4;stroke-width:1.5;stroke-linecap:square"
       id="path232899" />
  </g>
  <g
     id="line2d_12"
     transform="matrix(0.59426989,0,0,0.59426989,-1.6057178,1.9729214)">
    <path
       clip-path="url(#pa16df552c0)"
       d="M 74.673505,92.909195 137.87249,69.33286"
       style="fill:none;stroke:#1f77b4;stroke-width:1.5;stroke-linecap:square"
       id="path232902" />
  </g>
  <g
     id="line2d_13"
     transform="matrix(0.59426989,0,0,0.59426989,-1.6057178,1.9729214)">
    <path
       clip-path="url(#pa16df552c0)"
       d="M 74.673505,88.193928 137.87249,83.478661"
       style="fill:none;stroke:#1f77b4;stroke-width:1.5;stroke-linecap:square"
       id="path232905" />
  </g>
  <g
     id="line2d_14"
     transform="matrix(0.59426989,0,0,0.59426989,-1.6057178,1.9729214)">
    <path
       clip-path="url(#pa16df552c0)"
       d="m 74.673505,50.471792 63.198985,9.430534"
       style="fill:none;stroke:#1f77b4;stroke-width:1.5;stroke-linecap:square"
       id="path232908" />
  </g>
  <g
     id="line2d_15"
     transform="matrix(0.59426989,0,0,0.59426989,-1.6057178,1.9729214)">
    <path
       clip-path="url(#pa16df552c0)"
       d="M 74.673505,31.610724 137.87249,22.18019"
       style="fill:none;stroke:#1f77b4;stroke-width:1.5;stroke-linecap:square"
       id="path232911" />
  </g>
  <g
     id="line2d_16"
     transform="matrix(0.59426989,0,0,0.59426989,-1.6057178,1.9729214)">
    <path
       clip-path="url(#pa16df552c0)"
       d="M 74.673505,57.134669 137.87249,80.81351"
       style="fill:none;stroke:#ff7f0e;stroke-width:1.5;stroke-linecap:square"
       id="path232914" />
  </g>
  <g
     id="line2d_17"
     transform="matrix(0.59426989,0,0,0.59426989,-1.6057178,1.9729214)">
    <path
       clip-path="url(#pa16df552c0)"
       d="M 74.673505,129.29875 137.87249,149.5949"
       style="fill:none;stroke:#ff7f0e;stroke-width:1.5;stroke-linecap:square"
       id="path232917" />
  </g>
  <g
     id="line2d_18"
     transform="matrix(0.59426989,0,0,0.59426989,-1.6057178,1.9729214)">
    <path
       clip-path="url(#pa16df552c0)"
       d="m 74.673505,80.469872 63.198985,3.951842"
       style="fill:none;stroke:#ff7f0e;stroke-width:1.5;stroke-linecap:square"
       id="path232920" />
  </g>
  <g
     id="line2d_19"
     transform="matrix(0.59426989,0,0,0.59426989,-1.6057178,1.9729214)">
    <path
       clip-path="url(#pa16df552c0)"
       d="m 74.673505,95.783262 63.198985,6.915728"
       style="fill:none;stroke:#ff7f0e;stroke-width:1.5;stroke-linecap:square"
       id="path232923" />
  </g>
  <g
     id="line2d_20"
     transform="matrix(0.59426989,0,0,0.59426989,-1.6057178,1.9729214)">
    <path
       clip-path="url(#pa16df552c0)"
       d="m 74.673505,53.794933 63.198985,6.915725"
       style="fill:none;stroke:#ff7f0e;stroke-width:1.5;stroke-linecap:square"
       id="path232926" />
  </g>
  <g
     id="line2d_21"
     transform="matrix(0.59426989,0,0,0.59426989,-1.6057178,1.9729214)">
    <path
       clip-path="url(#pa16df552c0)"
       d="M 74.673505,38.13019 137.87249,52.862632"
       style="fill:none;stroke:#ff7f0e;stroke-width:1.5;stroke-linecap:square"
       id="path232929" />
  </g>
  <g
     id="line2d_22"
     transform="matrix(0.59426989,0,0,0.59426989,-1.6057178,1.9729214)">
    <path
       clip-path="url(#pa16df552c0)"
       d="m 74.673505,36.912633 63.198985,9.131678"
       style="fill:none;stroke:#ff7f0e;stroke-width:1.5;stroke-linecap:square"
       id="path232932" />
  </g>
  <g
     id="line2d_23"
     transform="matrix(0.59426989,0,0,0.59426989,-1.6057178,1.9729214)">
    <path
       clip-path="url(#pa16df552c0)"
       d="M 74.673505,44.339731 137.87249,54.688968"
       style="fill:none;stroke:#ff7f0e;stroke-width:1.5;stroke-linecap:square"
       id="path232935" />
  </g>
  <g
     id="line2d_24"
     transform="matrix(0.59426989,0,0,0.59426989,-1.6057178,1.9729214)">
    <path
       clip-path="url(#pa16df552c0)"
       d="m 74.673505,38.617213 63.198985,5.722518"
       style="fill:none;stroke:#ff7f0e;stroke-width:1.5;stroke-linecap:square"
       id="path232938" />
  </g>
  <g
     id="line2d_25"
     transform="matrix(0.59426989,0,0,0.59426989,-1.6057178,1.9729214)">
    <path
       clip-path="url(#pa16df552c0)"
       d="M 74.673505,80.622936 137.87249,78.7966"
       style="fill:none;stroke:#ff7f0e;stroke-width:1.5;stroke-linecap:square"
       id="path232941" />
  </g>
  <g
     id="line2d_26"
     transform="matrix(0.59426989,0,0,0.59426989,-1.6057178,1.9729214)">
    <path
       clip-path="url(#pa16df552c0)"
       d="m 74.673505,65.646982 63.198985,1.948092"
       style="fill:none;stroke:#ff7f0e;stroke-width:1.5;stroke-linecap:square"
       id="path232944" />
  </g>
  <g
     id="line2d_27"
     transform="matrix(0.59426989,0,0,0.59426989,-1.6057178,1.9729214)">
    <path
       clip-path="url(#pa16df552c0)"
       d="m 74.673505,101.93019 63.198985,0.85229"
       style="fill:none;stroke:#ff7f0e;stroke-width:1.5;stroke-linecap:square"
       id="path232947" />
  </g>
  <g
     id="line2d_28"
     transform="matrix(0.59426989,0,0,0.59426989,-1.6057178,1.9729214)">
    <path
       clip-path="url(#pa16df552c0)"
       d="M 74.673505,76.361486 137.87249,53.593166"
       style="fill:none;stroke:#ff7f0e;stroke-width:1.5;stroke-linecap:square"
       id="path232950" />
  </g>
  <path
     d="M 24.367442,107.6246 V 10.530408"
     style="fill:none;stroke:#000000;stroke-width:1;stroke-linecap:square;stroke-linejoin:miter;stroke-miterlimit:4;stroke-dasharray:none"
     id="path232953" />
  <g
     id="patch_6"
     transform="matrix(0.59426989,0,0,0.59426989,-1.6057178,1.9729214)"
     style="stroke-width:1.68274;stroke-miterlimit:4;stroke-dasharray:none">
    <path
       d="M 43.706,177.784 H 168.84"
       style="fill:none;stroke:#000000;stroke-width:1.68274;stroke-linecap:square;stroke-linejoin:miter;stroke-miterlimit:4;stroke-dasharray:none"
       id="path232956" />
  </g>
  <g
     id="text_11"
     transform="matrix(0.59426989,0,0,0.59426989,-1.6057178,1.9729214)">
    <!-- p=0.629 -->
    <defs
       id="defs232961">
      <path
         d="M 10.59375,45.40625 H 73.1875 V 37.203125 H 10.59375 Z m 0,-19.921875 H 73.1875 V 17.1875 H 10.59375 Z"
         id="DejaVuSans-61" />
      <path
         d="M 10.984375,1.515625 V 10.5 Q 14.703125,8.734375 18.5,7.8125 q 3.8125,-0.921875 7.484375,-0.921875 9.765625,0 14.90625,6.5625 5.15625,6.5625 5.890625,19.953125 -2.828125,-4.203125 -7.1875,-6.453125 -4.34375,-2.25 -9.609375,-2.25 -10.9375,0 -17.3125,6.609375 -6.375,6.625 -6.375,18.109375 0,11.21875 6.640625,18 6.640625,6.796875 17.671875,6.796875 12.65625,0 19.3125,-9.703125 6.671875,-9.6875 6.671875,-28.140625 0,-17.234375 -8.1875,-27.515625 -8.171875,-10.28125 -21.984375,-10.28125 -3.71875,0 -7.53125,0.734375 -3.796875,0.734375 -7.90625,2.203125 z m 19.625,30.90625 q 6.640625,0 10.515625,4.53125 3.890625,4.546875 3.890625,12.46875 0,7.859375 -3.890625,12.421875 -3.875,4.5625 -10.515625,4.5625 -6.640625,0 -10.515625,-4.5625 -3.875,-4.5625 -3.875,-12.421875 0,-7.921875 3.875,-12.46875 3.875,-4.53125 10.515625,-4.53125 z"
         id="DejaVuSans-57" />
    </defs>
    <g
       transform="matrix(0.08,0,0,-0.08,80.993404,14.4)"
       id="g232977">
      <path
         d="m 18.109375,8.203125 v -29 H 9.078125 V 54.6875 h 9.03125 v -8.296875 q 2.84375,4.875 7.15625,7.234375 Q 29.59375,56 35.59375,56 q 9.96875,0 16.1875,-7.90625 6.234375,-7.90625 6.234375,-20.796875 0,-12.890625 -6.234375,-20.8125 -6.21875,-7.90625 -16.1875,-7.90625 -6,0 -10.328125,2.375 -4.3125,2.375 -7.15625,7.25 z M 48.6875,27.296875 q 0,9.90625 -4.078125,15.546875 -4.078125,5.640625 -11.203125,5.640625 -7.140625,0 -11.21875,-5.640625 -4.078125,-5.640625 -4.078125,-15.546875 0,-9.90625 4.078125,-15.546875 4.078125,-5.640625 11.21875,-5.640625 7.125,0 11.203125,5.640625 4.078125,5.640625 4.078125,15.546875 z"
         id="use232963" />
      <use
         x="63.476562"
         xlink:href="#DejaVuSans-61"
         id="use232965"
         y="0"
         width="100%"
         height="100%" />
      <use
         x="147.26562"
         xlink:href="#DejaVuSans-48"
         id="use232967"
         y="0"
         width="100%"
         height="100%" />
      <use
         x="210.88867"
         xlink:href="#DejaVuSans-46"
         id="use232969"
         y="0"
         width="100%"
         height="100%" />
      <use
         x="242.67578"
         xlink:href="#DejaVuSans-54"
         id="use232971"
         y="0"
         width="100%"
         height="100%" />
      <use
         x="306.29883"
         xlink:href="#DejaVuSans-50"
         id="use232973"
         y="0"
         width="100%"
         height="100%" />
      <use
         x="369.92188"
         xlink:href="#DejaVuSans-57"
         id="use232975"
         y="0"
         width="100%"
         height="100%" />
    </g>
  </g>
  <defs
     id="defs232985">
    <clipPath
       id="pa16df552c0">
      <rect
         height="163.384"
         width="125.134"
         x="43.706001"
         y="14.4"
         id="rect232982" />
    </clipPath>
  </defs>
  <text
     xml:space="preserve"
     style="font-style:normal;font-weight:normal;font-size:6px;line-height:1;font-family:sans-serif;letter-spacing:0px;word-spacing:0px;fill:#000000;fill-opacity:1;stroke:none;stroke-width:0.75"
     x="-103.94458"
     y="6.9964137"
     id="text241779"
     transform="rotate(-90)"><tspan
       sodipodi:role="line"
       id="tspan241777"
       x="-103.94458"
       y="6.9964137"
       style="stroke-width:0.75">Prop. stim. pairs where Δ<tspan
   style="font-style:italic"
   id="tspan241781">d'<tspan
   style="font-size:65%;baseline-shift:super"
   id="tspan241783">2</tspan></tspan>&gt;0</tspan></text>
  <text
     xml:space="preserve"
     style="font-style:normal;font-weight:normal;font-size:6px;line-height:1;font-family:sans-serif;letter-spacing:0px;word-spacing:0px;fill:#000000;fill-opacity:1;stroke:none;stroke-width:0.75"
     x="16.65243"
     y="123.27252"
     id="text242081"><tspan
       sodipodi:role="line"
       id="tspan242079"
       x="16.65243"
       y="123.27252"
       style="stroke-width:0.75">Baseline discriminability (<tspan
   style="font-style:italic"
   id="tspan242085">d'</tspan><tspan
   style="font-style:italic;font-size:65%;baseline-shift:super"
   id="tspan242083">2</tspan>)</tspan></text>
</svg>
