<?xml version="1.0" encoding="UTF-8" standalone="no"?>
<svg
   xmlns:dc="http://purl.org/dc/elements/1.1/"
   xmlns:cc="http://creativecommons.org/ns#"
   xmlns:rdf="http://www.w3.org/1999/02/22-rdf-syntax-ns#"
   xmlns:svg="http://www.w3.org/2000/svg"
   xmlns="http://www.w3.org/2000/svg"
   xmlns:xlink="http://www.w3.org/1999/xlink"
   xmlns:sodipodi="http://sodipodi.sourceforge.net/DTD/sodipodi-0.dtd"
   xmlns:inkscape="http://www.inkscape.org/namespaces/inkscape"
   height="2.2in"
   version="1.1"
   viewBox="0 0 360 158.4"
   width="5in"
   id="svg45831"
   sodipodi:docname="S5_lvModelSelection.svg"
   inkscape:version="1.0.2 (1.0.2+r75+1)">
  <metadata
     id="metadata45835">
    <rdf:RDF>
      <cc:Work
         rdf:about="">
        <dc:format>image/svg+xml</dc:format>
        <dc:type
           rdf:resource="http://purl.org/dc/dcmitype/StillImage" />
        <dc:title></dc:title>
      </cc:Work>
    </rdf:RDF>
  </metadata>
  <sodipodi:namedview
     pagecolor="#ffffff"
     bordercolor="#666666"
     borderopacity="1"
     objecttolerance="10"
     gridtolerance="10"
     guidetolerance="10"
     inkscape:pageopacity="0"
     inkscape:pageshadow="2"
     inkscape:window-width="1920"
     inkscape:window-height="1051"
     id="namedview45833"
     showgrid="false"
     units="in"
     inkscape:zoom="1.9618055"
     inkscape:cx="300.9695"
     inkscape:cy="99.263449"
     inkscape:window-x="0"
     inkscape:window-y="0"
     inkscape:window-maximized="1"
     inkscape:current-layer="svg45831"
     inkscape:document-rotation="0" />
  <defs
     id="defs45230">
    <style
       type="text/css"
       id="style45228">
*{stroke-linecap:butt;stroke-linejoin:round;}
  </style>
    <defs
       id="defs45275">
      <path
         d="M 0,2.5 C 0.663008,2.5 1.29895,2.236584 1.767767,1.767767 2.236584,1.29895 2.5,0.663008 2.5,0 2.5,-0.663008 2.236584,-1.29895 1.767767,-1.767767 1.29895,-2.236584 0.663008,-2.5 0,-2.5 c -0.663008,0 -1.29895,0.263416 -1.767767,0.732233 C -2.236584,-1.29895 -2.5,-0.663008 -2.5,0 c 0,0.663008 0.263416,1.29895 0.732233,1.767767 C -1.29895,2.236584 -0.663008,2.5 0,2.5 Z"
         id="ma858dfdc28"
         style="stroke:#1f77b4" />
    </defs>
    <defs
       id="defs45283">
      <path
         d="M 0,2.5 C 0.663008,2.5 1.29895,2.236584 1.767767,1.767767 2.236584,1.29895 2.5,0.663008 2.5,0 2.5,-0.663008 2.236584,-1.29895 1.767767,-1.767767 1.29895,-2.236584 0.663008,-2.5 0,-2.5 c -0.663008,0 -1.29895,0.263416 -1.767767,0.732233 C -2.236584,-1.29895 -2.5,-0.663008 -2.5,0 c 0,0.663008 0.263416,1.29895 0.732233,1.767767 C -1.29895,2.236584 -0.663008,2.5 0,2.5 Z"
         id="m978bf5b65b"
         style="stroke:#ff7f0e" />
    </defs>
    <defs
       id="defs45291">
      <path
         d="M 0,2.5 C 0.663008,2.5 1.29895,2.236584 1.767767,1.767767 2.236584,1.29895 2.5,0.663008 2.5,0 2.5,-0.663008 2.236584,-1.29895 1.767767,-1.767767 1.29895,-2.236584 0.663008,-2.5 0,-2.5 c -0.663008,0 -1.29895,0.263416 -1.767767,0.732233 C -2.236584,-1.29895 -2.5,-0.663008 -2.5,0 c 0,0.663008 0.263416,1.29895 0.732233,1.767767 C -1.29895,2.236584 -0.663008,2.5 0,2.5 Z"
         id="m803ab98226"
         style="stroke:#2ca02c" />
    </defs>
    <defs
       id="defs45299">
      <path
         d="M 0,2.5 C 0.663008,2.5 1.29895,2.236584 1.767767,1.767767 2.236584,1.29895 2.5,0.663008 2.5,0 2.5,-0.663008 2.236584,-1.29895 1.767767,-1.767767 1.29895,-2.236584 0.663008,-2.5 0,-2.5 c -0.663008,0 -1.29895,0.263416 -1.767767,0.732233 C -2.236584,-1.29895 -2.5,-0.663008 -2.5,0 c 0,0.663008 0.263416,1.29895 0.732233,1.767767 C -1.29895,2.236584 -0.663008,2.5 0,2.5 Z"
         id="m4664ed09e3"
         style="stroke:#9467bd" />
    </defs>
    <defs
       id="defs45596">
      <path
         d="m 18.109375,8.203125 v -29 H 9.078125 V 54.6875 h 9.03125 v -8.296875 q 2.84375,4.875 7.15625,7.234375 Q 29.59375,56 35.59375,56 q 9.96875,0 16.1875,-7.90625 6.234375,-7.90625 6.234375,-20.796875 0,-12.890625 -6.234375,-20.8125 -6.21875,-7.90625 -16.1875,-7.90625 -6,0 -10.328125,2.375 -4.3125,2.375 -7.15625,7.25 z M 48.6875,27.296875 q 0,9.90625 -4.078125,15.546875 -4.078125,5.640625 -11.203125,5.640625 -7.140625,0 -11.21875,-5.640625 -4.078125,-5.640625 -4.078125,-15.546875 0,-9.90625 4.078125,-15.546875 4.078125,-5.640625 11.21875,-5.640625 7.125,0 11.203125,5.640625 4.078125,5.640625 4.078125,15.546875 z"
         id="DejaVuSans-112" />
      <path
         d="M 10.59375,45.40625 H 73.1875 V 37.203125 H 10.59375 Z m 0,-19.921875 H 73.1875 V 17.1875 H 10.59375 Z"
         id="DejaVuSans-61" />
    </defs>
    <defs
       id="defs45633">
      <path
         d="m 10.796875,72.90625 h 38.71875 v -8.3125 h -29.6875 V 46.734375 q 2.140625,0.734375 4.28125,1.09375 2.15625,0.359375 4.3125,0.359375 Q 40.625,48.1875 47.75,41.5 54.890625,34.8125 54.890625,23.390625 54.890625,11.625 47.5625,5.09375 40.234375,-1.421875 26.90625,-1.421875 q -4.59375,0 -9.359375,0.78125 -4.75,0.78125 -9.828125,2.34375 V 11.625 q 4.390625,-2.390625 9.078125,-3.5625 4.6875,-1.171875 9.90625,-1.171875 8.453125,0 13.375,4.4375 4.9375,4.4375 4.9375,12.0625 0,7.609375 -4.9375,12.046875 -4.921875,4.453125 -13.375,4.453125 -3.953125,0 -7.890625,-0.875 -3.921875,-0.875 -8.015625,-2.734375 z"
         id="DejaVuSans-53" />
    </defs>
    <defs
       id="defs45653">
      <path
         d="M 10.984375,1.515625 V 10.5 Q 14.703125,8.734375 18.5,7.8125 q 3.8125,-0.921875 7.484375,-0.921875 9.765625,0 14.90625,6.5625 5.15625,6.5625 5.890625,19.953125 -2.828125,-4.203125 -7.1875,-6.453125 -4.34375,-2.25 -9.609375,-2.25 -10.9375,0 -17.3125,6.609375 -6.375,6.625 -6.375,18.109375 0,11.21875 6.640625,18 6.640625,6.796875 17.671875,6.796875 12.65625,0 19.3125,-9.703125 6.671875,-9.6875 6.671875,-28.140625 0,-17.234375 -8.1875,-27.515625 -8.171875,-10.28125 -21.984375,-10.28125 -3.71875,0 -7.53125,0.734375 -3.796875,0.734375 -7.90625,2.203125 z m 19.625,30.90625 q 6.640625,0 10.515625,4.53125 3.890625,4.546875 3.890625,12.46875 0,7.859375 -3.890625,12.421875 -3.875,4.5625 -10.515625,4.5625 -6.640625,0 -10.515625,-4.5625 -3.875,-4.5625 -3.875,-12.421875 0,-7.921875 3.875,-12.46875 3.875,-4.53125 10.515625,-4.53125 z"
         id="DejaVuSans-57" />
    </defs>
    <defs
       id="defs45765">
      <path
         d="M 34.1875,63.1875 14.15625,8.203125 H 54.25 Z M 0.78125,0 28.609375,72.90625 h 11.1875 L 67.578125,0 Z"
         id="DejaVuSans-916" />
      <path
         d="M 41.796875,8.203125 Q 38.1875,3.46875 33.25,1.015625 q -4.921875,-2.4375 -10.9375,-2.4375 -8.203125,0 -12.96875,5.59375 -4.75,5.59375 -4.75,15.3125 0,8.109375 2.875,15.453125 2.890625,7.34375 8.359375,13.15625 3.609375,3.859375 8.140625,5.875 Q 28.515625,56 33.5,56 q 5.265625,0 9.296875,-2.546875 4.03125,-2.53125 6.234375,-7.265625 l 5.859375,29.796875 h 9.03125 L 49.125,0 h -9.03125 z m -27.875,12.890625 q 0,-7.078125 3.1875,-11.03125 3.203125,-3.953125 8.875,-3.953125 4.1875,0 7.78125,2.015625 3.59375,2.03125 6.328125,5.984375 2.875,4.109375 4.53125,9.46875 1.671875,5.375 1.671875,10.609375 0,6.78125 -3.203125,10.578125 -3.203125,3.8125 -8.8125,3.8125 -4.25,0 -7.921875,-2 -3.65625,-2 -6.234375,-5.75 -2.84375,-4.0625 -4.53125,-9.4375 Q 13.921875,26.03125 13.921875,21.09375 Z"
         id="DejaVuSans-Oblique-100" />
      <path
         d="M 3.515625,5.421875 Q 2.875,5.609375 2.875,6.390625 L 15.09375,51.8125 q 0.578125,1.84375 1.984375,2.96875 1.421875,1.125 3.234375,1.125 2.34375,0 4.125,-1.546875 1.78125,-1.53125 1.78125,-3.875 0,-1.015625 -0.53125,-2.296875 L 7.625,4.984375 q -0.34375,-0.6875 -0.9375,-0.6875 -0.53125,0 -1.6875,0.484375 -1.140625,0.5 -1.484375,0.640625 z"
         id="Cmsy10-48" />
      <path
         d="m 9.8125,72.90625 h 46.09375 v -8.3125 H 19.671875 V 43.015625 h 34.71875 V 34.71875 H 19.671875 V 8.296875 H 56.78125 V 0 H 9.8125 Z"
         id="DejaVuSans-69" />
      <path
         d="M 37.109375,75.984375 V 68.5 h -8.59375 q -4.828125,0 -6.71875,-1.953125 -1.875,-1.953125 -1.875,-7.03125 V 54.6875 H 34.71875 V 47.703125 H 19.921875 V 0 h -9.03125 V 47.703125 H 2.296875 V 54.6875 h 8.59375 V 58.5 q 0,9.125 4.25,13.296875 4.25,4.1875 13.46875,4.1875 z"
         id="DejaVuSans-102" />
      <path
         d="M 9.421875,75.984375 H 18.40625 V 0 H 9.421875 Z"
         id="DejaVuSans-108" />
      <path
         d="M 18.3125,70.21875 V 54.6875 h 18.5 v -6.984375 h -18.5 v -29.6875 q 0,-6.6875 1.828125,-8.59375 1.828125,-1.90625 7.453125,-1.90625 H 36.8125 V 0 H 27.59375 Q 17.1875,0 13.234375,3.875 9.28125,7.765625 9.28125,18.015625 v 29.6875 H 2.6875 V 54.6875 h 6.59375 v 15.53125 z"
         id="DejaVuSans-116" />
      <path
         d="M 52,44.1875 Q 55.375,50.25 60.0625,53.125 64.75,56 71.09375,56 q 8.546875,0 13.1875,-5.984375 4.640625,-5.96875 4.640625,-17 V 0 h -9.03125 v 32.71875 q 0,7.859375 -2.796875,11.65625 -2.78125,3.8125 -8.484375,3.8125 -6.984375,0 -11.046875,-4.640625 -4.046875,-4.625 -4.046875,-12.640625 V 0 h -9.03125 v 32.71875 q 0,7.90625 -2.78125,11.6875 -2.78125,3.78125 -8.59375,3.78125 -6.890625,0 -10.953125,-4.65625 -4.046875,-4.65625 -4.046875,-12.625 V 0 h -9.03125 v 54.6875 h 9.03125 v -8.5 q 3.078125,5.03125 7.375,7.421875 Q 29.78125,56 35.6875,56 41.65625,56 45.828125,52.96875 50,49.953125 52,44.1875 Z"
         id="DejaVuSans-109" />
    </defs>
    <defs
       id="defs45415">
      <path
         d="M 64.40625,67.28125 V 56.890625 q -4.984375,4.640625 -10.625,6.921875 -5.640625,2.296875 -11.984375,2.296875 -12.5,0 -19.140625,-7.640625 -6.640625,-7.640625 -6.640625,-22.09375 0,-14.40625 6.640625,-22.046875 Q 29.296875,6.6875 41.796875,6.6875 q 6.34375,0 11.984375,2.296875 5.640625,2.296875 10.625,6.9375 V 5.609375 Q 59.234375,2.09375 53.4375,0.328125 q -5.78125,-1.75 -12.21875,-1.75 -16.5625,0 -26.09375,10.125 Q 5.609375,18.84375 5.609375,36.375 q 0,17.578125 9.515625,27.703125 9.53125,10.140625 26.09375,10.140625 6.53125,0 12.3125,-1.734375 5.796875,-1.734375 10.875,-5.203125 z"
         id="DejaVuSans-67" />
      <path
         d="m 30.609375,48.390625 q -7.21875,0 -11.421875,-5.640625 -4.203125,-5.640625 -4.203125,-15.453125 0,-9.8125 4.171875,-15.453125 4.1875,-5.640625 11.453125,-5.640625 7.1875,0 11.375,5.65625 4.203125,5.671875 4.203125,15.4375 0,9.71875 -4.203125,15.40625 -4.1875,5.6875 -11.375,5.6875 z m 0,7.609375 q 11.71875,0 18.40625,-7.625 6.703125,-7.609375 6.703125,-21.078125 0,-13.421875 -6.703125,-21.078125 -6.6875,-7.640625 -18.40625,-7.640625 -11.765625,0 -18.4375,7.640625 -6.65625,7.65625 -6.65625,21.078125 0,13.46875 6.65625,21.078125 Q 18.84375,56 30.609375,56 Z"
         id="DejaVuSans-111" />
      <path
         d="M 2.984375,54.6875 H 12.5 L 29.59375,8.796875 46.6875,54.6875 h 9.515625 L 35.6875,0 H 23.484375 Z"
         id="DejaVuSans-118" />
      <path
         d="m 34.28125,27.484375 q -10.890625,0 -15.09375,-2.484375 -4.203125,-2.484375 -4.203125,-8.5 0,-4.78125 3.15625,-7.59375 3.15625,-2.796875 8.5625,-2.796875 7.484375,0 12,5.296875 4.515625,5.296875 4.515625,14.078125 v 2 z m 17.921875,3.71875 V 0 H 43.21875 v 8.296875 q -3.078125,-4.96875 -7.671875,-7.34375 -4.59375,-2.375 -11.234375,-2.375 -8.390625,0 -13.359375,4.71875 Q 6,8.015625 6,15.921875 q 0,9.21875 6.171875,13.90625 6.1875,4.6875 18.4375,4.6875 H 43.21875 v 0.890625 q 0,6.203125 -4.078125,9.59375 -4.078125,3.390625 -11.453125,3.390625 -4.6875,0 -9.140625,-1.125 -4.4375,-1.125 -8.53125,-3.375 v 8.3125 q 4.921875,1.90625 9.5625,2.84375 Q 24.21875,56 28.609375,56 q 11.875,0 17.734375,-6.15625 5.859375,-6.140625 5.859375,-18.640625 z"
         id="DejaVuSans-97" />
      <path
         d="m 41.109375,46.296875 q -1.515625,0.875 -3.296875,1.28125 Q 36.03125,48 33.890625,48 26.265625,48 22.1875,43.046875 18.109375,38.09375 18.109375,28.8125 V 0 h -9.03125 v 54.6875 h 9.03125 v -8.5 q 2.84375,4.984375 7.375,7.390625 Q 30.03125,56 36.53125,56 q 0.921875,0 2.046875,-0.125 1.125,-0.109375 2.484375,-0.359375 z"
         id="DejaVuSans-114" />
      <path
         d="M 9.421875,54.6875 H 18.40625 V 0 H 9.421875 Z m 0,21.296875 H 18.40625 V 64.59375 H 9.421875 Z"
         id="DejaVuSans-105" />
      <path
         d="M 54.890625,33.015625 V 0 H 45.90625 v 32.71875 q 0,7.765625 -3.03125,11.609375 -3.03125,3.859375 -9.078125,3.859375 -7.28125,0 -11.484375,-4.640625 -4.203125,-4.625 -4.203125,-12.640625 V 0 h -9.03125 v 54.6875 h 9.03125 v -8.5 q 3.234375,4.9375 7.59375,7.375 4.375,2.4375 10.09375,2.4375 9.421875,0 14.25,-5.828125 4.84375,-5.828125 4.84375,-17.15625 z"
         id="DejaVuSans-110" />
      <path
         d="M 48.78125,52.59375 V 44.1875 q -3.8125,2.109375 -7.640625,3.15625 -3.828125,1.046875 -7.734375,1.046875 -8.75,0 -13.59375,-5.546875 -4.828125,-5.53125 -4.828125,-15.546875 0,-10.015625 4.828125,-15.5625 4.84375,-5.53125 13.59375,-5.53125 3.90625,0 7.734375,1.046875 3.828125,1.046875 7.640625,3.15625 v -8.3125 q -3.765625,-1.75 -7.796875,-2.625 -4.015625,-0.890625 -8.5625,-0.890625 -12.359375,0 -19.640625,7.765625 -7.265625,7.765625 -7.265625,20.953125 0,13.375 7.34375,21.03125 Q 20.21875,56 33.015625,56 q 4.140625,0 8.09375,-0.859375 3.953125,-0.84375 7.671875,-2.546875 z"
         id="DejaVuSans-99" />
      <path
         d="m 56.203125,29.59375 v -4.390625 h -41.3125 q 0.59375,-9.28125 5.59375,-14.140625 5,-4.859375 13.9375,-4.859375 5.171875,0 10.03125,1.265625 4.859375,1.265625 9.65625,3.8125 v -8.5 q -4.84375,-2.046875 -9.921875,-3.125 -5.078125,-1.078125 -10.296875,-1.078125 -13.09375,0 -20.734375,7.609375 -7.640625,7.625 -7.640625,20.625 0,13.421875 7.25,21.296875 Q 20.015625,56 32.328125,56 q 11.03125,0 17.453125,-7.109375 6.421875,-7.09375 6.421875,-19.296875 z m -8.984375,2.640625 q -0.09375,7.359375 -4.125,11.75 -4.03125,4.40625 -10.671875,4.40625 -7.515625,0 -12.03125,-4.25 -4.515625,-4.25 -5.203125,-11.96875 z"
         id="DejaVuSans-101" />
      <path
         id="DejaVuSans-32"
         d="" />
      <path
         d="m 9.078125,75.984375 h 9.03125 v -44.875 l 26.8125,23.578125 h 11.46875 l -29,-25.578125 L 57.625,0 H 45.90625 L 18.109375,26.703125 V 0 h -9.03125 z"
         id="DejaVuSans-107" />
    </defs>
  </defs>
  <g
     id="line2d_16"
     transform="matrix(0.79636254,0,0,1.0009944,15.914618,23.92994)">
    <path
       clip-path="url(#pd26486ed7e)"
       d="M 26.8,109.197 H 419.81833"
       style="fill:none;stroke:#b0b0b0;stroke-width:0.8;stroke-linecap:square"
       id="path45451" />
  </g>
  <g
     id="line2d_17"
     transform="translate(10.5,24)">
    <defs
       id="defs45455">
      <path
         d="M 0,0 H -3.5"
         id="m102823b475"
         style="stroke:#000000;stroke-width:0.8" />
    </defs>
    <g
       id="g45459">
      <use
         style="stroke:#000000;stroke-width:0.8"
         x="26.799999"
         xlink:href="#m102823b475"
         y="109.197"
         id="use45457"
         width="100%"
         height="100%" />
    </g>
  </g>
  <g
     id="text_5"
     transform="translate(10.5,24)">
    <!-- 0.12 -->
    <defs
       id="defs45464">
      <path
         d="m 31.78125,66.40625 q -7.609375,0 -11.453125,-7.5 Q 16.5,51.421875 16.5,36.375 q 0,-14.984375 3.828125,-22.484375 3.84375,-7.5 11.453125,-7.5 7.671875,0 11.5,7.5 3.84375,7.5 3.84375,22.484375 0,15.046875 -3.84375,22.53125 -3.828125,7.5 -11.5,7.5 z m 0,7.8125 q 12.265625,0 18.734375,-9.703125 6.46875,-9.6875 6.46875,-28.140625 0,-18.40625 -6.46875,-28.109375 -6.46875,-9.6875 -18.734375,-9.6875 -12.25,0 -18.71875,9.6875 Q 6.59375,17.96875 6.59375,36.375 q 0,18.453125 6.46875,28.140625 6.46875,9.703125 18.71875,9.703125 z"
         id="DejaVuSans-48" />
      <path
         d="M 10.6875,12.40625 H 21 V 0 H 10.6875 Z"
         id="DejaVuSans-46" />
    </defs>
    <g
       transform="matrix(0.06,0,0,-0.06,6.440625,111.47653)"
       id="g45474">
      <use
         xlink:href="#DejaVuSans-48"
         id="use45466"
         x="0"
         y="0"
         width="100%"
         height="100%" />
      <use
         x="63.623047"
         xlink:href="#DejaVuSans-46"
         id="use45468"
         y="0"
         width="100%"
         height="100%" />
      <path
         d="m 107.81641,8.296875 h 16.10937 v 55.625 L 106.39453,60.40625 v 8.984375 l 17.4375,3.515625 h 9.85938 V 8.296875 h 16.10937 V 0 h -41.98437 z"
         id="use45470" />
      <path
         d="m 178.2207,8.296875 h 34.42188 V 0 h -46.28125 v 8.296875 q 5.60937,5.8125 15.29687,15.59375 9.70313,9.796875 12.1875,12.640625 4.73438,5.3125 6.60938,9 1.89062,3.6875 1.89062,7.25 0,5.8125 -4.07812,9.46875 -4.07813,3.671875 -10.625,3.671875 -4.64063,0 -9.79688,-1.609375 -5.14062,-1.609375 -11,-4.890625 v 9.96875 q 5.95313,2.390625 11.125,3.609375 5.1875,1.21875 9.48438,1.21875 11.32812,0 18.0625,-5.671875 6.73437,-5.65625 6.73437,-15.125 0,-4.5 -1.6875,-8.53125 -1.67187,-4.015625 -6.125,-9.484375 -1.21875,-1.421875 -7.76562,-8.1875 -6.53125,-6.765625 -18.45313,-18.921875 z"
         id="use45472" />
    </g>
  </g>
  <g
     id="line2d_18"
     transform="matrix(0.79636254,0,0,1.0009944,15.914618,23.92994)">
    <path
       clip-path="url(#pd26486ed7e)"
       d="M 26.8,92.826934 H 419.81833"
       style="fill:none;stroke:#b0b0b0;stroke-width:0.8;stroke-linecap:square"
       id="path45478" />
  </g>
  <g
     id="line2d_19"
     transform="translate(10.5,24)">
    <g
       id="g45483">
      <use
         style="stroke:#000000;stroke-width:0.8"
         x="26.799999"
         xlink:href="#m102823b475"
         y="92.826935"
         id="use45481"
         width="100%"
         height="100%" />
    </g>
  </g>
  <g
     id="text_6"
     transform="translate(10.5,24)">
    <!-- 0.14 -->
    <defs
       id="defs45487">
      <path
         d="M 37.796875,64.3125 12.890625,25.390625 h 24.90625 z m -2.59375,8.59375 h 12.40625 V 25.390625 h 10.40625 V 17.1875 H 47.609375 V 0 h -9.8125 V 17.1875 H 4.890625 v 9.515625 z"
         id="DejaVuSans-52" />
    </defs>
    <g
       transform="matrix(0.06,0,0,-0.06,6.440625,95.106466)"
       id="g45497">
      <use
         xlink:href="#DejaVuSans-48"
         id="use45489"
         x="0"
         y="0"
         width="100%"
         height="100%" />
      <use
         x="63.623047"
         xlink:href="#DejaVuSans-46"
         id="use45491"
         y="0"
         width="100%"
         height="100%" />
      <path
         d="m 107.81641,8.296875 h 16.10937 v 55.625 L 106.39453,60.40625 v 8.984375 l 17.4375,3.515625 h 9.85938 V 8.296875 h 16.10937 V 0 h -41.98437 z"
         id="use45493" />
      <use
         x="159.0332"
         xlink:href="#DejaVuSans-52"
         id="use45495"
         y="0"
         width="100%"
         height="100%" />
    </g>
  </g>
  <g
     id="line2d_20"
     transform="matrix(0.79636254,0,0,1.0009944,15.914618,23.92994)">
    <path
       clip-path="url(#pd26486ed7e)"
       d="M 26.8,76.456867 H 419.81833"
       style="fill:none;stroke:#b0b0b0;stroke-width:0.8;stroke-linecap:square"
       id="path45501" />
  </g>
  <g
     id="line2d_21"
     transform="translate(10.5,24)">
    <g
       id="g45506">
      <use
         style="stroke:#000000;stroke-width:0.8"
         x="26.799999"
         xlink:href="#m102823b475"
         y="76.456863"
         id="use45504"
         width="100%"
         height="100%" />
    </g>
  </g>
  <g
     id="text_7"
     transform="translate(10.5,24)">
    <!-- 0.16 -->
    <defs
       id="defs45510">
      <path
         d="m 33.015625,40.375 q -6.640625,0 -10.53125,-4.546875 -3.875,-4.53125 -3.875,-12.4375 0,-7.859375 3.875,-12.4375 3.890625,-4.5625 10.53125,-4.5625 6.640625,0 10.515625,4.5625 3.875,4.578125 3.875,12.4375 0,7.90625 -3.875,12.4375 Q 39.65625,40.375 33.015625,40.375 Z M 52.59375,71.296875 V 62.3125 q -3.71875,1.75 -7.5,2.671875 -3.78125,0.9375 -7.5,0.9375 -9.765625,0 -14.921875,-6.59375 -5.140625,-6.59375 -5.875,-19.921875 2.875,4.25 7.21875,6.515625 4.359375,2.265625 9.578125,2.265625 10.984375,0 17.359375,-6.671875 6.375,-6.65625 6.375,-18.125 0,-11.234375 -6.640625,-18.03125 -6.640625,-6.78125 -17.671875,-6.78125 -12.65625,0 -19.34375,9.6875 -6.6875,9.703125 -6.6875,28.109375 0,17.28125 8.203125,27.5625 8.203125,10.28125 22.015625,10.28125 3.71875,0 7.5,-0.734375 3.78125,-0.734375 7.890625,-2.1875 z"
         id="DejaVuSans-54" />
    </defs>
    <g
       transform="matrix(0.06,0,0,-0.06,6.440625,78.736398)"
       id="g45520">
      <use
         xlink:href="#DejaVuSans-48"
         id="use45512"
         x="0"
         y="0"
         width="100%"
         height="100%" />
      <use
         x="63.623047"
         xlink:href="#DejaVuSans-46"
         id="use45514"
         y="0"
         width="100%"
         height="100%" />
      <path
         d="m 107.81641,8.296875 h 16.10937 v 55.625 L 106.39453,60.40625 v 8.984375 l 17.4375,3.515625 h 9.85938 V 8.296875 h 16.10937 V 0 h -41.98437 z"
         id="use45516" />
      <use
         x="159.0332"
         xlink:href="#DejaVuSans-54"
         id="use45518"
         y="0"
         width="100%"
         height="100%" />
    </g>
  </g>
  <g
     id="line2d_22"
     transform="matrix(0.79636254,0,0,1.0009944,15.914618,23.92994)">
    <path
       clip-path="url(#pd26486ed7e)"
       d="M 26.8,60.086799 H 419.81833"
       style="fill:none;stroke:#b0b0b0;stroke-width:0.8;stroke-linecap:square"
       id="path45524" />
  </g>
  <g
     id="line2d_23"
     transform="translate(10.5,24)">
    <g
       id="g45529">
      <use
         style="stroke:#000000;stroke-width:0.8"
         x="26.799999"
         xlink:href="#m102823b475"
         y="60.0868"
         id="use45527"
         width="100%"
         height="100%" />
    </g>
  </g>
  <g
     id="text_8"
     transform="translate(10.5,24)">
    <!-- 0.18 -->
    <defs
       id="defs45533">
      <path
         d="m 31.78125,34.625 q -7.03125,0 -11.0625,-3.765625 -4.015625,-3.765625 -4.015625,-10.34375 0,-6.59375 4.015625,-10.359375 4.03125,-3.765625 11.0625,-3.765625 7.03125,0 11.078125,3.78125 4.0625,3.796875 4.0625,10.34375 0,6.578125 -4.03125,10.34375 Q 38.875,34.625 31.78125,34.625 Z m -9.859375,4.1875 Q 15.578125,40.375 12.03125,44.71875 8.5,49.078125 8.5,55.328125 q 0,8.734375 6.21875,13.8125 6.234375,5.078125 17.0625,5.078125 10.890625,0 17.09375,-5.078125 6.203125,-5.078125 6.203125,-13.8125 0,-6.25 -3.546875,-10.609375 Q 48,40.375 41.703125,38.8125 q 7.125,-1.65625 11.09375,-6.5 3.984375,-4.828125 3.984375,-11.796875 0,-10.609375 -6.46875,-16.28125 -6.46875,-5.65625 -18.53125,-5.65625 -12.046875,0 -18.53125,5.65625 -6.46875,5.671875 -6.46875,16.28125 0,6.96875 4,11.796875 4.015625,4.84375 11.140625,6.5 z M 18.3125,54.390625 q 0,-5.65625 3.53125,-8.828125 3.546875,-3.171875 9.9375,-3.171875 6.359375,0 9.9375,3.171875 3.59375,3.171875 3.59375,8.828125 0,5.671875 -3.59375,8.84375 -3.578125,3.171875 -9.9375,3.171875 -6.390625,0 -9.9375,-3.171875 Q 18.3125,60.0625 18.3125,54.390625 Z"
         id="DejaVuSans-56" />
    </defs>
    <g
       transform="matrix(0.06,0,0,-0.06,6.440625,62.36633)"
       id="g45543">
      <use
         xlink:href="#DejaVuSans-48"
         id="use45535"
         x="0"
         y="0"
         width="100%"
         height="100%" />
      <use
         x="63.623047"
         xlink:href="#DejaVuSans-46"
         id="use45537"
         y="0"
         width="100%"
         height="100%" />
      <path
         d="m 107.81641,8.296875 h 16.10937 v 55.625 L 106.39453,60.40625 v 8.984375 l 17.4375,3.515625 h 9.85938 V 8.296875 h 16.10937 V 0 h -41.98437 z"
         id="use45539" />
      <use
         x="159.0332"
         xlink:href="#DejaVuSans-56"
         id="use45541"
         y="0"
         width="100%"
         height="100%" />
    </g>
  </g>
  <g
     id="line2d_24"
     transform="matrix(0.79636254,0,0,1.0009944,15.914618,23.92994)">
    <path
       clip-path="url(#pd26486ed7e)"
       d="M 26.8,43.716731 H 419.81833"
       style="fill:none;stroke:#b0b0b0;stroke-width:0.8;stroke-linecap:square"
       id="path45547" />
  </g>
  <g
     id="line2d_25"
     transform="translate(10.5,24)">
    <g
       id="g45552">
      <use
         style="stroke:#000000;stroke-width:0.8"
         x="26.799999"
         xlink:href="#m102823b475"
         y="43.716732"
         id="use45550"
         width="100%"
         height="100%" />
    </g>
  </g>
  <g
     id="text_9"
     transform="translate(10.5,24)">
    <!-- 0.20 -->
    <g
       transform="matrix(0.06,0,0,-0.06,6.440625,45.996262)"
       id="g45563">
      <use
         xlink:href="#DejaVuSans-48"
         id="use45555"
         x="0"
         y="0"
         width="100%"
         height="100%" />
      <use
         x="63.623047"
         xlink:href="#DejaVuSans-46"
         id="use45557"
         y="0"
         width="100%"
         height="100%" />
      <path
         d="m 114.59766,8.296875 h 34.42187 V 0 h -46.28125 v 8.296875 q 5.60938,5.8125 15.29688,15.59375 9.70312,9.796875 12.1875,12.640625 4.73437,5.3125 6.60937,9 1.89063,3.6875 1.89063,7.25 0,5.8125 -4.07813,9.46875 -4.07812,3.671875 -10.625,3.671875 -4.64062,0 -9.79687,-1.609375 -5.14063,-1.609375 -11,-4.890625 v 9.96875 q 5.95312,2.390625 11.125,3.609375 5.1875,1.21875 9.48437,1.21875 11.32813,0 18.0625,-5.671875 6.73438,-5.65625 6.73438,-15.125 0,-4.5 -1.6875,-8.53125 -1.67188,-4.015625 -6.125,-9.484375 -1.21875,-1.421875 -7.76563,-8.1875 -6.53125,-6.765625 -18.45312,-18.921875 z"
         id="use45559" />
      <use
         x="159.0332"
         xlink:href="#DejaVuSans-48"
         id="use45561"
         y="0"
         width="100%"
         height="100%" />
    </g>
  </g>
  <g
     id="line2d_26"
     transform="matrix(0.79636254,0,0,1.0009944,15.914618,23.92994)">
    <path
       clip-path="url(#pd26486ed7e)"
       d="M 26.8,27.346663 H 419.81833"
       style="fill:none;stroke:#b0b0b0;stroke-width:0.8;stroke-linecap:square"
       id="path45567" />
  </g>
  <g
     id="line2d_27"
     transform="translate(10.5,24)">
    <g
       id="g45572">
      <use
         style="stroke:#000000;stroke-width:0.8"
         x="26.799999"
         xlink:href="#m102823b475"
         y="27.346663"
         id="use45570"
         width="100%"
         height="100%" />
    </g>
  </g>
  <g
     id="text_10"
     transform="translate(10.5,24)">
    <!-- 0.22 -->
    <g
       transform="matrix(0.06,0,0,-0.06,6.440625,29.626194)"
       id="g45583">
      <use
         xlink:href="#DejaVuSans-48"
         id="use45575"
         x="0"
         y="0"
         width="100%"
         height="100%" />
      <use
         x="63.623047"
         xlink:href="#DejaVuSans-46"
         id="use45577"
         y="0"
         width="100%"
         height="100%" />
      <path
         d="m 114.59766,8.296875 h 34.42187 V 0 h -46.28125 v 8.296875 q 5.60938,5.8125 15.29688,15.59375 9.70312,9.796875 12.1875,12.640625 4.73437,5.3125 6.60937,9 1.89063,3.6875 1.89063,7.25 0,5.8125 -4.07813,9.46875 -4.07812,3.671875 -10.625,3.671875 -4.64062,0 -9.79687,-1.609375 -5.14063,-1.609375 -11,-4.890625 v 9.96875 q 5.95312,2.390625 11.125,3.609375 5.1875,1.21875 9.48437,1.21875 11.32813,0 18.0625,-5.671875 6.73438,-5.65625 6.73438,-15.125 0,-4.5 -1.6875,-8.53125 -1.67188,-4.015625 -6.125,-9.484375 -1.21875,-1.421875 -7.76563,-8.1875 -6.53125,-6.765625 -18.45312,-18.921875 z"
         id="use45579" />
      <path
         d="m 178.2207,8.296875 h 34.42188 V 0 h -46.28125 v 8.296875 q 5.60937,5.8125 15.29687,15.59375 9.70313,9.796875 12.1875,12.640625 4.73438,5.3125 6.60938,9 1.89062,3.6875 1.89062,7.25 0,5.8125 -4.07812,9.46875 -4.07813,3.671875 -10.625,3.671875 -4.64063,0 -9.79688,-1.609375 -5.14062,-1.609375 -11,-4.890625 v 9.96875 q 5.95313,2.390625 11.125,3.609375 5.1875,1.21875 9.48438,1.21875 11.32812,0 18.0625,-5.671875 6.73437,-5.65625 6.73437,-15.125 0,-4.5 -1.6875,-8.53125 -1.67187,-4.015625 -6.125,-9.484375 -1.21875,-1.421875 -7.76562,-8.1875 -6.53125,-6.765625 -18.45313,-18.921875 z"
         id="use45581" />
    </g>
  </g>
  <path
     clip-path="url(#pd26486ed7e)"
     d="M 45.079185,90.639482 V 28.482237"
     style="fill:none;stroke:#1f77b4;stroke-width:1.5;stroke-linecap:square"
     id="path45238"
     transform="translate(10.5,24)" />
  <path
     clip-path="url(#pd26486ed7e)"
     d="M 56.649758,93.772537 V 53.724574"
     style="fill:none;stroke:#ff7f0e;stroke-width:1.5;stroke-linecap:square"
     id="path45241"
     transform="translate(13.5,24)" />
  <path
     clip-path="url(#pd26486ed7e)"
     d="M 79.790905,107.49812 V 69.409918"
     style="fill:none;stroke:#2ca02c;stroke-width:1.5;stroke-linecap:square"
     id="path45244"
     transform="translate(5.9999999,24)" />
  <path
     clip-path="url(#pd26486ed7e)"
     d="M 91.361478,103.53577 V 60.984644"
     style="fill:none;stroke:#9467bd;stroke-width:1.5;stroke-linecap:square"
     id="path45247"
     transform="translate(10.5,24)" />
  <path
     clip-path="url(#pd26486ed7e)"
     d="M 199.35349,89.673843 V 25.184364"
     style="fill:none;stroke:#1f77b4;stroke-width:1.5;stroke-linecap:square"
     id="path45250"
     transform="translate(-40.5,24)" />
  <path
     clip-path="url(#pd26486ed7e)"
     d="M 210.92407,94.906463 V 57.732209"
     style="fill:none;stroke:#ff7f0e;stroke-width:1.5;stroke-linecap:square"
     id="path45253"
     transform="translate(-37.5,24)" />
  <path
     clip-path="url(#pd26486ed7e)"
     d="M 234.06521,109.35164 V 69.684121"
     style="fill:none;stroke:#2ca02c;stroke-width:1.5;stroke-linecap:square"
     id="path45256"
     transform="translate(-45,24)" />
  <path
     clip-path="url(#pd26486ed7e)"
     d="M 245.63579,96.983114 V 61.73274"
     style="fill:none;stroke:#9467bd;stroke-width:1.5;stroke-linecap:square"
     id="path45259"
     transform="translate(-40.5,24)" />
  <path
     clip-path="url(#pd26486ed7e)"
     d="M 353.6278,93.116313 V 38.173193"
     style="fill:none;stroke:#1f77b4;stroke-width:1.5;stroke-linecap:square"
     id="path45262"
     transform="translate(-76.5,24)" />
  <path
     clip-path="url(#pd26486ed7e)"
     d="M 365.19837,95.844471 V 60.558806"
     style="fill:none;stroke:#ff7f0e;stroke-width:1.5;stroke-linecap:square"
     id="path45265"
     transform="translate(-73.5,24)" />
  <path
     clip-path="url(#pd26486ed7e)"
     d="M 388.33952,98.083693 V 61.662508"
     style="fill:none;stroke:#2ca02c;stroke-width:1.5;stroke-linecap:square"
     id="path45268"
     transform="translate(-81,24)" />
  <path
     clip-path="url(#pd26486ed7e)"
     d="M 399.91009,97.18817 V 61.225469"
     style="fill:none;stroke:#9467bd;stroke-width:1.5;stroke-linecap:square"
     id="path45271"
     transform="translate(-76.5,24)" />
  <use
     style="fill:#ffffff;stroke:#1f77b4"
     x="45.079185"
     xlink:href="#ma858dfdc28"
     y="62.666401"
     id="use45277"
     width="100%"
     height="100%"
     transform="translate(10.5,24)" />
  <use
     style="fill:#ffffff;stroke:#ff7f0e"
     x="56.649757"
     xlink:href="#m978bf5b65b"
     y="74.013695"
     id="use45285"
     width="100%"
     height="100%"
     transform="translate(13.5,24)" />
  <use
     style="fill:#ffffff;stroke:#2ca02c"
     x="79.790909"
     xlink:href="#m803ab98226"
     y="87.750618"
     id="use45293"
     width="100%"
     height="100%"
     transform="translate(5.9999999,24)" />
  <use
     style="fill:#ffffff;stroke:#9467bd"
     x="91.361481"
     xlink:href="#m4664ed09e3"
     y="82.853127"
     id="use45301"
     width="100%"
     height="100%"
     transform="translate(10.5,24)" />
  <use
     style="fill:#ffffff;stroke:#1f77b4"
     x="199.3535"
     xlink:href="#ma858dfdc28"
     y="60.915432"
     id="use45306"
     width="100%"
     height="100%"
     transform="translate(-40.5,24)" />
  <use
     style="fill:#ffffff;stroke:#ff7f0e"
     x="210.92407"
     xlink:href="#m978bf5b65b"
     y="77.729523"
     id="use45311"
     width="100%"
     height="100%"
     transform="translate(-37.5,24)" />
  <use
     style="fill:#ffffff;stroke:#2ca02c"
     x="234.06522"
     xlink:href="#m803ab98226"
     y="89.874435"
     id="use45316"
     width="100%"
     height="100%"
     transform="translate(-45,24)" />
  <use
     style="fill:#ffffff;stroke:#9467bd"
     x="245.63579"
     xlink:href="#m4664ed09e3"
     y="79.576744"
     id="use45321"
     width="100%"
     height="100%"
     transform="translate(-40.5,24)" />
  <use
     style="fill:#ffffff;stroke:#1f77b4"
     x="353.62781"
     xlink:href="#ma858dfdc28"
     y="68.417725"
     id="use45326"
     width="100%"
     height="100%"
     transform="translate(-76.5,24)" />
  <use
     style="fill:#ffffff;stroke:#ff7f0e"
     x="365.19836"
     xlink:href="#m978bf5b65b"
     y="78.877251"
     id="use45331"
     width="100%"
     height="100%"
     transform="translate(-73.5,24)" />
  <use
     style="fill:#ffffff;stroke:#2ca02c"
     x="388.33951"
     xlink:href="#m803ab98226"
     y="80.821388"
     id="use45336"
     width="100%"
     height="100%"
     transform="translate(-81,24)" />
  <use
     style="fill:#ffffff;stroke:#9467bd"
     x="399.9101"
     xlink:href="#m4664ed09e3"
     y="80.438423"
     id="use45341"
     width="100%"
     height="100%"
     transform="translate(-76.5,24)" />
  <g
     id="line2d_13"
     transform="translate(10.5,24)">
    <defs
       id="defs45347">
      <path
         d="M 0,0 V 3.5"
         id="m84df8dd1e5"
         style="stroke:#000000;stroke-width:0.8" />
    </defs>
    <g
       id="g45351">
      <use
         style="stroke:#000000;stroke-width:0.8"
         x="68.220329"
         xlink:href="#m84df8dd1e5"
         y="113.56"
         id="use45349"
         width="100%"
         height="100%" />
    </g>
  </g>
  <g
     id="line2d_14"
     transform="translate(-40.5,24)">
    <g
       id="g45370">
      <use
         style="stroke:#000000;stroke-width:0.8"
         x="222.49464"
         xlink:href="#m84df8dd1e5"
         y="113.56"
         id="use45368"
         width="100%"
         height="100%" />
    </g>
  </g>
  <g
     id="line2d_15"
     transform="translate(-76.5,24)">
    <g
       id="g45388">
      <use
         style="stroke:#000000;stroke-width:0.8"
         x="376.76895"
         xlink:href="#m84df8dd1e5"
         y="113.56"
         id="use45386"
         width="100%"
         height="100%" />
    </g>
  </g>
  <g
     transform="matrix(0.0726,0,0,-0.0726,153.11857,156.39569)"
     id="g45447">
    <use
       xlink:href="#DejaVuSans-67"
       id="use45417"
       x="0"
       y="0"
       width="100%"
       height="100%" />
    <use
       x="69.824219"
       xlink:href="#DejaVuSans-111"
       id="use45419"
       y="0"
       width="100%"
       height="100%" />
    <use
       x="131.00586"
       xlink:href="#DejaVuSans-118"
       id="use45421"
       y="0"
       width="100%"
       height="100%" />
    <use
       x="190.18555"
       xlink:href="#DejaVuSans-97"
       id="use45423"
       y="0"
       width="100%"
       height="100%" />
    <use
       x="251.46484"
       xlink:href="#DejaVuSans-114"
       id="use45425"
       y="0"
       width="100%"
       height="100%" />
    <use
       x="292.57812"
       xlink:href="#DejaVuSans-105"
       id="use45427"
       y="0"
       width="100%"
       height="100%" />
    <use
       x="320.36133"
       xlink:href="#DejaVuSans-97"
       id="use45429"
       y="0"
       width="100%"
       height="100%" />
    <use
       x="381.64062"
       xlink:href="#DejaVuSans-110"
       id="use45431"
       y="0"
       width="100%"
       height="100%" />
    <use
       x="445.01953"
       xlink:href="#DejaVuSans-99"
       id="use45433"
       y="0"
       width="100%"
       height="100%" />
    <use
       x="500"
       xlink:href="#DejaVuSans-101"
       id="use45435"
       y="0"
       width="100%"
       height="100%" />
    <use
       x="561.52344"
       xlink:href="#DejaVuSans-32"
       id="use45437"
       y="0"
       width="100%"
       height="100%" />
    <use
       x="593.31055"
       xlink:href="#DejaVuSans-114"
       id="use45439"
       y="0"
       width="100%"
       height="100%" />
    <use
       x="634.42383"
       xlink:href="#DejaVuSans-97"
       id="use45441"
       y="0"
       width="100%"
       height="100%" />
    <use
       x="695.70312"
       xlink:href="#DejaVuSans-110"
       id="use45443"
       y="0"
       width="100%"
       height="100%" />
    <use
       x="759.08203"
       xlink:href="#DejaVuSans-107"
       id="use45445"
       y="0"
       width="100%"
       height="100%" />
  </g>
  <path
     d="M 37.3,137.56 V 44.976"
     style="fill:none;stroke:#000000;stroke-width:0.8;stroke-linecap:square;stroke-linejoin:miter"
     id="path45588" />
  <path
     d="M 37.257134,137.60287 H 350.24221"
     style="fill:none;stroke:#000000;stroke-width:0.714268;stroke-linecap:square;stroke-linejoin:miter"
     id="path45591" />
  <use
     transform="matrix(0.05,0,0,-0.05,55.579185,48.49238)"
     xlink:href="#DejaVuSans-112"
     id="use45598"
     x="0"
     y="0"
     width="100%"
     height="100%" />
  <use
     transform="matrix(0.05,0,0,-0.05,58.753013,48.49238)"
     xlink:href="#DejaVuSans-61"
     id="use45600"
     x="0"
     y="0"
     width="100%"
     height="100%" />
  <use
     transform="matrix(0.05,0,0,-0.05,62.942466,48.49238)"
     xlink:href="#DejaVuSans-48"
     id="use45602"
     x="0"
     y="0"
     width="100%"
     height="100%" />
  <use
     transform="matrix(0.05,0,0,-0.05,66.123619,48.49238)"
     xlink:href="#DejaVuSans-46"
     id="use45604"
     x="0"
     y="0"
     width="100%"
     height="100%" />
  <path
     d="m 68.668443,48.077536 h 1.721094 v 0.414844 h -2.314063 v -0.414844 q 0.280469,-0.290625 0.764844,-0.779687 0.485156,-0.489844 0.609375,-0.632032 0.236719,-0.265625 0.330469,-0.45 0.09453,-0.184375 0.09453,-0.3625 0,-0.290625 -0.203906,-0.473437 -0.203906,-0.183594 -0.53125,-0.183594 -0.232032,0 -0.489844,0.08047 -0.257031,0.08047 -0.55,0.244531 V 45.02285 q 0.297656,-0.119532 0.55625,-0.180469 0.259375,-0.06094 0.474219,-0.06094 0.566406,0 0.903125,0.283594 0.336719,0.282813 0.336719,0.75625 0,0.225 -0.08437,0.426563 -0.08359,0.200781 -0.30625,0.474219 -0.06094,0.07109 -0.388282,0.409375 -0.326562,0.338281 -0.922656,0.946093 z"
     id="use45606"
     style="stroke-width:0.05" />
  <path
     d="m 71.849595,48.077536 h 1.721094 v 0.414844 h -2.314063 v -0.414844 q 0.280469,-0.290625 0.764844,-0.779687 0.485156,-0.489844 0.609375,-0.632032 0.236719,-0.265625 0.330469,-0.45 0.09453,-0.184375 0.09453,-0.3625 0,-0.290625 -0.203906,-0.473437 -0.203907,-0.183594 -0.53125,-0.183594 -0.232032,0 -0.489844,0.08047 -0.257031,0.08047 -0.55,0.244531 V 45.02285 q 0.297656,-0.119532 0.55625,-0.180469 0.259375,-0.06094 0.474219,-0.06094 0.566406,0 0.903125,0.283594 0.336719,0.282813 0.336719,0.75625 0,0.225 -0.08438,0.426563 -0.08359,0.200781 -0.306249,0.474219 -0.06094,0.07109 -0.388282,0.409375 -0.326562,0.338281 -0.922656,0.946093 z"
     id="use45608"
     style="stroke-width:0.05" />
  <use
     transform="matrix(0.05,0,0,-0.05,74.071373,48.49238)"
     xlink:href="#DejaVuSans-56"
     id="use45610"
     x="0"
     y="0"
     width="100%"
     height="100%" />
  <use
     transform="matrix(0.05,0,0,-0.05,68.220331,72.49238)"
     xlink:href="#DejaVuSans-112"
     id="use45615"
     x="0"
     y="0"
     width="100%"
     height="100%" />
  <use
     transform="matrix(0.05,0,0,-0.05,71.394159,72.49238)"
     xlink:href="#DejaVuSans-61"
     id="use45617"
     x="0"
     y="0"
     width="100%"
     height="100%" />
  <use
     transform="matrix(0.05,0,0,-0.05,75.583612,72.49238)"
     xlink:href="#DejaVuSans-48"
     id="use45619"
     x="0"
     y="0"
     width="100%"
     height="100%" />
  <use
     transform="matrix(0.05,0,0,-0.05,78.764764,72.49238)"
     xlink:href="#DejaVuSans-46"
     id="use45621"
     x="0"
     y="0"
     width="100%"
     height="100%" />
  <use
     transform="matrix(0.05,0,0,-0.05,80.35412,72.49238)"
     xlink:href="#DejaVuSans-48"
     id="use45623"
     x="0"
     y="0"
     width="100%"
     height="100%" />
  <path
     d="m 84.494648,72.077536 h 1.721094 v 0.414844 h -2.314063 v -0.414844 q 0.280469,-0.290625 0.764844,-0.779687 0.485156,-0.489844 0.609375,-0.632032 0.236719,-0.265625 0.330469,-0.45 0.09453,-0.184375 0.09453,-0.3625 0,-0.290625 -0.203906,-0.473437 -0.203906,-0.183594 -0.53125,-0.183594 -0.232032,0 -0.489844,0.08047 -0.257031,0.08047 -0.55,0.244531 V 69.02285 q 0.297656,-0.119532 0.55625,-0.180469 0.259375,-0.06094 0.474219,-0.06094 0.566406,0 0.903125,0.283594 0.336719,0.282813 0.336719,0.75625 0,0.225 -0.08438,0.426563 -0.08359,0.200781 -0.306249,0.474218 -0.06094,0.07109 -0.388282,0.409375 -0.326562,0.338282 -0.922656,0.946094 z"
     id="use45625"
     style="stroke-width:0.05" />
  <use
     transform="matrix(0.05,0,0,-0.05,86.716425,72.49238)"
     xlink:href="#DejaVuSans-54"
     id="use45627"
     x="0"
     y="0"
     width="100%"
     height="100%" />
  <use
     transform="matrix(0.05,0,0,-0.05,86.861478,48.49238)"
     xlink:href="#DejaVuSans-112"
     id="use45635"
     x="0"
     y="0"
     width="100%"
     height="100%" />
  <use
     transform="matrix(0.05,0,0,-0.05,90.035306,48.49238)"
     xlink:href="#DejaVuSans-61"
     id="use45637"
     x="0"
     y="0"
     width="100%"
     height="100%" />
  <use
     transform="matrix(0.05,0,0,-0.05,94.224759,48.49238)"
     xlink:href="#DejaVuSans-48"
     id="use45639"
     x="0"
     y="0"
     width="100%"
     height="100%" />
  <use
     transform="matrix(0.05,0,0,-0.05,97.40591,48.49238)"
     xlink:href="#DejaVuSans-46"
     id="use45641"
     x="0"
     y="0"
     width="100%"
     height="100%" />
  <use
     transform="matrix(0.05,0,0,-0.05,98.9937,48.49238)"
     xlink:href="#DejaVuSans-56"
     id="use45643"
     x="0"
     y="0"
     width="100%"
     height="100%" />
  <use
     transform="matrix(0.05,0,0,-0.05,102.17486,48.49238)"
     xlink:href="#DejaVuSans-53"
     id="use45645"
     x="0"
     y="0"
     width="100%"
     height="100%" />
  <use
     transform="matrix(0.05,0,0,-0.05,105.35601,48.49238)"
     xlink:href="#DejaVuSans-52"
     id="use45647"
     x="0"
     y="0"
     width="100%"
     height="100%" />
  <use
     transform="matrix(0.05,0,0,-0.05,158.85349,44.936937)"
     xlink:href="#DejaVuSans-112"
     id="use45655"
     x="0"
     y="0"
     width="100%"
     height="100%" />
  <use
     transform="matrix(0.05,0,0,-0.05,162.02732,44.936937)"
     xlink:href="#DejaVuSans-61"
     id="use45657"
     x="0"
     y="0"
     width="100%"
     height="100%" />
  <use
     transform="matrix(0.05,0,0,-0.05,166.21677,44.936937)"
     xlink:href="#DejaVuSans-48"
     id="use45659"
     x="0"
     y="0"
     width="100%"
     height="100%" />
  <use
     transform="matrix(0.05,0,0,-0.05,169.39792,44.936937)"
     xlink:href="#DejaVuSans-46"
     id="use45661"
     x="0"
     y="0"
     width="100%"
     height="100%" />
  <path
     d="m 171.60759,44.522093 h 0.80547 v -2.78125 l -0.87656,0.175781 v -0.449218 l 0.87187,-0.175782 h 0.49297 v 3.230469 h 0.80547 v 0.414844 h -2.09922 z"
     id="use45663"
     style="stroke-width:0.05" />
  <path
     d="m 176.19734,42.971312 q 0.3539,0.07578 0.55234,0.315625 0.19922,0.239062 0.19922,0.590625 0,0.539062 -0.3711,0.835156 -0.37109,0.295313 -1.05468,0.295313 -0.22891,0 -0.47188,-0.04531 -0.24297,-0.04531 -0.50156,-0.135937 v -0.475782 q 0.20469,0.119532 0.44844,0.180469 0.24453,0.06094 0.51093,0.06094 0.46329,0 0.70625,-0.182813 0.24297,-0.182812 0.24297,-0.532031 0,-0.322656 -0.22578,-0.503906 -0.22578,-0.182032 -0.62812,-0.182032 h -0.425 v -0.405468 h 0.44453 q 0.36328,0 0.55625,-0.145313 0.19297,-0.145312 0.19297,-0.41875 0,-0.280469 -0.19922,-0.430469 -0.19844,-0.150781 -0.56953,-0.150781 -0.20313,0 -0.43516,0.04453 -0.23203,0.04375 -0.51016,0.135937 v -0.439063 q 0.28125,-0.07813 0.52657,-0.117187 0.24531,-0.03906 0.4625,-0.03906 0.56172,0 0.88828,0.255469 0.32734,0.254688 0.32734,0.689063 0,0.303125 -0.17344,0.511718 -0.17343,0.208594 -0.49296,0.289063 z"
     id="use45665"
     style="stroke-width:0.05" />
  <use
     transform="matrix(0.05,0,0,-0.05,177.34958,44.936937)"
     xlink:href="#DejaVuSans-57"
     id="use45667"
     x="0"
     y="0"
     width="100%"
     height="100%" />
  <use
     transform="matrix(0.05,0,0,-0.05,171.49464,77.936937)"
     xlink:href="#DejaVuSans-112"
     id="use45672"
     x="0"
     y="0"
     width="100%"
     height="100%" />
  <use
     transform="matrix(0.05,0,0,-0.05,174.66847,77.936937)"
     xlink:href="#DejaVuSans-61"
     id="use45674"
     x="0"
     y="0"
     width="100%"
     height="100%" />
  <use
     transform="matrix(0.05,0,0,-0.05,178.85792,77.936937)"
     xlink:href="#DejaVuSans-48"
     id="use45676"
     x="0"
     y="0"
     width="100%"
     height="100%" />
  <use
     transform="matrix(0.05,0,0,-0.05,182.03907,77.936937)"
     xlink:href="#DejaVuSans-46"
     id="use45678"
     x="0"
     y="0"
     width="100%"
     height="100%" />
  <use
     transform="matrix(0.05,0,0,-0.05,183.62843,77.936937)"
     xlink:href="#DejaVuSans-48"
     id="use45680"
     x="0"
     y="0"
     width="100%"
     height="100%" />
  <use
     transform="matrix(0.05,0,0,-0.05,186.80958,77.936937)"
     xlink:href="#DejaVuSans-53"
     id="use45682"
     x="0"
     y="0"
     width="100%"
     height="100%" />
  <path
     d="m 190.61104,77.522093 h 0.80547 v -2.78125 l -0.87656,0.175781 v -0.449218 l 0.87187,-0.175782 h 0.49297 v 3.230469 h 0.80547 v 0.414844 h -2.09922 z"
     id="use45684"
     style="stroke-width:0.05" />
  <use
     transform="matrix(0.05,0,0,-0.05,190.13579,44.936937)"
     xlink:href="#DejaVuSans-112"
     id="use45689"
     x="0"
     y="0"
     width="100%"
     height="100%" />
  <use
     transform="matrix(0.05,0,0,-0.05,193.30962,44.936937)"
     xlink:href="#DejaVuSans-61"
     id="use45691"
     x="0"
     y="0"
     width="100%"
     height="100%" />
  <use
     transform="matrix(0.05,0,0,-0.05,197.49907,44.936937)"
     xlink:href="#DejaVuSans-48"
     id="use45693"
     x="0"
     y="0"
     width="100%"
     height="100%" />
  <use
     transform="matrix(0.05,0,0,-0.05,200.68022,44.936937)"
     xlink:href="#DejaVuSans-46"
     id="use45695"
     x="0"
     y="0"
     width="100%"
     height="100%" />
  <use
     transform="matrix(0.05,0,0,-0.05,202.26802,44.936937)"
     xlink:href="#DejaVuSans-56"
     id="use45697"
     x="0"
     y="0"
     width="100%"
     height="100%" />
  <path
     d="m 207.47808,42.971312 q 0.3539,0.07578 0.55234,0.315625 0.19922,0.239062 0.19922,0.590625 0,0.539062 -0.37109,0.835156 -0.3711,0.295313 -1.05469,0.295313 -0.22891,0 -0.47188,-0.04531 -0.24297,-0.04531 -0.50156,-0.135937 v -0.475782 q 0.20469,0.119532 0.44844,0.180469 0.24453,0.06094 0.51093,0.06094 0.46329,0 0.70625,-0.182813 0.24297,-0.182812 0.24297,-0.532031 0,-0.322656 -0.22578,-0.503906 -0.22578,-0.182032 -0.62812,-0.182032 h -0.425 v -0.405468 h 0.44453 q 0.36328,0 0.55625,-0.145313 0.19297,-0.145312 0.19297,-0.41875 0,-0.280469 -0.19922,-0.430469 -0.19844,-0.150781 -0.56953,-0.150781 -0.20313,0 -0.43516,0.04453 -0.23203,0.04375 -0.51016,0.135937 v -0.439063 q 0.28125,-0.07813 0.52657,-0.117187 0.24531,-0.03906 0.4625,-0.03906 0.56172,0 0.88828,0.255469 0.32734,0.254688 0.32734,0.689063 0,0.303125 -0.17344,0.511718 -0.17343,0.208594 -0.49296,0.289063 z"
     id="use45699"
     style="stroke-width:0.05" />
  <path
     d="m 210.65923,42.971312 q 0.3539,0.07578 0.55234,0.315625 0.19922,0.239062 0.19922,0.590625 0,0.539062 -0.37109,0.835156 -0.3711,0.295313 -1.05469,0.295313 -0.22891,0 -0.47188,-0.04531 -0.24297,-0.04531 -0.50156,-0.135937 v -0.475782 q 0.20469,0.119532 0.44844,0.180469 0.24453,0.06094 0.51093,0.06094 0.46329,0 0.70625,-0.182813 0.24297,-0.182812 0.24297,-0.532031 0,-0.322656 -0.22578,-0.503906 -0.22578,-0.182032 -0.62812,-0.182032 h -0.425 v -0.405468 h 0.44453 q 0.36328,0 0.55625,-0.145313 0.19297,-0.145312 0.19297,-0.41875 0,-0.280469 -0.19922,-0.430469 -0.19844,-0.150781 -0.56953,-0.150781 -0.20313,0 -0.43516,0.04453 -0.23203,0.04375 -0.51016,0.135937 v -0.439063 q 0.28125,-0.07813 0.52657,-0.117187 0.24531,-0.03906 0.4625,-0.03906 0.56172,0 0.88828,0.255469 0.32734,0.254688 0.32734,0.689063 0,0.303125 -0.17344,0.511718 -0.17343,0.208594 -0.49296,0.289063 z"
     id="use45701"
     style="stroke-width:0.05" />
  <use
     transform="matrix(0.05,0,0,-0.05,277.1278,44.936937)"
     xlink:href="#DejaVuSans-112"
     id="use45706"
     x="0"
     y="0"
     width="100%"
     height="100%" />
  <use
     transform="matrix(0.05,0,0,-0.05,280.30163,44.936937)"
     xlink:href="#DejaVuSans-61"
     id="use45708"
     x="0"
     y="0"
     width="100%"
     height="100%" />
  <use
     transform="matrix(0.05,0,0,-0.05,284.49108,44.936937)"
     xlink:href="#DejaVuSans-48"
     id="use45710"
     x="0"
     y="0"
     width="100%"
     height="100%" />
  <use
     transform="matrix(0.05,0,0,-0.05,287.67223,44.936937)"
     xlink:href="#DejaVuSans-46"
     id="use45712"
     x="0"
     y="0"
     width="100%"
     height="100%" />
  <path
     d="m 290.21706,44.522093 h 1.72109 v 0.414844 h -2.31406 v -0.414844 q 0.28047,-0.290625 0.76484,-0.779687 0.48516,-0.489844 0.60938,-0.632032 0.23671,-0.265625 0.33046,-0.45 0.0945,-0.184375 0.0945,-0.3625 0,-0.290625 -0.2039,-0.473437 -0.20391,-0.183594 -0.53125,-0.183594 -0.23203,0 -0.48985,0.08047 -0.25703,0.08047 -0.55,0.244531 v -0.498437 q 0.29766,-0.119532 0.55625,-0.180469 0.25938,-0.06094 0.47422,-0.06094 0.56641,0 0.90313,0.283594 0.33672,0.282813 0.33672,0.75625 0,0.225 -0.0844,0.426563 -0.0836,0.200781 -0.30625,0.474218 -0.0609,0.07109 -0.38828,0.409376 -0.32656,0.338281 -0.92265,0.946093 z"
     id="use45714"
     style="stroke-width:0.05" />
  <path
     d="m 293.39821,44.522093 h 1.72109 v 0.414844 h -2.31406 v -0.414844 q 0.28047,-0.290625 0.76484,-0.779687 0.48516,-0.489844 0.60938,-0.632032 0.23671,-0.265625 0.33046,-0.45 0.0945,-0.184375 0.0945,-0.3625 0,-0.290625 -0.2039,-0.473437 -0.20391,-0.183594 -0.53125,-0.183594 -0.23203,0 -0.48985,0.08047 -0.25703,0.08047 -0.55,0.244531 v -0.498437 q 0.29766,-0.119532 0.55625,-0.180469 0.25938,-0.06094 0.47422,-0.06094 0.56641,0 0.90313,0.283594 0.33672,0.282813 0.33672,0.75625 0,0.225 -0.0844,0.426563 -0.0836,0.200781 -0.30625,0.474218 -0.0609,0.07109 -0.38828,0.409376 -0.32656,0.338281 -0.92265,0.946093 z"
     id="use45716"
     style="stroke-width:0.05" />
  <use
     transform="matrix(0.05,0,0,-0.05,295.61999,44.936937)"
     xlink:href="#DejaVuSans-53"
     id="use45718"
     x="0"
     y="0"
     width="100%"
     height="100%" />
  <use
     transform="matrix(0.05,0,0,-0.05,289.76895,77.936937)"
     xlink:href="#DejaVuSans-112"
     id="use45723"
     x="0"
     y="0"
     width="100%"
     height="100%" />
  <use
     transform="matrix(0.05,0,0,-0.05,292.94278,77.936937)"
     xlink:href="#DejaVuSans-61"
     id="use45725"
     x="0"
     y="0"
     width="100%"
     height="100%" />
  <use
     transform="matrix(0.05,0,0,-0.05,297.13223,77.936937)"
     xlink:href="#DejaVuSans-48"
     id="use45727"
     x="0"
     y="0"
     width="100%"
     height="100%" />
  <use
     transform="matrix(0.05,0,0,-0.05,300.31338,77.936937)"
     xlink:href="#DejaVuSans-46"
     id="use45729"
     x="0"
     y="0"
     width="100%"
     height="100%" />
  <path
     d="m 303.93165,75.971312 q 0.3539,0.07578 0.55234,0.315625 0.19922,0.239062 0.19922,0.590625 0,0.539062 -0.3711,0.835156 -0.37109,0.295313 -1.05468,0.295313 -0.22891,0 -0.47188,-0.04531 -0.24297,-0.04531 -0.50156,-0.135937 v -0.475782 q 0.20469,0.119532 0.44844,0.180469 0.24453,0.06094 0.51093,0.06094 0.46329,0 0.70625,-0.182813 0.24297,-0.182812 0.24297,-0.532031 0,-0.322656 -0.22578,-0.503906 -0.22578,-0.182031 -0.62812,-0.182031 h -0.425 v -0.405469 h 0.44453 q 0.36328,0 0.55625,-0.145313 0.19297,-0.145312 0.19297,-0.41875 0,-0.280468 -0.19922,-0.430469 -0.19844,-0.150781 -0.56953,-0.150781 -0.20313,0 -0.43516,0.04453 -0.23203,0.04375 -0.51015,0.135937 v -0.439063 q 0.28125,-0.07813 0.52656,-0.117187 0.24531,-0.03906 0.4625,-0.03906 0.56172,0 0.88828,0.255469 0.32734,0.254688 0.32734,0.689063 0,0.303125 -0.17343,0.511718 -0.17344,0.208594 -0.49297,0.289063 z"
     id="use45731"
     style="stroke-width:0.05" />
  <path
     d="m 305.7042,77.522093 h 0.80547 v -2.78125 l -0.87656,0.175781 v -0.449218 l 0.87187,-0.175782 h 0.49297 v 3.230469 h 0.80547 v 0.414844 h -2.09922 z"
     id="use45733"
     style="stroke-width:0.05" />
  <use
     transform="matrix(0.05,0,0,-0.05,308.26504,77.936937)"
     xlink:href="#DejaVuSans-54"
     id="use45735"
     x="0"
     y="0"
     width="100%"
     height="100%" />
  <use
     transform="matrix(0.05,0,0,-0.05,308.41009,44.936937)"
     xlink:href="#DejaVuSans-112"
     id="use45740"
     x="0"
     y="0"
     width="100%"
     height="100%" />
  <use
     transform="matrix(0.05,0,0,-0.05,311.58392,44.936937)"
     xlink:href="#DejaVuSans-61"
     id="use45742"
     x="0"
     y="0"
     width="100%"
     height="100%" />
  <use
     transform="matrix(0.05,0,0,-0.05,315.77337,44.936937)"
     xlink:href="#DejaVuSans-48"
     id="use45744"
     x="0"
     y="0"
     width="100%"
     height="100%" />
  <use
     transform="matrix(0.05,0,0,-0.05,318.95452,44.936937)"
     xlink:href="#DejaVuSans-46"
     id="use45746"
     x="0"
     y="0"
     width="100%"
     height="100%" />
  <use
     transform="matrix(0.05,0,0,-0.05,320.54388,44.936937)"
     xlink:href="#DejaVuSans-53"
     id="use45748"
     x="0"
     y="0"
     width="100%"
     height="100%" />
  <use
     transform="matrix(0.05,0,0,-0.05,323.72503,44.936937)"
     xlink:href="#DejaVuSans-54"
     id="use45750"
     x="0"
     y="0"
     width="100%"
     height="100%" />
  <path
     d="m 327.52649,44.522093 h 0.80547 v -2.78125 l -0.87656,0.175781 v -0.449218 l 0.87187,-0.175782 h 0.49297 v 3.230469 h 0.80547 v 0.414844 h -2.09922 z"
     id="use45752"
     style="stroke-width:0.05" />
  <defs
     id="defs45829">
    <clipPath
       id="pd26486ed7e">
      <rect
         height="92.584"
         width="393.01834"
         x="26.799999"
         y="20.976"
         id="rect45826" />
    </clipPath>
  </defs>
  <text
     xml:space="preserve"
     style="font-style:normal;font-weight:normal;font-size:8px;line-height:1;font-family:sans-serif;letter-spacing:0px;word-spacing:0px;fill:#000000;fill-opacity:1;stroke:none;stroke-width:0.75"
     x="-109.85478"
     y="11.547277"
     id="text47415"
     transform="rotate(-90)"><tspan
       sodipodi:role="line"
       id="tspan47413"
       x="-109.85478"
       y="11.547277"
       style="font-size:8px;stroke-width:0.75"><tspan
   style="font-style:italic;font-size:8px"
   id="tspan47417">d'<tspan
   style="font-size:65%;baseline-shift:super"
   id="tspan47421">2</tspan> </tspan>Error</tspan></text>
  <text
     xml:space="preserve"
     style="font-style:normal;font-weight:normal;font-size:8px;line-height:1;font-family:sans-serif;letter-spacing:0px;word-spacing:0px;fill:#000000;fill-opacity:1;stroke:none;stroke-width:0.75"
     x="76.105095"
     y="149.3519"
     id="text47638"><tspan
       sodipodi:role="line"
       id="tspan47636"
       x="76.105095"
       y="149.3519"
       style="font-size:8px;stroke-width:0.75">1</tspan></text>
  <text
     xml:space="preserve"
     style="font-style:normal;font-weight:normal;font-size:8px;line-height:1;font-family:sans-serif;letter-spacing:0px;word-spacing:0px;fill:#000000;fill-opacity:1;stroke:none;stroke-width:0.75;stroke-linecap:butt;stroke-linejoin:round"
     x="179.55714"
     y="149.40463"
     id="text47638-4"><tspan
       sodipodi:role="line"
       id="tspan47636-9"
       x="179.55714"
       y="149.40463"
       style="font-size:8px;stroke-width:0.75">2</tspan></text>
  <text
     xml:space="preserve"
     style="font-style:normal;font-weight:normal;font-size:8px;line-height:1;font-family:sans-serif;letter-spacing:0px;word-spacing:0px;fill:#000000;fill-opacity:1;stroke:none;stroke-width:0.75;stroke-linecap:butt;stroke-linejoin:round"
     x="297.73965"
     y="149.34799"
     id="text47638-0"><tspan
       sodipodi:role="line"
       id="tspan47636-91"
       x="297.73965"
       y="149.34799"
       style="font-size:8px;stroke-width:0.75">3</tspan></text>
  <text
     xml:space="preserve"
     style="font-style:normal;font-weight:normal;font-size:6px;line-height:1;font-family:sans-serif;letter-spacing:0px;word-spacing:0px;fill:#1f77b4;fill-opacity:1;stroke:none;stroke-width:0.75"
     x="36.782555"
     y="6.0758724"
     id="text1086"><tspan
       sodipodi:role="line"
       id="tspan1084"
       x="36.782555"
       y="6.0758724"
       style="fill:#1f77b4;fill-opacity:1;stroke-width:0.75">Pupil-independent variance</tspan></text>
  <text
     xml:space="preserve"
     style="font-style:normal;font-weight:normal;font-size:6px;line-height:1;font-family:sans-serif;letter-spacing:0px;word-spacing:0px;fill:#ff7f0e;fill-opacity:1;stroke:none;stroke-width:0.75"
     x="36.782555"
     y="14.314228"
     id="text1090"><tspan
       sodipodi:role="line"
       x="36.782555"
       y="14.314228"
       style="fill:#ff7f0e;fill-opacity:1;stroke-width:0.75"
       id="tspan1092">Pupil-dependent single neuron variance only</tspan></text>
  <text
     xml:space="preserve"
     style="font-style:normal;font-weight:normal;font-size:6px;line-height:1;font-family:sans-serif;letter-spacing:0px;word-spacing:0px;fill:#2ca02c;fill-opacity:1;stroke:none;stroke-width:0.75"
     x="36.782555"
     y="22.552582"
     id="text1098"><tspan
       sodipodi:role="line"
       id="tspan1096"
       x="36.782555"
       y="22.552582"
       style="fill:#2ca02c;fill-opacity:1;stroke-width:0.75">Pupil-dependent shared modulator (k=1) </tspan></text>
  <text
     xml:space="preserve"
     style="font-style:normal;font-weight:normal;font-size:6px;line-height:1;font-family:sans-serif;letter-spacing:0px;word-spacing:0px;fill:#9467bd;fill-opacity:1;stroke:none;stroke-width:0.75"
     x="36.782555"
     y="30.790939"
     id="text1102"><tspan
       sodipodi:role="line"
       id="tspan1100"
       x="36.782555"
       y="30.790939"
       style="fill:#9467bd;fill-opacity:1;stroke-width:0.75">Pupil-dependent shared modulators (k=2)</tspan></text>
</svg>
